%TF.GenerationSoftware,KiCad,Pcbnew,9.0.4*%
%TF.CreationDate,2025-09-26T20:26:33+07:00*%
%TF.ProjectId,ADS115ext,41445331-3135-4657-9874-2e6b69636164,rev?*%
%TF.SameCoordinates,Original*%
%TF.FileFunction,Legend,Bot*%
%TF.FilePolarity,Positive*%
%FSLAX46Y46*%
G04 Gerber Fmt 4.6, Leading zero omitted, Abs format (unit mm)*
G04 Created by KiCad (PCBNEW 9.0.4) date 2025-09-26 20:26:33*
%MOMM*%
%LPD*%
G01*
G04 APERTURE LIST*
%ADD10C,0.200000*%
%ADD11C,0.300000*%
G04 APERTURE END LIST*
D10*
X131000000Y-89000000D02*
X136000000Y-89000000D01*
X136000000Y-99000000D01*
X131000000Y-99000000D01*
X131000000Y-89000000D01*
X134754136Y-90251723D02*
X134354136Y-91551723D01*
X134354136Y-91551723D02*
X133954136Y-90251723D01*
X133554136Y-91551723D02*
X133554136Y-90251723D01*
X133554136Y-90251723D02*
X133268422Y-90251723D01*
X133268422Y-90251723D02*
X133096993Y-90313628D01*
X133096993Y-90313628D02*
X132982708Y-90437438D01*
X132982708Y-90437438D02*
X132925565Y-90561247D01*
X132925565Y-90561247D02*
X132868422Y-90808866D01*
X132868422Y-90808866D02*
X132868422Y-90994580D01*
X132868422Y-90994580D02*
X132925565Y-91242199D01*
X132925565Y-91242199D02*
X132982708Y-91366009D01*
X132982708Y-91366009D02*
X133096993Y-91489819D01*
X133096993Y-91489819D02*
X133268422Y-91551723D01*
X133268422Y-91551723D02*
X133554136Y-91551723D01*
X132354136Y-91551723D02*
X132354136Y-90251723D01*
X132354136Y-90251723D02*
X132068422Y-90251723D01*
X132068422Y-90251723D02*
X131896993Y-90313628D01*
X131896993Y-90313628D02*
X131782708Y-90437438D01*
X131782708Y-90437438D02*
X131725565Y-90561247D01*
X131725565Y-90561247D02*
X131668422Y-90808866D01*
X131668422Y-90808866D02*
X131668422Y-90994580D01*
X131668422Y-90994580D02*
X131725565Y-91242199D01*
X131725565Y-91242199D02*
X131782708Y-91366009D01*
X131782708Y-91366009D02*
X131896993Y-91489819D01*
X131896993Y-91489819D02*
X132068422Y-91551723D01*
X132068422Y-91551723D02*
X132354136Y-91551723D01*
X134639850Y-93582746D02*
X134468422Y-93644650D01*
X134468422Y-93644650D02*
X134182707Y-93644650D01*
X134182707Y-93644650D02*
X134068422Y-93582746D01*
X134068422Y-93582746D02*
X134011279Y-93520841D01*
X134011279Y-93520841D02*
X133954136Y-93397031D01*
X133954136Y-93397031D02*
X133954136Y-93273222D01*
X133954136Y-93273222D02*
X134011279Y-93149412D01*
X134011279Y-93149412D02*
X134068422Y-93087507D01*
X134068422Y-93087507D02*
X134182707Y-93025603D01*
X134182707Y-93025603D02*
X134411279Y-92963698D01*
X134411279Y-92963698D02*
X134525564Y-92901793D01*
X134525564Y-92901793D02*
X134582707Y-92839888D01*
X134582707Y-92839888D02*
X134639850Y-92716079D01*
X134639850Y-92716079D02*
X134639850Y-92592269D01*
X134639850Y-92592269D02*
X134582707Y-92468460D01*
X134582707Y-92468460D02*
X134525564Y-92406555D01*
X134525564Y-92406555D02*
X134411279Y-92344650D01*
X134411279Y-92344650D02*
X134125564Y-92344650D01*
X134125564Y-92344650D02*
X133954136Y-92406555D01*
X132754136Y-93520841D02*
X132811279Y-93582746D01*
X132811279Y-93582746D02*
X132982707Y-93644650D01*
X132982707Y-93644650D02*
X133096993Y-93644650D01*
X133096993Y-93644650D02*
X133268422Y-93582746D01*
X133268422Y-93582746D02*
X133382707Y-93458936D01*
X133382707Y-93458936D02*
X133439850Y-93335126D01*
X133439850Y-93335126D02*
X133496993Y-93087507D01*
X133496993Y-93087507D02*
X133496993Y-92901793D01*
X133496993Y-92901793D02*
X133439850Y-92654174D01*
X133439850Y-92654174D02*
X133382707Y-92530365D01*
X133382707Y-92530365D02*
X133268422Y-92406555D01*
X133268422Y-92406555D02*
X133096993Y-92344650D01*
X133096993Y-92344650D02*
X132982707Y-92344650D01*
X132982707Y-92344650D02*
X132811279Y-92406555D01*
X132811279Y-92406555D02*
X132754136Y-92468460D01*
X131668422Y-93644650D02*
X132239850Y-93644650D01*
X132239850Y-93644650D02*
X132239850Y-92344650D01*
X134639850Y-95675673D02*
X134468422Y-95737577D01*
X134468422Y-95737577D02*
X134182707Y-95737577D01*
X134182707Y-95737577D02*
X134068422Y-95675673D01*
X134068422Y-95675673D02*
X134011279Y-95613768D01*
X134011279Y-95613768D02*
X133954136Y-95489958D01*
X133954136Y-95489958D02*
X133954136Y-95366149D01*
X133954136Y-95366149D02*
X134011279Y-95242339D01*
X134011279Y-95242339D02*
X134068422Y-95180434D01*
X134068422Y-95180434D02*
X134182707Y-95118530D01*
X134182707Y-95118530D02*
X134411279Y-95056625D01*
X134411279Y-95056625D02*
X134525564Y-94994720D01*
X134525564Y-94994720D02*
X134582707Y-94932815D01*
X134582707Y-94932815D02*
X134639850Y-94809006D01*
X134639850Y-94809006D02*
X134639850Y-94685196D01*
X134639850Y-94685196D02*
X134582707Y-94561387D01*
X134582707Y-94561387D02*
X134525564Y-94499482D01*
X134525564Y-94499482D02*
X134411279Y-94437577D01*
X134411279Y-94437577D02*
X134125564Y-94437577D01*
X134125564Y-94437577D02*
X133954136Y-94499482D01*
X133439850Y-95737577D02*
X133439850Y-94437577D01*
X133439850Y-94437577D02*
X133154136Y-94437577D01*
X133154136Y-94437577D02*
X132982707Y-94499482D01*
X132982707Y-94499482D02*
X132868422Y-94623292D01*
X132868422Y-94623292D02*
X132811279Y-94747101D01*
X132811279Y-94747101D02*
X132754136Y-94994720D01*
X132754136Y-94994720D02*
X132754136Y-95180434D01*
X132754136Y-95180434D02*
X132811279Y-95428053D01*
X132811279Y-95428053D02*
X132868422Y-95551863D01*
X132868422Y-95551863D02*
X132982707Y-95675673D01*
X132982707Y-95675673D02*
X133154136Y-95737577D01*
X133154136Y-95737577D02*
X133439850Y-95737577D01*
X132296993Y-95366149D02*
X131725565Y-95366149D01*
X132411279Y-95737577D02*
X132011279Y-94437577D01*
X132011279Y-94437577D02*
X131611279Y-95737577D01*
X133954136Y-96592409D02*
X134068422Y-96530504D01*
X134068422Y-96530504D02*
X134239850Y-96530504D01*
X134239850Y-96530504D02*
X134411279Y-96592409D01*
X134411279Y-96592409D02*
X134525564Y-96716219D01*
X134525564Y-96716219D02*
X134582707Y-96840028D01*
X134582707Y-96840028D02*
X134639850Y-97087647D01*
X134639850Y-97087647D02*
X134639850Y-97273361D01*
X134639850Y-97273361D02*
X134582707Y-97520980D01*
X134582707Y-97520980D02*
X134525564Y-97644790D01*
X134525564Y-97644790D02*
X134411279Y-97768600D01*
X134411279Y-97768600D02*
X134239850Y-97830504D01*
X134239850Y-97830504D02*
X134125564Y-97830504D01*
X134125564Y-97830504D02*
X133954136Y-97768600D01*
X133954136Y-97768600D02*
X133896993Y-97706695D01*
X133896993Y-97706695D02*
X133896993Y-97273361D01*
X133896993Y-97273361D02*
X134125564Y-97273361D01*
X133382707Y-97830504D02*
X133382707Y-96530504D01*
X133382707Y-96530504D02*
X132696993Y-97830504D01*
X132696993Y-97830504D02*
X132696993Y-96530504D01*
X132125564Y-97830504D02*
X132125564Y-96530504D01*
X132125564Y-96530504D02*
X131839850Y-96530504D01*
X131839850Y-96530504D02*
X131668421Y-96592409D01*
X131668421Y-96592409D02*
X131554136Y-96716219D01*
X131554136Y-96716219D02*
X131496993Y-96840028D01*
X131496993Y-96840028D02*
X131439850Y-97087647D01*
X131439850Y-97087647D02*
X131439850Y-97273361D01*
X131439850Y-97273361D02*
X131496993Y-97520980D01*
X131496993Y-97520980D02*
X131554136Y-97644790D01*
X131554136Y-97644790D02*
X131668421Y-97768600D01*
X131668421Y-97768600D02*
X131839850Y-97830504D01*
X131839850Y-97830504D02*
X132125564Y-97830504D01*
D11*
G36*
X177975362Y-92705000D02*
G01*
X177578864Y-92705000D01*
X177473351Y-92394323D01*
X176907684Y-92394323D01*
X176802172Y-92705000D01*
X176395324Y-92705000D01*
X176612078Y-92118817D01*
X177003031Y-92118817D01*
X177378005Y-92118817D01*
X177190518Y-91571468D01*
X177003031Y-92118817D01*
X176612078Y-92118817D01*
X176958884Y-91180924D01*
X177411802Y-91180924D01*
X177975362Y-92705000D01*
G37*
G36*
X176175689Y-92705000D02*
G01*
X175637774Y-92705000D01*
X175461574Y-92697831D01*
X175322243Y-92678438D01*
X175193783Y-92641319D01*
X175077329Y-92584191D01*
X174985410Y-92516729D01*
X174903603Y-92431322D01*
X174831407Y-92325812D01*
X174777852Y-92210091D01*
X174745241Y-92083775D01*
X174734045Y-91944519D01*
X174734234Y-91941954D01*
X175140801Y-91941954D01*
X175146948Y-92041549D01*
X175164141Y-92125078D01*
X175190993Y-92195112D01*
X175230356Y-92258184D01*
X175282442Y-92312479D01*
X175348804Y-92358694D01*
X175412513Y-92387255D01*
X175476849Y-92405039D01*
X175551797Y-92413973D01*
X175682837Y-92417770D01*
X175782213Y-92417770D01*
X175782213Y-91468154D01*
X175682837Y-91468154D01*
X175563835Y-91471308D01*
X175492786Y-91478870D01*
X175430792Y-91494157D01*
X175369321Y-91519078D01*
X175295796Y-91565429D01*
X175238582Y-91620774D01*
X175195664Y-91685774D01*
X175166060Y-91758678D01*
X175147394Y-91843338D01*
X175140801Y-91941954D01*
X174734234Y-91941954D01*
X174744747Y-91799437D01*
X174775392Y-91672309D01*
X174824720Y-91560203D01*
X174892940Y-91458395D01*
X174975396Y-91372313D01*
X175073207Y-91300634D01*
X175172598Y-91251304D01*
X175300719Y-91212157D01*
X175442455Y-91189355D01*
X175622387Y-91180924D01*
X176175689Y-91180924D01*
X176175689Y-92705000D01*
G37*
G36*
X173211893Y-92226619D02*
G01*
X173219649Y-92314101D01*
X173242252Y-92393056D01*
X173279545Y-92465186D01*
X173332478Y-92531726D01*
X173403044Y-92593350D01*
X173500841Y-92652030D01*
X173617481Y-92696049D01*
X173756471Y-92724236D01*
X173921999Y-92734309D01*
X174105273Y-92725321D01*
X174252459Y-92700786D01*
X174390213Y-92662340D01*
X174516333Y-92615790D01*
X174516333Y-92247777D01*
X174473285Y-92247777D01*
X174388842Y-92310336D01*
X174298040Y-92362389D01*
X174200252Y-92404214D01*
X174098325Y-92435141D01*
X174001764Y-92453008D01*
X173909726Y-92458803D01*
X173815478Y-92452391D01*
X173759982Y-92443270D01*
X173720132Y-92430959D01*
X173678209Y-92408786D01*
X173645852Y-92382874D01*
X173624575Y-92348873D01*
X173616634Y-92297328D01*
X173626982Y-92251139D01*
X173659224Y-92210683D01*
X173708269Y-92179984D01*
X173783696Y-92154720D01*
X173965505Y-92116344D01*
X174059480Y-92095661D01*
X174145389Y-92070640D01*
X174269283Y-92020218D01*
X174359387Y-91963357D01*
X174422544Y-91900922D01*
X174468691Y-91825516D01*
X174497118Y-91737827D01*
X174507083Y-91634758D01*
X174499448Y-91552580D01*
X174477120Y-91478059D01*
X174440075Y-91409554D01*
X174387130Y-91345906D01*
X174316024Y-91286529D01*
X174218171Y-91229627D01*
X174105431Y-91187535D01*
X173975265Y-91160979D01*
X173824637Y-91151615D01*
X173674868Y-91158882D01*
X173527058Y-91180649D01*
X173385544Y-91214603D01*
X173272343Y-91253464D01*
X173272343Y-91602976D01*
X173314384Y-91602976D01*
X173414353Y-91535637D01*
X173540339Y-91477588D01*
X173630586Y-91449432D01*
X173721391Y-91432695D01*
X173813372Y-91427121D01*
X173911283Y-91434082D01*
X173959042Y-91444024D01*
X174004980Y-91460094D01*
X174042080Y-91480147D01*
X174073674Y-91508545D01*
X174095252Y-91543434D01*
X174102342Y-91582459D01*
X174096997Y-91620429D01*
X174081780Y-91650760D01*
X174056271Y-91675333D01*
X173998927Y-91702936D01*
X173882065Y-91734226D01*
X173720682Y-91768114D01*
X173554169Y-91813269D01*
X173441391Y-91859248D01*
X173356906Y-91911640D01*
X173295424Y-91969706D01*
X173250118Y-92039896D01*
X173221906Y-92124297D01*
X173211893Y-92226619D01*
G37*
G36*
X171845080Y-92705000D02*
G01*
X172863572Y-92705000D01*
X172863572Y-92441217D01*
X172541813Y-92441217D01*
X172541813Y-91632285D01*
X172863572Y-91632285D01*
X172863572Y-91386088D01*
X172722156Y-91377479D01*
X172657866Y-91365116D01*
X172609407Y-91347711D01*
X172561845Y-91317836D01*
X172529540Y-91282041D01*
X172508966Y-91237968D01*
X172498765Y-91180924D01*
X172159603Y-91180924D01*
X172159603Y-92441217D01*
X171845080Y-92441217D01*
X171845080Y-92705000D01*
G37*
G36*
X170353244Y-92705000D02*
G01*
X171371737Y-92705000D01*
X171371737Y-92441217D01*
X171049978Y-92441217D01*
X171049978Y-91632285D01*
X171371737Y-91632285D01*
X171371737Y-91386088D01*
X171230321Y-91377479D01*
X171166031Y-91365116D01*
X171117572Y-91347711D01*
X171070010Y-91317836D01*
X171037704Y-91282041D01*
X171017131Y-91237968D01*
X171006930Y-91180924D01*
X170667768Y-91180924D01*
X170667768Y-92441217D01*
X170353244Y-92441217D01*
X170353244Y-92705000D01*
G37*
G36*
X168861409Y-92705000D02*
G01*
X169879902Y-92705000D01*
X169879902Y-92441217D01*
X169558142Y-92441217D01*
X169558142Y-91632285D01*
X169879902Y-91632285D01*
X169879902Y-91386088D01*
X169738485Y-91377479D01*
X169674196Y-91365116D01*
X169625737Y-91347711D01*
X169578174Y-91317836D01*
X169545869Y-91282041D01*
X169525296Y-91237968D01*
X169515095Y-91180924D01*
X169175933Y-91180924D01*
X169175933Y-92441217D01*
X168861409Y-92441217D01*
X168861409Y-92705000D01*
G37*
G36*
X167306010Y-92186960D02*
G01*
X167311087Y-92265139D01*
X167326015Y-92338391D01*
X167350614Y-92407512D01*
X167384824Y-92472154D01*
X167427856Y-92530079D01*
X167480216Y-92581901D01*
X167545755Y-92628989D01*
X167617742Y-92667327D01*
X167696920Y-92697031D01*
X167824343Y-92724499D01*
X167976181Y-92734309D01*
X168152419Y-92725842D01*
X168286126Y-92705183D01*
X168406291Y-92673831D01*
X168492572Y-92642351D01*
X168492572Y-92306395D01*
X168449524Y-92306395D01*
X168353292Y-92356779D01*
X168248756Y-92398536D01*
X168140547Y-92426295D01*
X168034525Y-92435355D01*
X167968837Y-92431854D01*
X167894665Y-92420701D01*
X167825135Y-92399050D01*
X167775322Y-92367303D01*
X167743945Y-92334655D01*
X167722566Y-92303373D01*
X167709856Y-92265977D01*
X167704614Y-92202806D01*
X167710879Y-92152830D01*
X167728702Y-92112039D01*
X167756294Y-92077578D01*
X167790710Y-92050581D01*
X167850047Y-92023331D01*
X167923975Y-92006434D01*
X168065300Y-91995718D01*
X168156364Y-91999748D01*
X168242070Y-92011564D01*
X168390173Y-92042613D01*
X168435236Y-92042613D01*
X168435236Y-91180924D01*
X167350065Y-91180924D01*
X167350065Y-91474016D01*
X168065300Y-91474016D01*
X168065300Y-91719480D01*
X167984883Y-91715908D01*
X167899337Y-91714351D01*
X167776966Y-91720712D01*
X167674389Y-91738439D01*
X167580133Y-91768019D01*
X167503755Y-91805392D01*
X167445819Y-91847212D01*
X167397604Y-91896618D01*
X167358308Y-91954228D01*
X167330301Y-92018030D01*
X167312413Y-92094713D01*
X167306010Y-92186960D01*
G37*
G36*
X165153894Y-92705000D02*
G01*
X166257475Y-92705000D01*
X166257475Y-91180924D01*
X165153894Y-91180924D01*
X165153894Y-91474016D01*
X165866106Y-91474016D01*
X165866106Y-91737798D01*
X165205185Y-91737798D01*
X165205185Y-92030889D01*
X165866106Y-92030889D01*
X165866106Y-92411908D01*
X165153894Y-92411908D01*
X165153894Y-92705000D01*
G37*
G36*
X163641817Y-92705000D02*
G01*
X164072204Y-92705000D01*
X164318126Y-92361258D01*
X164570184Y-92705000D01*
X164992328Y-92705000D01*
X164538402Y-92131090D01*
X164985184Y-91556081D01*
X164554797Y-91556081D01*
X164312997Y-91893686D01*
X164070097Y-91556081D01*
X163646946Y-91556081D01*
X164094735Y-92121839D01*
X163641817Y-92705000D01*
G37*
G36*
X162770081Y-91526054D02*
G01*
X162837829Y-91540845D01*
X162898373Y-91564691D01*
X162985044Y-91613699D01*
X163072029Y-91675974D01*
X163072029Y-91556081D01*
X163440867Y-91556081D01*
X163440867Y-93127051D01*
X163072029Y-93127051D01*
X163072029Y-92648488D01*
X162999999Y-92682628D01*
X162931712Y-92707381D01*
X162859034Y-92722734D01*
X162764558Y-92728447D01*
X162660815Y-92718077D01*
X162564798Y-92687414D01*
X162477089Y-92637048D01*
X162397736Y-92566239D01*
X162335157Y-92482195D01*
X162283522Y-92373165D01*
X162259706Y-92294019D01*
X162244996Y-92207765D01*
X162240219Y-92118908D01*
X162620119Y-92118908D01*
X162629422Y-92230568D01*
X162654288Y-92313370D01*
X162691835Y-92374081D01*
X162730442Y-92409777D01*
X162778242Y-92436024D01*
X162837219Y-92452771D01*
X162910096Y-92458803D01*
X162993169Y-92454773D01*
X163072029Y-92436454D01*
X163072029Y-91863186D01*
X163020477Y-91837118D01*
X162966516Y-91818032D01*
X162911255Y-91806122D01*
X162858897Y-91802278D01*
X162779802Y-91811597D01*
X162721048Y-91837020D01*
X162677547Y-91877383D01*
X162648164Y-91930906D01*
X162627910Y-92008703D01*
X162620119Y-92118908D01*
X162240219Y-92118908D01*
X162239924Y-92113413D01*
X162248495Y-91973895D01*
X162272426Y-91857362D01*
X162309719Y-91760121D01*
X162359359Y-91679088D01*
X162424833Y-91610039D01*
X162500821Y-91561327D01*
X162589400Y-91531399D01*
X162693850Y-91520910D01*
X162770081Y-91526054D01*
G37*
G36*
X161636083Y-91526142D02*
G01*
X161768047Y-91541885D01*
X161958099Y-91578155D01*
X161958099Y-91855034D01*
X161924302Y-91855034D01*
X161775741Y-91805300D01*
X161673188Y-91780703D01*
X161581018Y-91772969D01*
X161479522Y-91777928D01*
X161404952Y-91790938D01*
X161351491Y-91809697D01*
X161308518Y-91840485D01*
X161282876Y-91883395D01*
X161273639Y-91942595D01*
X161273639Y-91948824D01*
X161435089Y-91960784D01*
X161588254Y-91977675D01*
X161732741Y-92005309D01*
X161842328Y-92043620D01*
X161907647Y-92079328D01*
X161960419Y-92121536D01*
X162002246Y-92170382D01*
X162032523Y-92226534D01*
X162051709Y-92294621D01*
X162058574Y-92377470D01*
X162051366Y-92454763D01*
X162030533Y-92522847D01*
X161996362Y-92583551D01*
X161947932Y-92638138D01*
X161889754Y-92682484D01*
X161825468Y-92714100D01*
X161753868Y-92733470D01*
X161673342Y-92740170D01*
X161605244Y-92736673D01*
X161545298Y-92726707D01*
X161487904Y-92710201D01*
X161432549Y-92687597D01*
X161349568Y-92637405D01*
X161275745Y-92583092D01*
X161275745Y-92705000D01*
X160909931Y-92705000D01*
X160909931Y-92405955D01*
X161275745Y-92405955D01*
X161321793Y-92439089D01*
X161375671Y-92465580D01*
X161432773Y-92482615D01*
X161487779Y-92488112D01*
X161552862Y-92485220D01*
X161590269Y-92478403D01*
X161621062Y-92465753D01*
X161646598Y-92448087D01*
X161667227Y-92426167D01*
X161677372Y-92404947D01*
X161683509Y-92346420D01*
X161675813Y-92296127D01*
X161654291Y-92258676D01*
X161619987Y-92230127D01*
X161569753Y-92207843D01*
X161519264Y-92195339D01*
X161437678Y-92182656D01*
X161275745Y-92165711D01*
X161275745Y-92405955D01*
X160909931Y-92405955D01*
X160909931Y-91921713D01*
X160919654Y-91820174D01*
X160946782Y-91738167D01*
X160989884Y-91671601D01*
X161049790Y-91617814D01*
X161120083Y-91579739D01*
X161214915Y-91549287D01*
X161340534Y-91528631D01*
X161504173Y-91520910D01*
X161636083Y-91526142D01*
G37*
G36*
X159414248Y-92705000D02*
G01*
X159785101Y-92705000D01*
X159785101Y-92133746D01*
X159792336Y-91994711D01*
X159803082Y-91930406D01*
X159816883Y-91892678D01*
X159842137Y-91859891D01*
X159876875Y-91837357D01*
X159920502Y-91824831D01*
X159986967Y-91819863D01*
X160037142Y-91823886D01*
X160089000Y-91836258D01*
X160141013Y-91856644D01*
X160201199Y-91888557D01*
X160201199Y-92705000D01*
X160570036Y-92705000D01*
X160570036Y-91556081D01*
X160201199Y-91556081D01*
X160201199Y-91679912D01*
X160101951Y-91610210D01*
X160012155Y-91561943D01*
X159917798Y-91531437D01*
X159810838Y-91520910D01*
X159718403Y-91528427D01*
X159640671Y-91549631D01*
X159574969Y-91583373D01*
X159519303Y-91629720D01*
X159475774Y-91686696D01*
X159443069Y-91757720D01*
X159421914Y-91845852D01*
X159414248Y-91954960D01*
X159414248Y-92705000D01*
G37*
G36*
X158325231Y-91598763D02*
G01*
X158461060Y-91542984D01*
X158532035Y-91527024D01*
X158630595Y-91520910D01*
X158728942Y-91531361D01*
X158829348Y-91563592D01*
X158921707Y-91615190D01*
X158998425Y-91683484D01*
X159063643Y-91771638D01*
X159114746Y-91878482D01*
X159137763Y-91955384D01*
X159152199Y-92041848D01*
X159157244Y-92139241D01*
X159148330Y-92277920D01*
X159123296Y-92395010D01*
X159083986Y-92493956D01*
X159031215Y-92577596D01*
X158962275Y-92649281D01*
X158884651Y-92699303D01*
X158796567Y-92729653D01*
X158695167Y-92740170D01*
X158590898Y-92730112D01*
X158503558Y-92701611D01*
X158420907Y-92655412D01*
X158325231Y-92585107D01*
X158325231Y-92705000D01*
X157956302Y-92705000D01*
X157956302Y-91821512D01*
X158325231Y-91821512D01*
X158325231Y-92389743D01*
X158370900Y-92417314D01*
X158424699Y-92439752D01*
X158480627Y-92454241D01*
X158531219Y-92458803D01*
X158613674Y-92449204D01*
X158674367Y-92423135D01*
X158718797Y-92381958D01*
X158748641Y-92327232D01*
X158769223Y-92247691D01*
X158777141Y-92135028D01*
X158768040Y-92029304D01*
X158743100Y-91946546D01*
X158704418Y-91881871D01*
X158664853Y-91842969D01*
X158616625Y-91814740D01*
X158557924Y-91796925D01*
X158486156Y-91790554D01*
X158407205Y-91797790D01*
X158325231Y-91821512D01*
X157956302Y-91821512D01*
X157956302Y-91110582D01*
X158325231Y-91110582D01*
X158325231Y-91598763D01*
G37*
G36*
X157160319Y-91528399D02*
G01*
X157267723Y-91549719D01*
X157361646Y-91583628D01*
X157443985Y-91629570D01*
X157516207Y-91687698D01*
X157577901Y-91757544D01*
X157626071Y-91836205D01*
X157661257Y-91924928D01*
X157683202Y-92025426D01*
X157690871Y-92139791D01*
X157682700Y-92255354D01*
X157659452Y-92355347D01*
X157622333Y-92442258D01*
X157571592Y-92518079D01*
X157506498Y-92584191D01*
X157431825Y-92637087D01*
X157343751Y-92679891D01*
X157240153Y-92712164D01*
X157118460Y-92732819D01*
X156975728Y-92740170D01*
X156844619Y-92734258D01*
X156730813Y-92717547D01*
X156619299Y-92688827D01*
X156495150Y-92644549D01*
X156495150Y-92347428D01*
X156536091Y-92347428D01*
X156606813Y-92392630D01*
X156709289Y-92439385D01*
X156820819Y-92471555D01*
X156935703Y-92482250D01*
X157056994Y-92472856D01*
X157147780Y-92447716D01*
X157214964Y-92409893D01*
X157267787Y-92355527D01*
X157302078Y-92287167D01*
X157317912Y-92200882D01*
X156473626Y-92200882D01*
X156473626Y-92071647D01*
X156480230Y-91983995D01*
X156840448Y-91983995D01*
X157318920Y-91983995D01*
X157305511Y-91905178D01*
X157279486Y-91847256D01*
X157242166Y-91805300D01*
X157193638Y-91774995D01*
X157135978Y-91756175D01*
X157066861Y-91749521D01*
X156992667Y-91757020D01*
X156937935Y-91777215D01*
X156897875Y-91808415D01*
X156868890Y-91850945D01*
X156849197Y-91908042D01*
X156840448Y-91983995D01*
X156480230Y-91983995D01*
X156483665Y-91938410D01*
X156511682Y-91828546D01*
X156555627Y-91737821D01*
X156615042Y-91662968D01*
X156689529Y-91603842D01*
X156781947Y-91559661D01*
X156896174Y-91531199D01*
X157037185Y-91520910D01*
X157160319Y-91528399D01*
G37*
G36*
X155379112Y-91913653D02*
G01*
X155411902Y-91913653D01*
X155487739Y-91900464D01*
X155574842Y-91896067D01*
X155651498Y-91898782D01*
X155714244Y-91906234D01*
X155775416Y-91919529D01*
X155844395Y-91940764D01*
X155844395Y-92705000D01*
X156213232Y-92705000D01*
X156213232Y-91556081D01*
X155844395Y-91556081D01*
X155844395Y-91725158D01*
X155759739Y-91658608D01*
X155689866Y-91614614D01*
X155632270Y-91588413D01*
X155543157Y-91563686D01*
X155466215Y-91556081D01*
X155422160Y-91557180D01*
X155379112Y-91560203D01*
X155379112Y-91913653D01*
G37*
G36*
X177975362Y-95225000D02*
G01*
X177578864Y-95225000D01*
X177473351Y-94914323D01*
X176907684Y-94914323D01*
X176802172Y-95225000D01*
X176395324Y-95225000D01*
X176612078Y-94638817D01*
X177003031Y-94638817D01*
X177378005Y-94638817D01*
X177190518Y-94091468D01*
X177003031Y-94638817D01*
X176612078Y-94638817D01*
X176958884Y-93700924D01*
X177411802Y-93700924D01*
X177975362Y-95225000D01*
G37*
G36*
X175079344Y-95225000D02*
G01*
X176097836Y-95225000D01*
X176097836Y-94961217D01*
X175776077Y-94961217D01*
X175776077Y-94152285D01*
X176097836Y-94152285D01*
X176097836Y-93906088D01*
X175956420Y-93897479D01*
X175892130Y-93885116D01*
X175843671Y-93867711D01*
X175796109Y-93837836D01*
X175763804Y-93802041D01*
X175743230Y-93757968D01*
X175733029Y-93700924D01*
X175393867Y-93700924D01*
X175393867Y-94961217D01*
X175079344Y-94961217D01*
X175079344Y-95225000D01*
G37*
G36*
X173587508Y-95225000D02*
G01*
X174606001Y-95225000D01*
X174606001Y-94961217D01*
X174284241Y-94961217D01*
X174284241Y-94152285D01*
X174606001Y-94152285D01*
X174606001Y-93906088D01*
X174464584Y-93897479D01*
X174400295Y-93885116D01*
X174351836Y-93867711D01*
X174304273Y-93837836D01*
X174271968Y-93802041D01*
X174251395Y-93757968D01*
X174241194Y-93700924D01*
X173902032Y-93700924D01*
X173902032Y-94961217D01*
X173587508Y-94961217D01*
X173587508Y-95225000D01*
G37*
G36*
X172095673Y-95225000D02*
G01*
X173114166Y-95225000D01*
X173114166Y-94961217D01*
X172792406Y-94961217D01*
X172792406Y-94152285D01*
X173114166Y-94152285D01*
X173114166Y-93906088D01*
X172972749Y-93897479D01*
X172908459Y-93885116D01*
X172860000Y-93867711D01*
X172812438Y-93837836D01*
X172780133Y-93802041D01*
X172759559Y-93757968D01*
X172749358Y-93700924D01*
X172410197Y-93700924D01*
X172410197Y-94961217D01*
X172095673Y-94961217D01*
X172095673Y-95225000D01*
G37*
G36*
X170540273Y-94706960D02*
G01*
X170545351Y-94785139D01*
X170560278Y-94858391D01*
X170584878Y-94927512D01*
X170619087Y-94992154D01*
X170662119Y-95050079D01*
X170714480Y-95101901D01*
X170780019Y-95148989D01*
X170852006Y-95187327D01*
X170931184Y-95217031D01*
X171058607Y-95244499D01*
X171210445Y-95254309D01*
X171386683Y-95245842D01*
X171520389Y-95225183D01*
X171640554Y-95193831D01*
X171726836Y-95162351D01*
X171726836Y-94826395D01*
X171683788Y-94826395D01*
X171587556Y-94876779D01*
X171483020Y-94918536D01*
X171374811Y-94946295D01*
X171268789Y-94955355D01*
X171203101Y-94951854D01*
X171128929Y-94940701D01*
X171059399Y-94919050D01*
X171009586Y-94887303D01*
X170978208Y-94854655D01*
X170956830Y-94823373D01*
X170944120Y-94785977D01*
X170938878Y-94722806D01*
X170945143Y-94672830D01*
X170962966Y-94632039D01*
X170990558Y-94597578D01*
X171024973Y-94570581D01*
X171084310Y-94543331D01*
X171158238Y-94526434D01*
X171299563Y-94515718D01*
X171390628Y-94519748D01*
X171476334Y-94531564D01*
X171624437Y-94562613D01*
X171669500Y-94562613D01*
X171669500Y-93700924D01*
X170584329Y-93700924D01*
X170584329Y-93994016D01*
X171299563Y-93994016D01*
X171299563Y-94239480D01*
X171219146Y-94235908D01*
X171133600Y-94234351D01*
X171011229Y-94240712D01*
X170908653Y-94258439D01*
X170814396Y-94288019D01*
X170738019Y-94325392D01*
X170680083Y-94367212D01*
X170631868Y-94416618D01*
X170592572Y-94474228D01*
X170564565Y-94538030D01*
X170546677Y-94614713D01*
X170540273Y-94706960D01*
G37*
G36*
X169508500Y-94691573D02*
G01*
X170290321Y-94691573D01*
X170290321Y-94398482D01*
X169508500Y-94398482D01*
X169508500Y-94691573D01*
G37*
G36*
X169201578Y-95225000D02*
G01*
X168535528Y-95225000D01*
X168376909Y-95217088D01*
X168261488Y-95196423D01*
X168157901Y-95158173D01*
X168063193Y-95100436D01*
X167993671Y-95035963D01*
X167940736Y-94956546D01*
X167916312Y-94897194D01*
X167901308Y-94831898D01*
X167896131Y-94759534D01*
X167896570Y-94755412D01*
X168303986Y-94755412D01*
X168309948Y-94808451D01*
X168327067Y-94853506D01*
X168357946Y-94890427D01*
X168411605Y-94921741D01*
X168474163Y-94941152D01*
X168543771Y-94948486D01*
X168781542Y-94949494D01*
X168810210Y-94949494D01*
X168810210Y-94568475D01*
X168724114Y-94568475D01*
X168555037Y-94569482D01*
X168478478Y-94574089D01*
X168428000Y-94583862D01*
X168367887Y-94609842D01*
X168332196Y-94642938D01*
X168311811Y-94687862D01*
X168303986Y-94755412D01*
X167896570Y-94755412D01*
X167906574Y-94661572D01*
X167936056Y-94581176D01*
X167983784Y-94514528D01*
X168047156Y-94460863D01*
X168125250Y-94419888D01*
X168221004Y-94391979D01*
X168221004Y-94383736D01*
X168153862Y-94347128D01*
X168099407Y-94303236D01*
X168056049Y-94251844D01*
X168023822Y-94193021D01*
X168005023Y-94130669D01*
X168400340Y-94130669D01*
X168404633Y-94178735D01*
X168416734Y-94218780D01*
X168440795Y-94251852D01*
X168486435Y-94280696D01*
X168528207Y-94294165D01*
X168589933Y-94301578D01*
X168748752Y-94304692D01*
X168810210Y-94304692D01*
X168810210Y-93976430D01*
X168773299Y-93976430D01*
X168593505Y-93977987D01*
X168532435Y-93983721D01*
X168486435Y-93996214D01*
X168444764Y-94020624D01*
X168419299Y-94053550D01*
X168404954Y-94092625D01*
X168400340Y-94130669D01*
X168005023Y-94130669D01*
X168004313Y-94128314D01*
X167997614Y-94056206D01*
X168008550Y-93964823D01*
X168040204Y-93886304D01*
X168072778Y-93840823D01*
X168115466Y-93801389D01*
X168169713Y-93767694D01*
X168255035Y-93732747D01*
X168339340Y-93713289D01*
X168437327Y-93704614D01*
X168609351Y-93700924D01*
X169201578Y-93700924D01*
X169201578Y-95225000D01*
G37*
G36*
X167602765Y-95225000D02*
G01*
X167209289Y-95225000D01*
X167209289Y-94726744D01*
X166964375Y-94726744D01*
X166853500Y-94721035D01*
X166761405Y-94705189D01*
X166685205Y-94680765D01*
X166613266Y-94645533D01*
X166545601Y-94600436D01*
X166481782Y-94544844D01*
X166423518Y-94471661D01*
X166379383Y-94380896D01*
X166352419Y-94281982D01*
X166344405Y-94191577D01*
X166750235Y-94191577D01*
X166754805Y-94253522D01*
X166767179Y-94301395D01*
X166789170Y-94343048D01*
X166821951Y-94378790D01*
X166870272Y-94408726D01*
X166931127Y-94427424D01*
X167000542Y-94436156D01*
X167096541Y-94439515D01*
X167209289Y-94439515D01*
X167209289Y-93988154D01*
X167141695Y-93988154D01*
X166985899Y-93990718D01*
X166927611Y-93998441D01*
X166866006Y-94017463D01*
X166823529Y-94042036D01*
X166785131Y-94081760D01*
X166759176Y-94131571D01*
X166750235Y-94191577D01*
X166344405Y-94191577D01*
X166343479Y-94181136D01*
X166349326Y-94094367D01*
X166365895Y-94019749D01*
X166392206Y-93955364D01*
X166429300Y-93896637D01*
X166475968Y-93845391D01*
X166533073Y-93801033D01*
X166614421Y-93757815D01*
X166709843Y-93726020D01*
X166815499Y-93707787D01*
X166955216Y-93700924D01*
X167602765Y-93700924D01*
X167602765Y-95225000D01*
G37*
G36*
X165347426Y-95225000D02*
G01*
X164956058Y-95225000D01*
X164956058Y-94668126D01*
X164774707Y-94668126D01*
X164358609Y-95225000D01*
X163878031Y-95225000D01*
X164387369Y-94573787D01*
X164294854Y-94520615D01*
X164221041Y-94461473D01*
X164163428Y-94396375D01*
X164121213Y-94321519D01*
X164094553Y-94230814D01*
X164088899Y-94165291D01*
X164491874Y-94165291D01*
X164497143Y-94226887D01*
X164510833Y-94269613D01*
X164534599Y-94306022D01*
X164570734Y-94340688D01*
X164617801Y-94367512D01*
X164677346Y-94383278D01*
X164744715Y-94390049D01*
X164835157Y-94392620D01*
X164956058Y-94392620D01*
X164956058Y-93976430D01*
X164813633Y-93976430D01*
X164689619Y-93980094D01*
X164638405Y-93987215D01*
X164596379Y-94000335D01*
X164546136Y-94029701D01*
X164515505Y-94065731D01*
X164498077Y-94110141D01*
X164491874Y-94165291D01*
X164088899Y-94165291D01*
X164085027Y-94120411D01*
X164091186Y-94039683D01*
X164108473Y-93972271D01*
X164135768Y-93915797D01*
X164194974Y-93842179D01*
X164272513Y-93782990D01*
X164360757Y-93740643D01*
X164454963Y-93716311D01*
X164556919Y-93705097D01*
X164687513Y-93700924D01*
X165347426Y-93700924D01*
X165347426Y-95225000D01*
G37*
G36*
X162602534Y-95225000D02*
G01*
X163706114Y-95225000D01*
X163706114Y-93700924D01*
X162602534Y-93700924D01*
X162602534Y-93994016D01*
X163314746Y-93994016D01*
X163314746Y-94257798D01*
X162653825Y-94257798D01*
X162653825Y-94550889D01*
X163314746Y-94550889D01*
X163314746Y-94931908D01*
X162602534Y-94931908D01*
X162602534Y-95225000D01*
G37*
G36*
X160889597Y-93700924D02*
G01*
X161446013Y-95225000D01*
X161886566Y-95225000D01*
X162442982Y-93700924D01*
X162030089Y-93700924D01*
X161661161Y-94771532D01*
X161292323Y-93700924D01*
X160889597Y-93700924D01*
G37*
G36*
X158856734Y-95225000D02*
G01*
X159875226Y-95225000D01*
X159875226Y-94961217D01*
X159553467Y-94961217D01*
X159553467Y-94152285D01*
X159875226Y-94152285D01*
X159875226Y-93906088D01*
X159733810Y-93897479D01*
X159669520Y-93885116D01*
X159621061Y-93867711D01*
X159573499Y-93837836D01*
X159541194Y-93802041D01*
X159520620Y-93757968D01*
X159510419Y-93700924D01*
X159171257Y-93700924D01*
X159171257Y-94961217D01*
X158856734Y-94961217D01*
X158856734Y-95225000D01*
G37*
G36*
X158085262Y-95225000D02*
G01*
X158468479Y-95225000D01*
X158468479Y-94820533D01*
X158085262Y-94820533D01*
X158085262Y-95225000D01*
G37*
G36*
X157263606Y-93677685D02*
G01*
X157359188Y-93694809D01*
X157441285Y-93721715D01*
X157517538Y-93761027D01*
X157582717Y-93810857D01*
X157638023Y-93871741D01*
X157682906Y-93942047D01*
X157719960Y-94023872D01*
X157748756Y-94118854D01*
X157774210Y-94271586D01*
X157783561Y-94462962D01*
X157774591Y-94649240D01*
X157749764Y-94803497D01*
X157721469Y-94900159D01*
X157684748Y-94982416D01*
X157640129Y-95052167D01*
X157585462Y-95113097D01*
X157520631Y-95163306D01*
X157444399Y-95203292D01*
X157362238Y-95230626D01*
X157265694Y-95248093D01*
X157152315Y-95254309D01*
X157036871Y-95248077D01*
X156940153Y-95230702D01*
X156859316Y-95203750D01*
X156784273Y-95164298D01*
X156719731Y-95114618D01*
X156664593Y-95054182D01*
X156621382Y-94986497D01*
X156584973Y-94904432D01*
X156556058Y-94805604D01*
X156530370Y-94648550D01*
X156521161Y-94461954D01*
X156917751Y-94461954D01*
X156925594Y-94645332D01*
X156945535Y-94771086D01*
X156973072Y-94853598D01*
X157006257Y-94907323D01*
X157046299Y-94943606D01*
X157094156Y-94965345D01*
X157152315Y-94972941D01*
X157210524Y-94965343D01*
X157258409Y-94943600D01*
X157298465Y-94907317D01*
X157331651Y-94853598D01*
X157359219Y-94771123D01*
X157379145Y-94645941D01*
X157386972Y-94463969D01*
X157379182Y-94276875D01*
X157359524Y-94150714D01*
X157332658Y-94069761D01*
X157300077Y-94017536D01*
X157260140Y-93981999D01*
X157211764Y-93960531D01*
X157152315Y-93952983D01*
X157092916Y-93960529D01*
X157044569Y-93981993D01*
X157004645Y-94017530D01*
X156972064Y-94069761D01*
X156945168Y-94150676D01*
X156925525Y-94276267D01*
X156917751Y-94461954D01*
X156521161Y-94461954D01*
X156530162Y-94275912D01*
X156554959Y-94123434D01*
X156583089Y-94028054D01*
X156619462Y-93946457D01*
X156663586Y-93876871D01*
X156718892Y-93814438D01*
X156783451Y-93763427D01*
X156858308Y-93723181D01*
X156939151Y-93695706D01*
X157036170Y-93677979D01*
X157152315Y-93671615D01*
X157263606Y-93677685D01*
G37*
G36*
X176612578Y-97745000D02*
G01*
X177810406Y-97745000D01*
X177810406Y-97491842D01*
X177535358Y-97282007D01*
X177405456Y-97173605D01*
X177314532Y-97090490D01*
X177202601Y-96971998D01*
X177138311Y-96882761D01*
X177108526Y-96822033D01*
X177091521Y-96763952D01*
X177086012Y-96707547D01*
X177094034Y-96641349D01*
X177116527Y-96588942D01*
X177153148Y-96547080D01*
X177201089Y-96517175D01*
X177264042Y-96497731D01*
X177346314Y-96490568D01*
X177441009Y-96499691D01*
X177544609Y-96528579D01*
X177645264Y-96571946D01*
X177737683Y-96625390D01*
X177770472Y-96625390D01*
X177770472Y-96286778D01*
X177688564Y-96257511D01*
X177555874Y-96223397D01*
X177413433Y-96199520D01*
X177271484Y-96191615D01*
X177125736Y-96200471D01*
X177007229Y-96224895D01*
X176911270Y-96262438D01*
X176833954Y-96311782D01*
X176768773Y-96377107D01*
X176722279Y-96453814D01*
X176693449Y-96544174D01*
X176683286Y-96651585D01*
X176691271Y-96745799D01*
X176715166Y-96836707D01*
X176755552Y-96925534D01*
X176808746Y-97008250D01*
X176881282Y-97097238D01*
X176976378Y-97193346D01*
X177070671Y-97276388D01*
X177163956Y-97351250D01*
X177298137Y-97451908D01*
X176612578Y-97451908D01*
X176612578Y-97745000D01*
G37*
G36*
X175873445Y-96197685D02*
G01*
X175969028Y-96214809D01*
X176051125Y-96241715D01*
X176127378Y-96281027D01*
X176192556Y-96330857D01*
X176247862Y-96391741D01*
X176292745Y-96462047D01*
X176329800Y-96543872D01*
X176358596Y-96638854D01*
X176384049Y-96791586D01*
X176393401Y-96982962D01*
X176384431Y-97169240D01*
X176359603Y-97323497D01*
X176331308Y-97420159D01*
X176294588Y-97502416D01*
X176249969Y-97572167D01*
X176195301Y-97633097D01*
X176130470Y-97683306D01*
X176054239Y-97723292D01*
X175972078Y-97750626D01*
X175875533Y-97768093D01*
X175762155Y-97774309D01*
X175646711Y-97768077D01*
X175549993Y-97750702D01*
X175469155Y-97723750D01*
X175394113Y-97684298D01*
X175329571Y-97634618D01*
X175274433Y-97574182D01*
X175231221Y-97506497D01*
X175194812Y-97424432D01*
X175165897Y-97325604D01*
X175140209Y-97168550D01*
X175131001Y-96981954D01*
X175527590Y-96981954D01*
X175535434Y-97165332D01*
X175555375Y-97291086D01*
X175582911Y-97373598D01*
X175616096Y-97427323D01*
X175656139Y-97463606D01*
X175703995Y-97485345D01*
X175762155Y-97492941D01*
X175820363Y-97485343D01*
X175868249Y-97463600D01*
X175908305Y-97427317D01*
X175941490Y-97373598D01*
X175969059Y-97291123D01*
X175988985Y-97165941D01*
X175996811Y-96983969D01*
X175989021Y-96796875D01*
X175969363Y-96670714D01*
X175942498Y-96589761D01*
X175909916Y-96537536D01*
X175869979Y-96501999D01*
X175821604Y-96480531D01*
X175762155Y-96472983D01*
X175702755Y-96480529D01*
X175654408Y-96501993D01*
X175614485Y-96537530D01*
X175581904Y-96589761D01*
X175555007Y-96670676D01*
X175535364Y-96796267D01*
X175527590Y-96981954D01*
X175131001Y-96981954D01*
X175140002Y-96795912D01*
X175164798Y-96643434D01*
X175192929Y-96548054D01*
X175229301Y-96466457D01*
X175273425Y-96396871D01*
X175328732Y-96334438D01*
X175393290Y-96283427D01*
X175468148Y-96243181D01*
X175548991Y-96215706D01*
X175646009Y-96197979D01*
X175762155Y-96191615D01*
X175873445Y-96197685D01*
G37*
G36*
X173628907Y-97745000D02*
G01*
X174826735Y-97745000D01*
X174826735Y-97491842D01*
X174551687Y-97282007D01*
X174421786Y-97173605D01*
X174330861Y-97090490D01*
X174218931Y-96971998D01*
X174154640Y-96882761D01*
X174124855Y-96822033D01*
X174107850Y-96763952D01*
X174102342Y-96707547D01*
X174110363Y-96641349D01*
X174132856Y-96588942D01*
X174169478Y-96547080D01*
X174217418Y-96517175D01*
X174280372Y-96497731D01*
X174362643Y-96490568D01*
X174457338Y-96499691D01*
X174560938Y-96528579D01*
X174661593Y-96571946D01*
X174754012Y-96625390D01*
X174786802Y-96625390D01*
X174786802Y-96286778D01*
X174704894Y-96257511D01*
X174572204Y-96223397D01*
X174429762Y-96199520D01*
X174287814Y-96191615D01*
X174142066Y-96200471D01*
X174023558Y-96224895D01*
X173927599Y-96262438D01*
X173850283Y-96311782D01*
X173785103Y-96377107D01*
X173738609Y-96453814D01*
X173709778Y-96544174D01*
X173699616Y-96651585D01*
X173707601Y-96745799D01*
X173731496Y-96836707D01*
X173771881Y-96925534D01*
X173825075Y-97008250D01*
X173897612Y-97097238D01*
X173992707Y-97193346D01*
X174087000Y-97276388D01*
X174180286Y-97351250D01*
X174314467Y-97451908D01*
X173628907Y-97451908D01*
X173628907Y-97745000D01*
G37*
G36*
X172169862Y-97226960D02*
G01*
X172174939Y-97305139D01*
X172189867Y-97378391D01*
X172214467Y-97447512D01*
X172248676Y-97512154D01*
X172291708Y-97570079D01*
X172344068Y-97621901D01*
X172409607Y-97668989D01*
X172481594Y-97707327D01*
X172560772Y-97737031D01*
X172688195Y-97764499D01*
X172840034Y-97774309D01*
X173016271Y-97765842D01*
X173149978Y-97745183D01*
X173270143Y-97713831D01*
X173356424Y-97682351D01*
X173356424Y-97346395D01*
X173313376Y-97346395D01*
X173217144Y-97396779D01*
X173112609Y-97438536D01*
X173004399Y-97466295D01*
X172898377Y-97475355D01*
X172832690Y-97471854D01*
X172758517Y-97460701D01*
X172688987Y-97439050D01*
X172639174Y-97407303D01*
X172607797Y-97374655D01*
X172586418Y-97343373D01*
X172573708Y-97305977D01*
X172568466Y-97242806D01*
X172574731Y-97192830D01*
X172592554Y-97152039D01*
X172620146Y-97117578D01*
X172654562Y-97090581D01*
X172713899Y-97063331D01*
X172787827Y-97046434D01*
X172929152Y-97035718D01*
X173020216Y-97039748D01*
X173105922Y-97051564D01*
X173254025Y-97082613D01*
X173299088Y-97082613D01*
X173299088Y-96220924D01*
X172213917Y-96220924D01*
X172213917Y-96514016D01*
X172929152Y-96514016D01*
X172929152Y-96759480D01*
X172848735Y-96755908D01*
X172763189Y-96754351D01*
X172640818Y-96760712D01*
X172538241Y-96778439D01*
X172443985Y-96808019D01*
X172367607Y-96845392D01*
X172309671Y-96887212D01*
X172261456Y-96936618D01*
X172222160Y-96994228D01*
X172194153Y-97058030D01*
X172176265Y-97134713D01*
X172169862Y-97226960D01*
G37*
G36*
X171397939Y-96197685D02*
G01*
X171493522Y-96214809D01*
X171575619Y-96241715D01*
X171651872Y-96281027D01*
X171717050Y-96330857D01*
X171772356Y-96391741D01*
X171817239Y-96462047D01*
X171854294Y-96543872D01*
X171883090Y-96638854D01*
X171908544Y-96791586D01*
X171917895Y-96982962D01*
X171908925Y-97169240D01*
X171884098Y-97323497D01*
X171855802Y-97420159D01*
X171819082Y-97502416D01*
X171774463Y-97572167D01*
X171719795Y-97633097D01*
X171654964Y-97683306D01*
X171578733Y-97723292D01*
X171496572Y-97750626D01*
X171400027Y-97768093D01*
X171286649Y-97774309D01*
X171171205Y-97768077D01*
X171074487Y-97750702D01*
X170993649Y-97723750D01*
X170918607Y-97684298D01*
X170854065Y-97634618D01*
X170798927Y-97574182D01*
X170755715Y-97506497D01*
X170719306Y-97424432D01*
X170690391Y-97325604D01*
X170664703Y-97168550D01*
X170655495Y-96981954D01*
X171052084Y-96981954D01*
X171059928Y-97165332D01*
X171079869Y-97291086D01*
X171107405Y-97373598D01*
X171140590Y-97427323D01*
X171180633Y-97463606D01*
X171228489Y-97485345D01*
X171286649Y-97492941D01*
X171344857Y-97485343D01*
X171392743Y-97463600D01*
X171432799Y-97427317D01*
X171465984Y-97373598D01*
X171493553Y-97291123D01*
X171513479Y-97165941D01*
X171521305Y-96983969D01*
X171513515Y-96796875D01*
X171493857Y-96670714D01*
X171466992Y-96589761D01*
X171434410Y-96537536D01*
X171394473Y-96501999D01*
X171346098Y-96480531D01*
X171286649Y-96472983D01*
X171227249Y-96480529D01*
X171178902Y-96501993D01*
X171138979Y-96537530D01*
X171106398Y-96589761D01*
X171079501Y-96670676D01*
X171059858Y-96796267D01*
X171052084Y-96981954D01*
X170655495Y-96981954D01*
X170664496Y-96795912D01*
X170689292Y-96643434D01*
X170717423Y-96548054D01*
X170753795Y-96466457D01*
X170797919Y-96396871D01*
X170853226Y-96334438D01*
X170917784Y-96283427D01*
X170992642Y-96243181D01*
X171073485Y-96215706D01*
X171170503Y-96197979D01*
X171286649Y-96191615D01*
X171397939Y-96197685D01*
G37*
G36*
X169953606Y-96202081D02*
G01*
X170071896Y-96231865D01*
X170174422Y-96279549D01*
X170263668Y-96345122D01*
X170325158Y-96410251D01*
X170372334Y-96481471D01*
X170406209Y-96559649D01*
X170427021Y-96646068D01*
X170434211Y-96742352D01*
X170427944Y-96841382D01*
X170410521Y-96923216D01*
X170383469Y-96990747D01*
X170345331Y-97052827D01*
X170300196Y-97105401D01*
X170247732Y-97149383D01*
X170180057Y-97187311D01*
X170104849Y-97214138D01*
X170025114Y-97229725D01*
X169940352Y-97235020D01*
X169831721Y-97227647D01*
X169750300Y-97208001D01*
X169673322Y-97176200D01*
X169584795Y-97129965D01*
X169605221Y-97222069D01*
X169637094Y-97295654D01*
X169681646Y-97358997D01*
X169736470Y-97410326D01*
X169796146Y-97446954D01*
X169868636Y-97473066D01*
X169946191Y-97487963D01*
X170025440Y-97492941D01*
X170118579Y-97488302D01*
X170180687Y-97476638D01*
X170268248Y-97446046D01*
X170309281Y-97446046D01*
X170309281Y-97748480D01*
X170193510Y-97764966D01*
X170029562Y-97774309D01*
X169887624Y-97767019D01*
X169763366Y-97746296D01*
X169654496Y-97713492D01*
X169551995Y-97665598D01*
X169462620Y-97604888D01*
X169384944Y-97530951D01*
X169324810Y-97451886D01*
X169274886Y-97360108D01*
X169235375Y-97253888D01*
X169208420Y-97143145D01*
X169191859Y-97024825D01*
X169186191Y-96898057D01*
X169188717Y-96841728D01*
X169578659Y-96841728D01*
X169580216Y-96904010D01*
X169581773Y-96935792D01*
X169665762Y-96959606D01*
X169766146Y-96971238D01*
X169822331Y-96968369D01*
X169872300Y-96960156D01*
X169918262Y-96944708D01*
X169956747Y-96921687D01*
X169990176Y-96888962D01*
X170016189Y-96845392D01*
X170031913Y-96793893D01*
X170037713Y-96726507D01*
X170032382Y-96656588D01*
X170017746Y-96601027D01*
X169994117Y-96552359D01*
X169965997Y-96516122D01*
X169930664Y-96487040D01*
X169895839Y-96469044D01*
X169858633Y-96458830D01*
X169819452Y-96455397D01*
X169777245Y-96458979D01*
X169737478Y-96469594D01*
X169701099Y-96488104D01*
X169668784Y-96516122D01*
X169632670Y-96566018D01*
X169602747Y-96638946D01*
X169585331Y-96724045D01*
X169578659Y-96841728D01*
X169188717Y-96841728D01*
X169192018Y-96768120D01*
X169208263Y-96658677D01*
X169233360Y-96566864D01*
X169270762Y-96479833D01*
X169317531Y-96405707D01*
X169373678Y-96342923D01*
X169429969Y-96296455D01*
X169493078Y-96258537D01*
X169563821Y-96228984D01*
X169678739Y-96201446D01*
X169816338Y-96191615D01*
X169953606Y-96202081D01*
G37*
G36*
X168414269Y-96197685D02*
G01*
X168509851Y-96214809D01*
X168591948Y-96241715D01*
X168668201Y-96281027D01*
X168733380Y-96330857D01*
X168788686Y-96391741D01*
X168833569Y-96462047D01*
X168870623Y-96543872D01*
X168899419Y-96638854D01*
X168924873Y-96791586D01*
X168934224Y-96982962D01*
X168925254Y-97169240D01*
X168900427Y-97323497D01*
X168872132Y-97420159D01*
X168835411Y-97502416D01*
X168790792Y-97572167D01*
X168736124Y-97633097D01*
X168671294Y-97683306D01*
X168595062Y-97723292D01*
X168512901Y-97750626D01*
X168416356Y-97768093D01*
X168302978Y-97774309D01*
X168187534Y-97768077D01*
X168090816Y-97750702D01*
X168009979Y-97723750D01*
X167934936Y-97684298D01*
X167870394Y-97634618D01*
X167815256Y-97574182D01*
X167772045Y-97506497D01*
X167735636Y-97424432D01*
X167706721Y-97325604D01*
X167681033Y-97168550D01*
X167671824Y-96981954D01*
X168068414Y-96981954D01*
X168076257Y-97165332D01*
X168096198Y-97291086D01*
X168123735Y-97373598D01*
X168156920Y-97427323D01*
X168196962Y-97463606D01*
X168244819Y-97485345D01*
X168302978Y-97492941D01*
X168361187Y-97485343D01*
X168409072Y-97463600D01*
X168449128Y-97427317D01*
X168482314Y-97373598D01*
X168509882Y-97291123D01*
X168529808Y-97165941D01*
X168537635Y-96983969D01*
X168529845Y-96796875D01*
X168510187Y-96670714D01*
X168483321Y-96589761D01*
X168450740Y-96537536D01*
X168410803Y-96501999D01*
X168362427Y-96480531D01*
X168302978Y-96472983D01*
X168243578Y-96480529D01*
X168195232Y-96501993D01*
X168155308Y-96537530D01*
X168122727Y-96589761D01*
X168095831Y-96670676D01*
X168076188Y-96796267D01*
X168068414Y-96981954D01*
X167671824Y-96981954D01*
X167680825Y-96795912D01*
X167705621Y-96643434D01*
X167733752Y-96548054D01*
X167770124Y-96466457D01*
X167814248Y-96396871D01*
X167869555Y-96334438D01*
X167934114Y-96283427D01*
X168008971Y-96243181D01*
X168089814Y-96215706D01*
X168186833Y-96197979D01*
X168302978Y-96191615D01*
X168414269Y-96197685D01*
G37*
G36*
X166201513Y-96525281D02*
G01*
X166892110Y-97745000D01*
X167330739Y-97745000D01*
X166613398Y-96514016D01*
X167397326Y-96514016D01*
X167397326Y-96220924D01*
X166201513Y-96220924D01*
X166201513Y-96525281D01*
G37*
M02*
