%TF.GenerationSoftware,KiCad,Pcbnew,9.0.4*%
%TF.CreationDate,2025-09-26T20:26:33+07:00*%
%TF.ProjectId,ADS115ext,41445331-3135-4657-9874-2e6b69636164,rev?*%
%TF.SameCoordinates,Original*%
%TF.FileFunction,Soldermask,Top*%
%TF.FilePolarity,Negative*%
%FSLAX46Y46*%
G04 Gerber Fmt 4.6, Leading zero omitted, Abs format (unit mm)*
G04 Created by KiCad (PCBNEW 9.0.4) date 2025-09-26 20:26:33*
%MOMM*%
%LPD*%
G01*
G04 APERTURE LIST*
G04 Aperture macros list*
%AMRoundRect*
0 Rectangle with rounded corners*
0 $1 Rounding radius*
0 $2 $3 $4 $5 $6 $7 $8 $9 X,Y pos of 4 corners*
0 Add a 4 corners polygon primitive as box body*
4,1,4,$2,$3,$4,$5,$6,$7,$8,$9,$2,$3,0*
0 Add four circle primitives for the rounded corners*
1,1,$1+$1,$2,$3*
1,1,$1+$1,$4,$5*
1,1,$1+$1,$6,$7*
1,1,$1+$1,$8,$9*
0 Add four rect primitives between the rounded corners*
20,1,$1+$1,$2,$3,$4,$5,0*
20,1,$1+$1,$4,$5,$6,$7,0*
20,1,$1+$1,$6,$7,$8,$9,0*
20,1,$1+$1,$8,$9,$2,$3,0*%
G04 Aperture macros list end*
%ADD10RoundRect,0.250000X-1.300000X0.350000X-1.300000X-0.350000X1.300000X-0.350000X1.300000X0.350000X0*%
%ADD11RoundRect,0.250001X-1.399999X0.899999X-1.399999X-0.899999X1.399999X-0.899999X1.399999X0.899999X0*%
%ADD12RoundRect,0.250000X-0.350000X-0.450000X0.350000X-0.450000X0.350000X0.450000X-0.350000X0.450000X0*%
%ADD13R,2.000000X2.000000*%
%ADD14C,2.000000*%
%ADD15RoundRect,0.250000X-0.412500X-1.100000X0.412500X-1.100000X0.412500X1.100000X-0.412500X1.100000X0*%
%ADD16R,2.200000X2.200000*%
%ADD17C,2.200000*%
%ADD18R,1.700000X1.700000*%
%ADD19O,1.700000X1.700000*%
%ADD20R,1.600000X2.400000*%
%ADD21O,1.600000X2.400000*%
%ADD22RoundRect,0.250000X0.325000X0.450000X-0.325000X0.450000X-0.325000X-0.450000X0.325000X-0.450000X0*%
%ADD23RoundRect,0.250000X-0.325000X-0.450000X0.325000X-0.450000X0.325000X0.450000X-0.325000X0.450000X0*%
G04 APERTURE END LIST*
D10*
%TO.C, PH2.0 4P*%
X137850000Y-91000000D03*
X137850000Y-93000000D03*
X137850000Y-95000000D03*
X137850000Y-97000000D03*
D11*
X132250000Y-86480000D03*
X132250000Y-101520000D03*
%TD*%
D12*
%TO.C,R2*%
X141000000Y-106000000D03*
X143000000Y-106000000D03*
%TD*%
D13*
%TO.C,G A0 VDD*%
X160500000Y-80000000D03*
D14*
X157960000Y-80000000D03*
X155420000Y-80000000D03*
%TD*%
D15*
%TO.C,C1*%
X142875000Y-99000000D03*
X146000000Y-99000000D03*
%TD*%
D12*
%TO.C,R1*%
X187000000Y-106000000D03*
X189000000Y-106000000D03*
%TD*%
D16*
%TO.C,5V 3.3V SCL SDA GND*%
X151080000Y-80000000D03*
D17*
X148540000Y-80000000D03*
X146000000Y-80000000D03*
X143460000Y-80000000D03*
X140920000Y-80000000D03*
%TD*%
D18*
%TO.C,VDD*%
X153760000Y-105000000D03*
D19*
X156300000Y-105000000D03*
X158840000Y-105000000D03*
X161380000Y-105000000D03*
X163920000Y-105000000D03*
X166460000Y-105000000D03*
X169000000Y-105000000D03*
X171540000Y-105000000D03*
X174080000Y-105000000D03*
X176620000Y-105000000D03*
%TD*%
D20*
%TO.C,SW1*%
X183200000Y-96800000D03*
D21*
X185740000Y-96800000D03*
X188280000Y-96800000D03*
X190820000Y-96800000D03*
X190820000Y-89180000D03*
X188280000Y-89180000D03*
X185740000Y-89180000D03*
X183200000Y-89180000D03*
%TD*%
D13*
%TO.C,G A3 VDD*%
X189080000Y-80000000D03*
D14*
X186540000Y-80000000D03*
X184000000Y-80000000D03*
%TD*%
D13*
%TO.C,G A2 VDD*%
X179580000Y-80000000D03*
D14*
X177040000Y-80000000D03*
X174500000Y-80000000D03*
%TD*%
D13*
%TO.C,G A1 VDD*%
X170080000Y-80000000D03*
D14*
X167540000Y-80000000D03*
X165000000Y-80000000D03*
%TD*%
D22*
%TO.C,D1*%
X184000000Y-106000000D03*
X181950000Y-106000000D03*
%TD*%
D18*
%TO.C,J8*%
X147500000Y-92000000D03*
D19*
X144960000Y-92000000D03*
X142420000Y-92000000D03*
%TD*%
D23*
%TO.C,D2*%
X145975000Y-106000000D03*
X148025000Y-106000000D03*
%TD*%
M02*
