%TF.GenerationSoftware,KiCad,Pcbnew,9.0.4*%
%TF.CreationDate,2025-09-26T20:26:33+07:00*%
%TF.ProjectId,ADS115ext,41445331-3135-4657-9874-2e6b69636164,rev?*%
%TF.SameCoordinates,Original*%
%TF.FileFunction,Copper,L2,Bot*%
%TF.FilePolarity,Positive*%
%FSLAX46Y46*%
G04 Gerber Fmt 4.6, Leading zero omitted, Abs format (unit mm)*
G04 Created by KiCad (PCBNEW 9.0.4) date 2025-09-26 20:26:33*
%MOMM*%
%LPD*%
G01*
G04 APERTURE LIST*
%TA.AperFunction,ComponentPad*%
%ADD10R,2.000000X2.000000*%
%TD*%
%TA.AperFunction,ComponentPad*%
%ADD11C,2.000000*%
%TD*%
%TA.AperFunction,ComponentPad*%
%ADD12R,2.200000X2.200000*%
%TD*%
%TA.AperFunction,ComponentPad*%
%ADD13C,2.200000*%
%TD*%
%TA.AperFunction,ComponentPad*%
%ADD14R,1.700000X1.700000*%
%TD*%
%TA.AperFunction,ComponentPad*%
%ADD15O,1.700000X1.700000*%
%TD*%
%TA.AperFunction,ComponentPad*%
%ADD16R,1.600000X2.400000*%
%TD*%
%TA.AperFunction,ComponentPad*%
%ADD17O,1.600000X2.400000*%
%TD*%
%TA.AperFunction,ViaPad*%
%ADD18C,0.600000*%
%TD*%
%TA.AperFunction,Conductor*%
%ADD19C,0.600000*%
%TD*%
%TA.AperFunction,Conductor*%
%ADD20C,0.400000*%
%TD*%
%TA.AperFunction,Conductor*%
%ADD21C,0.200000*%
%TD*%
G04 APERTURE END LIST*
D10*
%TO.P,G A0 VDD,1,Pin_1*%
%TO.N,/VDD*%
X160500000Y-80000000D03*
D11*
%TO.P,G A0 VDD,2,Pin_2*%
%TO.N,/A0*%
X157960000Y-80000000D03*
%TO.P,G A0 VDD,3,Pin_3*%
%TO.N,GND*%
X155420000Y-80000000D03*
%TD*%
D12*
%TO.P,5V 3.3V SCL SDA GND,1,Pin_1*%
%TO.N,GND*%
X151080000Y-80000000D03*
D13*
%TO.P,5V 3.3V SCL SDA GND,2,Pin_2*%
%TO.N,/SDA*%
X148540000Y-80000000D03*
%TO.P,5V 3.3V SCL SDA GND,3,Pin_3*%
%TO.N,/SCL*%
X146000000Y-80000000D03*
%TO.P,5V 3.3V SCL SDA GND,4,Pin_4*%
%TO.N,+3.3V*%
X143460000Y-80000000D03*
%TO.P,5V 3.3V SCL SDA GND,5,Pin_5*%
%TO.N,+5V*%
X140920000Y-80000000D03*
%TD*%
D14*
%TO.P,VDD,1,Pin_1*%
%TO.N,/VDD*%
X153760000Y-105000000D03*
D15*
%TO.P,VDD,2,Pin_2*%
%TO.N,GND*%
X156300000Y-105000000D03*
%TO.P,VDD,3,Pin_3*%
%TO.N,/SCL*%
X158840000Y-105000000D03*
%TO.P,VDD,4,Pin_4*%
%TO.N,/SDA*%
X161380000Y-105000000D03*
%TO.P,VDD,5,Pin_5*%
%TO.N,/ADDR*%
X163920000Y-105000000D03*
%TO.P,VDD,6,Pin_6*%
%TO.N,/ALRT*%
X166460000Y-105000000D03*
%TO.P,VDD,7,Pin_7*%
%TO.N,/A0*%
X169000000Y-105000000D03*
%TO.P,VDD,8,Pin_8*%
%TO.N,/A1*%
X171540000Y-105000000D03*
%TO.P,VDD,9,Pin_9*%
%TO.N,/A2*%
X174080000Y-105000000D03*
%TO.P,VDD,10,Pin_10*%
%TO.N,/A3*%
X176620000Y-105000000D03*
%TD*%
D16*
%TO.P,SW1,1*%
%TO.N,/ADDR*%
X183200000Y-96800000D03*
D17*
%TO.P,SW1,2*%
X185740000Y-96800000D03*
%TO.P,SW1,3*%
X188280000Y-96800000D03*
%TO.P,SW1,4*%
X190820000Y-96800000D03*
%TO.P,SW1,5*%
%TO.N,GND*%
X190820000Y-89180000D03*
%TO.P,SW1,6*%
%TO.N,/SDA*%
X188280000Y-89180000D03*
%TO.P,SW1,7*%
%TO.N,/SCL*%
X185740000Y-89180000D03*
%TO.P,SW1,8*%
%TO.N,/VDD*%
X183200000Y-89180000D03*
%TD*%
D10*
%TO.P,G A3 VDD,1,Pin_1*%
%TO.N,/VDD*%
X189080000Y-80000000D03*
D11*
%TO.P,G A3 VDD,2,Pin_2*%
%TO.N,/A3*%
X186540000Y-80000000D03*
%TO.P,G A3 VDD,3,Pin_3*%
%TO.N,GND*%
X184000000Y-80000000D03*
%TD*%
D10*
%TO.P,G A2 VDD,1,Pin_1*%
%TO.N,/VDD*%
X179580000Y-80000000D03*
D11*
%TO.P,G A2 VDD,2,Pin_2*%
%TO.N,/A2*%
X177040000Y-80000000D03*
%TO.P,G A2 VDD,3,Pin_3*%
%TO.N,GND*%
X174500000Y-80000000D03*
%TD*%
D10*
%TO.P,G A1 VDD,1,Pin_1*%
%TO.N,/VDD*%
X170080000Y-80000000D03*
D11*
%TO.P,G A1 VDD,2,Pin_2*%
%TO.N,/A1*%
X167540000Y-80000000D03*
%TO.P,G A1 VDD,3,Pin_3*%
%TO.N,GND*%
X165000000Y-80000000D03*
%TD*%
D14*
%TO.P,J8,1,Pin_1*%
%TO.N,+3.3V*%
X147500000Y-92000000D03*
D15*
%TO.P,J8,2,Pin_2*%
%TO.N,/VDD*%
X144960000Y-92000000D03*
%TO.P,J8,3,Pin_3*%
%TO.N,+5V*%
X142420000Y-92000000D03*
%TD*%
D18*
%TO.N,/VDD*%
X181000000Y-100000000D03*
X139850000Y-89000000D03*
%TO.N,GND*%
X152000000Y-87500000D03*
X151000000Y-99000000D03*
X134000000Y-84000000D03*
%TO.N,/A2*%
X174080000Y-97920000D03*
%TO.N,/SDA*%
X154000000Y-91000000D03*
X134000000Y-94000000D03*
X148500000Y-85424264D03*
%TO.N,/ADDR*%
X175500000Y-99500000D03*
%TO.N,/A0*%
X168500000Y-99000000D03*
%TO.N,/A3*%
X176940000Y-88940000D03*
X186500000Y-85500000D03*
%TO.N,/SCL*%
X159000000Y-99000000D03*
X148250000Y-86750000D03*
X152500000Y-92000000D03*
X135000000Y-92000000D03*
%TO.N,/A1*%
X170500000Y-97500000D03*
%TD*%
D19*
%TO.N,/VDD*%
X177000000Y-96000000D02*
X181000000Y-100000000D01*
X177000000Y-92000000D02*
X177000000Y-96000000D01*
X179000000Y-82000000D02*
X179580000Y-81420000D01*
X179000000Y-90000000D02*
X177000000Y-92000000D01*
X144960000Y-89960000D02*
X144960000Y-92000000D01*
X139850000Y-89000000D02*
X144000000Y-89000000D01*
X179000000Y-90000000D02*
X179000000Y-82000000D01*
X179000000Y-90000000D02*
X180000000Y-90000000D01*
D20*
X179580000Y-81420000D02*
X179580000Y-80000000D01*
D19*
X180820000Y-89180000D02*
X183200000Y-89180000D01*
X144000000Y-89000000D02*
X144960000Y-89960000D01*
X180000000Y-90000000D02*
X180820000Y-89180000D01*
%TO.N,GND*%
X134000000Y-84000000D02*
X150000000Y-84000000D01*
X184000000Y-86000000D02*
X184000000Y-85000000D01*
X190820000Y-87820000D02*
X190000000Y-87000000D01*
X151000000Y-88500000D02*
X152000000Y-87500000D01*
X150000000Y-84000000D02*
X151080000Y-82920000D01*
X190000000Y-87000000D02*
X185000000Y-87000000D01*
X190820000Y-89180000D02*
X190820000Y-87820000D01*
X151000000Y-99000000D02*
X151000000Y-88500000D01*
X185000000Y-87000000D02*
X184000000Y-86000000D01*
X184000000Y-80000000D02*
X184000000Y-85000000D01*
X151080000Y-82920000D02*
X151080000Y-80000000D01*
D20*
%TO.N,/A2*%
X173000000Y-88000000D02*
X177040000Y-83960000D01*
X173000000Y-95840000D02*
X173000000Y-88000000D01*
X174080000Y-96920000D02*
X173000000Y-95840000D01*
X174080000Y-97920000D02*
X174080000Y-96920000D01*
X177040000Y-83960000D02*
X177040000Y-80000000D01*
%TO.N,/SDA*%
X154000000Y-91000000D02*
X161380000Y-98380000D01*
X148500000Y-85424264D02*
X147924264Y-86000000D01*
X137000000Y-86000000D02*
X134000000Y-89000000D01*
X134000000Y-89000000D02*
X134000000Y-94000000D01*
X161380000Y-98380000D02*
X161380000Y-105000000D01*
X147924264Y-86000000D02*
X137000000Y-86000000D01*
%TO.N,/ADDR*%
X174000000Y-101000000D02*
X165000000Y-101000000D01*
X190820000Y-96800000D02*
X183200000Y-96800000D01*
X165000000Y-101000000D02*
X163920000Y-102080000D01*
X163920000Y-102080000D02*
X163920000Y-105000000D01*
X175500000Y-99500000D02*
X174000000Y-101000000D01*
%TO.N,/A0*%
X157960000Y-88460000D02*
X157960000Y-80000000D01*
X168500000Y-99000000D02*
X157960000Y-88460000D01*
%TO.N,/A3*%
X176940000Y-88940000D02*
X175000000Y-90880000D01*
X175000000Y-90880000D02*
X175000000Y-95760000D01*
X186540000Y-85460000D02*
X186540000Y-80000000D01*
D21*
X186500000Y-85500000D02*
X186540000Y-85460000D01*
D20*
X176620000Y-97380000D02*
X176620000Y-105000000D01*
X175000000Y-95760000D02*
X176620000Y-97380000D01*
%TO.N,/SCL*%
X138000000Y-87000000D02*
X135000000Y-90000000D01*
X148250000Y-86750000D02*
X148000000Y-87000000D01*
X152500000Y-93500000D02*
X158000000Y-99000000D01*
X158000000Y-99000000D02*
X159000000Y-99000000D01*
X148000000Y-87000000D02*
X138000000Y-87000000D01*
X135000000Y-90000000D02*
X135000000Y-92000000D01*
X152500000Y-92000000D02*
X152500000Y-93500000D01*
%TO.N,/A1*%
X170500000Y-97500000D02*
X170500000Y-88000000D01*
X170500000Y-88000000D02*
X167540000Y-85040000D01*
X167540000Y-85040000D02*
X167540000Y-80000000D01*
%TD*%
%TA.AperFunction,Conductor*%
%TO.N,GND*%
G36*
X196003032Y-76500648D02*
G01*
X196336929Y-76517052D01*
X196349037Y-76518245D01*
X196452146Y-76533539D01*
X196676699Y-76566849D01*
X196688617Y-76569219D01*
X197009951Y-76649709D01*
X197021588Y-76653240D01*
X197092806Y-76678722D01*
X197333467Y-76764832D01*
X197344688Y-76769479D01*
X197644163Y-76911120D01*
X197654871Y-76916844D01*
X197938988Y-77087137D01*
X197949106Y-77093897D01*
X198215170Y-77291224D01*
X198224576Y-77298944D01*
X198470013Y-77521395D01*
X198478604Y-77529986D01*
X198618636Y-77684487D01*
X198701055Y-77775423D01*
X198708775Y-77784829D01*
X198906102Y-78050893D01*
X198912862Y-78061011D01*
X199041776Y-78276092D01*
X199083148Y-78345116D01*
X199088885Y-78355848D01*
X199230514Y-78655297D01*
X199235170Y-78666540D01*
X199346759Y-78978411D01*
X199350292Y-78990055D01*
X199430777Y-79311369D01*
X199433151Y-79323305D01*
X199481754Y-79650962D01*
X199482947Y-79663071D01*
X199499351Y-79996966D01*
X199499500Y-80003051D01*
X199499500Y-106996948D01*
X199499351Y-107003033D01*
X199482947Y-107336928D01*
X199481754Y-107349037D01*
X199433151Y-107676694D01*
X199430777Y-107688630D01*
X199350292Y-108009944D01*
X199346759Y-108021588D01*
X199235170Y-108333459D01*
X199230514Y-108344702D01*
X199088885Y-108644151D01*
X199083148Y-108654883D01*
X198912862Y-108938988D01*
X198906102Y-108949106D01*
X198708775Y-109215170D01*
X198701055Y-109224576D01*
X198478611Y-109470006D01*
X198470006Y-109478611D01*
X198224576Y-109701055D01*
X198215170Y-109708775D01*
X197949106Y-109906102D01*
X197938988Y-109912862D01*
X197654883Y-110083148D01*
X197644151Y-110088885D01*
X197344702Y-110230514D01*
X197333459Y-110235170D01*
X197021588Y-110346759D01*
X197009944Y-110350292D01*
X196688630Y-110430777D01*
X196676694Y-110433151D01*
X196349037Y-110481754D01*
X196336928Y-110482947D01*
X196021989Y-110498419D01*
X196003031Y-110499351D01*
X195996949Y-110499500D01*
X132003051Y-110499500D01*
X131996968Y-110499351D01*
X131976900Y-110498365D01*
X131663071Y-110482947D01*
X131650962Y-110481754D01*
X131323305Y-110433151D01*
X131311369Y-110430777D01*
X130990055Y-110350292D01*
X130978411Y-110346759D01*
X130666540Y-110235170D01*
X130655301Y-110230515D01*
X130355844Y-110088883D01*
X130345121Y-110083150D01*
X130061011Y-109912862D01*
X130050893Y-109906102D01*
X129784829Y-109708775D01*
X129775423Y-109701055D01*
X129736475Y-109665755D01*
X129529986Y-109478604D01*
X129521395Y-109470013D01*
X129298944Y-109224576D01*
X129291224Y-109215170D01*
X129093897Y-108949106D01*
X129087137Y-108938988D01*
X128916844Y-108654871D01*
X128911120Y-108644163D01*
X128769479Y-108344688D01*
X128764829Y-108333459D01*
X128653240Y-108021588D01*
X128649707Y-108009944D01*
X128612069Y-107859684D01*
X128569219Y-107688617D01*
X128566848Y-107676694D01*
X128566576Y-107674862D01*
X128518245Y-107349037D01*
X128517052Y-107336927D01*
X128500649Y-107003032D01*
X128500500Y-106996948D01*
X128500500Y-106825875D01*
X128899500Y-106825875D01*
X128899500Y-107174124D01*
X128938489Y-107520158D01*
X128938491Y-107520170D01*
X129015982Y-107859684D01*
X129015985Y-107859692D01*
X129130999Y-108188382D01*
X129282092Y-108502130D01*
X129467371Y-108796999D01*
X129467372Y-108797001D01*
X129684487Y-109069256D01*
X129930743Y-109315512D01*
X130202998Y-109532627D01*
X130203001Y-109532628D01*
X130203003Y-109532630D01*
X130497867Y-109717906D01*
X130811621Y-109869002D01*
X131058488Y-109955384D01*
X131140307Y-109984014D01*
X131140315Y-109984017D01*
X131140318Y-109984017D01*
X131140319Y-109984018D01*
X131479829Y-110061509D01*
X131825876Y-110100499D01*
X131825877Y-110100500D01*
X131825880Y-110100500D01*
X132174123Y-110100500D01*
X132174123Y-110100499D01*
X132520171Y-110061509D01*
X132859681Y-109984018D01*
X133188379Y-109869002D01*
X133502133Y-109717906D01*
X133796997Y-109532630D01*
X133869865Y-109474520D01*
X134069256Y-109315512D01*
X134069258Y-109315509D01*
X134069263Y-109315506D01*
X134315506Y-109069263D01*
X134419397Y-108938988D01*
X134532627Y-108797001D01*
X134532628Y-108796999D01*
X134532630Y-108796997D01*
X134717906Y-108502133D01*
X134869002Y-108188379D01*
X134984018Y-107859681D01*
X135061509Y-107520171D01*
X135100500Y-107174120D01*
X135100500Y-106825880D01*
X135100499Y-106825875D01*
X192899500Y-106825875D01*
X192899500Y-107174124D01*
X192938489Y-107520158D01*
X192938491Y-107520170D01*
X193015982Y-107859684D01*
X193015985Y-107859692D01*
X193130999Y-108188382D01*
X193282092Y-108502130D01*
X193467371Y-108796999D01*
X193467372Y-108797001D01*
X193684487Y-109069256D01*
X193930743Y-109315512D01*
X194202998Y-109532627D01*
X194203001Y-109532628D01*
X194203003Y-109532630D01*
X194497867Y-109717906D01*
X194811621Y-109869002D01*
X195058488Y-109955384D01*
X195140307Y-109984014D01*
X195140315Y-109984017D01*
X195140318Y-109984017D01*
X195140319Y-109984018D01*
X195479829Y-110061509D01*
X195825876Y-110100499D01*
X195825877Y-110100500D01*
X195825880Y-110100500D01*
X196174123Y-110100500D01*
X196174123Y-110100499D01*
X196520171Y-110061509D01*
X196859681Y-109984018D01*
X197188379Y-109869002D01*
X197502133Y-109717906D01*
X197796997Y-109532630D01*
X197869865Y-109474520D01*
X198069256Y-109315512D01*
X198069258Y-109315509D01*
X198069263Y-109315506D01*
X198315506Y-109069263D01*
X198419397Y-108938988D01*
X198532627Y-108797001D01*
X198532628Y-108796999D01*
X198532630Y-108796997D01*
X198717906Y-108502133D01*
X198869002Y-108188379D01*
X198984018Y-107859681D01*
X199061509Y-107520171D01*
X199100500Y-107174120D01*
X199100500Y-106825880D01*
X199061509Y-106479829D01*
X198984018Y-106140319D01*
X198869002Y-105811621D01*
X198717906Y-105497867D01*
X198532630Y-105203003D01*
X198532628Y-105203000D01*
X198532627Y-105202998D01*
X198315512Y-104930743D01*
X198069256Y-104684487D01*
X197797001Y-104467372D01*
X197796999Y-104467371D01*
X197502130Y-104282092D01*
X197188382Y-104130999D01*
X196859692Y-104015985D01*
X196859684Y-104015982D01*
X196605048Y-103957863D01*
X196520171Y-103938491D01*
X196520167Y-103938490D01*
X196520158Y-103938489D01*
X196174124Y-103899500D01*
X196174120Y-103899500D01*
X195825880Y-103899500D01*
X195825875Y-103899500D01*
X195479841Y-103938489D01*
X195479829Y-103938491D01*
X195140315Y-104015982D01*
X195140307Y-104015985D01*
X194811617Y-104130999D01*
X194497869Y-104282092D01*
X194203000Y-104467371D01*
X194202998Y-104467372D01*
X193930743Y-104684487D01*
X193684487Y-104930743D01*
X193467372Y-105202998D01*
X193467371Y-105203000D01*
X193282092Y-105497869D01*
X193130999Y-105811617D01*
X193015985Y-106140307D01*
X193015982Y-106140315D01*
X192938491Y-106479829D01*
X192938489Y-106479841D01*
X192899500Y-106825875D01*
X135100499Y-106825875D01*
X135061509Y-106479829D01*
X134984018Y-106140319D01*
X134869002Y-105811621D01*
X134717906Y-105497867D01*
X134532630Y-105203003D01*
X134532628Y-105203000D01*
X134532627Y-105202998D01*
X134315512Y-104930743D01*
X134069256Y-104684487D01*
X133797001Y-104467372D01*
X133796999Y-104467371D01*
X133502130Y-104282092D01*
X133406169Y-104235880D01*
X133188382Y-104130999D01*
X133186233Y-104130247D01*
X152709500Y-104130247D01*
X152709500Y-105869752D01*
X152721131Y-105928229D01*
X152721132Y-105928230D01*
X152765447Y-105994552D01*
X152831769Y-106038867D01*
X152831770Y-106038868D01*
X152890247Y-106050499D01*
X152890250Y-106050500D01*
X152890252Y-106050500D01*
X154629750Y-106050500D01*
X154629751Y-106050499D01*
X154644568Y-106047552D01*
X154688229Y-106038868D01*
X154688229Y-106038867D01*
X154688231Y-106038867D01*
X154754552Y-105994552D01*
X154798867Y-105928231D01*
X154798867Y-105928229D01*
X154798868Y-105928229D01*
X154810499Y-105869752D01*
X154810500Y-105869750D01*
X154810500Y-105566048D01*
X154830185Y-105499009D01*
X154882989Y-105453254D01*
X154952147Y-105443310D01*
X155015703Y-105472335D01*
X155045938Y-105514264D01*
X155046694Y-105513879D01*
X155145379Y-105707557D01*
X155270272Y-105879459D01*
X155270276Y-105879464D01*
X155420535Y-106029723D01*
X155420540Y-106029727D01*
X155592442Y-106154620D01*
X155781782Y-106251095D01*
X155983871Y-106316757D01*
X156050000Y-106327231D01*
X156050000Y-105433012D01*
X156107007Y-105465925D01*
X156234174Y-105500000D01*
X156365826Y-105500000D01*
X156492993Y-105465925D01*
X156550000Y-105433012D01*
X156550000Y-106327230D01*
X156616126Y-106316757D01*
X156616129Y-106316757D01*
X156818217Y-106251095D01*
X157007557Y-106154620D01*
X157179459Y-106029727D01*
X157179464Y-106029723D01*
X157329723Y-105879464D01*
X157329727Y-105879459D01*
X157454620Y-105707557D01*
X157551095Y-105518217D01*
X157608343Y-105342026D01*
X157647780Y-105284351D01*
X157712139Y-105257152D01*
X157780985Y-105269066D01*
X157832461Y-105316310D01*
X157840835Y-105332891D01*
X157909058Y-105497596D01*
X158024024Y-105669657D01*
X158170342Y-105815975D01*
X158170345Y-105815977D01*
X158342402Y-105930941D01*
X158533580Y-106010130D01*
X158678052Y-106038867D01*
X158736530Y-106050499D01*
X158736534Y-106050500D01*
X158736535Y-106050500D01*
X158943466Y-106050500D01*
X158943467Y-106050499D01*
X159146420Y-106010130D01*
X159337598Y-105930941D01*
X159509655Y-105815977D01*
X159655977Y-105669655D01*
X159770941Y-105497598D01*
X159850130Y-105306420D01*
X159890500Y-105103465D01*
X159890500Y-104896535D01*
X159850130Y-104693580D01*
X159770941Y-104502402D01*
X159655977Y-104330345D01*
X159655975Y-104330342D01*
X159509657Y-104184024D01*
X159341655Y-104071770D01*
X159337598Y-104069059D01*
X159146420Y-103989870D01*
X159146412Y-103989868D01*
X158943469Y-103949500D01*
X158943465Y-103949500D01*
X158736535Y-103949500D01*
X158736530Y-103949500D01*
X158533587Y-103989868D01*
X158533579Y-103989870D01*
X158342403Y-104069058D01*
X158170342Y-104184024D01*
X158024024Y-104330342D01*
X157909057Y-104502403D01*
X157840835Y-104667108D01*
X157796994Y-104721511D01*
X157730700Y-104743576D01*
X157663000Y-104726297D01*
X157615390Y-104675159D01*
X157608343Y-104657973D01*
X157551095Y-104481782D01*
X157454620Y-104292442D01*
X157329727Y-104120540D01*
X157329723Y-104120535D01*
X157179464Y-103970276D01*
X157179459Y-103970272D01*
X157007557Y-103845379D01*
X156818215Y-103748903D01*
X156616124Y-103683241D01*
X156550000Y-103672768D01*
X156550000Y-104566988D01*
X156492993Y-104534075D01*
X156365826Y-104500000D01*
X156234174Y-104500000D01*
X156107007Y-104534075D01*
X156050000Y-104566988D01*
X156050000Y-103672768D01*
X156049999Y-103672768D01*
X155983875Y-103683241D01*
X155781784Y-103748903D01*
X155592442Y-103845379D01*
X155420540Y-103970272D01*
X155420535Y-103970276D01*
X155270276Y-104120535D01*
X155270272Y-104120540D01*
X155145379Y-104292442D01*
X155046694Y-104486121D01*
X155045678Y-104485603D01*
X155005212Y-104535813D01*
X154938916Y-104557872D01*
X154871218Y-104540588D01*
X154823612Y-104489447D01*
X154810500Y-104433951D01*
X154810500Y-104130249D01*
X154810499Y-104130247D01*
X154798868Y-104071770D01*
X154798867Y-104071769D01*
X154754552Y-104005447D01*
X154688230Y-103961132D01*
X154688229Y-103961131D01*
X154629752Y-103949500D01*
X154629748Y-103949500D01*
X152890252Y-103949500D01*
X152890247Y-103949500D01*
X152831770Y-103961131D01*
X152831769Y-103961132D01*
X152765447Y-104005447D01*
X152721132Y-104071769D01*
X152721131Y-104071770D01*
X152709500Y-104130247D01*
X133186233Y-104130247D01*
X132859692Y-104015985D01*
X132859684Y-104015982D01*
X132605048Y-103957863D01*
X132520171Y-103938491D01*
X132520167Y-103938490D01*
X132520158Y-103938489D01*
X132174124Y-103899500D01*
X132174120Y-103899500D01*
X131825880Y-103899500D01*
X131825875Y-103899500D01*
X131479841Y-103938489D01*
X131479829Y-103938491D01*
X131140315Y-104015982D01*
X131140307Y-104015985D01*
X130811617Y-104130999D01*
X130497869Y-104282092D01*
X130203000Y-104467371D01*
X130202998Y-104467372D01*
X129930743Y-104684487D01*
X129684487Y-104930743D01*
X129467372Y-105202998D01*
X129467371Y-105203000D01*
X129282092Y-105497869D01*
X129130999Y-105811617D01*
X129015985Y-106140307D01*
X129015982Y-106140315D01*
X128938491Y-106479829D01*
X128938489Y-106479841D01*
X128899500Y-106825875D01*
X128500500Y-106825875D01*
X128500500Y-93934108D01*
X133499500Y-93934108D01*
X133499500Y-94065891D01*
X133533608Y-94193187D01*
X133566554Y-94250250D01*
X133599500Y-94307314D01*
X133692686Y-94400500D01*
X133806814Y-94466392D01*
X133934108Y-94500500D01*
X133934110Y-94500500D01*
X134065890Y-94500500D01*
X134065892Y-94500500D01*
X134193186Y-94466392D01*
X134307314Y-94400500D01*
X134400500Y-94307314D01*
X134466392Y-94193186D01*
X134500500Y-94065892D01*
X134500500Y-93934108D01*
X134466392Y-93806814D01*
X134417113Y-93721460D01*
X134400500Y-93659460D01*
X134400500Y-92407676D01*
X134420185Y-92340637D01*
X134472989Y-92294882D01*
X134542147Y-92284938D01*
X134605703Y-92313963D01*
X134612181Y-92319995D01*
X134692686Y-92400500D01*
X134806814Y-92466392D01*
X134934108Y-92500500D01*
X134934110Y-92500500D01*
X135065890Y-92500500D01*
X135065892Y-92500500D01*
X135193186Y-92466392D01*
X135307314Y-92400500D01*
X135400500Y-92307314D01*
X135466392Y-92193186D01*
X135500500Y-92065892D01*
X135500500Y-91934108D01*
X135490431Y-91896530D01*
X141369500Y-91896530D01*
X141369500Y-92103469D01*
X141409868Y-92306412D01*
X141409870Y-92306420D01*
X141476132Y-92466391D01*
X141489059Y-92497598D01*
X141490998Y-92500500D01*
X141604024Y-92669657D01*
X141750342Y-92815975D01*
X141750345Y-92815977D01*
X141922402Y-92930941D01*
X142113580Y-93010130D01*
X142258052Y-93038867D01*
X142316530Y-93050499D01*
X142316534Y-93050500D01*
X142316535Y-93050500D01*
X142523466Y-93050500D01*
X142523467Y-93050499D01*
X142726420Y-93010130D01*
X142917598Y-92930941D01*
X143089655Y-92815977D01*
X143235977Y-92669655D01*
X143350941Y-92497598D01*
X143430130Y-92306420D01*
X143470500Y-92103465D01*
X143470500Y-91896535D01*
X143430130Y-91693580D01*
X143350941Y-91502402D01*
X143235977Y-91330345D01*
X143235975Y-91330342D01*
X143089657Y-91184024D01*
X142959795Y-91097254D01*
X142917598Y-91069059D01*
X142909952Y-91065892D01*
X142726420Y-90989870D01*
X142726412Y-90989868D01*
X142523469Y-90949500D01*
X142523465Y-90949500D01*
X142316535Y-90949500D01*
X142316530Y-90949500D01*
X142113587Y-90989868D01*
X142113579Y-90989870D01*
X141922403Y-91069058D01*
X141750342Y-91184024D01*
X141604024Y-91330342D01*
X141489058Y-91502403D01*
X141409870Y-91693579D01*
X141409868Y-91693587D01*
X141369500Y-91896530D01*
X135490431Y-91896530D01*
X135466392Y-91806814D01*
X135412701Y-91713820D01*
X135409417Y-91705633D01*
X135407480Y-91685510D01*
X135400500Y-91659460D01*
X135400500Y-90217254D01*
X135420185Y-90150215D01*
X135436819Y-90129573D01*
X136632284Y-88934108D01*
X139349500Y-88934108D01*
X139349500Y-89065891D01*
X139383608Y-89193187D01*
X139406399Y-89232661D01*
X139449500Y-89307314D01*
X139542686Y-89400500D01*
X139641521Y-89457563D01*
X139652660Y-89463994D01*
X139656814Y-89466392D01*
X139784108Y-89500500D01*
X143741324Y-89500500D01*
X143808363Y-89520185D01*
X143829005Y-89536819D01*
X144423181Y-90130995D01*
X144456666Y-90192318D01*
X144459500Y-90218676D01*
X144459500Y-91004718D01*
X144439815Y-91071757D01*
X144404390Y-91107820D01*
X144290349Y-91184019D01*
X144290341Y-91184025D01*
X144144024Y-91330342D01*
X144029058Y-91502403D01*
X143949870Y-91693579D01*
X143949868Y-91693587D01*
X143909500Y-91896530D01*
X143909500Y-92103469D01*
X143949868Y-92306412D01*
X143949870Y-92306420D01*
X144016132Y-92466391D01*
X144029059Y-92497598D01*
X144030998Y-92500500D01*
X144144024Y-92669657D01*
X144290342Y-92815975D01*
X144290345Y-92815977D01*
X144462402Y-92930941D01*
X144653580Y-93010130D01*
X144798052Y-93038867D01*
X144856530Y-93050499D01*
X144856534Y-93050500D01*
X144856535Y-93050500D01*
X145063466Y-93050500D01*
X145063467Y-93050499D01*
X145266420Y-93010130D01*
X145457598Y-92930941D01*
X145629655Y-92815977D01*
X145775977Y-92669655D01*
X145890941Y-92497598D01*
X145970130Y-92306420D01*
X146010500Y-92103465D01*
X146010500Y-91896535D01*
X145970130Y-91693580D01*
X145890941Y-91502402D01*
X145775977Y-91330345D01*
X145775975Y-91330342D01*
X145663890Y-91218257D01*
X145663886Y-91218254D01*
X145629655Y-91184023D01*
X145549174Y-91130247D01*
X146449500Y-91130247D01*
X146449500Y-92869752D01*
X146461131Y-92928229D01*
X146461132Y-92928230D01*
X146505447Y-92994552D01*
X146571769Y-93038867D01*
X146571770Y-93038868D01*
X146630247Y-93050499D01*
X146630250Y-93050500D01*
X146630252Y-93050500D01*
X148369750Y-93050500D01*
X148369751Y-93050499D01*
X148384568Y-93047552D01*
X148428229Y-93038868D01*
X148428229Y-93038867D01*
X148428231Y-93038867D01*
X148494552Y-92994552D01*
X148538867Y-92928231D01*
X148538867Y-92928229D01*
X148538868Y-92928229D01*
X148550499Y-92869752D01*
X148550500Y-92869750D01*
X148550500Y-91934108D01*
X151999500Y-91934108D01*
X151999500Y-92065892D01*
X152033608Y-92193186D01*
X152082887Y-92278540D01*
X152099500Y-92340539D01*
X152099500Y-93552726D01*
X152126793Y-93654589D01*
X152148789Y-93692686D01*
X152179520Y-93745913D01*
X152179521Y-93745914D01*
X152179522Y-93745915D01*
X157675179Y-99241571D01*
X157675189Y-99241582D01*
X157679519Y-99245912D01*
X157679520Y-99245913D01*
X157754087Y-99320480D01*
X157845413Y-99373207D01*
X157947273Y-99400501D01*
X157947275Y-99400501D01*
X158060323Y-99400501D01*
X158060339Y-99400500D01*
X158659460Y-99400500D01*
X158721460Y-99417113D01*
X158765141Y-99442332D01*
X158806814Y-99466392D01*
X158934108Y-99500500D01*
X158934110Y-99500500D01*
X159065890Y-99500500D01*
X159065892Y-99500500D01*
X159193186Y-99466392D01*
X159307314Y-99400500D01*
X159400500Y-99307314D01*
X159466392Y-99193186D01*
X159500500Y-99065892D01*
X159500500Y-98934108D01*
X159466392Y-98806814D01*
X159400500Y-98692686D01*
X159307314Y-98599500D01*
X159244408Y-98563181D01*
X159193187Y-98533608D01*
X159097984Y-98508099D01*
X159065892Y-98499500D01*
X158934108Y-98499500D01*
X158806814Y-98533608D01*
X158806813Y-98533608D01*
X158806811Y-98533609D01*
X158806810Y-98533609D01*
X158721460Y-98582887D01*
X158659460Y-98599500D01*
X158217254Y-98599500D01*
X158150215Y-98579815D01*
X158129573Y-98563181D01*
X152936819Y-93370426D01*
X152903334Y-93309103D01*
X152900500Y-93282745D01*
X152900500Y-92340539D01*
X152917112Y-92278540D01*
X152966392Y-92193186D01*
X153000500Y-92065892D01*
X153000500Y-91934108D01*
X152966392Y-91806814D01*
X152900500Y-91692686D01*
X152807314Y-91599500D01*
X152750250Y-91566554D01*
X152693187Y-91533608D01*
X152629539Y-91516554D01*
X152565892Y-91499500D01*
X152434108Y-91499500D01*
X152306812Y-91533608D01*
X152192686Y-91599500D01*
X152192683Y-91599502D01*
X152099502Y-91692683D01*
X152099500Y-91692686D01*
X152033608Y-91806812D01*
X152000677Y-91929717D01*
X151999500Y-91934108D01*
X148550500Y-91934108D01*
X148550500Y-91130249D01*
X148550499Y-91130247D01*
X148538868Y-91071770D01*
X148538867Y-91071769D01*
X148494552Y-91005447D01*
X148428230Y-90961132D01*
X148428229Y-90961131D01*
X148369752Y-90949500D01*
X148369748Y-90949500D01*
X146630252Y-90949500D01*
X146630247Y-90949500D01*
X146571770Y-90961131D01*
X146571769Y-90961132D01*
X146505447Y-91005447D01*
X146461132Y-91071769D01*
X146461131Y-91071770D01*
X146449500Y-91130247D01*
X145549174Y-91130247D01*
X145513028Y-91106095D01*
X145510517Y-91104229D01*
X145491285Y-91078714D01*
X145470804Y-91054208D01*
X145470037Y-91050525D01*
X145468461Y-91048434D01*
X145467821Y-91039881D01*
X145460500Y-91004718D01*
X145460500Y-90934108D01*
X153499500Y-90934108D01*
X153499500Y-91065892D01*
X153516554Y-91129539D01*
X153533608Y-91193187D01*
X153566554Y-91250250D01*
X153599500Y-91307314D01*
X153692686Y-91400500D01*
X153806814Y-91466392D01*
X153902014Y-91491900D01*
X153957600Y-91523993D01*
X160943181Y-98509574D01*
X160976666Y-98570897D01*
X160979500Y-98597255D01*
X160979500Y-103945985D01*
X160959815Y-104013024D01*
X160907011Y-104058779D01*
X160902954Y-104060546D01*
X160882402Y-104069059D01*
X160882395Y-104069062D01*
X160710344Y-104184022D01*
X160564024Y-104330342D01*
X160449058Y-104502403D01*
X160369870Y-104693579D01*
X160369868Y-104693587D01*
X160329500Y-104896530D01*
X160329500Y-105103469D01*
X160369868Y-105306412D01*
X160369870Y-105306420D01*
X160449058Y-105497596D01*
X160564024Y-105669657D01*
X160710342Y-105815975D01*
X160710345Y-105815977D01*
X160882402Y-105930941D01*
X161073580Y-106010130D01*
X161218052Y-106038867D01*
X161276530Y-106050499D01*
X161276534Y-106050500D01*
X161276535Y-106050500D01*
X161483466Y-106050500D01*
X161483467Y-106050499D01*
X161686420Y-106010130D01*
X161877598Y-105930941D01*
X162049655Y-105815977D01*
X162195977Y-105669655D01*
X162310941Y-105497598D01*
X162390130Y-105306420D01*
X162430500Y-105103465D01*
X162430500Y-104896535D01*
X162430499Y-104896530D01*
X162869500Y-104896530D01*
X162869500Y-105103469D01*
X162909868Y-105306412D01*
X162909870Y-105306420D01*
X162989058Y-105497596D01*
X163104024Y-105669657D01*
X163250342Y-105815975D01*
X163250345Y-105815977D01*
X163422402Y-105930941D01*
X163613580Y-106010130D01*
X163758052Y-106038867D01*
X163816530Y-106050499D01*
X163816534Y-106050500D01*
X163816535Y-106050500D01*
X164023466Y-106050500D01*
X164023467Y-106050499D01*
X164226420Y-106010130D01*
X164417598Y-105930941D01*
X164589655Y-105815977D01*
X164735977Y-105669655D01*
X164850941Y-105497598D01*
X164930130Y-105306420D01*
X164970500Y-105103465D01*
X164970500Y-104896535D01*
X164970499Y-104896530D01*
X165409500Y-104896530D01*
X165409500Y-105103469D01*
X165449868Y-105306412D01*
X165449870Y-105306420D01*
X165529058Y-105497596D01*
X165644024Y-105669657D01*
X165790342Y-105815975D01*
X165790345Y-105815977D01*
X165962402Y-105930941D01*
X166153580Y-106010130D01*
X166298052Y-106038867D01*
X166356530Y-106050499D01*
X166356534Y-106050500D01*
X166356535Y-106050500D01*
X166563466Y-106050500D01*
X166563467Y-106050499D01*
X166766420Y-106010130D01*
X166957598Y-105930941D01*
X167129655Y-105815977D01*
X167275977Y-105669655D01*
X167390941Y-105497598D01*
X167470130Y-105306420D01*
X167510500Y-105103465D01*
X167510500Y-104896535D01*
X167510499Y-104896530D01*
X167949500Y-104896530D01*
X167949500Y-105103469D01*
X167989868Y-105306412D01*
X167989870Y-105306420D01*
X168069058Y-105497596D01*
X168184024Y-105669657D01*
X168330342Y-105815975D01*
X168330345Y-105815977D01*
X168502402Y-105930941D01*
X168693580Y-106010130D01*
X168838052Y-106038867D01*
X168896530Y-106050499D01*
X168896534Y-106050500D01*
X168896535Y-106050500D01*
X169103466Y-106050500D01*
X169103467Y-106050499D01*
X169306420Y-106010130D01*
X169497598Y-105930941D01*
X169669655Y-105815977D01*
X169815977Y-105669655D01*
X169930941Y-105497598D01*
X170010130Y-105306420D01*
X170050500Y-105103465D01*
X170050500Y-104896535D01*
X170050499Y-104896530D01*
X170489500Y-104896530D01*
X170489500Y-105103469D01*
X170529868Y-105306412D01*
X170529870Y-105306420D01*
X170609058Y-105497596D01*
X170724024Y-105669657D01*
X170870342Y-105815975D01*
X170870345Y-105815977D01*
X171042402Y-105930941D01*
X171233580Y-106010130D01*
X171378052Y-106038867D01*
X171436530Y-106050499D01*
X171436534Y-106050500D01*
X171436535Y-106050500D01*
X171643466Y-106050500D01*
X171643467Y-106050499D01*
X171846420Y-106010130D01*
X172037598Y-105930941D01*
X172209655Y-105815977D01*
X172355977Y-105669655D01*
X172470941Y-105497598D01*
X172550130Y-105306420D01*
X172590500Y-105103465D01*
X172590500Y-104896535D01*
X172590499Y-104896530D01*
X173029500Y-104896530D01*
X173029500Y-105103469D01*
X173069868Y-105306412D01*
X173069870Y-105306420D01*
X173149058Y-105497596D01*
X173264024Y-105669657D01*
X173410342Y-105815975D01*
X173410345Y-105815977D01*
X173582402Y-105930941D01*
X173773580Y-106010130D01*
X173918052Y-106038867D01*
X173976530Y-106050499D01*
X173976534Y-106050500D01*
X173976535Y-106050500D01*
X174183466Y-106050500D01*
X174183467Y-106050499D01*
X174386420Y-106010130D01*
X174577598Y-105930941D01*
X174749655Y-105815977D01*
X174895977Y-105669655D01*
X175010941Y-105497598D01*
X175090130Y-105306420D01*
X175130500Y-105103465D01*
X175130500Y-104896535D01*
X175090130Y-104693580D01*
X175010941Y-104502402D01*
X174895977Y-104330345D01*
X174895975Y-104330342D01*
X174749657Y-104184024D01*
X174581655Y-104071770D01*
X174577598Y-104069059D01*
X174386420Y-103989870D01*
X174386412Y-103989868D01*
X174183469Y-103949500D01*
X174183465Y-103949500D01*
X173976535Y-103949500D01*
X173976530Y-103949500D01*
X173773587Y-103989868D01*
X173773579Y-103989870D01*
X173582403Y-104069058D01*
X173410342Y-104184024D01*
X173264024Y-104330342D01*
X173149058Y-104502403D01*
X173069870Y-104693579D01*
X173069868Y-104693587D01*
X173029500Y-104896530D01*
X172590499Y-104896530D01*
X172550130Y-104693580D01*
X172470941Y-104502402D01*
X172355977Y-104330345D01*
X172355975Y-104330342D01*
X172209657Y-104184024D01*
X172041655Y-104071770D01*
X172037598Y-104069059D01*
X171846420Y-103989870D01*
X171846412Y-103989868D01*
X171643469Y-103949500D01*
X171643465Y-103949500D01*
X171436535Y-103949500D01*
X171436530Y-103949500D01*
X171233587Y-103989868D01*
X171233579Y-103989870D01*
X171042403Y-104069058D01*
X170870342Y-104184024D01*
X170724024Y-104330342D01*
X170609058Y-104502403D01*
X170529870Y-104693579D01*
X170529868Y-104693587D01*
X170489500Y-104896530D01*
X170050499Y-104896530D01*
X170010130Y-104693580D01*
X169930941Y-104502402D01*
X169815977Y-104330345D01*
X169815975Y-104330342D01*
X169669657Y-104184024D01*
X169501655Y-104071770D01*
X169497598Y-104069059D01*
X169306420Y-103989870D01*
X169306412Y-103989868D01*
X169103469Y-103949500D01*
X169103465Y-103949500D01*
X168896535Y-103949500D01*
X168896530Y-103949500D01*
X168693587Y-103989868D01*
X168693579Y-103989870D01*
X168502403Y-104069058D01*
X168330342Y-104184024D01*
X168184024Y-104330342D01*
X168069058Y-104502403D01*
X167989870Y-104693579D01*
X167989868Y-104693587D01*
X167949500Y-104896530D01*
X167510499Y-104896530D01*
X167470130Y-104693580D01*
X167390941Y-104502402D01*
X167275977Y-104330345D01*
X167275975Y-104330342D01*
X167129657Y-104184024D01*
X166961655Y-104071770D01*
X166957598Y-104069059D01*
X166766420Y-103989870D01*
X166766412Y-103989868D01*
X166563469Y-103949500D01*
X166563465Y-103949500D01*
X166356535Y-103949500D01*
X166356530Y-103949500D01*
X166153587Y-103989868D01*
X166153579Y-103989870D01*
X165962403Y-104069058D01*
X165790342Y-104184024D01*
X165644024Y-104330342D01*
X165529058Y-104502403D01*
X165449870Y-104693579D01*
X165449868Y-104693587D01*
X165409500Y-104896530D01*
X164970499Y-104896530D01*
X164930130Y-104693580D01*
X164850941Y-104502402D01*
X164735977Y-104330345D01*
X164735975Y-104330342D01*
X164589655Y-104184022D01*
X164417604Y-104069062D01*
X164417599Y-104069060D01*
X164417598Y-104069059D01*
X164397045Y-104060545D01*
X164342643Y-104016704D01*
X164320579Y-103950410D01*
X164320500Y-103945985D01*
X164320500Y-102297254D01*
X164340185Y-102230215D01*
X164356819Y-102209573D01*
X165129573Y-101436819D01*
X165190896Y-101403334D01*
X165217254Y-101400500D01*
X174052725Y-101400500D01*
X174052727Y-101400500D01*
X174154588Y-101373207D01*
X174245913Y-101320480D01*
X175542399Y-100023992D01*
X175597986Y-99991900D01*
X175693183Y-99966393D01*
X175693183Y-99966392D01*
X175693186Y-99966392D01*
X175807314Y-99900500D01*
X175900500Y-99807314D01*
X175966392Y-99693186D01*
X175975725Y-99658351D01*
X176012090Y-99598692D01*
X176074937Y-99568163D01*
X176144312Y-99576458D01*
X176198190Y-99620943D01*
X176219465Y-99687495D01*
X176219500Y-99690446D01*
X176219500Y-103945985D01*
X176199815Y-104013024D01*
X176147011Y-104058779D01*
X176142954Y-104060546D01*
X176122402Y-104069059D01*
X176122395Y-104069062D01*
X175950344Y-104184022D01*
X175804024Y-104330342D01*
X175689058Y-104502403D01*
X175609870Y-104693579D01*
X175609868Y-104693587D01*
X175569500Y-104896530D01*
X175569500Y-105103469D01*
X175609868Y-105306412D01*
X175609870Y-105306420D01*
X175689058Y-105497596D01*
X175804024Y-105669657D01*
X175950342Y-105815975D01*
X175950345Y-105815977D01*
X176122402Y-105930941D01*
X176313580Y-106010130D01*
X176458052Y-106038867D01*
X176516530Y-106050499D01*
X176516534Y-106050500D01*
X176516535Y-106050500D01*
X176723466Y-106050500D01*
X176723467Y-106050499D01*
X176926420Y-106010130D01*
X177117598Y-105930941D01*
X177289655Y-105815977D01*
X177435977Y-105669655D01*
X177550941Y-105497598D01*
X177630130Y-105306420D01*
X177670500Y-105103465D01*
X177670500Y-104896535D01*
X177630130Y-104693580D01*
X177550941Y-104502402D01*
X177435977Y-104330345D01*
X177435975Y-104330342D01*
X177289655Y-104184022D01*
X177117604Y-104069062D01*
X177117599Y-104069060D01*
X177117598Y-104069059D01*
X177097045Y-104060545D01*
X177042643Y-104016704D01*
X177020579Y-103950410D01*
X177020500Y-103945985D01*
X177020500Y-97327275D01*
X177020500Y-97327273D01*
X176993207Y-97225413D01*
X176993207Y-97225412D01*
X176940480Y-97134087D01*
X175436819Y-95630426D01*
X175403334Y-95569103D01*
X175400500Y-95542745D01*
X175400500Y-91097254D01*
X175420185Y-91030215D01*
X175436814Y-91009578D01*
X176982399Y-89463992D01*
X177037986Y-89431900D01*
X177133183Y-89406393D01*
X177133183Y-89406392D01*
X177133186Y-89406392D01*
X177247314Y-89340500D01*
X177340500Y-89247314D01*
X177406392Y-89133186D01*
X177440500Y-89005892D01*
X177440500Y-88874108D01*
X177406392Y-88746814D01*
X177340500Y-88632686D01*
X177247314Y-88539500D01*
X177158412Y-88488172D01*
X177133187Y-88473608D01*
X177069539Y-88456554D01*
X177005892Y-88439500D01*
X176874108Y-88439500D01*
X176746812Y-88473608D01*
X176632686Y-88539500D01*
X176632683Y-88539502D01*
X176539502Y-88632683D01*
X176539500Y-88632686D01*
X176473607Y-88746814D01*
X176473607Y-88746815D01*
X176448098Y-88842014D01*
X176416005Y-88897600D01*
X174679522Y-90634084D01*
X174679518Y-90634090D01*
X174626792Y-90725412D01*
X174626793Y-90725413D01*
X174599500Y-90827273D01*
X174599500Y-95812726D01*
X174626793Y-95914589D01*
X174638063Y-95934108D01*
X174679520Y-96005913D01*
X174679522Y-96005915D01*
X176183181Y-97509574D01*
X176216666Y-97570897D01*
X176219500Y-97597255D01*
X176219500Y-99309553D01*
X176199815Y-99376592D01*
X176147011Y-99422347D01*
X176077853Y-99432291D01*
X176014297Y-99403266D01*
X175976523Y-99344488D01*
X175975725Y-99341647D01*
X175966392Y-99306814D01*
X175900500Y-99192686D01*
X175807314Y-99099500D01*
X175708411Y-99042398D01*
X175693187Y-99033608D01*
X175629539Y-99016554D01*
X175565892Y-98999500D01*
X175434108Y-98999500D01*
X175306812Y-99033608D01*
X175192686Y-99099500D01*
X175192683Y-99099502D01*
X175099502Y-99192683D01*
X175099500Y-99192686D01*
X175033607Y-99306814D01*
X175033607Y-99306815D01*
X175008098Y-99402014D01*
X174976005Y-99457600D01*
X173870426Y-100563181D01*
X173809103Y-100596666D01*
X173782745Y-100599500D01*
X165060339Y-100599500D01*
X165060323Y-100599499D01*
X165052727Y-100599499D01*
X164947273Y-100599499D01*
X164879366Y-100617695D01*
X164845412Y-100626793D01*
X164754084Y-100679522D01*
X163599522Y-101834084D01*
X163599518Y-101834090D01*
X163546792Y-101925412D01*
X163546793Y-101925413D01*
X163519500Y-102027273D01*
X163519500Y-103945985D01*
X163499815Y-104013024D01*
X163447011Y-104058779D01*
X163442954Y-104060546D01*
X163422402Y-104069059D01*
X163422395Y-104069062D01*
X163250344Y-104184022D01*
X163104024Y-104330342D01*
X162989058Y-104502403D01*
X162909870Y-104693579D01*
X162909868Y-104693587D01*
X162869500Y-104896530D01*
X162430499Y-104896530D01*
X162390130Y-104693580D01*
X162310941Y-104502402D01*
X162195977Y-104330345D01*
X162195975Y-104330342D01*
X162049655Y-104184022D01*
X161877604Y-104069062D01*
X161877599Y-104069060D01*
X161877598Y-104069059D01*
X161857045Y-104060545D01*
X161802643Y-104016704D01*
X161780579Y-103950410D01*
X161780500Y-103945985D01*
X161780500Y-98327275D01*
X161780500Y-98327273D01*
X161757244Y-98240480D01*
X161753207Y-98225412D01*
X161700480Y-98134087D01*
X154523993Y-90957600D01*
X154491900Y-90902014D01*
X154466392Y-90806814D01*
X154400500Y-90692686D01*
X154307314Y-90599500D01*
X154250250Y-90566554D01*
X154193187Y-90533608D01*
X154129539Y-90516554D01*
X154065892Y-90499500D01*
X153934108Y-90499500D01*
X153806812Y-90533608D01*
X153692686Y-90599500D01*
X153692683Y-90599502D01*
X153599502Y-90692683D01*
X153599500Y-90692686D01*
X153533608Y-90806812D01*
X153520266Y-90856606D01*
X153499500Y-90934108D01*
X145460500Y-90934108D01*
X145460500Y-89894110D01*
X145460500Y-89894108D01*
X145426392Y-89766814D01*
X145360500Y-89652686D01*
X145267314Y-89559500D01*
X144307314Y-88599500D01*
X144250250Y-88566554D01*
X144193187Y-88533608D01*
X144115256Y-88512727D01*
X144065892Y-88499500D01*
X139784108Y-88499500D01*
X139656812Y-88533608D01*
X139542686Y-88599500D01*
X139542683Y-88599502D01*
X139449502Y-88692683D01*
X139449500Y-88692686D01*
X139383608Y-88806812D01*
X139349500Y-88934108D01*
X136632284Y-88934108D01*
X138129573Y-87436819D01*
X138190896Y-87403334D01*
X138217254Y-87400500D01*
X148052725Y-87400500D01*
X148052727Y-87400500D01*
X148154588Y-87373207D01*
X148245913Y-87320480D01*
X148292400Y-87273992D01*
X148347986Y-87241899D01*
X148394156Y-87229528D01*
X148443184Y-87216393D01*
X148443184Y-87216392D01*
X148443186Y-87216392D01*
X148557314Y-87150500D01*
X148650500Y-87057314D01*
X148716392Y-86943186D01*
X148750500Y-86815892D01*
X148750500Y-86684108D01*
X148716392Y-86556814D01*
X148650500Y-86442686D01*
X148557314Y-86349500D01*
X148443186Y-86283608D01*
X148443185Y-86283607D01*
X148436147Y-86279544D01*
X148437471Y-86277249D01*
X148422113Y-86264872D01*
X148395849Y-86245211D01*
X148395046Y-86243059D01*
X148393258Y-86241618D01*
X148382898Y-86210488D01*
X148371432Y-86179747D01*
X148371920Y-86177502D01*
X148371195Y-86175323D01*
X148379310Y-86143529D01*
X148386284Y-86111474D01*
X148388118Y-86109022D01*
X148388476Y-86107624D01*
X148407429Y-86083226D01*
X148542399Y-85948256D01*
X148597982Y-85916165D01*
X148693186Y-85890656D01*
X148807314Y-85824764D01*
X148900500Y-85731578D01*
X148966392Y-85617450D01*
X149000500Y-85490156D01*
X149000500Y-85358372D01*
X148966392Y-85231078D01*
X148900500Y-85116950D01*
X148807314Y-85023764D01*
X148744110Y-84987273D01*
X148693187Y-84957872D01*
X148629539Y-84940818D01*
X148565892Y-84923764D01*
X148434108Y-84923764D01*
X148306812Y-84957872D01*
X148192686Y-85023764D01*
X148192683Y-85023766D01*
X148099502Y-85116947D01*
X148099500Y-85116950D01*
X148033608Y-85231076D01*
X148008099Y-85326278D01*
X147976005Y-85381865D01*
X147794690Y-85563181D01*
X147733367Y-85596666D01*
X147707009Y-85599500D01*
X137060339Y-85599500D01*
X137060323Y-85599499D01*
X137052727Y-85599499D01*
X136947273Y-85599499D01*
X136880281Y-85617450D01*
X136845412Y-85626793D01*
X136754084Y-85679522D01*
X133679522Y-88754084D01*
X133679520Y-88754087D01*
X133626793Y-88845410D01*
X133599500Y-88947273D01*
X133599500Y-93659460D01*
X133582887Y-93721460D01*
X133533609Y-93806810D01*
X133533609Y-93806811D01*
X133499500Y-93934108D01*
X128500500Y-93934108D01*
X128500500Y-80003051D01*
X128500649Y-79996966D01*
X128509054Y-79825875D01*
X128899500Y-79825875D01*
X128899500Y-80174124D01*
X128938489Y-80520158D01*
X128938490Y-80520167D01*
X128938491Y-80520171D01*
X128954182Y-80588919D01*
X129015982Y-80859684D01*
X129015985Y-80859692D01*
X129130999Y-81188382D01*
X129282092Y-81502130D01*
X129467371Y-81796999D01*
X129467372Y-81797001D01*
X129684487Y-82069256D01*
X129930743Y-82315512D01*
X130202998Y-82532627D01*
X130203001Y-82532628D01*
X130203003Y-82532630D01*
X130497867Y-82717906D01*
X130811621Y-82869002D01*
X131058488Y-82955384D01*
X131140307Y-82984014D01*
X131140315Y-82984017D01*
X131140318Y-82984017D01*
X131140319Y-82984018D01*
X131479829Y-83061509D01*
X131825876Y-83100499D01*
X131825877Y-83100500D01*
X131825880Y-83100500D01*
X132174123Y-83100500D01*
X132174123Y-83100499D01*
X132520171Y-83061509D01*
X132859681Y-82984018D01*
X133188379Y-82869002D01*
X133502133Y-82717906D01*
X133796997Y-82532630D01*
X133797001Y-82532627D01*
X134069256Y-82315512D01*
X134069258Y-82315509D01*
X134069263Y-82315506D01*
X134315506Y-82069263D01*
X134532630Y-81796997D01*
X134717906Y-81502133D01*
X134869002Y-81188379D01*
X134984018Y-80859681D01*
X135061509Y-80520171D01*
X135100500Y-80174120D01*
X135100500Y-79897648D01*
X139619500Y-79897648D01*
X139619500Y-80102351D01*
X139651522Y-80304534D01*
X139714781Y-80499223D01*
X139807715Y-80681613D01*
X139928028Y-80847213D01*
X140072786Y-80991971D01*
X140227749Y-81104556D01*
X140238390Y-81112287D01*
X140319646Y-81153689D01*
X140420776Y-81205218D01*
X140420778Y-81205218D01*
X140420781Y-81205220D01*
X140493590Y-81228877D01*
X140615465Y-81268477D01*
X140706616Y-81282914D01*
X140817648Y-81300500D01*
X140817649Y-81300500D01*
X141022351Y-81300500D01*
X141022352Y-81300500D01*
X141224534Y-81268477D01*
X141419219Y-81205220D01*
X141601610Y-81112287D01*
X141728975Y-81019752D01*
X141767213Y-80991971D01*
X141767215Y-80991968D01*
X141767219Y-80991966D01*
X141911966Y-80847219D01*
X141911968Y-80847215D01*
X141911971Y-80847213D01*
X142032284Y-80681614D01*
X142032285Y-80681613D01*
X142032287Y-80681610D01*
X142079516Y-80588917D01*
X142127489Y-80538123D01*
X142195310Y-80521328D01*
X142261445Y-80543865D01*
X142300485Y-80588919D01*
X142347715Y-80681614D01*
X142468028Y-80847213D01*
X142612786Y-80991971D01*
X142767749Y-81104556D01*
X142778390Y-81112287D01*
X142859646Y-81153689D01*
X142960776Y-81205218D01*
X142960778Y-81205218D01*
X142960781Y-81205220D01*
X143033590Y-81228877D01*
X143155465Y-81268477D01*
X143246616Y-81282914D01*
X143357648Y-81300500D01*
X143357649Y-81300500D01*
X143562351Y-81300500D01*
X143562352Y-81300500D01*
X143764534Y-81268477D01*
X143959219Y-81205220D01*
X144141610Y-81112287D01*
X144268975Y-81019752D01*
X144307213Y-80991971D01*
X144307215Y-80991968D01*
X144307219Y-80991966D01*
X144451966Y-80847219D01*
X144451968Y-80847215D01*
X144451971Y-80847213D01*
X144572284Y-80681614D01*
X144572285Y-80681613D01*
X144572287Y-80681610D01*
X144619516Y-80588917D01*
X144667489Y-80538123D01*
X144735310Y-80521328D01*
X144801445Y-80543865D01*
X144840485Y-80588919D01*
X144887715Y-80681614D01*
X145008028Y-80847213D01*
X145152786Y-80991971D01*
X145307749Y-81104556D01*
X145318390Y-81112287D01*
X145399646Y-81153689D01*
X145500776Y-81205218D01*
X145500778Y-81205218D01*
X145500781Y-81205220D01*
X145573590Y-81228877D01*
X145695465Y-81268477D01*
X145786616Y-81282914D01*
X145897648Y-81300500D01*
X145897649Y-81300500D01*
X146102351Y-81300500D01*
X146102352Y-81300500D01*
X146304534Y-81268477D01*
X146499219Y-81205220D01*
X146681610Y-81112287D01*
X146808975Y-81019752D01*
X146847213Y-80991971D01*
X146847215Y-80991968D01*
X146847219Y-80991966D01*
X146991966Y-80847219D01*
X146991968Y-80847215D01*
X146991971Y-80847213D01*
X147112284Y-80681614D01*
X147112285Y-80681613D01*
X147112287Y-80681610D01*
X147159516Y-80588917D01*
X147207489Y-80538123D01*
X147275310Y-80521328D01*
X147341445Y-80543865D01*
X147380485Y-80588919D01*
X147427715Y-80681614D01*
X147548028Y-80847213D01*
X147692786Y-80991971D01*
X147847749Y-81104556D01*
X147858390Y-81112287D01*
X147939646Y-81153689D01*
X148040776Y-81205218D01*
X148040778Y-81205218D01*
X148040781Y-81205220D01*
X148113590Y-81228877D01*
X148235465Y-81268477D01*
X148326616Y-81282914D01*
X148437648Y-81300500D01*
X148437649Y-81300500D01*
X148642351Y-81300500D01*
X148642352Y-81300500D01*
X148844534Y-81268477D01*
X149039219Y-81205220D01*
X149221610Y-81112287D01*
X149284455Y-81066628D01*
X149350261Y-81043148D01*
X149418315Y-81058973D01*
X149467010Y-81109079D01*
X149480629Y-81153689D01*
X149486401Y-81207373D01*
X149486403Y-81207379D01*
X149536645Y-81342086D01*
X149536649Y-81342093D01*
X149622809Y-81457187D01*
X149622812Y-81457190D01*
X149737906Y-81543350D01*
X149737913Y-81543354D01*
X149872620Y-81593596D01*
X149872627Y-81593598D01*
X149932155Y-81599999D01*
X149932172Y-81600000D01*
X150830000Y-81600000D01*
X150830000Y-80490747D01*
X150867708Y-80512518D01*
X151007591Y-80550000D01*
X151152409Y-80550000D01*
X151292292Y-80512518D01*
X151330000Y-80490747D01*
X151330000Y-81600000D01*
X152227828Y-81600000D01*
X152227844Y-81599999D01*
X152287372Y-81593598D01*
X152287379Y-81593596D01*
X152422086Y-81543354D01*
X152422093Y-81543350D01*
X152537187Y-81457190D01*
X152537190Y-81457187D01*
X152623350Y-81342093D01*
X152623354Y-81342086D01*
X152673596Y-81207379D01*
X152673598Y-81207373D01*
X152678461Y-81162147D01*
X152678461Y-81162145D01*
X152679999Y-81147830D01*
X152680000Y-81147827D01*
X152680000Y-80250000D01*
X151570748Y-80250000D01*
X151592518Y-80212292D01*
X151630000Y-80072409D01*
X151630000Y-79927591D01*
X151617770Y-79881947D01*
X153920000Y-79881947D01*
X153920000Y-80118052D01*
X153956934Y-80351247D01*
X154029897Y-80575802D01*
X154137087Y-80786174D01*
X154197338Y-80869104D01*
X154197340Y-80869105D01*
X154855387Y-80211058D01*
X154860889Y-80231591D01*
X154939881Y-80368408D01*
X155051592Y-80480119D01*
X155188409Y-80559111D01*
X155208940Y-80564612D01*
X154550893Y-81222658D01*
X154633828Y-81282914D01*
X154844197Y-81390102D01*
X155068752Y-81463065D01*
X155068751Y-81463065D01*
X155301948Y-81500000D01*
X155538052Y-81500000D01*
X155771247Y-81463065D01*
X155995802Y-81390102D01*
X156206163Y-81282918D01*
X156206169Y-81282914D01*
X156289104Y-81222658D01*
X156289105Y-81222658D01*
X155631058Y-80564612D01*
X155651591Y-80559111D01*
X155788408Y-80480119D01*
X155900119Y-80368408D01*
X155979111Y-80231591D01*
X155984612Y-80211059D01*
X156642658Y-80869105D01*
X156642658Y-80869104D01*
X156702914Y-80786169D01*
X156702918Y-80786163D01*
X156753005Y-80687863D01*
X156800979Y-80637067D01*
X156868800Y-80620272D01*
X156934935Y-80642809D01*
X156963807Y-80671271D01*
X157044310Y-80782073D01*
X157177927Y-80915690D01*
X157330801Y-81026760D01*
X157491795Y-81108790D01*
X157542591Y-81156764D01*
X157559500Y-81219275D01*
X157559500Y-88512726D01*
X157586793Y-88614589D01*
X157613156Y-88660250D01*
X157639520Y-88705913D01*
X157639522Y-88705915D01*
X167976005Y-99042398D01*
X168008099Y-99097985D01*
X168033608Y-99193186D01*
X168099500Y-99307314D01*
X168192686Y-99400500D01*
X168250897Y-99434108D01*
X168306810Y-99466390D01*
X168306814Y-99466392D01*
X168434108Y-99500500D01*
X168434110Y-99500500D01*
X168565890Y-99500500D01*
X168565892Y-99500500D01*
X168693186Y-99466392D01*
X168807314Y-99400500D01*
X168900500Y-99307314D01*
X168966392Y-99193186D01*
X169000500Y-99065892D01*
X169000500Y-98934108D01*
X168966392Y-98806814D01*
X168900500Y-98692686D01*
X168807314Y-98599500D01*
X168693186Y-98533608D01*
X168597985Y-98508099D01*
X168542398Y-98476005D01*
X158396819Y-88330426D01*
X158363334Y-88269103D01*
X158360500Y-88242745D01*
X158360500Y-81219275D01*
X158380185Y-81152236D01*
X158428204Y-81108790D01*
X158589199Y-81026760D01*
X158742073Y-80915690D01*
X158875690Y-80782073D01*
X158986760Y-80629199D01*
X159065015Y-80475613D01*
X159112989Y-80424818D01*
X159180810Y-80408023D01*
X159246945Y-80430560D01*
X159290397Y-80485275D01*
X159299500Y-80531909D01*
X159299500Y-81019752D01*
X159311131Y-81078229D01*
X159311132Y-81078230D01*
X159355447Y-81144552D01*
X159421769Y-81188867D01*
X159421770Y-81188868D01*
X159480247Y-81200499D01*
X159480250Y-81200500D01*
X159480252Y-81200500D01*
X161519750Y-81200500D01*
X161519751Y-81200499D01*
X161534568Y-81197552D01*
X161578229Y-81188868D01*
X161578229Y-81188867D01*
X161578231Y-81188867D01*
X161644552Y-81144552D01*
X161652839Y-81132150D01*
X161669973Y-81106508D01*
X161677006Y-81095980D01*
X161688867Y-81078231D01*
X161688867Y-81078229D01*
X161688868Y-81078229D01*
X161700499Y-81019752D01*
X161700500Y-81019750D01*
X161700500Y-79881947D01*
X163500000Y-79881947D01*
X163500000Y-80118052D01*
X163536934Y-80351247D01*
X163609897Y-80575802D01*
X163717087Y-80786174D01*
X163777338Y-80869104D01*
X163777340Y-80869105D01*
X164435387Y-80211058D01*
X164440889Y-80231591D01*
X164519881Y-80368408D01*
X164631592Y-80480119D01*
X164768409Y-80559111D01*
X164788940Y-80564612D01*
X164130893Y-81222658D01*
X164213828Y-81282914D01*
X164424197Y-81390102D01*
X164648752Y-81463065D01*
X164648751Y-81463065D01*
X164881948Y-81500000D01*
X165118052Y-81500000D01*
X165351247Y-81463065D01*
X165575802Y-81390102D01*
X165786163Y-81282918D01*
X165786169Y-81282914D01*
X165869104Y-81222658D01*
X165869105Y-81222658D01*
X165211058Y-80564612D01*
X165231591Y-80559111D01*
X165368408Y-80480119D01*
X165480119Y-80368408D01*
X165559111Y-80231591D01*
X165564612Y-80211059D01*
X166222658Y-80869105D01*
X166222658Y-80869104D01*
X166282914Y-80786169D01*
X166282918Y-80786163D01*
X166333005Y-80687863D01*
X166380979Y-80637067D01*
X166448800Y-80620272D01*
X166514935Y-80642809D01*
X166543807Y-80671271D01*
X166624310Y-80782073D01*
X166757927Y-80915690D01*
X166910801Y-81026760D01*
X167071795Y-81108790D01*
X167122591Y-81156764D01*
X167139500Y-81219275D01*
X167139500Y-84987273D01*
X167139500Y-85092727D01*
X167153146Y-85143657D01*
X167166793Y-85194589D01*
X167187861Y-85231078D01*
X167219520Y-85285913D01*
X167219522Y-85285915D01*
X170063181Y-88129574D01*
X170096666Y-88190897D01*
X170099500Y-88217255D01*
X170099500Y-97159460D01*
X170082887Y-97221460D01*
X170033609Y-97306810D01*
X170033609Y-97306811D01*
X169999500Y-97434108D01*
X169999500Y-97565891D01*
X170033608Y-97693187D01*
X170053021Y-97726810D01*
X170099500Y-97807314D01*
X170192686Y-97900500D01*
X170306814Y-97966392D01*
X170434108Y-98000500D01*
X170434110Y-98000500D01*
X170565890Y-98000500D01*
X170565892Y-98000500D01*
X170693186Y-97966392D01*
X170807314Y-97900500D01*
X170900500Y-97807314D01*
X170966392Y-97693186D01*
X171000500Y-97565892D01*
X171000500Y-97434108D01*
X170966392Y-97306814D01*
X170926891Y-97238397D01*
X170917113Y-97221460D01*
X170900500Y-97159460D01*
X170900500Y-87947275D01*
X170900500Y-87947273D01*
X172599500Y-87947273D01*
X172599500Y-95787273D01*
X172599500Y-95892727D01*
X172608438Y-95926086D01*
X172626793Y-95994589D01*
X172653156Y-96040250D01*
X172679520Y-96085913D01*
X172679521Y-96085914D01*
X172679522Y-96085915D01*
X173643181Y-97049573D01*
X173676666Y-97110896D01*
X173679500Y-97137254D01*
X173679500Y-97579460D01*
X173662887Y-97641460D01*
X173613609Y-97726810D01*
X173613609Y-97726811D01*
X173613608Y-97726813D01*
X173613608Y-97726814D01*
X173583874Y-97837785D01*
X173579500Y-97854108D01*
X173579500Y-97985891D01*
X173613608Y-98113187D01*
X173625673Y-98134084D01*
X173679500Y-98227314D01*
X173772686Y-98320500D01*
X173886814Y-98386392D01*
X174014108Y-98420500D01*
X174014110Y-98420500D01*
X174145890Y-98420500D01*
X174145892Y-98420500D01*
X174273186Y-98386392D01*
X174387314Y-98320500D01*
X174480500Y-98227314D01*
X174546392Y-98113186D01*
X174580500Y-97985892D01*
X174580500Y-97854108D01*
X174546392Y-97726814D01*
X174526977Y-97693187D01*
X174497113Y-97641460D01*
X174480500Y-97579460D01*
X174480500Y-96982729D01*
X174480501Y-96982716D01*
X174480501Y-96867274D01*
X174453206Y-96765411D01*
X174453205Y-96765410D01*
X174442734Y-96747273D01*
X174400480Y-96674087D01*
X174325913Y-96599520D01*
X174325912Y-96599519D01*
X174321582Y-96595189D01*
X174321571Y-96595179D01*
X173436819Y-95710426D01*
X173403334Y-95649103D01*
X173400500Y-95622745D01*
X173400500Y-88217253D01*
X173420185Y-88150214D01*
X173436814Y-88129577D01*
X177285910Y-84280481D01*
X177285913Y-84280480D01*
X177360480Y-84205913D01*
X177386843Y-84160250D01*
X177413207Y-84114588D01*
X177440500Y-84012727D01*
X177440500Y-83907273D01*
X177440500Y-81219275D01*
X177460185Y-81152236D01*
X177508204Y-81108790D01*
X177669199Y-81026760D01*
X177822073Y-80915690D01*
X177955690Y-80782073D01*
X178066760Y-80629199D01*
X178145015Y-80475613D01*
X178192989Y-80424818D01*
X178260810Y-80408023D01*
X178326945Y-80430560D01*
X178370397Y-80485275D01*
X178379500Y-80531909D01*
X178379500Y-81019752D01*
X178391131Y-81078229D01*
X178391132Y-81078230D01*
X178435447Y-81144552D01*
X178501769Y-81188867D01*
X178501770Y-81188868D01*
X178560247Y-81200499D01*
X178560250Y-81200500D01*
X178560252Y-81200500D01*
X178792324Y-81200500D01*
X178859363Y-81220185D01*
X178905118Y-81272989D01*
X178915062Y-81342147D01*
X178886037Y-81405703D01*
X178880005Y-81412181D01*
X178599502Y-81692683D01*
X178599500Y-81692686D01*
X178533608Y-81806812D01*
X178499500Y-81934108D01*
X178499500Y-89741324D01*
X178479815Y-89808363D01*
X178463181Y-89829005D01*
X176599502Y-91692683D01*
X176599500Y-91692686D01*
X176533608Y-91806812D01*
X176499500Y-91934108D01*
X176499500Y-96065891D01*
X176533608Y-96193187D01*
X176566554Y-96250250D01*
X176599500Y-96307314D01*
X176599501Y-96307315D01*
X176599502Y-96307316D01*
X180595159Y-100302972D01*
X180595169Y-100302983D01*
X180599499Y-100307313D01*
X180599500Y-100307314D01*
X180692686Y-100400500D01*
X180806814Y-100466392D01*
X180934107Y-100500500D01*
X180934108Y-100500500D01*
X180934109Y-100500500D01*
X181065890Y-100500500D01*
X181065892Y-100500500D01*
X181193186Y-100466392D01*
X181307314Y-100400500D01*
X181400500Y-100307314D01*
X181466392Y-100193186D01*
X181500500Y-100065892D01*
X181500500Y-99934108D01*
X181476734Y-99845413D01*
X181466392Y-99806814D01*
X181435950Y-99754087D01*
X181400500Y-99692686D01*
X181307314Y-99599500D01*
X181307313Y-99599499D01*
X181302983Y-99595169D01*
X181302972Y-99595159D01*
X177536819Y-95829005D01*
X177522115Y-95802077D01*
X177505523Y-95776259D01*
X177504631Y-95770058D01*
X177503334Y-95767682D01*
X177500500Y-95741324D01*
X177500500Y-95580247D01*
X182199500Y-95580247D01*
X182199500Y-98019752D01*
X182211131Y-98078229D01*
X182211132Y-98078230D01*
X182255447Y-98144552D01*
X182321769Y-98188867D01*
X182321770Y-98188868D01*
X182380247Y-98200499D01*
X182380250Y-98200500D01*
X182380252Y-98200500D01*
X184019750Y-98200500D01*
X184019751Y-98200499D01*
X184034568Y-98197552D01*
X184078229Y-98188868D01*
X184078229Y-98188867D01*
X184078231Y-98188867D01*
X184144552Y-98144552D01*
X184188867Y-98078231D01*
X184188867Y-98078229D01*
X184188868Y-98078229D01*
X184200499Y-98019752D01*
X184200500Y-98019750D01*
X184200500Y-97324500D01*
X184220185Y-97257461D01*
X184272989Y-97211706D01*
X184324500Y-97200500D01*
X184618234Y-97200500D01*
X184685273Y-97220185D01*
X184731028Y-97272989D01*
X184739851Y-97300308D01*
X184777947Y-97491829D01*
X184777950Y-97491839D01*
X184853364Y-97673907D01*
X184853371Y-97673920D01*
X184962860Y-97837781D01*
X184962863Y-97837785D01*
X185102214Y-97977136D01*
X185102218Y-97977139D01*
X185266079Y-98086628D01*
X185266092Y-98086635D01*
X185405918Y-98144552D01*
X185448165Y-98162051D01*
X185448169Y-98162051D01*
X185448170Y-98162052D01*
X185641456Y-98200500D01*
X185641459Y-98200500D01*
X185838543Y-98200500D01*
X185968582Y-98174632D01*
X186031835Y-98162051D01*
X186213914Y-98086632D01*
X186377782Y-97977139D01*
X186517139Y-97837782D01*
X186626632Y-97673914D01*
X186702051Y-97491835D01*
X186713534Y-97434108D01*
X186740149Y-97300308D01*
X186772534Y-97238397D01*
X186833250Y-97203823D01*
X186861766Y-97200500D01*
X187158234Y-97200500D01*
X187225273Y-97220185D01*
X187271028Y-97272989D01*
X187279851Y-97300308D01*
X187317947Y-97491829D01*
X187317950Y-97491839D01*
X187393364Y-97673907D01*
X187393371Y-97673920D01*
X187502860Y-97837781D01*
X187502863Y-97837785D01*
X187642214Y-97977136D01*
X187642218Y-97977139D01*
X187806079Y-98086628D01*
X187806092Y-98086635D01*
X187945918Y-98144552D01*
X187988165Y-98162051D01*
X187988169Y-98162051D01*
X187988170Y-98162052D01*
X188181456Y-98200500D01*
X188181459Y-98200500D01*
X188378543Y-98200500D01*
X188508582Y-98174632D01*
X188571835Y-98162051D01*
X188753914Y-98086632D01*
X188917782Y-97977139D01*
X189057139Y-97837782D01*
X189166632Y-97673914D01*
X189242051Y-97491835D01*
X189253534Y-97434108D01*
X189280149Y-97300308D01*
X189312534Y-97238397D01*
X189373250Y-97203823D01*
X189401766Y-97200500D01*
X189698234Y-97200500D01*
X189765273Y-97220185D01*
X189811028Y-97272989D01*
X189819851Y-97300308D01*
X189857947Y-97491829D01*
X189857950Y-97491839D01*
X189933364Y-97673907D01*
X189933371Y-97673920D01*
X190042860Y-97837781D01*
X190042863Y-97837785D01*
X190182214Y-97977136D01*
X190182218Y-97977139D01*
X190346079Y-98086628D01*
X190346092Y-98086635D01*
X190485918Y-98144552D01*
X190528165Y-98162051D01*
X190528169Y-98162051D01*
X190528170Y-98162052D01*
X190721456Y-98200500D01*
X190721459Y-98200500D01*
X190918543Y-98200500D01*
X191048582Y-98174632D01*
X191111835Y-98162051D01*
X191293914Y-98086632D01*
X191457782Y-97977139D01*
X191597139Y-97837782D01*
X191706632Y-97673914D01*
X191782051Y-97491835D01*
X191794632Y-97428582D01*
X191820500Y-97298543D01*
X191820500Y-96301456D01*
X191782052Y-96108170D01*
X191782051Y-96108169D01*
X191782051Y-96108165D01*
X191735007Y-95994589D01*
X191706635Y-95926092D01*
X191706628Y-95926079D01*
X191597139Y-95762218D01*
X191597136Y-95762214D01*
X191457785Y-95622863D01*
X191457781Y-95622860D01*
X191293920Y-95513371D01*
X191293907Y-95513364D01*
X191111839Y-95437950D01*
X191111829Y-95437947D01*
X190918543Y-95399500D01*
X190918541Y-95399500D01*
X190721459Y-95399500D01*
X190721457Y-95399500D01*
X190528170Y-95437947D01*
X190528160Y-95437950D01*
X190346092Y-95513364D01*
X190346079Y-95513371D01*
X190182218Y-95622860D01*
X190182214Y-95622863D01*
X190042863Y-95762214D01*
X190042860Y-95762218D01*
X189933371Y-95926079D01*
X189933364Y-95926092D01*
X189857950Y-96108160D01*
X189857947Y-96108170D01*
X189819851Y-96299692D01*
X189787466Y-96361603D01*
X189726750Y-96396177D01*
X189698234Y-96399500D01*
X189401766Y-96399500D01*
X189334727Y-96379815D01*
X189288972Y-96327011D01*
X189280149Y-96299692D01*
X189242052Y-96108170D01*
X189242051Y-96108169D01*
X189242051Y-96108165D01*
X189195007Y-95994589D01*
X189166635Y-95926092D01*
X189166628Y-95926079D01*
X189057139Y-95762218D01*
X189057136Y-95762214D01*
X188917785Y-95622863D01*
X188917781Y-95622860D01*
X188753920Y-95513371D01*
X188753907Y-95513364D01*
X188571839Y-95437950D01*
X188571829Y-95437947D01*
X188378543Y-95399500D01*
X188378541Y-95399500D01*
X188181459Y-95399500D01*
X188181457Y-95399500D01*
X187988170Y-95437947D01*
X187988160Y-95437950D01*
X187806092Y-95513364D01*
X187806079Y-95513371D01*
X187642218Y-95622860D01*
X187642214Y-95622863D01*
X187502863Y-95762214D01*
X187502860Y-95762218D01*
X187393371Y-95926079D01*
X187393364Y-95926092D01*
X187317950Y-96108160D01*
X187317947Y-96108170D01*
X187279851Y-96299692D01*
X187247466Y-96361603D01*
X187186750Y-96396177D01*
X187158234Y-96399500D01*
X186861766Y-96399500D01*
X186794727Y-96379815D01*
X186748972Y-96327011D01*
X186740149Y-96299692D01*
X186702052Y-96108170D01*
X186702051Y-96108169D01*
X186702051Y-96108165D01*
X186655007Y-95994589D01*
X186626635Y-95926092D01*
X186626628Y-95926079D01*
X186517139Y-95762218D01*
X186517136Y-95762214D01*
X186377785Y-95622863D01*
X186377781Y-95622860D01*
X186213920Y-95513371D01*
X186213907Y-95513364D01*
X186031839Y-95437950D01*
X186031829Y-95437947D01*
X185838543Y-95399500D01*
X185838541Y-95399500D01*
X185641459Y-95399500D01*
X185641457Y-95399500D01*
X185448170Y-95437947D01*
X185448160Y-95437950D01*
X185266092Y-95513364D01*
X185266079Y-95513371D01*
X185102218Y-95622860D01*
X185102214Y-95622863D01*
X184962863Y-95762214D01*
X184962860Y-95762218D01*
X184853371Y-95926079D01*
X184853364Y-95926092D01*
X184777950Y-96108160D01*
X184777947Y-96108170D01*
X184739851Y-96299692D01*
X184707466Y-96361603D01*
X184646750Y-96396177D01*
X184618234Y-96399500D01*
X184324500Y-96399500D01*
X184257461Y-96379815D01*
X184211706Y-96327011D01*
X184200500Y-96275500D01*
X184200500Y-95580249D01*
X184200499Y-95580247D01*
X184188868Y-95521770D01*
X184188867Y-95521769D01*
X184144552Y-95455447D01*
X184078230Y-95411132D01*
X184078229Y-95411131D01*
X184019752Y-95399500D01*
X184019748Y-95399500D01*
X182380252Y-95399500D01*
X182380247Y-95399500D01*
X182321770Y-95411131D01*
X182321769Y-95411132D01*
X182255447Y-95455447D01*
X182211132Y-95521769D01*
X182211131Y-95521770D01*
X182199500Y-95580247D01*
X177500500Y-95580247D01*
X177500500Y-92258676D01*
X177520185Y-92191637D01*
X177536819Y-92170995D01*
X179170995Y-90536819D01*
X179232318Y-90503334D01*
X179258676Y-90500500D01*
X180065890Y-90500500D01*
X180065892Y-90500500D01*
X180193186Y-90466392D01*
X180307314Y-90400500D01*
X180990995Y-89716819D01*
X181052318Y-89683334D01*
X181078676Y-89680500D01*
X182098126Y-89680500D01*
X182165165Y-89700185D01*
X182210920Y-89752989D01*
X182219743Y-89780309D01*
X182237946Y-89871827D01*
X182237949Y-89871836D01*
X182313364Y-90053907D01*
X182313371Y-90053920D01*
X182422860Y-90217781D01*
X182422863Y-90217785D01*
X182562214Y-90357136D01*
X182562218Y-90357139D01*
X182726079Y-90466628D01*
X182726092Y-90466635D01*
X182908160Y-90542049D01*
X182908165Y-90542051D01*
X182908169Y-90542051D01*
X182908170Y-90542052D01*
X183101456Y-90580500D01*
X183101459Y-90580500D01*
X183298543Y-90580500D01*
X183428582Y-90554632D01*
X183491835Y-90542051D01*
X183673914Y-90466632D01*
X183837782Y-90357139D01*
X183977139Y-90217782D01*
X184086632Y-90053914D01*
X184162051Y-89871835D01*
X184185473Y-89754087D01*
X184200500Y-89678543D01*
X184739499Y-89678543D01*
X184777947Y-89871829D01*
X184777950Y-89871839D01*
X184853364Y-90053907D01*
X184853371Y-90053920D01*
X184962860Y-90217781D01*
X184962863Y-90217785D01*
X185102214Y-90357136D01*
X185102218Y-90357139D01*
X185266079Y-90466628D01*
X185266092Y-90466635D01*
X185448160Y-90542049D01*
X185448165Y-90542051D01*
X185448169Y-90542051D01*
X185448170Y-90542052D01*
X185641456Y-90580500D01*
X185641459Y-90580500D01*
X185838543Y-90580500D01*
X185968582Y-90554632D01*
X186031835Y-90542051D01*
X186213914Y-90466632D01*
X186377782Y-90357139D01*
X186517139Y-90217782D01*
X186626632Y-90053914D01*
X186702051Y-89871835D01*
X186725473Y-89754087D01*
X186740500Y-89678543D01*
X187279499Y-89678543D01*
X187317947Y-89871829D01*
X187317950Y-89871839D01*
X187393364Y-90053907D01*
X187393371Y-90053920D01*
X187502860Y-90217781D01*
X187502863Y-90217785D01*
X187642214Y-90357136D01*
X187642218Y-90357139D01*
X187806079Y-90466628D01*
X187806092Y-90466635D01*
X187988160Y-90542049D01*
X187988165Y-90542051D01*
X187988169Y-90542051D01*
X187988170Y-90542052D01*
X188181456Y-90580500D01*
X188181459Y-90580500D01*
X188378543Y-90580500D01*
X188508582Y-90554632D01*
X188571835Y-90542051D01*
X188753914Y-90466632D01*
X188917782Y-90357139D01*
X189057139Y-90217782D01*
X189166632Y-90053914D01*
X189242051Y-89871835D01*
X189278034Y-89690937D01*
X189310419Y-89629027D01*
X189371134Y-89594453D01*
X189440904Y-89598192D01*
X189497576Y-89639059D01*
X189522124Y-89695731D01*
X189552009Y-89884417D01*
X189615244Y-90079031D01*
X189708140Y-90261349D01*
X189828417Y-90426894D01*
X189828417Y-90426895D01*
X189973104Y-90571582D01*
X190138650Y-90691859D01*
X190320968Y-90784754D01*
X190515578Y-90847988D01*
X190570000Y-90856607D01*
X190570000Y-89495686D01*
X190574394Y-89500080D01*
X190665606Y-89552741D01*
X190767339Y-89580000D01*
X190872661Y-89580000D01*
X190974394Y-89552741D01*
X191065606Y-89500080D01*
X191070000Y-89495686D01*
X191070000Y-90856606D01*
X191124421Y-90847988D01*
X191319031Y-90784754D01*
X191501349Y-90691859D01*
X191666894Y-90571582D01*
X191666895Y-90571582D01*
X191811582Y-90426895D01*
X191811582Y-90426894D01*
X191931859Y-90261349D01*
X192024755Y-90079031D01*
X192087990Y-89884417D01*
X192120000Y-89682317D01*
X192120000Y-89430000D01*
X191135686Y-89430000D01*
X191140080Y-89425606D01*
X191192741Y-89334394D01*
X191220000Y-89232661D01*
X191220000Y-89127339D01*
X191192741Y-89025606D01*
X191140080Y-88934394D01*
X191135686Y-88930000D01*
X192120000Y-88930000D01*
X192120000Y-88677682D01*
X192087990Y-88475582D01*
X192024755Y-88280968D01*
X191931859Y-88098650D01*
X191811582Y-87933105D01*
X191811582Y-87933104D01*
X191666895Y-87788417D01*
X191501349Y-87668140D01*
X191319029Y-87575244D01*
X191124413Y-87512009D01*
X191070000Y-87503390D01*
X191070000Y-88864314D01*
X191065606Y-88859920D01*
X190974394Y-88807259D01*
X190872661Y-88780000D01*
X190767339Y-88780000D01*
X190665606Y-88807259D01*
X190574394Y-88859920D01*
X190570000Y-88864314D01*
X190570000Y-87503390D01*
X190515586Y-87512009D01*
X190320970Y-87575244D01*
X190138650Y-87668140D01*
X189973105Y-87788417D01*
X189973104Y-87788417D01*
X189828417Y-87933104D01*
X189828417Y-87933105D01*
X189708140Y-88098650D01*
X189615244Y-88280968D01*
X189552010Y-88475581D01*
X189522124Y-88664269D01*
X189492194Y-88727403D01*
X189432883Y-88764334D01*
X189363020Y-88763336D01*
X189304788Y-88724726D01*
X189278034Y-88669061D01*
X189267198Y-88614588D01*
X189242051Y-88488165D01*
X189236021Y-88473608D01*
X189166635Y-88306092D01*
X189166628Y-88306079D01*
X189057139Y-88142218D01*
X189057136Y-88142214D01*
X188917785Y-88002863D01*
X188917781Y-88002860D01*
X188753920Y-87893371D01*
X188753907Y-87893364D01*
X188571839Y-87817950D01*
X188571829Y-87817947D01*
X188378543Y-87779500D01*
X188378541Y-87779500D01*
X188181459Y-87779500D01*
X188181457Y-87779500D01*
X187988170Y-87817947D01*
X187988160Y-87817950D01*
X187806092Y-87893364D01*
X187806079Y-87893371D01*
X187642218Y-88002860D01*
X187642214Y-88002863D01*
X187502863Y-88142214D01*
X187502860Y-88142218D01*
X187393371Y-88306079D01*
X187393364Y-88306092D01*
X187317950Y-88488160D01*
X187317947Y-88488170D01*
X187279500Y-88681456D01*
X187279500Y-88681459D01*
X187279500Y-89678541D01*
X187279500Y-89678543D01*
X187279499Y-89678543D01*
X186740500Y-89678543D01*
X186740500Y-88681456D01*
X186702052Y-88488170D01*
X186702051Y-88488169D01*
X186702051Y-88488165D01*
X186696021Y-88473608D01*
X186626635Y-88306092D01*
X186626628Y-88306079D01*
X186517139Y-88142218D01*
X186517136Y-88142214D01*
X186377785Y-88002863D01*
X186377781Y-88002860D01*
X186213920Y-87893371D01*
X186213907Y-87893364D01*
X186031839Y-87817950D01*
X186031829Y-87817947D01*
X185838543Y-87779500D01*
X185838541Y-87779500D01*
X185641459Y-87779500D01*
X185641457Y-87779500D01*
X185448170Y-87817947D01*
X185448160Y-87817950D01*
X185266092Y-87893364D01*
X185266079Y-87893371D01*
X185102218Y-88002860D01*
X185102214Y-88002863D01*
X184962863Y-88142214D01*
X184962860Y-88142218D01*
X184853371Y-88306079D01*
X184853364Y-88306092D01*
X184777950Y-88488160D01*
X184777947Y-88488170D01*
X184739500Y-88681456D01*
X184739500Y-88681459D01*
X184739500Y-89678541D01*
X184739500Y-89678543D01*
X184739499Y-89678543D01*
X184200500Y-89678543D01*
X184200500Y-88681456D01*
X184162052Y-88488170D01*
X184162051Y-88488169D01*
X184162051Y-88488165D01*
X184156021Y-88473608D01*
X184086635Y-88306092D01*
X184086628Y-88306079D01*
X183977139Y-88142218D01*
X183977136Y-88142214D01*
X183837785Y-88002863D01*
X183837781Y-88002860D01*
X183673920Y-87893371D01*
X183673907Y-87893364D01*
X183491839Y-87817950D01*
X183491829Y-87817947D01*
X183298543Y-87779500D01*
X183298541Y-87779500D01*
X183101459Y-87779500D01*
X183101457Y-87779500D01*
X182908170Y-87817947D01*
X182908160Y-87817950D01*
X182726092Y-87893364D01*
X182726079Y-87893371D01*
X182562218Y-88002860D01*
X182562214Y-88002863D01*
X182422863Y-88142214D01*
X182422860Y-88142218D01*
X182313371Y-88306079D01*
X182313364Y-88306092D01*
X182237949Y-88488163D01*
X182237946Y-88488172D01*
X182219743Y-88579691D01*
X182187358Y-88641602D01*
X182126643Y-88676176D01*
X182098126Y-88679500D01*
X180754107Y-88679500D01*
X180626812Y-88713608D01*
X180512686Y-88779500D01*
X180512683Y-88779502D01*
X179829005Y-89463181D01*
X179802077Y-89477884D01*
X179776259Y-89494477D01*
X179770058Y-89495368D01*
X179767682Y-89496666D01*
X179741324Y-89499500D01*
X179624500Y-89499500D01*
X179557461Y-89479815D01*
X179511706Y-89427011D01*
X179500500Y-89375500D01*
X179500500Y-82258676D01*
X179520185Y-82191637D01*
X179536819Y-82170995D01*
X179719734Y-81988080D01*
X179980500Y-81727314D01*
X180046392Y-81613186D01*
X180080500Y-81485892D01*
X180080500Y-81354107D01*
X180080499Y-81354105D01*
X180079439Y-81346051D01*
X180081422Y-81345789D01*
X180082831Y-81286738D01*
X180121996Y-81228877D01*
X180186226Y-81201376D01*
X180200941Y-81200500D01*
X180599750Y-81200500D01*
X180599751Y-81200499D01*
X180614568Y-81197552D01*
X180658229Y-81188868D01*
X180658229Y-81188867D01*
X180658231Y-81188867D01*
X180724552Y-81144552D01*
X180732839Y-81132150D01*
X180749973Y-81106508D01*
X180757006Y-81095980D01*
X180768867Y-81078231D01*
X180768867Y-81078229D01*
X180768868Y-81078229D01*
X180780499Y-81019752D01*
X180780500Y-81019750D01*
X180780500Y-79881947D01*
X182500000Y-79881947D01*
X182500000Y-80118052D01*
X182536934Y-80351247D01*
X182609897Y-80575802D01*
X182717087Y-80786174D01*
X182777338Y-80869104D01*
X182777340Y-80869105D01*
X183435387Y-80211058D01*
X183440889Y-80231591D01*
X183519881Y-80368408D01*
X183631592Y-80480119D01*
X183768409Y-80559111D01*
X183788940Y-80564612D01*
X183130893Y-81222658D01*
X183213828Y-81282914D01*
X183424197Y-81390102D01*
X183648752Y-81463065D01*
X183648751Y-81463065D01*
X183881948Y-81500000D01*
X184118052Y-81500000D01*
X184351247Y-81463065D01*
X184575802Y-81390102D01*
X184786163Y-81282918D01*
X184786169Y-81282914D01*
X184869104Y-81222658D01*
X184869105Y-81222658D01*
X184211058Y-80564612D01*
X184231591Y-80559111D01*
X184368408Y-80480119D01*
X184480119Y-80368408D01*
X184559111Y-80231591D01*
X184564612Y-80211059D01*
X185222658Y-80869105D01*
X185222658Y-80869104D01*
X185282914Y-80786169D01*
X185282918Y-80786163D01*
X185333005Y-80687863D01*
X185380979Y-80637067D01*
X185448800Y-80620272D01*
X185514935Y-80642809D01*
X185543807Y-80671271D01*
X185624310Y-80782073D01*
X185757927Y-80915690D01*
X185910801Y-81026760D01*
X186071795Y-81108790D01*
X186122591Y-81156764D01*
X186139500Y-81219275D01*
X186139500Y-85101324D01*
X186119815Y-85168363D01*
X186103181Y-85189005D01*
X186099502Y-85192683D01*
X186099500Y-85192686D01*
X186033608Y-85306812D01*
X185999500Y-85434108D01*
X185999500Y-85565891D01*
X186033608Y-85693187D01*
X186055775Y-85731580D01*
X186099500Y-85807314D01*
X186192686Y-85900500D01*
X186306814Y-85966392D01*
X186434108Y-86000500D01*
X186434110Y-86000500D01*
X186565890Y-86000500D01*
X186565892Y-86000500D01*
X186693186Y-85966392D01*
X186807314Y-85900500D01*
X186900500Y-85807314D01*
X186966392Y-85693186D01*
X187000500Y-85565892D01*
X187000500Y-85434108D01*
X186966392Y-85306814D01*
X186957111Y-85290738D01*
X186940500Y-85228741D01*
X186940500Y-81219275D01*
X186960185Y-81152236D01*
X187008204Y-81108790D01*
X187169199Y-81026760D01*
X187322073Y-80915690D01*
X187455690Y-80782073D01*
X187566760Y-80629199D01*
X187645015Y-80475613D01*
X187692989Y-80424818D01*
X187760810Y-80408023D01*
X187826945Y-80430560D01*
X187870397Y-80485275D01*
X187879500Y-80531909D01*
X187879500Y-81019752D01*
X187891131Y-81078229D01*
X187891132Y-81078230D01*
X187935447Y-81144552D01*
X188001769Y-81188867D01*
X188001770Y-81188868D01*
X188060247Y-81200499D01*
X188060250Y-81200500D01*
X188060252Y-81200500D01*
X190099750Y-81200500D01*
X190099751Y-81200499D01*
X190114568Y-81197552D01*
X190158229Y-81188868D01*
X190158229Y-81188867D01*
X190158231Y-81188867D01*
X190224552Y-81144552D01*
X190268867Y-81078231D01*
X190268867Y-81078229D01*
X190268868Y-81078229D01*
X190280499Y-81019752D01*
X190280500Y-81019750D01*
X190280500Y-79825875D01*
X192899500Y-79825875D01*
X192899500Y-80174124D01*
X192938489Y-80520158D01*
X192938490Y-80520167D01*
X192938491Y-80520171D01*
X192954182Y-80588919D01*
X193015982Y-80859684D01*
X193015985Y-80859692D01*
X193130999Y-81188382D01*
X193282092Y-81502130D01*
X193467371Y-81796999D01*
X193467372Y-81797001D01*
X193684487Y-82069256D01*
X193930743Y-82315512D01*
X194202998Y-82532627D01*
X194203001Y-82532628D01*
X194203003Y-82532630D01*
X194497867Y-82717906D01*
X194811621Y-82869002D01*
X195058488Y-82955384D01*
X195140307Y-82984014D01*
X195140315Y-82984017D01*
X195140318Y-82984017D01*
X195140319Y-82984018D01*
X195479829Y-83061509D01*
X195825876Y-83100499D01*
X195825877Y-83100500D01*
X195825880Y-83100500D01*
X196174123Y-83100500D01*
X196174123Y-83100499D01*
X196520171Y-83061509D01*
X196859681Y-82984018D01*
X197188379Y-82869002D01*
X197502133Y-82717906D01*
X197796997Y-82532630D01*
X197797001Y-82532627D01*
X198069256Y-82315512D01*
X198069258Y-82315509D01*
X198069263Y-82315506D01*
X198315506Y-82069263D01*
X198532630Y-81796997D01*
X198717906Y-81502133D01*
X198869002Y-81188379D01*
X198984018Y-80859681D01*
X199061509Y-80520171D01*
X199100500Y-80174120D01*
X199100500Y-79825880D01*
X199061509Y-79479829D01*
X198984018Y-79140319D01*
X198869002Y-78811621D01*
X198717906Y-78497867D01*
X198532630Y-78203003D01*
X198532628Y-78203000D01*
X198532627Y-78202998D01*
X198315512Y-77930743D01*
X198069256Y-77684487D01*
X197797001Y-77467372D01*
X197796999Y-77467371D01*
X197502130Y-77282092D01*
X197188382Y-77130999D01*
X196859692Y-77015985D01*
X196859684Y-77015982D01*
X196599551Y-76956609D01*
X196520171Y-76938491D01*
X196520167Y-76938490D01*
X196520158Y-76938489D01*
X196174124Y-76899500D01*
X196174120Y-76899500D01*
X195825880Y-76899500D01*
X195825875Y-76899500D01*
X195479841Y-76938489D01*
X195479829Y-76938491D01*
X195140315Y-77015982D01*
X195140307Y-77015985D01*
X194811617Y-77130999D01*
X194497869Y-77282092D01*
X194203000Y-77467371D01*
X194202998Y-77467372D01*
X193930743Y-77684487D01*
X193684487Y-77930743D01*
X193467372Y-78202998D01*
X193467371Y-78203000D01*
X193282092Y-78497869D01*
X193130999Y-78811617D01*
X193015985Y-79140307D01*
X193015982Y-79140315D01*
X192938491Y-79479829D01*
X192938489Y-79479841D01*
X192899500Y-79825875D01*
X190280500Y-79825875D01*
X190280500Y-78980249D01*
X190280499Y-78980247D01*
X190268868Y-78921770D01*
X190268867Y-78921769D01*
X190224552Y-78855447D01*
X190158230Y-78811132D01*
X190158229Y-78811131D01*
X190099752Y-78799500D01*
X190099748Y-78799500D01*
X188060252Y-78799500D01*
X188060247Y-78799500D01*
X188001770Y-78811131D01*
X188001769Y-78811132D01*
X187935447Y-78855447D01*
X187891132Y-78921769D01*
X187891131Y-78921770D01*
X187879500Y-78980247D01*
X187879500Y-79468090D01*
X187859815Y-79535129D01*
X187807011Y-79580884D01*
X187737853Y-79590828D01*
X187674297Y-79561803D01*
X187645015Y-79524385D01*
X187607114Y-79450000D01*
X187566760Y-79370801D01*
X187455690Y-79217927D01*
X187322073Y-79084310D01*
X187169199Y-78973240D01*
X187000836Y-78887454D01*
X186821118Y-78829059D01*
X186634486Y-78799500D01*
X186634481Y-78799500D01*
X186445519Y-78799500D01*
X186445514Y-78799500D01*
X186258881Y-78829059D01*
X186079163Y-78887454D01*
X185910800Y-78973240D01*
X185862911Y-79008034D01*
X185757927Y-79084310D01*
X185757925Y-79084312D01*
X185757924Y-79084312D01*
X185624312Y-79217924D01*
X185624305Y-79217933D01*
X185543807Y-79328727D01*
X185488477Y-79371393D01*
X185418864Y-79377371D01*
X185357069Y-79344764D01*
X185333005Y-79312136D01*
X185282914Y-79213828D01*
X185222658Y-79130894D01*
X185222658Y-79130893D01*
X184564612Y-79788940D01*
X184559111Y-79768409D01*
X184480119Y-79631592D01*
X184368408Y-79519881D01*
X184231591Y-79440889D01*
X184211059Y-79435387D01*
X184869105Y-78777340D01*
X184869104Y-78777338D01*
X184786174Y-78717087D01*
X184575802Y-78609897D01*
X184351247Y-78536934D01*
X184351248Y-78536934D01*
X184118052Y-78500000D01*
X183881948Y-78500000D01*
X183648752Y-78536934D01*
X183424197Y-78609897D01*
X183213830Y-78717084D01*
X183130894Y-78777340D01*
X183788941Y-79435387D01*
X183768409Y-79440889D01*
X183631592Y-79519881D01*
X183519881Y-79631592D01*
X183440889Y-79768409D01*
X183435387Y-79788940D01*
X182777340Y-79130894D01*
X182717084Y-79213830D01*
X182609897Y-79424197D01*
X182536934Y-79648752D01*
X182500000Y-79881947D01*
X180780500Y-79881947D01*
X180780500Y-78980249D01*
X180780499Y-78980247D01*
X180768868Y-78921770D01*
X180768867Y-78921769D01*
X180749972Y-78893490D01*
X180749971Y-78893489D01*
X180724553Y-78855448D01*
X180658230Y-78811132D01*
X180658229Y-78811131D01*
X180599752Y-78799500D01*
X180599748Y-78799500D01*
X178560252Y-78799500D01*
X178560247Y-78799500D01*
X178501770Y-78811131D01*
X178501769Y-78811132D01*
X178435447Y-78855447D01*
X178391132Y-78921769D01*
X178391131Y-78921770D01*
X178379500Y-78980247D01*
X178379500Y-79468090D01*
X178359815Y-79535129D01*
X178307011Y-79580884D01*
X178237853Y-79590828D01*
X178174297Y-79561803D01*
X178145015Y-79524385D01*
X178107114Y-79450000D01*
X178066760Y-79370801D01*
X177955690Y-79217927D01*
X177822073Y-79084310D01*
X177669199Y-78973240D01*
X177500836Y-78887454D01*
X177321118Y-78829059D01*
X177134486Y-78799500D01*
X177134481Y-78799500D01*
X176945519Y-78799500D01*
X176945514Y-78799500D01*
X176758881Y-78829059D01*
X176579163Y-78887454D01*
X176410800Y-78973240D01*
X176362911Y-79008034D01*
X176257927Y-79084310D01*
X176257925Y-79084312D01*
X176257924Y-79084312D01*
X176124312Y-79217924D01*
X176124305Y-79217933D01*
X176043807Y-79328727D01*
X175988477Y-79371393D01*
X175918864Y-79377371D01*
X175857069Y-79344764D01*
X175833005Y-79312136D01*
X175782914Y-79213828D01*
X175722658Y-79130894D01*
X175722658Y-79130893D01*
X175064612Y-79788940D01*
X175059111Y-79768409D01*
X174980119Y-79631592D01*
X174868408Y-79519881D01*
X174731591Y-79440889D01*
X174711059Y-79435387D01*
X175369105Y-78777340D01*
X175369104Y-78777338D01*
X175286174Y-78717087D01*
X175075802Y-78609897D01*
X174851247Y-78536934D01*
X174851248Y-78536934D01*
X174618052Y-78500000D01*
X174381948Y-78500000D01*
X174148752Y-78536934D01*
X173924197Y-78609897D01*
X173713830Y-78717084D01*
X173630894Y-78777340D01*
X174288941Y-79435387D01*
X174268409Y-79440889D01*
X174131592Y-79519881D01*
X174019881Y-79631592D01*
X173940889Y-79768409D01*
X173935387Y-79788941D01*
X173277340Y-79130894D01*
X173217084Y-79213830D01*
X173109897Y-79424197D01*
X173036934Y-79648752D01*
X173000000Y-79881947D01*
X173000000Y-80118052D01*
X173036934Y-80351247D01*
X173109897Y-80575802D01*
X173217087Y-80786174D01*
X173277338Y-80869104D01*
X173277340Y-80869105D01*
X173935387Y-80211058D01*
X173940889Y-80231591D01*
X174019881Y-80368408D01*
X174131592Y-80480119D01*
X174268409Y-80559111D01*
X174288940Y-80564612D01*
X173630893Y-81222658D01*
X173713828Y-81282914D01*
X173924197Y-81390102D01*
X174148752Y-81463065D01*
X174148751Y-81463065D01*
X174381948Y-81500000D01*
X174618052Y-81500000D01*
X174851247Y-81463065D01*
X175075802Y-81390102D01*
X175286163Y-81282918D01*
X175286169Y-81282914D01*
X175369104Y-81222658D01*
X175369105Y-81222658D01*
X174711058Y-80564612D01*
X174731591Y-80559111D01*
X174868408Y-80480119D01*
X174980119Y-80368408D01*
X175059111Y-80231591D01*
X175064612Y-80211059D01*
X175722658Y-80869105D01*
X175722658Y-80869104D01*
X175782914Y-80786169D01*
X175782918Y-80786163D01*
X175833005Y-80687863D01*
X175880979Y-80637067D01*
X175948800Y-80620272D01*
X176014935Y-80642809D01*
X176043807Y-80671271D01*
X176124310Y-80782073D01*
X176257927Y-80915690D01*
X176410801Y-81026760D01*
X176571795Y-81108790D01*
X176622591Y-81156764D01*
X176639500Y-81219275D01*
X176639500Y-83742745D01*
X176619815Y-83809784D01*
X176603181Y-83830426D01*
X172679522Y-87754084D01*
X172679520Y-87754087D01*
X172626793Y-87845410D01*
X172603296Y-87933104D01*
X172599500Y-87947273D01*
X170900500Y-87947273D01*
X170873207Y-87845412D01*
X170820480Y-87754087D01*
X167976819Y-84910426D01*
X167943334Y-84849103D01*
X167940500Y-84822745D01*
X167940500Y-81219275D01*
X167960185Y-81152236D01*
X168008204Y-81108790D01*
X168169199Y-81026760D01*
X168322073Y-80915690D01*
X168455690Y-80782073D01*
X168566760Y-80629199D01*
X168645015Y-80475613D01*
X168692989Y-80424818D01*
X168760810Y-80408023D01*
X168826945Y-80430560D01*
X168870397Y-80485275D01*
X168879500Y-80531909D01*
X168879500Y-81019752D01*
X168891131Y-81078229D01*
X168891132Y-81078230D01*
X168935447Y-81144552D01*
X169001769Y-81188867D01*
X169001770Y-81188868D01*
X169060247Y-81200499D01*
X169060250Y-81200500D01*
X169060252Y-81200500D01*
X171099750Y-81200500D01*
X171099751Y-81200499D01*
X171114568Y-81197552D01*
X171158229Y-81188868D01*
X171158229Y-81188867D01*
X171158231Y-81188867D01*
X171224552Y-81144552D01*
X171232839Y-81132150D01*
X171249973Y-81106508D01*
X171257006Y-81095980D01*
X171268867Y-81078231D01*
X171268867Y-81078229D01*
X171268868Y-81078229D01*
X171280499Y-81019752D01*
X171280500Y-81019750D01*
X171280500Y-78980249D01*
X171280499Y-78980247D01*
X171268868Y-78921770D01*
X171268867Y-78921769D01*
X171249972Y-78893490D01*
X171249971Y-78893489D01*
X171224553Y-78855448D01*
X171158230Y-78811132D01*
X171158229Y-78811131D01*
X171099752Y-78799500D01*
X171099748Y-78799500D01*
X169060252Y-78799500D01*
X169060247Y-78799500D01*
X169001770Y-78811131D01*
X169001769Y-78811132D01*
X168935447Y-78855447D01*
X168891132Y-78921769D01*
X168891131Y-78921770D01*
X168879500Y-78980247D01*
X168879500Y-79468090D01*
X168859815Y-79535129D01*
X168807011Y-79580884D01*
X168737853Y-79590828D01*
X168674297Y-79561803D01*
X168645015Y-79524385D01*
X168607114Y-79450000D01*
X168566760Y-79370801D01*
X168455690Y-79217927D01*
X168322073Y-79084310D01*
X168169199Y-78973240D01*
X168000836Y-78887454D01*
X167821118Y-78829059D01*
X167634486Y-78799500D01*
X167634481Y-78799500D01*
X167445519Y-78799500D01*
X167445514Y-78799500D01*
X167258881Y-78829059D01*
X167079163Y-78887454D01*
X166910800Y-78973240D01*
X166862911Y-79008034D01*
X166757927Y-79084310D01*
X166757925Y-79084312D01*
X166757924Y-79084312D01*
X166624312Y-79217924D01*
X166624305Y-79217933D01*
X166543807Y-79328727D01*
X166488477Y-79371393D01*
X166418864Y-79377371D01*
X166357069Y-79344764D01*
X166333005Y-79312136D01*
X166282914Y-79213828D01*
X166222658Y-79130894D01*
X166222658Y-79130893D01*
X165564612Y-79788940D01*
X165559111Y-79768409D01*
X165480119Y-79631592D01*
X165368408Y-79519881D01*
X165231591Y-79440889D01*
X165211059Y-79435387D01*
X165869105Y-78777340D01*
X165869104Y-78777338D01*
X165786174Y-78717087D01*
X165575802Y-78609897D01*
X165351247Y-78536934D01*
X165351248Y-78536934D01*
X165118052Y-78500000D01*
X164881948Y-78500000D01*
X164648752Y-78536934D01*
X164424197Y-78609897D01*
X164213830Y-78717084D01*
X164130894Y-78777340D01*
X164788941Y-79435387D01*
X164768409Y-79440889D01*
X164631592Y-79519881D01*
X164519881Y-79631592D01*
X164440889Y-79768409D01*
X164435387Y-79788941D01*
X163777340Y-79130894D01*
X163717084Y-79213830D01*
X163609897Y-79424197D01*
X163536934Y-79648752D01*
X163500000Y-79881947D01*
X161700500Y-79881947D01*
X161700500Y-78980249D01*
X161700499Y-78980247D01*
X161688868Y-78921770D01*
X161688867Y-78921769D01*
X161669972Y-78893490D01*
X161669971Y-78893489D01*
X161644553Y-78855448D01*
X161578230Y-78811132D01*
X161578229Y-78811131D01*
X161519752Y-78799500D01*
X161519748Y-78799500D01*
X159480252Y-78799500D01*
X159480247Y-78799500D01*
X159421770Y-78811131D01*
X159421769Y-78811132D01*
X159355447Y-78855447D01*
X159311132Y-78921769D01*
X159311131Y-78921770D01*
X159299500Y-78980247D01*
X159299500Y-79468090D01*
X159279815Y-79535129D01*
X159227011Y-79580884D01*
X159157853Y-79590828D01*
X159094297Y-79561803D01*
X159065015Y-79524385D01*
X159027114Y-79450000D01*
X158986760Y-79370801D01*
X158875690Y-79217927D01*
X158742073Y-79084310D01*
X158589199Y-78973240D01*
X158420836Y-78887454D01*
X158241118Y-78829059D01*
X158054486Y-78799500D01*
X158054481Y-78799500D01*
X157865519Y-78799500D01*
X157865514Y-78799500D01*
X157678881Y-78829059D01*
X157499163Y-78887454D01*
X157330800Y-78973240D01*
X157282911Y-79008034D01*
X157177927Y-79084310D01*
X157177925Y-79084312D01*
X157177924Y-79084312D01*
X157044312Y-79217924D01*
X157044305Y-79217933D01*
X156963807Y-79328727D01*
X156908477Y-79371393D01*
X156838864Y-79377371D01*
X156777069Y-79344764D01*
X156753005Y-79312136D01*
X156702914Y-79213828D01*
X156642658Y-79130894D01*
X156642658Y-79130893D01*
X155984612Y-79788940D01*
X155979111Y-79768409D01*
X155900119Y-79631592D01*
X155788408Y-79519881D01*
X155651591Y-79440889D01*
X155631059Y-79435387D01*
X156289105Y-78777340D01*
X156289104Y-78777338D01*
X156206174Y-78717087D01*
X155995802Y-78609897D01*
X155771247Y-78536934D01*
X155771248Y-78536934D01*
X155538052Y-78500000D01*
X155301948Y-78500000D01*
X155068752Y-78536934D01*
X154844197Y-78609897D01*
X154633830Y-78717084D01*
X154550894Y-78777340D01*
X155208941Y-79435387D01*
X155188409Y-79440889D01*
X155051592Y-79519881D01*
X154939881Y-79631592D01*
X154860889Y-79768409D01*
X154855387Y-79788941D01*
X154197340Y-79130894D01*
X154137084Y-79213830D01*
X154029897Y-79424197D01*
X153956934Y-79648752D01*
X153920000Y-79881947D01*
X151617770Y-79881947D01*
X151592518Y-79787708D01*
X151570748Y-79750000D01*
X152680000Y-79750000D01*
X152680000Y-78852172D01*
X152679999Y-78852165D01*
X152678461Y-78837859D01*
X152678461Y-78837854D01*
X152673598Y-78792627D01*
X152673596Y-78792620D01*
X152623354Y-78657913D01*
X152623350Y-78657906D01*
X152537190Y-78542812D01*
X152537187Y-78542809D01*
X152422093Y-78456649D01*
X152422086Y-78456645D01*
X152287379Y-78406403D01*
X152287372Y-78406401D01*
X152227844Y-78400000D01*
X151330000Y-78400000D01*
X151330000Y-79509252D01*
X151292292Y-79487482D01*
X151152409Y-79450000D01*
X151007591Y-79450000D01*
X150867708Y-79487482D01*
X150830000Y-79509252D01*
X150830000Y-78400000D01*
X149932155Y-78400000D01*
X149872627Y-78406401D01*
X149872620Y-78406403D01*
X149737913Y-78456645D01*
X149737906Y-78456649D01*
X149622812Y-78542809D01*
X149622809Y-78542812D01*
X149536649Y-78657906D01*
X149536645Y-78657913D01*
X149486403Y-78792620D01*
X149486401Y-78792626D01*
X149480629Y-78846310D01*
X149453890Y-78910861D01*
X149396497Y-78950708D01*
X149326672Y-78953201D01*
X149284455Y-78933372D01*
X149221609Y-78887712D01*
X149039223Y-78794781D01*
X148844534Y-78731522D01*
X148669995Y-78703878D01*
X148642352Y-78699500D01*
X148437648Y-78699500D01*
X148413329Y-78703351D01*
X148235465Y-78731522D01*
X148040776Y-78794781D01*
X147858386Y-78887715D01*
X147692786Y-79008028D01*
X147548028Y-79152786D01*
X147427715Y-79318386D01*
X147380485Y-79411080D01*
X147332510Y-79461876D01*
X147264689Y-79478671D01*
X147198554Y-79456134D01*
X147159515Y-79411080D01*
X147139293Y-79371393D01*
X147112287Y-79318390D01*
X147104556Y-79307749D01*
X146991971Y-79152786D01*
X146847213Y-79008028D01*
X146681613Y-78887715D01*
X146681612Y-78887714D01*
X146681610Y-78887713D01*
X146624653Y-78858691D01*
X146499223Y-78794781D01*
X146304534Y-78731522D01*
X146129995Y-78703878D01*
X146102352Y-78699500D01*
X145897648Y-78699500D01*
X145873329Y-78703351D01*
X145695465Y-78731522D01*
X145500776Y-78794781D01*
X145318386Y-78887715D01*
X145152786Y-79008028D01*
X145008028Y-79152786D01*
X144887715Y-79318386D01*
X144840485Y-79411080D01*
X144792510Y-79461876D01*
X144724689Y-79478671D01*
X144658554Y-79456134D01*
X144619515Y-79411080D01*
X144599293Y-79371393D01*
X144572287Y-79318390D01*
X144564556Y-79307749D01*
X144451971Y-79152786D01*
X144307213Y-79008028D01*
X144141613Y-78887715D01*
X144141612Y-78887714D01*
X144141610Y-78887713D01*
X144084653Y-78858691D01*
X143959223Y-78794781D01*
X143764534Y-78731522D01*
X143589995Y-78703878D01*
X143562352Y-78699500D01*
X143357648Y-78699500D01*
X143333329Y-78703351D01*
X143155465Y-78731522D01*
X142960776Y-78794781D01*
X142778386Y-78887715D01*
X142612786Y-79008028D01*
X142468028Y-79152786D01*
X142347715Y-79318386D01*
X142300485Y-79411080D01*
X142252510Y-79461876D01*
X142184689Y-79478671D01*
X142118554Y-79456134D01*
X142079515Y-79411080D01*
X142059293Y-79371393D01*
X142032287Y-79318390D01*
X142024556Y-79307749D01*
X141911971Y-79152786D01*
X141767213Y-79008028D01*
X141601613Y-78887715D01*
X141601612Y-78887714D01*
X141601610Y-78887713D01*
X141544653Y-78858691D01*
X141419223Y-78794781D01*
X141224534Y-78731522D01*
X141049995Y-78703878D01*
X141022352Y-78699500D01*
X140817648Y-78699500D01*
X140793329Y-78703351D01*
X140615465Y-78731522D01*
X140420776Y-78794781D01*
X140238386Y-78887715D01*
X140072786Y-79008028D01*
X139928028Y-79152786D01*
X139807715Y-79318386D01*
X139714781Y-79500776D01*
X139651522Y-79695465D01*
X139619500Y-79897648D01*
X135100500Y-79897648D01*
X135100500Y-79825880D01*
X135061509Y-79479829D01*
X134984018Y-79140319D01*
X134869002Y-78811621D01*
X134717906Y-78497867D01*
X134532630Y-78203003D01*
X134532628Y-78203000D01*
X134532627Y-78202998D01*
X134315512Y-77930743D01*
X134069256Y-77684487D01*
X133797001Y-77467372D01*
X133796999Y-77467371D01*
X133502130Y-77282092D01*
X133188382Y-77130999D01*
X132859692Y-77015985D01*
X132859684Y-77015982D01*
X132599551Y-76956609D01*
X132520171Y-76938491D01*
X132520167Y-76938490D01*
X132520158Y-76938489D01*
X132174124Y-76899500D01*
X132174120Y-76899500D01*
X131825880Y-76899500D01*
X131825875Y-76899500D01*
X131479841Y-76938489D01*
X131479829Y-76938491D01*
X131140315Y-77015982D01*
X131140307Y-77015985D01*
X130811617Y-77130999D01*
X130497869Y-77282092D01*
X130203000Y-77467371D01*
X130202998Y-77467372D01*
X129930743Y-77684487D01*
X129684487Y-77930743D01*
X129467372Y-78202998D01*
X129467371Y-78203000D01*
X129282092Y-78497869D01*
X129130999Y-78811617D01*
X129015985Y-79140307D01*
X129015982Y-79140315D01*
X128938491Y-79479829D01*
X128938489Y-79479841D01*
X128899500Y-79825875D01*
X128509054Y-79825875D01*
X128509524Y-79816316D01*
X128509524Y-79816315D01*
X128517052Y-79663072D01*
X128518245Y-79650962D01*
X128528640Y-79580884D01*
X128566849Y-79323296D01*
X128569218Y-79311385D01*
X128649710Y-78990043D01*
X128653240Y-78978411D01*
X128669355Y-78933372D01*
X128764835Y-78666525D01*
X128769476Y-78655318D01*
X128911124Y-78355828D01*
X128916840Y-78345136D01*
X129087145Y-78060998D01*
X129093888Y-78050905D01*
X129291232Y-77784818D01*
X129298935Y-77775433D01*
X129521405Y-77529975D01*
X129529975Y-77521405D01*
X129775433Y-77298935D01*
X129784818Y-77291232D01*
X130050905Y-77093888D01*
X130060998Y-77087145D01*
X130345136Y-76916840D01*
X130355828Y-76911124D01*
X130655318Y-76769476D01*
X130666525Y-76764835D01*
X130978412Y-76653239D01*
X130990043Y-76649710D01*
X131311385Y-76569218D01*
X131323296Y-76566849D01*
X131650962Y-76518244D01*
X131663068Y-76517052D01*
X131996967Y-76500648D01*
X132003051Y-76500500D01*
X132065892Y-76500500D01*
X195934108Y-76500500D01*
X195996949Y-76500500D01*
X196003032Y-76500648D01*
G37*
%TD.AperFunction*%
%TD*%
M02*
