M48
; DRILL file {KiCad 9.0.4} date 2025-09-26T20:26:19+0700
; FORMAT={-:-/ absolute / metric / decimal}
; #@! TF.CreationDate,2025-09-26T20:26:19+07:00
; #@! TF.GenerationSoftware,Kicad,Pcbnew,9.0.4
; #@! TF.FileFunction,Plated,1,2,PTH
FMAT,2
METRIC
; #@! TA.AperFunction,Plated,PTH,ViaDrill
T1C0.300
; #@! TA.AperFunction,Plated,PTH,ComponentDrill
T2C0.800
; #@! TA.AperFunction,Plated,PTH,ComponentDrill
T3C1.000
; #@! TA.AperFunction,Plated,PTH,ComponentDrill
T4C1.100
; #@! TA.AperFunction,Plated,PTH,ComponentDrill
T5C1.200
%
G90
G05
T1
X134.0Y-84.0
X134.0Y-94.0
X135.0Y-92.0
X139.85Y-89.0
X148.25Y-86.75
X148.5Y-85.424
X151.0Y-99.0
X152.0Y-87.5
X152.5Y-92.0
X154.0Y-91.0
X159.0Y-99.0
X168.5Y-99.0
X170.5Y-97.5
X174.08Y-97.92
X175.5Y-99.5
X176.94Y-88.94
X181.0Y-100.0
X186.5Y-85.5
T2
X183.2Y-89.18
X183.2Y-96.8
X185.74Y-89.18
X185.74Y-96.8
X188.28Y-89.18
X188.28Y-96.8
X190.82Y-89.18
X190.82Y-96.8
T3
X142.42Y-92.0
X144.96Y-92.0
X147.5Y-92.0
X153.76Y-105.0
X156.3Y-105.0
X158.84Y-105.0
X161.38Y-105.0
X163.92Y-105.0
X166.46Y-105.0
X169.0Y-105.0
X171.54Y-105.0
X174.08Y-105.0
X176.62Y-105.0
T4
X140.92Y-80.0
X143.46Y-80.0
X146.0Y-80.0
X148.54Y-80.0
X151.08Y-80.0
T5
X155.42Y-80.0
X157.96Y-80.0
X160.5Y-80.0
X165.0Y-80.0
X167.54Y-80.0
X170.08Y-80.0
X174.5Y-80.0
X177.04Y-80.0
X179.58Y-80.0
X184.0Y-80.0
X186.54Y-80.0
X189.08Y-80.0
M30
