M48
; DRILL file {KiCad 9.0.6} date 2026-03-18T19:44:53+0700
; FORMAT={-:-/ absolute / metric / decimal}
; #@! TF.CreationDate,2026-03-18T19:44:53+07:00
; #@! TF.GenerationSoftware,Kicad,Pcbnew,9.0.6
; #@! TF.FileFunction,Plated,1,2,PTH
FMAT,2
METRIC
; #@! TA.AperFunction,Plated,PTH,ViaDrill
T1C0.300
; #@! TA.AperFunction,Plated,PTH,ComponentDrill
T2C0.800
; #@! TA.AperFunction,Plated,PTH,ComponentDrill
T3C0.840
; #@! TA.AperFunction,Plated,PTH,ComponentDrill
T4C0.990
; #@! TA.AperFunction,Plated,PTH,ComponentDrill
T5C1.000
; #@! TA.AperFunction,Plated,PTH,ComponentDrill
T6C1.090
; #@! TA.AperFunction,Plated,PTH,ComponentDrill
T7C1.400
%
G90
G05
T1
X108.4Y-77.9
X110.3Y-79.1
X114.3Y-78.0
X118.0Y-77.0
X122.3Y-88.5
X125.2Y-89.7
X125.9Y-91.1
X130.3Y-73.3
X133.9Y-84.9
X134.6Y-85.9
X135.5Y-86.8
X142.1Y-98.3
X142.3Y-85.6
X143.1Y-72.3
X144.4Y-78.2
X144.9Y-72.5
X144.9Y-77.3
X145.4Y-75.1
X145.4Y-76.3
X145.5Y-83.2
X145.6Y-99.4
X146.1Y-95.5
X146.8Y-89.1
X147.3Y-83.2
X147.7Y-91.3
X148.1Y-73.2
X149.8Y-67.9
X152.7Y-90.9
X154.6Y-69.8
X155.7Y-84.395
X156.8Y-86.935
X158.0Y-89.8
X158.1Y-92.0
X158.6Y-80.8
X159.593Y-85.007
X161.1Y-82.4
X167.6Y-83.9
T2
X115.1Y-71.1
X115.2Y-65.0
X117.1Y-71.1
X117.2Y-65.0
X119.1Y-71.1
X119.2Y-65.0
X121.1Y-71.1
X121.2Y-65.0
X129.1Y-71.125
X129.2Y-64.925
X131.1Y-71.125
X131.2Y-64.925
X133.1Y-71.125
X133.2Y-64.925
X135.1Y-71.125
X135.2Y-64.925
X151.9Y-65.2
X153.9Y-65.2
X155.9Y-65.2
T3
X148.47Y-79.38
X148.47Y-94.62
X151.01Y-79.38
X151.01Y-94.62
X153.55Y-79.38
X153.55Y-94.62
X156.09Y-79.38
X156.09Y-94.62
X158.63Y-79.38
X158.63Y-94.62
X161.17Y-79.38
X161.17Y-94.62
X163.71Y-79.38
X163.71Y-94.62
X166.25Y-79.38
X166.25Y-94.62
T4
X105.25Y-75.4
X105.25Y-81.9
X105.35Y-85.065
X105.35Y-91.565
X105.35Y-94.55
X105.35Y-101.05
X109.75Y-75.4
X109.75Y-81.9
X109.85Y-85.065
X109.85Y-91.565
X109.85Y-94.55
X109.85Y-101.05
T5
X124.29Y-76.4
X126.83Y-76.4
X129.37Y-76.4
X131.91Y-76.4
X148.4Y-99.287
X148.495Y-75.013
X150.94Y-99.287
X151.035Y-75.013
X153.48Y-99.287
X153.575Y-75.013
X156.02Y-99.287
X156.115Y-75.013
X158.56Y-99.287
X158.655Y-75.013
X161.1Y-99.287
X161.195Y-75.013
X163.64Y-99.287
X163.735Y-75.013
X166.18Y-99.287
X166.275Y-75.013
T6
X162.66Y-66.9
X165.2Y-66.9
T7
X149.75Y-65.2
X158.05Y-65.2
M30
