%TF.GenerationSoftware,KiCad,Pcbnew,9.0.6*%
%TF.CreationDate,2026-03-18T19:44:56+07:00*%
%TF.ProjectId,ESP32_C3Mini_V3,45535033-325f-4433-934d-696e695f5633,rev?*%
%TF.SameCoordinates,Original*%
%TF.FileFunction,Soldermask,Top*%
%TF.FilePolarity,Negative*%
%FSLAX46Y46*%
G04 Gerber Fmt 4.6, Leading zero omitted, Abs format (unit mm)*
G04 Created by KiCad (PCBNEW 9.0.6) date 2026-03-18 19:44:56*
%MOMM*%
%LPD*%
G01*
G04 APERTURE LIST*
G04 Aperture macros list*
%AMRoundRect*
0 Rectangle with rounded corners*
0 $1 Rounding radius*
0 $2 $3 $4 $5 $6 $7 $8 $9 X,Y pos of 4 corners*
0 Add a 4 corners polygon primitive as box body*
4,1,4,$2,$3,$4,$5,$6,$7,$8,$9,$2,$3,0*
0 Add four circle primitives for the rounded corners*
1,1,$1+$1,$2,$3*
1,1,$1+$1,$4,$5*
1,1,$1+$1,$6,$7*
1,1,$1+$1,$8,$9*
0 Add four rect primitives between the rounded corners*
20,1,$1+$1,$2,$3,$4,$5,0*
20,1,$1+$1,$4,$5,$6,$7,0*
20,1,$1+$1,$6,$7,$8,$9,0*
20,1,$1+$1,$8,$9,$2,$3,0*%
G04 Aperture macros list end*
%ADD10C,1.552000*%
%ADD11RoundRect,0.102000X-0.754000X-0.754000X0.754000X-0.754000X0.754000X0.754000X-0.754000X0.754000X0*%
%ADD12C,1.712000*%
%ADD13C,1.512000*%
%ADD14C,2.304000*%
%ADD15RoundRect,0.250000X-0.350000X-0.450000X0.350000X-0.450000X0.350000X0.450000X-0.350000X0.450000X0*%
%ADD16RoundRect,0.250000X0.350000X0.450000X-0.350000X0.450000X-0.350000X-0.450000X0.350000X-0.450000X0*%
%ADD17RoundRect,0.250000X-0.337500X-0.475000X0.337500X-0.475000X0.337500X0.475000X-0.337500X0.475000X0*%
%ADD18RoundRect,0.250000X0.337500X0.475000X-0.337500X0.475000X-0.337500X-0.475000X0.337500X-0.475000X0*%
%ADD19C,3.200000*%
%ADD20RoundRect,0.250000X-0.620000X-0.620000X0.620000X-0.620000X0.620000X0.620000X-0.620000X0.620000X0*%
%ADD21C,1.740000*%
%ADD22RoundRect,0.250000X0.350000X0.650000X-0.350000X0.650000X-0.350000X-0.650000X0.350000X-0.650000X0*%
%ADD23O,1.200000X1.800000*%
%ADD24R,2.000000X2.000000*%
%ADD25R,1.700000X1.700000*%
%ADD26C,1.700000*%
%ADD27RoundRect,0.250000X0.475000X-0.337500X0.475000X0.337500X-0.475000X0.337500X-0.475000X-0.337500X0*%
%ADD28RoundRect,0.060300X-0.716700X-0.341700X0.716700X-0.341700X0.716700X0.341700X-0.716700X0.341700X0*%
%ADD29RoundRect,0.090000X-0.660000X-0.360000X0.660000X-0.360000X0.660000X0.360000X-0.660000X0.360000X0*%
%ADD30RoundRect,0.102000X-0.749000X0.749000X-0.749000X-0.749000X0.749000X-0.749000X0.749000X0.749000X0*%
%ADD31C,1.702000*%
%ADD32RoundRect,0.250001X-0.499999X-0.999999X0.499999X-0.999999X0.499999X0.999999X-0.499999X0.999999X0*%
%ADD33RoundRect,0.099250X-0.807750X-0.297750X0.807750X-0.297750X0.807750X0.297750X-0.807750X0.297750X0*%
%ADD34RoundRect,0.102000X-1.105000X-1.550000X1.105000X-1.550000X1.105000X1.550000X-1.105000X1.550000X0*%
G04 APERTURE END LIST*
D10*
%TO.C,ESP32-C3 SUPER MINI*%
X148470000Y-94620000D03*
X151010000Y-94620000D03*
X153550000Y-94620000D03*
X156090000Y-94620000D03*
X161170000Y-94620000D03*
X158630000Y-94620000D03*
X166250000Y-79380000D03*
X166250000Y-94620000D03*
X163710000Y-79380000D03*
X161170000Y-79380000D03*
X158630000Y-79380000D03*
X156090000Y-79380000D03*
X153550000Y-79380000D03*
X151010000Y-79380000D03*
X148470000Y-79380000D03*
X163710000Y-94620000D03*
%TD*%
D11*
%TO.C,OLED 0.96"*%
X124290000Y-76400000D03*
D12*
X126830000Y-76400000D03*
X129370000Y-76400000D03*
X131910000Y-76400000D03*
%TD*%
D13*
%TO.C,U4*%
X155900000Y-65200000D03*
X151900000Y-65200000D03*
X153900000Y-65200000D03*
D14*
X158050000Y-65200000D03*
X149750000Y-65200000D03*
%TD*%
D15*
%TO.C,R3*%
X163900000Y-89000000D03*
X165900000Y-89000000D03*
%TD*%
D16*
%TO.C,R6*%
X113900000Y-93500000D03*
X111900000Y-93500000D03*
%TD*%
D17*
%TO.C,C5*%
X153662500Y-82000000D03*
X155737500Y-82000000D03*
%TD*%
D18*
%TO.C,C1*%
X165937500Y-91500000D03*
X163862500Y-91500000D03*
%TD*%
D19*
%TO.C,H3*%
X105400000Y-105700000D03*
%TD*%
D20*
%TO.C,J7*%
X162660000Y-66900000D03*
D21*
X165200000Y-66900000D03*
%TD*%
D22*
%TO.C,J4*%
X121200000Y-65000000D03*
D23*
X119200000Y-65000000D03*
X117200000Y-65000000D03*
X115200000Y-65000000D03*
%TD*%
D16*
%TO.C,R5*%
X114000000Y-88200000D03*
X112000000Y-88200000D03*
%TD*%
D17*
%TO.C,C4*%
X159362500Y-89000000D03*
X161437500Y-89000000D03*
%TD*%
D24*
%TO.C,BUZZER*%
X139700000Y-63700000D03*
X139700000Y-70700000D03*
X146700000Y-70700000D03*
X146700000Y-63700000D03*
%TD*%
D25*
%TO.C,J2*%
X166180000Y-99287500D03*
D26*
X163640000Y-99287500D03*
X161100000Y-99287500D03*
X158560000Y-99287500D03*
X156020000Y-99287500D03*
X153480000Y-99287500D03*
X150940000Y-99287500D03*
X148400000Y-99287500D03*
%TD*%
D17*
%TO.C,C7*%
X149162500Y-82000000D03*
X151237500Y-82000000D03*
%TD*%
D27*
%TO.C,C2*%
X154600000Y-92237500D03*
X154600000Y-90162500D03*
%TD*%
D28*
%TO.C,U5*%
X148882000Y-90350000D03*
X148882000Y-91300000D03*
X148882000Y-92250000D03*
X151252000Y-92250000D03*
X151252000Y-90350000D03*
%TD*%
D16*
%TO.C,R4*%
X113900000Y-83200000D03*
X111900000Y-83200000D03*
%TD*%
D29*
%TO.C,D1*%
X105150000Y-69150000D03*
X105150000Y-72450000D03*
X110050000Y-72450000D03*
X110050000Y-69150000D03*
%TD*%
D30*
%TO.C,SW1*%
X109750000Y-75400000D03*
D31*
X109750000Y-81900000D03*
X105250000Y-75400000D03*
X105250000Y-81900000D03*
%TD*%
D15*
%TO.C,R1*%
X163837500Y-83800000D03*
X165837500Y-83800000D03*
%TD*%
D27*
%TO.C,C6*%
X156900000Y-91075000D03*
X156900000Y-89000000D03*
%TD*%
D32*
%TO.C,L1*%
X157850000Y-84500000D03*
X161550000Y-84500000D03*
%TD*%
D30*
%TO.C,SW2*%
X109850000Y-85065000D03*
D31*
X109850000Y-91565000D03*
X105350000Y-85065000D03*
X105350000Y-91565000D03*
%TD*%
D22*
%TO.C,J3*%
X135200000Y-64925000D03*
D23*
X133200000Y-64925000D03*
X131200000Y-64925000D03*
X129200000Y-64925000D03*
%TD*%
D30*
%TO.C,SW3*%
X109850000Y-94550000D03*
D31*
X109850000Y-101050000D03*
X105350000Y-94550000D03*
X105350000Y-101050000D03*
%TD*%
D16*
%TO.C,R2*%
X165900000Y-86500000D03*
X163900000Y-86500000D03*
%TD*%
D25*
%TO.C,J1*%
X166275000Y-75012500D03*
D26*
X163735000Y-75012500D03*
X161195000Y-75012500D03*
X158655000Y-75012500D03*
X156115000Y-75012500D03*
X153575000Y-75012500D03*
X151035000Y-75012500D03*
X148495000Y-75012500D03*
%TD*%
D22*
%TO.C,J6*%
X121100000Y-71100000D03*
D23*
X119100000Y-71100000D03*
X117100000Y-71100000D03*
X115100000Y-71100000D03*
%TD*%
D19*
%TO.C,H4*%
X170700000Y-105500000D03*
%TD*%
%TO.C,H2*%
X170800000Y-61500000D03*
%TD*%
D22*
%TO.C,J5*%
X135100000Y-71125000D03*
D23*
X133100000Y-71125000D03*
X131100000Y-71125000D03*
X129100000Y-71125000D03*
%TD*%
D17*
%TO.C,C8*%
X106762500Y-66800000D03*
X108837500Y-66800000D03*
%TD*%
%TO.C,C3*%
X159362500Y-91500000D03*
X161437500Y-91500000D03*
%TD*%
D19*
%TO.C,H1*%
X105400000Y-61400000D03*
%TD*%
D33*
%TO.C,U3*%
X149007500Y-84395000D03*
X149007500Y-85665000D03*
X149007500Y-86935000D03*
X149007500Y-88205000D03*
X154317500Y-88205000D03*
X154317500Y-86935000D03*
X154317500Y-85665000D03*
X154317500Y-84395000D03*
D34*
X151662500Y-86300000D03*
%TD*%
M02*
