%TF.GenerationSoftware,KiCad,Pcbnew,9.0.6*%
%TF.CreationDate,2026-03-18T19:44:56+07:00*%
%TF.ProjectId,ESP32_C3Mini_V3,45535033-325f-4433-934d-696e695f5633,rev?*%
%TF.SameCoordinates,Original*%
%TF.FileFunction,Copper,L2,Bot*%
%TF.FilePolarity,Positive*%
%FSLAX46Y46*%
G04 Gerber Fmt 4.6, Leading zero omitted, Abs format (unit mm)*
G04 Created by KiCad (PCBNEW 9.0.6) date 2026-03-18 19:44:56*
%MOMM*%
%LPD*%
G01*
G04 APERTURE LIST*
G04 Aperture macros list*
%AMRoundRect*
0 Rectangle with rounded corners*
0 $1 Rounding radius*
0 $2 $3 $4 $5 $6 $7 $8 $9 X,Y pos of 4 corners*
0 Add a 4 corners polygon primitive as box body*
4,1,4,$2,$3,$4,$5,$6,$7,$8,$9,$2,$3,0*
0 Add four circle primitives for the rounded corners*
1,1,$1+$1,$2,$3*
1,1,$1+$1,$4,$5*
1,1,$1+$1,$6,$7*
1,1,$1+$1,$8,$9*
0 Add four rect primitives between the rounded corners*
20,1,$1+$1,$2,$3,$4,$5,0*
20,1,$1+$1,$4,$5,$6,$7,0*
20,1,$1+$1,$6,$7,$8,$9,0*
20,1,$1+$1,$8,$9,$2,$3,0*%
G04 Aperture macros list end*
%TA.AperFunction,ComponentPad*%
%ADD10C,1.348000*%
%TD*%
%TA.AperFunction,ComponentPad*%
%ADD11R,1.508000X1.508000*%
%TD*%
%TA.AperFunction,ComponentPad*%
%ADD12C,1.508000*%
%TD*%
%TA.AperFunction,ComponentPad*%
%ADD13C,1.308000*%
%TD*%
%TA.AperFunction,ComponentPad*%
%ADD14C,2.100000*%
%TD*%
%TA.AperFunction,ComponentPad*%
%ADD15RoundRect,0.250000X-0.620000X-0.620000X0.620000X-0.620000X0.620000X0.620000X-0.620000X0.620000X0*%
%TD*%
%TA.AperFunction,ComponentPad*%
%ADD16C,1.740000*%
%TD*%
%TA.AperFunction,ComponentPad*%
%ADD17RoundRect,0.250000X0.350000X0.650000X-0.350000X0.650000X-0.350000X-0.650000X0.350000X-0.650000X0*%
%TD*%
%TA.AperFunction,ComponentPad*%
%ADD18O,1.200000X1.800000*%
%TD*%
%TA.AperFunction,ComponentPad*%
%ADD19R,1.700000X1.700000*%
%TD*%
%TA.AperFunction,ComponentPad*%
%ADD20C,1.700000*%
%TD*%
%TA.AperFunction,ComponentPad*%
%ADD21R,1.498000X1.498000*%
%TD*%
%TA.AperFunction,ComponentPad*%
%ADD22C,1.498000*%
%TD*%
%TA.AperFunction,ViaPad*%
%ADD23C,0.600000*%
%TD*%
%TA.AperFunction,Conductor*%
%ADD24C,0.400000*%
%TD*%
%TA.AperFunction,Conductor*%
%ADD25C,0.200000*%
%TD*%
%TA.AperFunction,Conductor*%
%ADD26C,0.800000*%
%TD*%
%TA.AperFunction,Conductor*%
%ADD27C,0.300000*%
%TD*%
%TA.AperFunction,Conductor*%
%ADD28C,0.500000*%
%TD*%
G04 APERTURE END LIST*
D10*
%TO.P,ESP32-C3 SUPER MINI,0,GPIO0*%
%TO.N,IO0*%
X148470000Y-94620000D03*
%TO.P,ESP32-C3 SUPER MINI,1,GPIO1*%
%TO.N,IO1*%
X151010000Y-94620000D03*
%TO.P,ESP32-C3 SUPER MINI,2,GPIO2*%
%TO.N,IO2*%
X153550000Y-94620000D03*
%TO.P,ESP32-C3 SUPER MINI,3,GPIO3*%
%TO.N,IO3*%
X156090000Y-94620000D03*
%TO.P,ESP32-C3 SUPER MINI,3.3,3V3*%
%TO.N,VOUT*%
X161170000Y-94620000D03*
%TO.P,ESP32-C3 SUPER MINI,4,GPIO4*%
%TO.N,IO4*%
X158630000Y-94620000D03*
%TO.P,ESP32-C3 SUPER MINI,5,GPIO5*%
%TO.N,IO5*%
X166250000Y-79380000D03*
%TO.P,ESP32-C3 SUPER MINI,5V,5V*%
%TO.N,5V*%
X166250000Y-94620000D03*
%TO.P,ESP32-C3 SUPER MINI,6,GPIO6*%
%TO.N,IO6*%
X163710000Y-79380000D03*
%TO.P,ESP32-C3 SUPER MINI,7,GPIO7*%
%TO.N,IO7*%
X161170000Y-79380000D03*
%TO.P,ESP32-C3 SUPER MINI,8,GPIO8*%
%TO.N,IO8*%
X158630000Y-79380000D03*
%TO.P,ESP32-C3 SUPER MINI,9,GPIO9*%
%TO.N,I09*%
X156090000Y-79380000D03*
%TO.P,ESP32-C3 SUPER MINI,10,GPIO10*%
%TO.N,IO10*%
X153550000Y-79380000D03*
%TO.P,ESP32-C3 SUPER MINI,20,GPIO20*%
%TO.N,IO20*%
X151010000Y-79380000D03*
%TO.P,ESP32-C3 SUPER MINI,21,GPIO21*%
%TO.N,IO21*%
X148470000Y-79380000D03*
%TO.P,ESP32-C3 SUPER MINI,G,GND*%
%TO.N,GND*%
X163710000Y-94620000D03*
%TD*%
D11*
%TO.P,OLED 0.96",1,GND*%
%TO.N,GND*%
X124290000Y-76400000D03*
D12*
%TO.P,OLED 0.96",2,VCC_IN*%
%TO.N,VOUT*%
X126830000Y-76400000D03*
%TO.P,OLED 0.96",3,SCL*%
%TO.N,IO6*%
X129370000Y-76400000D03*
%TO.P,OLED 0.96",4,SDA*%
%TO.N,IO5*%
X131910000Y-76400000D03*
%TD*%
D13*
%TO.P,U4,1,1*%
%TO.N,unconnected-(U4-Pad1)*%
X155900000Y-65200000D03*
%TO.P,U4,2,2*%
%TO.N,Net-(U5-EN)*%
X151900000Y-65200000D03*
%TO.P,U4,COM,COM*%
%TO.N,Net-(U3-VOUT)*%
X153900000Y-65200000D03*
D14*
%TO.P,U4,M1*%
%TO.N,N/C*%
X158050000Y-65200000D03*
%TO.P,U4,M2*%
X149750000Y-65200000D03*
%TD*%
D15*
%TO.P,J7,1,Pin_1*%
%TO.N,GND*%
X162660000Y-66900000D03*
D16*
%TO.P,J7,2,Pin_2*%
%TO.N,Net-(J7-Pin_2)*%
X165200000Y-66900000D03*
%TD*%
D17*
%TO.P,J4,1,Pin_1*%
%TO.N,GND*%
X121200000Y-65000000D03*
D18*
%TO.P,J4,2,Pin_2*%
%TO.N,IO2*%
X119200000Y-65000000D03*
%TO.P,J4,3,Pin_3*%
%TO.N,IO1*%
X117200000Y-65000000D03*
%TO.P,J4,4,Pin_4*%
%TO.N,VOUT*%
X115200000Y-65000000D03*
%TD*%
D19*
%TO.P,J2,1,Pin_1*%
%TO.N,5V*%
X166180000Y-99287500D03*
D20*
%TO.P,J2,2,Pin_2*%
%TO.N,GND*%
X163640000Y-99287500D03*
%TO.P,J2,3,Pin_3*%
%TO.N,VOUT*%
X161100000Y-99287500D03*
%TO.P,J2,4,Pin_4*%
%TO.N,IO4*%
X158560000Y-99287500D03*
%TO.P,J2,5,Pin_5*%
%TO.N,IO3*%
X156020000Y-99287500D03*
%TO.P,J2,6,Pin_6*%
%TO.N,IO2*%
X153480000Y-99287500D03*
%TO.P,J2,7,Pin_7*%
%TO.N,IO1*%
X150940000Y-99287500D03*
%TO.P,J2,8,Pin_8*%
%TO.N,IO0*%
X148400000Y-99287500D03*
%TD*%
D21*
%TO.P,SW1,1*%
%TO.N,Net-(R4-Pad2)*%
X109750000Y-75400000D03*
D22*
%TO.P,SW1,2*%
%TO.N,IO8*%
X109750000Y-81900000D03*
%TO.P,SW1,3*%
%TO.N,GND*%
X105250000Y-75400000D03*
%TO.P,SW1,4*%
X105250000Y-81900000D03*
%TD*%
D21*
%TO.P,SW2,1*%
%TO.N,Net-(R5-Pad2)*%
X109850000Y-85065000D03*
D22*
%TO.P,SW2,2*%
%TO.N,I09*%
X109850000Y-91565000D03*
%TO.P,SW2,3*%
%TO.N,GND*%
X105350000Y-85065000D03*
%TO.P,SW2,4*%
X105350000Y-91565000D03*
%TD*%
D17*
%TO.P,J3,1,Pin_1*%
%TO.N,GND*%
X135200000Y-64925000D03*
D18*
%TO.P,J3,2,Pin_2*%
%TO.N,IO20*%
X133200000Y-64925000D03*
%TO.P,J3,3,Pin_3*%
%TO.N,IO21*%
X131200000Y-64925000D03*
%TO.P,J3,4,Pin_4*%
%TO.N,VOUT*%
X129200000Y-64925000D03*
%TD*%
D21*
%TO.P,SW3,1*%
%TO.N,Net-(R6-Pad2)*%
X109850000Y-94550000D03*
D22*
%TO.P,SW3,2*%
%TO.N,IO10*%
X109850000Y-101050000D03*
%TO.P,SW3,3*%
%TO.N,GND*%
X105350000Y-94550000D03*
%TO.P,SW3,4*%
X105350000Y-101050000D03*
%TD*%
D19*
%TO.P,J1,1,Pin_1*%
%TO.N,IO5*%
X166275000Y-75012500D03*
D20*
%TO.P,J1,2,Pin_2*%
%TO.N,IO6*%
X163735000Y-75012500D03*
%TO.P,J1,3,Pin_3*%
%TO.N,IO7*%
X161195000Y-75012500D03*
%TO.P,J1,4,Pin_4*%
%TO.N,IO8*%
X158655000Y-75012500D03*
%TO.P,J1,5,Pin_5*%
%TO.N,I09*%
X156115000Y-75012500D03*
%TO.P,J1,6,Pin_6*%
%TO.N,IO10*%
X153575000Y-75012500D03*
%TO.P,J1,7,Pin_7*%
%TO.N,IO20*%
X151035000Y-75012500D03*
%TO.P,J1,8,Pin_8*%
%TO.N,IO21*%
X148495000Y-75012500D03*
%TD*%
D17*
%TO.P,J6,1,Pin_1*%
%TO.N,GND*%
X121100000Y-71100000D03*
D18*
%TO.P,J6,2,Pin_2*%
%TO.N,IO5*%
X119100000Y-71100000D03*
%TO.P,J6,3,Pin_3*%
%TO.N,IO6*%
X117100000Y-71100000D03*
%TO.P,J6,4,Pin_4*%
%TO.N,VOUT*%
X115100000Y-71100000D03*
%TD*%
D17*
%TO.P,J5,1,Pin_1*%
%TO.N,GND*%
X135100000Y-71125000D03*
D18*
%TO.P,J5,2,Pin_2*%
%TO.N,IO5*%
X133100000Y-71125000D03*
%TO.P,J5,3,Pin_3*%
%TO.N,IO6*%
X131100000Y-71125000D03*
%TO.P,J5,4,Pin_4*%
%TO.N,VOUT*%
X129100000Y-71125000D03*
%TD*%
D23*
%TO.N,VOUT*%
X146100000Y-95500000D03*
X152700000Y-90900000D03*
%TO.N,Net-(U3-VOUT)*%
X148100000Y-73200000D03*
X155700000Y-84395000D03*
X158100000Y-92000000D03*
%TO.N,Net-(J7-Pin_2)*%
X158600000Y-80800000D03*
X161100000Y-82400000D03*
%TO.N,Net-(U3-BAT)*%
X167600000Y-83900000D03*
X158000000Y-89800000D03*
X156800000Y-86935000D03*
%TO.N,IO10*%
X125900000Y-91100000D03*
X135500000Y-86800000D03*
X144400000Y-78200000D03*
%TO.N,IO8*%
X133900000Y-84900000D03*
X110300000Y-79100000D03*
X122300000Y-88500000D03*
X145400000Y-76300000D03*
%TO.N,IO21*%
X145400000Y-75100000D03*
%TO.N,I09*%
X125200000Y-89700000D03*
X134600000Y-85900000D03*
X144900000Y-77300000D03*
%TO.N,IO6*%
X144900000Y-72500000D03*
%TO.N,IO5*%
X143100000Y-72300000D03*
X130300000Y-73300000D03*
%TO.N,IO20*%
X154600000Y-69800000D03*
%TO.N,GND*%
X114300000Y-78000000D03*
X149800000Y-67900000D03*
X108400000Y-77900000D03*
X147700000Y-91300000D03*
%TO.N,IO0*%
X159592986Y-85007014D03*
X147300000Y-83200000D03*
X145500000Y-83200000D03*
X142300000Y-85600000D03*
%TO.N,IO3*%
X142100000Y-98300000D03*
X118000000Y-77000000D03*
%TO.N,IO2*%
X145600000Y-99400000D03*
%TO.N,5V*%
X146800000Y-89100000D03*
%TD*%
D24*
%TO.N,VOUT*%
X152900000Y-89000000D02*
X151600000Y-87700000D01*
X151600000Y-87700000D02*
X145900000Y-87700000D01*
X145400000Y-88200000D02*
X145400000Y-94800000D01*
D25*
X126800000Y-76382500D02*
X126830000Y-76412500D01*
D24*
X145900000Y-87700000D02*
X145400000Y-88200000D01*
X152700000Y-90900000D02*
X152900000Y-90700000D01*
X126800000Y-73700000D02*
X126800000Y-76382500D01*
X152900000Y-90700000D02*
X152900000Y-89000000D01*
D25*
X161120000Y-99267500D02*
X161100000Y-99287500D01*
D26*
X161120000Y-94757500D02*
X161120000Y-99267500D01*
D24*
X145400000Y-94800000D02*
X146100000Y-95500000D01*
X129100000Y-71400000D02*
X126800000Y-73700000D01*
%TO.N,Net-(U3-VOUT)*%
X146300000Y-74400000D02*
X146300000Y-84100000D01*
X146600000Y-84400000D02*
X155695000Y-84400000D01*
D27*
X158100000Y-92000000D02*
X155700000Y-92000000D01*
X155700000Y-92000000D02*
X155700000Y-84395000D01*
D25*
X155695000Y-84400000D02*
X155700000Y-84395000D01*
D24*
X147500000Y-73200000D02*
X146300000Y-74400000D01*
X146300000Y-84100000D02*
X146600000Y-84400000D01*
X148100000Y-73200000D02*
X147500000Y-73200000D01*
D27*
%TO.N,Net-(J7-Pin_2)*%
X159500000Y-80800000D02*
X161100000Y-82400000D01*
X158600000Y-80800000D02*
X159500000Y-80800000D01*
D24*
%TO.N,Net-(U3-BAT)*%
X158000000Y-87200000D02*
X157735000Y-86935000D01*
X168200000Y-84000000D02*
X168200000Y-84700000D01*
X167600000Y-83900000D02*
X168100000Y-83900000D01*
X165965000Y-86935000D02*
X156800000Y-86935000D01*
X158000000Y-89800000D02*
X158000000Y-87200000D01*
X157735000Y-86935000D02*
X156800000Y-86935000D01*
X168100000Y-83900000D02*
X168200000Y-84000000D01*
X168200000Y-84700000D02*
X165965000Y-86935000D01*
D25*
%TO.N,IO10*%
X144400000Y-78200000D02*
X144100000Y-78200000D01*
D27*
X112250000Y-101050000D02*
X109850000Y-101050000D01*
X144100000Y-78200000D02*
X135500000Y-86800000D01*
D26*
X153575000Y-75012500D02*
X153575000Y-79442500D01*
D25*
X153575000Y-79442500D02*
X153500000Y-79517500D01*
D27*
X125900000Y-91100000D02*
X122200000Y-91100000D01*
X122200000Y-91100000D02*
X112250000Y-101050000D01*
D25*
%TO.N,IO8*%
X145400000Y-76300000D02*
X145300000Y-76400000D01*
X122300000Y-88500000D02*
X122100000Y-88500000D01*
D26*
X158655000Y-75012500D02*
X158655000Y-79442500D01*
D27*
X142400000Y-76400000D02*
X133900000Y-84900000D01*
X122100000Y-88500000D02*
X112700000Y-79100000D01*
D25*
X158655000Y-79442500D02*
X158580000Y-79517500D01*
D27*
X145300000Y-76400000D02*
X142400000Y-76400000D01*
X112700000Y-79100000D02*
X110300000Y-79100000D01*
D26*
%TO.N,IO21*%
X148495000Y-75012500D02*
X148495000Y-79442500D01*
D27*
X133500000Y-69600000D02*
X131200000Y-67300000D01*
X145400000Y-75100000D02*
X143900000Y-75100000D01*
X143900000Y-75100000D02*
X138400000Y-69600000D01*
X131200000Y-67300000D02*
X131200000Y-64925000D01*
X138400000Y-69600000D02*
X133500000Y-69600000D01*
D25*
X148495000Y-79442500D02*
X148420000Y-79517500D01*
D27*
%TO.N,I09*%
X143200000Y-77300000D02*
X134600000Y-85900000D01*
X111615000Y-89800000D02*
X125100000Y-89800000D01*
X109850000Y-91565000D02*
X111615000Y-89800000D01*
D26*
X156115000Y-75012500D02*
X156115000Y-79442500D01*
D25*
X156115000Y-79442500D02*
X156040000Y-79517500D01*
X125100000Y-89800000D02*
X125200000Y-89700000D01*
D27*
X144900000Y-77300000D02*
X143200000Y-77300000D01*
D26*
%TO.N,IO6*%
X163735000Y-75012500D02*
X163735000Y-79442500D01*
D27*
X161500000Y-72000000D02*
X163735000Y-74235000D01*
X163735000Y-74235000D02*
X163735000Y-75012500D01*
X145400000Y-72000000D02*
X161500000Y-72000000D01*
X144900000Y-72500000D02*
X145400000Y-72000000D01*
D25*
X163735000Y-79442500D02*
X163660000Y-79517500D01*
D27*
%TO.N,IO5*%
X166275000Y-72575000D02*
X166275000Y-75012500D01*
D25*
X143100000Y-72300000D02*
X143100000Y-72200000D01*
D27*
X133100000Y-73000000D02*
X133100000Y-71400000D01*
D25*
X166275000Y-79442500D02*
X166200000Y-79517500D01*
D27*
X130400000Y-73200000D02*
X132900000Y-73200000D01*
X132900000Y-73200000D02*
X133100000Y-73000000D01*
X143100000Y-72200000D02*
X144400000Y-70900000D01*
D26*
X166275000Y-75012500D02*
X166275000Y-79442500D01*
D27*
X144400000Y-70900000D02*
X164600000Y-70900000D01*
X164600000Y-70900000D02*
X166275000Y-72575000D01*
D25*
X130300000Y-73300000D02*
X130400000Y-73200000D01*
%TO.N,IO7*%
X161195000Y-79442500D02*
X161120000Y-79517500D01*
D26*
X161195000Y-75012500D02*
X161195000Y-79442500D01*
D27*
%TO.N,IO20*%
X144372000Y-68599000D02*
X134499000Y-68599000D01*
D26*
X151035000Y-75012500D02*
X151035000Y-79442500D01*
D25*
X151035000Y-79442500D02*
X150960000Y-79517500D01*
D27*
X134499000Y-68599000D02*
X133200000Y-67300000D01*
X153900000Y-69100000D02*
X144873000Y-69100000D01*
X154600000Y-69800000D02*
X153900000Y-69100000D01*
X144873000Y-69100000D02*
X144372000Y-68599000D01*
X133200000Y-67300000D02*
X133200000Y-64925000D01*
D28*
%TO.N,GND*%
X122812500Y-76412500D02*
X124290000Y-76412500D01*
X135100000Y-77200000D02*
X133800000Y-78500000D01*
X133800000Y-78500000D02*
X126377500Y-78500000D01*
X105200000Y-85215000D02*
X105200000Y-91415000D01*
D25*
X147700000Y-91800000D02*
X149300000Y-93400000D01*
X105350000Y-82000000D02*
X105250000Y-81900000D01*
D28*
X161660000Y-67900000D02*
X162660000Y-66900000D01*
X105350000Y-85065000D02*
X105200000Y-84915000D01*
X108400000Y-77900000D02*
X114200000Y-77900000D01*
X149800000Y-67900000D02*
X161660000Y-67900000D01*
X105350000Y-91565000D02*
X105350000Y-94550000D01*
X105250000Y-75400000D02*
X105250000Y-81900000D01*
D26*
X163660000Y-94757500D02*
X163660000Y-99267500D01*
D28*
X105200000Y-82150000D02*
X105350000Y-82000000D01*
X121100000Y-71500000D02*
X121100000Y-74700000D01*
D25*
X147700000Y-91300000D02*
X147700000Y-91800000D01*
X162490000Y-93400000D02*
X163710000Y-94620000D01*
D28*
X105350000Y-85065000D02*
X105200000Y-85215000D01*
D25*
X114200000Y-77900000D02*
X114300000Y-78000000D01*
D28*
X121100000Y-74700000D02*
X122812500Y-76412500D01*
X105350000Y-94550000D02*
X105350000Y-101050000D01*
X135100000Y-71400000D02*
X135100000Y-77200000D01*
D25*
X163660000Y-99267500D02*
X163640000Y-99287500D01*
X149300000Y-93400000D02*
X162490000Y-93400000D01*
D28*
X126377500Y-78500000D02*
X124290000Y-76412500D01*
X105200000Y-84915000D02*
X105200000Y-82150000D01*
X105200000Y-91415000D02*
X105350000Y-91565000D01*
D25*
%TO.N,IO0*%
X145400000Y-83100000D02*
X145500000Y-83200000D01*
X148420000Y-99267500D02*
X148400000Y-99287500D01*
D24*
X147300000Y-83200000D02*
X157785972Y-83200000D01*
X144600000Y-83100000D02*
X145400000Y-83100000D01*
X142300000Y-85400000D02*
X144600000Y-83100000D01*
D26*
X148420000Y-94757500D02*
X148420000Y-99267500D01*
D24*
X142300000Y-85600000D02*
X142300000Y-85400000D01*
X157785972Y-83200000D02*
X159592986Y-85007014D01*
D26*
%TO.N,IO4*%
X158580000Y-94757500D02*
X158580000Y-99267500D01*
D25*
X158580000Y-99267500D02*
X158560000Y-99287500D01*
D27*
%TO.N,IO3*%
X139300000Y-98300000D02*
X142100000Y-98300000D01*
D26*
X156040000Y-94757500D02*
X156040000Y-99267500D01*
D25*
X156040000Y-99267500D02*
X156020000Y-99287500D01*
D27*
X118000000Y-77000000D02*
X139300000Y-98300000D01*
D25*
%TO.N,IO2*%
X119200000Y-65000000D02*
X119200000Y-65867100D01*
D26*
X153500000Y-94757500D02*
X153500000Y-99267500D01*
D27*
X114500000Y-69000000D02*
X113500000Y-70000000D01*
X113500000Y-74000000D02*
X138900000Y-99400000D01*
X119200000Y-65867100D02*
X116067100Y-69000000D01*
D25*
X153500000Y-99267500D02*
X153480000Y-99287500D01*
D27*
X138900000Y-99400000D02*
X145600000Y-99400000D01*
X116067100Y-69000000D02*
X114500000Y-69000000D01*
X113500000Y-70000000D02*
X113500000Y-74000000D01*
%TO.N,IO1*%
X115700000Y-67900000D02*
X117200000Y-66400000D01*
X113600000Y-67900000D02*
X115700000Y-67900000D01*
X149600000Y-100900000D02*
X138500000Y-100900000D01*
X112400000Y-69100000D02*
X113600000Y-67900000D01*
X138500000Y-100900000D02*
X112400000Y-74800000D01*
D26*
X150960000Y-94757500D02*
X150960000Y-99267500D01*
D27*
X117200000Y-66400000D02*
X117200000Y-65000000D01*
X150940000Y-99560000D02*
X149600000Y-100900000D01*
D25*
X150960000Y-99267500D02*
X150940000Y-99287500D01*
D27*
X112400000Y-74800000D02*
X112400000Y-69100000D01*
D25*
X150940000Y-99287500D02*
X150940000Y-99560000D01*
%TO.N,5V*%
X166300000Y-93700000D02*
X166300000Y-94570000D01*
X166300000Y-94570000D02*
X166250000Y-94620000D01*
X165500000Y-92900000D02*
X166300000Y-93700000D01*
D27*
X151000000Y-92900000D02*
X151100000Y-92800000D01*
X146800000Y-89100000D02*
X150600000Y-92900000D01*
X165400000Y-92800000D02*
X165500000Y-92900000D01*
D26*
X166200000Y-94757500D02*
X166200000Y-99267500D01*
D27*
X151100000Y-92800000D02*
X165400000Y-92800000D01*
X150600000Y-92900000D02*
X151000000Y-92900000D01*
D25*
X166200000Y-99267500D02*
X166180000Y-99287500D01*
%TD*%
%TA.AperFunction,NonConductor*%
G36*
X104319821Y-76290649D02*
G01*
X104336250Y-76288287D01*
X104353582Y-76296202D01*
X104372384Y-76299295D01*
X104397946Y-76316462D01*
X104399806Y-76317312D01*
X104401346Y-76318746D01*
X104401684Y-76318973D01*
X104404033Y-76321093D01*
X104436005Y-76353065D01*
X104453707Y-76365926D01*
X104458581Y-76370325D01*
X104473566Y-76394713D01*
X104491050Y-76417385D01*
X104491627Y-76424107D01*
X104495159Y-76429855D01*
X104499500Y-76462377D01*
X104499500Y-80837622D01*
X104479815Y-80904661D01*
X104448387Y-80937939D01*
X104436005Y-80946934D01*
X104436002Y-80946937D01*
X104406284Y-80976656D01*
X104344961Y-81010141D01*
X104275269Y-81005157D01*
X104219336Y-80963285D01*
X104194919Y-80897821D01*
X104194603Y-80888975D01*
X104194603Y-76411025D01*
X104199971Y-76392741D01*
X104200357Y-76373692D01*
X104209611Y-76359912D01*
X104214288Y-76343986D01*
X104228687Y-76331508D01*
X104239312Y-76315689D01*
X104254549Y-76309099D01*
X104267092Y-76298231D01*
X104285949Y-76295519D01*
X104303441Y-76287955D01*
X104319821Y-76290649D01*
G37*
%TD.AperFunction*%
%TA.AperFunction,NonConductor*%
G36*
X104322917Y-82790203D02*
G01*
X104336250Y-82788287D01*
X104356393Y-82797486D01*
X104378030Y-82802193D01*
X104395755Y-82815461D01*
X104399806Y-82817312D01*
X104406284Y-82823344D01*
X104413181Y-82830241D01*
X104446666Y-82891564D01*
X104449500Y-82917922D01*
X104449500Y-84147078D01*
X104429815Y-84214117D01*
X104413181Y-84234759D01*
X104406284Y-84241656D01*
X104344961Y-84275141D01*
X104275269Y-84270157D01*
X104219336Y-84228285D01*
X104194919Y-84162821D01*
X104194603Y-84153975D01*
X104194603Y-82911025D01*
X104200841Y-82889779D01*
X104202421Y-82867691D01*
X104210493Y-82856907D01*
X104214288Y-82843986D01*
X104231021Y-82829486D01*
X104244293Y-82811758D01*
X104256913Y-82807050D01*
X104267092Y-82798231D01*
X104289009Y-82795079D01*
X104309757Y-82787341D01*
X104322917Y-82790203D01*
G37*
%TD.AperFunction*%
%TA.AperFunction,NonConductor*%
G36*
X104399806Y-85882312D02*
G01*
X104406284Y-85888344D01*
X104413181Y-85895241D01*
X104446666Y-85956564D01*
X104449500Y-85982922D01*
X104449500Y-90647078D01*
X104429815Y-90714117D01*
X104413181Y-90734759D01*
X104406284Y-90741656D01*
X104344961Y-90775141D01*
X104275269Y-90770157D01*
X104219336Y-90728285D01*
X104194919Y-90662821D01*
X104194603Y-90653975D01*
X104194603Y-85976025D01*
X104214288Y-85908986D01*
X104267092Y-85863231D01*
X104336250Y-85853287D01*
X104399806Y-85882312D01*
G37*
%TD.AperFunction*%
%TA.AperFunction,NonConductor*%
G36*
X104321826Y-92355360D02*
G01*
X104336250Y-92353287D01*
X104355408Y-92362036D01*
X104376063Y-92366142D01*
X104396225Y-92380676D01*
X104399806Y-92382312D01*
X104404305Y-92386501D01*
X104404693Y-92386781D01*
X104405485Y-92387545D01*
X104536005Y-92518065D01*
X104555375Y-92532138D01*
X104561590Y-92538133D01*
X104574777Y-92561284D01*
X104591050Y-92582385D01*
X104591805Y-92591176D01*
X104596173Y-92598844D01*
X104599500Y-92627377D01*
X104599500Y-93487622D01*
X104579815Y-93554661D01*
X104548387Y-93587939D01*
X104536005Y-93596934D01*
X104536002Y-93596937D01*
X104406284Y-93726656D01*
X104344961Y-93760141D01*
X104275269Y-93755157D01*
X104219336Y-93713285D01*
X104194919Y-93647821D01*
X104194603Y-93638975D01*
X104194603Y-92476025D01*
X104200536Y-92455818D01*
X104201661Y-92434788D01*
X104210182Y-92422966D01*
X104214288Y-92408986D01*
X104230201Y-92395196D01*
X104242519Y-92378110D01*
X104256081Y-92372771D01*
X104267092Y-92363231D01*
X104287935Y-92360233D01*
X104307534Y-92352520D01*
X104321826Y-92355360D01*
G37*
%TD.AperFunction*%
%TA.AperFunction,NonConductor*%
G36*
X104321826Y-95340360D02*
G01*
X104336250Y-95338287D01*
X104355408Y-95347036D01*
X104376063Y-95351142D01*
X104396225Y-95365676D01*
X104399806Y-95367312D01*
X104404305Y-95371501D01*
X104404693Y-95371781D01*
X104405485Y-95372545D01*
X104536005Y-95503065D01*
X104555375Y-95517138D01*
X104561590Y-95523133D01*
X104574777Y-95546284D01*
X104591050Y-95567385D01*
X104591805Y-95576176D01*
X104596173Y-95583844D01*
X104599500Y-95612377D01*
X104599500Y-99987622D01*
X104579815Y-100054661D01*
X104548387Y-100087939D01*
X104536005Y-100096934D01*
X104536002Y-100096937D01*
X104406284Y-100226656D01*
X104344961Y-100260141D01*
X104275269Y-100255157D01*
X104219336Y-100213285D01*
X104194919Y-100147821D01*
X104194603Y-100138975D01*
X104194603Y-95461025D01*
X104200536Y-95440818D01*
X104201661Y-95419788D01*
X104210182Y-95407966D01*
X104214288Y-95393986D01*
X104230201Y-95380196D01*
X104242519Y-95363110D01*
X104256081Y-95357771D01*
X104267092Y-95348231D01*
X104287935Y-95345233D01*
X104307534Y-95337520D01*
X104321826Y-95340360D01*
G37*
%TD.AperFunction*%
%TA.AperFunction,NonConductor*%
G36*
X105612988Y-57833408D02*
G01*
X105625677Y-57834229D01*
X105976401Y-57875098D01*
X105988935Y-57877216D01*
X106333611Y-57953858D01*
X106345873Y-57957255D01*
X106680855Y-58068859D01*
X106692698Y-58073493D01*
X106915836Y-58174319D01*
X107014454Y-58218880D01*
X107025780Y-58224716D01*
X107330914Y-58402350D01*
X107341575Y-58409313D01*
X107626874Y-58617322D01*
X107636755Y-58625335D01*
X107899206Y-58861526D01*
X107908217Y-58870515D01*
X107939425Y-58905023D01*
X108145044Y-59132389D01*
X108153093Y-59142266D01*
X108223521Y-59238370D01*
X108361787Y-59427045D01*
X108368773Y-59437683D01*
X108543867Y-59736777D01*
X108547156Y-59742395D01*
X108553017Y-59753703D01*
X108590798Y-59836777D01*
X108699180Y-60075092D01*
X108703852Y-60086946D01*
X108816264Y-60421636D01*
X108819695Y-60433906D01*
X108897219Y-60778592D01*
X108897228Y-60778627D01*
X108898571Y-60784595D01*
X108898574Y-60784595D01*
X108909711Y-60849539D01*
X108927685Y-60888563D01*
X108928865Y-60892821D01*
X108929017Y-60893188D01*
X108930114Y-60895088D01*
X108935355Y-60905214D01*
X108964843Y-60969235D01*
X108964845Y-60969238D01*
X108977654Y-60984649D01*
X108991305Y-61001074D01*
X108994908Y-61007314D01*
X109004283Y-61016689D01*
X109049078Y-61070586D01*
X109080166Y-61092572D01*
X109088094Y-61100500D01*
X109105964Y-61110817D01*
X109110621Y-61114110D01*
X109110622Y-61114112D01*
X109156670Y-61146679D01*
X109156673Y-61146680D01*
X109188327Y-61158369D01*
X109202222Y-61166392D01*
X109230745Y-61174034D01*
X109280297Y-61192334D01*
X109308876Y-61194969D01*
X109329516Y-61200500D01*
X109368844Y-61200500D01*
X109411524Y-61204436D01*
X109424073Y-61202283D01*
X109445032Y-61200500D01*
X166830257Y-61200500D01*
X166845278Y-61203566D01*
X166895945Y-61200500D01*
X166946709Y-61200500D01*
X166949418Y-61199773D01*
X166974021Y-61195775D01*
X166976821Y-61195606D01*
X167024968Y-61179530D01*
X167074003Y-61166392D01*
X167087278Y-61158726D01*
X167099165Y-61154758D01*
X167099165Y-61154757D01*
X167101822Y-61153871D01*
X167141062Y-61127934D01*
X167147387Y-61124022D01*
X167188131Y-61100500D01*
X167198972Y-61089658D01*
X167211762Y-61081205D01*
X167245421Y-61043209D01*
X167281317Y-61007314D01*
X167282716Y-61004890D01*
X167297287Y-60984662D01*
X167299149Y-60982561D01*
X167321829Y-60937144D01*
X167347209Y-60893186D01*
X167351176Y-60878378D01*
X167358027Y-60864661D01*
X167367432Y-60818577D01*
X167368521Y-60813740D01*
X167368810Y-60812563D01*
X167381317Y-60765892D01*
X167381317Y-60761779D01*
X167384120Y-60750398D01*
X167384252Y-60750170D01*
X167384503Y-60748885D01*
X167402443Y-60679794D01*
X167462194Y-60449677D01*
X167466135Y-60437234D01*
X167591177Y-60104439D01*
X167596397Y-60092497D01*
X167755760Y-59774676D01*
X167762201Y-59763362D01*
X167954102Y-59464072D01*
X167961696Y-59453497D01*
X168184018Y-59176042D01*
X168192699Y-59166309D01*
X168216527Y-59142266D01*
X168442958Y-58913787D01*
X168452596Y-58905037D01*
X168728027Y-58680238D01*
X168738553Y-58672533D01*
X169036092Y-58477954D01*
X169047371Y-58471399D01*
X169363728Y-58309191D01*
X169375612Y-58303868D01*
X169707298Y-58175825D01*
X169719679Y-58171781D01*
X170062970Y-58079340D01*
X170075726Y-58076616D01*
X170426845Y-58020792D01*
X170439798Y-58019427D01*
X170794837Y-58000842D01*
X170807865Y-58000846D01*
X171162887Y-58019706D01*
X171175845Y-58021081D01*
X171526916Y-58077176D01*
X171539677Y-58079911D01*
X171882886Y-58172615D01*
X171895287Y-58176677D01*
X172226829Y-58304960D01*
X172238741Y-58310305D01*
X172554970Y-58472755D01*
X172566252Y-58479325D01*
X172863627Y-58674125D01*
X172874144Y-58681834D01*
X173149408Y-58906853D01*
X173159044Y-58915616D01*
X173311861Y-59070052D01*
X173409097Y-59168319D01*
X173417781Y-59178073D01*
X173639870Y-59455675D01*
X173647477Y-59466283D01*
X173721011Y-59581162D01*
X173839130Y-59765694D01*
X173845582Y-59777049D01*
X174004685Y-60094967D01*
X174009906Y-60106938D01*
X174134683Y-60439806D01*
X174138617Y-60452259D01*
X174227696Y-60796420D01*
X174230298Y-60809219D01*
X174282683Y-61160831D01*
X174283925Y-61173831D01*
X174299040Y-61529015D01*
X174298907Y-61542075D01*
X174276581Y-61896863D01*
X174275076Y-61909835D01*
X174215558Y-62260322D01*
X174212696Y-62273065D01*
X174116646Y-62615338D01*
X174112460Y-62627709D01*
X173980946Y-62957978D01*
X173975483Y-62969840D01*
X173809954Y-63284462D01*
X173803272Y-63295684D01*
X173605578Y-63591138D01*
X173597758Y-63601589D01*
X173466688Y-63758768D01*
X173370084Y-63874614D01*
X173361204Y-63884189D01*
X173106073Y-64131759D01*
X173096234Y-64140348D01*
X172816479Y-64359709D01*
X172805791Y-64367215D01*
X172504530Y-64555928D01*
X172493113Y-64562269D01*
X172173657Y-64718259D01*
X172161636Y-64723363D01*
X171827558Y-64844884D01*
X171815066Y-64848696D01*
X171470054Y-64934407D01*
X171457232Y-64936884D01*
X171105117Y-64985833D01*
X171092104Y-64986947D01*
X170736804Y-64998589D01*
X170723747Y-64998329D01*
X170399122Y-64974716D01*
X170395743Y-64974424D01*
X170385730Y-64973419D01*
X170366061Y-64968147D01*
X170333121Y-64968143D01*
X170326948Y-64967524D01*
X170326490Y-64967338D01*
X170323828Y-64967171D01*
X170297288Y-64963828D01*
X170274328Y-64966981D01*
X170274329Y-64966982D01*
X170265927Y-64968136D01*
X170234277Y-64968133D01*
X170200931Y-64977063D01*
X170193226Y-64978122D01*
X170193223Y-64978121D01*
X170166731Y-64981760D01*
X170145369Y-64990749D01*
X170137550Y-64994038D01*
X170106979Y-65002227D01*
X170077093Y-65019476D01*
X170069931Y-65022490D01*
X170069925Y-65022494D01*
X170045259Y-65032874D01*
X170026950Y-65047085D01*
X170026951Y-65047086D01*
X170020252Y-65052286D01*
X169992844Y-65068107D01*
X169968434Y-65092510D01*
X169962291Y-65097279D01*
X169962288Y-65097279D01*
X169941160Y-65113682D01*
X169941156Y-65113686D01*
X169927153Y-65132147D01*
X169922028Y-65138906D01*
X169899648Y-65161282D01*
X169882384Y-65191175D01*
X169877689Y-65197366D01*
X169877686Y-65197367D01*
X169861524Y-65218678D01*
X169861517Y-65218691D01*
X169852773Y-65240136D01*
X169852774Y-65240137D01*
X169849569Y-65247997D01*
X169833743Y-65275403D01*
X169824806Y-65308736D01*
X169821872Y-65315935D01*
X169821871Y-65315941D01*
X169811772Y-65340714D01*
X169811770Y-65340721D01*
X169808874Y-65363704D01*
X169808875Y-65363705D01*
X169807814Y-65372126D01*
X169799621Y-65402693D01*
X169799617Y-65437205D01*
X169798645Y-65444922D01*
X169795303Y-65471460D01*
X169795303Y-65471464D01*
X169798456Y-65494423D01*
X169799609Y-65511308D01*
X169795785Y-100396666D01*
X169795668Y-101459546D01*
X169791576Y-101484717D01*
X169795660Y-101525177D01*
X169795660Y-101531430D01*
X169795656Y-101565833D01*
X169795657Y-101565840D01*
X169799663Y-101580797D01*
X169803256Y-101600413D01*
X169804812Y-101615827D01*
X169804813Y-101615831D01*
X169804813Y-101615833D01*
X169804814Y-101615834D01*
X169819232Y-101653859D01*
X169829751Y-101693135D01*
X169842493Y-101715211D01*
X169846041Y-101724568D01*
X169851534Y-101739055D01*
X169851535Y-101739057D01*
X169851536Y-101739058D01*
X169875305Y-101772057D01*
X169895630Y-101807270D01*
X169913650Y-101825294D01*
X169919501Y-101833417D01*
X169928556Y-101845989D01*
X169955225Y-101867766D01*
X169960062Y-101871716D01*
X169988806Y-101900466D01*
X170010882Y-101913215D01*
X170030634Y-101929344D01*
X170067715Y-101946036D01*
X170102927Y-101966371D01*
X170127552Y-101972972D01*
X170150804Y-101983439D01*
X170190947Y-101989966D01*
X170230217Y-102000493D01*
X170255705Y-102000495D01*
X170280880Y-102004589D01*
X170315197Y-102001123D01*
X170318950Y-102000804D01*
X170323268Y-102000502D01*
X170362001Y-102000507D01*
X170375694Y-101996839D01*
X170387603Y-101996007D01*
X170388289Y-101996157D01*
X170390251Y-101995850D01*
X170707492Y-101980509D01*
X170720428Y-101980559D01*
X171074875Y-102000521D01*
X171087747Y-102001925D01*
X171438143Y-102058776D01*
X171450810Y-102061517D01*
X171793365Y-102154641D01*
X171805658Y-102158684D01*
X172136631Y-102287062D01*
X172148439Y-102292368D01*
X172261117Y-102350259D01*
X172464193Y-102454594D01*
X172475398Y-102461113D01*
X172772473Y-102655405D01*
X172782936Y-102663057D01*
X172895623Y-102754888D01*
X173053784Y-102883778D01*
X173058115Y-102887307D01*
X173067720Y-102896008D01*
X173095606Y-102924060D01*
X173317986Y-103147762D01*
X173326632Y-103157421D01*
X173549239Y-103433916D01*
X173556829Y-103444423D01*
X173749364Y-103742658D01*
X173755816Y-103753902D01*
X173916158Y-104070596D01*
X173921401Y-104082451D01*
X174047810Y-104414166D01*
X174051786Y-104426503D01*
X174091123Y-104574668D01*
X174141218Y-104763359D01*
X174142872Y-104769587D01*
X174145538Y-104782270D01*
X174149415Y-104807091D01*
X174200311Y-105133002D01*
X174201639Y-105145896D01*
X174219498Y-105500419D01*
X174219473Y-105513383D01*
X174200222Y-105867846D01*
X174198843Y-105880734D01*
X174142696Y-106231240D01*
X174139979Y-106243916D01*
X174047546Y-106586646D01*
X174043522Y-106598967D01*
X173967360Y-106796493D01*
X173945504Y-106853179D01*
X173915816Y-106930174D01*
X173910526Y-106942009D01*
X173748939Y-107258077D01*
X173742443Y-107269295D01*
X173548745Y-107566765D01*
X173541114Y-107577243D01*
X173317414Y-107852873D01*
X173308730Y-107862497D01*
X173057484Y-108113261D01*
X173047843Y-108121927D01*
X172771795Y-108345089D01*
X172761303Y-108352700D01*
X172463455Y-108545833D01*
X172452224Y-108552307D01*
X172135854Y-108713283D01*
X172124009Y-108718550D01*
X171792546Y-108845625D01*
X171780217Y-108849626D01*
X171437311Y-108941401D01*
X171424631Y-108944093D01*
X171074020Y-108999568D01*
X171061128Y-109000922D01*
X170706639Y-109019492D01*
X170693676Y-109019493D01*
X170339177Y-109000953D01*
X170326285Y-108999600D01*
X169975668Y-108944156D01*
X169962988Y-108941465D01*
X169620073Y-108849720D01*
X169607743Y-108845720D01*
X169276272Y-108718675D01*
X169264427Y-108713409D01*
X168948044Y-108552461D01*
X168936813Y-108545988D01*
X168638949Y-108352882D01*
X168628455Y-108345271D01*
X168352382Y-108122129D01*
X168342741Y-108113465D01*
X168342537Y-108113261D01*
X168091467Y-107862717D01*
X168082794Y-107853107D01*
X167859069Y-107577494D01*
X167851437Y-107567017D01*
X167657711Y-107269563D01*
X167651214Y-107258345D01*
X167489599Y-106942288D01*
X167484309Y-106930455D01*
X167454505Y-106853179D01*
X167356573Y-106599261D01*
X167352549Y-106586946D01*
X167337264Y-106530289D01*
X167260079Y-106244197D01*
X167257367Y-106231544D01*
X167201186Y-105881029D01*
X167199809Y-105868162D01*
X167180526Y-105513684D01*
X167180501Y-105500735D01*
X167186637Y-105378711D01*
X168849500Y-105378711D01*
X168849500Y-105621288D01*
X168871356Y-105787310D01*
X168881162Y-105861789D01*
X168886238Y-105880734D01*
X168943947Y-106096104D01*
X169026790Y-106296104D01*
X169036776Y-106320212D01*
X169158064Y-106530289D01*
X169158066Y-106530292D01*
X169158067Y-106530293D01*
X169305733Y-106722736D01*
X169305739Y-106722743D01*
X169477256Y-106894260D01*
X169477263Y-106894266D01*
X169532322Y-106936514D01*
X169669711Y-107041936D01*
X169879788Y-107163224D01*
X170103900Y-107256054D01*
X170338211Y-107318838D01*
X170518586Y-107342584D01*
X170578711Y-107350500D01*
X170578712Y-107350500D01*
X170821289Y-107350500D01*
X170869388Y-107344167D01*
X171061789Y-107318838D01*
X171296100Y-107256054D01*
X171520212Y-107163224D01*
X171730289Y-107041936D01*
X171922738Y-106894265D01*
X172094265Y-106722738D01*
X172241936Y-106530289D01*
X172363224Y-106320212D01*
X172456054Y-106096100D01*
X172518838Y-105861789D01*
X172550500Y-105621288D01*
X172550500Y-105378712D01*
X172518838Y-105138211D01*
X172456054Y-104903900D01*
X172363224Y-104679788D01*
X172241936Y-104469711D01*
X172142921Y-104340672D01*
X172094266Y-104277263D01*
X172094260Y-104277256D01*
X171922743Y-104105739D01*
X171922736Y-104105733D01*
X171730293Y-103958067D01*
X171730292Y-103958066D01*
X171730289Y-103958064D01*
X171520212Y-103836776D01*
X171445053Y-103805644D01*
X171296104Y-103743947D01*
X171061785Y-103681161D01*
X170821289Y-103649500D01*
X170821288Y-103649500D01*
X170578712Y-103649500D01*
X170578711Y-103649500D01*
X170338214Y-103681161D01*
X170103895Y-103743947D01*
X169879794Y-103836773D01*
X169879785Y-103836777D01*
X169669706Y-103958067D01*
X169477263Y-104105733D01*
X169477256Y-104105739D01*
X169305739Y-104277256D01*
X169305733Y-104277263D01*
X169158067Y-104469706D01*
X169158064Y-104469710D01*
X169158064Y-104469711D01*
X169153704Y-104477263D01*
X169036777Y-104679785D01*
X169036773Y-104679794D01*
X168943947Y-104903895D01*
X168881161Y-105138214D01*
X168849500Y-105378711D01*
X167186637Y-105378711D01*
X167187154Y-105368429D01*
X167187154Y-105368425D01*
X167188674Y-105338211D01*
X167198329Y-105146196D01*
X167199656Y-105133306D01*
X167247179Y-104828816D01*
X167251098Y-104815179D01*
X167250191Y-104814930D01*
X167252344Y-104807094D01*
X167252347Y-104807090D01*
X167258395Y-104763357D01*
X167259877Y-104754845D01*
X167268948Y-104711681D01*
X167268636Y-104705985D01*
X167269620Y-104682207D01*
X167270403Y-104676547D01*
X167264930Y-104632769D01*
X167264157Y-104624160D01*
X167261746Y-104580095D01*
X167261745Y-104580091D01*
X167259969Y-104574668D01*
X167259966Y-104574660D01*
X167256247Y-104563306D01*
X167254058Y-104545782D01*
X167235814Y-104500909D01*
X167220732Y-104454855D01*
X167211073Y-104440057D01*
X167204424Y-104423702D01*
X167175202Y-104385098D01*
X167148702Y-104344498D01*
X167148698Y-104344493D01*
X167144434Y-104340672D01*
X167135535Y-104332696D01*
X167124885Y-104318628D01*
X167086681Y-104288914D01*
X167050563Y-104256544D01*
X167050561Y-104256543D01*
X167050559Y-104256541D01*
X167045439Y-104253947D01*
X167025358Y-104241217D01*
X165337962Y-102928795D01*
X165337962Y-102928794D01*
X165331869Y-102924055D01*
X165307314Y-102899500D01*
X165280089Y-102883782D01*
X165273348Y-102878539D01*
X165273341Y-102878535D01*
X165255266Y-102864476D01*
X165230374Y-102853973D01*
X165216586Y-102847118D01*
X165193186Y-102833608D01*
X165193183Y-102833607D01*
X165171060Y-102827679D01*
X165154954Y-102822153D01*
X165133850Y-102813249D01*
X165133839Y-102813246D01*
X165107084Y-102809545D01*
X165107084Y-102809546D01*
X165099438Y-102808488D01*
X165065892Y-102799500D01*
X165034451Y-102799500D01*
X165025998Y-102798330D01*
X165003301Y-102795191D01*
X164980334Y-102798063D01*
X164976503Y-102798542D01*
X164961124Y-102799500D01*
X110934108Y-102799500D01*
X110806812Y-102833608D01*
X110692686Y-102899500D01*
X110692683Y-102899502D01*
X108995639Y-104596546D01*
X108992223Y-104599961D01*
X108956931Y-104630158D01*
X108945797Y-104646387D01*
X108937710Y-104654474D01*
X108937706Y-104654480D01*
X108931880Y-104660306D01*
X108911062Y-104696363D01*
X108908656Y-104700530D01*
X108882383Y-104738830D01*
X108875827Y-104757390D01*
X108870110Y-104767294D01*
X108865989Y-104774433D01*
X108865988Y-104774434D01*
X108855212Y-104814647D01*
X108852363Y-104823835D01*
X108838502Y-104863089D01*
X108838501Y-104863094D01*
X108837861Y-104871314D01*
X108837860Y-104871313D01*
X108836973Y-104882718D01*
X108831880Y-104901729D01*
X108831880Y-104948166D01*
X108831506Y-104952973D01*
X108831506Y-104952977D01*
X108828275Y-104994480D01*
X108829784Y-105002578D01*
X108830049Y-105004049D01*
X108831880Y-105014584D01*
X108831880Y-105033514D01*
X108841242Y-105068457D01*
X108842196Y-105073941D01*
X108842113Y-105074661D01*
X108842943Y-105078814D01*
X108887315Y-105412192D01*
X108888348Y-105424994D01*
X108898379Y-105774469D01*
X108898082Y-105787310D01*
X108871909Y-106135940D01*
X108870285Y-106148681D01*
X108808188Y-106492745D01*
X108805256Y-106505249D01*
X108707902Y-106841044D01*
X108703691Y-106853179D01*
X108572130Y-107177088D01*
X108566687Y-107188721D01*
X108402323Y-107497292D01*
X108395706Y-107508300D01*
X108200301Y-107798217D01*
X108192580Y-107808482D01*
X107968238Y-108076626D01*
X107959498Y-108086036D01*
X107708623Y-108329536D01*
X107698955Y-108337993D01*
X107424237Y-108554236D01*
X107413747Y-108561647D01*
X107118122Y-108748320D01*
X107106921Y-108754605D01*
X106793598Y-108909685D01*
X106781808Y-108914779D01*
X106454105Y-109036624D01*
X106441850Y-109040471D01*
X106103302Y-109127764D01*
X106090715Y-109130322D01*
X105744963Y-109182125D01*
X105732180Y-109183368D01*
X105382919Y-109199129D01*
X105370075Y-109199043D01*
X105021048Y-109178591D01*
X105008283Y-109177176D01*
X104663261Y-109120733D01*
X104650710Y-109118006D01*
X104313368Y-109026174D01*
X104301166Y-109022163D01*
X103975130Y-108895927D01*
X103963409Y-108890675D01*
X103652193Y-108731397D01*
X103641078Y-108724962D01*
X103347989Y-108534335D01*
X103337599Y-108526783D01*
X103065817Y-108306873D01*
X103056264Y-108298288D01*
X102934298Y-108176684D01*
X102808677Y-108051435D01*
X102800073Y-108041919D01*
X102654012Y-107862497D01*
X102579343Y-107770772D01*
X102571762Y-107760405D01*
X102380270Y-107467890D01*
X102373801Y-107456793D01*
X102213603Y-107146054D01*
X102208316Y-107134349D01*
X102081107Y-106808673D01*
X102077066Y-106796503D01*
X101984231Y-106459424D01*
X101981467Y-106446881D01*
X101945532Y-106231240D01*
X101924000Y-106102029D01*
X101922548Y-106089272D01*
X101920856Y-106061789D01*
X101901058Y-105740285D01*
X101900935Y-105727480D01*
X101907206Y-105578711D01*
X103549500Y-105578711D01*
X103549500Y-105821288D01*
X103581161Y-106061785D01*
X103643947Y-106296104D01*
X103653933Y-106320212D01*
X103736776Y-106520212D01*
X103858064Y-106730289D01*
X103858066Y-106730292D01*
X103858067Y-106730293D01*
X104005733Y-106922736D01*
X104005739Y-106922743D01*
X104177256Y-107094260D01*
X104177263Y-107094266D01*
X104237298Y-107140332D01*
X104369711Y-107241936D01*
X104579788Y-107363224D01*
X104803900Y-107456054D01*
X105038211Y-107518838D01*
X105218586Y-107542584D01*
X105278711Y-107550500D01*
X105278712Y-107550500D01*
X105521289Y-107550500D01*
X105569388Y-107544167D01*
X105761789Y-107518838D01*
X105996100Y-107456054D01*
X106220212Y-107363224D01*
X106430289Y-107241936D01*
X106622738Y-107094265D01*
X106794265Y-106922738D01*
X106941936Y-106730289D01*
X107063224Y-106520212D01*
X107156054Y-106296100D01*
X107218838Y-106061789D01*
X107250500Y-105821288D01*
X107250500Y-105578712D01*
X107218838Y-105338211D01*
X107156054Y-105103900D01*
X107063224Y-104879788D01*
X106941936Y-104669711D01*
X106794265Y-104477262D01*
X106794260Y-104477256D01*
X106622743Y-104305739D01*
X106622736Y-104305733D01*
X106430293Y-104158067D01*
X106430292Y-104158066D01*
X106430289Y-104158064D01*
X106220212Y-104036776D01*
X106220205Y-104036773D01*
X105996104Y-103943947D01*
X105761785Y-103881161D01*
X105521289Y-103849500D01*
X105521288Y-103849500D01*
X105278712Y-103849500D01*
X105278711Y-103849500D01*
X105038214Y-103881161D01*
X104803895Y-103943947D01*
X104579794Y-104036773D01*
X104579785Y-104036777D01*
X104369706Y-104158067D01*
X104177263Y-104305733D01*
X104177256Y-104305739D01*
X104005739Y-104477256D01*
X104005733Y-104477263D01*
X103858067Y-104669706D01*
X103736777Y-104879785D01*
X103736773Y-104879794D01*
X103643947Y-105103895D01*
X103581161Y-105338214D01*
X103549500Y-105578711D01*
X101907206Y-105578711D01*
X101915660Y-105378152D01*
X101916865Y-105365370D01*
X101967644Y-105019448D01*
X101970159Y-105006885D01*
X102056456Y-104668046D01*
X102060254Y-104655820D01*
X102181138Y-104327723D01*
X102186183Y-104315949D01*
X102340352Y-104002127D01*
X102346590Y-103990936D01*
X102532400Y-103694735D01*
X102539749Y-103684267D01*
X102755214Y-103408859D01*
X102763611Y-103399203D01*
X103006384Y-103147586D01*
X103015755Y-103138830D01*
X103283247Y-102913682D01*
X103293471Y-102905944D01*
X103582819Y-102709671D01*
X103593803Y-102703025D01*
X103864143Y-102557993D01*
X103866018Y-102557008D01*
X103877835Y-102550925D01*
X103887289Y-102548393D01*
X103924493Y-102526912D01*
X103927144Y-102525548D01*
X103927497Y-102525480D01*
X103930981Y-102523656D01*
X103967153Y-102506603D01*
X103983209Y-102493013D01*
X104001417Y-102482501D01*
X104033302Y-102450615D01*
X104067744Y-102421465D01*
X104073401Y-102413312D01*
X104079738Y-102404178D01*
X104094603Y-102389315D01*
X104117151Y-102350259D01*
X104142872Y-102313192D01*
X104149981Y-102293396D01*
X104160495Y-102275187D01*
X104172167Y-102231624D01*
X104180668Y-102207957D01*
X104187416Y-102189168D01*
X104187416Y-102189167D01*
X104187417Y-102189165D01*
X104189160Y-102168203D01*
X104194603Y-102147893D01*
X104194603Y-102102788D01*
X104198343Y-102057834D01*
X104196579Y-102048070D01*
X104194603Y-102026021D01*
X104194603Y-101961025D01*
X104214288Y-101893986D01*
X104267092Y-101848231D01*
X104336250Y-101838287D01*
X104399806Y-101867312D01*
X104406284Y-101873344D01*
X104536005Y-102003065D01*
X104695119Y-102118668D01*
X104833477Y-102189165D01*
X104870360Y-102207958D01*
X105057404Y-102268732D01*
X105057405Y-102268732D01*
X105057408Y-102268733D01*
X105251662Y-102299500D01*
X105251663Y-102299500D01*
X105448337Y-102299500D01*
X105448338Y-102299500D01*
X105642592Y-102268733D01*
X105642595Y-102268732D01*
X105642596Y-102268732D01*
X105829639Y-102207958D01*
X105829639Y-102207957D01*
X105829642Y-102207957D01*
X106004881Y-102118668D01*
X106163995Y-102003065D01*
X106303065Y-101863995D01*
X106418668Y-101704881D01*
X106507957Y-101529642D01*
X106509302Y-101525502D01*
X106568732Y-101342596D01*
X106568732Y-101342595D01*
X106568733Y-101342592D01*
X106599500Y-101148338D01*
X106599500Y-100951662D01*
X106568733Y-100757408D01*
X106568732Y-100757404D01*
X106568732Y-100757403D01*
X106507958Y-100570360D01*
X106469584Y-100495047D01*
X106418668Y-100395119D01*
X106303065Y-100236005D01*
X106163995Y-100096935D01*
X106151612Y-100087938D01*
X106108948Y-100032608D01*
X106100500Y-99987622D01*
X106100500Y-95612377D01*
X106120185Y-95545338D01*
X106151614Y-95512060D01*
X106163995Y-95503065D01*
X106303065Y-95363995D01*
X106418668Y-95204881D01*
X106507957Y-95029642D01*
X106568733Y-94842592D01*
X106599500Y-94648338D01*
X106599500Y-94451662D01*
X106568733Y-94257408D01*
X106568732Y-94257404D01*
X106568732Y-94257403D01*
X106507958Y-94070360D01*
X106418667Y-93895118D01*
X106389425Y-93854870D01*
X106315511Y-93753135D01*
X108600500Y-93753135D01*
X108600500Y-95346870D01*
X108600501Y-95346876D01*
X108606908Y-95406483D01*
X108657202Y-95541328D01*
X108657206Y-95541335D01*
X108743452Y-95656544D01*
X108743455Y-95656547D01*
X108858664Y-95742793D01*
X108858671Y-95742797D01*
X108993517Y-95793091D01*
X108993516Y-95793091D01*
X109000444Y-95793835D01*
X109053127Y-95799500D01*
X110646872Y-95799499D01*
X110706483Y-95793091D01*
X110841331Y-95742796D01*
X110956546Y-95656546D01*
X111042796Y-95541331D01*
X111093091Y-95406483D01*
X111099500Y-95346873D01*
X111099499Y-93753128D01*
X111093091Y-93693517D01*
X111084870Y-93671476D01*
X111042797Y-93558671D01*
X111042793Y-93558664D01*
X110956547Y-93443455D01*
X110956544Y-93443452D01*
X110841335Y-93357206D01*
X110841328Y-93357202D01*
X110706482Y-93306908D01*
X110706483Y-93306908D01*
X110646883Y-93300501D01*
X110646881Y-93300500D01*
X110646873Y-93300500D01*
X110646864Y-93300500D01*
X109053129Y-93300500D01*
X109053123Y-93300501D01*
X108993516Y-93306908D01*
X108858671Y-93357202D01*
X108858664Y-93357206D01*
X108743455Y-93443452D01*
X108743452Y-93443455D01*
X108657206Y-93558664D01*
X108657202Y-93558671D01*
X108606908Y-93693517D01*
X108600501Y-93753116D01*
X108600501Y-93753123D01*
X108600500Y-93753135D01*
X106315511Y-93753135D01*
X106303065Y-93736005D01*
X106163995Y-93596935D01*
X106151612Y-93587938D01*
X106108948Y-93532608D01*
X106100500Y-93487622D01*
X106100500Y-92627377D01*
X106120185Y-92560338D01*
X106151614Y-92527060D01*
X106163995Y-92518065D01*
X106303065Y-92378995D01*
X106418668Y-92219881D01*
X106507957Y-92044642D01*
X106507958Y-92044639D01*
X106568732Y-91857596D01*
X106568732Y-91857595D01*
X106568733Y-91857592D01*
X106599500Y-91663338D01*
X106599500Y-91466662D01*
X106568733Y-91272408D01*
X106568732Y-91272404D01*
X106568732Y-91272403D01*
X106507958Y-91085360D01*
X106424124Y-90920827D01*
X106418668Y-90910119D01*
X106303065Y-90751005D01*
X106163995Y-90611935D01*
X106038571Y-90520809D01*
X106001614Y-90493958D01*
X105958949Y-90438628D01*
X105950500Y-90393640D01*
X105950500Y-86236359D01*
X105970185Y-86169320D01*
X106001615Y-86136041D01*
X106051469Y-86099820D01*
X106163995Y-86018065D01*
X106303065Y-85878995D01*
X106418668Y-85719881D01*
X106507957Y-85544642D01*
X106559440Y-85386193D01*
X106568732Y-85357596D01*
X106568732Y-85357595D01*
X106568733Y-85357592D01*
X106599500Y-85163338D01*
X106599500Y-84966662D01*
X106568733Y-84772408D01*
X106568732Y-84772404D01*
X106568732Y-84772403D01*
X106507958Y-84585360D01*
X106475077Y-84520827D01*
X106418668Y-84410119D01*
X106315511Y-84268135D01*
X108600500Y-84268135D01*
X108600500Y-85861870D01*
X108600501Y-85861876D01*
X108606908Y-85921483D01*
X108657202Y-86056328D01*
X108657206Y-86056335D01*
X108743452Y-86171544D01*
X108743455Y-86171547D01*
X108858664Y-86257793D01*
X108858671Y-86257797D01*
X108993517Y-86308091D01*
X108993516Y-86308091D01*
X109000444Y-86308835D01*
X109053127Y-86314500D01*
X110646872Y-86314499D01*
X110706483Y-86308091D01*
X110841331Y-86257796D01*
X110956546Y-86171546D01*
X111042796Y-86056331D01*
X111093091Y-85921483D01*
X111099500Y-85861873D01*
X111099499Y-84268128D01*
X111093091Y-84208517D01*
X111086409Y-84190602D01*
X111042797Y-84073671D01*
X111042793Y-84073664D01*
X110956547Y-83958455D01*
X110956544Y-83958452D01*
X110841335Y-83872206D01*
X110841328Y-83872202D01*
X110706482Y-83821908D01*
X110706483Y-83821908D01*
X110646883Y-83815501D01*
X110646881Y-83815500D01*
X110646873Y-83815500D01*
X110646864Y-83815500D01*
X109053129Y-83815500D01*
X109053123Y-83815501D01*
X108993516Y-83821908D01*
X108858671Y-83872202D01*
X108858664Y-83872206D01*
X108743455Y-83958452D01*
X108743452Y-83958455D01*
X108657206Y-84073664D01*
X108657202Y-84073671D01*
X108606908Y-84208517D01*
X108600501Y-84268116D01*
X108600501Y-84268123D01*
X108600500Y-84268135D01*
X106315511Y-84268135D01*
X106303065Y-84251005D01*
X106163995Y-84111935D01*
X106037712Y-84020185D01*
X106001614Y-83993958D01*
X105958949Y-83938628D01*
X105950500Y-83893640D01*
X105950500Y-82998704D01*
X105970185Y-82931665D01*
X106001614Y-82898386D01*
X106063995Y-82853065D01*
X106203065Y-82713995D01*
X106318668Y-82554881D01*
X106407957Y-82379642D01*
X106412772Y-82364824D01*
X106468732Y-82192596D01*
X106468732Y-82192595D01*
X106468733Y-82192592D01*
X106499500Y-81998338D01*
X106499500Y-81801662D01*
X108500500Y-81801662D01*
X108500500Y-81998337D01*
X108531267Y-82192593D01*
X108531267Y-82192596D01*
X108592041Y-82379639D01*
X108666829Y-82526418D01*
X108681332Y-82554881D01*
X108796935Y-82713995D01*
X108936005Y-82853065D01*
X109095119Y-82968668D01*
X109154068Y-82998704D01*
X109270360Y-83057958D01*
X109457404Y-83118732D01*
X109457405Y-83118732D01*
X109457408Y-83118733D01*
X109651662Y-83149500D01*
X109651663Y-83149500D01*
X109848337Y-83149500D01*
X109848338Y-83149500D01*
X110042592Y-83118733D01*
X110042595Y-83118732D01*
X110042596Y-83118732D01*
X110229639Y-83057958D01*
X110229639Y-83057957D01*
X110229642Y-83057957D01*
X110404881Y-82968668D01*
X110563995Y-82853065D01*
X110703065Y-82713995D01*
X110818668Y-82554881D01*
X110907957Y-82379642D01*
X110912772Y-82364824D01*
X110968732Y-82192596D01*
X110968732Y-82192595D01*
X110968733Y-82192592D01*
X110999500Y-81998338D01*
X110999500Y-81801662D01*
X110968733Y-81607408D01*
X110968732Y-81607404D01*
X110968732Y-81607403D01*
X110907958Y-81420360D01*
X110818667Y-81245118D01*
X110770764Y-81179185D01*
X110703065Y-81086005D01*
X110563995Y-80946935D01*
X110404881Y-80831332D01*
X110229639Y-80742041D01*
X110042595Y-80681267D01*
X109896901Y-80658191D01*
X109848338Y-80650500D01*
X109651662Y-80650500D01*
X109586910Y-80660755D01*
X109457406Y-80681267D01*
X109457403Y-80681267D01*
X109270360Y-80742041D01*
X109095118Y-80831332D01*
X108936002Y-80946937D01*
X108796937Y-81086002D01*
X108681332Y-81245118D01*
X108592041Y-81420360D01*
X108531267Y-81607403D01*
X108531267Y-81607406D01*
X108500500Y-81801662D01*
X106499500Y-81801662D01*
X106468733Y-81607408D01*
X106468732Y-81607404D01*
X106468732Y-81607403D01*
X106407958Y-81420360D01*
X106318667Y-81245118D01*
X106270764Y-81179185D01*
X106203065Y-81086005D01*
X106063995Y-80946935D01*
X106051612Y-80937938D01*
X106008948Y-80882608D01*
X106000500Y-80837622D01*
X106000500Y-77821153D01*
X107599500Y-77821153D01*
X107599500Y-77978846D01*
X107630261Y-78133489D01*
X107630264Y-78133501D01*
X107690602Y-78279172D01*
X107690609Y-78279185D01*
X107778210Y-78410288D01*
X107778213Y-78410292D01*
X107889707Y-78521786D01*
X107889711Y-78521789D01*
X108020814Y-78609390D01*
X108020827Y-78609397D01*
X108120060Y-78650500D01*
X108166503Y-78669737D01*
X108259599Y-78688255D01*
X108321153Y-78700499D01*
X108321156Y-78700500D01*
X108321158Y-78700500D01*
X108478844Y-78700500D01*
X108478845Y-78700499D01*
X108555152Y-78685320D01*
X108633488Y-78669739D01*
X108633489Y-78669738D01*
X108633497Y-78669737D01*
X108657155Y-78659937D01*
X108704604Y-78650500D01*
X109434155Y-78650500D01*
X109501194Y-78670185D01*
X109546949Y-78722989D01*
X109556893Y-78792147D01*
X109548716Y-78821952D01*
X109530264Y-78866498D01*
X109530261Y-78866510D01*
X109499500Y-79021153D01*
X109499500Y-79178846D01*
X109530261Y-79333489D01*
X109530264Y-79333501D01*
X109590602Y-79479172D01*
X109590609Y-79479185D01*
X109678210Y-79610288D01*
X109678213Y-79610292D01*
X109789707Y-79721786D01*
X109789711Y-79721789D01*
X109920814Y-79809390D01*
X109920827Y-79809397D01*
X110066498Y-79869735D01*
X110066503Y-79869737D01*
X110221153Y-79900499D01*
X110221156Y-79900500D01*
X110221158Y-79900500D01*
X110378844Y-79900500D01*
X110378845Y-79900499D01*
X110533497Y-79869737D01*
X110679179Y-79809394D01*
X110736044Y-79771397D01*
X110802721Y-79750520D01*
X110804935Y-79750500D01*
X112379192Y-79750500D01*
X112446231Y-79770185D01*
X112466873Y-79786819D01*
X121617873Y-88937819D01*
X121651358Y-88999142D01*
X121646374Y-89068834D01*
X121604502Y-89124767D01*
X121539038Y-89149184D01*
X121530192Y-89149500D01*
X111550929Y-89149500D01*
X111425261Y-89174497D01*
X111425255Y-89174499D01*
X111306874Y-89223534D01*
X111200326Y-89294726D01*
X110192614Y-90302438D01*
X110131291Y-90335923D01*
X110085535Y-90337230D01*
X109948338Y-90315500D01*
X109751662Y-90315500D01*
X109713818Y-90321494D01*
X109557406Y-90346267D01*
X109557403Y-90346267D01*
X109370360Y-90407041D01*
X109195118Y-90496332D01*
X109036002Y-90611937D01*
X108896937Y-90751002D01*
X108781332Y-90910118D01*
X108692041Y-91085360D01*
X108631267Y-91272403D01*
X108631267Y-91272406D01*
X108600500Y-91466662D01*
X108600500Y-91663337D01*
X108631267Y-91857593D01*
X108631267Y-91857596D01*
X108692041Y-92044639D01*
X108758208Y-92174497D01*
X108781332Y-92219881D01*
X108896935Y-92378995D01*
X109036005Y-92518065D01*
X109195119Y-92633668D01*
X109265781Y-92669672D01*
X109370360Y-92722958D01*
X109557404Y-92783732D01*
X109557405Y-92783732D01*
X109557408Y-92783733D01*
X109751662Y-92814500D01*
X109751663Y-92814500D01*
X109948337Y-92814500D01*
X109948338Y-92814500D01*
X110142592Y-92783733D01*
X110142595Y-92783732D01*
X110142596Y-92783732D01*
X110329639Y-92722958D01*
X110329639Y-92722957D01*
X110329642Y-92722957D01*
X110504881Y-92633668D01*
X110663995Y-92518065D01*
X110803065Y-92378995D01*
X110918668Y-92219881D01*
X111007957Y-92044642D01*
X111007958Y-92044639D01*
X111068732Y-91857596D01*
X111068732Y-91857595D01*
X111068733Y-91857592D01*
X111099500Y-91663338D01*
X111099500Y-91466662D01*
X111090572Y-91410292D01*
X111077770Y-91329461D01*
X111086725Y-91260168D01*
X111112562Y-91222383D01*
X111848127Y-90486819D01*
X111909450Y-90453334D01*
X111935808Y-90450500D01*
X121630191Y-90450500D01*
X121697230Y-90470185D01*
X121742985Y-90522989D01*
X121752929Y-90592147D01*
X121723904Y-90655703D01*
X121717872Y-90662181D01*
X112016873Y-100363181D01*
X111955550Y-100396666D01*
X111929192Y-100399500D01*
X110985032Y-100399500D01*
X110917993Y-100379815D01*
X110884714Y-100348385D01*
X110803067Y-100236008D01*
X110803062Y-100236002D01*
X110663997Y-100096937D01*
X110663995Y-100096935D01*
X110504881Y-99981332D01*
X110426705Y-99941499D01*
X110329639Y-99892041D01*
X110142595Y-99831267D01*
X109982508Y-99805912D01*
X109948338Y-99800500D01*
X109751662Y-99800500D01*
X109717480Y-99805914D01*
X109557406Y-99831267D01*
X109557403Y-99831267D01*
X109370360Y-99892041D01*
X109195118Y-99981332D01*
X109036002Y-100096937D01*
X108896937Y-100236002D01*
X108781332Y-100395118D01*
X108692041Y-100570360D01*
X108631267Y-100757403D01*
X108631267Y-100757406D01*
X108600500Y-100951662D01*
X108600500Y-101148337D01*
X108631267Y-101342593D01*
X108631267Y-101342596D01*
X108692041Y-101529639D01*
X108735960Y-101615834D01*
X108781332Y-101704881D01*
X108896935Y-101863995D01*
X109036005Y-102003065D01*
X109195119Y-102118668D01*
X109333477Y-102189165D01*
X109370360Y-102207958D01*
X109557404Y-102268732D01*
X109557405Y-102268732D01*
X109557408Y-102268733D01*
X109751662Y-102299500D01*
X109751663Y-102299500D01*
X109948337Y-102299500D01*
X109948338Y-102299500D01*
X110142592Y-102268733D01*
X110142595Y-102268732D01*
X110142596Y-102268732D01*
X110329639Y-102207958D01*
X110329639Y-102207957D01*
X110329642Y-102207957D01*
X110504881Y-102118668D01*
X110663995Y-102003065D01*
X110803065Y-101863995D01*
X110884714Y-101751615D01*
X110940044Y-101708949D01*
X110985032Y-101700500D01*
X112314071Y-101700500D01*
X112398615Y-101683682D01*
X112439744Y-101675501D01*
X112558127Y-101626465D01*
X112664669Y-101555277D01*
X122433127Y-91786819D01*
X122494450Y-91753334D01*
X122520808Y-91750500D01*
X125395065Y-91750500D01*
X125462104Y-91770185D01*
X125463909Y-91771366D01*
X125520821Y-91809394D01*
X125520823Y-91809395D01*
X125520827Y-91809397D01*
X125666498Y-91869735D01*
X125666503Y-91869737D01*
X125821153Y-91900499D01*
X125821156Y-91900500D01*
X125821158Y-91900500D01*
X125978844Y-91900500D01*
X125978845Y-91900499D01*
X126133497Y-91869737D01*
X126246166Y-91823067D01*
X126279172Y-91809397D01*
X126279172Y-91809396D01*
X126279179Y-91809394D01*
X126410289Y-91721789D01*
X126521789Y-91610289D01*
X126609394Y-91479179D01*
X126669737Y-91333497D01*
X126700500Y-91178842D01*
X126700500Y-91021158D01*
X126700500Y-91021155D01*
X126700499Y-91021153D01*
X126669737Y-90866503D01*
X126637929Y-90789711D01*
X126609397Y-90720827D01*
X126609390Y-90720814D01*
X126521789Y-90589711D01*
X126521786Y-90589707D01*
X126410292Y-90478213D01*
X126410288Y-90478210D01*
X126279185Y-90390609D01*
X126279172Y-90390602D01*
X126133501Y-90330264D01*
X126133489Y-90330261D01*
X125972868Y-90298311D01*
X125973239Y-90296443D01*
X125916653Y-90273592D01*
X125876296Y-90216557D01*
X125873182Y-90146756D01*
X125890497Y-90107461D01*
X125909389Y-90079187D01*
X125909390Y-90079184D01*
X125909394Y-90079179D01*
X125969737Y-89933497D01*
X126000500Y-89778842D01*
X126000500Y-89621158D01*
X126000500Y-89619808D01*
X126020185Y-89552769D01*
X126072989Y-89507014D01*
X126142147Y-89497070D01*
X126205703Y-89526095D01*
X126212181Y-89532127D01*
X138085325Y-101405272D01*
X138085332Y-101405278D01*
X138174219Y-101464670D01*
X138174220Y-101464670D01*
X138191873Y-101476465D01*
X138310256Y-101525501D01*
X138310260Y-101525501D01*
X138310261Y-101525502D01*
X138435928Y-101550500D01*
X138435931Y-101550500D01*
X149664071Y-101550500D01*
X149748615Y-101533682D01*
X149789744Y-101525501D01*
X149908127Y-101476465D01*
X149925780Y-101464670D01*
X149925781Y-101464670D01*
X149992295Y-101420226D01*
X150014669Y-101405277D01*
X150745625Y-100674318D01*
X150806948Y-100640834D01*
X150833306Y-100638000D01*
X151046286Y-100638000D01*
X151046287Y-100638000D01*
X151256243Y-100604746D01*
X151458412Y-100539057D01*
X151647816Y-100442551D01*
X151713101Y-100395119D01*
X151819786Y-100317609D01*
X151819788Y-100317606D01*
X151819792Y-100317604D01*
X151970104Y-100167292D01*
X151970106Y-100167288D01*
X151970109Y-100167286D01*
X152095048Y-99995320D01*
X152095047Y-99995320D01*
X152095051Y-99995316D01*
X152099514Y-99986554D01*
X152147488Y-99935759D01*
X152215308Y-99918963D01*
X152281444Y-99941499D01*
X152320486Y-99986556D01*
X152324951Y-99995320D01*
X152449890Y-100167286D01*
X152600213Y-100317609D01*
X152772179Y-100442548D01*
X152772181Y-100442549D01*
X152772184Y-100442551D01*
X152961588Y-100539057D01*
X153163757Y-100604746D01*
X153373713Y-100638000D01*
X153373714Y-100638000D01*
X153586286Y-100638000D01*
X153586287Y-100638000D01*
X153796243Y-100604746D01*
X153998412Y-100539057D01*
X154187816Y-100442551D01*
X154253101Y-100395119D01*
X154359786Y-100317609D01*
X154359788Y-100317606D01*
X154359792Y-100317604D01*
X154510104Y-100167292D01*
X154510106Y-100167288D01*
X154510109Y-100167286D01*
X154635048Y-99995320D01*
X154635047Y-99995320D01*
X154635051Y-99995316D01*
X154639514Y-99986554D01*
X154687488Y-99935759D01*
X154755308Y-99918963D01*
X154821444Y-99941499D01*
X154860486Y-99986556D01*
X154864951Y-99995320D01*
X154989890Y-100167286D01*
X155140213Y-100317609D01*
X155312179Y-100442548D01*
X155312181Y-100442549D01*
X155312184Y-100442551D01*
X155501588Y-100539057D01*
X155703757Y-100604746D01*
X155913713Y-100638000D01*
X155913714Y-100638000D01*
X156126286Y-100638000D01*
X156126287Y-100638000D01*
X156336243Y-100604746D01*
X156538412Y-100539057D01*
X156727816Y-100442551D01*
X156793101Y-100395119D01*
X156899786Y-100317609D01*
X156899788Y-100317606D01*
X156899792Y-100317604D01*
X157050104Y-100167292D01*
X157050106Y-100167288D01*
X157050109Y-100167286D01*
X157175048Y-99995320D01*
X157175047Y-99995320D01*
X157175051Y-99995316D01*
X157179514Y-99986554D01*
X157227488Y-99935759D01*
X157295308Y-99918963D01*
X157361444Y-99941499D01*
X157400486Y-99986556D01*
X157404951Y-99995320D01*
X157529890Y-100167286D01*
X157680213Y-100317609D01*
X157852179Y-100442548D01*
X157852181Y-100442549D01*
X157852184Y-100442551D01*
X158041588Y-100539057D01*
X158243757Y-100604746D01*
X158453713Y-100638000D01*
X158453714Y-100638000D01*
X158666286Y-100638000D01*
X158666287Y-100638000D01*
X158876243Y-100604746D01*
X159078412Y-100539057D01*
X159267816Y-100442551D01*
X159333101Y-100395119D01*
X159439786Y-100317609D01*
X159439788Y-100317606D01*
X159439792Y-100317604D01*
X159590104Y-100167292D01*
X159590106Y-100167288D01*
X159590109Y-100167286D01*
X159715048Y-99995320D01*
X159715047Y-99995320D01*
X159715051Y-99995316D01*
X159719514Y-99986554D01*
X159767488Y-99935759D01*
X159835308Y-99918963D01*
X159901444Y-99941499D01*
X159940486Y-99986556D01*
X159944951Y-99995320D01*
X160069890Y-100167286D01*
X160220213Y-100317609D01*
X160392179Y-100442548D01*
X160392181Y-100442549D01*
X160392184Y-100442551D01*
X160581588Y-100539057D01*
X160783757Y-100604746D01*
X160993713Y-100638000D01*
X160993714Y-100638000D01*
X161206286Y-100638000D01*
X161206287Y-100638000D01*
X161416243Y-100604746D01*
X161618412Y-100539057D01*
X161807816Y-100442551D01*
X161873101Y-100395119D01*
X161979786Y-100317609D01*
X161979788Y-100317606D01*
X161979792Y-100317604D01*
X162130104Y-100167292D01*
X162130106Y-100167288D01*
X162130109Y-100167286D01*
X162255048Y-99995320D01*
X162255047Y-99995320D01*
X162255051Y-99995316D01*
X162259514Y-99986554D01*
X162307488Y-99935759D01*
X162375308Y-99918963D01*
X162441444Y-99941499D01*
X162480486Y-99986556D01*
X162484951Y-99995320D01*
X162609890Y-100167286D01*
X162760213Y-100317609D01*
X162932179Y-100442548D01*
X162932181Y-100442549D01*
X162932184Y-100442551D01*
X163121588Y-100539057D01*
X163323757Y-100604746D01*
X163533713Y-100638000D01*
X163533714Y-100638000D01*
X163746286Y-100638000D01*
X163746287Y-100638000D01*
X163956243Y-100604746D01*
X164158412Y-100539057D01*
X164347816Y-100442551D01*
X164519792Y-100317604D01*
X164633329Y-100204066D01*
X164694648Y-100170584D01*
X164764340Y-100175568D01*
X164820274Y-100217439D01*
X164837189Y-100248417D01*
X164886202Y-100379828D01*
X164886206Y-100379835D01*
X164972452Y-100495044D01*
X164972455Y-100495047D01*
X165087664Y-100581293D01*
X165087671Y-100581297D01*
X165222517Y-100631591D01*
X165222516Y-100631591D01*
X165229444Y-100632335D01*
X165282127Y-100638000D01*
X167077872Y-100637999D01*
X167137483Y-100631591D01*
X167272331Y-100581296D01*
X167387546Y-100495046D01*
X167473796Y-100379831D01*
X167524091Y-100244983D01*
X167530500Y-100185373D01*
X167530499Y-98389628D01*
X167524091Y-98330017D01*
X167522810Y-98326583D01*
X167473797Y-98195171D01*
X167473793Y-98195164D01*
X167387547Y-98079955D01*
X167387544Y-98079952D01*
X167272335Y-97993706D01*
X167272328Y-97993702D01*
X167181167Y-97959702D01*
X167125233Y-97917831D01*
X167100816Y-97852367D01*
X167100500Y-97843520D01*
X167100500Y-95481857D01*
X167120185Y-95414818D01*
X167136819Y-95394176D01*
X167137009Y-95393986D01*
X167145859Y-95385136D01*
X167254523Y-95235572D01*
X167338452Y-95070852D01*
X167338453Y-95070849D01*
X167395580Y-94895030D01*
X167424500Y-94712440D01*
X167424500Y-94527559D01*
X167395580Y-94344969D01*
X167338453Y-94169150D01*
X167338452Y-94169147D01*
X167288116Y-94070358D01*
X167254523Y-94004428D01*
X167175106Y-93895119D01*
X167145864Y-93854870D01*
X167145860Y-93854865D01*
X167015134Y-93724139D01*
X167015129Y-93724135D01*
X166942650Y-93671476D01*
X166899984Y-93616146D01*
X166895763Y-93603262D01*
X166859577Y-93468215D01*
X166806605Y-93376465D01*
X166780520Y-93331284D01*
X166668716Y-93219480D01*
X166668713Y-93219478D01*
X166118907Y-92669672D01*
X166092027Y-92629444D01*
X166076465Y-92591873D01*
X166055394Y-92560338D01*
X166005277Y-92485331D01*
X166005271Y-92485324D01*
X165814673Y-92294726D01*
X165814669Y-92294723D01*
X165708127Y-92223535D01*
X165699305Y-92219881D01*
X165589744Y-92174499D01*
X165589738Y-92174497D01*
X165464071Y-92149500D01*
X165464069Y-92149500D01*
X159024500Y-92149500D01*
X158957461Y-92129815D01*
X158911706Y-92077011D01*
X158900500Y-92025500D01*
X158900500Y-91921155D01*
X158900499Y-91921153D01*
X158896391Y-91900499D01*
X158869737Y-91766503D01*
X158864282Y-91753334D01*
X158809397Y-91620827D01*
X158809390Y-91620814D01*
X158721789Y-91489711D01*
X158721786Y-91489707D01*
X158610292Y-91378213D01*
X158610288Y-91378210D01*
X158479185Y-91290609D01*
X158479172Y-91290602D01*
X158333501Y-91230264D01*
X158333489Y-91230261D01*
X158178845Y-91199500D01*
X158178842Y-91199500D01*
X158021158Y-91199500D01*
X158021155Y-91199500D01*
X157866510Y-91230261D01*
X157866498Y-91230264D01*
X157720827Y-91290602D01*
X157720820Y-91290606D01*
X157691928Y-91309911D01*
X157663955Y-91328602D01*
X157597279Y-91349480D01*
X157595065Y-91349500D01*
X156474500Y-91349500D01*
X156407461Y-91329815D01*
X156361706Y-91277011D01*
X156350500Y-91225500D01*
X156350500Y-87800844D01*
X156370185Y-87733805D01*
X156422989Y-87688050D01*
X156492147Y-87678106D01*
X156521944Y-87686280D01*
X156566503Y-87704737D01*
X156694820Y-87730261D01*
X156721153Y-87735499D01*
X156721156Y-87735500D01*
X156721158Y-87735500D01*
X156878844Y-87735500D01*
X156878845Y-87735499D01*
X157033497Y-87704737D01*
X157128048Y-87665572D01*
X157197517Y-87658104D01*
X157259996Y-87689379D01*
X157295648Y-87749468D01*
X157299500Y-87780134D01*
X157299500Y-89374684D01*
X157290061Y-89422136D01*
X157230264Y-89566498D01*
X157230261Y-89566510D01*
X157199500Y-89721153D01*
X157199500Y-89878846D01*
X157230261Y-90033489D01*
X157230264Y-90033501D01*
X157290602Y-90179172D01*
X157290609Y-90179185D01*
X157378210Y-90310288D01*
X157378213Y-90310292D01*
X157489707Y-90421786D01*
X157489711Y-90421789D01*
X157620814Y-90509390D01*
X157620827Y-90509397D01*
X157766498Y-90569735D01*
X157766503Y-90569737D01*
X157892593Y-90594818D01*
X157921153Y-90600499D01*
X157921156Y-90600500D01*
X157921158Y-90600500D01*
X158078844Y-90600500D01*
X158078845Y-90600499D01*
X158233497Y-90569737D01*
X158379179Y-90509394D01*
X158510289Y-90421789D01*
X158621789Y-90310289D01*
X158709394Y-90179179D01*
X158769737Y-90033497D01*
X158800500Y-89878842D01*
X158800500Y-89721158D01*
X158800500Y-89721155D01*
X158800499Y-89721153D01*
X158797209Y-89704612D01*
X158769737Y-89566503D01*
X158709939Y-89422136D01*
X158700500Y-89374684D01*
X158700500Y-87759500D01*
X158720185Y-87692461D01*
X158772989Y-87646706D01*
X158824500Y-87635500D01*
X166033996Y-87635500D01*
X166125040Y-87617389D01*
X166169328Y-87608580D01*
X166233069Y-87582177D01*
X166296807Y-87555777D01*
X166296808Y-87555776D01*
X166296811Y-87555775D01*
X166411543Y-87479114D01*
X168744113Y-85146543D01*
X168744114Y-85146542D01*
X168820775Y-85031811D01*
X168873580Y-84904328D01*
X168876310Y-84890606D01*
X168876311Y-84890603D01*
X168887185Y-84835934D01*
X168887185Y-84835931D01*
X168900500Y-84768993D01*
X168900500Y-83931007D01*
X168900500Y-83931004D01*
X168892956Y-83893085D01*
X168877524Y-83815500D01*
X168873580Y-83795671D01*
X168838213Y-83710289D01*
X168820775Y-83668189D01*
X168820773Y-83668187D01*
X168820773Y-83668185D01*
X168744114Y-83553458D01*
X168744111Y-83553454D01*
X168705130Y-83514474D01*
X168705127Y-83514469D01*
X168546545Y-83355887D01*
X168431807Y-83279222D01*
X168304332Y-83226421D01*
X168304322Y-83226418D01*
X168168996Y-83199500D01*
X168168994Y-83199500D01*
X168168993Y-83199500D01*
X168025316Y-83199500D01*
X167977864Y-83190061D01*
X167833501Y-83130264D01*
X167833489Y-83130261D01*
X167678845Y-83099500D01*
X167678842Y-83099500D01*
X167521158Y-83099500D01*
X167521155Y-83099500D01*
X167366510Y-83130261D01*
X167366498Y-83130264D01*
X167220827Y-83190602D01*
X167220814Y-83190609D01*
X167089711Y-83278210D01*
X167089707Y-83278213D01*
X166978213Y-83389707D01*
X166978210Y-83389711D01*
X166890609Y-83520814D01*
X166890602Y-83520827D01*
X166830264Y-83666498D01*
X166830261Y-83666510D01*
X166799500Y-83821153D01*
X166799500Y-83978846D01*
X166830261Y-84133489D01*
X166830264Y-84133501D01*
X166890602Y-84279172D01*
X166890609Y-84279185D01*
X166978210Y-84410288D01*
X166978213Y-84410292D01*
X167089707Y-84521786D01*
X167089711Y-84521789D01*
X167142624Y-84557145D01*
X167187429Y-84610757D01*
X167196136Y-84680082D01*
X167165981Y-84743110D01*
X167161414Y-84747928D01*
X165711162Y-86198181D01*
X165649839Y-86231666D01*
X165623481Y-86234500D01*
X157225316Y-86234500D01*
X157177864Y-86225061D01*
X157033501Y-86165264D01*
X157033489Y-86165261D01*
X156878845Y-86134500D01*
X156878842Y-86134500D01*
X156721158Y-86134500D01*
X156721155Y-86134500D01*
X156566510Y-86165261D01*
X156566498Y-86165264D01*
X156521952Y-86183716D01*
X156452483Y-86191185D01*
X156390004Y-86159909D01*
X156354352Y-86099820D01*
X156350500Y-86069155D01*
X156350500Y-84899935D01*
X156370185Y-84832896D01*
X156371366Y-84831090D01*
X156409394Y-84774179D01*
X156469737Y-84628497D01*
X156500500Y-84473842D01*
X156500500Y-84316158D01*
X156500500Y-84316155D01*
X156500499Y-84316153D01*
X156496813Y-84297623D01*
X156469737Y-84161503D01*
X156432643Y-84071951D01*
X156425175Y-84002483D01*
X156456450Y-83940004D01*
X156516539Y-83904352D01*
X156547205Y-83900500D01*
X157444453Y-83900500D01*
X157511492Y-83920185D01*
X157532134Y-83936819D01*
X158796914Y-85201599D01*
X158823794Y-85241828D01*
X158883588Y-85386186D01*
X158883595Y-85386199D01*
X158971196Y-85517302D01*
X158971199Y-85517306D01*
X159082693Y-85628800D01*
X159082697Y-85628803D01*
X159213800Y-85716404D01*
X159213813Y-85716411D01*
X159342845Y-85769857D01*
X159359489Y-85776751D01*
X159514139Y-85807513D01*
X159514142Y-85807514D01*
X159514144Y-85807514D01*
X159671830Y-85807514D01*
X159671831Y-85807513D01*
X159826483Y-85776751D01*
X159939152Y-85730081D01*
X159972158Y-85716411D01*
X159972158Y-85716410D01*
X159972165Y-85716408D01*
X160103275Y-85628803D01*
X160214775Y-85517303D01*
X160302380Y-85386193D01*
X160362723Y-85240511D01*
X160393486Y-85085856D01*
X160393486Y-84928172D01*
X160393486Y-84928169D01*
X160393485Y-84928167D01*
X160388743Y-84904328D01*
X160362723Y-84773517D01*
X160350128Y-84743110D01*
X160302383Y-84627841D01*
X160302376Y-84627828D01*
X160214775Y-84496725D01*
X160214772Y-84496721D01*
X160103278Y-84385227D01*
X160103274Y-84385224D01*
X159972171Y-84297623D01*
X159972158Y-84297616D01*
X159827800Y-84237822D01*
X159787571Y-84210942D01*
X158232518Y-82655888D01*
X158232517Y-82655887D01*
X158117779Y-82579222D01*
X157990304Y-82526421D01*
X157990294Y-82526418D01*
X157854968Y-82499500D01*
X157854966Y-82499500D01*
X157854965Y-82499500D01*
X147725316Y-82499500D01*
X147677864Y-82490061D01*
X147533501Y-82430264D01*
X147533489Y-82430261D01*
X147378845Y-82399500D01*
X147378842Y-82399500D01*
X147221158Y-82399500D01*
X147221155Y-82399500D01*
X147148691Y-82413914D01*
X147079100Y-82407687D01*
X147023922Y-82364824D01*
X147000678Y-82298934D01*
X147000500Y-82292297D01*
X147000500Y-75566114D01*
X147020185Y-75499075D01*
X147072989Y-75453320D01*
X147142147Y-75443376D01*
X147205703Y-75472401D01*
X147241531Y-75526439D01*
X147241582Y-75526419D01*
X147241688Y-75526677D01*
X147242430Y-75527795D01*
X147243443Y-75530912D01*
X147243444Y-75530915D01*
X147243445Y-75530916D01*
X147339951Y-75720320D01*
X147464890Y-75892286D01*
X147558181Y-75985577D01*
X147591666Y-76046900D01*
X147594500Y-76073258D01*
X147594500Y-78546551D01*
X147574815Y-78613590D01*
X147570818Y-78619436D01*
X147465479Y-78764423D01*
X147381547Y-78929147D01*
X147381546Y-78929150D01*
X147324419Y-79104969D01*
X147295500Y-79287559D01*
X147295500Y-79472440D01*
X147324419Y-79655030D01*
X147381546Y-79830849D01*
X147381547Y-79830852D01*
X147465479Y-79995575D01*
X147574135Y-80145129D01*
X147574139Y-80145134D01*
X147704865Y-80275860D01*
X147704870Y-80275864D01*
X147787399Y-80335824D01*
X147854428Y-80384523D01*
X147962106Y-80439388D01*
X148019147Y-80468452D01*
X148019150Y-80468453D01*
X148194969Y-80525580D01*
X148377560Y-80554500D01*
X148377565Y-80554500D01*
X148562440Y-80554500D01*
X148745030Y-80525580D01*
X148920849Y-80468453D01*
X148920852Y-80468452D01*
X149085572Y-80384523D01*
X149235136Y-80275859D01*
X149365859Y-80145136D01*
X149474523Y-79995572D01*
X149558452Y-79830852D01*
X149615580Y-79655029D01*
X149617527Y-79642737D01*
X149647456Y-79579602D01*
X149706768Y-79542671D01*
X149776630Y-79543669D01*
X149834863Y-79582279D01*
X149862473Y-79642737D01*
X149864420Y-79655030D01*
X149921546Y-79830849D01*
X149921547Y-79830852D01*
X150005479Y-79995575D01*
X150114135Y-80145129D01*
X150114139Y-80145134D01*
X150244865Y-80275860D01*
X150244870Y-80275864D01*
X150327399Y-80335824D01*
X150394428Y-80384523D01*
X150502106Y-80439388D01*
X150559147Y-80468452D01*
X150559150Y-80468453D01*
X150734969Y-80525580D01*
X150917560Y-80554500D01*
X150917565Y-80554500D01*
X151102440Y-80554500D01*
X151285030Y-80525580D01*
X151460849Y-80468453D01*
X151460852Y-80468452D01*
X151625572Y-80384523D01*
X151775136Y-80275859D01*
X151905859Y-80145136D01*
X152014523Y-79995572D01*
X152098452Y-79830852D01*
X152155580Y-79655029D01*
X152157527Y-79642737D01*
X152187456Y-79579602D01*
X152246768Y-79542671D01*
X152316630Y-79543669D01*
X152374863Y-79582279D01*
X152402473Y-79642737D01*
X152404420Y-79655030D01*
X152461546Y-79830849D01*
X152461547Y-79830852D01*
X152545479Y-79995575D01*
X152654135Y-80145129D01*
X152654139Y-80145134D01*
X152784865Y-80275860D01*
X152784870Y-80275864D01*
X152867399Y-80335824D01*
X152934428Y-80384523D01*
X153042106Y-80439388D01*
X153099147Y-80468452D01*
X153099150Y-80468453D01*
X153274969Y-80525580D01*
X153457560Y-80554500D01*
X153457565Y-80554500D01*
X153642440Y-80554500D01*
X153825030Y-80525580D01*
X154000849Y-80468453D01*
X154000852Y-80468452D01*
X154165572Y-80384523D01*
X154315136Y-80275859D01*
X154445859Y-80145136D01*
X154554523Y-79995572D01*
X154638452Y-79830852D01*
X154695580Y-79655029D01*
X154697527Y-79642737D01*
X154727456Y-79579602D01*
X154786768Y-79542671D01*
X154856630Y-79543669D01*
X154914863Y-79582279D01*
X154942473Y-79642737D01*
X154944420Y-79655030D01*
X155001546Y-79830849D01*
X155001547Y-79830852D01*
X155085479Y-79995575D01*
X155194135Y-80145129D01*
X155194139Y-80145134D01*
X155324865Y-80275860D01*
X155324870Y-80275864D01*
X155407399Y-80335824D01*
X155474428Y-80384523D01*
X155582106Y-80439388D01*
X155639147Y-80468452D01*
X155639150Y-80468453D01*
X155814969Y-80525580D01*
X155997560Y-80554500D01*
X155997565Y-80554500D01*
X156182440Y-80554500D01*
X156365030Y-80525580D01*
X156540849Y-80468453D01*
X156540852Y-80468452D01*
X156705572Y-80384523D01*
X156855136Y-80275859D01*
X156985859Y-80145136D01*
X157094523Y-79995572D01*
X157178452Y-79830852D01*
X157235580Y-79655029D01*
X157237527Y-79642737D01*
X157267456Y-79579602D01*
X157326768Y-79542671D01*
X157396630Y-79543669D01*
X157454863Y-79582279D01*
X157482473Y-79642737D01*
X157484420Y-79655030D01*
X157541546Y-79830849D01*
X157541547Y-79830852D01*
X157625479Y-79995575D01*
X157734135Y-80145129D01*
X157734139Y-80145134D01*
X157867104Y-80278099D01*
X157900589Y-80339422D01*
X157895605Y-80409114D01*
X157892874Y-80415166D01*
X157892937Y-80415192D01*
X157830264Y-80566498D01*
X157830261Y-80566510D01*
X157799500Y-80721153D01*
X157799500Y-80878846D01*
X157830261Y-81033489D01*
X157830264Y-81033501D01*
X157890602Y-81179172D01*
X157890609Y-81179185D01*
X157978210Y-81310288D01*
X157978213Y-81310292D01*
X158089707Y-81421786D01*
X158089711Y-81421789D01*
X158220814Y-81509390D01*
X158220827Y-81509397D01*
X158366498Y-81569735D01*
X158366503Y-81569737D01*
X158521153Y-81600499D01*
X158521156Y-81600500D01*
X158521158Y-81600500D01*
X158678844Y-81600500D01*
X158678845Y-81600499D01*
X158833497Y-81569737D01*
X158979179Y-81509394D01*
X159036044Y-81471397D01*
X159054091Y-81465746D01*
X159070000Y-81455523D01*
X159100959Y-81451071D01*
X159102721Y-81450520D01*
X159104935Y-81450500D01*
X159179192Y-81450500D01*
X159246231Y-81470185D01*
X159266873Y-81486819D01*
X160282984Y-82502930D01*
X160316469Y-82564253D01*
X160316920Y-82566420D01*
X160330261Y-82633489D01*
X160330264Y-82633501D01*
X160390602Y-82779172D01*
X160390609Y-82779185D01*
X160478210Y-82910288D01*
X160478213Y-82910292D01*
X160589707Y-83021786D01*
X160589711Y-83021789D01*
X160720814Y-83109390D01*
X160720827Y-83109397D01*
X160817646Y-83149500D01*
X160866503Y-83169737D01*
X161016131Y-83199500D01*
X161021153Y-83200499D01*
X161021156Y-83200500D01*
X161021158Y-83200500D01*
X161178844Y-83200500D01*
X161178845Y-83200499D01*
X161333497Y-83169737D01*
X161446166Y-83123067D01*
X161479172Y-83109397D01*
X161479172Y-83109396D01*
X161479179Y-83109394D01*
X161610289Y-83021789D01*
X161721789Y-82910289D01*
X161809394Y-82779179D01*
X161869737Y-82633497D01*
X161900500Y-82478842D01*
X161900500Y-82321158D01*
X161900500Y-82321155D01*
X161900499Y-82321153D01*
X161874927Y-82192596D01*
X161869737Y-82166503D01*
X161869735Y-82166498D01*
X161809397Y-82020827D01*
X161809390Y-82020814D01*
X161721789Y-81889711D01*
X161721786Y-81889707D01*
X161610292Y-81778213D01*
X161610288Y-81778210D01*
X161479185Y-81690609D01*
X161479172Y-81690602D01*
X161333501Y-81630264D01*
X161333489Y-81630261D01*
X161266420Y-81616920D01*
X161204509Y-81584535D01*
X161202930Y-81582984D01*
X159914674Y-80294727D01*
X159914673Y-80294726D01*
X159808125Y-80223533D01*
X159692386Y-80175593D01*
X159637983Y-80131752D01*
X159615918Y-80065458D01*
X159632608Y-80000064D01*
X159632311Y-79999913D01*
X159632984Y-79998591D01*
X159633197Y-79997758D01*
X159634120Y-79996229D01*
X159634515Y-79995582D01*
X159634523Y-79995572D01*
X159718452Y-79830852D01*
X159775580Y-79655029D01*
X159777527Y-79642737D01*
X159807456Y-79579602D01*
X159866768Y-79542671D01*
X159936630Y-79543669D01*
X159994863Y-79582279D01*
X160022473Y-79642737D01*
X160024420Y-79655030D01*
X160081546Y-79830849D01*
X160081547Y-79830852D01*
X160165479Y-79995575D01*
X160274135Y-80145129D01*
X160274139Y-80145134D01*
X160404865Y-80275860D01*
X160404870Y-80275864D01*
X160487399Y-80335824D01*
X160554428Y-80384523D01*
X160662106Y-80439388D01*
X160719147Y-80468452D01*
X160719150Y-80468453D01*
X160894969Y-80525580D01*
X161077560Y-80554500D01*
X161077565Y-80554500D01*
X161262440Y-80554500D01*
X161445030Y-80525580D01*
X161620849Y-80468453D01*
X161620852Y-80468452D01*
X161785572Y-80384523D01*
X161935136Y-80275859D01*
X162065859Y-80145136D01*
X162174523Y-79995572D01*
X162258452Y-79830852D01*
X162315580Y-79655029D01*
X162317527Y-79642737D01*
X162347456Y-79579602D01*
X162406768Y-79542671D01*
X162476630Y-79543669D01*
X162534863Y-79582279D01*
X162562473Y-79642737D01*
X162564420Y-79655030D01*
X162621546Y-79830849D01*
X162621547Y-79830852D01*
X162705479Y-79995575D01*
X162814135Y-80145129D01*
X162814139Y-80145134D01*
X162944865Y-80275860D01*
X162944870Y-80275864D01*
X163027399Y-80335824D01*
X163094428Y-80384523D01*
X163202106Y-80439388D01*
X163259147Y-80468452D01*
X163259150Y-80468453D01*
X163434969Y-80525580D01*
X163617560Y-80554500D01*
X163617565Y-80554500D01*
X163802440Y-80554500D01*
X163985030Y-80525580D01*
X164160849Y-80468453D01*
X164160852Y-80468452D01*
X164325572Y-80384523D01*
X164475136Y-80275859D01*
X164605859Y-80145136D01*
X164714523Y-79995572D01*
X164798452Y-79830852D01*
X164855580Y-79655029D01*
X164857527Y-79642737D01*
X164887456Y-79579602D01*
X164946768Y-79542671D01*
X165016630Y-79543669D01*
X165074863Y-79582279D01*
X165102473Y-79642737D01*
X165104420Y-79655030D01*
X165161546Y-79830849D01*
X165161547Y-79830852D01*
X165245479Y-79995575D01*
X165354135Y-80145129D01*
X165354139Y-80145134D01*
X165484865Y-80275860D01*
X165484870Y-80275864D01*
X165567399Y-80335824D01*
X165634428Y-80384523D01*
X165742106Y-80439388D01*
X165799147Y-80468452D01*
X165799150Y-80468453D01*
X165974969Y-80525580D01*
X166157560Y-80554500D01*
X166157565Y-80554500D01*
X166342440Y-80554500D01*
X166525030Y-80525580D01*
X166700849Y-80468453D01*
X166700852Y-80468452D01*
X166865572Y-80384523D01*
X167015136Y-80275859D01*
X167145859Y-80145136D01*
X167254523Y-79995572D01*
X167338452Y-79830852D01*
X167364560Y-79750500D01*
X167395580Y-79655030D01*
X167424500Y-79472440D01*
X167424500Y-79287559D01*
X167395580Y-79104969D01*
X167338453Y-78929150D01*
X167338452Y-78929147D01*
X167273085Y-78800858D01*
X167254523Y-78764428D01*
X167215189Y-78710289D01*
X167199181Y-78688255D01*
X167175702Y-78622449D01*
X167175500Y-78615371D01*
X167175500Y-76463939D01*
X167195185Y-76396900D01*
X167247989Y-76351145D01*
X167256168Y-76347757D01*
X167367326Y-76306298D01*
X167367326Y-76306297D01*
X167367331Y-76306296D01*
X167482546Y-76220046D01*
X167568796Y-76104831D01*
X167619091Y-75969983D01*
X167625500Y-75910373D01*
X167625499Y-74114628D01*
X167619091Y-74055017D01*
X167617810Y-74051583D01*
X167568797Y-73920171D01*
X167568793Y-73920164D01*
X167482547Y-73804955D01*
X167482544Y-73804952D01*
X167367335Y-73718706D01*
X167367328Y-73718702D01*
X167232482Y-73668408D01*
X167232483Y-73668408D01*
X167172883Y-73662001D01*
X167172881Y-73662000D01*
X167172873Y-73662000D01*
X167172865Y-73662000D01*
X167049500Y-73662000D01*
X166982461Y-73642315D01*
X166936706Y-73589511D01*
X166925500Y-73538000D01*
X166925500Y-72510928D01*
X166900502Y-72385261D01*
X166900501Y-72385260D01*
X166900501Y-72385256D01*
X166851465Y-72266873D01*
X166835953Y-72243657D01*
X166833119Y-72239415D01*
X166780275Y-72160328D01*
X165014673Y-70394726D01*
X164908134Y-70323540D01*
X164908127Y-70323535D01*
X164904911Y-70322203D01*
X164789744Y-70274499D01*
X164789738Y-70274497D01*
X164664071Y-70249500D01*
X164664069Y-70249500D01*
X155465845Y-70249500D01*
X155398806Y-70229815D01*
X155353051Y-70177011D01*
X155343107Y-70107853D01*
X155351284Y-70078048D01*
X155369735Y-70033501D01*
X155369737Y-70033497D01*
X155400500Y-69878842D01*
X155400500Y-69721158D01*
X155400500Y-69721155D01*
X155400499Y-69721153D01*
X155398281Y-69710001D01*
X155369737Y-69566503D01*
X155369735Y-69566498D01*
X155309397Y-69420827D01*
X155309390Y-69420814D01*
X155221789Y-69289711D01*
X155221786Y-69289707D01*
X155110292Y-69178213D01*
X155110288Y-69178210D01*
X154979185Y-69090609D01*
X154979172Y-69090602D01*
X154833501Y-69030264D01*
X154833489Y-69030261D01*
X154766420Y-69016920D01*
X154749663Y-69008155D01*
X154731184Y-69004135D01*
X154706145Y-68985390D01*
X154704509Y-68984535D01*
X154702930Y-68982984D01*
X154582127Y-68862181D01*
X154548642Y-68800858D01*
X154553626Y-68731166D01*
X154595498Y-68675233D01*
X154660962Y-68650816D01*
X154669808Y-68650500D01*
X161733920Y-68650500D01*
X161831462Y-68631096D01*
X161878913Y-68621658D01*
X162015495Y-68565084D01*
X162080291Y-68521789D01*
X162080294Y-68521786D01*
X162080296Y-68521786D01*
X162109547Y-68502240D01*
X162138416Y-68482952D01*
X162314550Y-68306816D01*
X162375871Y-68273333D01*
X162402230Y-68270499D01*
X163330002Y-68270499D01*
X163330008Y-68270499D01*
X163432797Y-68259999D01*
X163599334Y-68204814D01*
X163748656Y-68112712D01*
X163872712Y-67988656D01*
X163964814Y-67839334D01*
X163964817Y-67839322D01*
X163965129Y-67838657D01*
X163965469Y-67838269D01*
X163968605Y-67833187D01*
X163969473Y-67833722D01*
X164011299Y-67786216D01*
X164078491Y-67767060D01*
X164145373Y-67787272D01*
X164165195Y-67803375D01*
X164307179Y-67945359D01*
X164481701Y-68072157D01*
X164673911Y-68170092D01*
X164879074Y-68236754D01*
X164958973Y-68249408D01*
X165092134Y-68270500D01*
X165092139Y-68270500D01*
X165307866Y-68270500D01*
X165426230Y-68251752D01*
X165520926Y-68236754D01*
X165726089Y-68170092D01*
X165918299Y-68072157D01*
X166092821Y-67945359D01*
X166245359Y-67792821D01*
X166372157Y-67618299D01*
X166470092Y-67426089D01*
X166536754Y-67220926D01*
X166555986Y-67099500D01*
X166570500Y-67007866D01*
X166570500Y-66792133D01*
X166536754Y-66579077D01*
X166536754Y-66579074D01*
X166470092Y-66373911D01*
X166372157Y-66181701D01*
X166245359Y-66007179D01*
X166092821Y-65854641D01*
X165918299Y-65727843D01*
X165726089Y-65629908D01*
X165520926Y-65563246D01*
X165520924Y-65563245D01*
X165520922Y-65563245D01*
X165307866Y-65529500D01*
X165307861Y-65529500D01*
X165092139Y-65529500D01*
X165092134Y-65529500D01*
X164879077Y-65563245D01*
X164879074Y-65563246D01*
X164688989Y-65625009D01*
X164673908Y-65629909D01*
X164481700Y-65727843D01*
X164307180Y-65854640D01*
X164165195Y-65996625D01*
X164103872Y-66030109D01*
X164034180Y-66025125D01*
X163978247Y-65983253D01*
X163965132Y-65961348D01*
X163964815Y-65960669D01*
X163964814Y-65960668D01*
X163964814Y-65960666D01*
X163872712Y-65811344D01*
X163748656Y-65687288D01*
X163599334Y-65595186D01*
X163432797Y-65540001D01*
X163432795Y-65540000D01*
X163330010Y-65529500D01*
X161989998Y-65529500D01*
X161989981Y-65529501D01*
X161887203Y-65540000D01*
X161887200Y-65540001D01*
X161720668Y-65595185D01*
X161720663Y-65595187D01*
X161571342Y-65687289D01*
X161447289Y-65811342D01*
X161355187Y-65960663D01*
X161355185Y-65960668D01*
X161336542Y-66016929D01*
X161300001Y-66127203D01*
X161300001Y-66127204D01*
X161300000Y-66127204D01*
X161289500Y-66229983D01*
X161289500Y-66229991D01*
X161289500Y-66636904D01*
X161289501Y-67025500D01*
X161269817Y-67092539D01*
X161217013Y-67138294D01*
X161165501Y-67149500D01*
X150104604Y-67149500D01*
X150057155Y-67140062D01*
X150033497Y-67130263D01*
X150033493Y-67130262D01*
X150033488Y-67130260D01*
X149878845Y-67099500D01*
X149878842Y-67099500D01*
X149721158Y-67099500D01*
X149721155Y-67099500D01*
X149566510Y-67130261D01*
X149566498Y-67130264D01*
X149420827Y-67190602D01*
X149420814Y-67190609D01*
X149289711Y-67278210D01*
X149289707Y-67278213D01*
X149178213Y-67389707D01*
X149178210Y-67389711D01*
X149090609Y-67520814D01*
X149090602Y-67520827D01*
X149030264Y-67666498D01*
X149030261Y-67666510D01*
X148999500Y-67821153D01*
X148999500Y-67978846D01*
X149030261Y-68133489D01*
X149030264Y-68133501D01*
X149090137Y-68278048D01*
X149097606Y-68347517D01*
X149066331Y-68409996D01*
X149006241Y-68445648D01*
X148975576Y-68449500D01*
X145193808Y-68449500D01*
X145126769Y-68429815D01*
X145106127Y-68413181D01*
X144786674Y-68093727D01*
X144786673Y-68093726D01*
X144786669Y-68093723D01*
X144680127Y-68022535D01*
X144561744Y-67973499D01*
X144561738Y-67973497D01*
X144436071Y-67948500D01*
X144436069Y-67948500D01*
X134819808Y-67948500D01*
X134752769Y-67928815D01*
X134732127Y-67912181D01*
X133886819Y-67066873D01*
X133853334Y-67005550D01*
X133850500Y-66979192D01*
X133850500Y-66175857D01*
X133859540Y-66145069D01*
X133867100Y-66113879D01*
X133869472Y-66111243D01*
X133870185Y-66108818D01*
X133888911Y-66086132D01*
X133894904Y-66080414D01*
X133916928Y-66064414D01*
X134025541Y-65955800D01*
X134026561Y-65954828D01*
X134056355Y-65939460D01*
X134085791Y-65923387D01*
X134087306Y-65923495D01*
X134088657Y-65922799D01*
X134122027Y-65925978D01*
X134155483Y-65928371D01*
X134156699Y-65929281D01*
X134158212Y-65929426D01*
X134184559Y-65950136D01*
X134211417Y-65970242D01*
X134212890Y-65972407D01*
X134213142Y-65972605D01*
X134213262Y-65972954D01*
X134217688Y-65979456D01*
X134257285Y-66043652D01*
X134257288Y-66043656D01*
X134381344Y-66167712D01*
X134530666Y-66259814D01*
X134697203Y-66314999D01*
X134799991Y-66325500D01*
X135600008Y-66325499D01*
X135600016Y-66325498D01*
X135600019Y-66325498D01*
X135656302Y-66319748D01*
X135702797Y-66314999D01*
X135869334Y-66259814D01*
X136018656Y-66167712D01*
X136142712Y-66043656D01*
X136234814Y-65894334D01*
X136289999Y-65727797D01*
X136300500Y-65625009D01*
X136300499Y-65077973D01*
X148199500Y-65077973D01*
X148199500Y-65322026D01*
X148236827Y-65557701D01*
X148237679Y-65563076D01*
X148313096Y-65795185D01*
X148421110Y-66007176D01*
X148423896Y-66012642D01*
X148567339Y-66210076D01*
X148567343Y-66210081D01*
X148739918Y-66382656D01*
X148739923Y-66382660D01*
X148912136Y-66507779D01*
X148937361Y-66526106D01*
X149154815Y-66636904D01*
X149386924Y-66712321D01*
X149627973Y-66750500D01*
X149627974Y-66750500D01*
X149872026Y-66750500D01*
X149872027Y-66750500D01*
X150113076Y-66712321D01*
X150345185Y-66636904D01*
X150562639Y-66526106D01*
X150760083Y-66382655D01*
X150932655Y-66210083D01*
X150995703Y-66123303D01*
X151051033Y-66080637D01*
X151120646Y-66074658D01*
X151168905Y-66095868D01*
X151294910Y-66187417D01*
X151456826Y-66269917D01*
X151456828Y-66269918D01*
X151595575Y-66314999D01*
X151629654Y-66326072D01*
X151809139Y-66354500D01*
X151809140Y-66354500D01*
X151990860Y-66354500D01*
X151990861Y-66354500D01*
X152170346Y-66326072D01*
X152170349Y-66326071D01*
X152170350Y-66326071D01*
X152343171Y-66269918D01*
X152343171Y-66269917D01*
X152343174Y-66269917D01*
X152505090Y-66187417D01*
X152652106Y-66080603D01*
X152780603Y-65952106D01*
X152799682Y-65925845D01*
X152855012Y-65883180D01*
X152924625Y-65877201D01*
X152986420Y-65909807D01*
X153000317Y-65925845D01*
X153019397Y-65952106D01*
X153147894Y-66080603D01*
X153294910Y-66187417D01*
X153456826Y-66269917D01*
X153456828Y-66269918D01*
X153595575Y-66314999D01*
X153629654Y-66326072D01*
X153809139Y-66354500D01*
X153809140Y-66354500D01*
X153990860Y-66354500D01*
X153990861Y-66354500D01*
X154170346Y-66326072D01*
X154170349Y-66326071D01*
X154170350Y-66326071D01*
X154343171Y-66269918D01*
X154343171Y-66269917D01*
X154343174Y-66269917D01*
X154505090Y-66187417D01*
X154652106Y-66080603D01*
X154780603Y-65952106D01*
X154799682Y-65925845D01*
X154855012Y-65883180D01*
X154924625Y-65877201D01*
X154986420Y-65909807D01*
X155000317Y-65925845D01*
X155019397Y-65952106D01*
X155147894Y-66080603D01*
X155294910Y-66187417D01*
X155456826Y-66269917D01*
X155456828Y-66269918D01*
X155595575Y-66314999D01*
X155629654Y-66326072D01*
X155809139Y-66354500D01*
X155809140Y-66354500D01*
X155990860Y-66354500D01*
X155990861Y-66354500D01*
X156170346Y-66326072D01*
X156170349Y-66326071D01*
X156170350Y-66326071D01*
X156343171Y-66269918D01*
X156343171Y-66269917D01*
X156343174Y-66269917D01*
X156505090Y-66187417D01*
X156631092Y-66095870D01*
X156696897Y-66072390D01*
X156764951Y-66088215D01*
X156804295Y-66123303D01*
X156867339Y-66210076D01*
X156867343Y-66210081D01*
X157039918Y-66382656D01*
X157039923Y-66382660D01*
X157212136Y-66507779D01*
X157237361Y-66526106D01*
X157454815Y-66636904D01*
X157686924Y-66712321D01*
X157927973Y-66750500D01*
X157927974Y-66750500D01*
X158172026Y-66750500D01*
X158172027Y-66750500D01*
X158413076Y-66712321D01*
X158645185Y-66636904D01*
X158862639Y-66526106D01*
X159060083Y-66382655D01*
X159232655Y-66210083D01*
X159376106Y-66012639D01*
X159486904Y-65795185D01*
X159562321Y-65563076D01*
X159600500Y-65322027D01*
X159600500Y-65077973D01*
X159562321Y-64836924D01*
X159486904Y-64604815D01*
X159376106Y-64387361D01*
X159326729Y-64319399D01*
X159232660Y-64189923D01*
X159232656Y-64189918D01*
X159060081Y-64017343D01*
X159060076Y-64017339D01*
X158862642Y-63873896D01*
X158862641Y-63873895D01*
X158862639Y-63873894D01*
X158645185Y-63763096D01*
X158413076Y-63687679D01*
X158413074Y-63687678D01*
X158413072Y-63687678D01*
X158244769Y-63661021D01*
X158172027Y-63649500D01*
X157927973Y-63649500D01*
X157872093Y-63658350D01*
X157686927Y-63687678D01*
X157686924Y-63687679D01*
X157457370Y-63762266D01*
X157454812Y-63763097D01*
X157237357Y-63873896D01*
X157039923Y-64017339D01*
X157039918Y-64017343D01*
X156867343Y-64189918D01*
X156804295Y-64276697D01*
X156748965Y-64319362D01*
X156679351Y-64325341D01*
X156631092Y-64304129D01*
X156505090Y-64212583D01*
X156343174Y-64130083D01*
X156343171Y-64130081D01*
X156170348Y-64073928D01*
X156050689Y-64054976D01*
X155990861Y-64045500D01*
X155809139Y-64045500D01*
X155749310Y-64054976D01*
X155629652Y-64073928D01*
X155629649Y-64073928D01*
X155456828Y-64130081D01*
X155456825Y-64130083D01*
X155294909Y-64212583D01*
X155211030Y-64273525D01*
X155147894Y-64319397D01*
X155147892Y-64319399D01*
X155147891Y-64319399D01*
X155019396Y-64447894D01*
X155000317Y-64474155D01*
X154944986Y-64516820D01*
X154875373Y-64522798D01*
X154813578Y-64490191D01*
X154799683Y-64474155D01*
X154780603Y-64447894D01*
X154652108Y-64319399D01*
X154652106Y-64319397D01*
X154505090Y-64212583D01*
X154343174Y-64130083D01*
X154343171Y-64130081D01*
X154170348Y-64073928D01*
X154050689Y-64054976D01*
X153990861Y-64045500D01*
X153809139Y-64045500D01*
X153749310Y-64054976D01*
X153629652Y-64073928D01*
X153629649Y-64073928D01*
X153456828Y-64130081D01*
X153456825Y-64130083D01*
X153294909Y-64212583D01*
X153211030Y-64273525D01*
X153147894Y-64319397D01*
X153147892Y-64319399D01*
X153147891Y-64319399D01*
X153019396Y-64447894D01*
X153000317Y-64474155D01*
X152944986Y-64516820D01*
X152875373Y-64522798D01*
X152813578Y-64490191D01*
X152799683Y-64474155D01*
X152780603Y-64447894D01*
X152652108Y-64319399D01*
X152652106Y-64319397D01*
X152505090Y-64212583D01*
X152343174Y-64130083D01*
X152343171Y-64130081D01*
X152170348Y-64073928D01*
X152050689Y-64054976D01*
X151990861Y-64045500D01*
X151809139Y-64045500D01*
X151749310Y-64054976D01*
X151629652Y-64073928D01*
X151629649Y-64073928D01*
X151456828Y-64130081D01*
X151456825Y-64130083D01*
X151294906Y-64212585D01*
X151168907Y-64304129D01*
X151103101Y-64327609D01*
X151035047Y-64311784D01*
X150995704Y-64276696D01*
X150932660Y-64189922D01*
X150760081Y-64017343D01*
X150760076Y-64017339D01*
X150562642Y-63873896D01*
X150562641Y-63873895D01*
X150562639Y-63873894D01*
X150345185Y-63763096D01*
X150113076Y-63687679D01*
X150113074Y-63687678D01*
X150113072Y-63687678D01*
X149944769Y-63661021D01*
X149872027Y-63649500D01*
X149627973Y-63649500D01*
X149572093Y-63658350D01*
X149386927Y-63687678D01*
X149386924Y-63687679D01*
X149157370Y-63762266D01*
X149154812Y-63763097D01*
X148937357Y-63873896D01*
X148739923Y-64017339D01*
X148739918Y-64017343D01*
X148567343Y-64189918D01*
X148567339Y-64189923D01*
X148423896Y-64387357D01*
X148313097Y-64604812D01*
X148237678Y-64836927D01*
X148199500Y-65077973D01*
X136300499Y-65077973D01*
X136300499Y-64924280D01*
X136300499Y-64224998D01*
X136300498Y-64224981D01*
X136289999Y-64122203D01*
X136289998Y-64122200D01*
X136271383Y-64066023D01*
X136234814Y-63955666D01*
X136142712Y-63806344D01*
X136018656Y-63682288D01*
X135925888Y-63625069D01*
X135869336Y-63590187D01*
X135869331Y-63590185D01*
X135867862Y-63589698D01*
X135702797Y-63535001D01*
X135702795Y-63535000D01*
X135600010Y-63524500D01*
X134799998Y-63524500D01*
X134799980Y-63524501D01*
X134697203Y-63535000D01*
X134697200Y-63535001D01*
X134530668Y-63590185D01*
X134530663Y-63590187D01*
X134381342Y-63682289D01*
X134257287Y-63806344D01*
X134217688Y-63870544D01*
X134165739Y-63917268D01*
X134096777Y-63928489D01*
X134032695Y-63900645D01*
X134024469Y-63893127D01*
X133916930Y-63785588D01*
X133916928Y-63785586D01*
X133776788Y-63683768D01*
X133622445Y-63605127D01*
X133457701Y-63551598D01*
X133457699Y-63551597D01*
X133457698Y-63551597D01*
X133326271Y-63530781D01*
X133286611Y-63524500D01*
X133113389Y-63524500D01*
X133073728Y-63530781D01*
X132942302Y-63551597D01*
X132942299Y-63551598D01*
X132803888Y-63596571D01*
X132777552Y-63605128D01*
X132623211Y-63683768D01*
X132543256Y-63741859D01*
X132483072Y-63785586D01*
X132483070Y-63785588D01*
X132483069Y-63785588D01*
X132360588Y-63908069D01*
X132360581Y-63908078D01*
X132300317Y-63991023D01*
X132244987Y-64033689D01*
X132175374Y-64039667D01*
X132113579Y-64007061D01*
X132099683Y-63991023D01*
X132039418Y-63908078D01*
X132039414Y-63908072D01*
X131916928Y-63785586D01*
X131776788Y-63683768D01*
X131622445Y-63605127D01*
X131457701Y-63551598D01*
X131457699Y-63551597D01*
X131457698Y-63551597D01*
X131326271Y-63530781D01*
X131286611Y-63524500D01*
X131113389Y-63524500D01*
X131073728Y-63530781D01*
X130942302Y-63551597D01*
X130942299Y-63551598D01*
X130803888Y-63596571D01*
X130777552Y-63605128D01*
X130623211Y-63683768D01*
X130543256Y-63741859D01*
X130483072Y-63785586D01*
X130483070Y-63785588D01*
X130483069Y-63785588D01*
X130360588Y-63908069D01*
X130360581Y-63908078D01*
X130300317Y-63991023D01*
X130244987Y-64033689D01*
X130175374Y-64039667D01*
X130113579Y-64007061D01*
X130099683Y-63991023D01*
X130039418Y-63908078D01*
X130039414Y-63908072D01*
X129916928Y-63785586D01*
X129776788Y-63683768D01*
X129622445Y-63605127D01*
X129457701Y-63551598D01*
X129457699Y-63551597D01*
X129457698Y-63551597D01*
X129326271Y-63530781D01*
X129286611Y-63524500D01*
X129113389Y-63524500D01*
X129073728Y-63530781D01*
X128942302Y-63551597D01*
X128942299Y-63551598D01*
X128803888Y-63596571D01*
X128777552Y-63605128D01*
X128623211Y-63683768D01*
X128543256Y-63741859D01*
X128483072Y-63785586D01*
X128483070Y-63785588D01*
X128483069Y-63785588D01*
X128360588Y-63908069D01*
X128360588Y-63908070D01*
X128360586Y-63908072D01*
X128360582Y-63908078D01*
X128258768Y-64048211D01*
X128180128Y-64202552D01*
X128126597Y-64367302D01*
X128107134Y-64490191D01*
X128099500Y-64538389D01*
X128099500Y-65311611D01*
X128104110Y-65340716D01*
X128124818Y-65471467D01*
X128126598Y-65482701D01*
X128180127Y-65647445D01*
X128258768Y-65801788D01*
X128360586Y-65941928D01*
X128483072Y-66064414D01*
X128623212Y-66166232D01*
X128777555Y-66244873D01*
X128942299Y-66298402D01*
X129113389Y-66325500D01*
X129113390Y-66325500D01*
X129286610Y-66325500D01*
X129286611Y-66325500D01*
X129457701Y-66298402D01*
X129622445Y-66244873D01*
X129776788Y-66166232D01*
X129916928Y-66064414D01*
X130039414Y-65941928D01*
X130099682Y-65858975D01*
X130155012Y-65816311D01*
X130224626Y-65810332D01*
X130286421Y-65842938D01*
X130300315Y-65858973D01*
X130360586Y-65941928D01*
X130360588Y-65941930D01*
X130483070Y-66064412D01*
X130483076Y-66064417D01*
X130498382Y-66075537D01*
X130541050Y-66130866D01*
X130549500Y-66175857D01*
X130549500Y-67364070D01*
X130560941Y-67421583D01*
X130560941Y-67421585D01*
X130574497Y-67489736D01*
X130574499Y-67489744D01*
X130591695Y-67531260D01*
X130623535Y-67608127D01*
X130694723Y-67714669D01*
X130694726Y-67714673D01*
X130694727Y-67714674D01*
X132628170Y-69648115D01*
X132661655Y-69709438D01*
X132656671Y-69779129D01*
X132614799Y-69835063D01*
X132596784Y-69846281D01*
X132523211Y-69883768D01*
X132460229Y-69929528D01*
X132383072Y-69985586D01*
X132383070Y-69985588D01*
X132383069Y-69985588D01*
X132260588Y-70108069D01*
X132260581Y-70108078D01*
X132200317Y-70191023D01*
X132144987Y-70233689D01*
X132075374Y-70239667D01*
X132013579Y-70207061D01*
X131999683Y-70191023D01*
X131939418Y-70108078D01*
X131939414Y-70108072D01*
X131816928Y-69985586D01*
X131676788Y-69883768D01*
X131522445Y-69805127D01*
X131357701Y-69751598D01*
X131357699Y-69751597D01*
X131357698Y-69751597D01*
X131199857Y-69726598D01*
X131186611Y-69724500D01*
X131013389Y-69724500D01*
X131000143Y-69726598D01*
X130842302Y-69751597D01*
X130677552Y-69805128D01*
X130523211Y-69883768D01*
X130460229Y-69929528D01*
X130383072Y-69985586D01*
X130383070Y-69985588D01*
X130383069Y-69985588D01*
X130260588Y-70108069D01*
X130260581Y-70108078D01*
X130200317Y-70191023D01*
X130144987Y-70233689D01*
X130075374Y-70239667D01*
X130013579Y-70207061D01*
X129999683Y-70191023D01*
X129939418Y-70108078D01*
X129939414Y-70108072D01*
X129816928Y-69985586D01*
X129676788Y-69883768D01*
X129522445Y-69805127D01*
X129357701Y-69751598D01*
X129357699Y-69751597D01*
X129357698Y-69751597D01*
X129199857Y-69726598D01*
X129186611Y-69724500D01*
X129013389Y-69724500D01*
X129000143Y-69726598D01*
X128842302Y-69751597D01*
X128677552Y-69805128D01*
X128523211Y-69883768D01*
X128460229Y-69929528D01*
X128383072Y-69985586D01*
X128383070Y-69985588D01*
X128383069Y-69985588D01*
X128260588Y-70108069D01*
X128260588Y-70108070D01*
X128260586Y-70108072D01*
X128218482Y-70166023D01*
X128158768Y-70248211D01*
X128080128Y-70402552D01*
X128026597Y-70567302D01*
X127999500Y-70738389D01*
X127999500Y-71458480D01*
X127979815Y-71525519D01*
X127963181Y-71546161D01*
X126255888Y-73253453D01*
X126255887Y-73253454D01*
X126179222Y-73368192D01*
X126126421Y-73495667D01*
X126126420Y-73495671D01*
X126126420Y-73495672D01*
X126108586Y-73585331D01*
X126108586Y-73585332D01*
X126099500Y-73631006D01*
X126099500Y-75316911D01*
X126079815Y-75383950D01*
X126048387Y-75417227D01*
X126012748Y-75443121D01*
X126012746Y-75443123D01*
X126012745Y-75443123D01*
X125873119Y-75582749D01*
X125873115Y-75582754D01*
X125768817Y-75726310D01*
X125713488Y-75768976D01*
X125643874Y-75774955D01*
X125582079Y-75742350D01*
X125547722Y-75681511D01*
X125544499Y-75653425D01*
X125544499Y-75598129D01*
X125544498Y-75598123D01*
X125542845Y-75582749D01*
X125538091Y-75538517D01*
X125533586Y-75526439D01*
X125487797Y-75403671D01*
X125487793Y-75403664D01*
X125401547Y-75288455D01*
X125401544Y-75288452D01*
X125286335Y-75202206D01*
X125286328Y-75202202D01*
X125151482Y-75151908D01*
X125151483Y-75151908D01*
X125091883Y-75145501D01*
X125091881Y-75145500D01*
X125091873Y-75145500D01*
X125091864Y-75145500D01*
X123488129Y-75145500D01*
X123488123Y-75145501D01*
X123428516Y-75151908D01*
X123293671Y-75202202D01*
X123293664Y-75202206D01*
X123178455Y-75288452D01*
X123178452Y-75288455D01*
X123092202Y-75403669D01*
X123091355Y-75405222D01*
X123090104Y-75406472D01*
X123086888Y-75410769D01*
X123086270Y-75410306D01*
X123041949Y-75454627D01*
X122973676Y-75469478D01*
X122908212Y-75445060D01*
X122894843Y-75433475D01*
X121886819Y-74425451D01*
X121853334Y-74364128D01*
X121850500Y-74337770D01*
X121850500Y-72453957D01*
X121870185Y-72386918D01*
X121909407Y-72348416D01*
X121918656Y-72342712D01*
X122042712Y-72218656D01*
X122134814Y-72069334D01*
X122189999Y-71902797D01*
X122200500Y-71800009D01*
X122200499Y-70399992D01*
X122189999Y-70297203D01*
X122134814Y-70130666D01*
X122042712Y-69981344D01*
X121918656Y-69857288D01*
X121793559Y-69780128D01*
X121769336Y-69765187D01*
X121769331Y-69765185D01*
X121728325Y-69751597D01*
X121602797Y-69710001D01*
X121602795Y-69710000D01*
X121500010Y-69699500D01*
X120699998Y-69699500D01*
X120699980Y-69699501D01*
X120597203Y-69710000D01*
X120597200Y-69710001D01*
X120430668Y-69765185D01*
X120430663Y-69765187D01*
X120281342Y-69857289D01*
X120157287Y-69981344D01*
X120117688Y-70045544D01*
X120065739Y-70092268D01*
X119996777Y-70103489D01*
X119932695Y-70075645D01*
X119924469Y-70068127D01*
X119816930Y-69960588D01*
X119816929Y-69960587D01*
X119816928Y-69960586D01*
X119676788Y-69858768D01*
X119522445Y-69780127D01*
X119357701Y-69726598D01*
X119357699Y-69726597D01*
X119357698Y-69726597D01*
X119226271Y-69705781D01*
X119186611Y-69699500D01*
X119013389Y-69699500D01*
X118973728Y-69705781D01*
X118842302Y-69726597D01*
X118677552Y-69780128D01*
X118523211Y-69858768D01*
X118462428Y-69902930D01*
X118383072Y-69960586D01*
X118383070Y-69960588D01*
X118383069Y-69960588D01*
X118260588Y-70083069D01*
X118260581Y-70083078D01*
X118200317Y-70166023D01*
X118144987Y-70208689D01*
X118075374Y-70214667D01*
X118013579Y-70182061D01*
X117999683Y-70166023D01*
X117939418Y-70083078D01*
X117939414Y-70083072D01*
X117816928Y-69960586D01*
X117676788Y-69858768D01*
X117522445Y-69780127D01*
X117357701Y-69726598D01*
X117357699Y-69726597D01*
X117357698Y-69726597D01*
X117226271Y-69705781D01*
X117186611Y-69699500D01*
X117013389Y-69699500D01*
X116973728Y-69705781D01*
X116842302Y-69726597D01*
X116677552Y-69780128D01*
X116523211Y-69858768D01*
X116462428Y-69902930D01*
X116383072Y-69960586D01*
X116383070Y-69960588D01*
X116383069Y-69960588D01*
X116260588Y-70083069D01*
X116260581Y-70083078D01*
X116200317Y-70166023D01*
X116144987Y-70208689D01*
X116075374Y-70214667D01*
X116013579Y-70182061D01*
X115999683Y-70166023D01*
X115939418Y-70083078D01*
X115939414Y-70083072D01*
X115816928Y-69960586D01*
X115731183Y-69898289D01*
X115698879Y-69874818D01*
X115656214Y-69819487D01*
X115650235Y-69749874D01*
X115682841Y-69688079D01*
X115743680Y-69653722D01*
X115771765Y-69650500D01*
X116131171Y-69650500D01*
X116215715Y-69633682D01*
X116256844Y-69625501D01*
X116375227Y-69576465D01*
X116390136Y-69566503D01*
X116481769Y-69505277D01*
X119699751Y-66287295D01*
X119731140Y-66264490D01*
X119740318Y-66259814D01*
X119776788Y-66241232D01*
X119916928Y-66139414D01*
X120024472Y-66031869D01*
X120085791Y-65998387D01*
X120155483Y-66003371D01*
X120211417Y-66045242D01*
X120217688Y-66054456D01*
X120257285Y-66118652D01*
X120257288Y-66118656D01*
X120381344Y-66242712D01*
X120530666Y-66334814D01*
X120697203Y-66389999D01*
X120799991Y-66400500D01*
X121600008Y-66400499D01*
X121600016Y-66400498D01*
X121600019Y-66400498D01*
X121656302Y-66394748D01*
X121702797Y-66389999D01*
X121869334Y-66334814D01*
X122018656Y-66242712D01*
X122142712Y-66118656D01*
X122234814Y-65969334D01*
X122289999Y-65802797D01*
X122300500Y-65700009D01*
X122300499Y-64299992D01*
X122289999Y-64197203D01*
X122234814Y-64030666D01*
X122142712Y-63881344D01*
X122018656Y-63757288D01*
X121905800Y-63687678D01*
X121869336Y-63665187D01*
X121869331Y-63665185D01*
X121867862Y-63664698D01*
X121702797Y-63610001D01*
X121702795Y-63610000D01*
X121600010Y-63599500D01*
X120799998Y-63599500D01*
X120799980Y-63599501D01*
X120697203Y-63610000D01*
X120697200Y-63610001D01*
X120530668Y-63665185D01*
X120530663Y-63665187D01*
X120381342Y-63757289D01*
X120257287Y-63881344D01*
X120217688Y-63945544D01*
X120165739Y-63992268D01*
X120096777Y-64003489D01*
X120032695Y-63975645D01*
X120024469Y-63968127D01*
X119916930Y-63860588D01*
X119916928Y-63860586D01*
X119776788Y-63758768D01*
X119622445Y-63680127D01*
X119457701Y-63626598D01*
X119457699Y-63626597D01*
X119457698Y-63626597D01*
X119299838Y-63601595D01*
X119286611Y-63599500D01*
X119113389Y-63599500D01*
X119100162Y-63601595D01*
X118942302Y-63626597D01*
X118777552Y-63680128D01*
X118623211Y-63758768D01*
X118559872Y-63804787D01*
X118483072Y-63860586D01*
X118483070Y-63860588D01*
X118483069Y-63860588D01*
X118360588Y-63983069D01*
X118360581Y-63983078D01*
X118300317Y-64066023D01*
X118244987Y-64108689D01*
X118175374Y-64114667D01*
X118113579Y-64082061D01*
X118099683Y-64066023D01*
X118039418Y-63983078D01*
X118039414Y-63983072D01*
X117916928Y-63860586D01*
X117776788Y-63758768D01*
X117622445Y-63680127D01*
X117457701Y-63626598D01*
X117457699Y-63626597D01*
X117457698Y-63626597D01*
X117299838Y-63601595D01*
X117286611Y-63599500D01*
X117113389Y-63599500D01*
X117100162Y-63601595D01*
X116942302Y-63626597D01*
X116777552Y-63680128D01*
X116623211Y-63758768D01*
X116559872Y-63804787D01*
X116483072Y-63860586D01*
X116483070Y-63860588D01*
X116483069Y-63860588D01*
X116360588Y-63983069D01*
X116360581Y-63983078D01*
X116300317Y-64066023D01*
X116244987Y-64108689D01*
X116175374Y-64114667D01*
X116113579Y-64082061D01*
X116099683Y-64066023D01*
X116039418Y-63983078D01*
X116039414Y-63983072D01*
X115916928Y-63860586D01*
X115776788Y-63758768D01*
X115622445Y-63680127D01*
X115457701Y-63626598D01*
X115457699Y-63626597D01*
X115457698Y-63626597D01*
X115299838Y-63601595D01*
X115286611Y-63599500D01*
X115113389Y-63599500D01*
X115100162Y-63601595D01*
X114942302Y-63626597D01*
X114777552Y-63680128D01*
X114623211Y-63758768D01*
X114559872Y-63804787D01*
X114483072Y-63860586D01*
X114483070Y-63860588D01*
X114483069Y-63860588D01*
X114360588Y-63983069D01*
X114360588Y-63983070D01*
X114360586Y-63983072D01*
X114319467Y-64039667D01*
X114258768Y-64123211D01*
X114180128Y-64277552D01*
X114126597Y-64442302D01*
X114099500Y-64613389D01*
X114099500Y-65386610D01*
X114123794Y-65540001D01*
X114126598Y-65557701D01*
X114180127Y-65722445D01*
X114258768Y-65876788D01*
X114360586Y-66016928D01*
X114483072Y-66139414D01*
X114623212Y-66241232D01*
X114777555Y-66319873D01*
X114942299Y-66373402D01*
X115113389Y-66400500D01*
X115113390Y-66400500D01*
X115286610Y-66400500D01*
X115286611Y-66400500D01*
X115457701Y-66373402D01*
X115622445Y-66319873D01*
X115776788Y-66241232D01*
X115916928Y-66139414D01*
X116039414Y-66016928D01*
X116099682Y-65933975D01*
X116118460Y-65919495D01*
X116134198Y-65901762D01*
X116145617Y-65898554D01*
X116155012Y-65891311D01*
X116178637Y-65889281D01*
X116201465Y-65882871D01*
X116212806Y-65886347D01*
X116224626Y-65885332D01*
X116245597Y-65896397D01*
X116268268Y-65903346D01*
X116279980Y-65914539D01*
X116286421Y-65917938D01*
X116294666Y-65926772D01*
X116297623Y-65930267D01*
X116360586Y-66016928D01*
X116427829Y-66084171D01*
X116431159Y-66088107D01*
X116443292Y-66115528D01*
X116457659Y-66141839D01*
X116457279Y-66147140D01*
X116459431Y-66152002D01*
X116454813Y-66181627D01*
X116452675Y-66211531D01*
X116449345Y-66216712D01*
X116448671Y-66221038D01*
X116441034Y-66229642D01*
X116424174Y-66255878D01*
X115466873Y-67213181D01*
X115405550Y-67246666D01*
X115379192Y-67249500D01*
X113535929Y-67249500D01*
X113410261Y-67274497D01*
X113410255Y-67274499D01*
X113291870Y-67323535D01*
X113185331Y-67394722D01*
X113185324Y-67394728D01*
X111894725Y-68685328D01*
X111894723Y-68685331D01*
X111884588Y-68700500D01*
X111884586Y-68700501D01*
X111884586Y-68700502D01*
X111823535Y-68791870D01*
X111774499Y-68910255D01*
X111774497Y-68910261D01*
X111749500Y-69035928D01*
X111749500Y-69035931D01*
X111749500Y-74864069D01*
X111749500Y-74864071D01*
X111749499Y-74864071D01*
X111774497Y-74989738D01*
X111774499Y-74989744D01*
X111823535Y-75108127D01*
X111886396Y-75202206D01*
X111894726Y-75214673D01*
X111894727Y-75214674D01*
X113617873Y-76937819D01*
X113651358Y-76999142D01*
X113646374Y-77068834D01*
X113604502Y-77124767D01*
X113539038Y-77149184D01*
X113530192Y-77149500D01*
X108704604Y-77149500D01*
X108657155Y-77140062D01*
X108633497Y-77130263D01*
X108633493Y-77130262D01*
X108633488Y-77130260D01*
X108478845Y-77099500D01*
X108478842Y-77099500D01*
X108321158Y-77099500D01*
X108321155Y-77099500D01*
X108166510Y-77130261D01*
X108166498Y-77130264D01*
X108020827Y-77190602D01*
X108020814Y-77190609D01*
X107889711Y-77278210D01*
X107889707Y-77278213D01*
X107778213Y-77389707D01*
X107778210Y-77389711D01*
X107690609Y-77520814D01*
X107690602Y-77520827D01*
X107630264Y-77666498D01*
X107630261Y-77666510D01*
X107599500Y-77821153D01*
X106000500Y-77821153D01*
X106000500Y-76462377D01*
X106020185Y-76395338D01*
X106051614Y-76362060D01*
X106063995Y-76353065D01*
X106203065Y-76213995D01*
X106318668Y-76054881D01*
X106407957Y-75879642D01*
X106442121Y-75774497D01*
X106468732Y-75692596D01*
X106468732Y-75692595D01*
X106468733Y-75692592D01*
X106499500Y-75498338D01*
X106499500Y-75301662D01*
X106468733Y-75107408D01*
X106468732Y-75107404D01*
X106468732Y-75107403D01*
X106407958Y-74920360D01*
X106379276Y-74864069D01*
X106318668Y-74745119D01*
X106215511Y-74603135D01*
X108500500Y-74603135D01*
X108500500Y-76196870D01*
X108500501Y-76196876D01*
X108506908Y-76256483D01*
X108557202Y-76391328D01*
X108557206Y-76391335D01*
X108643452Y-76506544D01*
X108643455Y-76506547D01*
X108758664Y-76592793D01*
X108758671Y-76592797D01*
X108893517Y-76643091D01*
X108893516Y-76643091D01*
X108900444Y-76643835D01*
X108953127Y-76649500D01*
X110546872Y-76649499D01*
X110606483Y-76643091D01*
X110741331Y-76592796D01*
X110856546Y-76506546D01*
X110942796Y-76391331D01*
X110993091Y-76256483D01*
X110999500Y-76196873D01*
X110999499Y-74603128D01*
X110993091Y-74543517D01*
X110974655Y-74494088D01*
X110942797Y-74408671D01*
X110942793Y-74408664D01*
X110856547Y-74293455D01*
X110856544Y-74293452D01*
X110741335Y-74207206D01*
X110741328Y-74207202D01*
X110606482Y-74156908D01*
X110606483Y-74156908D01*
X110546883Y-74150501D01*
X110546881Y-74150500D01*
X110546873Y-74150500D01*
X110546864Y-74150500D01*
X108953129Y-74150500D01*
X108953123Y-74150501D01*
X108893516Y-74156908D01*
X108758671Y-74207202D01*
X108758664Y-74207206D01*
X108643455Y-74293452D01*
X108643452Y-74293455D01*
X108557206Y-74408664D01*
X108557202Y-74408671D01*
X108506908Y-74543517D01*
X108500501Y-74603116D01*
X108500501Y-74603123D01*
X108500500Y-74603135D01*
X106215511Y-74603135D01*
X106203065Y-74586005D01*
X106063995Y-74446935D01*
X105904881Y-74331332D01*
X105869778Y-74313446D01*
X105729639Y-74242041D01*
X105542595Y-74181267D01*
X105396901Y-74158191D01*
X105348338Y-74150500D01*
X105151662Y-74150500D01*
X105086910Y-74160755D01*
X104957406Y-74181267D01*
X104957403Y-74181267D01*
X104770360Y-74242041D01*
X104595118Y-74331332D01*
X104436002Y-74446937D01*
X104406284Y-74476656D01*
X104344961Y-74510141D01*
X104275269Y-74505157D01*
X104219336Y-74463285D01*
X104194919Y-74397821D01*
X104194603Y-74388975D01*
X104194603Y-65118680D01*
X104198559Y-65095482D01*
X104194603Y-65053024D01*
X104194603Y-65010414D01*
X104194602Y-65010409D01*
X104191232Y-64997831D01*
X104187542Y-64977243D01*
X104187227Y-64973862D01*
X104186333Y-64964266D01*
X104171523Y-64924280D01*
X104160495Y-64883120D01*
X104148736Y-64862753D01*
X104140563Y-64840685D01*
X104115908Y-64805894D01*
X104094603Y-64768992D01*
X104077973Y-64752362D01*
X104064367Y-64733162D01*
X104031549Y-64705938D01*
X104001417Y-64675806D01*
X103981050Y-64664047D01*
X103972972Y-64657346D01*
X103972971Y-64657344D01*
X103962943Y-64649025D01*
X103962935Y-64649020D01*
X103929428Y-64633624D01*
X103925836Y-64631904D01*
X103922460Y-64630219D01*
X103887289Y-64609914D01*
X103875360Y-64606717D01*
X103864172Y-64601134D01*
X103863693Y-64600689D01*
X103862046Y-64600047D01*
X103584587Y-64454860D01*
X103573617Y-64448381D01*
X103279239Y-64253450D01*
X103268991Y-64245879D01*
X102996170Y-64021769D01*
X102986753Y-64013186D01*
X102738372Y-63762266D01*
X102729886Y-63752763D01*
X102673185Y-63682289D01*
X102508557Y-63477671D01*
X102501095Y-63467352D01*
X102309157Y-63170990D01*
X102302806Y-63159980D01*
X102142298Y-62845499D01*
X102137097Y-62833870D01*
X102121776Y-62794266D01*
X102009705Y-62504573D01*
X102005727Y-62492475D01*
X101944151Y-62266766D01*
X101912804Y-62151859D01*
X101910087Y-62139416D01*
X101902939Y-62096100D01*
X101852602Y-61791042D01*
X101851178Y-61778386D01*
X101850168Y-61761785D01*
X101829746Y-61425975D01*
X101829628Y-61413239D01*
X101831159Y-61376853D01*
X101835289Y-61278711D01*
X103549500Y-61278711D01*
X103549500Y-61521288D01*
X103581161Y-61761785D01*
X103643947Y-61996104D01*
X103685367Y-62096100D01*
X103736776Y-62220212D01*
X103858064Y-62430289D01*
X103858066Y-62430292D01*
X103858067Y-62430293D01*
X104005733Y-62622736D01*
X104005739Y-62622743D01*
X104177256Y-62794260D01*
X104177262Y-62794265D01*
X104369711Y-62941936D01*
X104579788Y-63063224D01*
X104803900Y-63156054D01*
X105038211Y-63218838D01*
X105218586Y-63242584D01*
X105278711Y-63250500D01*
X105278712Y-63250500D01*
X105521289Y-63250500D01*
X105569388Y-63244167D01*
X105761789Y-63218838D01*
X105996100Y-63156054D01*
X106220212Y-63063224D01*
X106430289Y-62941936D01*
X106622738Y-62794265D01*
X106794265Y-62622738D01*
X106941936Y-62430289D01*
X107063224Y-62220212D01*
X107156054Y-61996100D01*
X107218838Y-61761789D01*
X107250500Y-61521288D01*
X107250500Y-61378711D01*
X168949500Y-61378711D01*
X168949500Y-61621288D01*
X168981161Y-61861785D01*
X169043947Y-62096104D01*
X169111969Y-62260322D01*
X169136776Y-62320212D01*
X169258064Y-62530289D01*
X169258066Y-62530292D01*
X169258067Y-62530293D01*
X169405733Y-62722736D01*
X169405739Y-62722743D01*
X169577256Y-62894260D01*
X169577263Y-62894266D01*
X169675753Y-62969840D01*
X169769711Y-63041936D01*
X169979788Y-63163224D01*
X170203900Y-63256054D01*
X170438211Y-63318838D01*
X170618586Y-63342584D01*
X170678711Y-63350500D01*
X170678712Y-63350500D01*
X170921289Y-63350500D01*
X170969388Y-63344167D01*
X171161789Y-63318838D01*
X171396100Y-63256054D01*
X171620212Y-63163224D01*
X171830289Y-63041936D01*
X172022738Y-62894265D01*
X172194265Y-62722738D01*
X172341936Y-62530289D01*
X172463224Y-62320212D01*
X172556054Y-62096100D01*
X172618838Y-61861789D01*
X172650500Y-61621288D01*
X172650500Y-61378712D01*
X172618838Y-61138211D01*
X172556054Y-60903900D01*
X172463224Y-60679788D01*
X172341936Y-60469711D01*
X172281018Y-60390321D01*
X172194266Y-60277263D01*
X172194260Y-60277256D01*
X172022743Y-60105739D01*
X172022736Y-60105733D01*
X171830293Y-59958067D01*
X171830292Y-59958066D01*
X171830289Y-59958064D01*
X171620212Y-59836776D01*
X171620205Y-59836773D01*
X171396104Y-59743947D01*
X171161785Y-59681161D01*
X170921289Y-59649500D01*
X170921288Y-59649500D01*
X170678712Y-59649500D01*
X170678711Y-59649500D01*
X170438214Y-59681161D01*
X170203895Y-59743947D01*
X169979794Y-59836773D01*
X169979785Y-59836777D01*
X169769706Y-59958067D01*
X169577263Y-60105733D01*
X169577256Y-60105739D01*
X169405739Y-60277256D01*
X169405733Y-60277263D01*
X169258067Y-60469706D01*
X169136777Y-60679785D01*
X169136773Y-60679794D01*
X169043947Y-60903895D01*
X168981161Y-61138214D01*
X168949500Y-61378711D01*
X107250500Y-61378711D01*
X107250500Y-61278712D01*
X107218838Y-61038211D01*
X107156054Y-60803900D01*
X107063224Y-60579788D01*
X106941936Y-60369711D01*
X106794265Y-60177262D01*
X106794260Y-60177256D01*
X106622743Y-60005739D01*
X106622736Y-60005733D01*
X106430293Y-59858067D01*
X106430292Y-59858066D01*
X106430289Y-59858064D01*
X106249537Y-59753707D01*
X106220214Y-59736777D01*
X106220205Y-59736773D01*
X105996104Y-59643947D01*
X105761785Y-59581161D01*
X105521289Y-59549500D01*
X105521288Y-59549500D01*
X105278712Y-59549500D01*
X105278711Y-59549500D01*
X105038214Y-59581161D01*
X104803895Y-59643947D01*
X104579794Y-59736773D01*
X104579785Y-59736777D01*
X104369706Y-59858067D01*
X104177263Y-60005733D01*
X104177256Y-60005739D01*
X104005739Y-60177256D01*
X104005733Y-60177263D01*
X103858067Y-60369706D01*
X103736777Y-60579785D01*
X103736773Y-60579794D01*
X103643947Y-60803895D01*
X103581161Y-61038214D01*
X103549500Y-61278711D01*
X101835289Y-61278711D01*
X101844474Y-61060466D01*
X101845660Y-61047815D01*
X101896627Y-60698424D01*
X101899107Y-60685947D01*
X101985662Y-60343620D01*
X101989408Y-60331471D01*
X102110631Y-59999839D01*
X102115596Y-59988155D01*
X102270216Y-59670702D01*
X102276371Y-59659561D01*
X102462737Y-59359672D01*
X102469997Y-59349226D01*
X102686169Y-59070021D01*
X102694434Y-59060410D01*
X102938122Y-58804856D01*
X102947350Y-58796124D01*
X103215953Y-58566945D01*
X103226047Y-58559191D01*
X103516759Y-58358777D01*
X103527573Y-58352115D01*
X103837311Y-58182592D01*
X103848761Y-58177070D01*
X104174268Y-58040223D01*
X104186217Y-58035908D01*
X104524051Y-57933185D01*
X104536377Y-57930119D01*
X104882959Y-57862608D01*
X104895539Y-57860822D01*
X105247223Y-57829230D01*
X105259942Y-57828745D01*
X105612988Y-57833408D01*
G37*
%TD.AperFunction*%
%TA.AperFunction,NonConductor*%
G36*
X132286421Y-65842938D02*
G01*
X132300315Y-65858973D01*
X132360586Y-65941928D01*
X132360588Y-65941930D01*
X132483070Y-66064412D01*
X132483076Y-66064417D01*
X132498382Y-66075537D01*
X132541050Y-66130866D01*
X132549500Y-66175857D01*
X132549500Y-67364069D01*
X132560504Y-67419386D01*
X132554278Y-67488977D01*
X132511415Y-67544155D01*
X132445526Y-67567401D01*
X132377529Y-67551334D01*
X132351206Y-67531260D01*
X131886819Y-67066873D01*
X131853334Y-67005550D01*
X131850500Y-66979192D01*
X131850500Y-66175857D01*
X131870185Y-66108818D01*
X131901618Y-66075537D01*
X131902828Y-66074658D01*
X131916928Y-66064414D01*
X132039414Y-65941928D01*
X132099682Y-65858975D01*
X132155012Y-65816311D01*
X132224626Y-65810332D01*
X132286421Y-65842938D01*
G37*
%TD.AperFunction*%
%TA.AperFunction,NonConductor*%
G36*
X144118231Y-69269185D02*
G01*
X144138873Y-69285819D01*
X144458325Y-69605272D01*
X144458332Y-69605278D01*
X144546320Y-69664069D01*
X144546321Y-69664069D01*
X144564873Y-69676465D01*
X144683256Y-69725501D01*
X144683260Y-69725501D01*
X144683261Y-69725502D01*
X144808928Y-69750500D01*
X144808931Y-69750500D01*
X153579192Y-69750500D01*
X153608632Y-69759144D01*
X153638619Y-69765668D01*
X153643634Y-69769422D01*
X153646231Y-69770185D01*
X153666873Y-69786819D01*
X153782984Y-69902930D01*
X153816469Y-69964253D01*
X153816920Y-69966420D01*
X153830261Y-70033489D01*
X153830264Y-70033501D01*
X153848716Y-70078048D01*
X153856185Y-70147517D01*
X153824909Y-70209996D01*
X153764820Y-70245648D01*
X153734155Y-70249500D01*
X144335929Y-70249500D01*
X144210261Y-70274497D01*
X144210251Y-70274500D01*
X144161220Y-70294810D01*
X144091881Y-70323530D01*
X144091863Y-70323540D01*
X143985332Y-70394721D01*
X143985325Y-70394727D01*
X142855414Y-71524638D01*
X142815186Y-71551518D01*
X142720824Y-71590604D01*
X142720814Y-71590609D01*
X142589711Y-71678210D01*
X142589707Y-71678213D01*
X142478213Y-71789707D01*
X142478210Y-71789711D01*
X142390609Y-71920814D01*
X142390602Y-71920827D01*
X142330264Y-72066498D01*
X142330261Y-72066510D01*
X142299500Y-72221153D01*
X142299500Y-72280192D01*
X142279815Y-72347231D01*
X142227011Y-72392986D01*
X142157853Y-72402930D01*
X142094297Y-72373905D01*
X142087819Y-72367873D01*
X139181127Y-69461181D01*
X139147642Y-69399858D01*
X139152626Y-69330166D01*
X139194498Y-69274233D01*
X139259962Y-69249816D01*
X139268808Y-69249500D01*
X144051192Y-69249500D01*
X144118231Y-69269185D01*
G37*
%TD.AperFunction*%
%TA.AperFunction,NonConductor*%
G36*
X132186421Y-72042938D02*
G01*
X132200315Y-72058973D01*
X132260586Y-72141928D01*
X132260588Y-72141930D01*
X132383070Y-72264412D01*
X132383076Y-72264417D01*
X132398382Y-72275537D01*
X132401723Y-72279869D01*
X132406703Y-72282144D01*
X132422834Y-72307245D01*
X132441050Y-72330866D01*
X132442303Y-72337539D01*
X132444477Y-72340922D01*
X132449500Y-72375857D01*
X132449500Y-72425500D01*
X132429815Y-72492539D01*
X132377011Y-72538294D01*
X132325500Y-72549500D01*
X131806174Y-72549500D01*
X131739135Y-72529815D01*
X131693380Y-72477011D01*
X131683436Y-72407853D01*
X131712461Y-72344297D01*
X131733288Y-72325182D01*
X131748845Y-72313879D01*
X131816928Y-72264414D01*
X131939414Y-72141928D01*
X131999682Y-72058975D01*
X132055012Y-72016311D01*
X132124626Y-72010332D01*
X132186421Y-72042938D01*
G37*
%TD.AperFunction*%
%TA.AperFunction,NonConductor*%
G36*
X164346231Y-71570185D02*
G01*
X164366873Y-71586819D01*
X165588181Y-72808127D01*
X165621666Y-72869450D01*
X165624500Y-72895808D01*
X165624500Y-73538000D01*
X165604815Y-73605039D01*
X165552011Y-73650794D01*
X165500501Y-73662000D01*
X165377130Y-73662000D01*
X165377123Y-73662001D01*
X165317516Y-73668408D01*
X165182671Y-73718702D01*
X165182664Y-73718706D01*
X165067455Y-73804952D01*
X165067452Y-73804955D01*
X164981206Y-73920164D01*
X164981203Y-73920169D01*
X164932189Y-74051583D01*
X164890317Y-74107516D01*
X164824853Y-74131933D01*
X164756580Y-74117081D01*
X164728326Y-74095930D01*
X164614786Y-73982390D01*
X164442820Y-73857451D01*
X164253416Y-73760944D01*
X164174294Y-73735236D01*
X164124932Y-73704986D01*
X162182127Y-71762181D01*
X162148642Y-71700858D01*
X162153626Y-71631166D01*
X162195498Y-71575233D01*
X162260962Y-71550816D01*
X162269808Y-71550500D01*
X164279192Y-71550500D01*
X164346231Y-71570185D01*
G37*
%TD.AperFunction*%
%TA.AperFunction,NonConductor*%
G36*
X161246231Y-72670185D02*
G01*
X161266873Y-72686819D01*
X162633319Y-74053265D01*
X162666804Y-74114588D01*
X162661820Y-74184280D01*
X162645956Y-74213831D01*
X162579951Y-74304682D01*
X162579947Y-74304687D01*
X162575484Y-74313446D01*
X162527509Y-74364242D01*
X162459688Y-74381036D01*
X162393553Y-74358498D01*
X162354516Y-74313446D01*
X162350050Y-74304682D01*
X162225109Y-74132713D01*
X162074786Y-73982390D01*
X161902820Y-73857451D01*
X161713414Y-73760944D01*
X161713413Y-73760943D01*
X161713412Y-73760943D01*
X161511243Y-73695254D01*
X161511241Y-73695253D01*
X161511240Y-73695253D01*
X161349957Y-73669708D01*
X161301287Y-73662000D01*
X161088713Y-73662000D01*
X161040042Y-73669708D01*
X160878760Y-73695253D01*
X160676585Y-73760944D01*
X160487179Y-73857451D01*
X160315213Y-73982390D01*
X160164890Y-74132713D01*
X160039949Y-74304682D01*
X160035484Y-74313446D01*
X159987509Y-74364242D01*
X159919688Y-74381036D01*
X159853553Y-74358498D01*
X159814516Y-74313446D01*
X159810050Y-74304682D01*
X159685109Y-74132713D01*
X159534786Y-73982390D01*
X159362820Y-73857451D01*
X159173414Y-73760944D01*
X159173413Y-73760943D01*
X159173412Y-73760943D01*
X158971243Y-73695254D01*
X158971241Y-73695253D01*
X158971240Y-73695253D01*
X158809957Y-73669708D01*
X158761287Y-73662000D01*
X158548713Y-73662000D01*
X158500042Y-73669708D01*
X158338760Y-73695253D01*
X158136585Y-73760944D01*
X157947179Y-73857451D01*
X157775213Y-73982390D01*
X157624890Y-74132713D01*
X157499949Y-74304682D01*
X157495484Y-74313446D01*
X157447509Y-74364242D01*
X157379688Y-74381036D01*
X157313553Y-74358498D01*
X157274516Y-74313446D01*
X157270050Y-74304682D01*
X157145109Y-74132713D01*
X156994786Y-73982390D01*
X156822820Y-73857451D01*
X156633414Y-73760944D01*
X156633413Y-73760943D01*
X156633412Y-73760943D01*
X156431243Y-73695254D01*
X156431241Y-73695253D01*
X156431240Y-73695253D01*
X156269957Y-73669708D01*
X156221287Y-73662000D01*
X156008713Y-73662000D01*
X155960042Y-73669708D01*
X155798760Y-73695253D01*
X155596585Y-73760944D01*
X155407179Y-73857451D01*
X155235213Y-73982390D01*
X155084890Y-74132713D01*
X154959949Y-74304682D01*
X154955484Y-74313446D01*
X154907509Y-74364242D01*
X154839688Y-74381036D01*
X154773553Y-74358498D01*
X154734516Y-74313446D01*
X154730050Y-74304682D01*
X154605109Y-74132713D01*
X154454786Y-73982390D01*
X154282820Y-73857451D01*
X154093414Y-73760944D01*
X154093413Y-73760943D01*
X154093412Y-73760943D01*
X153891243Y-73695254D01*
X153891241Y-73695253D01*
X153891240Y-73695253D01*
X153729957Y-73669708D01*
X153681287Y-73662000D01*
X153468713Y-73662000D01*
X153420042Y-73669708D01*
X153258760Y-73695253D01*
X153056585Y-73760944D01*
X152867179Y-73857451D01*
X152695213Y-73982390D01*
X152544890Y-74132713D01*
X152419949Y-74304682D01*
X152415484Y-74313446D01*
X152367509Y-74364242D01*
X152299688Y-74381036D01*
X152233553Y-74358498D01*
X152194516Y-74313446D01*
X152190050Y-74304682D01*
X152065109Y-74132713D01*
X151914786Y-73982390D01*
X151742820Y-73857451D01*
X151553414Y-73760944D01*
X151553413Y-73760943D01*
X151553412Y-73760943D01*
X151351243Y-73695254D01*
X151351241Y-73695253D01*
X151351240Y-73695253D01*
X151189957Y-73669708D01*
X151141287Y-73662000D01*
X150928713Y-73662000D01*
X150880042Y-73669708D01*
X150718760Y-73695253D01*
X150516585Y-73760944D01*
X150327179Y-73857451D01*
X150155213Y-73982390D01*
X150004890Y-74132713D01*
X149879949Y-74304682D01*
X149875484Y-74313446D01*
X149827509Y-74364242D01*
X149759688Y-74381036D01*
X149693553Y-74358498D01*
X149654516Y-74313446D01*
X149650050Y-74304682D01*
X149525109Y-74132713D01*
X149374786Y-73982390D01*
X149202820Y-73857451D01*
X149013414Y-73760944D01*
X149013413Y-73760943D01*
X149013412Y-73760943D01*
X148894812Y-73722407D01*
X148837137Y-73682970D01*
X148809939Y-73618612D01*
X148818569Y-73557027D01*
X148869737Y-73433497D01*
X148900500Y-73278842D01*
X148900500Y-73121158D01*
X148900500Y-73121155D01*
X148900499Y-73121153D01*
X148889627Y-73066498D01*
X148869737Y-72966503D01*
X148850812Y-72920814D01*
X148809863Y-72821952D01*
X148802394Y-72752483D01*
X148833669Y-72690004D01*
X148893759Y-72654352D01*
X148924424Y-72650500D01*
X161179192Y-72650500D01*
X161246231Y-72670185D01*
G37*
%TD.AperFunction*%
%TA.AperFunction,NonConductor*%
G36*
X144040269Y-72491936D02*
G01*
X144087880Y-72543073D01*
X144098613Y-72574386D01*
X144130261Y-72733491D01*
X144130264Y-72733501D01*
X144190602Y-72879172D01*
X144190609Y-72879185D01*
X144278210Y-73010288D01*
X144278213Y-73010292D01*
X144389707Y-73121786D01*
X144389711Y-73121789D01*
X144520814Y-73209390D01*
X144520827Y-73209397D01*
X144627192Y-73253454D01*
X144666503Y-73269737D01*
X144821153Y-73300499D01*
X144821156Y-73300500D01*
X144821158Y-73300500D01*
X144978844Y-73300500D01*
X144978845Y-73300499D01*
X145133497Y-73269737D01*
X145279179Y-73209394D01*
X145410289Y-73121789D01*
X145521789Y-73010289D01*
X145609394Y-72879179D01*
X145669737Y-72733497D01*
X145669737Y-72733496D01*
X145672068Y-72727869D01*
X145674522Y-72728885D01*
X145706510Y-72680070D01*
X145770321Y-72651610D01*
X145786878Y-72650500D01*
X146759481Y-72650500D01*
X146826520Y-72670185D01*
X146872275Y-72722989D01*
X146882219Y-72792147D01*
X146853194Y-72855703D01*
X146847162Y-72862181D01*
X145755888Y-73953453D01*
X145755885Y-73953456D01*
X145688025Y-74055018D01*
X145679229Y-74068182D01*
X145679223Y-74068192D01*
X145626420Y-74195671D01*
X145626419Y-74195673D01*
X145625127Y-74202172D01*
X145592740Y-74264082D01*
X145532023Y-74298654D01*
X145484966Y-74299494D01*
X145484907Y-74300097D01*
X145479734Y-74299587D01*
X145479322Y-74299595D01*
X145478844Y-74299500D01*
X145478842Y-74299500D01*
X145321158Y-74299500D01*
X145321155Y-74299500D01*
X145166510Y-74330261D01*
X145166498Y-74330264D01*
X145020827Y-74390602D01*
X145020820Y-74390606D01*
X145008978Y-74398519D01*
X144963955Y-74428602D01*
X144897279Y-74449480D01*
X144895065Y-74449500D01*
X144220808Y-74449500D01*
X144153769Y-74429815D01*
X144133127Y-74413181D01*
X143032127Y-73312181D01*
X142998642Y-73250858D01*
X143003626Y-73181166D01*
X143045498Y-73125233D01*
X143110962Y-73100816D01*
X143119808Y-73100500D01*
X143178844Y-73100500D01*
X143178845Y-73100499D01*
X143333497Y-73069737D01*
X143479179Y-73009394D01*
X143610289Y-72921789D01*
X143721789Y-72810289D01*
X143809394Y-72679179D01*
X143809795Y-72678210D01*
X143862435Y-72551126D01*
X143906275Y-72496722D01*
X143972569Y-72474657D01*
X144040269Y-72491936D01*
G37*
%TD.AperFunction*%
%TA.AperFunction,NonConductor*%
G36*
X130186421Y-72042938D02*
G01*
X130200315Y-72058973D01*
X130260586Y-72141928D01*
X130383072Y-72264414D01*
X130383075Y-72264416D01*
X130397893Y-72275182D01*
X130440559Y-72330511D01*
X130446538Y-72400125D01*
X130413933Y-72461920D01*
X130353094Y-72496277D01*
X130325008Y-72499500D01*
X130221155Y-72499500D01*
X130066510Y-72530261D01*
X130066498Y-72530264D01*
X129920827Y-72590602D01*
X129920814Y-72590609D01*
X129789711Y-72678210D01*
X129789707Y-72678213D01*
X129678213Y-72789707D01*
X129678210Y-72789711D01*
X129590609Y-72920814D01*
X129590602Y-72920827D01*
X129530264Y-73066498D01*
X129530261Y-73066510D01*
X129499500Y-73221153D01*
X129499500Y-73378846D01*
X129530261Y-73533489D01*
X129530264Y-73533501D01*
X129590602Y-73679172D01*
X129590609Y-73679185D01*
X129678210Y-73810288D01*
X129678213Y-73810292D01*
X129789707Y-73921786D01*
X129789711Y-73921789D01*
X129920814Y-74009390D01*
X129920827Y-74009397D01*
X130062749Y-74068182D01*
X130066503Y-74069737D01*
X130221153Y-74100499D01*
X130221156Y-74100500D01*
X130221158Y-74100500D01*
X130378844Y-74100500D01*
X130378845Y-74100499D01*
X130533497Y-74069737D01*
X130679179Y-74009394D01*
X130810289Y-73921789D01*
X130845258Y-73886820D01*
X130906580Y-73853334D01*
X130932940Y-73850500D01*
X132964071Y-73850500D01*
X133048615Y-73833682D01*
X133089744Y-73825501D01*
X133208127Y-73776465D01*
X133217060Y-73770495D01*
X133219310Y-73768993D01*
X133269831Y-73735236D01*
X133314669Y-73705277D01*
X133605277Y-73414669D01*
X133676465Y-73308127D01*
X133699110Y-73253457D01*
X133725501Y-73189744D01*
X133738333Y-73125233D01*
X133750500Y-73064071D01*
X133750500Y-72375857D01*
X133759540Y-72345069D01*
X133767100Y-72313879D01*
X133769472Y-72311243D01*
X133770185Y-72308818D01*
X133788911Y-72286132D01*
X133794904Y-72280414D01*
X133816928Y-72264414D01*
X133925541Y-72155800D01*
X133926561Y-72154828D01*
X133956355Y-72139460D01*
X133985791Y-72123387D01*
X133987306Y-72123495D01*
X133988657Y-72122799D01*
X134022027Y-72125978D01*
X134055483Y-72128371D01*
X134056699Y-72129281D01*
X134058212Y-72129426D01*
X134084559Y-72150136D01*
X134111417Y-72170242D01*
X134112890Y-72172407D01*
X134113142Y-72172605D01*
X134113262Y-72172954D01*
X134117688Y-72179456D01*
X134157285Y-72243652D01*
X134157288Y-72243656D01*
X134281344Y-72367712D01*
X134290591Y-72373416D01*
X134337318Y-72425360D01*
X134349500Y-72478957D01*
X134349500Y-76837770D01*
X134329815Y-76904809D01*
X134313181Y-76925451D01*
X133525451Y-77713181D01*
X133464128Y-77746666D01*
X133437770Y-77749500D01*
X132541227Y-77749500D01*
X132474188Y-77729815D01*
X132428433Y-77677011D01*
X132418489Y-77607853D01*
X132447514Y-77544297D01*
X132484930Y-77515016D01*
X132567501Y-77472944D01*
X132672955Y-77396328D01*
X132727246Y-77356884D01*
X132727248Y-77356881D01*
X132727252Y-77356879D01*
X132866879Y-77217252D01*
X132866881Y-77217248D01*
X132866884Y-77217246D01*
X132952430Y-77099500D01*
X132982944Y-77057501D01*
X133072591Y-76881561D01*
X133133610Y-76693763D01*
X133134964Y-76685216D01*
X133164500Y-76498736D01*
X133164500Y-76301263D01*
X133133610Y-76106236D01*
X133101112Y-76006219D01*
X133072591Y-75918439D01*
X132982944Y-75742499D01*
X132946688Y-75692596D01*
X132866884Y-75582753D01*
X132727246Y-75443115D01*
X132567504Y-75327058D01*
X132567503Y-75327057D01*
X132567501Y-75327056D01*
X132391561Y-75237409D01*
X132391558Y-75237408D01*
X132203763Y-75176389D01*
X132008736Y-75145500D01*
X132008731Y-75145500D01*
X131811269Y-75145500D01*
X131811264Y-75145500D01*
X131616236Y-75176389D01*
X131428441Y-75237408D01*
X131252495Y-75327058D01*
X131092753Y-75443115D01*
X130953115Y-75582753D01*
X130837058Y-75742495D01*
X130837056Y-75742499D01*
X130751520Y-75910372D01*
X130750485Y-75912403D01*
X130702510Y-75963199D01*
X130634689Y-75979994D01*
X130568554Y-75957456D01*
X130529515Y-75912403D01*
X130528481Y-75910373D01*
X130442944Y-75742499D01*
X130406688Y-75692596D01*
X130326884Y-75582753D01*
X130187246Y-75443115D01*
X130027504Y-75327058D01*
X130027503Y-75327057D01*
X130027501Y-75327056D01*
X129851561Y-75237409D01*
X129851558Y-75237408D01*
X129663763Y-75176389D01*
X129468736Y-75145500D01*
X129468731Y-75145500D01*
X129271269Y-75145500D01*
X129271264Y-75145500D01*
X129076236Y-75176389D01*
X128888441Y-75237408D01*
X128712495Y-75327058D01*
X128552753Y-75443115D01*
X128413115Y-75582753D01*
X128297058Y-75742495D01*
X128297056Y-75742499D01*
X128211520Y-75910372D01*
X128210485Y-75912403D01*
X128162510Y-75963199D01*
X128094689Y-75979994D01*
X128028554Y-75957456D01*
X127989515Y-75912403D01*
X127988481Y-75910373D01*
X127902944Y-75742499D01*
X127866688Y-75692596D01*
X127786884Y-75582753D01*
X127647250Y-75443119D01*
X127647245Y-75443115D01*
X127551615Y-75373636D01*
X127508949Y-75318306D01*
X127500500Y-75273318D01*
X127500500Y-74041518D01*
X127520185Y-73974479D01*
X127536814Y-73953842D01*
X128928837Y-72561818D01*
X128990160Y-72528334D01*
X129016518Y-72525500D01*
X129186610Y-72525500D01*
X129186611Y-72525500D01*
X129357701Y-72498402D01*
X129522445Y-72444873D01*
X129676788Y-72366232D01*
X129816928Y-72264414D01*
X129939414Y-72141928D01*
X129999682Y-72058975D01*
X130055012Y-72016311D01*
X130124626Y-72010332D01*
X130186421Y-72042938D01*
G37*
%TD.AperFunction*%
%TA.AperFunction,NonConductor*%
G36*
X130657228Y-76824066D02*
G01*
X130669807Y-76823527D01*
X130689670Y-76835121D01*
X130711446Y-76842542D01*
X130720720Y-76853245D01*
X130730149Y-76858749D01*
X130750481Y-76887591D01*
X130820751Y-77025501D01*
X130837058Y-77057505D01*
X130953115Y-77217246D01*
X131092753Y-77356884D01*
X131242234Y-77465486D01*
X131252499Y-77472944D01*
X131335069Y-77515016D01*
X131385864Y-77562990D01*
X131402659Y-77630811D01*
X131380122Y-77696946D01*
X131325406Y-77740397D01*
X131278773Y-77749500D01*
X130001227Y-77749500D01*
X129934188Y-77729815D01*
X129888433Y-77677011D01*
X129878489Y-77607853D01*
X129907514Y-77544297D01*
X129944930Y-77515016D01*
X130027501Y-77472944D01*
X130132955Y-77396328D01*
X130187246Y-77356884D01*
X130187248Y-77356881D01*
X130187252Y-77356879D01*
X130326879Y-77217252D01*
X130326881Y-77217248D01*
X130326884Y-77217246D01*
X130442941Y-77057505D01*
X130442942Y-77057504D01*
X130442944Y-77057501D01*
X130529517Y-76887593D01*
X130538159Y-76878442D01*
X130542895Y-76866776D01*
X130561696Y-76853521D01*
X130577490Y-76836800D01*
X130589710Y-76833773D01*
X130600002Y-76826519D01*
X130622984Y-76825533D01*
X130645311Y-76820005D01*
X130657228Y-76824066D01*
G37*
%TD.AperFunction*%
%TA.AperFunction,NonConductor*%
G36*
X128171446Y-76842542D02*
G01*
X128210482Y-76887593D01*
X128280751Y-77025501D01*
X128297058Y-77057505D01*
X128413115Y-77217246D01*
X128552753Y-77356884D01*
X128702234Y-77465486D01*
X128712499Y-77472944D01*
X128795069Y-77515016D01*
X128845864Y-77562990D01*
X128862659Y-77630811D01*
X128840122Y-77696946D01*
X128785406Y-77740397D01*
X128738773Y-77749500D01*
X127461227Y-77749500D01*
X127394188Y-77729815D01*
X127348433Y-77677011D01*
X127338489Y-77607853D01*
X127367514Y-77544297D01*
X127404930Y-77515016D01*
X127487501Y-77472944D01*
X127592955Y-77396328D01*
X127647246Y-77356884D01*
X127647248Y-77356881D01*
X127647252Y-77356879D01*
X127786879Y-77217252D01*
X127786881Y-77217248D01*
X127786884Y-77217246D01*
X127902941Y-77057505D01*
X127902942Y-77057504D01*
X127902944Y-77057501D01*
X127989517Y-76887593D01*
X128037490Y-76836800D01*
X128105311Y-76820005D01*
X128171446Y-76842542D01*
G37*
%TD.AperFunction*%
%TA.AperFunction,NonConductor*%
G36*
X164859340Y-75900568D02*
G01*
X164915273Y-75942439D01*
X164932189Y-75973417D01*
X164981202Y-76104828D01*
X164981206Y-76104835D01*
X165067452Y-76220044D01*
X165067455Y-76220047D01*
X165182664Y-76306293D01*
X165182673Y-76306298D01*
X165293832Y-76347757D01*
X165349766Y-76389627D01*
X165374184Y-76455092D01*
X165374500Y-76463939D01*
X165374500Y-78546551D01*
X165354815Y-78613590D01*
X165350818Y-78619436D01*
X165245479Y-78764423D01*
X165161547Y-78929147D01*
X165161546Y-78929150D01*
X165104420Y-79104969D01*
X165102473Y-79117263D01*
X165072543Y-79180397D01*
X165013231Y-79217328D01*
X164943369Y-79216330D01*
X164885136Y-79177719D01*
X164857527Y-79117263D01*
X164857192Y-79115150D01*
X164855580Y-79104971D01*
X164816152Y-78983624D01*
X164798453Y-78929150D01*
X164798452Y-78929147D01*
X164733085Y-78800858D01*
X164714523Y-78764428D01*
X164675189Y-78710289D01*
X164659181Y-78688255D01*
X164635702Y-78622449D01*
X164635500Y-78615371D01*
X164635500Y-76073258D01*
X164639487Y-76059678D01*
X164638635Y-76045552D01*
X164649135Y-76026820D01*
X164655185Y-76006219D01*
X164671818Y-75985578D01*
X164699940Y-75957456D01*
X164728327Y-75929068D01*
X164789648Y-75895584D01*
X164859340Y-75900568D01*
G37*
%TD.AperFunction*%
%TA.AperFunction,NonConductor*%
G36*
X162536444Y-75666499D02*
G01*
X162575486Y-75711556D01*
X162579951Y-75720320D01*
X162704890Y-75892286D01*
X162798181Y-75985577D01*
X162831666Y-76046900D01*
X162834500Y-76073258D01*
X162834500Y-78546551D01*
X162814815Y-78613590D01*
X162810818Y-78619436D01*
X162705479Y-78764423D01*
X162621547Y-78929147D01*
X162621546Y-78929150D01*
X162564420Y-79104969D01*
X162562473Y-79117263D01*
X162532543Y-79180397D01*
X162473231Y-79217328D01*
X162403369Y-79216330D01*
X162345136Y-79177719D01*
X162317527Y-79117263D01*
X162317192Y-79115150D01*
X162315580Y-79104971D01*
X162276152Y-78983624D01*
X162258453Y-78929150D01*
X162258452Y-78929147D01*
X162193085Y-78800858D01*
X162174523Y-78764428D01*
X162135189Y-78710289D01*
X162119181Y-78688255D01*
X162095702Y-78622449D01*
X162095500Y-78615371D01*
X162095500Y-76073258D01*
X162115185Y-76006219D01*
X162131819Y-75985577D01*
X162174957Y-75942439D01*
X162225104Y-75892292D01*
X162225106Y-75892288D01*
X162225109Y-75892286D01*
X162350048Y-75720320D01*
X162350047Y-75720320D01*
X162350051Y-75720316D01*
X162354514Y-75711554D01*
X162402488Y-75660759D01*
X162470308Y-75643963D01*
X162536444Y-75666499D01*
G37*
%TD.AperFunction*%
%TA.AperFunction,NonConductor*%
G36*
X159996444Y-75666499D02*
G01*
X160035486Y-75711556D01*
X160039951Y-75720320D01*
X160164890Y-75892286D01*
X160258181Y-75985577D01*
X160291666Y-76046900D01*
X160294500Y-76073258D01*
X160294500Y-78546551D01*
X160274815Y-78613590D01*
X160270818Y-78619436D01*
X160165479Y-78764423D01*
X160081547Y-78929147D01*
X160081546Y-78929150D01*
X160024420Y-79104969D01*
X160022473Y-79117263D01*
X159992543Y-79180397D01*
X159933231Y-79217328D01*
X159863369Y-79216330D01*
X159805136Y-79177719D01*
X159777527Y-79117263D01*
X159777192Y-79115150D01*
X159775580Y-79104971D01*
X159736152Y-78983624D01*
X159718453Y-78929150D01*
X159718452Y-78929147D01*
X159653085Y-78800858D01*
X159634523Y-78764428D01*
X159595189Y-78710289D01*
X159579181Y-78688255D01*
X159555702Y-78622449D01*
X159555500Y-78615371D01*
X159555500Y-76073258D01*
X159575185Y-76006219D01*
X159591819Y-75985577D01*
X159634957Y-75942439D01*
X159685104Y-75892292D01*
X159685106Y-75892288D01*
X159685109Y-75892286D01*
X159810048Y-75720320D01*
X159810047Y-75720320D01*
X159810051Y-75720316D01*
X159814514Y-75711554D01*
X159862488Y-75660759D01*
X159930308Y-75643963D01*
X159996444Y-75666499D01*
G37*
%TD.AperFunction*%
%TA.AperFunction,NonConductor*%
G36*
X157456444Y-75666499D02*
G01*
X157495486Y-75711556D01*
X157499951Y-75720320D01*
X157624890Y-75892286D01*
X157718181Y-75985577D01*
X157751666Y-76046900D01*
X157754500Y-76073258D01*
X157754500Y-78546551D01*
X157734815Y-78613590D01*
X157730818Y-78619436D01*
X157625479Y-78764423D01*
X157541547Y-78929147D01*
X157541546Y-78929150D01*
X157484420Y-79104969D01*
X157482473Y-79117263D01*
X157452543Y-79180397D01*
X157393231Y-79217328D01*
X157323369Y-79216330D01*
X157265136Y-79177719D01*
X157237527Y-79117263D01*
X157237192Y-79115150D01*
X157235580Y-79104971D01*
X157196152Y-78983624D01*
X157178453Y-78929150D01*
X157178452Y-78929147D01*
X157113085Y-78800858D01*
X157094523Y-78764428D01*
X157055189Y-78710289D01*
X157039181Y-78688255D01*
X157015702Y-78622449D01*
X157015500Y-78615371D01*
X157015500Y-76073258D01*
X157035185Y-76006219D01*
X157051819Y-75985577D01*
X157094957Y-75942439D01*
X157145104Y-75892292D01*
X157145106Y-75892288D01*
X157145109Y-75892286D01*
X157270048Y-75720320D01*
X157270047Y-75720320D01*
X157270051Y-75720316D01*
X157274514Y-75711554D01*
X157322488Y-75660759D01*
X157390308Y-75643963D01*
X157456444Y-75666499D01*
G37*
%TD.AperFunction*%
%TA.AperFunction,NonConductor*%
G36*
X154916444Y-75666499D02*
G01*
X154955486Y-75711556D01*
X154959951Y-75720320D01*
X155084890Y-75892286D01*
X155178181Y-75985577D01*
X155211666Y-76046900D01*
X155214500Y-76073258D01*
X155214500Y-78546551D01*
X155194815Y-78613590D01*
X155190818Y-78619436D01*
X155085479Y-78764423D01*
X155001547Y-78929147D01*
X155001546Y-78929150D01*
X154944420Y-79104969D01*
X154942473Y-79117263D01*
X154912543Y-79180397D01*
X154853231Y-79217328D01*
X154783369Y-79216330D01*
X154725136Y-79177719D01*
X154697527Y-79117263D01*
X154697192Y-79115150D01*
X154695580Y-79104971D01*
X154656152Y-78983624D01*
X154638453Y-78929150D01*
X154638452Y-78929147D01*
X154573085Y-78800858D01*
X154554523Y-78764428D01*
X154515189Y-78710289D01*
X154499181Y-78688255D01*
X154475702Y-78622449D01*
X154475500Y-78615371D01*
X154475500Y-76073258D01*
X154495185Y-76006219D01*
X154511819Y-75985577D01*
X154554957Y-75942439D01*
X154605104Y-75892292D01*
X154605106Y-75892288D01*
X154605109Y-75892286D01*
X154730048Y-75720320D01*
X154730047Y-75720320D01*
X154730051Y-75720316D01*
X154734514Y-75711554D01*
X154782488Y-75660759D01*
X154850308Y-75643963D01*
X154916444Y-75666499D01*
G37*
%TD.AperFunction*%
%TA.AperFunction,NonConductor*%
G36*
X152376444Y-75666499D02*
G01*
X152415486Y-75711556D01*
X152419951Y-75720320D01*
X152544890Y-75892286D01*
X152638181Y-75985577D01*
X152671666Y-76046900D01*
X152674500Y-76073258D01*
X152674500Y-78546551D01*
X152654815Y-78613590D01*
X152650818Y-78619436D01*
X152545479Y-78764423D01*
X152461547Y-78929147D01*
X152461546Y-78929150D01*
X152404420Y-79104969D01*
X152402473Y-79117263D01*
X152372543Y-79180397D01*
X152313231Y-79217328D01*
X152243369Y-79216330D01*
X152185136Y-79177719D01*
X152157527Y-79117263D01*
X152157192Y-79115150D01*
X152155580Y-79104971D01*
X152116152Y-78983624D01*
X152098453Y-78929150D01*
X152098452Y-78929147D01*
X152033085Y-78800858D01*
X152014523Y-78764428D01*
X151975189Y-78710289D01*
X151959181Y-78688255D01*
X151935702Y-78622449D01*
X151935500Y-78615371D01*
X151935500Y-76073258D01*
X151955185Y-76006219D01*
X151971819Y-75985577D01*
X152014957Y-75942439D01*
X152065104Y-75892292D01*
X152065106Y-75892288D01*
X152065109Y-75892286D01*
X152190048Y-75720320D01*
X152190047Y-75720320D01*
X152190051Y-75720316D01*
X152194514Y-75711554D01*
X152242488Y-75660759D01*
X152310308Y-75643963D01*
X152376444Y-75666499D01*
G37*
%TD.AperFunction*%
%TA.AperFunction,NonConductor*%
G36*
X149836444Y-75666499D02*
G01*
X149875486Y-75711556D01*
X149879951Y-75720320D01*
X150004890Y-75892286D01*
X150098181Y-75985577D01*
X150131666Y-76046900D01*
X150134500Y-76073258D01*
X150134500Y-78546551D01*
X150114815Y-78613590D01*
X150110818Y-78619436D01*
X150005479Y-78764423D01*
X149921547Y-78929147D01*
X149921546Y-78929150D01*
X149864420Y-79104969D01*
X149862473Y-79117263D01*
X149832543Y-79180397D01*
X149773231Y-79217328D01*
X149703369Y-79216330D01*
X149645136Y-79177719D01*
X149617527Y-79117263D01*
X149617192Y-79115150D01*
X149615580Y-79104971D01*
X149576152Y-78983624D01*
X149558453Y-78929150D01*
X149558452Y-78929147D01*
X149493085Y-78800858D01*
X149474523Y-78764428D01*
X149435189Y-78710289D01*
X149419181Y-78688255D01*
X149395702Y-78622449D01*
X149395500Y-78615371D01*
X149395500Y-76073258D01*
X149415185Y-76006219D01*
X149431819Y-75985577D01*
X149474957Y-75942439D01*
X149525104Y-75892292D01*
X149525106Y-75892288D01*
X149525109Y-75892286D01*
X149650048Y-75720320D01*
X149650047Y-75720320D01*
X149650051Y-75720316D01*
X149654514Y-75711554D01*
X149702488Y-75660759D01*
X149770308Y-75643963D01*
X149836444Y-75666499D01*
G37*
%TD.AperFunction*%
%TA.AperFunction,NonConductor*%
G36*
X115131376Y-78451573D02*
G01*
X115136196Y-78456142D01*
X125367873Y-88687819D01*
X125401358Y-88749142D01*
X125396374Y-88818834D01*
X125354502Y-88874767D01*
X125289038Y-88899184D01*
X125280192Y-88899500D01*
X125121155Y-88899500D01*
X124966510Y-88930261D01*
X124966498Y-88930264D01*
X124820827Y-88990602D01*
X124820814Y-88990609D01*
X124689711Y-89078210D01*
X124689707Y-89078213D01*
X124654742Y-89113180D01*
X124593420Y-89146666D01*
X124567060Y-89149500D01*
X123060759Y-89149500D01*
X122993720Y-89129815D01*
X122947965Y-89077011D01*
X122938021Y-89007853D01*
X122957657Y-88956609D01*
X122973046Y-88933578D01*
X123009394Y-88879179D01*
X123011222Y-88874767D01*
X123023067Y-88846166D01*
X123069737Y-88733497D01*
X123100500Y-88578842D01*
X123100500Y-88421158D01*
X123100500Y-88421155D01*
X123100499Y-88421153D01*
X123069738Y-88266510D01*
X123069737Y-88266503D01*
X123069735Y-88266498D01*
X123009397Y-88120827D01*
X123009390Y-88120814D01*
X122921789Y-87989711D01*
X122921786Y-87989707D01*
X122810292Y-87878213D01*
X122810288Y-87878210D01*
X122679185Y-87790609D01*
X122679172Y-87790602D01*
X122533501Y-87730264D01*
X122533489Y-87730261D01*
X122378845Y-87699500D01*
X122378842Y-87699500D01*
X122270808Y-87699500D01*
X122203769Y-87679815D01*
X122183127Y-87663181D01*
X113382127Y-78862181D01*
X113348642Y-78800858D01*
X113353626Y-78731166D01*
X113395498Y-78675233D01*
X113460962Y-78650816D01*
X113469808Y-78650500D01*
X113795065Y-78650500D01*
X113862104Y-78670185D01*
X113863909Y-78671366D01*
X113920821Y-78709394D01*
X113920823Y-78709395D01*
X113920827Y-78709397D01*
X114053674Y-78764423D01*
X114066503Y-78769737D01*
X114179165Y-78792147D01*
X114221153Y-78800499D01*
X114221156Y-78800500D01*
X114221158Y-78800500D01*
X114378844Y-78800500D01*
X114378845Y-78800499D01*
X114533497Y-78769737D01*
X114679179Y-78709394D01*
X114810289Y-78621789D01*
X114921789Y-78510289D01*
X114945414Y-78474931D01*
X114999023Y-78430128D01*
X115068348Y-78421419D01*
X115131376Y-78451573D01*
G37*
%TD.AperFunction*%
%TA.AperFunction,NonConductor*%
G36*
X165133539Y-93455827D02*
G01*
X165152448Y-93456164D01*
X165180670Y-93469666D01*
X165182437Y-93470185D01*
X165184286Y-93471396D01*
X165188428Y-93474163D01*
X165191873Y-93476465D01*
X165191879Y-93476467D01*
X165191880Y-93476468D01*
X165229443Y-93492027D01*
X165269672Y-93518907D01*
X165392204Y-93641439D01*
X165425689Y-93702762D01*
X165420705Y-93772454D01*
X165392204Y-93816801D01*
X165354139Y-93854865D01*
X165354135Y-93854870D01*
X165245479Y-94004424D01*
X165161547Y-94169147D01*
X165161546Y-94169150D01*
X165104420Y-94344969D01*
X165102473Y-94357263D01*
X165072543Y-94420397D01*
X165013231Y-94457328D01*
X164943369Y-94456330D01*
X164885136Y-94417719D01*
X164857527Y-94357263D01*
X164857192Y-94355150D01*
X164855580Y-94344971D01*
X164798452Y-94169148D01*
X164798452Y-94169147D01*
X164748116Y-94070358D01*
X164714523Y-94004428D01*
X164635106Y-93895119D01*
X164605864Y-93854870D01*
X164605860Y-93854865D01*
X164475134Y-93724139D01*
X164475129Y-93724135D01*
X164407250Y-93674818D01*
X164364584Y-93619488D01*
X164358605Y-93549875D01*
X164391211Y-93488080D01*
X164452049Y-93453723D01*
X164480135Y-93450500D01*
X165115398Y-93450500D01*
X165133539Y-93455827D01*
G37*
%TD.AperFunction*%
%TA.AperFunction,NonConductor*%
G36*
X165016630Y-94783669D02*
G01*
X165074863Y-94822279D01*
X165102473Y-94882737D01*
X165104420Y-94895030D01*
X165161546Y-95070849D01*
X165161547Y-95070852D01*
X165192608Y-95131811D01*
X165245477Y-95235572D01*
X165253449Y-95246545D01*
X165275818Y-95277332D01*
X165299298Y-95343138D01*
X165299500Y-95350218D01*
X165299500Y-97828600D01*
X165279815Y-97895639D01*
X165227011Y-97941394D01*
X165218833Y-97944782D01*
X165087671Y-97993702D01*
X165087664Y-97993706D01*
X164972455Y-98079952D01*
X164972452Y-98079955D01*
X164886206Y-98195164D01*
X164886203Y-98195169D01*
X164837189Y-98326583D01*
X164795317Y-98382516D01*
X164729853Y-98406933D01*
X164661580Y-98392081D01*
X164633326Y-98370930D01*
X164596819Y-98334423D01*
X164563334Y-98273100D01*
X164560500Y-98246742D01*
X164560500Y-95481857D01*
X164580185Y-95414818D01*
X164596819Y-95394176D01*
X164597009Y-95393986D01*
X164605859Y-95385136D01*
X164714523Y-95235572D01*
X164798452Y-95070852D01*
X164855580Y-94895029D01*
X164857527Y-94882737D01*
X164887456Y-94819602D01*
X164946768Y-94782671D01*
X165016630Y-94783669D01*
G37*
%TD.AperFunction*%
%TA.AperFunction,NonConductor*%
G36*
X162476630Y-94783669D02*
G01*
X162534863Y-94822279D01*
X162562473Y-94882737D01*
X162564420Y-94895030D01*
X162621546Y-95070849D01*
X162621547Y-95070852D01*
X162652608Y-95131811D01*
X162705477Y-95235572D01*
X162713449Y-95246545D01*
X162735818Y-95277332D01*
X162759298Y-95343138D01*
X162759500Y-95350218D01*
X162759500Y-98206742D01*
X162739815Y-98273781D01*
X162723181Y-98294423D01*
X162609894Y-98407709D01*
X162609890Y-98407713D01*
X162484949Y-98579682D01*
X162480484Y-98588446D01*
X162432509Y-98639242D01*
X162364688Y-98656036D01*
X162298553Y-98633498D01*
X162259516Y-98588446D01*
X162255050Y-98579682D01*
X162130109Y-98407713D01*
X162056819Y-98334423D01*
X162023334Y-98273100D01*
X162020500Y-98246742D01*
X162020500Y-95481857D01*
X162040185Y-95414818D01*
X162056819Y-95394176D01*
X162057009Y-95393986D01*
X162065859Y-95385136D01*
X162174523Y-95235572D01*
X162258452Y-95070852D01*
X162315580Y-94895029D01*
X162317527Y-94882737D01*
X162347456Y-94819602D01*
X162406768Y-94782671D01*
X162476630Y-94783669D01*
G37*
%TD.AperFunction*%
%TA.AperFunction,NonConductor*%
G36*
X159936630Y-94783669D02*
G01*
X159994863Y-94822279D01*
X160022473Y-94882737D01*
X160024420Y-94895030D01*
X160081546Y-95070849D01*
X160081547Y-95070852D01*
X160112608Y-95131811D01*
X160165477Y-95235572D01*
X160173449Y-95246545D01*
X160195818Y-95277332D01*
X160219298Y-95343138D01*
X160219500Y-95350218D01*
X160219500Y-98206742D01*
X160199815Y-98273781D01*
X160183181Y-98294423D01*
X160069894Y-98407709D01*
X160069890Y-98407713D01*
X159944949Y-98579682D01*
X159940484Y-98588446D01*
X159892509Y-98639242D01*
X159824688Y-98656036D01*
X159758553Y-98633498D01*
X159719516Y-98588446D01*
X159715050Y-98579682D01*
X159590109Y-98407713D01*
X159516819Y-98334423D01*
X159483334Y-98273100D01*
X159480500Y-98246742D01*
X159480500Y-95481857D01*
X159500185Y-95414818D01*
X159516819Y-95394176D01*
X159517009Y-95393986D01*
X159525859Y-95385136D01*
X159634523Y-95235572D01*
X159718452Y-95070852D01*
X159775580Y-94895029D01*
X159777527Y-94882737D01*
X159807456Y-94819602D01*
X159866768Y-94782671D01*
X159936630Y-94783669D01*
G37*
%TD.AperFunction*%
%TA.AperFunction,NonConductor*%
G36*
X157396630Y-94783669D02*
G01*
X157454863Y-94822279D01*
X157482473Y-94882737D01*
X157484420Y-94895030D01*
X157541546Y-95070849D01*
X157541547Y-95070852D01*
X157572608Y-95131811D01*
X157625477Y-95235572D01*
X157633449Y-95246545D01*
X157655818Y-95277332D01*
X157679298Y-95343138D01*
X157679500Y-95350218D01*
X157679500Y-98206742D01*
X157659815Y-98273781D01*
X157643181Y-98294423D01*
X157529894Y-98407709D01*
X157529890Y-98407713D01*
X157404949Y-98579682D01*
X157400484Y-98588446D01*
X157352509Y-98639242D01*
X157284688Y-98656036D01*
X157218553Y-98633498D01*
X157179516Y-98588446D01*
X157175050Y-98579682D01*
X157050109Y-98407713D01*
X156976819Y-98334423D01*
X156943334Y-98273100D01*
X156940500Y-98246742D01*
X156940500Y-95481857D01*
X156960185Y-95414818D01*
X156976819Y-95394176D01*
X156977009Y-95393986D01*
X156985859Y-95385136D01*
X157094523Y-95235572D01*
X157178452Y-95070852D01*
X157235580Y-94895029D01*
X157237527Y-94882737D01*
X157267456Y-94819602D01*
X157326768Y-94782671D01*
X157396630Y-94783669D01*
G37*
%TD.AperFunction*%
%TA.AperFunction,NonConductor*%
G36*
X154856630Y-94783669D02*
G01*
X154914863Y-94822279D01*
X154942473Y-94882737D01*
X154944420Y-94895030D01*
X155001546Y-95070849D01*
X155001547Y-95070852D01*
X155032608Y-95131811D01*
X155085477Y-95235572D01*
X155093449Y-95246545D01*
X155115818Y-95277332D01*
X155139298Y-95343138D01*
X155139500Y-95350218D01*
X155139500Y-98206742D01*
X155119815Y-98273781D01*
X155103181Y-98294423D01*
X154989894Y-98407709D01*
X154989890Y-98407713D01*
X154864949Y-98579682D01*
X154860484Y-98588446D01*
X154812509Y-98639242D01*
X154744688Y-98656036D01*
X154678553Y-98633498D01*
X154639516Y-98588446D01*
X154635050Y-98579682D01*
X154510109Y-98407713D01*
X154436819Y-98334423D01*
X154403334Y-98273100D01*
X154400500Y-98246742D01*
X154400500Y-95481857D01*
X154420185Y-95414818D01*
X154436819Y-95394176D01*
X154437009Y-95393986D01*
X154445859Y-95385136D01*
X154554523Y-95235572D01*
X154638452Y-95070852D01*
X154695580Y-94895029D01*
X154697527Y-94882737D01*
X154727456Y-94819602D01*
X154786768Y-94782671D01*
X154856630Y-94783669D01*
G37*
%TD.AperFunction*%
%TA.AperFunction,NonConductor*%
G36*
X152316630Y-94783669D02*
G01*
X152374863Y-94822279D01*
X152402473Y-94882737D01*
X152404420Y-94895030D01*
X152461546Y-95070849D01*
X152461547Y-95070852D01*
X152492608Y-95131811D01*
X152545477Y-95235572D01*
X152553449Y-95246545D01*
X152575818Y-95277332D01*
X152599298Y-95343138D01*
X152599500Y-95350218D01*
X152599500Y-98206742D01*
X152579815Y-98273781D01*
X152563181Y-98294423D01*
X152449894Y-98407709D01*
X152449890Y-98407713D01*
X152324949Y-98579682D01*
X152320484Y-98588446D01*
X152272509Y-98639242D01*
X152204688Y-98656036D01*
X152138553Y-98633498D01*
X152099516Y-98588446D01*
X152095050Y-98579682D01*
X151970109Y-98407713D01*
X151896819Y-98334423D01*
X151863334Y-98273100D01*
X151860500Y-98246742D01*
X151860500Y-95481857D01*
X151880185Y-95414818D01*
X151896819Y-95394176D01*
X151897009Y-95393986D01*
X151905859Y-95385136D01*
X152014523Y-95235572D01*
X152098452Y-95070852D01*
X152155580Y-94895029D01*
X152157527Y-94882737D01*
X152187456Y-94819602D01*
X152246768Y-94782671D01*
X152316630Y-94783669D01*
G37*
%TD.AperFunction*%
%TA.AperFunction,NonConductor*%
G36*
X149757071Y-94783389D02*
G01*
X149776630Y-94783669D01*
X149790040Y-94792560D01*
X149805543Y-94796873D01*
X149818561Y-94811470D01*
X149834863Y-94822279D01*
X149841855Y-94837589D01*
X149852047Y-94849018D01*
X149862473Y-94882737D01*
X149864420Y-94895030D01*
X149921546Y-95070849D01*
X149921547Y-95070852D01*
X149952608Y-95131811D01*
X150005477Y-95235572D01*
X150013449Y-95246545D01*
X150035818Y-95277332D01*
X150059298Y-95343138D01*
X150059500Y-95350218D01*
X150059500Y-98206742D01*
X150039815Y-98273781D01*
X150023181Y-98294423D01*
X149909894Y-98407709D01*
X149909890Y-98407713D01*
X149784949Y-98579682D01*
X149780484Y-98588446D01*
X149732509Y-98639242D01*
X149664688Y-98656036D01*
X149598553Y-98633498D01*
X149559516Y-98588446D01*
X149555050Y-98579682D01*
X149430109Y-98407713D01*
X149356819Y-98334423D01*
X149323334Y-98273100D01*
X149320500Y-98246742D01*
X149320500Y-95481857D01*
X149340185Y-95414818D01*
X149356819Y-95394176D01*
X149357009Y-95393986D01*
X149365859Y-95385136D01*
X149474523Y-95235572D01*
X149558452Y-95070852D01*
X149615580Y-94895029D01*
X149617527Y-94882737D01*
X149624419Y-94868196D01*
X149626482Y-94852239D01*
X149639077Y-94837276D01*
X149647456Y-94819602D01*
X149661115Y-94811096D01*
X149671478Y-94798787D01*
X149690164Y-94793009D01*
X149706768Y-94782671D01*
X149722857Y-94782900D01*
X149738229Y-94778148D01*
X149757071Y-94783389D01*
G37*
%TD.AperFunction*%
%TA.AperFunction,NonConductor*%
G36*
X138146231Y-70270185D02*
G01*
X138166873Y-70286819D01*
X143417872Y-75537819D01*
X143451357Y-75599142D01*
X143446373Y-75668834D01*
X143404501Y-75724767D01*
X143339037Y-75749184D01*
X143330191Y-75749500D01*
X142335929Y-75749500D01*
X142210261Y-75774497D01*
X142210255Y-75774499D01*
X142091870Y-75823535D01*
X141985331Y-75894722D01*
X141985324Y-75894728D01*
X133797068Y-84082984D01*
X133735745Y-84116469D01*
X133733579Y-84116920D01*
X133666508Y-84130261D01*
X133666498Y-84130264D01*
X133520827Y-84190602D01*
X133520814Y-84190609D01*
X133389711Y-84278210D01*
X133389707Y-84278213D01*
X133278213Y-84389707D01*
X133278210Y-84389711D01*
X133190609Y-84520814D01*
X133190602Y-84520827D01*
X133130264Y-84666498D01*
X133130261Y-84666510D01*
X133099500Y-84821153D01*
X133099500Y-84978846D01*
X133130261Y-85133489D01*
X133130264Y-85133501D01*
X133190602Y-85279172D01*
X133190609Y-85279185D01*
X133278210Y-85410288D01*
X133278213Y-85410292D01*
X133389707Y-85521786D01*
X133389711Y-85521789D01*
X133520814Y-85609390D01*
X133520827Y-85609397D01*
X133598378Y-85641519D01*
X133666503Y-85669737D01*
X133685540Y-85673523D01*
X133701793Y-85676757D01*
X133763704Y-85709141D01*
X133798278Y-85769857D01*
X133799086Y-85814993D01*
X133800097Y-85815093D01*
X133799500Y-85821155D01*
X133799500Y-85978846D01*
X133830261Y-86133489D01*
X133830264Y-86133501D01*
X133890602Y-86279172D01*
X133890609Y-86279185D01*
X133978210Y-86410288D01*
X133978213Y-86410292D01*
X134089707Y-86521786D01*
X134089711Y-86521789D01*
X134220814Y-86609390D01*
X134220827Y-86609397D01*
X134366498Y-86669735D01*
X134366503Y-86669737D01*
X134495368Y-86695370D01*
X134521153Y-86700499D01*
X134521156Y-86700500D01*
X134575500Y-86700500D01*
X134642539Y-86720185D01*
X134688294Y-86772989D01*
X134699500Y-86824500D01*
X134699500Y-86878846D01*
X134730261Y-87033489D01*
X134730264Y-87033501D01*
X134790602Y-87179172D01*
X134790609Y-87179185D01*
X134878210Y-87310288D01*
X134878213Y-87310292D01*
X134989707Y-87421786D01*
X134989711Y-87421789D01*
X135120814Y-87509390D01*
X135120827Y-87509397D01*
X135232795Y-87555775D01*
X135266503Y-87569737D01*
X135405604Y-87597406D01*
X135421153Y-87600499D01*
X135421156Y-87600500D01*
X135421158Y-87600500D01*
X135578844Y-87600500D01*
X135578845Y-87600499D01*
X135733497Y-87569737D01*
X135879179Y-87509394D01*
X136010289Y-87421789D01*
X136121789Y-87310289D01*
X136209394Y-87179179D01*
X136269737Y-87033497D01*
X136283079Y-86966416D01*
X136315463Y-86904509D01*
X136316959Y-86902985D01*
X144189455Y-79030489D01*
X144250776Y-78997006D01*
X144301326Y-78996555D01*
X144321158Y-79000500D01*
X144478844Y-79000500D01*
X144478845Y-79000499D01*
X144633497Y-78969737D01*
X144779179Y-78909394D01*
X144910289Y-78821789D01*
X145021789Y-78710289D01*
X145109394Y-78579179D01*
X145169737Y-78433497D01*
X145200500Y-78278842D01*
X145200500Y-78124837D01*
X145220185Y-78057798D01*
X145257243Y-78020661D01*
X145266668Y-78014575D01*
X145279179Y-78009394D01*
X145407449Y-77923686D01*
X145408243Y-77923174D01*
X145440878Y-77913517D01*
X145473287Y-77903370D01*
X145474266Y-77903638D01*
X145475242Y-77903350D01*
X145507911Y-77912868D01*
X145540667Y-77921855D01*
X145541345Y-77922610D01*
X145542322Y-77922895D01*
X145564635Y-77948537D01*
X145587357Y-77973833D01*
X145587607Y-77974938D01*
X145588187Y-77975604D01*
X145588958Y-77980889D01*
X145599500Y-78027350D01*
X145599500Y-82275500D01*
X145579815Y-82342539D01*
X145527011Y-82388294D01*
X145475500Y-82399500D01*
X144531003Y-82399500D01*
X144422590Y-82421065D01*
X144422589Y-82421065D01*
X144395671Y-82426420D01*
X144268190Y-82479224D01*
X144153454Y-82555887D01*
X141755885Y-84953456D01*
X141679228Y-85068182D01*
X141679223Y-85068191D01*
X141662094Y-85109543D01*
X141650637Y-85130977D01*
X141590608Y-85220817D01*
X141590602Y-85220828D01*
X141530264Y-85366498D01*
X141530261Y-85366510D01*
X141499500Y-85521153D01*
X141499500Y-85678846D01*
X141530261Y-85833489D01*
X141530264Y-85833501D01*
X141590602Y-85979172D01*
X141590609Y-85979185D01*
X141678210Y-86110288D01*
X141678213Y-86110292D01*
X141789707Y-86221786D01*
X141789711Y-86221789D01*
X141920814Y-86309390D01*
X141920827Y-86309397D01*
X142066498Y-86369735D01*
X142066503Y-86369737D01*
X142221153Y-86400499D01*
X142221156Y-86400500D01*
X142221158Y-86400500D01*
X142378844Y-86400500D01*
X142378845Y-86400499D01*
X142533497Y-86369737D01*
X142679179Y-86309394D01*
X142810289Y-86221789D01*
X142921789Y-86110289D01*
X143009394Y-85979179D01*
X143010701Y-85976025D01*
X143057984Y-85861872D01*
X143069737Y-85833497D01*
X143100500Y-85678842D01*
X143100500Y-85641519D01*
X143120185Y-85574480D01*
X143136819Y-85553838D01*
X143947547Y-84743110D01*
X144845314Y-83845342D01*
X144906635Y-83811859D01*
X144976327Y-83816843D01*
X145001884Y-83829923D01*
X145120814Y-83909390D01*
X145120827Y-83909397D01*
X145266498Y-83969735D01*
X145266503Y-83969737D01*
X145400204Y-83996332D01*
X145421153Y-84000499D01*
X145421156Y-84000500D01*
X145475500Y-84000500D01*
X145542539Y-84020185D01*
X145588294Y-84072989D01*
X145599500Y-84124500D01*
X145599500Y-84168994D01*
X145599500Y-84168996D01*
X145599499Y-84168996D01*
X145626418Y-84304322D01*
X145626421Y-84304332D01*
X145679222Y-84431807D01*
X145755887Y-84546545D01*
X146153454Y-84944112D01*
X146268192Y-85020777D01*
X146395667Y-85073578D01*
X146395672Y-85073580D01*
X146395676Y-85073580D01*
X146395677Y-85073581D01*
X146531003Y-85100500D01*
X146531006Y-85100500D01*
X146531007Y-85100500D01*
X154925500Y-85100500D01*
X154992539Y-85120185D01*
X155038294Y-85172989D01*
X155049500Y-85224500D01*
X155049500Y-92025500D01*
X155029815Y-92092539D01*
X154977011Y-92138294D01*
X154925500Y-92149500D01*
X151035929Y-92149500D01*
X150910261Y-92174497D01*
X150910252Y-92174500D01*
X150904905Y-92176715D01*
X150835435Y-92184180D01*
X150772958Y-92152901D01*
X150769778Y-92149832D01*
X147617015Y-88997069D01*
X147583530Y-88935746D01*
X147583093Y-88933652D01*
X147569737Y-88866503D01*
X147521125Y-88749142D01*
X147509397Y-88720827D01*
X147509390Y-88720814D01*
X147424248Y-88593391D01*
X147403370Y-88526714D01*
X147421854Y-88459334D01*
X147473833Y-88412643D01*
X147527350Y-88400500D01*
X151258481Y-88400500D01*
X151325520Y-88420185D01*
X151346162Y-88436819D01*
X152163181Y-89253838D01*
X152196666Y-89315161D01*
X152199500Y-89341519D01*
X152199500Y-90217059D01*
X152179815Y-90284098D01*
X152163181Y-90304740D01*
X152078213Y-90389707D01*
X152078210Y-90389711D01*
X151990613Y-90520809D01*
X151990602Y-90520827D01*
X151930264Y-90666498D01*
X151930261Y-90666510D01*
X151899500Y-90821153D01*
X151899500Y-90978846D01*
X151930261Y-91133489D01*
X151930264Y-91133501D01*
X151990602Y-91279172D01*
X151990609Y-91279185D01*
X152078210Y-91410288D01*
X152078213Y-91410292D01*
X152189707Y-91521786D01*
X152189711Y-91521789D01*
X152320814Y-91609390D01*
X152320827Y-91609397D01*
X152451052Y-91663337D01*
X152466503Y-91669737D01*
X152621153Y-91700499D01*
X152621156Y-91700500D01*
X152621158Y-91700500D01*
X152778844Y-91700500D01*
X152778845Y-91700499D01*
X152933497Y-91669737D01*
X153051592Y-91620821D01*
X153079172Y-91609397D01*
X153079172Y-91609396D01*
X153079179Y-91609394D01*
X153210289Y-91521789D01*
X153321789Y-91410289D01*
X153409394Y-91279179D01*
X153412200Y-91272406D01*
X153429655Y-91230264D01*
X153469737Y-91133497D01*
X153472090Y-91121662D01*
X153490605Y-91076963D01*
X153520775Y-91031811D01*
X153573580Y-90904328D01*
X153596380Y-90789707D01*
X153600500Y-90768996D01*
X153600500Y-88931007D01*
X153596372Y-88910258D01*
X153596372Y-88910254D01*
X153573581Y-88795679D01*
X153573580Y-88795672D01*
X153547828Y-88733501D01*
X153520777Y-88668192D01*
X153444112Y-88553454D01*
X152046545Y-87155887D01*
X151931807Y-87079222D01*
X151804332Y-87026421D01*
X151804322Y-87026418D01*
X151668996Y-86999500D01*
X151668994Y-86999500D01*
X151668993Y-86999500D01*
X145968994Y-86999500D01*
X145831006Y-86999500D01*
X145831004Y-86999500D01*
X145695677Y-87026418D01*
X145695667Y-87026421D01*
X145568192Y-87079222D01*
X145453454Y-87155887D01*
X144855887Y-87753454D01*
X144779222Y-87868192D01*
X144726421Y-87995667D01*
X144726420Y-87995671D01*
X144726420Y-87995672D01*
X144708586Y-88085331D01*
X144699500Y-88131007D01*
X144699500Y-94731006D01*
X144699500Y-94868994D01*
X144699500Y-94868996D01*
X144699499Y-94868996D01*
X144726418Y-95004322D01*
X144726421Y-95004332D01*
X144779222Y-95131807D01*
X144855887Y-95246545D01*
X144855888Y-95246546D01*
X145303927Y-95694584D01*
X145330807Y-95734812D01*
X145390604Y-95879176D01*
X145390609Y-95879185D01*
X145478210Y-96010288D01*
X145478213Y-96010292D01*
X145589707Y-96121786D01*
X145589711Y-96121789D01*
X145720814Y-96209390D01*
X145720827Y-96209397D01*
X145866498Y-96269735D01*
X145866503Y-96269737D01*
X146021153Y-96300499D01*
X146021156Y-96300500D01*
X146021158Y-96300500D01*
X146178844Y-96300500D01*
X146178845Y-96300499D01*
X146333497Y-96269737D01*
X146479179Y-96209394D01*
X146610289Y-96121789D01*
X146721789Y-96010289D01*
X146809394Y-95879179D01*
X146869737Y-95733497D01*
X146900500Y-95578842D01*
X146900500Y-95421158D01*
X146900500Y-95421155D01*
X146900499Y-95421153D01*
X146890678Y-95371781D01*
X146869737Y-95266503D01*
X146844213Y-95204881D01*
X146809397Y-95120827D01*
X146809390Y-95120814D01*
X146721789Y-94989711D01*
X146721786Y-94989707D01*
X146610292Y-94878213D01*
X146610288Y-94878210D01*
X146479185Y-94790609D01*
X146479176Y-94790604D01*
X146334812Y-94730807D01*
X146327879Y-94726174D01*
X146322838Y-94725078D01*
X146294584Y-94703927D01*
X146136819Y-94546162D01*
X146103334Y-94484839D01*
X146100500Y-94458481D01*
X146100500Y-89827350D01*
X146120185Y-89760311D01*
X146172989Y-89714556D01*
X146242147Y-89704612D01*
X146293391Y-89724248D01*
X146420814Y-89809390D01*
X146420827Y-89809397D01*
X146508230Y-89845599D01*
X146566503Y-89869737D01*
X146633580Y-89883079D01*
X146695490Y-89915463D01*
X146697069Y-89917015D01*
X147243857Y-90463803D01*
X147277342Y-90525126D01*
X147272358Y-90594818D01*
X147230486Y-90650751D01*
X147225068Y-90654586D01*
X147189707Y-90678213D01*
X147078213Y-90789707D01*
X147078210Y-90789711D01*
X146990609Y-90920814D01*
X146990602Y-90920827D01*
X146930264Y-91066498D01*
X146930261Y-91066510D01*
X146899500Y-91221153D01*
X146899500Y-91378846D01*
X146930261Y-91533489D01*
X146930264Y-91533501D01*
X146990602Y-91679172D01*
X146990609Y-91679185D01*
X147078601Y-91810873D01*
X147097467Y-91871124D01*
X147098438Y-91870997D01*
X147099171Y-91876568D01*
X147099479Y-91877550D01*
X147099492Y-91879002D01*
X147099498Y-91879054D01*
X147138738Y-92025500D01*
X147140423Y-92031785D01*
X147162335Y-92069737D01*
X147210349Y-92152901D01*
X147219479Y-92168714D01*
X147219481Y-92168717D01*
X147338349Y-92287585D01*
X147338355Y-92287590D01*
X148307950Y-93257186D01*
X148341435Y-93318509D01*
X148336451Y-93388201D01*
X148294579Y-93444134D01*
X148239669Y-93467340D01*
X148194968Y-93474420D01*
X148019150Y-93531546D01*
X148019147Y-93531547D01*
X147854424Y-93615479D01*
X147704870Y-93724135D01*
X147704865Y-93724139D01*
X147574139Y-93854865D01*
X147574135Y-93854870D01*
X147465479Y-94004424D01*
X147381547Y-94169147D01*
X147381546Y-94169150D01*
X147324419Y-94344969D01*
X147295500Y-94527559D01*
X147295500Y-94712440D01*
X147324419Y-94895030D01*
X147381546Y-95070849D01*
X147381547Y-95070852D01*
X147412608Y-95131811D01*
X147465477Y-95235572D01*
X147473449Y-95246545D01*
X147495818Y-95277332D01*
X147519298Y-95343138D01*
X147519500Y-95350218D01*
X147519500Y-98206742D01*
X147499815Y-98273781D01*
X147483181Y-98294423D01*
X147369894Y-98407709D01*
X147369890Y-98407713D01*
X147244951Y-98579679D01*
X147148444Y-98769085D01*
X147082753Y-98971260D01*
X147049500Y-99181213D01*
X147049500Y-99393786D01*
X147082753Y-99603739D01*
X147148444Y-99805914D01*
X147244951Y-99995320D01*
X147286578Y-100052615D01*
X147310058Y-100118422D01*
X147294232Y-100186475D01*
X147244126Y-100235170D01*
X147186260Y-100249500D01*
X146178269Y-100249500D01*
X146111230Y-100229815D01*
X146065475Y-100177011D01*
X146055531Y-100107853D01*
X146084556Y-100044297D01*
X146105626Y-100025707D01*
X146105581Y-100025653D01*
X146107119Y-100024390D01*
X146109379Y-100022397D01*
X146110289Y-100021789D01*
X146221789Y-99910289D01*
X146309394Y-99779179D01*
X146369737Y-99633497D01*
X146400500Y-99478842D01*
X146400500Y-99321158D01*
X146400500Y-99321155D01*
X146400499Y-99321153D01*
X146369738Y-99166510D01*
X146369737Y-99166503D01*
X146369735Y-99166498D01*
X146309397Y-99020827D01*
X146309390Y-99020814D01*
X146221789Y-98889711D01*
X146221786Y-98889707D01*
X146110292Y-98778213D01*
X146110288Y-98778210D01*
X145979185Y-98690609D01*
X145979172Y-98690602D01*
X145833501Y-98630264D01*
X145833489Y-98630261D01*
X145678845Y-98599500D01*
X145678842Y-98599500D01*
X145521158Y-98599500D01*
X145521155Y-98599500D01*
X145366510Y-98630261D01*
X145366498Y-98630264D01*
X145220827Y-98690602D01*
X145220820Y-98690606D01*
X145191928Y-98709911D01*
X145163955Y-98728602D01*
X145097279Y-98749480D01*
X145095065Y-98749500D01*
X142965845Y-98749500D01*
X142898806Y-98729815D01*
X142853051Y-98677011D01*
X142843107Y-98607853D01*
X142851284Y-98578048D01*
X142869735Y-98533501D01*
X142869737Y-98533497D01*
X142900500Y-98378842D01*
X142900500Y-98221158D01*
X142900500Y-98221155D01*
X142900499Y-98221153D01*
X142895329Y-98195164D01*
X142869737Y-98066503D01*
X142819319Y-97944782D01*
X142809397Y-97920827D01*
X142809390Y-97920814D01*
X142721789Y-97789711D01*
X142721786Y-97789707D01*
X142610292Y-97678213D01*
X142610288Y-97678210D01*
X142479185Y-97590609D01*
X142479172Y-97590602D01*
X142333501Y-97530264D01*
X142333489Y-97530261D01*
X142178845Y-97499500D01*
X142178842Y-97499500D01*
X142021158Y-97499500D01*
X142021155Y-97499500D01*
X141866510Y-97530261D01*
X141866498Y-97530264D01*
X141720827Y-97590602D01*
X141720820Y-97590606D01*
X141691928Y-97609911D01*
X141663955Y-97628602D01*
X141597279Y-97649480D01*
X141595065Y-97649500D01*
X139620808Y-97649500D01*
X139553769Y-97629815D01*
X139533127Y-97613181D01*
X118817015Y-76897069D01*
X118783530Y-76835746D01*
X118783093Y-76833652D01*
X118769737Y-76766503D01*
X118728215Y-76666259D01*
X118709397Y-76620827D01*
X118709390Y-76620814D01*
X118621789Y-76489711D01*
X118621786Y-76489707D01*
X118510292Y-76378213D01*
X118510288Y-76378210D01*
X118379185Y-76290609D01*
X118379172Y-76290602D01*
X118233501Y-76230264D01*
X118233489Y-76230261D01*
X118078845Y-76199500D01*
X118078842Y-76199500D01*
X117921158Y-76199500D01*
X117921155Y-76199500D01*
X117766510Y-76230261D01*
X117766498Y-76230264D01*
X117620827Y-76290602D01*
X117620814Y-76290609D01*
X117489711Y-76378210D01*
X117489707Y-76378213D01*
X117378213Y-76489707D01*
X117378210Y-76489711D01*
X117290609Y-76620814D01*
X117290602Y-76620828D01*
X117288444Y-76626038D01*
X117244600Y-76680438D01*
X117178304Y-76702499D01*
X117110606Y-76685216D01*
X117086205Y-76666259D01*
X114186819Y-73766873D01*
X114153334Y-73705550D01*
X114150500Y-73679192D01*
X114150500Y-72306204D01*
X114170185Y-72239165D01*
X114222989Y-72193410D01*
X114292147Y-72183466D01*
X114355703Y-72212491D01*
X114362181Y-72218523D01*
X114383072Y-72239414D01*
X114523212Y-72341232D01*
X114677555Y-72419873D01*
X114842299Y-72473402D01*
X115013389Y-72500500D01*
X115013390Y-72500500D01*
X115186610Y-72500500D01*
X115186611Y-72500500D01*
X115357701Y-72473402D01*
X115522445Y-72419873D01*
X115676788Y-72341232D01*
X115816928Y-72239414D01*
X115939414Y-72116928D01*
X115999682Y-72033975D01*
X116055012Y-71991311D01*
X116124626Y-71985332D01*
X116186421Y-72017938D01*
X116200315Y-72033973D01*
X116260586Y-72116928D01*
X116383072Y-72239414D01*
X116523212Y-72341232D01*
X116677555Y-72419873D01*
X116842299Y-72473402D01*
X117013389Y-72500500D01*
X117013390Y-72500500D01*
X117186610Y-72500500D01*
X117186611Y-72500500D01*
X117357701Y-72473402D01*
X117522445Y-72419873D01*
X117676788Y-72341232D01*
X117816928Y-72239414D01*
X117939414Y-72116928D01*
X117999682Y-72033975D01*
X118055012Y-71991311D01*
X118124626Y-71985332D01*
X118186421Y-72017938D01*
X118200315Y-72033973D01*
X118260586Y-72116928D01*
X118383072Y-72239414D01*
X118523212Y-72341232D01*
X118677555Y-72419873D01*
X118842299Y-72473402D01*
X119013389Y-72500500D01*
X119013390Y-72500500D01*
X119186610Y-72500500D01*
X119186611Y-72500500D01*
X119357701Y-72473402D01*
X119522445Y-72419873D01*
X119676788Y-72341232D01*
X119816928Y-72239414D01*
X119924472Y-72131869D01*
X119985791Y-72098387D01*
X120055483Y-72103371D01*
X120111417Y-72145242D01*
X120117688Y-72154456D01*
X120157285Y-72218652D01*
X120157288Y-72218656D01*
X120281344Y-72342712D01*
X120290591Y-72348416D01*
X120337318Y-72400360D01*
X120349500Y-72453957D01*
X120349500Y-74773918D01*
X120349500Y-74773920D01*
X120349499Y-74773920D01*
X120378340Y-74918907D01*
X120378343Y-74918917D01*
X120407681Y-74989744D01*
X120434916Y-75055495D01*
X120455052Y-75085631D01*
X120464986Y-75100499D01*
X120517049Y-75178418D01*
X120517052Y-75178421D01*
X121443460Y-76104828D01*
X122334084Y-76995452D01*
X122379057Y-77025501D01*
X122457005Y-77077584D01*
X122509915Y-77099500D01*
X122593588Y-77134159D01*
X122709741Y-77157263D01*
X122728968Y-77161087D01*
X122738581Y-77163000D01*
X122738582Y-77163000D01*
X122738583Y-77163000D01*
X122886418Y-77163000D01*
X122920523Y-77163000D01*
X122987562Y-77182685D01*
X123033317Y-77235489D01*
X123041198Y-77258479D01*
X123041906Y-77261477D01*
X123092202Y-77396328D01*
X123092206Y-77396335D01*
X123178452Y-77511544D01*
X123178455Y-77511547D01*
X123293664Y-77597793D01*
X123293671Y-77597797D01*
X123428517Y-77648091D01*
X123428516Y-77648091D01*
X123435444Y-77648835D01*
X123488127Y-77654500D01*
X124419269Y-77654499D01*
X124486308Y-77674183D01*
X124506950Y-77690818D01*
X125899086Y-79082954D01*
X125928558Y-79102645D01*
X125972770Y-79132186D01*
X126022005Y-79165084D01*
X126022006Y-79165084D01*
X126022007Y-79165085D01*
X126022009Y-79165086D01*
X126145724Y-79216330D01*
X126158587Y-79221658D01*
X126158591Y-79221658D01*
X126158592Y-79221659D01*
X126303579Y-79250500D01*
X126303582Y-79250500D01*
X133873920Y-79250500D01*
X133971462Y-79231096D01*
X134018913Y-79221658D01*
X134155495Y-79165084D01*
X134204729Y-79132186D01*
X134204734Y-79132183D01*
X134245464Y-79104969D01*
X134278416Y-79082952D01*
X135682952Y-77678415D01*
X135710205Y-77637627D01*
X135765084Y-77555495D01*
X135821423Y-77419481D01*
X135821659Y-77418912D01*
X135850500Y-77273917D01*
X135850500Y-77126082D01*
X135850500Y-72478957D01*
X135870185Y-72411918D01*
X135909407Y-72373416D01*
X135918656Y-72367712D01*
X136042712Y-72243656D01*
X136134814Y-72094334D01*
X136189999Y-71927797D01*
X136200500Y-71825009D01*
X136200499Y-70424992D01*
X136197944Y-70399981D01*
X136196629Y-70387100D01*
X136209399Y-70318407D01*
X136257281Y-70267524D01*
X136319987Y-70250500D01*
X138079192Y-70250500D01*
X138146231Y-70270185D01*
G37*
%TD.AperFunction*%
M02*
