%TF.GenerationSoftware,KiCad,Pcbnew,9.0.6*%
%TF.CreationDate,2026-03-18T19:44:56+07:00*%
%TF.ProjectId,ESP32_C3Mini_V3,45535033-325f-4433-934d-696e695f5633,rev?*%
%TF.SameCoordinates,Original*%
%TF.FileFunction,Soldermask,Bot*%
%TF.FilePolarity,Negative*%
%FSLAX46Y46*%
G04 Gerber Fmt 4.6, Leading zero omitted, Abs format (unit mm)*
G04 Created by KiCad (PCBNEW 9.0.6) date 2026-03-18 19:44:56*
%MOMM*%
%LPD*%
G01*
G04 APERTURE LIST*
G04 Aperture macros list*
%AMRoundRect*
0 Rectangle with rounded corners*
0 $1 Rounding radius*
0 $2 $3 $4 $5 $6 $7 $8 $9 X,Y pos of 4 corners*
0 Add a 4 corners polygon primitive as box body*
4,1,4,$2,$3,$4,$5,$6,$7,$8,$9,$2,$3,0*
0 Add four circle primitives for the rounded corners*
1,1,$1+$1,$2,$3*
1,1,$1+$1,$4,$5*
1,1,$1+$1,$6,$7*
1,1,$1+$1,$8,$9*
0 Add four rect primitives between the rounded corners*
20,1,$1+$1,$2,$3,$4,$5,0*
20,1,$1+$1,$4,$5,$6,$7,0*
20,1,$1+$1,$6,$7,$8,$9,0*
20,1,$1+$1,$8,$9,$2,$3,0*%
G04 Aperture macros list end*
%ADD10C,1.552000*%
%ADD11RoundRect,0.102000X-0.754000X-0.754000X0.754000X-0.754000X0.754000X0.754000X-0.754000X0.754000X0*%
%ADD12C,1.712000*%
%ADD13C,1.512000*%
%ADD14C,2.304000*%
%ADD15C,3.200000*%
%ADD16RoundRect,0.250000X-0.620000X-0.620000X0.620000X-0.620000X0.620000X0.620000X-0.620000X0.620000X0*%
%ADD17C,1.740000*%
%ADD18RoundRect,0.250000X0.350000X0.650000X-0.350000X0.650000X-0.350000X-0.650000X0.350000X-0.650000X0*%
%ADD19O,1.200000X1.800000*%
%ADD20R,1.700000X1.700000*%
%ADD21C,1.700000*%
%ADD22RoundRect,0.102000X-0.749000X0.749000X-0.749000X-0.749000X0.749000X-0.749000X0.749000X0.749000X0*%
%ADD23C,1.702000*%
G04 APERTURE END LIST*
D10*
%TO.C,ESP32-C3 SUPER MINI*%
X148470000Y-94620000D03*
X151010000Y-94620000D03*
X153550000Y-94620000D03*
X156090000Y-94620000D03*
X161170000Y-94620000D03*
X158630000Y-94620000D03*
X166250000Y-79380000D03*
X166250000Y-94620000D03*
X163710000Y-79380000D03*
X161170000Y-79380000D03*
X158630000Y-79380000D03*
X156090000Y-79380000D03*
X153550000Y-79380000D03*
X151010000Y-79380000D03*
X148470000Y-79380000D03*
X163710000Y-94620000D03*
%TD*%
D11*
%TO.C,OLED 0.96"*%
X124290000Y-76400000D03*
D12*
X126830000Y-76400000D03*
X129370000Y-76400000D03*
X131910000Y-76400000D03*
%TD*%
D13*
%TO.C,U4*%
X155900000Y-65200000D03*
X151900000Y-65200000D03*
X153900000Y-65200000D03*
D14*
X158050000Y-65200000D03*
X149750000Y-65200000D03*
%TD*%
D15*
%TO.C,H3*%
X105400000Y-105700000D03*
%TD*%
D16*
%TO.C,J7*%
X162660000Y-66900000D03*
D17*
X165200000Y-66900000D03*
%TD*%
D18*
%TO.C,J4*%
X121200000Y-65000000D03*
D19*
X119200000Y-65000000D03*
X117200000Y-65000000D03*
X115200000Y-65000000D03*
%TD*%
D20*
%TO.C,J2*%
X166180000Y-99287500D03*
D21*
X163640000Y-99287500D03*
X161100000Y-99287500D03*
X158560000Y-99287500D03*
X156020000Y-99287500D03*
X153480000Y-99287500D03*
X150940000Y-99287500D03*
X148400000Y-99287500D03*
%TD*%
D22*
%TO.C,SW1*%
X109750000Y-75400000D03*
D23*
X109750000Y-81900000D03*
X105250000Y-75400000D03*
X105250000Y-81900000D03*
%TD*%
D22*
%TO.C,SW2*%
X109850000Y-85065000D03*
D23*
X109850000Y-91565000D03*
X105350000Y-85065000D03*
X105350000Y-91565000D03*
%TD*%
D18*
%TO.C,J3*%
X135200000Y-64925000D03*
D19*
X133200000Y-64925000D03*
X131200000Y-64925000D03*
X129200000Y-64925000D03*
%TD*%
D22*
%TO.C,SW3*%
X109850000Y-94550000D03*
D23*
X109850000Y-101050000D03*
X105350000Y-94550000D03*
X105350000Y-101050000D03*
%TD*%
D20*
%TO.C,J1*%
X166275000Y-75012500D03*
D21*
X163735000Y-75012500D03*
X161195000Y-75012500D03*
X158655000Y-75012500D03*
X156115000Y-75012500D03*
X153575000Y-75012500D03*
X151035000Y-75012500D03*
X148495000Y-75012500D03*
%TD*%
D18*
%TO.C,J6*%
X121100000Y-71100000D03*
D19*
X119100000Y-71100000D03*
X117100000Y-71100000D03*
X115100000Y-71100000D03*
%TD*%
D15*
%TO.C,H4*%
X170700000Y-105500000D03*
%TD*%
%TO.C,H2*%
X170800000Y-61500000D03*
%TD*%
D18*
%TO.C,J5*%
X135100000Y-71125000D03*
D19*
X133100000Y-71125000D03*
X131100000Y-71125000D03*
X129100000Y-71125000D03*
%TD*%
D15*
%TO.C,H1*%
X105400000Y-61400000D03*
%TD*%
M02*
