%TF.GenerationSoftware,KiCad,Pcbnew,9.0.6*%
%TF.CreationDate,2026-03-18T19:44:56+07:00*%
%TF.ProjectId,ESP32_C3Mini_V3,45535033-325f-4433-934d-696e695f5633,rev?*%
%TF.SameCoordinates,Original*%
%TF.FileFunction,Paste,Top*%
%TF.FilePolarity,Positive*%
%FSLAX46Y46*%
G04 Gerber Fmt 4.6, Leading zero omitted, Abs format (unit mm)*
G04 Created by KiCad (PCBNEW 9.0.6) date 2026-03-18 19:44:56*
%MOMM*%
%LPD*%
G01*
G04 APERTURE LIST*
G04 Aperture macros list*
%AMRoundRect*
0 Rectangle with rounded corners*
0 $1 Rounding radius*
0 $2 $3 $4 $5 $6 $7 $8 $9 X,Y pos of 4 corners*
0 Add a 4 corners polygon primitive as box body*
4,1,4,$2,$3,$4,$5,$6,$7,$8,$9,$2,$3,0*
0 Add four circle primitives for the rounded corners*
1,1,$1+$1,$2,$3*
1,1,$1+$1,$4,$5*
1,1,$1+$1,$6,$7*
1,1,$1+$1,$8,$9*
0 Add four rect primitives between the rounded corners*
20,1,$1+$1,$2,$3,$4,$5,0*
20,1,$1+$1,$4,$5,$6,$7,0*
20,1,$1+$1,$6,$7,$8,$9,0*
20,1,$1+$1,$8,$9,$2,$3,0*%
G04 Aperture macros list end*
%ADD10C,0.010000*%
%ADD11RoundRect,0.250000X-0.350000X-0.450000X0.350000X-0.450000X0.350000X0.450000X-0.350000X0.450000X0*%
%ADD12RoundRect,0.250000X0.350000X0.450000X-0.350000X0.450000X-0.350000X-0.450000X0.350000X-0.450000X0*%
%ADD13RoundRect,0.250000X-0.337500X-0.475000X0.337500X-0.475000X0.337500X0.475000X-0.337500X0.475000X0*%
%ADD14RoundRect,0.250000X0.337500X0.475000X-0.337500X0.475000X-0.337500X-0.475000X0.337500X-0.475000X0*%
%ADD15R,2.000000X2.000000*%
%ADD16RoundRect,0.250000X0.475000X-0.337500X0.475000X0.337500X-0.475000X0.337500X-0.475000X-0.337500X0*%
%ADD17RoundRect,0.045000X-0.630000X-0.255000X0.630000X-0.255000X0.630000X0.255000X-0.630000X0.255000X0*%
%ADD18RoundRect,0.090000X-0.660000X-0.360000X0.660000X-0.360000X0.660000X0.360000X-0.660000X0.360000X0*%
%ADD19RoundRect,0.250001X-0.499999X-0.999999X0.499999X-0.999999X0.499999X0.999999X-0.499999X0.999999X0*%
%ADD20RoundRect,0.073750X-0.731250X-0.221250X0.731250X-0.221250X0.731250X0.221250X-0.731250X0.221250X0*%
G04 APERTURE END LIST*
D10*
%TO.C,U3*%
X152361000Y-87280000D02*
X150964000Y-87280000D01*
X150964000Y-85320000D01*
X152361000Y-85320000D01*
X152361000Y-87280000D01*
G36*
X152361000Y-87280000D02*
G01*
X150964000Y-87280000D01*
X150964000Y-85320000D01*
X152361000Y-85320000D01*
X152361000Y-87280000D01*
G37*
%TD*%
D11*
%TO.C,R3*%
X163900000Y-89000000D03*
X165900000Y-89000000D03*
%TD*%
D12*
%TO.C,R6*%
X113900000Y-93500000D03*
X111900000Y-93500000D03*
%TD*%
D13*
%TO.C,C5*%
X153662500Y-82000000D03*
X155737500Y-82000000D03*
%TD*%
D14*
%TO.C,C1*%
X165937500Y-91500000D03*
X163862500Y-91500000D03*
%TD*%
D12*
%TO.C,R5*%
X114000000Y-88200000D03*
X112000000Y-88200000D03*
%TD*%
D13*
%TO.C,C4*%
X159362500Y-89000000D03*
X161437500Y-89000000D03*
%TD*%
D15*
%TO.C,BUZZER*%
X139700000Y-63700000D03*
X139700000Y-70700000D03*
X146700000Y-70700000D03*
X146700000Y-63700000D03*
%TD*%
D13*
%TO.C,C7*%
X149162500Y-82000000D03*
X151237500Y-82000000D03*
%TD*%
D16*
%TO.C,C2*%
X154600000Y-92237500D03*
X154600000Y-90162500D03*
%TD*%
D17*
%TO.C,U5*%
X148882000Y-90350000D03*
X148882000Y-91300000D03*
X148882000Y-92250000D03*
X151252000Y-92250000D03*
X151252000Y-90350000D03*
%TD*%
D12*
%TO.C,R4*%
X113900000Y-83200000D03*
X111900000Y-83200000D03*
%TD*%
D18*
%TO.C,D1*%
X105150000Y-69150000D03*
X105150000Y-72450000D03*
X110050000Y-72450000D03*
X110050000Y-69150000D03*
%TD*%
D11*
%TO.C,R1*%
X163837500Y-83800000D03*
X165837500Y-83800000D03*
%TD*%
D16*
%TO.C,C6*%
X156900000Y-91075000D03*
X156900000Y-89000000D03*
%TD*%
D19*
%TO.C,L1*%
X157850000Y-84500000D03*
X161550000Y-84500000D03*
%TD*%
D12*
%TO.C,R2*%
X165900000Y-86500000D03*
X163900000Y-86500000D03*
%TD*%
D13*
%TO.C,C8*%
X106762500Y-66800000D03*
X108837500Y-66800000D03*
%TD*%
%TO.C,C3*%
X159362500Y-91500000D03*
X161437500Y-91500000D03*
%TD*%
D20*
%TO.C,U3*%
X149007500Y-84395000D03*
X149007500Y-85665000D03*
X149007500Y-86935000D03*
X149007500Y-88205000D03*
X154317500Y-88205000D03*
X154317500Y-86935000D03*
X154317500Y-85665000D03*
X154317500Y-84395000D03*
%TD*%
M02*
