%TF.GenerationSoftware,KiCad,Pcbnew,9.0.6*%
%TF.CreationDate,2026-01-19T20:12:22+07:00*%
%TF.ProjectId,ESP32S3_MOD_DEV,45535033-3253-4335-9f4d-4f445f444556,rev?*%
%TF.SameCoordinates,Original*%
%TF.FileFunction,Paste,Top*%
%TF.FilePolarity,Positive*%
%FSLAX46Y46*%
G04 Gerber Fmt 4.6, Leading zero omitted, Abs format (unit mm)*
G04 Created by KiCad (PCBNEW 9.0.6) date 2026-01-19 20:12:22*
%MOMM*%
%LPD*%
G01*
G04 APERTURE LIST*
G04 Aperture macros list*
%AMRoundRect*
0 Rectangle with rounded corners*
0 $1 Rounding radius*
0 $2 $3 $4 $5 $6 $7 $8 $9 X,Y pos of 4 corners*
0 Add a 4 corners polygon primitive as box body*
4,1,4,$2,$3,$4,$5,$6,$7,$8,$9,$2,$3,0*
0 Add four circle primitives for the rounded corners*
1,1,$1+$1,$2,$3*
1,1,$1+$1,$4,$5*
1,1,$1+$1,$6,$7*
1,1,$1+$1,$8,$9*
0 Add four rect primitives between the rounded corners*
20,1,$1+$1,$2,$3,$4,$5,0*
20,1,$1+$1,$4,$5,$6,$7,0*
20,1,$1+$1,$6,$7,$8,$9,0*
20,1,$1+$1,$8,$9,$2,$3,0*%
G04 Aperture macros list end*
%ADD10C,0.010000*%
%ADD11R,1.400000X1.200000*%
%ADD12R,2.200000X1.200000*%
%ADD13R,1.400000X1.600000*%
%ADD14R,1.600000X0.700000*%
%ADD15RoundRect,0.250000X-0.350000X-0.450000X0.350000X-0.450000X0.350000X0.450000X-0.350000X0.450000X0*%
%ADD16RoundRect,0.250000X0.450000X-0.350000X0.450000X0.350000X-0.450000X0.350000X-0.450000X-0.350000X0*%
%ADD17RoundRect,0.045000X-0.630000X-0.255000X0.630000X-0.255000X0.630000X0.255000X-0.630000X0.255000X0*%
%ADD18RoundRect,0.150000X-0.512500X-0.150000X0.512500X-0.150000X0.512500X0.150000X-0.512500X0.150000X0*%
%ADD19RoundRect,0.150000X0.150000X0.425000X-0.150000X0.425000X-0.150000X-0.425000X0.150000X-0.425000X0*%
%ADD20RoundRect,0.075000X0.075000X0.500000X-0.075000X0.500000X-0.075000X-0.500000X0.075000X-0.500000X0*%
%ADD21O,1.000000X2.100000*%
%ADD22O,1.000000X1.800000*%
%ADD23RoundRect,0.075000X-0.910000X-0.225000X0.910000X-0.225000X0.910000X0.225000X-0.910000X0.225000X0*%
%ADD24RoundRect,0.250000X0.450000X-0.325000X0.450000X0.325000X-0.450000X0.325000X-0.450000X-0.325000X0*%
%ADD25RoundRect,0.250000X-0.337500X-0.475000X0.337500X-0.475000X0.337500X0.475000X-0.337500X0.475000X0*%
%ADD26RoundRect,0.250000X0.325000X0.450000X-0.325000X0.450000X-0.325000X-0.450000X0.325000X-0.450000X0*%
%ADD27RoundRect,0.090000X-0.660000X-0.360000X0.660000X-0.360000X0.660000X0.360000X-0.660000X0.360000X0*%
%ADD28RoundRect,0.050000X-0.730000X-0.150000X0.730000X-0.150000X0.730000X0.150000X-0.730000X0.150000X0*%
%ADD29R,0.900000X1.500000*%
%ADD30R,1.500000X0.900000*%
%ADD31R,0.900000X0.900000*%
%ADD32RoundRect,0.150000X-0.825000X-0.150000X0.825000X-0.150000X0.825000X0.150000X-0.825000X0.150000X0*%
%ADD33RoundRect,0.250000X0.475000X-0.337500X0.475000X0.337500X-0.475000X0.337500X-0.475000X-0.337500X0*%
%ADD34R,0.660000X0.730000*%
%ADD35R,0.630000X0.450000*%
%ADD36RoundRect,0.175000X-0.825000X-0.175000X0.825000X-0.175000X0.825000X0.175000X-0.825000X0.175000X0*%
%ADD37R,2.500000X1.700000*%
%ADD38RoundRect,0.250000X-0.450000X0.350000X-0.450000X-0.350000X0.450000X-0.350000X0.450000X0.350000X0*%
G04 APERTURE END LIST*
D10*
%TO.C,U2*%
X113620000Y-60665000D02*
X112330000Y-60665000D01*
X112330000Y-59025000D01*
X113620000Y-59025000D01*
X113620000Y-60665000D01*
G36*
X113620000Y-60665000D02*
G01*
X112330000Y-60665000D01*
X112330000Y-59025000D01*
X113620000Y-59025000D01*
X113620000Y-60665000D01*
G37*
%TD*%
D11*
%TO.C,J7*%
X93137455Y-87750032D03*
D12*
X83537455Y-87750032D03*
D13*
X93137455Y-102350032D03*
D12*
X83537455Y-103250032D03*
D14*
X93637455Y-88950032D03*
X93637455Y-90050032D03*
X93637455Y-91150032D03*
X93637455Y-92250032D03*
X93637455Y-93350032D03*
X93637455Y-94450032D03*
X93637455Y-95550032D03*
X93637455Y-96650032D03*
X93637455Y-97750032D03*
%TD*%
D15*
%TO.C,R16*%
X96250000Y-98250000D03*
X98250000Y-98250000D03*
%TD*%
D16*
%TO.C,R1*%
X119250000Y-60500000D03*
X119250000Y-58500000D03*
%TD*%
D17*
%TO.C,U6*%
X119630000Y-77800000D03*
X119630000Y-78750000D03*
X119630000Y-79700000D03*
X122000000Y-79700000D03*
X122000000Y-77800000D03*
%TD*%
D16*
%TO.C,R19*%
X119900000Y-54750000D03*
X119900000Y-52750000D03*
%TD*%
D18*
%TO.C,U3*%
X114625000Y-65700000D03*
X114625000Y-66650000D03*
X114625000Y-67600000D03*
X116900000Y-67600000D03*
X116900000Y-66650000D03*
X116900000Y-65700000D03*
%TD*%
D19*
%TO.C,J2*%
X110310000Y-47325000D03*
X109510000Y-47325000D03*
D20*
X108360000Y-47325000D03*
X107360000Y-47325000D03*
X106860000Y-47325000D03*
X105860000Y-47325000D03*
D19*
X104710000Y-47325000D03*
X103910000Y-47325000D03*
X103910000Y-47325000D03*
X104710000Y-47325000D03*
D20*
X105360000Y-47325000D03*
X106360000Y-47325000D03*
X107860000Y-47325000D03*
X108860000Y-47325000D03*
D19*
X109510000Y-47325000D03*
X110310000Y-47325000D03*
D21*
X111430000Y-46750000D03*
D22*
X111430000Y-42570000D03*
D21*
X102790000Y-46750000D03*
D22*
X102790000Y-42570000D03*
%TD*%
D23*
%TO.C,U2*%
X110500000Y-57940000D03*
X110500000Y-59210000D03*
X110500000Y-60480000D03*
X110500000Y-61750000D03*
X115450000Y-61750000D03*
X115450000Y-60480000D03*
X115450000Y-59210000D03*
X115450000Y-57940000D03*
%TD*%
D15*
%TO.C,R6*%
X93962500Y-56750000D03*
X95962500Y-56750000D03*
%TD*%
D24*
%TO.C,D1*%
X111250000Y-53500000D03*
X111250000Y-51450000D03*
%TD*%
D25*
%TO.C,C9*%
X125000000Y-71750000D03*
X127075000Y-71750000D03*
%TD*%
D26*
%TO.C,IO2*%
X131825000Y-80900000D03*
X129775000Y-80900000D03*
%TD*%
D15*
%TO.C,R10*%
X125000000Y-64500000D03*
X127000000Y-64500000D03*
%TD*%
D25*
%TO.C,C8*%
X94712500Y-70250000D03*
X96787500Y-70250000D03*
%TD*%
D24*
%TO.C,D4*%
X105250000Y-53500000D03*
X105250000Y-51450000D03*
%TD*%
D27*
%TO.C,D8*%
X101100000Y-97850000D03*
X101100000Y-101150000D03*
X106000000Y-101150000D03*
X106000000Y-97850000D03*
%TD*%
D25*
%TO.C,C15*%
X94675000Y-81500000D03*
X96750000Y-81500000D03*
%TD*%
%TO.C,C3*%
X129825000Y-61800000D03*
X131900000Y-61800000D03*
%TD*%
D15*
%TO.C,R4*%
X109100000Y-66800000D03*
X111100000Y-66800000D03*
%TD*%
D28*
%TO.C,Q3*%
X109320000Y-71825000D03*
X109320000Y-72475000D03*
X109320000Y-73125000D03*
X109320000Y-73775000D03*
X115080000Y-73775000D03*
X115080000Y-73125000D03*
X115080000Y-72475000D03*
X115080000Y-71825000D03*
%TD*%
D25*
%TO.C,C13*%
X94675000Y-74000000D03*
X96750000Y-74000000D03*
%TD*%
%TO.C,C2*%
X129825000Y-58100000D03*
X131900000Y-58100000D03*
%TD*%
D16*
%TO.C,R2*%
X122250000Y-60500000D03*
X122250000Y-58500000D03*
%TD*%
D15*
%TO.C,R7*%
X93962500Y-59500000D03*
X95962500Y-59500000D03*
%TD*%
D25*
%TO.C,C12*%
X129775000Y-76450000D03*
X131850000Y-76450000D03*
%TD*%
%TO.C,C1*%
X93862500Y-53200000D03*
X95937500Y-53200000D03*
%TD*%
%TO.C,C10*%
X129862500Y-69100000D03*
X131937500Y-69100000D03*
%TD*%
D24*
%TO.C,D3*%
X102250000Y-53525000D03*
X102250000Y-51475000D03*
%TD*%
D29*
%TO.C,U1*%
X126760000Y-84000000D03*
X125490000Y-84000000D03*
X124220000Y-84000000D03*
X122950000Y-84000000D03*
X121680000Y-84000000D03*
X120410000Y-84000000D03*
X119140000Y-84000000D03*
X117870000Y-84000000D03*
X116600000Y-84000000D03*
X115330000Y-84000000D03*
X114060000Y-84000000D03*
X112790000Y-84000000D03*
X111520000Y-84000000D03*
X110250000Y-84000000D03*
D30*
X109000000Y-85765000D03*
X109000000Y-87035000D03*
X109000000Y-88305000D03*
X109000000Y-89575000D03*
X109000000Y-90845000D03*
X109000000Y-92115000D03*
X109000000Y-93385000D03*
X109000000Y-94655000D03*
X109000000Y-95925000D03*
X109000000Y-97195000D03*
X109000000Y-98465000D03*
X109000000Y-99735000D03*
D29*
X110250000Y-101500000D03*
X111520000Y-101500000D03*
X112790000Y-101500000D03*
X114060000Y-101500000D03*
X115330000Y-101500000D03*
X116600000Y-101500000D03*
X117870000Y-101500000D03*
X119140000Y-101500000D03*
X120410000Y-101500000D03*
X121680000Y-101500000D03*
X122950000Y-101500000D03*
X124220000Y-101500000D03*
X125490000Y-101500000D03*
X126760000Y-101500000D03*
D31*
X120440000Y-89850000D03*
X119040000Y-89850000D03*
X117640000Y-89850000D03*
X117640000Y-89850000D03*
X120440000Y-91250000D03*
X120440000Y-91250000D03*
X119040000Y-91250000D03*
X117640000Y-91250000D03*
X120440000Y-92650000D03*
X119040000Y-92650000D03*
X117640000Y-92650000D03*
%TD*%
D32*
%TO.C,U5*%
X100750000Y-56630000D03*
X100750000Y-57900000D03*
X100750000Y-59170000D03*
X100750000Y-60440000D03*
X100750000Y-61710000D03*
X100750000Y-62980000D03*
X100750000Y-64250000D03*
X100750000Y-65520000D03*
X105700000Y-65520000D03*
X105700000Y-64250000D03*
X105700000Y-62980000D03*
X105700000Y-61710000D03*
X105700000Y-60440000D03*
X105700000Y-59170000D03*
X105700000Y-57900000D03*
X105700000Y-56630000D03*
%TD*%
D33*
%TO.C,C5*%
X123400000Y-54787500D03*
X123400000Y-52712500D03*
%TD*%
D25*
%TO.C,C7*%
X124962500Y-75000000D03*
X127037500Y-75000000D03*
%TD*%
D34*
%TO.C,U4*%
X119900000Y-71968000D03*
X119900000Y-72834000D03*
X119900000Y-73700000D03*
X120750000Y-71968000D03*
X120750000Y-72834000D03*
X120750000Y-73700000D03*
D35*
X118985000Y-71884000D03*
X118985000Y-72834000D03*
X118985000Y-73784000D03*
X121665000Y-73784000D03*
X121665000Y-72834000D03*
X121665000Y-71884000D03*
%TD*%
D36*
%TO.C,Q2*%
X112900000Y-78250000D03*
X112900000Y-80150000D03*
X116300000Y-79200000D03*
%TD*%
D15*
%TO.C,R11*%
X120250000Y-68000000D03*
X122250000Y-68000000D03*
%TD*%
%TO.C,R5*%
X125000000Y-68000000D03*
X127000000Y-68000000D03*
%TD*%
%TO.C,R13*%
X96250000Y-89400000D03*
X98250000Y-89400000D03*
%TD*%
D25*
%TO.C,C11*%
X129862500Y-72600000D03*
X131937500Y-72600000D03*
%TD*%
D15*
%TO.C,R20*%
X125100000Y-78700000D03*
X127100000Y-78700000D03*
%TD*%
D24*
%TO.C,D5*%
X108250000Y-53500000D03*
X108250000Y-51450000D03*
%TD*%
D25*
%TO.C,C14*%
X94712500Y-77750000D03*
X96787500Y-77750000D03*
%TD*%
D15*
%TO.C,R15*%
X96200000Y-92400000D03*
X98200000Y-92400000D03*
%TD*%
D27*
%TO.C,D7*%
X101100000Y-91230000D03*
X101100000Y-94530000D03*
X106000000Y-94530000D03*
X106000000Y-91230000D03*
%TD*%
D25*
%TO.C,C6*%
X102425000Y-70000000D03*
X104500000Y-70000000D03*
%TD*%
D37*
%TO.C,VBUS*%
X105350000Y-74200000D03*
X101100000Y-74150000D03*
%TD*%
D25*
%TO.C,C4*%
X129825000Y-65600000D03*
X131900000Y-65600000D03*
%TD*%
D27*
%TO.C,D2*%
X101050000Y-84600000D03*
X101050000Y-87900000D03*
X105950000Y-87900000D03*
X105950000Y-84600000D03*
%TD*%
D36*
%TO.C,Q1*%
X106300000Y-78250000D03*
X106300000Y-80150000D03*
X109700000Y-79200000D03*
%TD*%
D15*
%TO.C,R8*%
X93962500Y-62250000D03*
X95962500Y-62250000D03*
%TD*%
D16*
%TO.C,R3*%
X125250000Y-60500000D03*
X125250000Y-58500000D03*
%TD*%
D15*
%TO.C,R9*%
X93962500Y-64750000D03*
X95962500Y-64750000D03*
%TD*%
%TO.C,R17*%
X96250000Y-101200000D03*
X98250000Y-101200000D03*
%TD*%
D38*
%TO.C,R18*%
X116250000Y-52750000D03*
X116250000Y-54750000D03*
%TD*%
D15*
%TO.C,R12*%
X120250000Y-64500000D03*
X122250000Y-64500000D03*
%TD*%
%TO.C,R14*%
X96200000Y-95100000D03*
X98200000Y-95100000D03*
%TD*%
M02*
