M48
; DRILL file {KiCad 9.0.6} date 2026-01-19T20:12:18+0700
; FORMAT={-:-/ absolute / metric / decimal}
; #@! TF.CreationDate,2026-01-19T20:12:18+07:00
; #@! TF.GenerationSoftware,Kicad,Pcbnew,9.0.6
; #@! TF.FileFunction,Plated,1,2,PTH
FMAT,2
METRIC
; #@! TA.AperFunction,Plated,PTH,ViaDrill
T1C0.300
; #@! TA.AperFunction,Plated,PTH,ComponentDrill
T2C0.500
; #@! TA.AperFunction,Plated,PTH,ComponentDrill
T3C0.600
; #@! TA.AperFunction,Plated,PTH,ComponentDrill
T4C0.800
; #@! TA.AperFunction,Plated,PTH,ComponentDrill
T5C1.100
; #@! TA.AperFunction,Plated,PTH,ComponentDrill
T6C2.700
%
G90
G05
T1
X80.9Y-84.0
X83.2Y-84.0
X83.903Y-85.979
X84.295Y-62.486
X84.953Y-80.194
X86.748Y-87.62
X87.541Y-89.902
X89.597Y-86.558
X89.785Y-87.896
X91.817Y-94.179
X92.22Y-95.778
X92.314Y-93.35
X92.55Y-99.75
X92.785Y-58.988
X94.726Y-68.138
X94.9Y-90.05
X94.941Y-92.65
X94.955Y-87.847
X95.22Y-83.923
X97.06Y-99.844
X97.3Y-68.0
X97.4Y-47.5
X97.859Y-93.689
X98.921Y-56.437
X99.232Y-104.9
X99.979Y-99.694
X100.8Y-105.6
X102.242Y-99.459
X102.631Y-59.414
X103.55Y-49.475
X103.974Y-98.85
X104.2Y-44.7
X104.201Y-60.672
X106.121Y-99.235
X106.241Y-55.392
X107.094Y-95.624
X107.208Y-65.795
X107.644Y-63.197
X107.721Y-85.317
X107.738Y-88.1
X107.8Y-54.7
X108.3Y-49.653
X109.008Y-101.033
X109.113Y-81.287
X109.14Y-56.645
X109.748Y-62.951
X109.9Y-44.4
X110.208Y-64.806
X110.35Y-89.345
X110.403Y-99.27
X110.447Y-88.489
X110.502Y-86.395
X110.534Y-92.166
X110.556Y-82.731
X110.604Y-87.517
X111.235Y-89.535
X111.379Y-98.072
X111.572Y-82.718
X112.1Y-105.838
X112.21Y-55.366
X112.516Y-67.333
X112.599Y-104.283
X112.999Y-72.448
X113.348Y-65.176
X113.459Y-54.628
X113.52Y-75.475
X114.33Y-91.923
X114.726Y-79.285
X115.432Y-97.659
X115.563Y-85.253
X115.665Y-68.318
X116.1Y-104.5
X116.395Y-82.73
X116.678Y-93.309
X117.111Y-78.285
X117.355Y-70.144
X117.378Y-81.289
X117.379Y-80.072
X117.4Y-74.881
X117.404Y-57.437
X117.782Y-60.847
X118.006Y-72.6
X118.017Y-99.651
X118.184Y-86.352
X118.445Y-54.64
X118.966Y-66.62
X120.482Y-61.319
X120.9Y-81.3
X121.027Y-70.511
X121.259Y-52.904
X122.307Y-87.921
X122.652Y-66.172
X122.653Y-85.477
X123.017Y-63.251
X123.371Y-73.442
X123.4Y-51.0
X123.913Y-69.463
X123.938Y-60.261
X123.993Y-86.36
X124.034Y-66.248
X124.468Y-55.718
X124.758Y-81.603
X124.797Y-86.15
X125.448Y-62.896
X127.199Y-55.9
X129.869Y-67.838
T2
X79.975Y-109.432
X80.043Y-42.568
X80.568Y-108.0
X80.568Y-110.864
X80.636Y-41.136
X80.636Y-44.0
X82.0Y-107.407
X82.0Y-111.457
X82.068Y-40.543
X82.068Y-44.593
X83.432Y-108.0
X83.432Y-110.864
X83.5Y-41.136
X83.5Y-44.0
X84.025Y-109.432
X84.093Y-42.568
X129.407Y-109.432
X129.475Y-42.5
X130.0Y-108.0
X130.0Y-110.864
X130.068Y-41.068
X130.068Y-43.932
X131.432Y-107.407
X131.432Y-111.457
X131.5Y-40.475
X131.5Y-44.525
X132.864Y-108.0
X132.864Y-110.864
X132.932Y-41.068
X132.932Y-43.932
X133.457Y-109.432
X133.525Y-42.5
T4
X81.8Y-54.2
X81.8Y-56.2
X81.8Y-58.2
X81.8Y-60.2
X81.8Y-62.2
X81.8Y-64.2
X81.8Y-72.5
X81.8Y-74.5
X81.8Y-76.5
X81.8Y-78.5
X81.8Y-80.5
X81.8Y-82.5
X88.1Y-108.4
X88.9Y-54.2
X88.9Y-56.2
X88.9Y-58.2
X88.9Y-60.2
X88.9Y-62.2
X88.9Y-64.2
X88.9Y-72.5
X88.9Y-74.5
X88.9Y-76.5
X88.9Y-78.5
X88.9Y-80.5
X88.9Y-82.5
X90.1Y-108.4
X92.1Y-108.4
X94.1Y-108.4
X101.3Y-108.4
X103.3Y-108.4
X105.3Y-108.4
X107.3Y-108.4
X109.3Y-108.4
X111.3Y-108.4
X119.6Y-108.4
X121.6Y-108.4
X123.6Y-108.4
X125.6Y-108.4
X128.475Y-51.0
X128.475Y-53.0
T5
X90.0Y-41.25
X90.0Y-47.75
X94.5Y-41.25
X94.5Y-47.75
X119.5Y-41.25
X119.5Y-47.75
X124.0Y-41.25
X124.0Y-47.75
T6
X82.0Y-109.432
X82.068Y-42.568
X131.432Y-109.432
X131.5Y-42.5
T3
G00X102.79Y-42.97
M15
G01X102.79Y-42.17
M16
G05
G00X102.79Y-47.3
M15
G01X102.79Y-46.2
M16
G05
G00X111.43Y-42.97
M15
G01X111.43Y-42.17
M16
G05
G00X111.43Y-47.3
M15
G01X111.43Y-46.2
M16
G05
M30
