%TF.GenerationSoftware,KiCad,Pcbnew,9.0.6*%
%TF.CreationDate,2026-01-19T20:12:22+07:00*%
%TF.ProjectId,ESP32S3_MOD_DEV,45535033-3253-4335-9f4d-4f445f444556,rev?*%
%TF.SameCoordinates,Original*%
%TF.FileFunction,Copper,L2,Bot*%
%TF.FilePolarity,Positive*%
%FSLAX46Y46*%
G04 Gerber Fmt 4.6, Leading zero omitted, Abs format (unit mm)*
G04 Created by KiCad (PCBNEW 9.0.6) date 2026-01-19 20:12:22*
%MOMM*%
%LPD*%
G01*
G04 APERTURE LIST*
G04 Aperture macros list*
%AMRoundRect*
0 Rectangle with rounded corners*
0 $1 Rounding radius*
0 $2 $3 $4 $5 $6 $7 $8 $9 X,Y pos of 4 corners*
0 Add a 4 corners polygon primitive as box body*
4,1,4,$2,$3,$4,$5,$6,$7,$8,$9,$2,$3,0*
0 Add four circle primitives for the rounded corners*
1,1,$1+$1,$2,$3*
1,1,$1+$1,$4,$5*
1,1,$1+$1,$6,$7*
1,1,$1+$1,$8,$9*
0 Add four rect primitives between the rounded corners*
20,1,$1+$1,$2,$3,$4,$5,0*
20,1,$1+$1,$4,$5,$6,$7,0*
20,1,$1+$1,$6,$7,$8,$9,0*
20,1,$1+$1,$8,$9,$2,$3,0*%
G04 Aperture macros list end*
%TA.AperFunction,ComponentPad*%
%ADD10RoundRect,0.250000X-0.650000X0.350000X-0.650000X-0.350000X0.650000X-0.350000X0.650000X0.350000X0*%
%TD*%
%TA.AperFunction,ComponentPad*%
%ADD11O,1.800000X1.200000*%
%TD*%
%TA.AperFunction,ComponentPad*%
%ADD12RoundRect,0.250000X0.350000X0.650000X-0.350000X0.650000X-0.350000X-0.650000X0.350000X-0.650000X0*%
%TD*%
%TA.AperFunction,ComponentPad*%
%ADD13O,1.200000X1.800000*%
%TD*%
%TA.AperFunction,HeatsinkPad*%
%ADD14O,1.000000X2.100000*%
%TD*%
%TA.AperFunction,HeatsinkPad*%
%ADD15O,1.000000X1.800000*%
%TD*%
%TA.AperFunction,ComponentPad*%
%ADD16C,0.800000*%
%TD*%
%TA.AperFunction,ComponentPad*%
%ADD17C,5.400000*%
%TD*%
%TA.AperFunction,ComponentPad*%
%ADD18C,2.000000*%
%TD*%
%TA.AperFunction,ComponentPad*%
%ADD19RoundRect,0.250000X0.650000X-0.350000X0.650000X0.350000X-0.650000X0.350000X-0.650000X-0.350000X0*%
%TD*%
%TA.AperFunction,SMDPad,CuDef*%
%ADD20R,3.000000X3.000000*%
%TD*%
%TA.AperFunction,ViaPad*%
%ADD21C,0.600000*%
%TD*%
%TA.AperFunction,Conductor*%
%ADD22C,0.250000*%
%TD*%
%TA.AperFunction,Conductor*%
%ADD23C,0.260000*%
%TD*%
%TA.AperFunction,Conductor*%
%ADD24C,0.200000*%
%TD*%
%TA.AperFunction,Conductor*%
%ADD25C,0.300000*%
%TD*%
%TA.AperFunction,Conductor*%
%ADD26C,0.500000*%
%TD*%
%TA.AperFunction,Conductor*%
%ADD27C,0.400000*%
%TD*%
G04 APERTURE END LIST*
D10*
%TO.P,J3,1,Pin_1*%
%TO.N,VCC_OUT*%
X81800000Y-54200000D03*
D11*
%TO.P,J3,2,Pin_2*%
%TO.N,GND*%
X81800000Y-56200000D03*
%TO.P,J3,3,Pin_3*%
%TO.N,IO10_CS*%
X81800000Y-58200000D03*
%TO.P,J3,4,Pin_4*%
%TO.N,IO4_RST*%
X81800000Y-60200000D03*
%TO.P,J3,5,Pin_5*%
%TO.N,IO5_DC*%
X81800000Y-62200000D03*
%TO.P,J3,6,Pin_6*%
%TO.N,IO13_MOSI*%
X81800000Y-64200000D03*
%TD*%
D12*
%TO.P,J6,1,Pin_1*%
%TO.N,VCC_OUT*%
X125600000Y-108400000D03*
D13*
%TO.P,J6,2,Pin_2*%
%TO.N,GND*%
X123600000Y-108400000D03*
%TO.P,J6,3,Pin_3*%
%TO.N,IO19_TX*%
X121600000Y-108400000D03*
%TO.P,J6,4,Pin_4*%
%TO.N,IO20_RX*%
X119600000Y-108400000D03*
%TD*%
D10*
%TO.P,J9,1,Pin_1*%
%TO.N,VCC_OUT*%
X88900000Y-54200000D03*
D11*
%TO.P,J9,2,Pin_2*%
%TO.N,GND*%
X88900000Y-56200000D03*
%TO.P,J9,3,Pin_3*%
%TO.N,IO39_CS*%
X88900000Y-58200000D03*
%TO.P,J9,4,Pin_4*%
%TO.N,IO40_CLK*%
X88900000Y-60200000D03*
%TO.P,J9,5,Pin_5*%
%TO.N,IO41_MOSI*%
X88900000Y-62200000D03*
%TO.P,J9,6,Pin_6*%
%TO.N,IO42_MISO*%
X88900000Y-64200000D03*
%TD*%
D14*
%TO.P,J2,S1,SHIELD*%
%TO.N,GND*%
X111430000Y-46750000D03*
D15*
X111430000Y-42570000D03*
D14*
X102790000Y-46750000D03*
D15*
X102790000Y-42570000D03*
%TD*%
D16*
%TO.P,H3,1,1*%
%TO.N,GND*%
X79975000Y-109431900D03*
X80568109Y-108000009D03*
X80568109Y-110863791D03*
X82000000Y-107406900D03*
D17*
X82000000Y-109431900D03*
D16*
X82000000Y-111456900D03*
X83431891Y-108000009D03*
X83431891Y-110863791D03*
X84025000Y-109431900D03*
%TD*%
D18*
%TO.P,SW1,1*%
%TO.N,GND*%
X119500000Y-47750000D03*
%TO.P,SW1,2*%
%TO.N,MCU_EN*%
X124000000Y-47750000D03*
%TO.P,SW1,3*%
%TO.N,GND*%
X119500000Y-41250000D03*
%TO.P,SW1,4*%
%TO.N,MCU_EN*%
X124000000Y-41250000D03*
%TD*%
D10*
%TO.P,J4,1,Pin_1*%
%TO.N,IO12_CLK*%
X81800000Y-72500000D03*
D11*
%TO.P,J4,2,Pin_2*%
%TO.N,IO15_BL*%
X81800000Y-74500000D03*
%TO.P,J4,3,Pin_3*%
%TO.N,SCL*%
X81800000Y-76500000D03*
%TO.P,J4,4,Pin_4*%
%TO.N,CPT_RST16*%
X81800000Y-78500000D03*
%TO.P,J4,5,Pin_5*%
%TO.N,SDA*%
X81800000Y-80500000D03*
%TO.P,J4,6,Pin_6*%
%TO.N,CPT_INT9*%
X81800000Y-82500000D03*
%TD*%
D18*
%TO.P,SW2,1*%
%TO.N,GND*%
X90000000Y-47750000D03*
%TO.P,SW2,2*%
%TO.N,MCU_BOOT*%
X94500000Y-47750000D03*
%TO.P,SW2,3*%
%TO.N,GND*%
X90000000Y-41250000D03*
%TO.P,SW2,4*%
%TO.N,MCU_BOOT*%
X94500000Y-41250000D03*
%TD*%
D12*
%TO.P,J8,1,Pin_1*%
%TO.N,VCC_OUT*%
X111300000Y-108400000D03*
D13*
%TO.P,J8,2,Pin_2*%
%TO.N,GND*%
X109300000Y-108400000D03*
%TO.P,J8,3,Pin_3*%
%TO.N,IO1*%
X107300000Y-108400000D03*
%TO.P,J8,4,Pin_4*%
%TO.N,I03*%
X105300000Y-108400000D03*
%TO.P,J8,5,Pin_5*%
%TO.N,IO6*%
X103300000Y-108400000D03*
%TO.P,J8,6,Pin_6*%
%TO.N,IO8*%
X101300000Y-108400000D03*
%TD*%
D19*
%TO.P,J1,1,Pin_1*%
%TO.N,B-*%
X128475000Y-53000000D03*
D11*
%TO.P,J1,2,Pin_2*%
%TO.N,B+*%
X128475000Y-51000000D03*
%TD*%
D16*
%TO.P,H2,1,1*%
%TO.N,GND*%
X80043100Y-42568100D03*
X80636209Y-41136209D03*
X80636209Y-43999991D03*
X82068100Y-40543100D03*
D17*
X82068100Y-42568100D03*
D16*
X82068100Y-44593100D03*
X83499991Y-41136209D03*
X83499991Y-43999991D03*
X84093100Y-42568100D03*
%TD*%
%TO.P,H1,1,1*%
%TO.N,GND*%
X129475000Y-42500000D03*
X130068109Y-41068109D03*
X130068109Y-43931891D03*
X131500000Y-40475000D03*
D17*
X131500000Y-42500000D03*
D16*
X131500000Y-44525000D03*
X132931891Y-41068109D03*
X132931891Y-43931891D03*
X133525000Y-42500000D03*
%TD*%
D12*
%TO.P,J5,1,Pin_1*%
%TO.N,VCC_OUT*%
X94100000Y-108400000D03*
D13*
%TO.P,J5,2,Pin_2*%
%TO.N,GND*%
X92100000Y-108400000D03*
%TO.P,J5,3,Pin_3*%
%TO.N,SDA*%
X90100000Y-108400000D03*
%TO.P,J5,4,Pin_4*%
%TO.N,SCL*%
X88100000Y-108400000D03*
%TD*%
D10*
%TO.P,J10,1,Pin_1*%
%TO.N,IO14*%
X88900000Y-72500000D03*
D11*
%TO.P,J10,2,Pin_2*%
%TO.N,IO11_MOSI*%
X88900000Y-74500000D03*
%TO.P,J10,3,Pin_3*%
%TO.N,IO38*%
X88900000Y-76500000D03*
%TO.P,J10,4,Pin_4*%
%TO.N,IO45*%
X88900000Y-78500000D03*
%TO.P,J10,5,Pin_5*%
%TO.N,IO47*%
X88900000Y-80500000D03*
%TO.P,J10,6,Pin_6*%
%TO.N,IO48*%
X88900000Y-82500000D03*
%TD*%
D16*
%TO.P,H4,1,1*%
%TO.N,GND*%
X129406900Y-109431900D03*
X130000009Y-108000009D03*
X130000009Y-110863791D03*
X131431900Y-107406900D03*
D17*
X131431900Y-109431900D03*
D16*
X131431900Y-111456900D03*
X132863791Y-108000009D03*
X132863791Y-110863791D03*
X133456900Y-109431900D03*
%TD*%
D20*
%TO.P,VUSB,1,1*%
%TO.N,VBUS*%
X115200000Y-41900000D03*
%TD*%
%TO.P,GND,1,1*%
%TO.N,GND*%
X99000000Y-42000000D03*
%TD*%
D21*
%TO.N,IO12_CLK*%
X83200000Y-84000000D03*
X80900000Y-84000000D03*
%TO.N,IO42_MISO*%
X112100000Y-105838000D03*
X100800000Y-105600000D03*
%TO.N,IO14*%
X110604000Y-87516900D03*
%TO.N,VCC_OUT*%
X92784900Y-58988300D03*
X106241000Y-55392300D03*
X120482000Y-61318800D03*
X94955100Y-87846800D03*
X91817300Y-94178600D03*
%TO.N,GND*%
X107094000Y-95624200D03*
X94941200Y-92649800D03*
X98920800Y-56436900D03*
X104201000Y-60671700D03*
X109140000Y-56644500D03*
%TO.N,IO38*%
X116678000Y-93309500D03*
%TO.N,IO48*%
X109008000Y-101033000D03*
X89596900Y-86557900D03*
%TO.N,IO45*%
X107721000Y-85317500D03*
%TO.N,IO11_MOSI*%
X89785000Y-87895700D03*
X110534000Y-92165800D03*
%TO.N,IO6*%
X115432000Y-97658600D03*
X103974000Y-98849700D03*
%TO.N,BAT_ADC*%
X118184000Y-86352400D03*
X117404000Y-57437200D03*
%TO.N,IO8*%
X110403000Y-99269800D03*
X102242000Y-99458500D03*
%TO.N,I03*%
X106121000Y-99235000D03*
X111379000Y-98071700D03*
%TO.N,IO2*%
X124758000Y-81603400D03*
X124797000Y-86149700D03*
%TO.N,IO47*%
X110502000Y-86394800D03*
%TO.N,Net-(J7-DAT1)*%
X97060500Y-99844200D03*
X94900000Y-90050000D03*
%TO.N,IO20_RX*%
X110556000Y-82731300D03*
%TO.N,IO19_TX*%
X111572000Y-82718300D03*
%TO.N,Net-(U2-PROG)*%
X124468000Y-55717600D03*
X112210000Y-55366100D03*
%TO.N,Net-(U3-CS)*%
X110208000Y-64806500D03*
X113348000Y-65175800D03*
%TO.N,Net-(Q2-B)*%
X113520000Y-75475000D03*
X121027000Y-70511500D03*
%TO.N,DTR*%
X107644000Y-63196900D03*
X117400000Y-74881000D03*
X124034000Y-66248300D03*
%TO.N,RTS*%
X107208000Y-65794900D03*
X118966000Y-66619500D03*
%TO.N,Net-(Q1-B)*%
X109748000Y-62951300D03*
X125448000Y-62895700D03*
%TO.N,Net-(J2-CC1)*%
X104200000Y-44700000D03*
X97400000Y-47500000D03*
%TO.N,Net-(D5-K)*%
X118445000Y-54640500D03*
X107800000Y-54700000D03*
%TO.N,TX_MCU0*%
X102631000Y-59413900D03*
X123993000Y-86360100D03*
%TO.N,RX_MCU0*%
X122307000Y-87920800D03*
X97300000Y-68000000D03*
%TO.N,MCU_BOOT*%
X116395000Y-82730100D03*
X129869000Y-67837900D03*
X115563000Y-85253100D03*
%TO.N,MCU_EN*%
X123017000Y-63251300D03*
X109113000Y-81287100D03*
X120900000Y-81300000D03*
X123371000Y-73441700D03*
%TO.N,IO40_CLK*%
X118017000Y-99651400D03*
X92314000Y-93350000D03*
%TO.N,SCL*%
X114726000Y-79285100D03*
%TO.N,SDA*%
X87541100Y-89902200D03*
X114330000Y-91922700D03*
%TO.N,IO39_CS*%
X99232100Y-104900000D03*
X116100000Y-104500000D03*
X92550000Y-99750000D03*
%TO.N,CPT_RST16*%
X117378000Y-81288700D03*
%TO.N,CPT_INT9*%
X110447000Y-88489200D03*
%TO.N,IO15_BL*%
X117379000Y-80071800D03*
%TO.N,IO13_MOSI*%
X86747700Y-87619600D03*
X111235000Y-89534900D03*
%TO.N,IO41_MOSI*%
X112598600Y-104282900D03*
X92219600Y-95778500D03*
%TO.N,IO12_CLK*%
X107738000Y-88100000D03*
%TO.N,IO5_DC*%
X117111000Y-78285000D03*
%TO.N,IO4_RST*%
X122653000Y-85477200D03*
%TO.N,B+*%
X121259000Y-52904000D03*
X118006000Y-72600000D03*
X112516000Y-67333400D03*
X122652000Y-66171800D03*
X94725800Y-68137600D03*
X127199000Y-55900000D03*
X123938000Y-60260500D03*
%TO.N,Net-(U3-VCC)*%
X115665000Y-68318300D03*
X123913000Y-69462700D03*
%TO.N,IO10_CS*%
X83903400Y-85979000D03*
X110350000Y-89345100D03*
%TO.N,IO42_MISO*%
X95219700Y-83922700D03*
X84953500Y-80193900D03*
X84295400Y-62486100D03*
X97858800Y-93689500D03*
X99979000Y-99694200D03*
%TO.N,B-*%
X117355000Y-70144000D03*
X117782000Y-60846600D03*
X112999000Y-72448400D03*
%TO.N,VBUS*%
X108300000Y-49652800D03*
X123400000Y-51000000D03*
X103550000Y-49475000D03*
X109900000Y-44400000D03*
X113459000Y-54627700D03*
%TD*%
D22*
%TO.N,Net-(J7-DAT1)*%
X98016300Y-100800000D02*
X97060500Y-99844200D01*
X108355000Y-100800000D02*
X98016300Y-100800000D01*
X108381000Y-100774000D02*
X108355000Y-100800000D01*
X108748000Y-100406000D02*
X108381000Y-100774000D01*
X108763000Y-100406000D02*
X108748000Y-100406000D01*
X108821000Y-100348000D02*
X108763000Y-100406000D01*
X116731000Y-99651400D02*
X116034000Y-100348000D01*
X116731000Y-98071700D02*
X116731000Y-99651400D01*
X116034000Y-100348000D02*
X108821000Y-100348000D01*
X114957000Y-96298000D02*
X116731000Y-98071700D01*
X114957000Y-91663100D02*
X114957000Y-96298000D01*
X114590000Y-91296000D02*
X114957000Y-91663100D01*
X114168000Y-91296000D02*
X114590000Y-91296000D01*
X95245509Y-90077609D02*
X96043200Y-90875300D01*
X96043200Y-90875300D02*
X113748000Y-90875300D01*
X113748000Y-90875300D02*
X114168000Y-91296000D01*
X94900000Y-90050000D02*
X94927609Y-90077609D01*
X94927609Y-90077609D02*
X95245509Y-90077609D01*
%TO.N,IO12_CLK*%
X96663093Y-84562000D02*
X87478900Y-84562000D01*
X96663095Y-84561998D02*
X96663093Y-84562000D01*
X97036716Y-84562003D02*
X97036710Y-84562000D01*
X97074710Y-84600000D02*
X97036716Y-84562003D01*
X104238000Y-84600000D02*
X97074710Y-84600000D01*
X97036710Y-84562000D02*
X96663095Y-84561998D01*
X107738000Y-88100000D02*
X104238000Y-84600000D01*
D23*
X87016900Y-84100000D02*
X87478200Y-84561300D01*
X83300000Y-84100000D02*
X87016900Y-84100000D01*
X83200000Y-84000000D02*
X83300000Y-84100000D01*
D22*
%TO.N,CPT_INT9*%
X81800000Y-84000000D02*
X81800000Y-82500000D01*
X82813000Y-85013000D02*
X81800000Y-84000000D01*
X100585000Y-88748200D02*
X96849900Y-85013000D01*
X110060000Y-88748200D02*
X100585000Y-88748200D01*
X96849900Y-85013000D02*
X82813000Y-85013000D01*
X110319000Y-88489200D02*
X110060000Y-88748200D01*
X110447000Y-88489200D02*
X110319000Y-88489200D01*
D23*
%TO.N,IO12_CLK*%
X79800000Y-82900000D02*
X79800000Y-77800000D01*
X80900000Y-84000000D02*
X79800000Y-82900000D01*
D22*
X79800000Y-77800000D02*
X79800000Y-73500000D01*
%TO.N,IO10_CS*%
X84324400Y-86400000D02*
X83903400Y-85979000D01*
X87830400Y-85914900D02*
X87345300Y-86400000D01*
X87345300Y-86400000D02*
X84324400Y-86400000D01*
%TO.N,IO12_CLK*%
X79800000Y-73500000D02*
X80800000Y-72500000D01*
X79800000Y-78130900D02*
X79800000Y-77800000D01*
X80800000Y-72500000D02*
X81800000Y-72500000D01*
D24*
%TO.N,IO42_MISO*%
X112062000Y-105800000D02*
X112100000Y-105838000D01*
D22*
X101000000Y-105800000D02*
X112062000Y-105800000D01*
X100800000Y-105600000D02*
X101000000Y-105800000D01*
%TO.N,IO14*%
X110107000Y-87020000D02*
X110604000Y-87516900D01*
X107542000Y-87020000D02*
X110107000Y-87020000D01*
X102022000Y-81500000D02*
X107542000Y-87020000D01*
X88284600Y-81500000D02*
X102022000Y-81500000D01*
X87618100Y-80833500D02*
X88284600Y-81500000D01*
X87618100Y-73781900D02*
X87618100Y-80833500D01*
X88900000Y-72500000D02*
X87618100Y-73781900D01*
D25*
%TO.N,VCC_OUT*%
X90092300Y-55392300D02*
X106241000Y-55392300D01*
X88900000Y-54200000D02*
X90092300Y-55392300D01*
X90948300Y-57151700D02*
X92784900Y-58988300D01*
X81034900Y-57151700D02*
X90948300Y-57151700D01*
X80543000Y-56659800D02*
X81034900Y-57151700D01*
X80543000Y-55457000D02*
X80543000Y-56659800D01*
X81800000Y-54200000D02*
X80543000Y-55457000D01*
X88900000Y-54200000D02*
X81800000Y-54200000D01*
X112588000Y-109688000D02*
X111300000Y-108400000D01*
X124312000Y-109688000D02*
X112588000Y-109688000D01*
X125600000Y-108400000D02*
X124312000Y-109688000D01*
X120302000Y-61498400D02*
X120482000Y-61318800D01*
X117501000Y-61498400D02*
X120302000Y-61498400D01*
X117127000Y-61124300D02*
X117501000Y-61498400D01*
X117127000Y-59927600D02*
X117127000Y-61124300D01*
X118560000Y-58494500D02*
X117127000Y-59927600D01*
X118560000Y-57025600D02*
X118560000Y-58494500D01*
X117829000Y-56294500D02*
X118560000Y-57025600D01*
X109750000Y-56294500D02*
X117829000Y-56294500D01*
X108848000Y-55392300D02*
X109750000Y-56294500D01*
X106241000Y-55392300D02*
X108848000Y-55392300D01*
X109800000Y-106300000D02*
X94100000Y-106300000D01*
X111300000Y-107800000D02*
X109800000Y-106300000D01*
X111300000Y-108400000D02*
X111300000Y-107800000D01*
X94100000Y-106300000D02*
X94100000Y-108400000D01*
D23*
X91817300Y-94178600D02*
X86889400Y-94178600D01*
D25*
X86889400Y-88816300D02*
X86889400Y-94178600D01*
X88478900Y-87226800D02*
X86889400Y-88816300D01*
X94335100Y-87226800D02*
X88478900Y-87226800D01*
X94955100Y-87846800D02*
X94335100Y-87226800D01*
X94100000Y-105840000D02*
X94100000Y-106300000D01*
X86889400Y-98629600D02*
X94100000Y-105840000D01*
X86889400Y-94178600D02*
X86889400Y-98629600D01*
D26*
%TO.N,GND*%
X90000000Y-41250000D02*
X83613800Y-41250000D01*
D27*
X81800000Y-56200000D02*
X88900000Y-56200000D01*
D26*
X102790000Y-42570000D02*
X111430000Y-42570000D01*
D27*
X83613800Y-41250000D02*
X83500000Y-41136200D01*
D26*
X98600000Y-43871700D02*
X98600000Y-42100000D01*
D27*
X84025000Y-109432000D02*
X82000000Y-109432000D01*
X98920800Y-56436900D02*
X101768000Y-59284400D01*
X133525000Y-42500000D02*
X131500000Y-42500000D01*
X129288000Y-42687500D02*
X129475000Y-42500000D01*
X84093100Y-42568100D02*
X82068100Y-42568100D01*
X80043100Y-42568100D02*
X82068100Y-42568100D01*
X82661200Y-41136200D02*
X82068100Y-40543100D01*
X83500000Y-41136200D02*
X82661200Y-41136200D01*
X104408000Y-56644500D02*
X101768000Y-59284400D01*
X109140000Y-56644500D02*
X104408000Y-56644500D01*
D26*
X90000000Y-42900000D02*
X90000000Y-41250000D01*
X90971700Y-43871700D02*
X90000000Y-42900000D01*
X98600000Y-43871700D02*
X90971700Y-43871700D01*
D27*
X92100000Y-108400000D02*
X92100000Y-110700000D01*
X107874000Y-111200000D02*
X109300000Y-109774000D01*
X92600000Y-111200000D02*
X107874000Y-111200000D01*
X92100000Y-110700000D02*
X92600000Y-111200000D01*
X129475000Y-42500000D02*
X131500000Y-42500000D01*
X97915600Y-95624200D02*
X107094000Y-95624200D01*
X94941200Y-92649800D02*
X97915600Y-95624200D01*
X104201000Y-60671600D02*
X104201000Y-60671700D01*
X102897000Y-60671600D02*
X104201000Y-60671600D01*
X101639000Y-59413700D02*
X102897000Y-60671600D01*
X101768000Y-59284400D02*
X101639000Y-59413700D01*
X109300000Y-109774000D02*
X109300000Y-108400000D01*
D26*
X102790000Y-43871700D02*
X98600000Y-43871700D01*
X102790000Y-42570000D02*
X102790000Y-43871700D01*
D27*
X82661200Y-44000000D02*
X82068100Y-44593100D01*
X83500000Y-44000000D02*
X82661200Y-44000000D01*
X85793100Y-111200000D02*
X84025000Y-109432000D01*
X91600000Y-111200000D02*
X85793100Y-111200000D01*
X92100000Y-110700000D02*
X91600000Y-111200000D01*
X90438600Y-56436900D02*
X98920800Y-56436900D01*
X90201700Y-56200000D02*
X90438600Y-56436900D01*
X88900000Y-56200000D02*
X90201700Y-56200000D01*
X119048000Y-48201700D02*
X119500000Y-47750000D01*
X111430000Y-48201700D02*
X119048000Y-48201700D01*
X111430000Y-46750000D02*
X111430000Y-48201700D01*
X81475000Y-44000000D02*
X82068100Y-44593100D01*
X80636200Y-44000000D02*
X81475000Y-44000000D01*
D26*
X127175000Y-44800000D02*
X129288000Y-42687500D01*
X120000000Y-44800000D02*
X127175000Y-44800000D01*
X119500000Y-44300000D02*
X120000000Y-44800000D01*
X119500000Y-41250000D02*
X119500000Y-44300000D01*
D27*
X81475000Y-41136200D02*
X82068100Y-40543100D01*
X80636200Y-41136200D02*
X81475000Y-41136200D01*
D24*
X98600000Y-42100000D02*
X98500000Y-42000000D01*
D27*
X110826000Y-111300000D02*
X109300000Y-109774000D01*
X129564000Y-111300000D02*
X110826000Y-111300000D01*
X130000000Y-110864000D02*
X129564000Y-111300000D01*
D23*
X84025000Y-109431900D02*
X84025000Y-109432000D01*
X83431900Y-110863800D02*
X83431900Y-110864000D01*
X80623200Y-110863800D02*
X80623400Y-110864000D01*
X80568100Y-110863800D02*
X80623200Y-110863800D01*
D27*
X80568100Y-110864000D02*
X80623400Y-110864000D01*
D23*
X80101500Y-109431900D02*
X80101500Y-109432000D01*
X79975000Y-109431900D02*
X80101500Y-109431900D01*
D27*
X79975000Y-109432000D02*
X80101500Y-109432000D01*
X80101500Y-109432000D02*
X82000000Y-109432000D01*
D23*
X130000000Y-110863800D02*
X130000000Y-110864000D01*
X82000000Y-109431900D02*
X82000000Y-109432000D01*
X129406900Y-109431900D02*
X129407000Y-109432000D01*
X98700000Y-42000000D02*
X98600000Y-42100000D01*
X99000000Y-42000000D02*
X98700000Y-42000000D01*
X133456900Y-109432000D02*
X133456900Y-109431900D01*
X132444500Y-109432000D02*
X133456900Y-109432000D01*
D27*
X133457000Y-109432000D02*
X132444500Y-109432000D01*
X130068000Y-41068100D02*
X130068100Y-41068100D01*
X130907000Y-41068100D02*
X131500000Y-40475000D01*
X130068100Y-41068100D02*
X130907000Y-41068100D01*
X132932000Y-43931900D02*
X132931900Y-43931900D01*
X132093000Y-43931900D02*
X131500000Y-44525000D01*
X132931900Y-43931900D02*
X132093000Y-43931900D01*
X130068000Y-43931900D02*
X130068100Y-43931900D01*
X130907000Y-43931900D02*
X131500000Y-44525000D01*
X130068100Y-43931900D02*
X130907000Y-43931900D01*
X130839000Y-110864000D02*
X130000000Y-110864000D01*
X131431900Y-111456900D02*
X130839000Y-110864000D01*
X132863800Y-108000000D02*
X132864000Y-108000000D01*
X132932000Y-41068100D02*
X132931900Y-41068100D01*
X132093000Y-41068100D02*
X131500000Y-40475000D01*
X132931900Y-41068100D02*
X132093000Y-41068100D01*
D23*
X131431900Y-107407100D02*
X131431900Y-107406900D01*
X131135500Y-107703500D02*
X131431900Y-107407100D01*
D27*
X130839000Y-108000000D02*
X131135500Y-107703500D01*
X130000000Y-108000000D02*
X130839000Y-108000000D01*
X132025000Y-108000000D02*
X132863800Y-108000000D01*
X131432000Y-107407000D02*
X132025000Y-108000000D01*
X131135500Y-107703500D02*
X131432000Y-107407000D01*
D23*
X81971000Y-111427900D02*
X81970900Y-111427900D01*
X82000000Y-111456900D02*
X81971000Y-111427900D01*
D27*
X81406900Y-110864000D02*
X81970900Y-111427900D01*
X80623400Y-110864000D02*
X81406900Y-110864000D01*
X82593100Y-110864000D02*
X83431900Y-110864000D01*
X82000000Y-111457000D02*
X82593100Y-110864000D01*
X81970900Y-111427900D02*
X82000000Y-111457000D01*
D23*
X131431800Y-109432000D02*
X131431900Y-109431900D01*
X130925800Y-109432000D02*
X131431800Y-109432000D01*
D27*
X132444500Y-109432000D02*
X130925800Y-109432000D01*
X130925800Y-109432000D02*
X129407000Y-109432000D01*
D23*
X132863800Y-110863800D02*
X132863800Y-110864000D01*
D27*
X132864000Y-110864000D02*
X132863800Y-110864000D01*
X131432000Y-111457000D02*
X131431900Y-111456900D01*
X132025000Y-110864000D02*
X131432000Y-111457000D01*
X132863800Y-110864000D02*
X132025000Y-110864000D01*
X81406900Y-108000000D02*
X80568100Y-108000000D01*
X82000000Y-107407000D02*
X81406900Y-108000000D01*
X82593100Y-108000000D02*
X82000000Y-107407000D01*
X83431900Y-108000000D02*
X82593100Y-108000000D01*
D22*
%TO.N,IO38*%
X101536000Y-76500000D02*
X88900000Y-76500000D01*
X116676000Y-91640100D02*
X101536000Y-76500000D01*
X116676000Y-93309500D02*
X116676000Y-91640100D01*
X116678000Y-93309500D02*
X116676000Y-93309500D01*
%TO.N,IO48*%
X95604200Y-86557900D02*
X89596900Y-86557900D01*
X99469900Y-90423600D02*
X95604200Y-86557900D01*
X114356000Y-90423600D02*
X99469900Y-90423600D01*
X115529000Y-91596100D02*
X114356000Y-90423600D01*
X115529000Y-94864900D02*
X115529000Y-91596100D01*
X117184000Y-96520100D02*
X115529000Y-94864900D01*
X117184000Y-99836900D02*
X117184000Y-96520100D01*
X116221000Y-100800000D02*
X117184000Y-99836900D01*
X109241000Y-100800000D02*
X116221000Y-100800000D01*
X109008000Y-101033000D02*
X109241000Y-100800000D01*
%TO.N,IO45*%
X100904000Y-78500000D02*
X107721000Y-85317500D01*
X88900000Y-78500000D02*
X100904000Y-78500000D01*
%TO.N,IO11_MOSI*%
X93216300Y-91327000D02*
X89785000Y-87895700D01*
X109695000Y-91327000D02*
X93216300Y-91327000D01*
X110534000Y-92165800D02*
X109695000Y-91327000D01*
%TO.N,IO6*%
X115201000Y-97427700D02*
X115432000Y-97658600D01*
X105396000Y-97427700D02*
X115201000Y-97427700D01*
X103974000Y-98849700D02*
X105396000Y-97427700D01*
%TO.N,BAT_ADC*%
X120390000Y-88558200D02*
X118184000Y-86352400D01*
X123301000Y-88558200D02*
X120390000Y-88558200D01*
X125513000Y-86345600D02*
X123301000Y-88558200D01*
X125513000Y-80887100D02*
X125513000Y-86345600D01*
X126116000Y-80285000D02*
X125513000Y-80887100D01*
X126116000Y-64415500D02*
X126116000Y-80285000D01*
X125222000Y-63521700D02*
X126116000Y-64415500D01*
X125189000Y-63521700D02*
X125222000Y-63521700D01*
X124822000Y-63155000D02*
X125189000Y-63521700D01*
X124822000Y-63122000D02*
X124822000Y-63155000D01*
X123700000Y-62000000D02*
X124822000Y-63122000D01*
X122743000Y-62000000D02*
X123700000Y-62000000D01*
X122301000Y-62442100D02*
X122743000Y-62000000D01*
X117102000Y-62442100D02*
X122301000Y-62442100D01*
X116113000Y-61452600D02*
X117102000Y-62442100D01*
X116113000Y-58728400D02*
X116113000Y-61452600D01*
X117404000Y-57437200D02*
X116113000Y-58728400D01*
%TO.N,IO8*%
X110403000Y-99269800D02*
X110403000Y-99310800D01*
X108110000Y-99767600D02*
X108013000Y-99864400D01*
X110403000Y-99310800D02*
X110403000Y-99269800D01*
X108566000Y-99310800D02*
X108110000Y-99767600D01*
X110403000Y-99310800D02*
X108566000Y-99310800D01*
X110403000Y-99310800D02*
X110403000Y-99269800D01*
X103164000Y-99864400D02*
X108013000Y-99864400D01*
X102758000Y-99458500D02*
X103164000Y-99864400D01*
X102242000Y-99458500D02*
X102758000Y-99458500D01*
X108110000Y-99767600D02*
X108013000Y-99864400D01*
%TO.N,I03*%
X107284000Y-98071700D02*
X106121000Y-99235000D01*
X111379000Y-98071700D02*
X107284000Y-98071700D01*
%TO.N,IO2*%
X124758000Y-86110100D02*
X124797000Y-86149700D01*
X124758000Y-81603400D02*
X124758000Y-86110100D01*
%TO.N,IO47*%
X101704000Y-80500000D02*
X88900000Y-80500000D01*
X107598000Y-86394800D02*
X101704000Y-80500000D01*
X110502000Y-86394800D02*
X107598000Y-86394800D01*
%TO.N,IO20_RX*%
X119709000Y-91884000D02*
X110556000Y-82731300D01*
X119709000Y-107064000D02*
X119709000Y-91884000D01*
X119600000Y-107173000D02*
X119709000Y-107064000D01*
X119600000Y-108400000D02*
X119600000Y-107173000D01*
%TO.N,IO19_TX*%
X121600000Y-92746400D02*
X121600000Y-108400000D01*
X111572000Y-82718300D02*
X121600000Y-92746400D01*
%TO.N,Net-(U2-PROG)*%
X124418000Y-55767700D02*
X124468000Y-55717600D01*
X112611000Y-55767700D02*
X124418000Y-55767700D01*
X112210000Y-55366100D02*
X112611000Y-55767700D01*
%TO.N,Net-(U3-CS)*%
X112979000Y-64806500D02*
X110208000Y-64806500D01*
X113348000Y-65175800D02*
X112979000Y-64806500D01*
%TO.N,Net-(Q2-B)*%
X121027000Y-70573000D02*
X121027000Y-70511500D01*
X117741000Y-73858600D02*
X121027000Y-70573000D01*
X114598000Y-73858600D02*
X117741000Y-73858600D01*
X113520000Y-74936500D02*
X114598000Y-73858600D01*
X113520000Y-75475000D02*
X113520000Y-74936500D01*
%TO.N,DTR*%
X123331000Y-65545100D02*
X124034000Y-66248300D01*
X113865000Y-65545100D02*
X123331000Y-65545100D01*
X113608000Y-65802500D02*
X113865000Y-65545100D01*
X110249000Y-65802500D02*
X113608000Y-65802500D01*
X107644000Y-63196900D02*
X110249000Y-65802500D01*
X124034000Y-68391200D02*
X124034000Y-66248300D01*
X117544000Y-74881000D02*
X124034000Y-68391200D01*
X117400000Y-74881000D02*
X117544000Y-74881000D01*
%TO.N,RTS*%
X108032000Y-66619500D02*
X107208000Y-65794900D01*
X118966000Y-66619500D02*
X108032000Y-66619500D01*
%TO.N,Net-(Q1-B)*%
X115889000Y-56810500D02*
X109748000Y-62951300D01*
X117663000Y-56810500D02*
X115889000Y-56810500D01*
X118031000Y-57177700D02*
X117663000Y-56810500D01*
X118031000Y-57696900D02*
X118031000Y-57177700D01*
X116607000Y-59120900D02*
X118031000Y-57696900D01*
X116607000Y-61284900D02*
X116607000Y-59120900D01*
X117297000Y-61975100D02*
X116607000Y-61284900D01*
X121724000Y-61975100D02*
X117297000Y-61975100D01*
X122599000Y-61100000D02*
X121724000Y-61975100D01*
X124200000Y-61100000D02*
X122599000Y-61100000D01*
X125448000Y-62348000D02*
X124200000Y-61100000D01*
X125448000Y-62895700D02*
X125448000Y-62348000D01*
D24*
%TO.N,Net-(J2-CC1)*%
X100200000Y-44700000D02*
X104200000Y-44700000D01*
X97400000Y-47500000D02*
X100200000Y-44700000D01*
D22*
%TO.N,Net-(D5-K)*%
X117776000Y-55309800D02*
X118445000Y-54640500D01*
X113228000Y-55309800D02*
X117776000Y-55309800D01*
X112618000Y-54700000D02*
X113228000Y-55309800D01*
X107800000Y-54700000D02*
X112618000Y-54700000D01*
%TO.N,TX_MCU0*%
X119817000Y-63390700D02*
X120004000Y-63203600D01*
X119630000Y-63578000D02*
X119817000Y-63390700D01*
X109489000Y-63578000D02*
X119630000Y-63578000D01*
X109122000Y-63210800D02*
X109489000Y-63578000D01*
X109122000Y-63124100D02*
X109122000Y-63210800D01*
X105410000Y-59412700D02*
X109122000Y-63124100D01*
X102630000Y-59412700D02*
X105410000Y-59412700D01*
X102631000Y-59413900D02*
X102630000Y-59412700D01*
X119817000Y-63390700D02*
X120004000Y-63203600D01*
X123993000Y-76312900D02*
X123993000Y-86360100D01*
X125605000Y-74701600D02*
X123993000Y-76312900D01*
X125605000Y-64952600D02*
X125605000Y-74701600D01*
X123277000Y-62624600D02*
X125605000Y-64952600D01*
X123276000Y-62625300D02*
X123277000Y-62624600D01*
X122758000Y-62625300D02*
X123276000Y-62625300D01*
X122391000Y-62992000D02*
X122758000Y-62625300D01*
X122391000Y-63000000D02*
X122391000Y-62992000D01*
X120208000Y-63000000D02*
X122391000Y-63000000D01*
X120004000Y-63203600D02*
X120208000Y-63000000D01*
%TO.N,RX_MCU0*%
X122026000Y-87640200D02*
X122307000Y-87920800D01*
X122026000Y-81226300D02*
X122026000Y-87640200D01*
X117622000Y-76821600D02*
X122026000Y-81226300D01*
X112835000Y-76821600D02*
X117622000Y-76821600D01*
X104414000Y-68400000D02*
X112835000Y-76821600D01*
X97700000Y-68400000D02*
X104414000Y-68400000D01*
X97300000Y-68000000D02*
X97700000Y-68400000D01*
%TO.N,MCU_BOOT*%
X95696900Y-48946900D02*
X94500000Y-47750000D01*
X103113000Y-48946900D02*
X95696900Y-48946900D01*
X103400000Y-48659500D02*
X103113000Y-48946900D01*
X109588000Y-48659500D02*
X103400000Y-48659500D01*
X110047000Y-49118700D02*
X109588000Y-48659500D01*
X128210000Y-49118700D02*
X110047000Y-49118700D01*
X129868000Y-50777400D02*
X128210000Y-49118700D01*
X129868000Y-67837900D02*
X129868000Y-50777400D01*
X129869000Y-67837900D02*
X129868000Y-67837900D01*
X116395000Y-82730100D02*
X116395000Y-85253100D01*
X126786000Y-70921000D02*
X129869000Y-67837900D01*
X126786000Y-85712300D02*
X126786000Y-70921000D01*
X123488000Y-89009900D02*
X126786000Y-85712300D01*
X119956000Y-89009900D02*
X123488000Y-89009900D01*
X116395000Y-85449800D02*
X119956000Y-89009900D01*
X116395000Y-85253100D02*
X116395000Y-85449800D01*
X116395000Y-85253100D02*
X115563000Y-85253100D01*
%TO.N,MCU_EN*%
X123017000Y-63476600D02*
X123017000Y-63251300D01*
X125152000Y-65611000D02*
X123017000Y-63476600D01*
X125152000Y-71661400D02*
X125152000Y-65611000D01*
X123371000Y-73441700D02*
X125152000Y-71661400D01*
X109914000Y-82087700D02*
X109113000Y-81287100D01*
X119312000Y-82087700D02*
X109914000Y-82087700D01*
X120100000Y-81300000D02*
X119312000Y-82087700D01*
X120900000Y-81300000D02*
X120100000Y-81300000D01*
%TO.N,IO40_CLK*%
X116403000Y-101266000D02*
X118017000Y-99651400D01*
X109661000Y-101266000D02*
X116403000Y-101266000D01*
X109268000Y-101660000D02*
X109661000Y-101266000D01*
X97957500Y-101660000D02*
X109268000Y-101660000D01*
X95671800Y-99374100D02*
X97957500Y-101660000D01*
X95671800Y-96707800D02*
X95671800Y-99374100D01*
X92314000Y-93350000D02*
X95671800Y-96707800D01*
%TO.N,SCL*%
X109862000Y-79285100D02*
X114726000Y-79285100D01*
X100577000Y-70000000D02*
X109862000Y-79285100D01*
X86824800Y-70000000D02*
X100577000Y-70000000D01*
X83324300Y-73500500D02*
X86824800Y-70000000D01*
X81117700Y-73500500D02*
X83324300Y-73500500D01*
X80573300Y-74044900D02*
X81117700Y-73500500D01*
X80573300Y-76500000D02*
X80573300Y-74044900D01*
X81800000Y-76500000D02*
X80573300Y-76500000D01*
%TO.N,SDA*%
X113074000Y-93179300D02*
X114330000Y-91922700D01*
X108099000Y-93179300D02*
X113074000Y-93179300D01*
X106698000Y-91778700D02*
X108099000Y-93179300D01*
X92781800Y-91778700D02*
X106698000Y-91778700D01*
X89174900Y-88171800D02*
X92781800Y-91778700D01*
X88243600Y-88171800D02*
X89174900Y-88171800D01*
X87541100Y-88874300D02*
X88243600Y-88171800D01*
X87541100Y-89902200D02*
X87541100Y-88874300D01*
D24*
%TO.N,IO39_CS*%
X97700000Y-104900000D02*
X99232100Y-104900000D01*
X92550000Y-99750000D02*
X97700000Y-104900000D01*
X115700000Y-104900000D02*
X99232100Y-104900000D01*
X116100000Y-104500000D02*
X115700000Y-104900000D01*
D22*
%TO.N,CPT_RST16*%
X83026700Y-78500000D02*
X81800000Y-78500000D01*
X83026700Y-76533800D02*
X83026700Y-78500000D01*
X88260500Y-71300000D02*
X83026700Y-76533800D01*
X98157900Y-71300000D02*
X88260500Y-71300000D01*
X107458000Y-80600000D02*
X98157900Y-71300000D01*
X116689000Y-80600000D02*
X107458000Y-80600000D01*
X117378000Y-81288700D02*
X116689000Y-80600000D01*
%TO.N,IO15_BL*%
X83026700Y-74500000D02*
X81800000Y-74500000D01*
X86826700Y-70700000D02*
X83026700Y-74500000D01*
X98421900Y-70700000D02*
X86826700Y-70700000D01*
X107634000Y-79911800D02*
X98421900Y-70700000D01*
X117219000Y-79911800D02*
X107634000Y-79911800D01*
X117379000Y-80071800D02*
X117219000Y-79911800D01*
%TO.N,IO13_MOSI*%
X86989700Y-87619600D02*
X86747700Y-87619600D01*
X88692900Y-85916400D02*
X86989700Y-87619600D01*
X95715200Y-85916400D02*
X88692900Y-85916400D01*
X99770700Y-89971900D02*
X95715200Y-85916400D01*
X110798000Y-89971900D02*
X99770700Y-89971900D01*
X111235000Y-89534900D02*
X110798000Y-89971900D01*
D23*
%TO.N,IO41_MOSI*%
X99870700Y-104282900D02*
X112598600Y-104282900D01*
X92219600Y-96631800D02*
X99870700Y-104282900D01*
X92219600Y-95778500D02*
X92219600Y-96631800D01*
D22*
%TO.N,IO5_DC*%
X109875000Y-78285000D02*
X117111000Y-78285000D01*
X100890000Y-69300000D02*
X109875000Y-78285000D01*
X90126700Y-69300000D02*
X100890000Y-69300000D01*
X83026700Y-62200000D02*
X90126700Y-69300000D01*
X81800000Y-62200000D02*
X83026700Y-62200000D01*
%TO.N,IO4_RST*%
X122653000Y-71609400D02*
X122653000Y-85477200D01*
X124700000Y-69562600D02*
X122653000Y-71609400D01*
X124700000Y-66027100D02*
X124700000Y-69562600D01*
X122811000Y-64138500D02*
X124700000Y-66027100D01*
X109411000Y-64138500D02*
X122811000Y-64138500D01*
X108670000Y-63397900D02*
X109411000Y-64138500D01*
X108670000Y-63311300D02*
X108670000Y-63397900D01*
X107459000Y-62100000D02*
X108670000Y-63311300D01*
X104220000Y-62100000D02*
X107459000Y-62100000D01*
X103394000Y-61274000D02*
X104220000Y-62100000D01*
X88216400Y-61274000D02*
X103394000Y-61274000D01*
X87790400Y-61700000D02*
X88216400Y-61274000D01*
X84526700Y-61700000D02*
X87790400Y-61700000D01*
X83026700Y-60200000D02*
X84526700Y-61700000D01*
X81800000Y-60200000D02*
X83026700Y-60200000D01*
D25*
%TO.N,B+*%
X120873000Y-67951300D02*
X118006000Y-67951300D01*
X122652000Y-66171800D02*
X120873000Y-67951300D01*
X95726900Y-67136500D02*
X94725800Y-68137600D01*
X112320000Y-67136500D02*
X95726900Y-67136500D01*
X112516000Y-67333400D02*
X112320000Y-67136500D01*
X117388000Y-67333400D02*
X112516000Y-67333400D01*
X118006000Y-67951300D02*
X117388000Y-67333400D01*
X127199000Y-56999400D02*
X123938000Y-60260500D01*
X127199000Y-55900000D02*
X127199000Y-56999400D01*
X125042000Y-52904000D02*
X121259000Y-52904000D01*
X125994000Y-51951700D02*
X125042000Y-52904000D01*
X128475000Y-51951700D02*
X125994000Y-51951700D01*
X128475000Y-51000000D02*
X128475000Y-51951700D01*
X118006000Y-72600000D02*
X118006000Y-67951300D01*
D22*
%TO.N,Net-(U3-VCC)*%
X112348000Y-71635200D02*
X115665000Y-68318300D01*
X112348000Y-75347900D02*
X112348000Y-71635200D01*
X113100000Y-76100000D02*
X112348000Y-75347900D01*
X117276000Y-76100000D02*
X113100000Y-76100000D01*
X123913000Y-69462700D02*
X117276000Y-76100000D01*
%TO.N,IO10_CS*%
X88016000Y-85729300D02*
X87830400Y-85914900D01*
X88016000Y-85729300D02*
X87830400Y-85914900D01*
X88280600Y-85464700D02*
X88016000Y-85729300D01*
X96137000Y-85464700D02*
X88280600Y-85464700D01*
X100017000Y-89345100D02*
X96137000Y-85464700D01*
X110350000Y-89345100D02*
X100017000Y-89345100D01*
D23*
%TO.N,IO42_MISO*%
X88682300Y-83922700D02*
X84953500Y-80193900D01*
X95219700Y-83922700D02*
X88682300Y-83922700D01*
X86009300Y-64200000D02*
X84295400Y-62486100D01*
X88900000Y-64200000D02*
X86009300Y-64200000D01*
X106108700Y-93689500D02*
X97858800Y-93689500D01*
X107731800Y-95312600D02*
X106108700Y-93689500D01*
X107731800Y-95923200D02*
X107731800Y-95312600D01*
X106878800Y-96776200D02*
X107731800Y-95923200D01*
X102897000Y-96776200D02*
X106878800Y-96776200D01*
X99979000Y-99694200D02*
X102897000Y-96776200D01*
D27*
%TO.N,B-*%
X115050000Y-72448400D02*
X117355000Y-70144000D01*
X112999000Y-72448400D02*
X115050000Y-72448400D01*
X128475000Y-53125000D02*
X128475000Y-53000000D01*
X124600000Y-57000000D02*
X128475000Y-53125000D01*
X121628000Y-57000000D02*
X124600000Y-57000000D01*
X117782000Y-60846600D02*
X121628000Y-57000000D01*
D25*
%TO.N,VBUS*%
X113459000Y-51618000D02*
X113459000Y-54627700D01*
X111647000Y-51618000D02*
X113459000Y-51618000D01*
X109682000Y-49652800D02*
X111647000Y-51618000D01*
X108300000Y-49652800D02*
X109682000Y-49652800D01*
X114377000Y-50700000D02*
X113459000Y-51618000D01*
X123100000Y-50700000D02*
X114377000Y-50700000D01*
X123400000Y-51000000D02*
X123100000Y-50700000D01*
D27*
X114800000Y-43900000D02*
X114800000Y-42100000D01*
X114300000Y-44400000D02*
X114800000Y-43900000D01*
X109900000Y-44400000D02*
X114300000Y-44400000D01*
D25*
X104026000Y-49652800D02*
X108300000Y-49652800D01*
X103848000Y-49475000D02*
X104026000Y-49652800D01*
X103550000Y-49475000D02*
X103848000Y-49475000D01*
D23*
X115000000Y-41900000D02*
X114800000Y-42100000D01*
X115200000Y-41900000D02*
X115000000Y-41900000D01*
%TD*%
%TA.AperFunction,Conductor*%
%TO.N,GND*%
G36*
X118619731Y-40020185D02*
G01*
X118640373Y-40036819D01*
X119329766Y-40726212D01*
X119287708Y-40737482D01*
X119162292Y-40809890D01*
X119059890Y-40912292D01*
X118987482Y-41037708D01*
X118976212Y-41079766D01*
X118277340Y-40380894D01*
X118217084Y-40463830D01*
X118109897Y-40674197D01*
X118036934Y-40898752D01*
X118000000Y-41131947D01*
X118000000Y-41368052D01*
X118036934Y-41601247D01*
X118109897Y-41825802D01*
X118217087Y-42036174D01*
X118277338Y-42119104D01*
X118277340Y-42119105D01*
X118976212Y-41420233D01*
X118987482Y-41462292D01*
X119059890Y-41587708D01*
X119162292Y-41690110D01*
X119287708Y-41762518D01*
X119329765Y-41773787D01*
X118630893Y-42472658D01*
X118713828Y-42532914D01*
X118924197Y-42640102D01*
X119148752Y-42713065D01*
X119148751Y-42713065D01*
X119381948Y-42750000D01*
X119618052Y-42750000D01*
X119851247Y-42713065D01*
X120075802Y-42640102D01*
X120286163Y-42532918D01*
X120286169Y-42532914D01*
X120369104Y-42472658D01*
X120369105Y-42472658D01*
X119670233Y-41773787D01*
X119712292Y-41762518D01*
X119837708Y-41690110D01*
X119940110Y-41587708D01*
X120012518Y-41462292D01*
X120023787Y-41420234D01*
X120722658Y-42119105D01*
X120722658Y-42119104D01*
X120782914Y-42036169D01*
X120782918Y-42036163D01*
X120890102Y-41825802D01*
X120963065Y-41601247D01*
X121000000Y-41368052D01*
X121000000Y-41131947D01*
X120963065Y-40898752D01*
X120890102Y-40674197D01*
X120782914Y-40463828D01*
X120722658Y-40380894D01*
X120722658Y-40380893D01*
X120023787Y-41079765D01*
X120012518Y-41037708D01*
X119940110Y-40912292D01*
X119837708Y-40809890D01*
X119712292Y-40737482D01*
X119670234Y-40726212D01*
X120359627Y-40036819D01*
X120420950Y-40003334D01*
X120447308Y-40000500D01*
X122828111Y-40000500D01*
X122895150Y-40020185D01*
X122940905Y-40072989D01*
X122950849Y-40142147D01*
X122921824Y-40205703D01*
X122915792Y-40212181D01*
X122855485Y-40272487D01*
X122855485Y-40272488D01*
X122855483Y-40272490D01*
X122797631Y-40352116D01*
X122716657Y-40463566D01*
X122609433Y-40674003D01*
X122536446Y-40898631D01*
X122499500Y-41131902D01*
X122499500Y-41368097D01*
X122536446Y-41601368D01*
X122609433Y-41825996D01*
X122699426Y-42002615D01*
X122716657Y-42036433D01*
X122855483Y-42227510D01*
X123022490Y-42394517D01*
X123213567Y-42533343D01*
X123312991Y-42584002D01*
X123424003Y-42640566D01*
X123424005Y-42640566D01*
X123424008Y-42640568D01*
X123544412Y-42679689D01*
X123648631Y-42713553D01*
X123881903Y-42750500D01*
X123881908Y-42750500D01*
X124118097Y-42750500D01*
X124351368Y-42713553D01*
X124352870Y-42713065D01*
X124575992Y-42640568D01*
X124786433Y-42533343D01*
X124977510Y-42394517D01*
X125144517Y-42227510D01*
X125283343Y-42036433D01*
X125390568Y-41825992D01*
X125463553Y-41601368D01*
X125474455Y-41532537D01*
X125500500Y-41368097D01*
X125500500Y-41131902D01*
X125463553Y-40898631D01*
X125399013Y-40700000D01*
X125390568Y-40674008D01*
X125390566Y-40674005D01*
X125390566Y-40674003D01*
X125283477Y-40463830D01*
X125283343Y-40463567D01*
X125144517Y-40272490D01*
X125084208Y-40212181D01*
X125050723Y-40150858D01*
X125055707Y-40081166D01*
X125097579Y-40025233D01*
X125163043Y-40000816D01*
X125171889Y-40000500D01*
X131434108Y-40000500D01*
X131496249Y-40000500D01*
X131503736Y-40000726D01*
X131793796Y-40018271D01*
X131808657Y-40020075D01*
X132090798Y-40071780D01*
X132105335Y-40075363D01*
X132379172Y-40160695D01*
X132393163Y-40166000D01*
X132654743Y-40283727D01*
X132667989Y-40290680D01*
X132913465Y-40439075D01*
X132925776Y-40447573D01*
X132946527Y-40463830D01*
X133151573Y-40624473D01*
X133162781Y-40634403D01*
X133365596Y-40837218D01*
X133375526Y-40848426D01*
X133495481Y-41001538D01*
X133552422Y-41074217D01*
X133560926Y-41086537D01*
X133680180Y-41283807D01*
X133709316Y-41332004D01*
X133716275Y-41345263D01*
X133833997Y-41606831D01*
X133839306Y-41620832D01*
X133924635Y-41894663D01*
X133928219Y-41909201D01*
X133979923Y-42191340D01*
X133981728Y-42206205D01*
X133999274Y-42496263D01*
X133999500Y-42503750D01*
X133999500Y-83125500D01*
X133979815Y-83192539D01*
X133927011Y-83238294D01*
X133875500Y-83249500D01*
X128184108Y-83249500D01*
X128056812Y-83283608D01*
X127942686Y-83349500D01*
X127942683Y-83349502D01*
X127849502Y-83442683D01*
X127849500Y-83442686D01*
X127783608Y-83556812D01*
X127753606Y-83668785D01*
X127749500Y-83684108D01*
X127749500Y-101684108D01*
X127749500Y-101815892D01*
X127763309Y-101867429D01*
X127783608Y-101943187D01*
X127816554Y-102000250D01*
X127849500Y-102057314D01*
X127942686Y-102150500D01*
X127993735Y-102179973D01*
X128053209Y-102214311D01*
X128056814Y-102216392D01*
X128184108Y-102250500D01*
X133875500Y-102250500D01*
X133942539Y-102270185D01*
X133988294Y-102322989D01*
X133999500Y-102374500D01*
X133999500Y-109496249D01*
X133999274Y-109503736D01*
X133981728Y-109793794D01*
X133979923Y-109808659D01*
X133928219Y-110090798D01*
X133924635Y-110105336D01*
X133839306Y-110379167D01*
X133833997Y-110393168D01*
X133716275Y-110654736D01*
X133709316Y-110667995D01*
X133560928Y-110913459D01*
X133552422Y-110925782D01*
X133375526Y-111151573D01*
X133365596Y-111162781D01*
X133162781Y-111365596D01*
X133151573Y-111375526D01*
X132925782Y-111552422D01*
X132913459Y-111560928D01*
X132667995Y-111709316D01*
X132654736Y-111716275D01*
X132393168Y-111833997D01*
X132379167Y-111839306D01*
X132105336Y-111924635D01*
X132090798Y-111928219D01*
X131808659Y-111979923D01*
X131793794Y-111981728D01*
X131503736Y-111999274D01*
X131496249Y-111999500D01*
X82003751Y-111999500D01*
X81996264Y-111999274D01*
X81706205Y-111981728D01*
X81691340Y-111979923D01*
X81409201Y-111928219D01*
X81394663Y-111924635D01*
X81120832Y-111839306D01*
X81106831Y-111833997D01*
X80845263Y-111716275D01*
X80832004Y-111709316D01*
X80586540Y-111560928D01*
X80574217Y-111552422D01*
X80348426Y-111375526D01*
X80337218Y-111365596D01*
X80134403Y-111162781D01*
X80124473Y-111151573D01*
X79947573Y-110925776D01*
X79939075Y-110913465D01*
X79790680Y-110667989D01*
X79783727Y-110654743D01*
X79666000Y-110393163D01*
X79660693Y-110379167D01*
X79640230Y-110313500D01*
X79575363Y-110105335D01*
X79571780Y-110090798D01*
X79520076Y-109808659D01*
X79518271Y-109793794D01*
X79518041Y-109789999D01*
X79500726Y-109503736D01*
X79500500Y-109496249D01*
X79500500Y-83791523D01*
X79520185Y-83724484D01*
X79572989Y-83678729D01*
X79642147Y-83668785D01*
X79705703Y-83697810D01*
X79712181Y-83703842D01*
X80075961Y-84067622D01*
X80109446Y-84128945D01*
X80109897Y-84131112D01*
X80130261Y-84233489D01*
X80130264Y-84233501D01*
X80190602Y-84379172D01*
X80190609Y-84379185D01*
X80278210Y-84510288D01*
X80278213Y-84510292D01*
X80389707Y-84621786D01*
X80389711Y-84621789D01*
X80520814Y-84709390D01*
X80520827Y-84709397D01*
X80601497Y-84742811D01*
X80666503Y-84769737D01*
X80821153Y-84800499D01*
X80821156Y-84800500D01*
X80821158Y-84800500D01*
X80978844Y-84800500D01*
X80978845Y-84800499D01*
X81133497Y-84769737D01*
X81279179Y-84709394D01*
X81401754Y-84627491D01*
X81468428Y-84606615D01*
X81535808Y-84625099D01*
X81558323Y-84642914D01*
X82327141Y-85411732D01*
X82327142Y-85411733D01*
X82390593Y-85475184D01*
X82414268Y-85498859D01*
X82516707Y-85567307D01*
X82516713Y-85567310D01*
X82516714Y-85567311D01*
X82630548Y-85614463D01*
X82660032Y-85620327D01*
X82686633Y-85625619D01*
X82686653Y-85625622D01*
X82686675Y-85625627D01*
X82751391Y-85638499D01*
X82751392Y-85638500D01*
X82751393Y-85638500D01*
X82751394Y-85638500D01*
X83003853Y-85638500D01*
X83070892Y-85658185D01*
X83116647Y-85710989D01*
X83126591Y-85780147D01*
X83125470Y-85786692D01*
X83102900Y-85900155D01*
X83102900Y-86057846D01*
X83133661Y-86212489D01*
X83133664Y-86212501D01*
X83194002Y-86358172D01*
X83194009Y-86358185D01*
X83281610Y-86489288D01*
X83281613Y-86489292D01*
X83393107Y-86600786D01*
X83393111Y-86600789D01*
X83524214Y-86688390D01*
X83524227Y-86688397D01*
X83611630Y-86724599D01*
X83669903Y-86748737D01*
X83781113Y-86770857D01*
X83794601Y-86777319D01*
X83806531Y-86778831D01*
X83827256Y-86792964D01*
X83836539Y-86797412D01*
X83840736Y-86800927D01*
X83925667Y-86885858D01*
X84001555Y-86936565D01*
X84021932Y-86950181D01*
X84028113Y-86954311D01*
X84028114Y-86954311D01*
X84028115Y-86954312D01*
X84069042Y-86971264D01*
X84069043Y-86971265D01*
X84094685Y-86981886D01*
X84141948Y-87001463D01*
X84202371Y-87013481D01*
X84262793Y-87025500D01*
X84262794Y-87025500D01*
X85949923Y-87025500D01*
X86016962Y-87045185D01*
X86062717Y-87097989D01*
X86072661Y-87167147D01*
X86053026Y-87218390D01*
X86038308Y-87240416D01*
X86038302Y-87240427D01*
X85977964Y-87386098D01*
X85977961Y-87386110D01*
X85947200Y-87540753D01*
X85947200Y-87698446D01*
X85977961Y-87853089D01*
X85977964Y-87853101D01*
X86038302Y-87998772D01*
X86038309Y-87998785D01*
X86125910Y-88129888D01*
X86125913Y-88129892D01*
X86237407Y-88241386D01*
X86237411Y-88241389D01*
X86309759Y-88289731D01*
X86315563Y-88296675D01*
X86323728Y-88300582D01*
X86337617Y-88323065D01*
X86354564Y-88343343D01*
X86355691Y-88352323D01*
X86360449Y-88360024D01*
X86359978Y-88386449D01*
X86363271Y-88412668D01*
X86359332Y-88422678D01*
X86359204Y-88429882D01*
X86343972Y-88461721D01*
X86332309Y-88479177D01*
X86332308Y-88479179D01*
X86312934Y-88508174D01*
X86263899Y-88626555D01*
X86263897Y-88626561D01*
X86238900Y-88752228D01*
X86238900Y-88752231D01*
X86238900Y-94114531D01*
X86238900Y-98693669D01*
X86238900Y-98693671D01*
X86238899Y-98693671D01*
X86263896Y-98819332D01*
X86263897Y-98819338D01*
X86263898Y-98819341D01*
X86263899Y-98819344D01*
X86263901Y-98819350D01*
X86263902Y-98819352D01*
X86279008Y-98855821D01*
X86312935Y-98937727D01*
X86312936Y-98937729D01*
X86312939Y-98937735D01*
X86313779Y-98938992D01*
X86313780Y-98938994D01*
X86363914Y-99014025D01*
X86363919Y-99014030D01*
X86383789Y-99043769D01*
X86384123Y-99044268D01*
X86384126Y-99044272D01*
X86384129Y-99044276D01*
X86384131Y-99044278D01*
X86384132Y-99044279D01*
X86439355Y-99099500D01*
X86474731Y-99134876D01*
X86474733Y-99134879D01*
X93413180Y-106073131D01*
X93446666Y-106134453D01*
X93449500Y-106160813D01*
X93449500Y-106984362D01*
X93429815Y-107051401D01*
X93390598Y-107089899D01*
X93342630Y-107119487D01*
X93281342Y-107157289D01*
X93157289Y-107281342D01*
X93117420Y-107345981D01*
X93065472Y-107392705D01*
X92996509Y-107403928D01*
X92932427Y-107376084D01*
X92924200Y-107368565D01*
X92816602Y-107260967D01*
X92676524Y-107159195D01*
X92522257Y-107080591D01*
X92357589Y-107027087D01*
X92357581Y-107027085D01*
X92350000Y-107025884D01*
X92350000Y-108084314D01*
X92345606Y-108079920D01*
X92254394Y-108027259D01*
X92152661Y-108000000D01*
X92047339Y-108000000D01*
X91945606Y-108027259D01*
X91854394Y-108079920D01*
X91850000Y-108084314D01*
X91850000Y-107025884D01*
X91849999Y-107025884D01*
X91842418Y-107027085D01*
X91842410Y-107027087D01*
X91677742Y-107080591D01*
X91523475Y-107159195D01*
X91383397Y-107260967D01*
X91260965Y-107383399D01*
X91260961Y-107383404D01*
X91200627Y-107466448D01*
X91145297Y-107509114D01*
X91075684Y-107515093D01*
X91013889Y-107482488D01*
X90999991Y-107466449D01*
X90999990Y-107466448D01*
X90939414Y-107383072D01*
X90816928Y-107260586D01*
X90676788Y-107158768D01*
X90599694Y-107119487D01*
X90522447Y-107080128D01*
X90522446Y-107080127D01*
X90522445Y-107080127D01*
X90357701Y-107026598D01*
X90357699Y-107026597D01*
X90357698Y-107026597D01*
X90226271Y-107005781D01*
X90186611Y-106999500D01*
X90013389Y-106999500D01*
X89973728Y-107005781D01*
X89842302Y-107026597D01*
X89677552Y-107080128D01*
X89523211Y-107158768D01*
X89443256Y-107216859D01*
X89383072Y-107260586D01*
X89383070Y-107260588D01*
X89383069Y-107260588D01*
X89260588Y-107383069D01*
X89260581Y-107383078D01*
X89200317Y-107466023D01*
X89144987Y-107508689D01*
X89075374Y-107514667D01*
X89013579Y-107482061D01*
X88999683Y-107466023D01*
X88939655Y-107383404D01*
X88939414Y-107383072D01*
X88816928Y-107260586D01*
X88676788Y-107158768D01*
X88599694Y-107119487D01*
X88522447Y-107080128D01*
X88522446Y-107080127D01*
X88522445Y-107080127D01*
X88357701Y-107026598D01*
X88357699Y-107026597D01*
X88357698Y-107026597D01*
X88226271Y-107005781D01*
X88186611Y-106999500D01*
X88013389Y-106999500D01*
X87973728Y-107005781D01*
X87842302Y-107026597D01*
X87677552Y-107080128D01*
X87523211Y-107158768D01*
X87443256Y-107216859D01*
X87383072Y-107260586D01*
X87383070Y-107260588D01*
X87383069Y-107260588D01*
X87260588Y-107383069D01*
X87260588Y-107383070D01*
X87260586Y-107383072D01*
X87226009Y-107430663D01*
X87158768Y-107523211D01*
X87080128Y-107677552D01*
X87026597Y-107842302D01*
X87001621Y-108000000D01*
X86999500Y-108013389D01*
X86999500Y-108786611D01*
X87026598Y-108957701D01*
X87080127Y-109122445D01*
X87158768Y-109276788D01*
X87260586Y-109416928D01*
X87383072Y-109539414D01*
X87523212Y-109641232D01*
X87677555Y-109719873D01*
X87842299Y-109773402D01*
X88013389Y-109800500D01*
X88013390Y-109800500D01*
X88186610Y-109800500D01*
X88186611Y-109800500D01*
X88357701Y-109773402D01*
X88522445Y-109719873D01*
X88676788Y-109641232D01*
X88816928Y-109539414D01*
X88939414Y-109416928D01*
X88999682Y-109333975D01*
X89055012Y-109291311D01*
X89124626Y-109285332D01*
X89186421Y-109317938D01*
X89200315Y-109333973D01*
X89260586Y-109416928D01*
X89383072Y-109539414D01*
X89523212Y-109641232D01*
X89677555Y-109719873D01*
X89842299Y-109773402D01*
X90013389Y-109800500D01*
X90013390Y-109800500D01*
X90186610Y-109800500D01*
X90186611Y-109800500D01*
X90357701Y-109773402D01*
X90522445Y-109719873D01*
X90676788Y-109641232D01*
X90816928Y-109539414D01*
X90939414Y-109416928D01*
X90999991Y-109333550D01*
X91055321Y-109290885D01*
X91124934Y-109284906D01*
X91186729Y-109317512D01*
X91200628Y-109333551D01*
X91260967Y-109416602D01*
X91383397Y-109539032D01*
X91523475Y-109640804D01*
X91677744Y-109719408D01*
X91842415Y-109772914D01*
X91842414Y-109772914D01*
X91849999Y-109774115D01*
X91850000Y-109774114D01*
X91850000Y-108715686D01*
X91854394Y-108720080D01*
X91945606Y-108772741D01*
X92047339Y-108800000D01*
X92152661Y-108800000D01*
X92254394Y-108772741D01*
X92345606Y-108720080D01*
X92350000Y-108715686D01*
X92350000Y-109774115D01*
X92357584Y-109772914D01*
X92522255Y-109719408D01*
X92676524Y-109640804D01*
X92816598Y-109539035D01*
X92924199Y-109431434D01*
X92985522Y-109397949D01*
X93055214Y-109402933D01*
X93111148Y-109444804D01*
X93117418Y-109454016D01*
X93157288Y-109518656D01*
X93281344Y-109642712D01*
X93430666Y-109734814D01*
X93597203Y-109789999D01*
X93699991Y-109800500D01*
X94500008Y-109800499D01*
X94500016Y-109800498D01*
X94500019Y-109800498D01*
X94573096Y-109793033D01*
X94602797Y-109789999D01*
X94769334Y-109734814D01*
X94918656Y-109642712D01*
X95042712Y-109518656D01*
X95134814Y-109369334D01*
X95189999Y-109202797D01*
X95200500Y-109100009D01*
X95200499Y-107699992D01*
X95189999Y-107597203D01*
X95134814Y-107430666D01*
X95042712Y-107281344D01*
X94923549Y-107162181D01*
X94890064Y-107100858D01*
X94895048Y-107031166D01*
X94936920Y-106975233D01*
X95002384Y-106950816D01*
X95011230Y-106950500D01*
X100628235Y-106950500D01*
X100695274Y-106970185D01*
X100741029Y-107022989D01*
X100750973Y-107092147D01*
X100721948Y-107155703D01*
X100701121Y-107174818D01*
X100583070Y-107260587D01*
X100460588Y-107383069D01*
X100460588Y-107383070D01*
X100460586Y-107383072D01*
X100426009Y-107430663D01*
X100358768Y-107523211D01*
X100280128Y-107677552D01*
X100226597Y-107842302D01*
X100201621Y-108000000D01*
X100199500Y-108013389D01*
X100199500Y-108786611D01*
X100226598Y-108957701D01*
X100280127Y-109122445D01*
X100358768Y-109276788D01*
X100460586Y-109416928D01*
X100583072Y-109539414D01*
X100723212Y-109641232D01*
X100877555Y-109719873D01*
X101042299Y-109773402D01*
X101213389Y-109800500D01*
X101213390Y-109800500D01*
X101386610Y-109800500D01*
X101386611Y-109800500D01*
X101557701Y-109773402D01*
X101722445Y-109719873D01*
X101876788Y-109641232D01*
X102016928Y-109539414D01*
X102139414Y-109416928D01*
X102199682Y-109333975D01*
X102255012Y-109291311D01*
X102324626Y-109285332D01*
X102386421Y-109317938D01*
X102400315Y-109333973D01*
X102460586Y-109416928D01*
X102583072Y-109539414D01*
X102723212Y-109641232D01*
X102877555Y-109719873D01*
X103042299Y-109773402D01*
X103213389Y-109800500D01*
X103213390Y-109800500D01*
X103386610Y-109800500D01*
X103386611Y-109800500D01*
X103557701Y-109773402D01*
X103722445Y-109719873D01*
X103876788Y-109641232D01*
X104016928Y-109539414D01*
X104139414Y-109416928D01*
X104199682Y-109333975D01*
X104255012Y-109291311D01*
X104324626Y-109285332D01*
X104386421Y-109317938D01*
X104400315Y-109333973D01*
X104460586Y-109416928D01*
X104583072Y-109539414D01*
X104723212Y-109641232D01*
X104877555Y-109719873D01*
X105042299Y-109773402D01*
X105213389Y-109800500D01*
X105213390Y-109800500D01*
X105386610Y-109800500D01*
X105386611Y-109800500D01*
X105557701Y-109773402D01*
X105722445Y-109719873D01*
X105876788Y-109641232D01*
X106016928Y-109539414D01*
X106139414Y-109416928D01*
X106199682Y-109333975D01*
X106255012Y-109291311D01*
X106324626Y-109285332D01*
X106386421Y-109317938D01*
X106400315Y-109333973D01*
X106460586Y-109416928D01*
X106583072Y-109539414D01*
X106723212Y-109641232D01*
X106877555Y-109719873D01*
X107042299Y-109773402D01*
X107213389Y-109800500D01*
X107213390Y-109800500D01*
X107386610Y-109800500D01*
X107386611Y-109800500D01*
X107557701Y-109773402D01*
X107722445Y-109719873D01*
X107876788Y-109641232D01*
X108016928Y-109539414D01*
X108139414Y-109416928D01*
X108199991Y-109333550D01*
X108255321Y-109290885D01*
X108324934Y-109284906D01*
X108386729Y-109317512D01*
X108400628Y-109333551D01*
X108460967Y-109416602D01*
X108583397Y-109539032D01*
X108723475Y-109640804D01*
X108877744Y-109719408D01*
X109042415Y-109772914D01*
X109042414Y-109772914D01*
X109049999Y-109774115D01*
X109050000Y-109774114D01*
X109050000Y-108715686D01*
X109054394Y-108720080D01*
X109145606Y-108772741D01*
X109247339Y-108800000D01*
X109352661Y-108800000D01*
X109454394Y-108772741D01*
X109545606Y-108720080D01*
X109550000Y-108715686D01*
X109550000Y-109774115D01*
X109557584Y-109772914D01*
X109722255Y-109719408D01*
X109876524Y-109640804D01*
X110016598Y-109539035D01*
X110124199Y-109431434D01*
X110185522Y-109397949D01*
X110255214Y-109402933D01*
X110311148Y-109444804D01*
X110317418Y-109454016D01*
X110357288Y-109518656D01*
X110481344Y-109642712D01*
X110630666Y-109734814D01*
X110797203Y-109789999D01*
X110899991Y-109800500D01*
X111700008Y-109800499D01*
X111700014Y-109800498D01*
X111700021Y-109800498D01*
X111708543Y-109799626D01*
X111714463Y-109799022D01*
X111783156Y-109811788D01*
X111814752Y-109834698D01*
X112173325Y-110193272D01*
X112173326Y-110193273D01*
X112173329Y-110193275D01*
X112173331Y-110193277D01*
X112279873Y-110264465D01*
X112398256Y-110313501D01*
X112398260Y-110313501D01*
X112398261Y-110313502D01*
X112523928Y-110338500D01*
X112523931Y-110338500D01*
X124376071Y-110338500D01*
X124460615Y-110321682D01*
X124501744Y-110313501D01*
X124620127Y-110264465D01*
X124726669Y-110193277D01*
X125085248Y-109834696D01*
X125146567Y-109801214D01*
X125185533Y-109799023D01*
X125188155Y-109799290D01*
X125199991Y-109800500D01*
X126000008Y-109800499D01*
X126000016Y-109800498D01*
X126000019Y-109800498D01*
X126073096Y-109793033D01*
X126102797Y-109789999D01*
X126269334Y-109734814D01*
X126418656Y-109642712D01*
X126542712Y-109518656D01*
X126634814Y-109369334D01*
X126689999Y-109202797D01*
X126700500Y-109100009D01*
X126700499Y-107699992D01*
X126689999Y-107597203D01*
X126634814Y-107430666D01*
X126542712Y-107281344D01*
X126418656Y-107157288D01*
X126293559Y-107080128D01*
X126269336Y-107065187D01*
X126269331Y-107065185D01*
X126250500Y-107058945D01*
X126102797Y-107010001D01*
X126102795Y-107010000D01*
X126000010Y-106999500D01*
X125199998Y-106999500D01*
X125199980Y-106999501D01*
X125097203Y-107010000D01*
X125097200Y-107010001D01*
X124930668Y-107065185D01*
X124930663Y-107065187D01*
X124781342Y-107157289D01*
X124657289Y-107281342D01*
X124617420Y-107345981D01*
X124565472Y-107392705D01*
X124496509Y-107403928D01*
X124432427Y-107376084D01*
X124424200Y-107368565D01*
X124316602Y-107260967D01*
X124176524Y-107159195D01*
X124022257Y-107080591D01*
X123857589Y-107027087D01*
X123857581Y-107027085D01*
X123850000Y-107025884D01*
X123850000Y-108084314D01*
X123845606Y-108079920D01*
X123754394Y-108027259D01*
X123652661Y-108000000D01*
X123547339Y-108000000D01*
X123445606Y-108027259D01*
X123354394Y-108079920D01*
X123350000Y-108084314D01*
X123350000Y-107025884D01*
X123349999Y-107025884D01*
X123342418Y-107027085D01*
X123342410Y-107027087D01*
X123177742Y-107080591D01*
X123023475Y-107159195D01*
X122883397Y-107260967D01*
X122760965Y-107383399D01*
X122760961Y-107383404D01*
X122700627Y-107466448D01*
X122645297Y-107509114D01*
X122575684Y-107515093D01*
X122513889Y-107482488D01*
X122499991Y-107466449D01*
X122499990Y-107466448D01*
X122439414Y-107383072D01*
X122316928Y-107260586D01*
X122307457Y-107253705D01*
X122276613Y-107231295D01*
X122233948Y-107175965D01*
X122225500Y-107130978D01*
X122225500Y-92684793D01*
X122225499Y-92684789D01*
X122215653Y-92635290D01*
X122201463Y-92563948D01*
X122174629Y-92499165D01*
X122154313Y-92450117D01*
X122107571Y-92380163D01*
X122085858Y-92347667D01*
X121998733Y-92260542D01*
X121998732Y-92260541D01*
X119473211Y-89734995D01*
X119462368Y-89715136D01*
X119447689Y-89697918D01*
X119445945Y-89685059D01*
X119439728Y-89673672D01*
X119441341Y-89651103D01*
X119438302Y-89628682D01*
X119443786Y-89616924D01*
X119444712Y-89603981D01*
X119458273Y-89585865D01*
X119467837Y-89565362D01*
X119478807Y-89558435D01*
X119486584Y-89548048D01*
X119507784Y-89540140D01*
X119526917Y-89528061D01*
X119539891Y-89528165D01*
X119552049Y-89523631D01*
X119574159Y-89528441D01*
X119596784Y-89528623D01*
X119615379Y-89537408D01*
X119620321Y-89538483D01*
X119628770Y-89543542D01*
X119629289Y-89543881D01*
X119659714Y-89564211D01*
X119659748Y-89564225D01*
X119659784Y-89564249D01*
X119717054Y-89587962D01*
X119773548Y-89611363D01*
X119773558Y-89611365D01*
X119773618Y-89611383D01*
X119773625Y-89611386D01*
X119834722Y-89623530D01*
X119894394Y-89635400D01*
X119894401Y-89635400D01*
X119894464Y-89635406D01*
X119894472Y-89635408D01*
X119894478Y-89635407D01*
X119894479Y-89635408D01*
X119956079Y-89635400D01*
X123479161Y-89635400D01*
X123549569Y-89635404D01*
X123549589Y-89635400D01*
X123549606Y-89635400D01*
X123607566Y-89623871D01*
X123667251Y-89612002D01*
X123669890Y-89611552D01*
X123670403Y-89611376D01*
X123670415Y-89611374D01*
X123670425Y-89611368D01*
X123670435Y-89611365D01*
X123670452Y-89611363D01*
X123670497Y-89611344D01*
X123671942Y-89610850D01*
X123674428Y-89609716D01*
X123723691Y-89589310D01*
X123723690Y-89589310D01*
X123723696Y-89589308D01*
X123784252Y-89564230D01*
X123784256Y-89564226D01*
X123784266Y-89564223D01*
X123784281Y-89564213D01*
X123784286Y-89564211D01*
X123839150Y-89527552D01*
X123886704Y-89495781D01*
X123886707Y-89495777D01*
X123886980Y-89495595D01*
X123888724Y-89493767D01*
X123890560Y-89491930D01*
X123936116Y-89446373D01*
X123936122Y-89446370D01*
X123936121Y-89446369D01*
X124020437Y-89362063D01*
X127184716Y-86198169D01*
X127184733Y-86198158D01*
X127230651Y-86152239D01*
X127270463Y-86112431D01*
X127271756Y-86111183D01*
X127271853Y-86111037D01*
X127271858Y-86111033D01*
X127311792Y-86051266D01*
X127311795Y-86051264D01*
X127339511Y-86009790D01*
X127339515Y-86009784D01*
X127340389Y-86008475D01*
X127341040Y-86006825D01*
X127369015Y-85939289D01*
X127386700Y-85896601D01*
X127387388Y-85895014D01*
X127387447Y-85894795D01*
X127387451Y-85894788D01*
X127387452Y-85894780D01*
X127387455Y-85894769D01*
X127387463Y-85894752D01*
X127387471Y-85894710D01*
X127387705Y-85893858D01*
X127388097Y-85891563D01*
X127400984Y-85826772D01*
X127400986Y-85826763D01*
X127403977Y-85811726D01*
X127411496Y-85773945D01*
X127411496Y-85773937D01*
X127411497Y-85773930D01*
X127411498Y-85773912D01*
X127411500Y-85773906D01*
X127411500Y-85707670D01*
X127411504Y-85650732D01*
X127411500Y-85650711D01*
X127411500Y-71231445D01*
X127431185Y-71164406D01*
X127447813Y-71143769D01*
X129927811Y-68663689D01*
X129989133Y-68630205D01*
X129991163Y-68629782D01*
X130102497Y-68607637D01*
X130248179Y-68547294D01*
X130379289Y-68459689D01*
X130490789Y-68348189D01*
X130578394Y-68217079D01*
X130638737Y-68071397D01*
X130669500Y-67916742D01*
X130669500Y-67759058D01*
X130669500Y-67759055D01*
X130669499Y-67759053D01*
X130669372Y-67758414D01*
X130638737Y-67604403D01*
X130602042Y-67515813D01*
X130578397Y-67458727D01*
X130578390Y-67458714D01*
X130514398Y-67362943D01*
X130493520Y-67296265D01*
X130493500Y-67294052D01*
X130493500Y-50777532D01*
X130493513Y-50715925D01*
X130493500Y-50715859D01*
X130493500Y-50715794D01*
X130481264Y-50654280D01*
X130469501Y-50595076D01*
X130469498Y-50595069D01*
X130469492Y-50595038D01*
X130469470Y-50594966D01*
X130462258Y-50577555D01*
X130445552Y-50537222D01*
X130422374Y-50481231D01*
X130422371Y-50481227D01*
X130422369Y-50481221D01*
X130422314Y-50481118D01*
X130387779Y-50429434D01*
X130387764Y-50429412D01*
X130383623Y-50423212D01*
X130353941Y-50378769D01*
X130353939Y-50378767D01*
X130353935Y-50378761D01*
X130353855Y-50378663D01*
X130308970Y-50333779D01*
X130308956Y-50333754D01*
X130308951Y-50333760D01*
X128700353Y-48724482D01*
X128695893Y-48720020D01*
X128695858Y-48719967D01*
X128650391Y-48674500D01*
X128608836Y-48632927D01*
X128608835Y-48632926D01*
X128608829Y-48632920D01*
X128608738Y-48632845D01*
X128588173Y-48619104D01*
X128556246Y-48597771D01*
X128556229Y-48597750D01*
X128556225Y-48597757D01*
X128506405Y-48564452D01*
X128506295Y-48564393D01*
X128506287Y-48564389D01*
X128506286Y-48564389D01*
X128448775Y-48540566D01*
X128448453Y-48540433D01*
X128392578Y-48517276D01*
X128392516Y-48517263D01*
X128392452Y-48517237D01*
X128331118Y-48505037D01*
X128330993Y-48505012D01*
X128271739Y-48493213D01*
X128271671Y-48493212D01*
X128271606Y-48493200D01*
X128271247Y-48493200D01*
X128210132Y-48493200D01*
X128148525Y-48493187D01*
X128148460Y-48493200D01*
X125506887Y-48493200D01*
X125439848Y-48473515D01*
X125394093Y-48420711D01*
X125384149Y-48351553D01*
X125389821Y-48330871D01*
X125389062Y-48330625D01*
X125390566Y-48325995D01*
X125390568Y-48325992D01*
X125463553Y-48101368D01*
X125466733Y-48081291D01*
X125500500Y-47868097D01*
X125500500Y-47631902D01*
X125463553Y-47398631D01*
X125420624Y-47266510D01*
X125390568Y-47174008D01*
X125390566Y-47174005D01*
X125390566Y-47174003D01*
X125334002Y-47062991D01*
X125283343Y-46963567D01*
X125144517Y-46772490D01*
X124977510Y-46605483D01*
X124786433Y-46466657D01*
X124575996Y-46359433D01*
X124351368Y-46286446D01*
X124118097Y-46249500D01*
X124118092Y-46249500D01*
X123881908Y-46249500D01*
X123881903Y-46249500D01*
X123648631Y-46286446D01*
X123424003Y-46359433D01*
X123213566Y-46466657D01*
X123167674Y-46500000D01*
X123022490Y-46605483D01*
X123022488Y-46605485D01*
X123022487Y-46605485D01*
X122855485Y-46772487D01*
X122855485Y-46772488D01*
X122855483Y-46772490D01*
X122842324Y-46790602D01*
X122716657Y-46963566D01*
X122609433Y-47174003D01*
X122536446Y-47398631D01*
X122499500Y-47631902D01*
X122499500Y-47868097D01*
X122536446Y-48101368D01*
X122564008Y-48186192D01*
X122609432Y-48325992D01*
X122609433Y-48325995D01*
X122610938Y-48330625D01*
X122608709Y-48331349D01*
X122615140Y-48391232D01*
X122583857Y-48453708D01*
X122523764Y-48489352D01*
X122493113Y-48493200D01*
X121006343Y-48493200D01*
X120939304Y-48473515D01*
X120893549Y-48420711D01*
X120883605Y-48351553D01*
X120889341Y-48330675D01*
X120888598Y-48330434D01*
X120963065Y-48101247D01*
X121000000Y-47868052D01*
X121000000Y-47631947D01*
X120963065Y-47398752D01*
X120890102Y-47174197D01*
X120782914Y-46963828D01*
X120722658Y-46880894D01*
X120722658Y-46880893D01*
X120023787Y-47579764D01*
X120012518Y-47537708D01*
X119940110Y-47412292D01*
X119837708Y-47309890D01*
X119712292Y-47237482D01*
X119670234Y-47226212D01*
X120369105Y-46527340D01*
X120369104Y-46527338D01*
X120286174Y-46467087D01*
X120075802Y-46359897D01*
X119851247Y-46286934D01*
X119851248Y-46286934D01*
X119618052Y-46250000D01*
X119381948Y-46250000D01*
X119148752Y-46286934D01*
X118924197Y-46359897D01*
X118713830Y-46467084D01*
X118630894Y-46527340D01*
X119329766Y-47226212D01*
X119287708Y-47237482D01*
X119162292Y-47309890D01*
X119059890Y-47412292D01*
X118987482Y-47537708D01*
X118976212Y-47579766D01*
X118277340Y-46880894D01*
X118217084Y-46963830D01*
X118109897Y-47174197D01*
X118036934Y-47398752D01*
X118000000Y-47631947D01*
X118000000Y-47868052D01*
X118036934Y-48101247D01*
X118111402Y-48330434D01*
X118109207Y-48331146D01*
X118115705Y-48391116D01*
X118084481Y-48453621D01*
X118024422Y-48489323D01*
X117993657Y-48493200D01*
X111785877Y-48493200D01*
X111718838Y-48473515D01*
X111673083Y-48420711D01*
X111663139Y-48351553D01*
X111692164Y-48287997D01*
X111738425Y-48254639D01*
X111903671Y-48186192D01*
X111903684Y-48186185D01*
X112067462Y-48076751D01*
X112067466Y-48076748D01*
X112206748Y-47937466D01*
X112206751Y-47937462D01*
X112316185Y-47773684D01*
X112316192Y-47773671D01*
X112391569Y-47591693D01*
X112391572Y-47591681D01*
X112429999Y-47398495D01*
X112430000Y-47398492D01*
X112430000Y-47000000D01*
X111730000Y-47000000D01*
X111730000Y-46500000D01*
X112430000Y-46500000D01*
X112430000Y-46101508D01*
X112429999Y-46101504D01*
X112391572Y-45908318D01*
X112391569Y-45908306D01*
X112316192Y-45726328D01*
X112316185Y-45726315D01*
X112206751Y-45562537D01*
X112206748Y-45562533D01*
X112067466Y-45423251D01*
X112067462Y-45423248D01*
X111924319Y-45327602D01*
X111879514Y-45273990D01*
X111870807Y-45204665D01*
X111900962Y-45141637D01*
X111960405Y-45104918D01*
X111993210Y-45100500D01*
X114368996Y-45100500D01*
X114476180Y-45079179D01*
X114504328Y-45073580D01*
X114568069Y-45047177D01*
X114631807Y-45020777D01*
X114631808Y-45020776D01*
X114631811Y-45020775D01*
X114746543Y-44944114D01*
X115344114Y-44346543D01*
X115420775Y-44231811D01*
X115431797Y-44205203D01*
X115473578Y-44104332D01*
X115473580Y-44104328D01*
X115490191Y-44020821D01*
X115494272Y-44000307D01*
X115526657Y-43938396D01*
X115587373Y-43903822D01*
X115615889Y-43900499D01*
X116747871Y-43900499D01*
X116747872Y-43900499D01*
X116807483Y-43894091D01*
X116942331Y-43843796D01*
X117057546Y-43757546D01*
X117143796Y-43642331D01*
X117194091Y-43507483D01*
X117200500Y-43447873D01*
X117200499Y-41894663D01*
X117200499Y-41127075D01*
X117200499Y-40352129D01*
X117200498Y-40352123D01*
X117200497Y-40352116D01*
X117194091Y-40292517D01*
X117190811Y-40283724D01*
X117147587Y-40167833D01*
X117142603Y-40098141D01*
X117176088Y-40036818D01*
X117237411Y-40003334D01*
X117263769Y-40000500D01*
X118552692Y-40000500D01*
X118619731Y-40020185D01*
G37*
%TD.AperFunction*%
%TA.AperFunction,Conductor*%
G36*
X106454648Y-92423885D02*
G01*
X106475278Y-92440506D01*
X107024200Y-92989271D01*
X107654816Y-93619707D01*
X107700267Y-93665158D01*
X107700306Y-93665184D01*
X107700336Y-93665214D01*
X107751835Y-93699615D01*
X107751846Y-93699627D01*
X107751849Y-93699624D01*
X107802752Y-93733637D01*
X107802792Y-93733653D01*
X107802793Y-93733654D01*
X107861569Y-93757989D01*
X107861582Y-93758000D01*
X107861584Y-93757996D01*
X107916548Y-93780763D01*
X107916549Y-93780763D01*
X107916556Y-93780766D01*
X107916591Y-93780780D01*
X107916631Y-93780788D01*
X107916634Y-93780789D01*
X107978413Y-93793068D01*
X108037394Y-93804800D01*
X108037400Y-93804800D01*
X108037475Y-93804807D01*
X108037482Y-93804809D01*
X108037487Y-93804808D01*
X108037488Y-93804809D01*
X108099089Y-93804800D01*
X113012467Y-93804800D01*
X113012543Y-93804815D01*
X113076274Y-93804800D01*
X113135606Y-93804800D01*
X113135608Y-93804800D01*
X113135743Y-93804786D01*
X113135756Y-93804786D01*
X113196713Y-93792645D01*
X113256452Y-93780763D01*
X113256524Y-93780733D01*
X113256595Y-93780719D01*
X113313310Y-93757210D01*
X113313339Y-93757207D01*
X113313336Y-93757200D01*
X113319175Y-93754781D01*
X113370286Y-93733611D01*
X113370291Y-93733607D01*
X113370321Y-93733595D01*
X113370391Y-93733557D01*
X113370410Y-93733544D01*
X113370418Y-93733541D01*
X113421226Y-93699573D01*
X113472733Y-93665158D01*
X113472736Y-93665154D01*
X113472746Y-93665148D01*
X113472828Y-93665081D01*
X113472843Y-93665065D01*
X113472849Y-93665062D01*
X113514755Y-93623135D01*
X113559858Y-93578033D01*
X113559859Y-93578030D01*
X113564125Y-93573765D01*
X113564343Y-93573523D01*
X114119800Y-93017801D01*
X114181113Y-92984303D01*
X114250806Y-92989271D01*
X114306749Y-93031129D01*
X114331182Y-93096587D01*
X114331500Y-93105463D01*
X114331500Y-96236415D01*
X114331494Y-96236446D01*
X114331500Y-96303653D01*
X114331500Y-96359616D01*
X114331505Y-96359665D01*
X114343206Y-96418460D01*
X114343207Y-96418471D01*
X114343208Y-96418471D01*
X114355537Y-96480454D01*
X114355548Y-96480491D01*
X114378558Y-96536031D01*
X114378560Y-96536037D01*
X114402696Y-96594304D01*
X114402700Y-96594312D01*
X114402785Y-96594439D01*
X114402785Y-96594440D01*
X114402787Y-96594443D01*
X114412718Y-96609304D01*
X114433600Y-96675980D01*
X114415119Y-96743361D01*
X114363143Y-96790054D01*
X114309620Y-96802200D01*
X108043822Y-96802200D01*
X107976783Y-96782515D01*
X107931028Y-96729711D01*
X107921084Y-96660553D01*
X107950109Y-96596997D01*
X107956141Y-96590519D01*
X108021315Y-96525345D01*
X108133716Y-96412944D01*
X108133720Y-96412942D01*
X108221542Y-96325120D01*
X108290542Y-96221854D01*
X108338071Y-96107110D01*
X108362300Y-95985299D01*
X108362300Y-95250501D01*
X108338071Y-95128690D01*
X108290542Y-95013946D01*
X108290540Y-95013943D01*
X108290538Y-95013939D01*
X108221542Y-94910680D01*
X108221539Y-94910676D01*
X108130624Y-94819761D01*
X108130593Y-94819732D01*
X106602782Y-93291921D01*
X106602762Y-93291899D01*
X106510623Y-93199760D01*
X106510619Y-93199757D01*
X106407360Y-93130761D01*
X106407350Y-93130756D01*
X106292610Y-93083229D01*
X106292602Y-93083227D01*
X106170804Y-93059000D01*
X106170800Y-93059000D01*
X106170799Y-93059000D01*
X98393667Y-93059000D01*
X98326628Y-93039315D01*
X98324776Y-93038102D01*
X98237984Y-92980109D01*
X98237972Y-92980102D01*
X98092301Y-92919764D01*
X98092289Y-92919761D01*
X97937645Y-92889000D01*
X97937642Y-92889000D01*
X97779958Y-92889000D01*
X97779955Y-92889000D01*
X97625310Y-92919761D01*
X97625298Y-92919764D01*
X97479627Y-92980102D01*
X97479614Y-92980109D01*
X97348511Y-93067710D01*
X97348507Y-93067713D01*
X97237013Y-93179207D01*
X97237010Y-93179211D01*
X97149409Y-93310314D01*
X97149402Y-93310327D01*
X97089064Y-93455998D01*
X97089061Y-93456010D01*
X97058300Y-93610653D01*
X97058300Y-93768346D01*
X97089061Y-93922989D01*
X97089064Y-93923001D01*
X97149402Y-94068672D01*
X97149409Y-94068685D01*
X97237010Y-94199788D01*
X97237013Y-94199792D01*
X97348507Y-94311286D01*
X97348511Y-94311289D01*
X97479614Y-94398890D01*
X97479627Y-94398897D01*
X97625298Y-94459235D01*
X97625303Y-94459237D01*
X97779953Y-94489999D01*
X97779956Y-94490000D01*
X97779958Y-94490000D01*
X97937644Y-94490000D01*
X97937645Y-94489999D01*
X98092297Y-94459237D01*
X98237979Y-94398894D01*
X98324776Y-94340898D01*
X98391453Y-94320020D01*
X98393667Y-94320000D01*
X105796177Y-94320000D01*
X105863216Y-94339685D01*
X105883858Y-94356319D01*
X107057758Y-95530219D01*
X107091243Y-95591542D01*
X107086259Y-95661234D01*
X107057758Y-95705581D01*
X106653958Y-96109381D01*
X106592635Y-96142866D01*
X106566277Y-96145700D01*
X102834898Y-96145700D01*
X102814684Y-96149720D01*
X102814683Y-96149719D01*
X102713095Y-96169927D01*
X102713089Y-96169929D01*
X102598349Y-96217456D01*
X102598339Y-96217461D01*
X102495081Y-96286456D01*
X102472475Y-96309063D01*
X102407258Y-96374280D01*
X102407255Y-96374283D01*
X99911377Y-98870160D01*
X99850054Y-98903645D01*
X99847888Y-98904096D01*
X99745508Y-98924461D01*
X99745498Y-98924464D01*
X99599827Y-98984802D01*
X99599814Y-98984809D01*
X99468711Y-99072410D01*
X99468707Y-99072413D01*
X99357213Y-99183907D01*
X99357210Y-99183911D01*
X99269609Y-99315014D01*
X99269602Y-99315027D01*
X99209264Y-99460698D01*
X99209261Y-99460710D01*
X99178500Y-99615353D01*
X99178500Y-99773046D01*
X99200749Y-99884897D01*
X99209263Y-99927697D01*
X99228337Y-99973747D01*
X99240474Y-100003047D01*
X99247943Y-100072517D01*
X99216668Y-100134996D01*
X99156579Y-100170648D01*
X99125913Y-100174500D01*
X98326752Y-100174500D01*
X98259713Y-100154815D01*
X98239071Y-100138181D01*
X97886293Y-99785403D01*
X97852808Y-99724080D01*
X97852387Y-99722064D01*
X97830237Y-99610703D01*
X97791221Y-99516510D01*
X97769897Y-99465027D01*
X97769890Y-99465014D01*
X97682289Y-99333911D01*
X97682286Y-99333907D01*
X97570792Y-99222413D01*
X97570788Y-99222410D01*
X97439685Y-99134809D01*
X97439672Y-99134802D01*
X97294001Y-99074464D01*
X97293989Y-99074461D01*
X97139345Y-99043700D01*
X97139342Y-99043700D01*
X96981658Y-99043700D01*
X96981655Y-99043700D01*
X96827010Y-99074461D01*
X96826998Y-99074464D01*
X96681327Y-99134802D01*
X96681309Y-99134812D01*
X96547583Y-99224165D01*
X96517284Y-99233652D01*
X96487534Y-99244747D01*
X96484181Y-99244017D01*
X96480906Y-99245043D01*
X96450291Y-99236644D01*
X96419261Y-99229893D01*
X96415547Y-99227112D01*
X96413526Y-99226558D01*
X96391008Y-99208740D01*
X96333615Y-99151342D01*
X96300133Y-99090018D01*
X96297300Y-99063665D01*
X96297300Y-96646193D01*
X96297299Y-96646189D01*
X96273263Y-96525348D01*
X96226111Y-96411514D01*
X96226110Y-96411513D01*
X96226107Y-96411507D01*
X96157658Y-96309067D01*
X96157655Y-96309063D01*
X96067437Y-96218845D01*
X96067406Y-96218816D01*
X93139793Y-93291203D01*
X93106308Y-93229880D01*
X93105887Y-93227864D01*
X93083737Y-93116503D01*
X93051765Y-93039315D01*
X93023397Y-92970827D01*
X93023390Y-92970814D01*
X92935789Y-92839711D01*
X92935786Y-92839707D01*
X92824292Y-92728213D01*
X92824288Y-92728210D01*
X92693185Y-92640609D01*
X92687809Y-92637736D01*
X92689115Y-92635290D01*
X92643985Y-92598928D01*
X92621914Y-92532636D01*
X92639188Y-92464935D01*
X92690321Y-92417321D01*
X92745835Y-92404200D01*
X106387609Y-92404200D01*
X106454648Y-92423885D01*
G37*
%TD.AperFunction*%
%TA.AperFunction,Conductor*%
G36*
X89119731Y-40020185D02*
G01*
X89140373Y-40036819D01*
X89829766Y-40726212D01*
X89787708Y-40737482D01*
X89662292Y-40809890D01*
X89559890Y-40912292D01*
X89487482Y-41037708D01*
X89476212Y-41079766D01*
X88777340Y-40380894D01*
X88717084Y-40463830D01*
X88609897Y-40674197D01*
X88536934Y-40898752D01*
X88500000Y-41131947D01*
X88500000Y-41368052D01*
X88536934Y-41601247D01*
X88609897Y-41825802D01*
X88717087Y-42036174D01*
X88777338Y-42119104D01*
X88777340Y-42119105D01*
X89476212Y-41420233D01*
X89487482Y-41462292D01*
X89559890Y-41587708D01*
X89662292Y-41690110D01*
X89787708Y-41762518D01*
X89829765Y-41773787D01*
X89130893Y-42472658D01*
X89213828Y-42532914D01*
X89424197Y-42640102D01*
X89648752Y-42713065D01*
X89648751Y-42713065D01*
X89881948Y-42750000D01*
X90118052Y-42750000D01*
X90351247Y-42713065D01*
X90575802Y-42640102D01*
X90786163Y-42532918D01*
X90786169Y-42532914D01*
X90869104Y-42472658D01*
X90869105Y-42472658D01*
X90170233Y-41773787D01*
X90212292Y-41762518D01*
X90337708Y-41690110D01*
X90440110Y-41587708D01*
X90512518Y-41462292D01*
X90523787Y-41420234D01*
X91222658Y-42119105D01*
X91222658Y-42119104D01*
X91282914Y-42036169D01*
X91282918Y-42036163D01*
X91390102Y-41825802D01*
X91463065Y-41601247D01*
X91500000Y-41368052D01*
X91500000Y-41131947D01*
X91463065Y-40898752D01*
X91390102Y-40674197D01*
X91282914Y-40463828D01*
X91222658Y-40380894D01*
X91222658Y-40380893D01*
X90523787Y-41079765D01*
X90512518Y-41037708D01*
X90440110Y-40912292D01*
X90337708Y-40809890D01*
X90212292Y-40737482D01*
X90170234Y-40726212D01*
X90859627Y-40036819D01*
X90920950Y-40003334D01*
X90947308Y-40000500D01*
X93328111Y-40000500D01*
X93395150Y-40020185D01*
X93440905Y-40072989D01*
X93450849Y-40142147D01*
X93421824Y-40205703D01*
X93415792Y-40212181D01*
X93355485Y-40272487D01*
X93355485Y-40272488D01*
X93355483Y-40272490D01*
X93297631Y-40352116D01*
X93216657Y-40463566D01*
X93109433Y-40674003D01*
X93036446Y-40898631D01*
X92999500Y-41131902D01*
X92999500Y-41368097D01*
X93036446Y-41601368D01*
X93109433Y-41825996D01*
X93199426Y-42002615D01*
X93216657Y-42036433D01*
X93355483Y-42227510D01*
X93522490Y-42394517D01*
X93713567Y-42533343D01*
X93812991Y-42584002D01*
X93924003Y-42640566D01*
X93924005Y-42640566D01*
X93924008Y-42640568D01*
X94044412Y-42679689D01*
X94148631Y-42713553D01*
X94381903Y-42750500D01*
X94381908Y-42750500D01*
X94618097Y-42750500D01*
X94851368Y-42713553D01*
X94852870Y-42713065D01*
X95075992Y-42640568D01*
X95286433Y-42533343D01*
X95477510Y-42394517D01*
X95644517Y-42227510D01*
X95783343Y-42036433D01*
X95890568Y-41825992D01*
X95963553Y-41601368D01*
X95974455Y-41532537D01*
X96000500Y-41368097D01*
X96000500Y-41131902D01*
X95963553Y-40898631D01*
X95899013Y-40700000D01*
X95890568Y-40674008D01*
X95890566Y-40674005D01*
X95890566Y-40674003D01*
X95783477Y-40463830D01*
X95783343Y-40463567D01*
X95644517Y-40272490D01*
X95584208Y-40212181D01*
X95550723Y-40150858D01*
X95555707Y-40081166D01*
X95597579Y-40025233D01*
X95663043Y-40000816D01*
X95671889Y-40000500D01*
X97001623Y-40000500D01*
X97068662Y-40020185D01*
X97114417Y-40072989D01*
X97124361Y-40142147D01*
X97100889Y-40198812D01*
X97056647Y-40257910D01*
X97056645Y-40257913D01*
X97006403Y-40392620D01*
X97006401Y-40392627D01*
X97000000Y-40452155D01*
X97000000Y-41750000D01*
X101000000Y-41750000D01*
X101000000Y-40452172D01*
X100999999Y-40452155D01*
X100993598Y-40392627D01*
X100993596Y-40392620D01*
X100943354Y-40257913D01*
X100943352Y-40257910D01*
X100899111Y-40198812D01*
X100874693Y-40133348D01*
X100889544Y-40065074D01*
X100938949Y-40015669D01*
X100998377Y-40000500D01*
X113136231Y-40000500D01*
X113203270Y-40020185D01*
X113249025Y-40072989D01*
X113258969Y-40142147D01*
X113252413Y-40167833D01*
X113205908Y-40292517D01*
X113199501Y-40352116D01*
X113199501Y-40352123D01*
X113199500Y-40352135D01*
X113199500Y-43447870D01*
X113199501Y-43447876D01*
X113205909Y-43507485D01*
X113215115Y-43532168D01*
X113220099Y-43601860D01*
X113186613Y-43663182D01*
X113125289Y-43696667D01*
X113098933Y-43699500D01*
X112377242Y-43699500D01*
X112310203Y-43679815D01*
X112264448Y-43627011D01*
X112254504Y-43557853D01*
X112274140Y-43506609D01*
X112316185Y-43443683D01*
X112316192Y-43443671D01*
X112391569Y-43261693D01*
X112391572Y-43261681D01*
X112429999Y-43068495D01*
X112430000Y-43068492D01*
X112430000Y-42820000D01*
X111730000Y-42820000D01*
X111730000Y-42320000D01*
X112430000Y-42320000D01*
X112430000Y-42071508D01*
X112429999Y-42071504D01*
X112391572Y-41878318D01*
X112391569Y-41878306D01*
X112316192Y-41696328D01*
X112316185Y-41696315D01*
X112206751Y-41532537D01*
X112206748Y-41532533D01*
X112067466Y-41393251D01*
X112067462Y-41393248D01*
X111903684Y-41283814D01*
X111903671Y-41283807D01*
X111721691Y-41208429D01*
X111721683Y-41208427D01*
X111680000Y-41200135D01*
X111680000Y-42003011D01*
X111670060Y-41985795D01*
X111614205Y-41929940D01*
X111545796Y-41890444D01*
X111469496Y-41870000D01*
X111390504Y-41870000D01*
X111314204Y-41890444D01*
X111245795Y-41929940D01*
X111189940Y-41985795D01*
X111180000Y-42003011D01*
X111180000Y-41200136D01*
X111179999Y-41200135D01*
X111138316Y-41208427D01*
X111138308Y-41208429D01*
X110956328Y-41283807D01*
X110956315Y-41283814D01*
X110792537Y-41393248D01*
X110792533Y-41393251D01*
X110653251Y-41532533D01*
X110653248Y-41532537D01*
X110543814Y-41696315D01*
X110543807Y-41696328D01*
X110468430Y-41878306D01*
X110468427Y-41878318D01*
X110430000Y-42071504D01*
X110430000Y-42320000D01*
X111130000Y-42320000D01*
X111130000Y-42820000D01*
X110430000Y-42820000D01*
X110430000Y-43068495D01*
X110468427Y-43261681D01*
X110468430Y-43261693D01*
X110543807Y-43443671D01*
X110543814Y-43443683D01*
X110585860Y-43506609D01*
X110588897Y-43516309D01*
X110595552Y-43523989D01*
X110599160Y-43549086D01*
X110606738Y-43573286D01*
X110604049Y-43583086D01*
X110605496Y-43593147D01*
X110594961Y-43616213D01*
X110588254Y-43640666D01*
X110580693Y-43647457D01*
X110576471Y-43656703D01*
X110555138Y-43670412D01*
X110536275Y-43687357D01*
X110524677Y-43689988D01*
X110517693Y-43694477D01*
X110482758Y-43699500D01*
X110325316Y-43699500D01*
X110277864Y-43690061D01*
X110133501Y-43630264D01*
X110133489Y-43630261D01*
X109978845Y-43599500D01*
X109978842Y-43599500D01*
X109821158Y-43599500D01*
X109821155Y-43599500D01*
X109666510Y-43630261D01*
X109666498Y-43630264D01*
X109520827Y-43690602D01*
X109520814Y-43690609D01*
X109389711Y-43778210D01*
X109389707Y-43778213D01*
X109278213Y-43889707D01*
X109278210Y-43889711D01*
X109190609Y-44020814D01*
X109190602Y-44020827D01*
X109130264Y-44166498D01*
X109130261Y-44166510D01*
X109099500Y-44321153D01*
X109099500Y-44478846D01*
X109130261Y-44633489D01*
X109130264Y-44633501D01*
X109190602Y-44779172D01*
X109190609Y-44779185D01*
X109278210Y-44910288D01*
X109278213Y-44910292D01*
X109389707Y-45021786D01*
X109389711Y-45021789D01*
X109520814Y-45109390D01*
X109520827Y-45109397D01*
X109666498Y-45169735D01*
X109666503Y-45169737D01*
X109821153Y-45200499D01*
X109821156Y-45200500D01*
X109821158Y-45200500D01*
X109978844Y-45200500D01*
X109978845Y-45200499D01*
X110133497Y-45169737D01*
X110208963Y-45138478D01*
X110277864Y-45109939D01*
X110325316Y-45100500D01*
X110866790Y-45100500D01*
X110933829Y-45120185D01*
X110979584Y-45172989D01*
X110989528Y-45242147D01*
X110960503Y-45305703D01*
X110935681Y-45327602D01*
X110792537Y-45423248D01*
X110792533Y-45423251D01*
X110653251Y-45562533D01*
X110653248Y-45562537D01*
X110543814Y-45726315D01*
X110543807Y-45726328D01*
X110468430Y-45908306D01*
X110468427Y-45908318D01*
X110430000Y-46101504D01*
X110430000Y-46500000D01*
X111130000Y-46500000D01*
X111130000Y-47000000D01*
X110430000Y-47000000D01*
X110430000Y-47398495D01*
X110468427Y-47591681D01*
X110468430Y-47591693D01*
X110543807Y-47773671D01*
X110543814Y-47773684D01*
X110653248Y-47937462D01*
X110653251Y-47937466D01*
X110792533Y-48076748D01*
X110792537Y-48076751D01*
X110956315Y-48186185D01*
X110956328Y-48186192D01*
X111121575Y-48254639D01*
X111175979Y-48298480D01*
X111198044Y-48364774D01*
X111180765Y-48432473D01*
X111129628Y-48480084D01*
X111074123Y-48493200D01*
X110357548Y-48493200D01*
X110290509Y-48473515D01*
X110269848Y-48456862D01*
X110078358Y-48265288D01*
X110078358Y-48265289D01*
X110073897Y-48260826D01*
X110073858Y-48260767D01*
X110028315Y-48215224D01*
X109999289Y-48186185D01*
X109986828Y-48173718D01*
X109986737Y-48173644D01*
X109934240Y-48138565D01*
X109934149Y-48138506D01*
X109934100Y-48138473D01*
X109884406Y-48105253D01*
X109884342Y-48105226D01*
X109884286Y-48105189D01*
X109826592Y-48081291D01*
X109826583Y-48081287D01*
X109824591Y-48080461D01*
X109770582Y-48058077D01*
X109770547Y-48058070D01*
X109770504Y-48058052D01*
X109770445Y-48058035D01*
X109710531Y-48046117D01*
X109710392Y-48046090D01*
X109649743Y-48034013D01*
X109649671Y-48034012D01*
X109649606Y-48034000D01*
X109649245Y-48034000D01*
X109590418Y-48034000D01*
X109526530Y-48033986D01*
X109526528Y-48033986D01*
X109520578Y-48033985D01*
X109520274Y-48034000D01*
X103734235Y-48034000D01*
X103667196Y-48014315D01*
X103621441Y-47961511D01*
X103611497Y-47892353D01*
X103631133Y-47841109D01*
X103676185Y-47773683D01*
X103676192Y-47773671D01*
X103751569Y-47591693D01*
X103751572Y-47591681D01*
X103789999Y-47398495D01*
X103790000Y-47398492D01*
X103790000Y-47000000D01*
X103090000Y-47000000D01*
X103090000Y-46500000D01*
X103790000Y-46500000D01*
X103790000Y-46101508D01*
X103789999Y-46101504D01*
X103751572Y-45908318D01*
X103751569Y-45908306D01*
X103676192Y-45726328D01*
X103676185Y-45726315D01*
X103566751Y-45562537D01*
X103566748Y-45562533D01*
X103516396Y-45512181D01*
X103505783Y-45492744D01*
X103491283Y-45476011D01*
X103489366Y-45462679D01*
X103482911Y-45450858D01*
X103484490Y-45428771D01*
X103481339Y-45406853D01*
X103486934Y-45394601D01*
X103487895Y-45381166D01*
X103501165Y-45363439D01*
X103510364Y-45343297D01*
X103521695Y-45336014D01*
X103529767Y-45325233D01*
X103550512Y-45317495D01*
X103569142Y-45305523D01*
X103591060Y-45302371D01*
X103595231Y-45300816D01*
X103604077Y-45300500D01*
X103620234Y-45300500D01*
X103687273Y-45320185D01*
X103689125Y-45321398D01*
X103820814Y-45409390D01*
X103820827Y-45409397D01*
X103949463Y-45462679D01*
X103966503Y-45469737D01*
X104121153Y-45500499D01*
X104121156Y-45500500D01*
X104121158Y-45500500D01*
X104278844Y-45500500D01*
X104278845Y-45500499D01*
X104433497Y-45469737D01*
X104579179Y-45409394D01*
X104710289Y-45321789D01*
X104821789Y-45210289D01*
X104909394Y-45079179D01*
X104969737Y-44933497D01*
X105000500Y-44778842D01*
X105000500Y-44621158D01*
X105000500Y-44621155D01*
X105000499Y-44621153D01*
X104969738Y-44466510D01*
X104969737Y-44466503D01*
X104969735Y-44466498D01*
X104909397Y-44320827D01*
X104909390Y-44320814D01*
X104821789Y-44189711D01*
X104821786Y-44189707D01*
X104710292Y-44078213D01*
X104710288Y-44078210D01*
X104579185Y-43990609D01*
X104579172Y-43990602D01*
X104433501Y-43930264D01*
X104433489Y-43930261D01*
X104278845Y-43899500D01*
X104278842Y-43899500D01*
X104121158Y-43899500D01*
X104121155Y-43899500D01*
X103966510Y-43930261D01*
X103966498Y-43930264D01*
X103820827Y-43990602D01*
X103820814Y-43990609D01*
X103689125Y-44078602D01*
X103622447Y-44099480D01*
X103620234Y-44099500D01*
X103299664Y-44099500D01*
X103232625Y-44079815D01*
X103186870Y-44027011D01*
X103176926Y-43957853D01*
X103205951Y-43894297D01*
X103252211Y-43860939D01*
X103263674Y-43856190D01*
X103263684Y-43856185D01*
X103427462Y-43746751D01*
X103427466Y-43746748D01*
X103566748Y-43607466D01*
X103566751Y-43607462D01*
X103676185Y-43443684D01*
X103676192Y-43443671D01*
X103751569Y-43261693D01*
X103751572Y-43261681D01*
X103789999Y-43068495D01*
X103790000Y-43068492D01*
X103790000Y-42820000D01*
X103090000Y-42820000D01*
X103090000Y-42320000D01*
X103790000Y-42320000D01*
X103790000Y-42071508D01*
X103789999Y-42071504D01*
X103751572Y-41878318D01*
X103751569Y-41878306D01*
X103676192Y-41696328D01*
X103676185Y-41696315D01*
X103566751Y-41532537D01*
X103566748Y-41532533D01*
X103427466Y-41393251D01*
X103427462Y-41393248D01*
X103263684Y-41283814D01*
X103263671Y-41283807D01*
X103081691Y-41208429D01*
X103081683Y-41208427D01*
X103040000Y-41200135D01*
X103040000Y-42003011D01*
X103030060Y-41985795D01*
X102974205Y-41929940D01*
X102905796Y-41890444D01*
X102829496Y-41870000D01*
X102750504Y-41870000D01*
X102674204Y-41890444D01*
X102605795Y-41929940D01*
X102549940Y-41985795D01*
X102540000Y-42003011D01*
X102540000Y-41200136D01*
X102539999Y-41200135D01*
X102498316Y-41208427D01*
X102498308Y-41208429D01*
X102316328Y-41283807D01*
X102316315Y-41283814D01*
X102152537Y-41393248D01*
X102152533Y-41393251D01*
X102013251Y-41532533D01*
X102013248Y-41532537D01*
X101903814Y-41696315D01*
X101903807Y-41696328D01*
X101828430Y-41878306D01*
X101828427Y-41878318D01*
X101790000Y-42071504D01*
X101790000Y-42320000D01*
X102490000Y-42320000D01*
X102490000Y-42820000D01*
X101790000Y-42820000D01*
X101790000Y-43068495D01*
X101828427Y-43261681D01*
X101828430Y-43261693D01*
X101903807Y-43443671D01*
X101903814Y-43443684D01*
X102013248Y-43607462D01*
X102013251Y-43607466D01*
X102152533Y-43746748D01*
X102152537Y-43746751D01*
X102316315Y-43856185D01*
X102316325Y-43856190D01*
X102327789Y-43860939D01*
X102382192Y-43904780D01*
X102404257Y-43971074D01*
X102386978Y-44038774D01*
X102335840Y-44086384D01*
X102280336Y-44099500D01*
X100906060Y-44099500D01*
X100839021Y-44079815D01*
X100793266Y-44027011D01*
X100783322Y-43957853D01*
X100812347Y-43894297D01*
X100831748Y-43876234D01*
X100857190Y-43857187D01*
X100943350Y-43742093D01*
X100943354Y-43742086D01*
X100993596Y-43607379D01*
X100993598Y-43607372D01*
X100999999Y-43547844D01*
X101000000Y-43547827D01*
X101000000Y-42250000D01*
X99250000Y-42250000D01*
X99250000Y-44000000D01*
X99752024Y-44000000D01*
X99819063Y-44019685D01*
X99864818Y-44072489D01*
X99874762Y-44141647D01*
X99845737Y-44205203D01*
X99836862Y-44213564D01*
X99837031Y-44213733D01*
X97385339Y-46665425D01*
X97324016Y-46698910D01*
X97321850Y-46699361D01*
X97166508Y-46730261D01*
X97166498Y-46730264D01*
X97020827Y-46790602D01*
X97020814Y-46790609D01*
X96889711Y-46878210D01*
X96889707Y-46878213D01*
X96778213Y-46989707D01*
X96778210Y-46989711D01*
X96690609Y-47120814D01*
X96690602Y-47120827D01*
X96630264Y-47266498D01*
X96630261Y-47266510D01*
X96599500Y-47421153D01*
X96599500Y-47578846D01*
X96630261Y-47733489D01*
X96630264Y-47733501D01*
X96690602Y-47879172D01*
X96690609Y-47879185D01*
X96778210Y-48010288D01*
X96778213Y-48010292D01*
X96877640Y-48109719D01*
X96911125Y-48171042D01*
X96906141Y-48240734D01*
X96864269Y-48296667D01*
X96798805Y-48321084D01*
X96789959Y-48321400D01*
X96062732Y-48321400D01*
X95995693Y-48301715D01*
X95949938Y-48248911D01*
X95939994Y-48179753D01*
X95944801Y-48159081D01*
X95963553Y-48101368D01*
X96000500Y-47868097D01*
X96000500Y-47631902D01*
X95963553Y-47398631D01*
X95920624Y-47266510D01*
X95890568Y-47174008D01*
X95890566Y-47174005D01*
X95890566Y-47174003D01*
X95834002Y-47062991D01*
X95783343Y-46963567D01*
X95644517Y-46772490D01*
X95477510Y-46605483D01*
X95286433Y-46466657D01*
X95075996Y-46359433D01*
X94851368Y-46286446D01*
X94618097Y-46249500D01*
X94618092Y-46249500D01*
X94381908Y-46249500D01*
X94381903Y-46249500D01*
X94148631Y-46286446D01*
X93924003Y-46359433D01*
X93713566Y-46466657D01*
X93667674Y-46500000D01*
X93522490Y-46605483D01*
X93522488Y-46605485D01*
X93522487Y-46605485D01*
X93355485Y-46772487D01*
X93355485Y-46772488D01*
X93355483Y-46772490D01*
X93342324Y-46790602D01*
X93216657Y-46963566D01*
X93109433Y-47174003D01*
X93036446Y-47398631D01*
X92999500Y-47631902D01*
X92999500Y-47868097D01*
X93036446Y-48101368D01*
X93109433Y-48325996D01*
X93194635Y-48493212D01*
X93216657Y-48536433D01*
X93355483Y-48727510D01*
X93522490Y-48894517D01*
X93713567Y-49033343D01*
X93812991Y-49084002D01*
X93924003Y-49140566D01*
X93924005Y-49140566D01*
X93924008Y-49140568D01*
X93976852Y-49157738D01*
X94148631Y-49213553D01*
X94381903Y-49250500D01*
X94381908Y-49250500D01*
X94618097Y-49250500D01*
X94851368Y-49213553D01*
X94857782Y-49211469D01*
X94950881Y-49181218D01*
X94966093Y-49180784D01*
X94980352Y-49175466D01*
X95000304Y-49179806D01*
X95020720Y-49179223D01*
X95034808Y-49187312D01*
X95048625Y-49190318D01*
X95076879Y-49211469D01*
X95207916Y-49342506D01*
X95207945Y-49342537D01*
X95298163Y-49432755D01*
X95298167Y-49432758D01*
X95400607Y-49501207D01*
X95400613Y-49501210D01*
X95400614Y-49501211D01*
X95514448Y-49548363D01*
X95541994Y-49553842D01*
X95635291Y-49572399D01*
X95635292Y-49572400D01*
X95635293Y-49572400D01*
X95635294Y-49572400D01*
X102651427Y-49572400D01*
X102718466Y-49592085D01*
X102764221Y-49644889D01*
X102773044Y-49672208D01*
X102780261Y-49708491D01*
X102780264Y-49708501D01*
X102840602Y-49854172D01*
X102840609Y-49854185D01*
X102928210Y-49985288D01*
X102928213Y-49985292D01*
X103039707Y-50096786D01*
X103039711Y-50096789D01*
X103170814Y-50184390D01*
X103170827Y-50184397D01*
X103316498Y-50244735D01*
X103316503Y-50244737D01*
X103405351Y-50262410D01*
X103471153Y-50275499D01*
X103471156Y-50275500D01*
X103471158Y-50275500D01*
X103628843Y-50275500D01*
X103643428Y-50272598D01*
X103727505Y-50255874D01*
X103745668Y-50257499D01*
X103763581Y-50254062D01*
X103795111Y-50261923D01*
X103797094Y-50262101D01*
X103797873Y-50262410D01*
X103798466Y-50262648D01*
X103836256Y-50278301D01*
X103836435Y-50278336D01*
X103836608Y-50278408D01*
X103899533Y-50290887D01*
X103899599Y-50290921D01*
X103899603Y-50290901D01*
X103961931Y-50303300D01*
X103961937Y-50303300D01*
X103962290Y-50303334D01*
X103962297Y-50303336D01*
X104025453Y-50303300D01*
X104025489Y-50303300D01*
X107795065Y-50303300D01*
X107862104Y-50322985D01*
X107863909Y-50324166D01*
X107920821Y-50362194D01*
X107920823Y-50362195D01*
X107920827Y-50362197D01*
X108066498Y-50422535D01*
X108066503Y-50422537D01*
X108221153Y-50453299D01*
X108221156Y-50453300D01*
X108221158Y-50453300D01*
X108378844Y-50453300D01*
X108378845Y-50453299D01*
X108533497Y-50422537D01*
X108679179Y-50362194D01*
X108736044Y-50324197D01*
X108802721Y-50303320D01*
X108804935Y-50303300D01*
X109361167Y-50303300D01*
X109428206Y-50322985D01*
X109448853Y-50339623D01*
X111137766Y-52028707D01*
X111137765Y-52028707D01*
X111141717Y-52032660D01*
X111141724Y-52032669D01*
X111182455Y-52073400D01*
X111182456Y-52073402D01*
X111212552Y-52103500D01*
X111232305Y-52123255D01*
X111232309Y-52123257D01*
X111232332Y-52123277D01*
X111280584Y-52155518D01*
X111338844Y-52194450D01*
X111338850Y-52194454D01*
X111338859Y-52194458D01*
X111338868Y-52194461D01*
X111338873Y-52194465D01*
X111395496Y-52217919D01*
X111395500Y-52217922D01*
X111395501Y-52217921D01*
X111457224Y-52243491D01*
X111457235Y-52243493D01*
X111457243Y-52243495D01*
X111457256Y-52243501D01*
X111530910Y-52258152D01*
X111582898Y-52268496D01*
X111582910Y-52268496D01*
X111582931Y-52268500D01*
X111583160Y-52268500D01*
X111656120Y-52268500D01*
X111711036Y-52268503D01*
X111711051Y-52268500D01*
X112684500Y-52268500D01*
X112751539Y-52288185D01*
X112797294Y-52340989D01*
X112808500Y-52392500D01*
X112808500Y-53950489D01*
X112788815Y-54017528D01*
X112736011Y-54063283D01*
X112684520Y-54074489D01*
X112617897Y-54074500D01*
X108342350Y-54074500D01*
X108275311Y-54054815D01*
X108273459Y-54053602D01*
X108179184Y-53990609D01*
X108179172Y-53990602D01*
X108033501Y-53930264D01*
X108033489Y-53930261D01*
X107878845Y-53899500D01*
X107878842Y-53899500D01*
X107721158Y-53899500D01*
X107721155Y-53899500D01*
X107566510Y-53930261D01*
X107566498Y-53930264D01*
X107420827Y-53990602D01*
X107420814Y-53990609D01*
X107289711Y-54078210D01*
X107289707Y-54078213D01*
X107178213Y-54189707D01*
X107178210Y-54189711D01*
X107090609Y-54320814D01*
X107090602Y-54320827D01*
X107030264Y-54466498D01*
X107030261Y-54466510D01*
X106999500Y-54621153D01*
X106998903Y-54627218D01*
X106997028Y-54627033D01*
X106998238Y-54635447D01*
X106987259Y-54659487D01*
X106979815Y-54684839D01*
X106972974Y-54690766D01*
X106969213Y-54699003D01*
X106946978Y-54713292D01*
X106927011Y-54730594D01*
X106916496Y-54732881D01*
X106910435Y-54736777D01*
X106875500Y-54741800D01*
X106745935Y-54741800D01*
X106678896Y-54722115D01*
X106677090Y-54720933D01*
X106620179Y-54682906D01*
X106620172Y-54682902D01*
X106474501Y-54622564D01*
X106474489Y-54622561D01*
X106319845Y-54591800D01*
X106319842Y-54591800D01*
X106162158Y-54591800D01*
X106162155Y-54591800D01*
X106007510Y-54622561D01*
X106007498Y-54622564D01*
X105861827Y-54682902D01*
X105861820Y-54682906D01*
X105837730Y-54699003D01*
X105804955Y-54720902D01*
X105738279Y-54741780D01*
X105736065Y-54741800D01*
X90423328Y-54741800D01*
X90356289Y-54722115D01*
X90310534Y-54669311D01*
X90299970Y-54605196D01*
X90300500Y-54600009D01*
X90300499Y-53799992D01*
X90289999Y-53697203D01*
X90234814Y-53530666D01*
X90142712Y-53381344D01*
X90018656Y-53257288D01*
X89869334Y-53165186D01*
X89702797Y-53110001D01*
X89702795Y-53110000D01*
X89600010Y-53099500D01*
X88199998Y-53099500D01*
X88199981Y-53099501D01*
X88097203Y-53110000D01*
X88097200Y-53110001D01*
X87930668Y-53165185D01*
X87930663Y-53165187D01*
X87781342Y-53257289D01*
X87657289Y-53381342D01*
X87636968Y-53414288D01*
X87596168Y-53480437D01*
X87589901Y-53490597D01*
X87537953Y-53537321D01*
X87484362Y-53549500D01*
X83215638Y-53549500D01*
X83148599Y-53529815D01*
X83110099Y-53490597D01*
X83103850Y-53480465D01*
X83042712Y-53381344D01*
X82918656Y-53257288D01*
X82769334Y-53165186D01*
X82602797Y-53110001D01*
X82602795Y-53110000D01*
X82500010Y-53099500D01*
X81099998Y-53099500D01*
X81099981Y-53099501D01*
X80997203Y-53110000D01*
X80997200Y-53110001D01*
X80830668Y-53165185D01*
X80830663Y-53165187D01*
X80681342Y-53257289D01*
X80557289Y-53381342D01*
X80465187Y-53530663D01*
X80465185Y-53530668D01*
X80454137Y-53564009D01*
X80410001Y-53697203D01*
X80410001Y-53697204D01*
X80410000Y-53697204D01*
X80399500Y-53799983D01*
X80399500Y-54600001D01*
X80399501Y-54600019D01*
X80400978Y-54614470D01*
X80388208Y-54683163D01*
X80365301Y-54714752D01*
X80037724Y-55042329D01*
X79978971Y-55130262D01*
X79978970Y-55130262D01*
X79966536Y-55148870D01*
X79966534Y-55148874D01*
X79917499Y-55267255D01*
X79917497Y-55267261D01*
X79892500Y-55392928D01*
X79892500Y-55392931D01*
X79892500Y-56723869D01*
X79892500Y-56723871D01*
X79892499Y-56723871D01*
X79917497Y-56849538D01*
X79917499Y-56849544D01*
X79963895Y-56961555D01*
X79966535Y-56967927D01*
X80030373Y-57063469D01*
X80037726Y-57074473D01*
X80504412Y-57541159D01*
X80537897Y-57602482D01*
X80532913Y-57672174D01*
X80527216Y-57685134D01*
X80480129Y-57777549D01*
X80426597Y-57942302D01*
X80399500Y-58113388D01*
X80399500Y-58113389D01*
X80399500Y-58286611D01*
X80426598Y-58457701D01*
X80480127Y-58622445D01*
X80558768Y-58776788D01*
X80660586Y-58916928D01*
X80783072Y-59039414D01*
X80783078Y-59039418D01*
X80866023Y-59099683D01*
X80908689Y-59155013D01*
X80914667Y-59224626D01*
X80882061Y-59286421D01*
X80866023Y-59300317D01*
X80783078Y-59360581D01*
X80783069Y-59360588D01*
X80660588Y-59483069D01*
X80660588Y-59483070D01*
X80660586Y-59483072D01*
X80621011Y-59537542D01*
X80558768Y-59623211D01*
X80480128Y-59777552D01*
X80426597Y-59942302D01*
X80399500Y-60113389D01*
X80399500Y-60286610D01*
X80426597Y-60457697D01*
X80426597Y-60457699D01*
X80426598Y-60457701D01*
X80480127Y-60622445D01*
X80558768Y-60776788D01*
X80660586Y-60916928D01*
X80783072Y-61039414D01*
X80783078Y-61039418D01*
X80866023Y-61099683D01*
X80908689Y-61155013D01*
X80914667Y-61224626D01*
X80882061Y-61286421D01*
X80866023Y-61300317D01*
X80783078Y-61360581D01*
X80783069Y-61360588D01*
X80660588Y-61483069D01*
X80660588Y-61483070D01*
X80660586Y-61483072D01*
X80630957Y-61523853D01*
X80558768Y-61623211D01*
X80480128Y-61777552D01*
X80426597Y-61942302D01*
X80409268Y-62051715D01*
X80399500Y-62113389D01*
X80399500Y-62286611D01*
X80406295Y-62329511D01*
X80418435Y-62406166D01*
X80426598Y-62457701D01*
X80480127Y-62622445D01*
X80558768Y-62776788D01*
X80660586Y-62916928D01*
X80783072Y-63039414D01*
X80800257Y-63051899D01*
X80866023Y-63099683D01*
X80908689Y-63155013D01*
X80914667Y-63224626D01*
X80882061Y-63286421D01*
X80866023Y-63300317D01*
X80783078Y-63360581D01*
X80783069Y-63360588D01*
X80660588Y-63483069D01*
X80660588Y-63483070D01*
X80660586Y-63483072D01*
X80660582Y-63483078D01*
X80558768Y-63623211D01*
X80480128Y-63777552D01*
X80426597Y-63942302D01*
X80399500Y-64113389D01*
X80399500Y-64286610D01*
X80410144Y-64353818D01*
X80426598Y-64457701D01*
X80480127Y-64622445D01*
X80558768Y-64776788D01*
X80660586Y-64916928D01*
X80783072Y-65039414D01*
X80923212Y-65141232D01*
X81077555Y-65219873D01*
X81242299Y-65273402D01*
X81413389Y-65300500D01*
X81413390Y-65300500D01*
X82186610Y-65300500D01*
X82186611Y-65300500D01*
X82357701Y-65273402D01*
X82522445Y-65219873D01*
X82676788Y-65141232D01*
X82816928Y-65039414D01*
X82939414Y-64916928D01*
X83041232Y-64776788D01*
X83119873Y-64622445D01*
X83173402Y-64457701D01*
X83200500Y-64286611D01*
X83200500Y-64113389D01*
X83173402Y-63942299D01*
X83119873Y-63777555D01*
X83041232Y-63623212D01*
X82939414Y-63483072D01*
X82816928Y-63360586D01*
X82733975Y-63300317D01*
X82716970Y-63278264D01*
X82697472Y-63258393D01*
X82695933Y-63250982D01*
X82691311Y-63244988D01*
X82688928Y-63217248D01*
X82683267Y-63189983D01*
X82685979Y-63182915D01*
X82685332Y-63175374D01*
X82698325Y-63150748D01*
X82708303Y-63124753D01*
X82716016Y-63117220D01*
X82717938Y-63113579D01*
X82733495Y-63100033D01*
X82733655Y-63099915D01*
X82816928Y-63039414D01*
X82819234Y-63037107D01*
X82825706Y-63032358D01*
X82854417Y-63021958D01*
X82882289Y-63009466D01*
X82886959Y-63010171D01*
X82891399Y-63008563D01*
X82921176Y-63015336D01*
X82951376Y-63019896D01*
X82956270Y-63023320D01*
X82959528Y-63024061D01*
X82964338Y-63028964D01*
X82986754Y-63044644D01*
X89104929Y-69162819D01*
X89138414Y-69224142D01*
X89133430Y-69293834D01*
X89091558Y-69349767D01*
X89026094Y-69374184D01*
X89017248Y-69374500D01*
X86892541Y-69374500D01*
X86892521Y-69374499D01*
X86886407Y-69374499D01*
X86763194Y-69374499D01*
X86662397Y-69394548D01*
X86662392Y-69394548D01*
X86642349Y-69398536D01*
X86642347Y-69398536D01*
X86595197Y-69418067D01*
X86528519Y-69445685D01*
X86528517Y-69445686D01*
X86426066Y-69514141D01*
X86426063Y-69514144D01*
X83412180Y-72528028D01*
X83350857Y-72561513D01*
X83281165Y-72556529D01*
X83225232Y-72514657D01*
X83200815Y-72449193D01*
X83200499Y-72440347D01*
X83200499Y-72099998D01*
X83200498Y-72099981D01*
X83189999Y-71997203D01*
X83189998Y-71997200D01*
X83184821Y-71981576D01*
X83134814Y-71830666D01*
X83042712Y-71681344D01*
X82918656Y-71557288D01*
X82769334Y-71465186D01*
X82602797Y-71410001D01*
X82602795Y-71410000D01*
X82500010Y-71399500D01*
X81099998Y-71399500D01*
X81099981Y-71399501D01*
X80997203Y-71410000D01*
X80997200Y-71410001D01*
X80830668Y-71465185D01*
X80830663Y-71465187D01*
X80681342Y-71557289D01*
X80557289Y-71681342D01*
X80465187Y-71830663D01*
X80465185Y-71830668D01*
X80415179Y-71981576D01*
X80385154Y-72030253D01*
X79712181Y-72703227D01*
X79650858Y-72736712D01*
X79581167Y-72731728D01*
X79525233Y-72689857D01*
X79500816Y-72624392D01*
X79500500Y-72615546D01*
X79500500Y-47631947D01*
X88500000Y-47631947D01*
X88500000Y-47868052D01*
X88536934Y-48101247D01*
X88609897Y-48325802D01*
X88717087Y-48536174D01*
X88777338Y-48619104D01*
X88777340Y-48619105D01*
X89476212Y-47920233D01*
X89487482Y-47962292D01*
X89559890Y-48087708D01*
X89662292Y-48190110D01*
X89787708Y-48262518D01*
X89829765Y-48273787D01*
X89130893Y-48972658D01*
X89213828Y-49032914D01*
X89424197Y-49140102D01*
X89648752Y-49213065D01*
X89648751Y-49213065D01*
X89881948Y-49250000D01*
X90118052Y-49250000D01*
X90351247Y-49213065D01*
X90575802Y-49140102D01*
X90786163Y-49032918D01*
X90786169Y-49032914D01*
X90869104Y-48972658D01*
X90869105Y-48972658D01*
X90170233Y-48273787D01*
X90212292Y-48262518D01*
X90337708Y-48190110D01*
X90440110Y-48087708D01*
X90512518Y-47962292D01*
X90523787Y-47920234D01*
X91222658Y-48619105D01*
X91222658Y-48619104D01*
X91282914Y-48536169D01*
X91282918Y-48536163D01*
X91390102Y-48325802D01*
X91463065Y-48101247D01*
X91500000Y-47868052D01*
X91500000Y-47631947D01*
X91463065Y-47398752D01*
X91390102Y-47174197D01*
X91282914Y-46963828D01*
X91222658Y-46880894D01*
X91222658Y-46880893D01*
X90523787Y-47579765D01*
X90512518Y-47537708D01*
X90440110Y-47412292D01*
X90337708Y-47309890D01*
X90212292Y-47237482D01*
X90170234Y-47226212D01*
X90869105Y-46527340D01*
X90869104Y-46527338D01*
X90786174Y-46467087D01*
X90575802Y-46359897D01*
X90351247Y-46286934D01*
X90351248Y-46286934D01*
X90118052Y-46250000D01*
X89881948Y-46250000D01*
X89648752Y-46286934D01*
X89424197Y-46359897D01*
X89213830Y-46467084D01*
X89130894Y-46527340D01*
X89829766Y-47226212D01*
X89787708Y-47237482D01*
X89662292Y-47309890D01*
X89559890Y-47412292D01*
X89487482Y-47537708D01*
X89476212Y-47579766D01*
X88777340Y-46880894D01*
X88717084Y-46963830D01*
X88609897Y-47174197D01*
X88536934Y-47398752D01*
X88500000Y-47631947D01*
X79500500Y-47631947D01*
X79500500Y-43547844D01*
X97000000Y-43547844D01*
X97006401Y-43607372D01*
X97006403Y-43607379D01*
X97056645Y-43742086D01*
X97056649Y-43742093D01*
X97142809Y-43857187D01*
X97142812Y-43857190D01*
X97257906Y-43943350D01*
X97257913Y-43943354D01*
X97392620Y-43993596D01*
X97392627Y-43993598D01*
X97452155Y-43999999D01*
X97452172Y-44000000D01*
X98750000Y-44000000D01*
X98750000Y-42250000D01*
X97000000Y-42250000D01*
X97000000Y-43547844D01*
X79500500Y-43547844D01*
X79500500Y-42503750D01*
X79500726Y-42496264D01*
X79502154Y-42472658D01*
X79518271Y-42206201D01*
X79520076Y-42191340D01*
X79548512Y-42036174D01*
X79571780Y-41909197D01*
X79575364Y-41894663D01*
X79576679Y-41890444D01*
X79660696Y-41620822D01*
X79665998Y-41606841D01*
X79783731Y-41345249D01*
X79790676Y-41332016D01*
X79939080Y-41086526D01*
X79947567Y-41074230D01*
X80124480Y-40848417D01*
X80134395Y-40837226D01*
X80337226Y-40634395D01*
X80348417Y-40624480D01*
X80574230Y-40447567D01*
X80586526Y-40439080D01*
X80832016Y-40290676D01*
X80845249Y-40283731D01*
X81106841Y-40165998D01*
X81120822Y-40160696D01*
X81394668Y-40075362D01*
X81409197Y-40071780D01*
X81691344Y-40020075D01*
X81706201Y-40018271D01*
X81996264Y-40000726D01*
X82003751Y-40000500D01*
X82065892Y-40000500D01*
X89052692Y-40000500D01*
X89119731Y-40020185D01*
G37*
%TD.AperFunction*%
%TA.AperFunction,Conductor*%
G36*
X89777956Y-55967466D02*
G01*
X89778798Y-55965892D01*
X89784172Y-55968764D01*
X89784173Y-55968765D01*
X89902556Y-56017801D01*
X89902560Y-56017801D01*
X89902561Y-56017802D01*
X90028228Y-56042800D01*
X90028231Y-56042800D01*
X105736065Y-56042800D01*
X105803104Y-56062485D01*
X105804909Y-56063666D01*
X105861821Y-56101694D01*
X105861823Y-56101695D01*
X105861827Y-56101697D01*
X105986224Y-56153223D01*
X106007503Y-56162037D01*
X106162153Y-56192799D01*
X106162156Y-56192800D01*
X106162158Y-56192800D01*
X106319844Y-56192800D01*
X106319845Y-56192799D01*
X106474497Y-56162037D01*
X106620179Y-56101694D01*
X106677044Y-56063697D01*
X106743721Y-56042820D01*
X106745935Y-56042800D01*
X108527141Y-56042800D01*
X108594180Y-56062485D01*
X108614831Y-56079127D01*
X109202272Y-56666699D01*
X109240535Y-56704970D01*
X109240534Y-56704970D01*
X109244706Y-56709143D01*
X109244724Y-56709169D01*
X109284448Y-56748893D01*
X109284449Y-56748895D01*
X109309891Y-56774342D01*
X109335275Y-56799731D01*
X109335308Y-56799753D01*
X109335331Y-56799776D01*
X109384692Y-56832758D01*
X109441809Y-56870931D01*
X109441813Y-56870932D01*
X109441868Y-56870963D01*
X109500643Y-56895309D01*
X109500650Y-56895311D01*
X109560187Y-56919980D01*
X109560201Y-56919982D01*
X109560242Y-56919995D01*
X109560256Y-56920001D01*
X109627425Y-56933362D01*
X109685859Y-56944992D01*
X109685890Y-56944992D01*
X109685931Y-56945000D01*
X109686033Y-56945000D01*
X109759081Y-56945000D01*
X109813997Y-56945006D01*
X109814027Y-56945000D01*
X114570521Y-56945000D01*
X114637560Y-56964685D01*
X114683315Y-57017489D01*
X114693259Y-57086647D01*
X114664234Y-57150203D01*
X114658201Y-57156683D01*
X109689216Y-62125504D01*
X109627892Y-62158988D01*
X109625728Y-62159438D01*
X109514508Y-62181561D01*
X109514498Y-62181564D01*
X109368827Y-62241902D01*
X109368816Y-62241908D01*
X109306872Y-62283298D01*
X109240194Y-62304175D01*
X109172814Y-62285690D01*
X109150308Y-62267883D01*
X105852006Y-58970115D01*
X105808733Y-58926842D01*
X105808711Y-58926827D01*
X105808694Y-58926810D01*
X105749845Y-58887494D01*
X105749712Y-58887406D01*
X105706286Y-58858389D01*
X105706266Y-58858380D01*
X105706241Y-58858364D01*
X105644128Y-58832642D01*
X105644117Y-58832637D01*
X105592456Y-58811237D01*
X105592406Y-58811222D01*
X105528698Y-58798556D01*
X105506357Y-58794112D01*
X105471604Y-58787199D01*
X105471573Y-58787196D01*
X105471566Y-58787195D01*
X105471556Y-58787195D01*
X105415549Y-58787199D01*
X105409948Y-58787200D01*
X103171554Y-58787200D01*
X103104515Y-58767515D01*
X103102663Y-58766302D01*
X103010184Y-58704509D01*
X103010172Y-58704502D01*
X102864501Y-58644164D01*
X102864489Y-58644161D01*
X102709845Y-58613400D01*
X102709842Y-58613400D01*
X102552158Y-58613400D01*
X102552155Y-58613400D01*
X102397510Y-58644161D01*
X102397498Y-58644164D01*
X102251827Y-58704502D01*
X102251814Y-58704509D01*
X102120711Y-58792110D01*
X102120707Y-58792113D01*
X102009213Y-58903607D01*
X102009210Y-58903611D01*
X101921609Y-59034714D01*
X101921602Y-59034727D01*
X101861264Y-59180398D01*
X101861261Y-59180410D01*
X101830500Y-59335053D01*
X101830500Y-59492746D01*
X101861261Y-59647389D01*
X101861264Y-59647401D01*
X101921602Y-59793072D01*
X101921609Y-59793085D01*
X102009210Y-59924188D01*
X102009213Y-59924192D01*
X102120707Y-60035686D01*
X102120711Y-60035689D01*
X102251814Y-60123290D01*
X102251827Y-60123297D01*
X102392713Y-60181653D01*
X102397503Y-60183637D01*
X102552153Y-60214399D01*
X102552156Y-60214400D01*
X102552158Y-60214400D01*
X102709844Y-60214400D01*
X102709845Y-60214399D01*
X102864497Y-60183637D01*
X103010179Y-60123294D01*
X103106255Y-60059098D01*
X103172932Y-60038220D01*
X103175146Y-60038200D01*
X105099583Y-60038200D01*
X105166622Y-60057885D01*
X105187256Y-60074511D01*
X106330179Y-61217250D01*
X106375749Y-61262812D01*
X106409239Y-61324132D01*
X106404260Y-61393824D01*
X106362393Y-61449761D01*
X106296931Y-61474183D01*
X106288075Y-61474500D01*
X104530453Y-61474500D01*
X104463414Y-61454815D01*
X104442772Y-61438181D01*
X103889822Y-60885232D01*
X103879859Y-60875269D01*
X103879858Y-60875267D01*
X103792733Y-60788142D01*
X103741509Y-60753915D01*
X103690286Y-60719688D01*
X103690283Y-60719686D01*
X103690282Y-60719686D01*
X103690281Y-60719685D01*
X103591920Y-60678944D01*
X103591918Y-60678943D01*
X103582825Y-60675177D01*
X103576452Y-60672537D01*
X103510451Y-60659409D01*
X103508166Y-60658954D01*
X103508143Y-60658949D01*
X103455611Y-60648500D01*
X103455607Y-60648500D01*
X103455606Y-60648500D01*
X90382079Y-60648500D01*
X90315040Y-60628815D01*
X90269285Y-60576011D01*
X90259341Y-60506853D01*
X90264148Y-60486183D01*
X90267945Y-60474496D01*
X90273402Y-60457701D01*
X90300500Y-60286611D01*
X90300500Y-60113389D01*
X90273402Y-59942299D01*
X90219873Y-59777555D01*
X90141232Y-59623212D01*
X90039414Y-59483072D01*
X89916928Y-59360586D01*
X89833975Y-59300317D01*
X89791311Y-59244988D01*
X89785332Y-59175374D01*
X89817938Y-59113579D01*
X89833976Y-59099682D01*
X89916928Y-59039414D01*
X90039414Y-58916928D01*
X90141232Y-58776788D01*
X90219873Y-58622445D01*
X90273402Y-58457701D01*
X90300500Y-58286611D01*
X90300500Y-58113389D01*
X90300500Y-58113388D01*
X90273925Y-57945597D01*
X90276320Y-57927058D01*
X90273660Y-57908553D01*
X90280706Y-57893123D01*
X90282880Y-57876304D01*
X90294918Y-57862002D01*
X90302685Y-57844997D01*
X90316953Y-57835827D01*
X90327876Y-57822852D01*
X90345736Y-57817329D01*
X90361463Y-57807223D01*
X90393168Y-57802664D01*
X90394628Y-57802213D01*
X90396398Y-57802200D01*
X90627492Y-57802200D01*
X90694531Y-57821885D01*
X90715173Y-57838519D01*
X91967884Y-59091230D01*
X92001369Y-59152553D01*
X92001820Y-59154720D01*
X92015161Y-59221789D01*
X92015164Y-59221801D01*
X92075502Y-59367472D01*
X92075509Y-59367485D01*
X92163110Y-59498588D01*
X92163113Y-59498592D01*
X92274607Y-59610086D01*
X92274611Y-59610089D01*
X92405714Y-59697690D01*
X92405727Y-59697697D01*
X92532509Y-59750211D01*
X92551403Y-59758037D01*
X92706053Y-59788799D01*
X92706056Y-59788800D01*
X92706058Y-59788800D01*
X92863744Y-59788800D01*
X92863745Y-59788799D01*
X93018397Y-59758037D01*
X93164079Y-59697694D01*
X93295189Y-59610089D01*
X93406689Y-59498589D01*
X93494294Y-59367479D01*
X93554637Y-59221797D01*
X93585400Y-59067142D01*
X93585400Y-58909458D01*
X93585400Y-58909455D01*
X93585399Y-58909453D01*
X93565862Y-58811237D01*
X93554637Y-58754803D01*
X93533805Y-58704509D01*
X93494297Y-58609127D01*
X93494290Y-58609114D01*
X93406689Y-58478011D01*
X93406686Y-58478007D01*
X93295192Y-58366513D01*
X93295188Y-58366510D01*
X93164085Y-58278909D01*
X93164072Y-58278902D01*
X93018401Y-58218564D01*
X93018389Y-58218561D01*
X92951320Y-58205220D01*
X92889409Y-58172835D01*
X92887830Y-58171284D01*
X91362974Y-56646427D01*
X91362973Y-56646426D01*
X91362969Y-56646423D01*
X91256427Y-56575235D01*
X91138044Y-56526199D01*
X91138042Y-56526198D01*
X91135426Y-56525678D01*
X91134535Y-56525501D01*
X91107283Y-56520080D01*
X91012371Y-56501200D01*
X91012369Y-56501200D01*
X90375009Y-56501200D01*
X90307970Y-56481515D01*
X90280720Y-56457733D01*
X90274115Y-56450000D01*
X89215686Y-56450000D01*
X89220080Y-56445606D01*
X89272741Y-56354394D01*
X89300000Y-56252661D01*
X89300000Y-56147339D01*
X89272741Y-56045606D01*
X89220080Y-55954394D01*
X89215686Y-55950000D01*
X89718473Y-55950000D01*
X89777956Y-55967466D01*
G37*
%TD.AperFunction*%
%TA.AperFunction,Conductor*%
G36*
X87551401Y-54870185D02*
G01*
X87589899Y-54909401D01*
X87657288Y-55018656D01*
X87781344Y-55142712D01*
X87845981Y-55182580D01*
X87892705Y-55234526D01*
X87903928Y-55303489D01*
X87876085Y-55367571D01*
X87868566Y-55375799D01*
X87760964Y-55483401D01*
X87659195Y-55623475D01*
X87580591Y-55777744D01*
X87527085Y-55942415D01*
X87525884Y-55949999D01*
X87525885Y-55950000D01*
X88584314Y-55950000D01*
X88579920Y-55954394D01*
X88527259Y-56045606D01*
X88500000Y-56147339D01*
X88500000Y-56252661D01*
X88527259Y-56354394D01*
X88579920Y-56445606D01*
X88584314Y-56450000D01*
X87525885Y-56450000D01*
X87519280Y-56457733D01*
X87460773Y-56495925D01*
X87424991Y-56501200D01*
X83275009Y-56501200D01*
X83207970Y-56481515D01*
X83180720Y-56457733D01*
X83174115Y-56450000D01*
X82115686Y-56450000D01*
X82120080Y-56445606D01*
X82172741Y-56354394D01*
X82200000Y-56252661D01*
X82200000Y-56147339D01*
X82172741Y-56045606D01*
X82120080Y-55954394D01*
X82115686Y-55950000D01*
X83174115Y-55950000D01*
X83174115Y-55949999D01*
X83172914Y-55942415D01*
X83119408Y-55777744D01*
X83040804Y-55623475D01*
X82939032Y-55483397D01*
X82831434Y-55375799D01*
X82797949Y-55314476D01*
X82802933Y-55244784D01*
X82844805Y-55188851D01*
X82853995Y-55182594D01*
X82918656Y-55142712D01*
X83042712Y-55018656D01*
X83110099Y-54909402D01*
X83162047Y-54862679D01*
X83215638Y-54850500D01*
X87484362Y-54850500D01*
X87551401Y-54870185D01*
G37*
%TD.AperFunction*%
%TA.AperFunction,Conductor*%
G36*
X102042962Y-45320185D02*
G01*
X102088717Y-45372989D01*
X102098661Y-45442147D01*
X102069636Y-45505703D01*
X102063604Y-45512181D01*
X102013251Y-45562533D01*
X102013248Y-45562537D01*
X101903814Y-45726315D01*
X101903807Y-45726328D01*
X101828430Y-45908306D01*
X101828427Y-45908318D01*
X101790000Y-46101504D01*
X101790000Y-46500000D01*
X102490000Y-46500000D01*
X102490000Y-47000000D01*
X101790000Y-47000000D01*
X101790000Y-47398495D01*
X101828427Y-47591681D01*
X101828430Y-47591693D01*
X101903807Y-47773671D01*
X101903814Y-47773684D01*
X102013248Y-47937462D01*
X102013251Y-47937466D01*
X102152533Y-48076748D01*
X102152537Y-48076751D01*
X102178797Y-48094298D01*
X102223602Y-48147911D01*
X102232309Y-48217236D01*
X102202154Y-48280263D01*
X102142711Y-48316982D01*
X102109906Y-48321400D01*
X98010041Y-48321400D01*
X97943002Y-48301715D01*
X97897247Y-48248911D01*
X97887303Y-48179753D01*
X97916328Y-48116197D01*
X97922360Y-48109719D01*
X98021786Y-48010292D01*
X98021789Y-48010289D01*
X98109394Y-47879179D01*
X98169737Y-47733497D01*
X98189946Y-47631902D01*
X98200638Y-47578150D01*
X98233023Y-47516239D01*
X98234518Y-47514716D01*
X100412416Y-45336819D01*
X100473739Y-45303334D01*
X100500097Y-45300500D01*
X101975923Y-45300500D01*
X102042962Y-45320185D01*
G37*
%TD.AperFunction*%
%TD*%
M02*
