%TF.GenerationSoftware,KiCad,Pcbnew,9.0.6*%
%TF.CreationDate,2026-01-19T20:12:22+07:00*%
%TF.ProjectId,ESP32S3_MOD_DEV,45535033-3253-4335-9f4d-4f445f444556,rev?*%
%TF.SameCoordinates,Original*%
%TF.FileFunction,Soldermask,Bot*%
%TF.FilePolarity,Negative*%
%FSLAX46Y46*%
G04 Gerber Fmt 4.6, Leading zero omitted, Abs format (unit mm)*
G04 Created by KiCad (PCBNEW 9.0.6) date 2026-01-19 20:12:22*
%MOMM*%
%LPD*%
G01*
G04 APERTURE LIST*
G04 Aperture macros list*
%AMRoundRect*
0 Rectangle with rounded corners*
0 $1 Rounding radius*
0 $2 $3 $4 $5 $6 $7 $8 $9 X,Y pos of 4 corners*
0 Add a 4 corners polygon primitive as box body*
4,1,4,$2,$3,$4,$5,$6,$7,$8,$9,$2,$3,0*
0 Add four circle primitives for the rounded corners*
1,1,$1+$1,$2,$3*
1,1,$1+$1,$4,$5*
1,1,$1+$1,$6,$7*
1,1,$1+$1,$8,$9*
0 Add four rect primitives between the rounded corners*
20,1,$1+$1,$2,$3,$4,$5,0*
20,1,$1+$1,$4,$5,$6,$7,0*
20,1,$1+$1,$6,$7,$8,$9,0*
20,1,$1+$1,$8,$9,$2,$3,0*%
G04 Aperture macros list end*
%ADD10RoundRect,0.250000X-0.650000X0.350000X-0.650000X-0.350000X0.650000X-0.350000X0.650000X0.350000X0*%
%ADD11O,1.800000X1.200000*%
%ADD12RoundRect,0.250000X0.350000X0.650000X-0.350000X0.650000X-0.350000X-0.650000X0.350000X-0.650000X0*%
%ADD13O,1.200000X1.800000*%
%ADD14O,1.000000X2.100000*%
%ADD15O,1.000000X1.800000*%
%ADD16C,0.800000*%
%ADD17C,5.400000*%
%ADD18C,2.000000*%
%ADD19RoundRect,0.250000X0.650000X-0.350000X0.650000X0.350000X-0.650000X0.350000X-0.650000X-0.350000X0*%
%ADD20R,3.000000X3.000000*%
G04 APERTURE END LIST*
D10*
%TO.C,J3*%
X81800000Y-54200000D03*
D11*
X81800000Y-56200000D03*
X81800000Y-58200000D03*
X81800000Y-60200000D03*
X81800000Y-62200000D03*
X81800000Y-64200000D03*
%TD*%
D12*
%TO.C,J6*%
X125600000Y-108400000D03*
D13*
X123600000Y-108400000D03*
X121600000Y-108400000D03*
X119600000Y-108400000D03*
%TD*%
D10*
%TO.C,J9*%
X88900000Y-54200000D03*
D11*
X88900000Y-56200000D03*
X88900000Y-58200000D03*
X88900000Y-60200000D03*
X88900000Y-62200000D03*
X88900000Y-64200000D03*
%TD*%
D14*
%TO.C,J2*%
X111430000Y-46750000D03*
D15*
X111430000Y-42570000D03*
D14*
X102790000Y-46750000D03*
D15*
X102790000Y-42570000D03*
%TD*%
D16*
%TO.C,H3*%
X79975000Y-109431900D03*
X80568109Y-108000009D03*
X80568109Y-110863791D03*
X82000000Y-107406900D03*
D17*
X82000000Y-109431900D03*
D16*
X82000000Y-111456900D03*
X83431891Y-108000009D03*
X83431891Y-110863791D03*
X84025000Y-109431900D03*
%TD*%
D18*
%TO.C,SW1*%
X119500000Y-47750000D03*
X124000000Y-47750000D03*
X119500000Y-41250000D03*
X124000000Y-41250000D03*
%TD*%
D10*
%TO.C,J4*%
X81800000Y-72500000D03*
D11*
X81800000Y-74500000D03*
X81800000Y-76500000D03*
X81800000Y-78500000D03*
X81800000Y-80500000D03*
X81800000Y-82500000D03*
%TD*%
D18*
%TO.C,SW2*%
X90000000Y-47750000D03*
X94500000Y-47750000D03*
X90000000Y-41250000D03*
X94500000Y-41250000D03*
%TD*%
D12*
%TO.C,J8*%
X111300000Y-108400000D03*
D13*
X109300000Y-108400000D03*
X107300000Y-108400000D03*
X105300000Y-108400000D03*
X103300000Y-108400000D03*
X101300000Y-108400000D03*
%TD*%
D19*
%TO.C,J1*%
X128475000Y-53000000D03*
D11*
X128475000Y-51000000D03*
%TD*%
D16*
%TO.C,H2*%
X80043100Y-42568100D03*
X80636209Y-41136209D03*
X80636209Y-43999991D03*
X82068100Y-40543100D03*
D17*
X82068100Y-42568100D03*
D16*
X82068100Y-44593100D03*
X83499991Y-41136209D03*
X83499991Y-43999991D03*
X84093100Y-42568100D03*
%TD*%
%TO.C,H1*%
X129475000Y-42500000D03*
X130068109Y-41068109D03*
X130068109Y-43931891D03*
X131500000Y-40475000D03*
D17*
X131500000Y-42500000D03*
D16*
X131500000Y-44525000D03*
X132931891Y-41068109D03*
X132931891Y-43931891D03*
X133525000Y-42500000D03*
%TD*%
D12*
%TO.C,J5*%
X94100000Y-108400000D03*
D13*
X92100000Y-108400000D03*
X90100000Y-108400000D03*
X88100000Y-108400000D03*
%TD*%
D10*
%TO.C,J10*%
X88900000Y-72500000D03*
D11*
X88900000Y-74500000D03*
X88900000Y-76500000D03*
X88900000Y-78500000D03*
X88900000Y-80500000D03*
X88900000Y-82500000D03*
%TD*%
D16*
%TO.C,H4*%
X129406900Y-109431900D03*
X130000009Y-108000009D03*
X130000009Y-110863791D03*
X131431900Y-107406900D03*
D17*
X131431900Y-109431900D03*
D16*
X131431900Y-111456900D03*
X132863791Y-108000009D03*
X132863791Y-110863791D03*
X133456900Y-109431900D03*
%TD*%
D20*
%TO.C,VUSB*%
X115200000Y-41900000D03*
%TD*%
%TO.C,GND*%
X99000000Y-42000000D03*
%TD*%
M02*
