%TF.GenerationSoftware,KiCad,Pcbnew,9.0.6*%
%TF.CreationDate,2026-01-19T20:12:22+07:00*%
%TF.ProjectId,ESP32S3_MOD_DEV,45535033-3253-4335-9f4d-4f445f444556,rev?*%
%TF.SameCoordinates,Original*%
%TF.FileFunction,Legend,Bot*%
%TF.FilePolarity,Positive*%
%FSLAX46Y46*%
G04 Gerber Fmt 4.6, Leading zero omitted, Abs format (unit mm)*
G04 Created by KiCad (PCBNEW 9.0.6) date 2026-01-19 20:12:22*
%MOMM*%
%LPD*%
G01*
G04 APERTURE LIST*
%ADD10C,0.150000*%
%ADD11C,0.000000*%
%ADD12C,0.120000*%
G04 APERTURE END LIST*
D10*
X117033332Y-43954819D02*
X116699999Y-44954819D01*
X116699999Y-44954819D02*
X116366666Y-43954819D01*
X116033332Y-43954819D02*
X116033332Y-44764342D01*
X116033332Y-44764342D02*
X115985713Y-44859580D01*
X115985713Y-44859580D02*
X115938094Y-44907200D01*
X115938094Y-44907200D02*
X115842856Y-44954819D01*
X115842856Y-44954819D02*
X115652380Y-44954819D01*
X115652380Y-44954819D02*
X115557142Y-44907200D01*
X115557142Y-44907200D02*
X115509523Y-44859580D01*
X115509523Y-44859580D02*
X115461904Y-44764342D01*
X115461904Y-44764342D02*
X115461904Y-43954819D01*
X115033332Y-44907200D02*
X114890475Y-44954819D01*
X114890475Y-44954819D02*
X114652380Y-44954819D01*
X114652380Y-44954819D02*
X114557142Y-44907200D01*
X114557142Y-44907200D02*
X114509523Y-44859580D01*
X114509523Y-44859580D02*
X114461904Y-44764342D01*
X114461904Y-44764342D02*
X114461904Y-44669104D01*
X114461904Y-44669104D02*
X114509523Y-44573866D01*
X114509523Y-44573866D02*
X114557142Y-44526247D01*
X114557142Y-44526247D02*
X114652380Y-44478628D01*
X114652380Y-44478628D02*
X114842856Y-44431009D01*
X114842856Y-44431009D02*
X114938094Y-44383390D01*
X114938094Y-44383390D02*
X114985713Y-44335771D01*
X114985713Y-44335771D02*
X115033332Y-44240533D01*
X115033332Y-44240533D02*
X115033332Y-44145295D01*
X115033332Y-44145295D02*
X114985713Y-44050057D01*
X114985713Y-44050057D02*
X114938094Y-44002438D01*
X114938094Y-44002438D02*
X114842856Y-43954819D01*
X114842856Y-43954819D02*
X114604761Y-43954819D01*
X114604761Y-43954819D02*
X114461904Y-44002438D01*
X113699999Y-44431009D02*
X113557142Y-44478628D01*
X113557142Y-44478628D02*
X113509523Y-44526247D01*
X113509523Y-44526247D02*
X113461904Y-44621485D01*
X113461904Y-44621485D02*
X113461904Y-44764342D01*
X113461904Y-44764342D02*
X113509523Y-44859580D01*
X113509523Y-44859580D02*
X113557142Y-44907200D01*
X113557142Y-44907200D02*
X113652380Y-44954819D01*
X113652380Y-44954819D02*
X114033332Y-44954819D01*
X114033332Y-44954819D02*
X114033332Y-43954819D01*
X114033332Y-43954819D02*
X113699999Y-43954819D01*
X113699999Y-43954819D02*
X113604761Y-44002438D01*
X113604761Y-44002438D02*
X113557142Y-44050057D01*
X113557142Y-44050057D02*
X113509523Y-44145295D01*
X113509523Y-44145295D02*
X113509523Y-44240533D01*
X113509523Y-44240533D02*
X113557142Y-44335771D01*
X113557142Y-44335771D02*
X113604761Y-44383390D01*
X113604761Y-44383390D02*
X113699999Y-44431009D01*
X113699999Y-44431009D02*
X114033332Y-44431009D01*
X100061904Y-44202438D02*
X100157142Y-44154819D01*
X100157142Y-44154819D02*
X100299999Y-44154819D01*
X100299999Y-44154819D02*
X100442856Y-44202438D01*
X100442856Y-44202438D02*
X100538094Y-44297676D01*
X100538094Y-44297676D02*
X100585713Y-44392914D01*
X100585713Y-44392914D02*
X100633332Y-44583390D01*
X100633332Y-44583390D02*
X100633332Y-44726247D01*
X100633332Y-44726247D02*
X100585713Y-44916723D01*
X100585713Y-44916723D02*
X100538094Y-45011961D01*
X100538094Y-45011961D02*
X100442856Y-45107200D01*
X100442856Y-45107200D02*
X100299999Y-45154819D01*
X100299999Y-45154819D02*
X100204761Y-45154819D01*
X100204761Y-45154819D02*
X100061904Y-45107200D01*
X100061904Y-45107200D02*
X100014285Y-45059580D01*
X100014285Y-45059580D02*
X100014285Y-44726247D01*
X100014285Y-44726247D02*
X100204761Y-44726247D01*
X99585713Y-45154819D02*
X99585713Y-44154819D01*
X99585713Y-44154819D02*
X99014285Y-45154819D01*
X99014285Y-45154819D02*
X99014285Y-44154819D01*
X98538094Y-45154819D02*
X98538094Y-44154819D01*
X98538094Y-44154819D02*
X98299999Y-44154819D01*
X98299999Y-44154819D02*
X98157142Y-44202438D01*
X98157142Y-44202438D02*
X98061904Y-44297676D01*
X98061904Y-44297676D02*
X98014285Y-44392914D01*
X98014285Y-44392914D02*
X97966666Y-44583390D01*
X97966666Y-44583390D02*
X97966666Y-44726247D01*
X97966666Y-44726247D02*
X98014285Y-44916723D01*
X98014285Y-44916723D02*
X98061904Y-45011961D01*
X98061904Y-45011961D02*
X98157142Y-45107200D01*
X98157142Y-45107200D02*
X98299999Y-45154819D01*
X98299999Y-45154819D02*
X98538094Y-45154819D01*
D11*
%TO.C,GIT*%
G36*
X114252600Y-93079519D02*
G01*
X114325595Y-93169582D01*
X114354493Y-93330832D01*
X114268051Y-93486254D01*
X114129396Y-93573920D01*
X113980126Y-93574090D01*
X113866899Y-93484006D01*
X113821986Y-93315987D01*
X113856586Y-93121870D01*
X113953124Y-93005890D01*
X114091760Y-92988131D01*
X114252600Y-93079519D01*
G37*
G36*
X104038649Y-90595985D02*
G01*
X104149564Y-90683333D01*
X104192042Y-90784520D01*
X104186984Y-90951610D01*
X104088144Y-91072271D01*
X103910784Y-91118676D01*
X103832163Y-91109295D01*
X103692397Y-91024576D01*
X103631812Y-90878973D01*
X103669930Y-90705940D01*
X103738689Y-90631117D01*
X103884401Y-90579395D01*
X104038649Y-90595985D01*
G37*
G36*
X108263323Y-93554880D02*
G01*
X108318114Y-93627288D01*
X108351801Y-93779485D01*
X108305564Y-93921893D01*
X108200967Y-94026978D01*
X108059574Y-94067204D01*
X107902948Y-94015038D01*
X107829532Y-93936339D01*
X107790855Y-93774206D01*
X107847303Y-93602177D01*
X107955608Y-93495948D01*
X108109733Y-93468572D01*
X108263323Y-93554880D01*
G37*
G36*
X111025498Y-89651807D02*
G01*
X111047396Y-89675797D01*
X111118459Y-89832107D01*
X111100754Y-89988839D01*
X111006932Y-90109581D01*
X110849645Y-90157919D01*
X110743014Y-90140548D01*
X110621630Y-90036942D01*
X110579432Y-89847786D01*
X110619945Y-89692158D01*
X110731526Y-89590356D01*
X110878640Y-89571664D01*
X111025498Y-89651807D01*
G37*
G36*
X118810281Y-90595985D02*
G01*
X118921195Y-90683333D01*
X118963673Y-90784520D01*
X118958615Y-90951610D01*
X118859775Y-91072271D01*
X118682415Y-91118676D01*
X118603794Y-91109295D01*
X118464029Y-91024576D01*
X118403444Y-90878973D01*
X118441561Y-90705940D01*
X118510321Y-90631117D01*
X118656032Y-90579395D01*
X118810281Y-90595985D01*
G37*
G36*
X107672378Y-85672170D02*
G01*
X107782945Y-85748733D01*
X107804843Y-85772724D01*
X107875906Y-85929034D01*
X107858201Y-86085766D01*
X107764379Y-86206507D01*
X107607092Y-86254846D01*
X107518276Y-86242686D01*
X107385497Y-86148194D01*
X107336879Y-85976913D01*
X107376670Y-85831587D01*
X107479555Y-85706347D01*
X107607092Y-85654373D01*
X107672378Y-85672170D01*
G37*
G36*
X108657919Y-87665957D02*
G01*
X108665233Y-87668407D01*
X108752365Y-87742643D01*
X108778014Y-87898183D01*
X108776762Y-87938512D01*
X108726761Y-88123463D01*
X108620388Y-88222641D01*
X108480473Y-88224809D01*
X108329849Y-88118731D01*
X108261748Y-88005300D01*
X108257368Y-87852382D01*
X108335538Y-87726082D01*
X108475855Y-87654555D01*
X108657919Y-87665957D01*
G37*
G36*
X110039007Y-96432860D02*
G01*
X110084411Y-96453275D01*
X110142998Y-96537017D01*
X110159101Y-96703073D01*
X110155995Y-96791807D01*
X110122285Y-96915733D01*
X110039007Y-96973286D01*
X109901503Y-96991372D01*
X109747074Y-96941396D01*
X109660804Y-96821179D01*
X109646792Y-96659096D01*
X109710800Y-96502318D01*
X109848141Y-96420126D01*
X110039007Y-96432860D01*
G37*
G36*
X111505876Y-84787977D02*
G01*
X111559625Y-84861720D01*
X111600236Y-84993853D01*
X111565450Y-85116623D01*
X111450689Y-85241996D01*
X111300000Y-85294090D01*
X111177230Y-85259303D01*
X111051857Y-85144543D01*
X110999763Y-84993853D01*
X111001244Y-84964164D01*
X111065546Y-84812307D01*
X111196897Y-84721824D01*
X111356579Y-84708464D01*
X111505876Y-84787977D01*
G37*
G36*
X111931276Y-85234689D02*
G01*
X111964029Y-85271275D01*
X112014309Y-85419105D01*
X112004342Y-85586402D01*
X111933801Y-85711678D01*
X111803113Y-85763128D01*
X111642309Y-85741715D01*
X111522467Y-85648655D01*
X111493070Y-85548085D01*
X111502238Y-85394369D01*
X111526195Y-85333544D01*
X111638662Y-85222236D01*
X111789097Y-85183550D01*
X111931276Y-85234689D01*
G37*
G36*
X117836172Y-88608587D02*
G01*
X117953239Y-88668747D01*
X117999081Y-88750491D01*
X118025295Y-88896926D01*
X118011135Y-89009682D01*
X117920402Y-89148270D01*
X117755083Y-89197163D01*
X117653603Y-89181429D01*
X117528873Y-89080615D01*
X117484870Y-88896926D01*
X117499030Y-88784171D01*
X117589763Y-88645583D01*
X117755083Y-88596690D01*
X117836172Y-88608587D01*
G37*
G36*
X118411314Y-89171428D02*
G01*
X118440822Y-89204892D01*
X118505298Y-89364075D01*
X118473561Y-89519336D01*
X118350892Y-89630544D01*
X118344153Y-89633555D01*
X118167586Y-89662987D01*
X118039519Y-89586260D01*
X117975921Y-89412653D01*
X117972810Y-89366692D01*
X118012610Y-89197244D01*
X118118415Y-89097438D01*
X118261043Y-89083444D01*
X118411314Y-89171428D01*
G37*
G36*
X118892576Y-89690902D02*
G01*
X118958310Y-89800186D01*
X118977451Y-89927241D01*
X118908032Y-90061523D01*
X118816050Y-90135419D01*
X118664111Y-90154869D01*
X118517474Y-90094965D01*
X118420767Y-89964584D01*
X118413956Y-89944275D01*
X118399177Y-89802752D01*
X118474004Y-89679359D01*
X118609410Y-89578858D01*
X118759030Y-89576543D01*
X118892576Y-89690902D01*
G37*
G36*
X116074538Y-97424288D02*
G01*
X116077862Y-97427185D01*
X116138691Y-97539275D01*
X116163830Y-97700062D01*
X116160091Y-97784632D01*
X116119817Y-97889175D01*
X116013846Y-97939374D01*
X115881134Y-97957095D01*
X115719396Y-97910351D01*
X115637855Y-97779058D01*
X115647866Y-97574539D01*
X115670098Y-97518736D01*
X115782215Y-97411516D01*
X115933389Y-97374272D01*
X116074538Y-97424288D01*
G37*
G36*
X117455626Y-93040836D02*
G01*
X117460288Y-93044849D01*
X117530877Y-93167103D01*
X117546533Y-93324625D01*
X117510200Y-93468695D01*
X117424822Y-93550591D01*
X117384455Y-93562042D01*
X117208012Y-93564717D01*
X117100729Y-93469373D01*
X117064539Y-93277476D01*
X117072671Y-93136501D01*
X117115568Y-93047964D01*
X117215437Y-93004604D01*
X117325845Y-92995981D01*
X117455626Y-93040836D01*
G37*
G36*
X117842862Y-94980343D02*
G01*
X117955945Y-95036466D01*
X118002563Y-95137991D01*
X118012990Y-95291666D01*
X117990233Y-95405734D01*
X117923388Y-95466246D01*
X117775195Y-95490436D01*
X117667305Y-95494586D01*
X117565126Y-95466475D01*
X117514572Y-95381020D01*
X117500952Y-95330863D01*
X117497120Y-95142083D01*
X117572083Y-95010875D01*
X117714193Y-94961702D01*
X117842862Y-94980343D01*
G37*
G36*
X104597578Y-90140761D02*
G01*
X104602186Y-90146762D01*
X104623480Y-90242946D01*
X104622597Y-90395962D01*
X104605500Y-90514529D01*
X104552448Y-90596775D01*
X104435967Y-90627625D01*
X104302033Y-90622274D01*
X104180766Y-90575237D01*
X104112440Y-90467007D01*
X104101718Y-90306540D01*
X104166383Y-90169929D01*
X104202702Y-90144302D01*
X104339271Y-90104897D01*
X104492143Y-90102279D01*
X104597578Y-90140761D01*
G37*
G36*
X104597578Y-91101518D02*
G01*
X104602186Y-91107518D01*
X104623480Y-91203703D01*
X104622597Y-91356719D01*
X104605500Y-91475286D01*
X104552448Y-91557531D01*
X104435967Y-91588381D01*
X104302033Y-91583031D01*
X104180766Y-91535993D01*
X104112440Y-91427763D01*
X104101718Y-91267297D01*
X104166383Y-91130685D01*
X104202702Y-91105058D01*
X104339271Y-91065653D01*
X104492143Y-91063036D01*
X104597578Y-91101518D01*
G37*
G36*
X105892434Y-91070141D02*
G01*
X105978665Y-91101518D01*
X105983273Y-91107518D01*
X106004568Y-91203703D01*
X106003685Y-91356719D01*
X106003254Y-91361795D01*
X105980405Y-91501288D01*
X105919426Y-91558185D01*
X105782194Y-91569030D01*
X105719280Y-91566043D01*
X105554064Y-91509528D01*
X105486080Y-91388751D01*
X105522410Y-91213410D01*
X105611158Y-91096292D01*
X105764355Y-91058629D01*
X105892434Y-91070141D01*
G37*
G36*
X106768889Y-90594274D02*
G01*
X106890156Y-90641311D01*
X106940443Y-90708491D01*
X106976596Y-90848463D01*
X106945458Y-90982173D01*
X106826485Y-91087046D01*
X106634955Y-91108003D01*
X106616646Y-91105781D01*
X106516953Y-91077813D01*
X106474856Y-91004427D01*
X106466194Y-90848463D01*
X106466279Y-90822395D01*
X106477899Y-90679175D01*
X106526070Y-90613738D01*
X106634955Y-90588923D01*
X106768889Y-90594274D01*
G37*
G36*
X108740840Y-86718066D02*
G01*
X108745448Y-86724067D01*
X108766743Y-86820251D01*
X108765860Y-86973267D01*
X108748763Y-87091834D01*
X108695710Y-87174079D01*
X108579229Y-87204930D01*
X108445295Y-87199579D01*
X108324028Y-87152542D01*
X108255702Y-87044312D01*
X108244980Y-86883845D01*
X108309645Y-86747234D01*
X108345964Y-86721607D01*
X108482533Y-86682202D01*
X108635405Y-86679584D01*
X108740840Y-86718066D01*
G37*
G36*
X108740840Y-94043835D02*
G01*
X108745448Y-94049835D01*
X108766743Y-94146019D01*
X108765860Y-94299036D01*
X108748763Y-94417602D01*
X108695710Y-94499848D01*
X108579229Y-94530698D01*
X108445295Y-94525348D01*
X108324028Y-94478310D01*
X108255702Y-94370080D01*
X108244980Y-94209614D01*
X108309645Y-94073002D01*
X108345964Y-94047375D01*
X108482533Y-94007970D01*
X108635405Y-94005352D01*
X108740840Y-94043835D01*
G37*
G36*
X109218361Y-87195587D02*
G01*
X109220375Y-87197851D01*
X109247293Y-87286037D01*
X109258392Y-87433663D01*
X109252679Y-87507150D01*
X109180219Y-87665614D01*
X109042058Y-87736084D01*
X108860489Y-87703446D01*
X108807043Y-87667725D01*
X108728026Y-87532913D01*
X108719764Y-87368730D01*
X108790023Y-87227612D01*
X108827982Y-87201313D01*
X108963911Y-87162610D01*
X109115170Y-87159121D01*
X109218361Y-87195587D01*
G37*
G36*
X111505876Y-87730294D02*
G01*
X111560263Y-87802362D01*
X111600236Y-87920719D01*
X111599071Y-87939150D01*
X111541884Y-88071837D01*
X111430774Y-88187150D01*
X111310433Y-88236406D01*
X111300768Y-88236080D01*
X111165885Y-88180637D01*
X111049379Y-88063106D01*
X110999763Y-87931152D01*
X111001365Y-87900911D01*
X111066356Y-87752280D01*
X111198114Y-87663978D01*
X111357626Y-87651488D01*
X111505876Y-87730294D01*
G37*
G36*
X108989691Y-86194856D02*
G01*
X109136593Y-86208143D01*
X109221218Y-86237688D01*
X109225826Y-86243689D01*
X109247121Y-86339873D01*
X109246238Y-86492889D01*
X109245808Y-86497966D01*
X109222958Y-86637458D01*
X109161979Y-86694355D01*
X109024747Y-86705201D01*
X109009886Y-86705039D01*
X108825499Y-86661130D01*
X108734381Y-86542639D01*
X108740292Y-86354211D01*
X108763049Y-86284521D01*
X108834377Y-86212364D01*
X108979316Y-86194799D01*
X108989691Y-86194856D01*
G37*
G36*
X108489347Y-90110973D02*
G01*
X108654420Y-90123001D01*
X108735621Y-90138806D01*
X108742569Y-90145568D01*
X108766222Y-90237232D01*
X108766294Y-90388675D01*
X108747990Y-90608274D01*
X108310053Y-90620371D01*
X108196569Y-90623164D01*
X108013461Y-90621821D01*
X107908227Y-90603194D01*
X107851685Y-90559095D01*
X107814654Y-90481333D01*
X107800362Y-90440761D01*
X107780085Y-90281113D01*
X107847623Y-90176927D01*
X108012163Y-90120826D01*
X108282891Y-90105438D01*
X108489347Y-90110973D01*
G37*
G36*
X115186528Y-84761138D02*
G01*
X115216575Y-84830445D01*
X115240993Y-84992828D01*
X115250627Y-85201468D01*
X115245348Y-85415813D01*
X115225026Y-85595311D01*
X115189531Y-85699409D01*
X115127520Y-85743526D01*
X114992908Y-85774468D01*
X114866145Y-85750277D01*
X114786670Y-85664838D01*
X114745674Y-85499108D01*
X114734036Y-85234042D01*
X114741408Y-85040669D01*
X114763724Y-84864716D01*
X114795765Y-84768676D01*
X114904385Y-84706836D01*
X115058685Y-84701623D01*
X115186528Y-84761138D01*
G37*
G36*
X106976596Y-99195035D02*
G01*
X106976596Y-100908313D01*
X105340307Y-100892336D01*
X103704019Y-100876359D01*
X103704019Y-99195035D01*
X103704019Y-98024113D01*
X104214421Y-98024113D01*
X104214421Y-99195035D01*
X104214421Y-100365957D01*
X105325295Y-100365957D01*
X106436170Y-100365957D01*
X106436170Y-99195035D01*
X106436170Y-98024113D01*
X105325295Y-98024113D01*
X104214421Y-98024113D01*
X103704019Y-98024113D01*
X103704019Y-97513711D01*
X105325295Y-97497881D01*
X105340307Y-97497734D01*
X106976596Y-97481758D01*
X106976596Y-99195035D01*
G37*
G36*
X110746861Y-100333402D02*
G01*
X110930671Y-100353035D01*
X111044799Y-100386560D01*
X111087105Y-100438497D01*
X111116979Y-100574836D01*
X111102367Y-100726561D01*
X111043446Y-100835000D01*
X110981135Y-100862975D01*
X110820998Y-100885728D01*
X110617807Y-100886823D01*
X110412191Y-100868610D01*
X110244781Y-100833440D01*
X110156209Y-100783664D01*
X110110131Y-100663341D01*
X110110666Y-100498595D01*
X110175466Y-100377293D01*
X110204778Y-100362418D01*
X110341170Y-100337638D01*
X110536112Y-100328118D01*
X110746861Y-100333402D01*
G37*
G36*
X111943975Y-89144589D02*
G01*
X111974022Y-89213897D01*
X111998439Y-89376280D01*
X112008074Y-89584920D01*
X112002794Y-89799265D01*
X111982473Y-89978762D01*
X111946978Y-90082860D01*
X111884967Y-90126977D01*
X111750354Y-90157919D01*
X111659132Y-90143420D01*
X111555612Y-90082860D01*
X111530686Y-90022165D01*
X111505984Y-89860846D01*
X111495791Y-89651347D01*
X111500211Y-89435503D01*
X111519347Y-89255151D01*
X111553303Y-89152127D01*
X111661946Y-89090263D01*
X111816180Y-89085083D01*
X111943975Y-89144589D01*
G37*
G36*
X104286976Y-96433249D02*
G01*
X104461301Y-96453902D01*
X104559692Y-96481703D01*
X104610346Y-96558934D01*
X104634752Y-96699264D01*
X104634745Y-96702646D01*
X104612757Y-96844983D01*
X104534454Y-96931031D01*
X104379270Y-96972141D01*
X104126636Y-96979662D01*
X103966574Y-96974153D01*
X103825757Y-96952933D01*
X103741810Y-96903507D01*
X103678273Y-96812259D01*
X103631365Y-96719069D01*
X103625260Y-96629406D01*
X103693036Y-96535067D01*
X103782889Y-96466572D01*
X103921309Y-96431881D01*
X104141399Y-96426144D01*
X104286976Y-96433249D01*
G37*
G36*
X104098094Y-89170549D02*
G01*
X104159026Y-89259432D01*
X104187847Y-89404306D01*
X104190490Y-89636260D01*
X104186587Y-89740964D01*
X104165743Y-89956915D01*
X104120621Y-90083487D01*
X104039174Y-90143037D01*
X103909353Y-90157919D01*
X103829746Y-90147248D01*
X103693543Y-90061840D01*
X103629549Y-89921461D01*
X103660968Y-89763000D01*
X103687230Y-89691358D01*
X103659102Y-89518716D01*
X103655497Y-89510627D01*
X103631791Y-89375341D01*
X103696885Y-89229646D01*
X103799439Y-89118579D01*
X103942570Y-89084926D01*
X104098094Y-89170549D01*
G37*
G36*
X105522938Y-90589489D02*
G01*
X105505437Y-91088652D01*
X105055925Y-91088652D01*
X104869161Y-91085325D01*
X104685651Y-91061759D01*
X104591624Y-91003167D01*
X104569214Y-90895228D01*
X104600554Y-90723619D01*
X104621108Y-90662960D01*
X104693657Y-90595317D01*
X104842436Y-90578250D01*
X104871023Y-90578125D01*
X104992078Y-90563851D01*
X105045425Y-90500696D01*
X105066470Y-90353073D01*
X105069537Y-90317902D01*
X105094880Y-90187605D01*
X105163094Y-90130749D01*
X105312773Y-90109111D01*
X105540440Y-90090326D01*
X105522938Y-90589489D01*
G37*
G36*
X113785335Y-89131616D02*
G01*
X113791019Y-89136608D01*
X113839843Y-89222547D01*
X113862908Y-89379337D01*
X113863982Y-89630905D01*
X113860103Y-89727167D01*
X113831116Y-89963827D01*
X113768884Y-90101136D01*
X113662976Y-90153689D01*
X113502962Y-90136082D01*
X113442691Y-90118800D01*
X113388088Y-90082519D01*
X113361057Y-90007571D01*
X113353811Y-89866837D01*
X113358562Y-89633201D01*
X113363477Y-89481456D01*
X113376077Y-89304689D01*
X113402256Y-89203154D01*
X113451470Y-89148687D01*
X113533173Y-89113126D01*
X113659471Y-89086850D01*
X113785335Y-89131616D01*
G37*
G36*
X109658368Y-99889242D02*
G01*
X109663186Y-99894881D01*
X109697634Y-99999168D01*
X109717934Y-100174886D01*
X109724102Y-100383896D01*
X109716154Y-100588058D01*
X109694106Y-100749232D01*
X109657974Y-100829279D01*
X109621579Y-100844586D01*
X109474527Y-100870790D01*
X109275495Y-100883217D01*
X109067268Y-100881583D01*
X108892634Y-100865605D01*
X108794379Y-100835000D01*
X108761241Y-100795098D01*
X108721654Y-100650682D01*
X108737900Y-100487316D01*
X108808187Y-100365834D01*
X108906875Y-100324703D01*
X109065874Y-100324451D01*
X109090129Y-100329211D01*
X109186978Y-100336290D01*
X109218436Y-100284904D01*
X109208467Y-100144876D01*
X109208893Y-99984731D01*
X109266028Y-99879589D01*
X109366797Y-99839405D01*
X109531614Y-99833678D01*
X109658368Y-99889242D01*
G37*
G36*
X118717497Y-98406240D02*
G01*
X118840927Y-98434151D01*
X118910993Y-98488640D01*
X118926841Y-98510406D01*
X118981792Y-98653259D01*
X118930693Y-98799198D01*
X118909365Y-98869004D01*
X118938264Y-99017821D01*
X118964680Y-99098727D01*
X118939032Y-99259695D01*
X118912769Y-99331337D01*
X118940898Y-99503979D01*
X118960918Y-99608555D01*
X118920927Y-99765831D01*
X118823477Y-99893181D01*
X118693738Y-99945626D01*
X118576526Y-99921883D01*
X118473575Y-99816251D01*
X118420756Y-99617209D01*
X118413794Y-99315130D01*
X118430924Y-98894799D01*
X118213098Y-98894799D01*
X118145343Y-98894242D01*
X118041023Y-98876702D01*
X118001473Y-98808372D01*
X117995272Y-98654610D01*
X117995272Y-98414421D01*
X118415603Y-98402104D01*
X118512756Y-98400024D01*
X118717497Y-98406240D01*
G37*
G36*
X105578385Y-85695444D02*
G01*
X105799549Y-85788095D01*
X105950981Y-85939597D01*
X105952766Y-85942843D01*
X105983037Y-86058320D01*
X106005001Y-86251636D01*
X106014013Y-86482753D01*
X106010345Y-86716795D01*
X105990815Y-86870690D01*
X105946488Y-86975876D01*
X105868450Y-87068214D01*
X105785829Y-87139592D01*
X105680854Y-87188121D01*
X105529544Y-87210307D01*
X105295134Y-87215603D01*
X105283833Y-87215598D01*
X105057012Y-87210553D01*
X104912128Y-87189147D01*
X104812627Y-87141245D01*
X104721955Y-87056716D01*
X104658942Y-86980229D01*
X104605533Y-86869568D01*
X104580759Y-86716491D01*
X104574704Y-86482319D01*
X104582761Y-86262806D01*
X104605032Y-86068504D01*
X104636532Y-85951284D01*
X104664176Y-85907407D01*
X104830385Y-85767625D01*
X105060414Y-85685506D01*
X105320877Y-85661347D01*
X105578385Y-85695444D01*
G37*
G36*
X105505294Y-98388288D02*
G01*
X105665067Y-98407820D01*
X105773865Y-98452503D01*
X105868450Y-98531786D01*
X105940268Y-98615038D01*
X105988527Y-98720026D01*
X106010580Y-98871512D01*
X106015839Y-99106182D01*
X106015839Y-99107285D01*
X106007316Y-99337787D01*
X105985111Y-99532264D01*
X105954012Y-99648716D01*
X105918944Y-99702537D01*
X105747891Y-99839596D01*
X105515399Y-99918242D01*
X105254743Y-99938478D01*
X104999197Y-99900302D01*
X104782035Y-99803715D01*
X104636532Y-99648716D01*
X104606108Y-99537726D01*
X104583388Y-99345603D01*
X104574704Y-99117680D01*
X104577715Y-98936623D01*
X104596508Y-98765635D01*
X104641283Y-98647415D01*
X104721955Y-98543283D01*
X104725874Y-98539069D01*
X104816197Y-98456201D01*
X104916812Y-98409555D01*
X105064273Y-98388998D01*
X105295134Y-98384397D01*
X105505294Y-98388288D01*
G37*
G36*
X118734187Y-95462406D02*
G01*
X118859208Y-95493188D01*
X118923711Y-95551658D01*
X118935291Y-95572162D01*
X118980272Y-95718973D01*
X118930693Y-95856881D01*
X118909427Y-95928834D01*
X118940130Y-96079599D01*
X118945269Y-96091226D01*
X118968166Y-96225728D01*
X118903114Y-96370353D01*
X118896417Y-96380299D01*
X118763455Y-96498278D01*
X118621193Y-96517293D01*
X118497154Y-96451376D01*
X118418863Y-96314562D01*
X118413843Y-96120884D01*
X118417062Y-96103632D01*
X118433959Y-95981074D01*
X118409360Y-95952002D01*
X118328514Y-95994578D01*
X118280053Y-96019425D01*
X118138188Y-96025046D01*
X118030602Y-95928349D01*
X117975805Y-95742558D01*
X117971217Y-95664329D01*
X117992514Y-95555509D01*
X118070999Y-95491986D01*
X118227514Y-95461871D01*
X118482897Y-95453276D01*
X118521218Y-95453193D01*
X118734187Y-95462406D01*
G37*
G36*
X117587841Y-85695444D02*
G01*
X117809005Y-85788095D01*
X117960438Y-85939597D01*
X117960823Y-85940268D01*
X117991729Y-86052196D01*
X118014226Y-86242818D01*
X118023469Y-86471255D01*
X118020624Y-86676401D01*
X118001834Y-86840905D01*
X117957432Y-86955099D01*
X117878044Y-87056716D01*
X117874126Y-87060930D01*
X117783803Y-87143799D01*
X117683188Y-87190445D01*
X117535727Y-87211002D01*
X117304866Y-87215603D01*
X117094706Y-87211712D01*
X116934932Y-87192179D01*
X116826135Y-87147497D01*
X116731549Y-87068214D01*
X116659731Y-86984961D01*
X116611472Y-86879974D01*
X116589420Y-86728487D01*
X116584161Y-86493817D01*
X116584161Y-86492715D01*
X116592684Y-86262212D01*
X116614888Y-86067735D01*
X116645988Y-85951284D01*
X116673632Y-85907407D01*
X116839841Y-85767625D01*
X117069871Y-85685506D01*
X117330333Y-85661347D01*
X117587841Y-85695444D01*
G37*
G36*
X117333455Y-84753689D02*
G01*
X117726900Y-84754970D01*
X118113679Y-84758953D01*
X118445186Y-84765217D01*
X118705215Y-84773363D01*
X118877561Y-84782989D01*
X118946020Y-84793696D01*
X118947834Y-84797246D01*
X118958020Y-84884298D01*
X118967157Y-85073215D01*
X118974887Y-85348423D01*
X118980851Y-85694345D01*
X118984692Y-86095406D01*
X118986052Y-86536032D01*
X118986052Y-88238337D01*
X117349763Y-88222360D01*
X115713475Y-88206383D01*
X115696605Y-86615130D01*
X115693448Y-86214762D01*
X115692608Y-85813987D01*
X115694283Y-85463569D01*
X115695841Y-85354137D01*
X116221284Y-85354137D01*
X116237592Y-86510047D01*
X116253900Y-87665957D01*
X117349763Y-87682324D01*
X118445626Y-87698690D01*
X118445626Y-86526413D01*
X118445626Y-85354137D01*
X117333455Y-85354137D01*
X116221284Y-85354137D01*
X115695841Y-85354137D01*
X115698308Y-85180941D01*
X115704522Y-84983531D01*
X115712761Y-84888770D01*
X115745787Y-84753664D01*
X117325888Y-84753664D01*
X117333455Y-84753689D01*
G37*
G36*
X113611190Y-98394261D02*
G01*
X113747952Y-98410150D01*
X113819503Y-98446772D01*
X113854296Y-98511697D01*
X113870071Y-98600351D01*
X113860024Y-98764026D01*
X113851728Y-98801221D01*
X113856690Y-98853177D01*
X113910589Y-98879155D01*
X114037105Y-98886072D01*
X114259922Y-98880846D01*
X114394133Y-98877913D01*
X114586222Y-98884958D01*
X114701359Y-98913180D01*
X114767730Y-98967382D01*
X114810836Y-99031656D01*
X114837494Y-99144301D01*
X114783310Y-99284045D01*
X114783193Y-99284263D01*
X114749951Y-99327320D01*
X114691408Y-99357628D01*
X114588607Y-99377393D01*
X114422593Y-99388817D01*
X114174409Y-99394106D01*
X113825099Y-99395463D01*
X113530969Y-99394656D01*
X113265602Y-99390124D01*
X113087764Y-99379870D01*
X112979539Y-99361955D01*
X112923012Y-99334441D01*
X112900267Y-99295388D01*
X112899794Y-99293548D01*
X112879084Y-99141624D01*
X112873454Y-98940403D01*
X112881326Y-98732152D01*
X112901125Y-98559141D01*
X112931276Y-98463635D01*
X112999442Y-98430502D01*
X113167670Y-98402363D01*
X113402404Y-98391448D01*
X113611190Y-98394261D01*
G37*
G36*
X107577590Y-91077960D02*
G01*
X107749476Y-91103032D01*
X107831350Y-91140281D01*
X107858814Y-91204148D01*
X107871019Y-91375338D01*
X107823247Y-91531371D01*
X107741197Y-91583492D01*
X107560306Y-91589206D01*
X107535485Y-91586351D01*
X107411698Y-91579987D01*
X107376915Y-91614408D01*
X107404874Y-91710029D01*
X107426117Y-91802654D01*
X107394978Y-91964855D01*
X107291771Y-92082445D01*
X107144699Y-92130482D01*
X106981968Y-92084024D01*
X106923361Y-92063853D01*
X106786815Y-92099387D01*
X106694866Y-92136957D01*
X106567356Y-92100294D01*
X106494592Y-92068352D01*
X106350636Y-92092502D01*
X106280543Y-92119510D01*
X106125452Y-92105397D01*
X106004539Y-92007009D01*
X105955792Y-91847883D01*
X105956896Y-91805383D01*
X105988009Y-91675753D01*
X106076948Y-91598555D01*
X106243857Y-91563281D01*
X106508882Y-91559426D01*
X106583130Y-91561243D01*
X106765401Y-91561493D01*
X106859219Y-91546603D01*
X106888936Y-91508712D01*
X106878905Y-91439956D01*
X106871952Y-91344272D01*
X106911151Y-91188807D01*
X106947290Y-91137291D01*
X107023256Y-91093621D01*
X107157834Y-91073677D01*
X107381624Y-91069713D01*
X107577590Y-91077960D01*
G37*
G36*
X111331681Y-86697020D02*
G01*
X111455112Y-86724931D01*
X111525177Y-86779420D01*
X111531191Y-86787546D01*
X111592755Y-86950389D01*
X111553950Y-87092990D01*
X111433206Y-87187012D01*
X111248954Y-87204115D01*
X111144947Y-87193229D01*
X111085247Y-87214174D01*
X111094474Y-87290269D01*
X111110396Y-87359804D01*
X111093325Y-87537600D01*
X111003726Y-87669680D01*
X110865468Y-87731253D01*
X110702417Y-87697528D01*
X110648079Y-87677834D01*
X110620662Y-87717650D01*
X110628720Y-87851556D01*
X110632348Y-87944623D01*
X110586114Y-88120258D01*
X110481237Y-88220524D01*
X110340641Y-88230655D01*
X110187253Y-88135885D01*
X110121815Y-88025922D01*
X110119158Y-87835548D01*
X110134307Y-87708146D01*
X110111592Y-87667666D01*
X110035248Y-87697993D01*
X109975859Y-87722096D01*
X109828085Y-87715226D01*
X109716048Y-87623438D01*
X109661486Y-87472299D01*
X109686136Y-87287378D01*
X109696135Y-87262059D01*
X109735781Y-87203538D01*
X109809311Y-87173706D01*
X109945360Y-87165842D01*
X110172565Y-87173228D01*
X110609456Y-87192988D01*
X110609456Y-86949095D01*
X110609456Y-86705201D01*
X111029787Y-86692884D01*
X111126941Y-86690805D01*
X111331681Y-86697020D01*
G37*
G36*
X114268051Y-84787977D02*
G01*
X114303957Y-84828870D01*
X114358928Y-84985935D01*
X114302201Y-85174298D01*
X114274656Y-85244263D01*
X114302201Y-85324013D01*
X114357477Y-85416586D01*
X114343166Y-85554108D01*
X114262511Y-85685648D01*
X114178862Y-85741603D01*
X113994175Y-85751861D01*
X113887219Y-85737122D01*
X113845580Y-85773738D01*
X113861362Y-85896290D01*
X113874245Y-85977516D01*
X113866357Y-86090300D01*
X113804235Y-86165146D01*
X113671468Y-86209719D01*
X113451648Y-86231684D01*
X113128363Y-86238709D01*
X112961181Y-86239433D01*
X112734409Y-86237220D01*
X112591744Y-86226191D01*
X112509888Y-86201356D01*
X112465545Y-86157727D01*
X112435418Y-86090315D01*
X112411854Y-85956583D01*
X112457662Y-85799484D01*
X112571734Y-85697586D01*
X112731333Y-85682244D01*
X112893787Y-85717925D01*
X112879533Y-85263608D01*
X112875708Y-85125472D01*
X112877133Y-84945834D01*
X112896175Y-84841153D01*
X112940566Y-84782186D01*
X113018035Y-84739691D01*
X113058966Y-84723173D01*
X113223109Y-84712653D01*
X113336050Y-84807853D01*
X113389552Y-85002937D01*
X113412105Y-85141212D01*
X113473851Y-85198985D01*
X113614729Y-85210023D01*
X113648712Y-85209883D01*
X113767365Y-85196115D01*
X113813928Y-85134221D01*
X113821986Y-84988268D01*
X113861128Y-84808848D01*
X113966808Y-84703408D01*
X114111608Y-84692339D01*
X114268051Y-84787977D01*
G37*
G36*
X105323999Y-84753671D02*
G01*
X105717953Y-84754947D01*
X106104457Y-84758918D01*
X106435804Y-84765180D01*
X106695760Y-84773332D01*
X106868091Y-84782972D01*
X106936564Y-84793696D01*
X106938359Y-84797193D01*
X106948550Y-84884053D01*
X106957691Y-85072802D01*
X106965425Y-85347857D01*
X106971392Y-85693640D01*
X106975235Y-86094570D01*
X106976596Y-86535067D01*
X106976596Y-88236406D01*
X105361743Y-88236406D01*
X104966490Y-88235984D01*
X104564284Y-88233832D01*
X104258425Y-88229166D01*
X104035659Y-88221222D01*
X103882733Y-88209238D01*
X103786391Y-88192452D01*
X103733379Y-88170102D01*
X103710443Y-88141424D01*
X103709492Y-88138537D01*
X103698818Y-88042171D01*
X103690099Y-87847216D01*
X103683335Y-87573552D01*
X103678526Y-87241057D01*
X103675672Y-86869610D01*
X103674774Y-86479090D01*
X103675831Y-86089375D01*
X103678843Y-85720345D01*
X103683810Y-85391878D01*
X103684785Y-85354137D01*
X104211827Y-85354137D01*
X104228136Y-86510047D01*
X104244444Y-87665957D01*
X105340307Y-87682324D01*
X106436170Y-87698690D01*
X106436170Y-86526413D01*
X106436170Y-85354137D01*
X105323999Y-85354137D01*
X104211827Y-85354137D01*
X103684785Y-85354137D01*
X103690733Y-85123854D01*
X103699610Y-84936150D01*
X103710443Y-84848646D01*
X103723673Y-84828050D01*
X103766193Y-84803568D01*
X103848266Y-84785023D01*
X103983314Y-84771624D01*
X104184760Y-84762579D01*
X104466027Y-84757099D01*
X104840536Y-84754391D01*
X105321712Y-84753664D01*
X105323999Y-84753671D01*
G37*
G36*
X116495694Y-89607299D02*
G01*
X116593936Y-89637760D01*
X116673212Y-89628489D01*
X116723472Y-89608532D01*
X116863382Y-89589853D01*
X117047850Y-89581704D01*
X117235852Y-89584362D01*
X117386367Y-89598103D01*
X117458375Y-89623203D01*
X117514255Y-89640049D01*
X117629537Y-89609052D01*
X117736091Y-89576987D01*
X117894207Y-89611610D01*
X117937596Y-89639758D01*
X117988424Y-89711753D01*
X118011889Y-89838758D01*
X118016989Y-90053131D01*
X118012311Y-90307434D01*
X117993491Y-90484976D01*
X117950808Y-90584727D01*
X117874465Y-90628548D01*
X117754661Y-90638298D01*
X117728265Y-90638411D01*
X117607928Y-90652645D01*
X117554658Y-90715811D01*
X117533530Y-90863475D01*
X117530545Y-90897912D01*
X117506434Y-91027623D01*
X117443225Y-91079331D01*
X117304728Y-91088652D01*
X117094562Y-91088652D01*
X117064539Y-90608274D01*
X117034515Y-90127896D01*
X116810263Y-90121129D01*
X116795199Y-90120698D01*
X116658309Y-90125197D01*
X116609757Y-90162266D01*
X116620531Y-90251901D01*
X116632180Y-90302528D01*
X116641833Y-90464842D01*
X116579112Y-90564625D01*
X116428936Y-90614627D01*
X116176226Y-90627600D01*
X116160420Y-90627511D01*
X115897022Y-90614250D01*
X115732366Y-90573198D01*
X115647483Y-90495610D01*
X115623404Y-90372742D01*
X115644459Y-90252562D01*
X115753329Y-90136752D01*
X115953616Y-90097872D01*
X115962099Y-90097863D01*
X116081655Y-90087033D01*
X116123238Y-90030936D01*
X116115797Y-89893004D01*
X116115581Y-89792958D01*
X116181236Y-89642367D01*
X116315747Y-89574610D01*
X116495694Y-89607299D01*
G37*
G36*
X114226257Y-90126470D02*
G01*
X114305172Y-90215166D01*
X114340120Y-90386739D01*
X114341258Y-90658623D01*
X114325018Y-91088652D01*
X114554093Y-91091585D01*
X114693460Y-91086649D01*
X114754241Y-91055347D01*
X114747509Y-90982169D01*
X114733444Y-90884358D01*
X114748441Y-90724035D01*
X114768546Y-90664229D01*
X114840798Y-90595588D01*
X114989048Y-90578250D01*
X115006953Y-90578536D01*
X115147890Y-90602523D01*
X115220739Y-90653309D01*
X115221608Y-90655782D01*
X115238674Y-90770997D01*
X115247042Y-90958576D01*
X115246740Y-91172942D01*
X115237795Y-91368515D01*
X115220234Y-91499719D01*
X115198733Y-91549713D01*
X115121826Y-91591105D01*
X114963852Y-91588855D01*
X114919572Y-91584782D01*
X114798496Y-91582378D01*
X114763954Y-91617199D01*
X114789589Y-91707134D01*
X114810215Y-91793161D01*
X114781284Y-91962061D01*
X114751791Y-92029545D01*
X114780049Y-92058008D01*
X114901221Y-92040725D01*
X114952767Y-92031914D01*
X115100735Y-92038030D01*
X115192952Y-92115963D01*
X115239988Y-92280993D01*
X115252417Y-92548405D01*
X115252268Y-92571818D01*
X115238535Y-92831815D01*
X115196753Y-92993744D01*
X115117888Y-93076815D01*
X114992908Y-93100236D01*
X114831337Y-93053719D01*
X114744916Y-92919639D01*
X114741387Y-92708075D01*
X114751175Y-92638159D01*
X114747991Y-92543498D01*
X114704126Y-92543190D01*
X114672230Y-92557787D01*
X114530333Y-92584808D01*
X114338391Y-92595452D01*
X114138720Y-92590197D01*
X113973636Y-92569524D01*
X113885457Y-92533913D01*
X113868858Y-92469083D01*
X113853663Y-92295608D01*
X113843350Y-92031678D01*
X113838505Y-91693165D01*
X113839716Y-91295941D01*
X113852009Y-90127896D01*
X114020770Y-90108545D01*
X114093220Y-90103220D01*
X114226257Y-90126470D01*
G37*
G36*
X109397466Y-84724023D02*
G01*
X109579977Y-84752868D01*
X109684627Y-84808294D01*
X109728137Y-84896871D01*
X109727223Y-85025168D01*
X109727172Y-85025608D01*
X109719311Y-85159524D01*
X109755530Y-85205729D01*
X109859742Y-85194836D01*
X109868133Y-85193261D01*
X110031870Y-85213641D01*
X110138174Y-85330240D01*
X110172448Y-85527525D01*
X110173541Y-85595270D01*
X110212030Y-85679069D01*
X110328499Y-85702122D01*
X110451481Y-85707331D01*
X110579432Y-85715305D01*
X110651220Y-85712987D01*
X110795658Y-85684084D01*
X110878548Y-85674854D01*
X111020835Y-85744071D01*
X111025199Y-85748535D01*
X111104373Y-85895512D01*
X111110112Y-86059450D01*
X111040065Y-86186269D01*
X110956762Y-86215923D01*
X110781605Y-86236091D01*
X110556439Y-86238007D01*
X110530587Y-86237098D01*
X110327301Y-86233466D01*
X110217459Y-86244509D01*
X110177020Y-86276496D01*
X110181941Y-86335700D01*
X110189141Y-86368243D01*
X110177217Y-86551984D01*
X110082315Y-86684380D01*
X109923942Y-86735224D01*
X109788971Y-86716493D01*
X109704607Y-86668479D01*
X109703331Y-86666206D01*
X109683642Y-86570452D01*
X109670524Y-86393291D01*
X109666757Y-86171252D01*
X109670159Y-85740769D01*
X108800384Y-85750361D01*
X108627039Y-85752180D01*
X108336906Y-85753484D01*
X108137125Y-85748990D01*
X108007468Y-85735902D01*
X107927713Y-85711422D01*
X107877633Y-85672751D01*
X107837004Y-85617092D01*
X107787212Y-85530863D01*
X107780141Y-85438657D01*
X107845947Y-85317722D01*
X107880345Y-85269080D01*
X107980307Y-85191848D01*
X108121190Y-85195751D01*
X108224872Y-85210971D01*
X108274380Y-85179926D01*
X108264106Y-85067036D01*
X108256551Y-85020602D01*
X108255476Y-84891287D01*
X108306426Y-84804979D01*
X108426353Y-84752892D01*
X108632210Y-84726237D01*
X108940952Y-84716229D01*
X109120377Y-84715191D01*
X109397466Y-84724023D01*
G37*
G36*
X112660631Y-99357360D02*
G01*
X112818732Y-99378664D01*
X112895787Y-99412537D01*
X112897114Y-99414929D01*
X112916437Y-99509466D01*
X112930482Y-99685645D01*
X112936290Y-99907311D01*
X112937597Y-100338663D01*
X113157223Y-100338663D01*
X113179315Y-100338614D01*
X113311227Y-100328448D01*
X113358387Y-100281783D01*
X113352332Y-100171618D01*
X113348636Y-100143224D01*
X113357036Y-99994582D01*
X113433697Y-99901797D01*
X113595129Y-99854055D01*
X113857840Y-99840544D01*
X114072754Y-99844622D01*
X114200137Y-99863684D01*
X114271464Y-99907942D01*
X114318737Y-99987605D01*
X114354100Y-100103729D01*
X114321215Y-100237991D01*
X114304018Y-100269908D01*
X114307335Y-100308251D01*
X114369921Y-100329344D01*
X114512037Y-100337898D01*
X114753946Y-100338625D01*
X114883113Y-100337490D01*
X115075718Y-100330998D01*
X115178588Y-100314982D01*
X115212275Y-100284648D01*
X115197330Y-100235201D01*
X115173956Y-100158044D01*
X115195900Y-99996614D01*
X115288764Y-99871487D01*
X115418786Y-99828386D01*
X115570272Y-99847315D01*
X115673743Y-99926146D01*
X115699665Y-100010186D01*
X115717353Y-100182573D01*
X115718282Y-100390332D01*
X115704039Y-100594711D01*
X115676211Y-100756956D01*
X115636386Y-100838312D01*
X115585594Y-100847762D01*
X115426606Y-100858065D01*
X115178531Y-100866225D01*
X114858799Y-100872289D01*
X114484843Y-100876301D01*
X114074092Y-100878308D01*
X113643978Y-100878356D01*
X113211931Y-100876489D01*
X112795383Y-100872753D01*
X112411764Y-100867194D01*
X112078505Y-100859858D01*
X111813038Y-100850789D01*
X111632793Y-100840035D01*
X111555201Y-100827639D01*
X111503838Y-100746953D01*
X111480142Y-100604715D01*
X111480529Y-100588560D01*
X111538997Y-100425163D01*
X111675882Y-100331090D01*
X111861030Y-100328231D01*
X111909936Y-100338001D01*
X111954474Y-100325294D01*
X111976340Y-100261106D01*
X111981476Y-100122600D01*
X111975823Y-99886936D01*
X111972383Y-99776106D01*
X111973386Y-99568351D01*
X112005882Y-99444148D01*
X112092002Y-99381537D01*
X112253877Y-99358555D01*
X112513638Y-99353240D01*
X112660631Y-99357360D01*
G37*
G36*
X104992730Y-91578201D02*
G01*
X105088808Y-91701902D01*
X105096246Y-91888627D01*
X105062410Y-92057808D01*
X105434042Y-92044369D01*
X105607899Y-92041361D01*
X105796489Y-92046188D01*
X105910756Y-92059228D01*
X105989584Y-92125745D01*
X106015839Y-92286292D01*
X106015737Y-92298174D01*
X105973075Y-92490536D01*
X105859927Y-92592758D01*
X105686359Y-92595396D01*
X105655409Y-92587975D01*
X105574324Y-92584658D01*
X105541565Y-92644057D01*
X105535461Y-92794809D01*
X105534614Y-92830189D01*
X105487351Y-93009177D01*
X105370343Y-93091443D01*
X105187256Y-93074046D01*
X105120193Y-93068233D01*
X105088144Y-93127282D01*
X105082173Y-93279238D01*
X105090350Y-93419530D01*
X105121886Y-93487787D01*
X105190189Y-93485570D01*
X105215381Y-93478239D01*
X105389748Y-93474614D01*
X105498169Y-93570306D01*
X105535461Y-93761178D01*
X105535782Y-93817096D01*
X105551146Y-93940021D01*
X105614705Y-93992393D01*
X105760638Y-94012332D01*
X105826024Y-94018267D01*
X105936499Y-94044868D01*
X105978912Y-94116693D01*
X105985815Y-94271158D01*
X105985815Y-94511347D01*
X105356642Y-94522351D01*
X105189742Y-94523319D01*
X104932120Y-94515688D01*
X104744712Y-94497653D01*
X104652364Y-94471024D01*
X104625035Y-94429135D01*
X104594086Y-94260510D01*
X104590994Y-93975999D01*
X104604728Y-93543304D01*
X104199741Y-93558003D01*
X104007675Y-93557143D01*
X103769348Y-93517001D01*
X103640337Y-93428490D01*
X103620980Y-93291923D01*
X103711617Y-93107611D01*
X103822476Y-93005256D01*
X103968182Y-92999948D01*
X103996858Y-93005440D01*
X104085011Y-93007211D01*
X104120514Y-92948677D01*
X104127079Y-92800000D01*
X104126912Y-92758213D01*
X104116037Y-92631830D01*
X104071031Y-92589056D01*
X103968182Y-92600051D01*
X103822601Y-92594796D01*
X103711617Y-92492389D01*
X103644152Y-92376504D01*
X103619161Y-92220738D01*
X103704062Y-92112948D01*
X103898644Y-92053327D01*
X104202696Y-92042071D01*
X104610637Y-92056843D01*
X104585774Y-91887446D01*
X104593540Y-91722824D01*
X104683106Y-91588459D01*
X104844917Y-91539007D01*
X104992730Y-91578201D01*
G37*
G36*
X115018446Y-87636558D02*
G01*
X115134352Y-87668441D01*
X115204899Y-87762159D01*
X115238265Y-87936527D01*
X115242629Y-88210357D01*
X115233097Y-88634662D01*
X115863593Y-88621978D01*
X116041517Y-88620670D01*
X116293533Y-88627883D01*
X116478168Y-88645058D01*
X116569149Y-88670392D01*
X116603106Y-88711561D01*
X116640832Y-88854891D01*
X116623806Y-89016927D01*
X116553988Y-89137239D01*
X116455136Y-89178375D01*
X116297607Y-89178883D01*
X116253882Y-89170542D01*
X116171043Y-89170093D01*
X116144752Y-89229672D01*
X116153691Y-89378909D01*
X116155273Y-89395880D01*
X116158210Y-89541947D01*
X116117067Y-89614216D01*
X116010471Y-89653696D01*
X115987211Y-89659082D01*
X115803655Y-89656424D01*
X115692699Y-89558562D01*
X115658947Y-89369221D01*
X115664466Y-89167112D01*
X115199508Y-89167126D01*
X115091987Y-89167424D01*
X114902301Y-89172462D01*
X114802963Y-89187985D01*
X114772837Y-89219426D01*
X114790782Y-89272222D01*
X114812581Y-89334398D01*
X114784855Y-89493452D01*
X114729733Y-89616732D01*
X114749526Y-89654141D01*
X114850385Y-89613429D01*
X114925077Y-89584118D01*
X115089922Y-89590468D01*
X115214082Y-89685329D01*
X115263120Y-89849043D01*
X115262701Y-89875920D01*
X115236256Y-90009439D01*
X115153674Y-90090758D01*
X114994045Y-90131570D01*
X114736459Y-90143570D01*
X114702862Y-90143622D01*
X114491637Y-90134521D01*
X114369803Y-90104183D01*
X114310811Y-90046558D01*
X114304667Y-90027262D01*
X114288443Y-89898874D01*
X114276126Y-89683354D01*
X114268826Y-89405348D01*
X114267654Y-89089500D01*
X114269877Y-88870151D01*
X114277078Y-88626714D01*
X114722695Y-88626714D01*
X114752718Y-88656737D01*
X114782742Y-88626714D01*
X114752718Y-88596690D01*
X114722695Y-88626714D01*
X114277078Y-88626714D01*
X114279017Y-88561157D01*
X114299521Y-88347947D01*
X114336964Y-88214924D01*
X114396920Y-88146492D01*
X114484964Y-88127055D01*
X114606671Y-88141017D01*
X114696152Y-88151129D01*
X114742596Y-88114321D01*
X114734881Y-87991978D01*
X114742336Y-87819835D01*
X114752718Y-87804102D01*
X114831258Y-87685082D01*
X114992908Y-87635934D01*
X115018446Y-87636558D01*
G37*
G36*
X108192183Y-97893619D02*
G01*
X108299054Y-97996810D01*
X108341438Y-98149811D01*
X108296929Y-98325670D01*
X108271957Y-98366951D01*
X108184460Y-98431390D01*
X108036622Y-98427545D01*
X107968867Y-98417378D01*
X107884102Y-98423043D01*
X107852172Y-98489265D01*
X107847250Y-98645809D01*
X107847218Y-98894799D01*
X108477746Y-98882531D01*
X108673430Y-98879944D01*
X108914506Y-98880506D01*
X109092927Y-98885479D01*
X109179997Y-98894379D01*
X109213214Y-98939407D01*
X109242003Y-99100935D01*
X109251720Y-99374820D01*
X109251464Y-99465842D01*
X109245392Y-99666444D01*
X109225360Y-99785547D01*
X109183647Y-99851978D01*
X109112534Y-99894564D01*
X109017651Y-99925053D01*
X108856252Y-99906502D01*
X108752688Y-99795800D01*
X108729982Y-99610069D01*
X108730600Y-99604750D01*
X108736784Y-99469337D01*
X108692978Y-99413947D01*
X108570803Y-99401369D01*
X108530321Y-99400417D01*
X108332269Y-99394377D01*
X108117445Y-99386357D01*
X107847184Y-99375177D01*
X107847233Y-99624167D01*
X107847880Y-99713159D01*
X107862669Y-99822231D01*
X107916974Y-99855399D01*
X108036622Y-99842431D01*
X108096260Y-99835721D01*
X108218435Y-99858195D01*
X108293252Y-99951747D01*
X108328791Y-100131968D01*
X108333135Y-100414448D01*
X108318974Y-100625568D01*
X108273467Y-100793581D01*
X108185737Y-100880110D01*
X108043819Y-100905463D01*
X107959929Y-100882822D01*
X107852827Y-100779095D01*
X107794989Y-100633707D01*
X107812990Y-100494026D01*
X107813339Y-100493372D01*
X107868919Y-100366590D01*
X107865940Y-100315021D01*
X107805248Y-100353948D01*
X107682641Y-100415259D01*
X107528861Y-100415474D01*
X107412221Y-100350945D01*
X107409259Y-100344337D01*
X107396643Y-100247576D01*
X107385741Y-100058490D01*
X107376783Y-99799861D01*
X107370002Y-99494473D01*
X107365627Y-99165108D01*
X107363889Y-98834551D01*
X107365021Y-98525585D01*
X107369252Y-98260991D01*
X107376815Y-98063554D01*
X107387939Y-97956058D01*
X107389242Y-97951740D01*
X107460368Y-97902177D01*
X107591420Y-97884181D01*
X107728145Y-97905771D01*
X107809720Y-97921346D01*
X107942656Y-97899558D01*
X108043234Y-97867188D01*
X108192183Y-97893619D01*
G37*
G36*
X115750128Y-93005791D02*
G01*
X115965472Y-93025685D01*
X116090937Y-93074728D01*
X116149423Y-93167353D01*
X116163830Y-93317992D01*
X116169616Y-93439116D01*
X116202618Y-93499978D01*
X116281656Y-93491263D01*
X116369999Y-93481351D01*
X116518201Y-93517403D01*
X116593816Y-93547137D01*
X116674131Y-93520730D01*
X116764629Y-93466104D01*
X116901297Y-93477966D01*
X117030226Y-93554880D01*
X117066206Y-93595869D01*
X117121099Y-93752913D01*
X117064330Y-93941288D01*
X117028536Y-93989868D01*
X116951833Y-94028260D01*
X116814365Y-94043427D01*
X116586714Y-94041545D01*
X116169353Y-94029214D01*
X116151580Y-94270280D01*
X116145597Y-94344063D01*
X116120265Y-94460004D01*
X116052075Y-94504263D01*
X115905852Y-94511347D01*
X115890415Y-94511373D01*
X115751919Y-94520200D01*
X115702122Y-94558864D01*
X115712151Y-94647686D01*
X115720511Y-94748417D01*
X115684792Y-94899150D01*
X115681898Y-94904443D01*
X115648109Y-94947622D01*
X115590562Y-94977284D01*
X115489997Y-94995541D01*
X115327154Y-95004505D01*
X115082773Y-95006288D01*
X114737594Y-95003001D01*
X113852009Y-94991726D01*
X113852009Y-94751536D01*
X113852552Y-94672249D01*
X113869210Y-94559751D01*
X113934049Y-94517671D01*
X114079964Y-94511347D01*
X114100709Y-94511302D01*
X114236306Y-94502141D01*
X114284000Y-94462427D01*
X114272692Y-94371134D01*
X114267739Y-94350379D01*
X114259535Y-94155381D01*
X114341492Y-94039337D01*
X114514463Y-94000945D01*
X114560732Y-94002945D01*
X114730726Y-94062208D01*
X114811372Y-94191048D01*
X114789944Y-94372309D01*
X114775070Y-94413789D01*
X114770759Y-94479942D01*
X114834376Y-94506484D01*
X114991974Y-94511347D01*
X115060042Y-94510945D01*
X115180631Y-94500498D01*
X115215178Y-94463546D01*
X115188768Y-94383836D01*
X115164454Y-94303793D01*
X115198362Y-94129843D01*
X115234038Y-94050485D01*
X115206243Y-94021734D01*
X115084594Y-94039653D01*
X114891958Y-94036970D01*
X114766666Y-93941727D01*
X114722695Y-93760756D01*
X114723668Y-93727930D01*
X114776970Y-93557484D01*
X114901659Y-93478995D01*
X115083742Y-93502475D01*
X115197969Y-93540349D01*
X115229891Y-93518279D01*
X115197427Y-93415646D01*
X115171372Y-93288084D01*
X115227688Y-93130087D01*
X115257187Y-93089716D01*
X115334422Y-93031021D01*
X115458057Y-93005764D01*
X115664626Y-93003349D01*
X115750128Y-93005791D01*
G37*
G36*
X117768788Y-91060300D02*
G01*
X117895841Y-91095142D01*
X117971649Y-91189878D01*
X118005919Y-91363891D01*
X118008362Y-91636561D01*
X117995272Y-92056700D01*
X118400258Y-92041999D01*
X118628106Y-92041255D01*
X118798310Y-92064744D01*
X118895648Y-92117702D01*
X118962844Y-92205530D01*
X118973765Y-92331014D01*
X118888383Y-92492389D01*
X118777524Y-92594743D01*
X118631817Y-92600051D01*
X118603141Y-92594559D01*
X118514989Y-92592788D01*
X118479486Y-92651323D01*
X118472920Y-92800000D01*
X118473100Y-92843677D01*
X118484126Y-92969012D01*
X118529691Y-93011027D01*
X118633843Y-92999543D01*
X118667021Y-92993906D01*
X118793195Y-93011121D01*
X118895388Y-93120928D01*
X118927332Y-93178419D01*
X118958085Y-93351194D01*
X118897475Y-93489685D01*
X118765145Y-93566777D01*
X118580733Y-93555355D01*
X118578973Y-93554802D01*
X118513384Y-93552785D01*
X118483037Y-93618419D01*
X118475650Y-93777688D01*
X118476429Y-93873664D01*
X118491887Y-93982878D01*
X118546618Y-94018523D01*
X118665506Y-94011208D01*
X118750261Y-94010971D01*
X118898136Y-94076733D01*
X118967696Y-94211672D01*
X118938558Y-94387681D01*
X118913496Y-94464302D01*
X118939032Y-94626829D01*
X118965807Y-94702162D01*
X118935272Y-94875271D01*
X118922738Y-94901437D01*
X118876583Y-94963473D01*
X118799355Y-94996160D01*
X118661442Y-95007082D01*
X118433230Y-95003823D01*
X117995272Y-94991726D01*
X117977413Y-94748915D01*
X117971180Y-94671531D01*
X117947461Y-94558597D01*
X117886006Y-94521699D01*
X117755491Y-94529927D01*
X117619583Y-94557783D01*
X117556985Y-94625376D01*
X117533161Y-94772738D01*
X117531213Y-94795377D01*
X117507575Y-94928517D01*
X117444628Y-94981938D01*
X117304728Y-94991726D01*
X117094562Y-94991726D01*
X117094562Y-94511347D01*
X117094562Y-94030969D01*
X117508942Y-94016905D01*
X117517047Y-94016626D01*
X117724922Y-94006774D01*
X117877961Y-93994577D01*
X117943552Y-93982610D01*
X117945648Y-93978312D01*
X117957507Y-93893101D01*
X117969572Y-93724670D01*
X117979528Y-93503832D01*
X117984426Y-93345675D01*
X117984049Y-93178501D01*
X117968266Y-93093568D01*
X117930896Y-93067737D01*
X117865758Y-93077867D01*
X117767037Y-93084298D01*
X117611696Y-93043792D01*
X117606319Y-93040873D01*
X117543583Y-92991845D01*
X117509498Y-92912274D01*
X117497500Y-92772420D01*
X117501020Y-92542545D01*
X117514893Y-92107955D01*
X117064539Y-92107953D01*
X116614184Y-92107951D01*
X116627275Y-92525196D01*
X116628040Y-92551846D01*
X116622339Y-92818484D01*
X116583328Y-92986888D01*
X116503162Y-93074868D01*
X116373995Y-93100236D01*
X116229488Y-93062691D01*
X116130361Y-92937959D01*
X116115969Y-92744192D01*
X116125864Y-92638573D01*
X116092740Y-92587980D01*
X115982576Y-92599064D01*
X115978947Y-92599779D01*
X115819736Y-92598459D01*
X115714457Y-92514217D01*
X115656290Y-92336248D01*
X115638416Y-92053749D01*
X115646344Y-91861256D01*
X115670653Y-91692425D01*
X115705969Y-91607283D01*
X115727088Y-91599009D01*
X115852310Y-91581903D01*
X116064697Y-91569140D01*
X116341135Y-91561840D01*
X116658507Y-91561124D01*
X116750156Y-91561909D01*
X117066503Y-91563284D01*
X117284010Y-91560020D01*
X117419833Y-91550070D01*
X117491128Y-91531384D01*
X117515051Y-91501915D01*
X117508759Y-91459614D01*
X117495243Y-91363244D01*
X117510615Y-91204413D01*
X117515512Y-91186425D01*
X117581380Y-91085961D01*
X117718850Y-91058629D01*
X117768788Y-91060300D01*
G37*
G36*
X111565773Y-90477760D02*
G01*
X111990544Y-90626592D01*
X112055211Y-90660510D01*
X112420630Y-90910689D01*
X112739653Y-91224948D01*
X112975510Y-91568141D01*
X113002967Y-91624328D01*
X113073253Y-91815578D01*
X113101418Y-91973460D01*
X113101166Y-92000490D01*
X113084067Y-92093465D01*
X113015487Y-92131916D01*
X112861229Y-92139480D01*
X112791862Y-92139024D01*
X112673885Y-92123903D01*
X112628482Y-92064901D01*
X112621040Y-91932140D01*
X112589734Y-91682115D01*
X112474706Y-91477962D01*
X112257788Y-91311664D01*
X112233568Y-91297917D01*
X112085014Y-91227695D01*
X112028997Y-91231919D01*
X112067050Y-91306896D01*
X112200709Y-91448936D01*
X112232628Y-91481859D01*
X112345746Y-91664102D01*
X112385027Y-91855534D01*
X112354351Y-92027612D01*
X112257601Y-92151791D01*
X112098656Y-92199527D01*
X112068250Y-92171412D01*
X112006913Y-92056906D01*
X111938136Y-91884279D01*
X111870023Y-91707299D01*
X111756057Y-91501988D01*
X111607729Y-91356156D01*
X111394532Y-91233271D01*
X111389584Y-91230885D01*
X111191587Y-91149472D01*
X111027130Y-91127773D01*
X110851698Y-91168046D01*
X110620775Y-91272551D01*
X110488513Y-91331512D01*
X110313730Y-91386955D01*
X110197807Y-91395933D01*
X110073789Y-91384678D01*
X109904210Y-91400836D01*
X109803236Y-91427892D01*
X109750796Y-91488543D01*
X109763733Y-91618786D01*
X109811288Y-91768386D01*
X109884550Y-91895350D01*
X109901206Y-91922379D01*
X109936588Y-92067376D01*
X109955487Y-92289882D01*
X109958838Y-92559423D01*
X109947574Y-92845524D01*
X109922630Y-93117710D01*
X109884938Y-93345506D01*
X109835433Y-93498437D01*
X109767136Y-93670400D01*
X109782526Y-93793752D01*
X109897892Y-93861278D01*
X110120490Y-93882761D01*
X110212484Y-93886631D01*
X110412696Y-93918357D01*
X110545874Y-93972831D01*
X110585577Y-93996082D01*
X110772280Y-94044212D01*
X111050488Y-94060993D01*
X111100990Y-94060915D01*
X111297164Y-94054085D01*
X111425704Y-94024062D01*
X111530394Y-93953864D01*
X111655019Y-93826506D01*
X111720086Y-93749591D01*
X111865026Y-93536621D01*
X111966221Y-93332221D01*
X112060946Y-93072423D01*
X112536147Y-93092174D01*
X112568582Y-93093532D01*
X112820472Y-93106537D01*
X112977175Y-93124944D01*
X113061216Y-93156732D01*
X113095122Y-93209877D01*
X113101418Y-93292357D01*
X113080671Y-93410920D01*
X113002228Y-93607583D01*
X112882204Y-93828797D01*
X112738591Y-94047666D01*
X112589383Y-94237298D01*
X112452571Y-94370800D01*
X112346148Y-94421276D01*
X112309193Y-94426324D01*
X112260756Y-94472204D01*
X112248787Y-94492528D01*
X112157414Y-94555729D01*
X112005555Y-94628486D01*
X111938527Y-94656502D01*
X111764907Y-94731993D01*
X111646086Y-94787724D01*
X111634472Y-94793150D01*
X111480050Y-94826759D01*
X111254990Y-94839197D01*
X111001637Y-94831549D01*
X110762337Y-94804903D01*
X110579432Y-94760345D01*
X110482466Y-94722424D01*
X110072565Y-94521418D01*
X109748535Y-94275885D01*
X109482668Y-93960664D01*
X109247254Y-93550591D01*
X109210738Y-93474869D01*
X109136521Y-93295902D01*
X109093316Y-93124721D01*
X109072702Y-92918744D01*
X109066257Y-92635391D01*
X109066938Y-92511105D01*
X109076967Y-92274735D01*
X109096329Y-92095517D01*
X109122233Y-92004895D01*
X109173739Y-91907111D01*
X109223716Y-91754289D01*
X109223855Y-91753711D01*
X109312351Y-91538249D01*
X109486389Y-91288535D01*
X109755089Y-90991476D01*
X109869621Y-90885104D01*
X110243814Y-90640932D01*
X110667705Y-90488962D01*
X111116592Y-90433228D01*
X111565773Y-90477760D01*
G37*
G36*
X114659531Y-85712752D02*
G01*
X114724007Y-85756415D01*
X114810481Y-85902511D01*
X114787410Y-86092450D01*
X114783407Y-86103066D01*
X114763202Y-86186964D01*
X114808607Y-86214580D01*
X114946122Y-86204647D01*
X115104294Y-86205364D01*
X115209063Y-86262482D01*
X115235900Y-86322039D01*
X115261281Y-86465012D01*
X115233367Y-86625160D01*
X115131607Y-86715367D01*
X114944399Y-86725175D01*
X114939685Y-86724627D01*
X114805283Y-86715286D01*
X114764602Y-86740758D01*
X114793549Y-86815465D01*
X114823888Y-86897095D01*
X114807752Y-87054402D01*
X114700987Y-87170392D01*
X114523478Y-87215603D01*
X114321687Y-87215603D01*
X114335862Y-87620922D01*
X114336277Y-87847402D01*
X114311876Y-88024245D01*
X114256846Y-88131324D01*
X114235415Y-88153844D01*
X114092093Y-88234390D01*
X113958724Y-88211313D01*
X113860343Y-88097578D01*
X113821986Y-87906146D01*
X113811835Y-87784450D01*
X113755803Y-87730529D01*
X113616982Y-87720000D01*
X113592111Y-87720096D01*
X113468944Y-87734078D01*
X113413792Y-87796803D01*
X113390625Y-87943912D01*
X113386414Y-87989774D01*
X113385573Y-88109937D01*
X113427669Y-88148234D01*
X113535432Y-88134592D01*
X113710170Y-88138661D01*
X113836594Y-88235374D01*
X113882033Y-88416548D01*
X113842788Y-88587727D01*
X113721745Y-88690382D01*
X113532541Y-88697927D01*
X113428362Y-88683409D01*
X113381160Y-88718899D01*
X113389468Y-88841119D01*
X113387145Y-88985785D01*
X113341151Y-89107642D01*
X113336517Y-89113001D01*
X113209110Y-89183967D01*
X113054921Y-89187733D01*
X112935553Y-89122104D01*
X112929190Y-89109978D01*
X112908005Y-88993694D01*
X112892624Y-88780449D01*
X112884021Y-88488522D01*
X112883165Y-88136192D01*
X112891253Y-87225339D01*
X112681087Y-87205302D01*
X112470922Y-87185266D01*
X112476196Y-88106592D01*
X112476748Y-88314495D01*
X112472033Y-88649919D01*
X112456258Y-88888987D01*
X112425485Y-89047473D01*
X112375773Y-89141149D01*
X112303182Y-89185788D01*
X112203772Y-89197163D01*
X112075793Y-89156898D01*
X111986059Y-89029378D01*
X111972706Y-88841119D01*
X111982645Y-88732282D01*
X111946734Y-88684590D01*
X111829633Y-88697927D01*
X111651515Y-88694105D01*
X111525296Y-88597687D01*
X111480142Y-88416548D01*
X111518335Y-88247889D01*
X111638435Y-88143259D01*
X111825562Y-88134356D01*
X111884205Y-88144928D01*
X111957272Y-88137794D01*
X111985723Y-88068288D01*
X111990544Y-87907564D01*
X111990530Y-87896680D01*
X111983124Y-87743131D01*
X111954868Y-87684906D01*
X111895169Y-87698819D01*
X111736793Y-87728623D01*
X111588451Y-87666239D01*
X111500666Y-87529394D01*
X111498627Y-87520999D01*
X111499133Y-87339081D01*
X111597330Y-87225061D01*
X111787675Y-87185579D01*
X111844154Y-87185067D01*
X111944961Y-87167567D01*
X111984018Y-87099206D01*
X111990544Y-86945390D01*
X111990111Y-86878521D01*
X111975330Y-86759169D01*
X111917591Y-86712927D01*
X111787675Y-86705201D01*
X111775862Y-86705097D01*
X111590114Y-86661801D01*
X111497095Y-86543996D01*
X111501630Y-86357547D01*
X111515184Y-86309092D01*
X111550226Y-86248664D01*
X111622211Y-86216515D01*
X111758852Y-86203749D01*
X111987863Y-86201471D01*
X112021802Y-86201509D01*
X112241647Y-86206162D01*
X112372029Y-86223360D01*
X112440186Y-86259895D01*
X112473356Y-86322563D01*
X112489059Y-86411016D01*
X112478967Y-86574428D01*
X112470677Y-86613110D01*
X112476325Y-86651716D01*
X112516737Y-86677670D01*
X112608981Y-86693483D01*
X112770121Y-86701667D01*
X113017223Y-86704736D01*
X113367355Y-86705201D01*
X114288564Y-86705201D01*
X114269906Y-86269681D01*
X114268317Y-86229640D01*
X114268086Y-85986187D01*
X114291224Y-85832778D01*
X114341143Y-85744267D01*
X114396723Y-85695515D01*
X114511320Y-85658915D01*
X114659531Y-85712752D01*
G37*
G36*
X107992141Y-87164860D02*
G01*
X108154879Y-87179780D01*
X108247871Y-87216986D01*
X108302637Y-87284996D01*
X108338629Y-87386426D01*
X108325691Y-87548546D01*
X108239459Y-87672953D01*
X108103819Y-87732190D01*
X107942656Y-87698799D01*
X107924201Y-87690212D01*
X107883968Y-87694080D01*
X107860662Y-87756954D01*
X107849895Y-87899176D01*
X107847281Y-88141090D01*
X107847281Y-88634445D01*
X108207565Y-88621340D01*
X108442535Y-88616322D01*
X108622329Y-88629099D01*
X108723497Y-88671633D01*
X108768054Y-88754176D01*
X108778014Y-88886978D01*
X108778233Y-88933749D01*
X108792714Y-89055081D01*
X108855783Y-89103449D01*
X109003191Y-89115071D01*
X109228369Y-89121016D01*
X109214485Y-88409359D01*
X109200602Y-87697702D01*
X109358885Y-87657976D01*
X109392279Y-87650557D01*
X109567933Y-87658712D01*
X109671837Y-87762765D01*
X109701765Y-87960750D01*
X109703610Y-88088357D01*
X109733081Y-88150497D01*
X109806848Y-88143787D01*
X109967914Y-88124542D01*
X110108107Y-88188484D01*
X110173891Y-88328968D01*
X110147880Y-88526481D01*
X110123667Y-88615297D01*
X110157755Y-88646270D01*
X110281298Y-88626252D01*
X110416708Y-88614636D01*
X110551868Y-88658779D01*
X110609459Y-88747598D01*
X110639480Y-88896926D01*
X110597448Y-89076595D01*
X110475596Y-89168966D01*
X110281298Y-89167601D01*
X110164442Y-89147453D01*
X110124440Y-89172954D01*
X110150658Y-89267372D01*
X110173218Y-89376910D01*
X110158560Y-89527423D01*
X110142260Y-89610465D01*
X110163562Y-89742892D01*
X110179221Y-89789393D01*
X110184316Y-89919534D01*
X110157320Y-90043670D01*
X110107063Y-90105192D01*
X110068102Y-90108041D01*
X109928513Y-90113793D01*
X109714932Y-90120632D01*
X109454596Y-90127622D01*
X109290964Y-90130547D01*
X109021983Y-90124643D01*
X108848569Y-90096051D01*
X108754413Y-90037291D01*
X108723205Y-89940888D01*
X108738638Y-89799363D01*
X108754999Y-89686106D01*
X108721513Y-89641027D01*
X108605825Y-89654934D01*
X108508149Y-89659156D01*
X108360551Y-89601925D01*
X108262307Y-89488752D01*
X108235061Y-89350582D01*
X108300458Y-89218359D01*
X108314160Y-89196103D01*
X108265382Y-89167212D01*
X108105304Y-89161315D01*
X107847281Y-89167139D01*
X107861015Y-89596190D01*
X107863097Y-89734197D01*
X107844930Y-89962706D01*
X107787397Y-90095822D01*
X107680791Y-90148721D01*
X107515406Y-90136580D01*
X107402209Y-90118677D01*
X107365124Y-90141359D01*
X107401638Y-90226770D01*
X107430749Y-90300479D01*
X107424360Y-90465658D01*
X107327555Y-90589513D01*
X107160137Y-90638298D01*
X107144286Y-90637947D01*
X106977209Y-90580256D01*
X106881622Y-90443811D01*
X106878795Y-90257409D01*
X106886326Y-90172592D01*
X106831789Y-90135838D01*
X106686338Y-90127896D01*
X106656068Y-90127988D01*
X106526055Y-90138610D01*
X106479706Y-90185183D01*
X106485693Y-90293576D01*
X106475667Y-90464560D01*
X106376088Y-90592806D01*
X106192675Y-90638298D01*
X106182506Y-90638149D01*
X106035911Y-90586399D01*
X105966399Y-90450864D01*
X105981201Y-90244996D01*
X105996160Y-90152225D01*
X105955420Y-90120468D01*
X105827494Y-90138544D01*
X105797287Y-90144099D01*
X105651892Y-90142034D01*
X105556473Y-90065680D01*
X105520686Y-90007423D01*
X105482932Y-89836002D01*
X105532968Y-89688483D01*
X105653720Y-89595029D01*
X105828114Y-89585805D01*
X105853488Y-89591194D01*
X105943047Y-89595729D01*
X105979134Y-89539310D01*
X105985815Y-89392426D01*
X105985529Y-89335636D01*
X105970631Y-89216812D01*
X105907369Y-89171586D01*
X105760638Y-89164410D01*
X105710189Y-89164640D01*
X105589282Y-89178982D01*
X105542957Y-89241294D01*
X105535461Y-89386905D01*
X105534512Y-89422068D01*
X105484675Y-89592368D01*
X105361765Y-89667770D01*
X105169430Y-89645693D01*
X105107195Y-89616815D01*
X105062928Y-89538423D01*
X105064804Y-89383281D01*
X105086020Y-89160810D01*
X104695936Y-89173429D01*
X104502671Y-89172776D01*
X104313402Y-89157174D01*
X104200089Y-89129446D01*
X104147844Y-89079806D01*
X104099580Y-88941835D01*
X104105451Y-88786641D01*
X104169385Y-88672668D01*
X104170680Y-88671763D01*
X104256682Y-88654591D01*
X104440057Y-88641002D01*
X104699164Y-88630972D01*
X105012363Y-88624474D01*
X105358013Y-88621485D01*
X105714474Y-88621979D01*
X106060107Y-88625932D01*
X106373269Y-88633317D01*
X106632322Y-88644111D01*
X106815625Y-88658288D01*
X106901536Y-88675824D01*
X106952911Y-88756275D01*
X106976596Y-88898358D01*
X106976221Y-88914247D01*
X106917870Y-89077737D01*
X106780997Y-89171968D01*
X106595707Y-89175070D01*
X106568005Y-89168794D01*
X106500701Y-89173490D01*
X106471678Y-89242104D01*
X106464827Y-89402649D01*
X106464976Y-89491988D01*
X106476023Y-89603068D01*
X106515816Y-89630680D01*
X106601562Y-89599609D01*
X106706079Y-89567571D01*
X106805448Y-89602470D01*
X106881400Y-89637734D01*
X107018434Y-89601185D01*
X107128770Y-89566773D01*
X107266269Y-89596972D01*
X107269244Y-89598798D01*
X107302978Y-89610508D01*
X107327737Y-89589414D01*
X107344740Y-89520969D01*
X107355203Y-89390627D01*
X107360346Y-89183840D01*
X107361385Y-88886064D01*
X107359539Y-88482751D01*
X107359437Y-88465648D01*
X107360152Y-88091112D01*
X107366182Y-87762072D01*
X107376793Y-87497172D01*
X107391248Y-87315056D01*
X107408812Y-87234367D01*
X107466712Y-87203452D01*
X107626405Y-87173997D01*
X107851415Y-87163061D01*
X107992141Y-87164860D01*
G37*
G36*
X108639680Y-91557345D02*
G01*
X108724405Y-91573010D01*
X108742078Y-91639700D01*
X108757318Y-91802192D01*
X108768390Y-92035919D01*
X108773671Y-92316378D01*
X108775057Y-92503761D01*
X108772591Y-92764692D01*
X108751758Y-92934449D01*
X108698549Y-93031717D01*
X108598954Y-93075183D01*
X108438964Y-93083532D01*
X108204569Y-93075451D01*
X107841289Y-93062211D01*
X107866193Y-93231892D01*
X107870562Y-93269925D01*
X107842413Y-93450691D01*
X107727767Y-93550129D01*
X107534717Y-93560222D01*
X107412307Y-93545508D01*
X107368727Y-93566730D01*
X107396834Y-93640489D01*
X107422170Y-93716963D01*
X107403773Y-93892866D01*
X107392696Y-93922805D01*
X107380254Y-93996228D01*
X107434329Y-94019740D01*
X107581243Y-94010839D01*
X107733326Y-94005704D01*
X107810572Y-94042376D01*
X107850040Y-94140677D01*
X107864577Y-94261309D01*
X107846415Y-94424006D01*
X107807543Y-94502672D01*
X107728044Y-94535227D01*
X107571799Y-94524261D01*
X107524148Y-94518037D01*
X107403774Y-94510038D01*
X107371764Y-94537992D01*
X107404123Y-94614864D01*
X107438092Y-94720072D01*
X107402084Y-94884290D01*
X107359496Y-94958234D01*
X107270369Y-95013222D01*
X107110682Y-95018420D01*
X107110478Y-95018407D01*
X106890504Y-95011380D01*
X106676359Y-95013356D01*
X106635715Y-95015196D01*
X106519645Y-95034696D01*
X106474084Y-95100452D01*
X106466194Y-95249335D01*
X106466314Y-95284162D01*
X106477203Y-95412949D01*
X106523906Y-95458689D01*
X106631874Y-95452605D01*
X106696513Y-95447920D01*
X106863508Y-95493774D01*
X106959318Y-95609487D01*
X106968902Y-95765622D01*
X106877218Y-95932742D01*
X106755965Y-96018138D01*
X106621524Y-96038953D01*
X106526141Y-95982343D01*
X106488098Y-95955034D01*
X106370210Y-95985670D01*
X106282120Y-96015625D01*
X106140162Y-96013871D01*
X106074847Y-96006287D01*
X106030607Y-96060613D01*
X106006867Y-96208863D01*
X105984901Y-96439190D01*
X106374985Y-96426570D01*
X106568250Y-96427223D01*
X106757520Y-96442826D01*
X106870832Y-96470554D01*
X106938330Y-96540666D01*
X106975930Y-96683567D01*
X106953685Y-96832543D01*
X106871513Y-96932542D01*
X106845703Y-96941049D01*
X106707941Y-96959206D01*
X106491512Y-96971320D01*
X106224795Y-96977522D01*
X105936167Y-96977944D01*
X105654009Y-96972718D01*
X105406700Y-96961975D01*
X105222618Y-96945846D01*
X105130142Y-96924464D01*
X105125376Y-96920989D01*
X105075572Y-96825484D01*
X105055083Y-96673552D01*
X105055084Y-96672124D01*
X105098394Y-96498590D01*
X105218191Y-96414155D01*
X105401069Y-96428323D01*
X105424400Y-96434342D01*
X105468295Y-96424396D01*
X105493198Y-96360347D01*
X105504318Y-96220214D01*
X105506867Y-95982014D01*
X105506867Y-95502127D01*
X105293032Y-95502127D01*
X105257181Y-95502226D01*
X105135365Y-95514339D01*
X105094945Y-95571944D01*
X105103544Y-95710673D01*
X105110481Y-95815902D01*
X105079868Y-95919679D01*
X104978988Y-95987064D01*
X104854401Y-96023839D01*
X104706039Y-95988521D01*
X104625033Y-95956774D01*
X104544781Y-95982343D01*
X104527596Y-96005810D01*
X104425392Y-96054303D01*
X104305782Y-96019996D01*
X104195765Y-95924500D01*
X104122342Y-95789424D01*
X104112512Y-95636377D01*
X104114260Y-95627585D01*
X104125860Y-95519058D01*
X104079768Y-95482260D01*
X103945499Y-95490580D01*
X103850861Y-95490786D01*
X103700752Y-95425445D01*
X103631252Y-95291913D01*
X103661442Y-95115392D01*
X103686503Y-95038771D01*
X103660968Y-94876243D01*
X103635265Y-94808081D01*
X103660968Y-94636054D01*
X103686670Y-94557409D01*
X103660968Y-94395865D01*
X103633948Y-94325767D01*
X103648017Y-94170632D01*
X103746390Y-94049698D01*
X103905544Y-94000945D01*
X103964224Y-94003158D01*
X104085056Y-94038070D01*
X104155343Y-94131052D01*
X104184844Y-94302146D01*
X104183319Y-94571395D01*
X104165490Y-94991726D01*
X104865487Y-94981589D01*
X104867164Y-94981564D01*
X105265045Y-94975847D01*
X105558239Y-94970868D01*
X105762076Y-94965109D01*
X105891886Y-94957053D01*
X105962999Y-94945181D01*
X105990745Y-94927977D01*
X105990453Y-94903921D01*
X105977455Y-94871497D01*
X105964191Y-94780229D01*
X105980860Y-94629807D01*
X105993597Y-94583923D01*
X106027392Y-94525180D01*
X106097499Y-94496007D01*
X106231798Y-94488519D01*
X106458166Y-94494835D01*
X106897452Y-94511347D01*
X106891988Y-94271051D01*
X106886525Y-94030755D01*
X106496384Y-94040905D01*
X106440501Y-94042035D01*
X106198174Y-94032364D01*
X106050065Y-93988007D01*
X105975997Y-93898184D01*
X105955792Y-93752116D01*
X105966154Y-93675264D01*
X106051728Y-93540278D01*
X106192552Y-93476510D01*
X106350636Y-93507497D01*
X106422812Y-93534228D01*
X106567356Y-93499705D01*
X106658752Y-93462879D01*
X106787073Y-93500774D01*
X106812605Y-93516039D01*
X106868623Y-93530233D01*
X106890789Y-93470816D01*
X106892156Y-93314670D01*
X106886763Y-93070213D01*
X107336879Y-93070213D01*
X107366903Y-93100236D01*
X107396926Y-93070213D01*
X107366903Y-93040189D01*
X107336879Y-93070213D01*
X106886763Y-93070213D01*
X106886525Y-93059423D01*
X106499161Y-93077166D01*
X106312281Y-93078241D01*
X106132846Y-93061855D01*
X106033794Y-93030173D01*
X105999642Y-92987594D01*
X105960295Y-92845172D01*
X105970563Y-92686869D01*
X106030851Y-92575124D01*
X106043700Y-92568681D01*
X106159901Y-92548283D01*
X106369591Y-92533268D01*
X106651981Y-92524751D01*
X106986281Y-92523848D01*
X107068565Y-92524584D01*
X107366903Y-92526058D01*
X107386025Y-92526153D01*
X107603664Y-92523159D01*
X107738172Y-92513615D01*
X107806240Y-92495535D01*
X107824559Y-92466931D01*
X107809819Y-92425817D01*
X107787294Y-92361180D01*
X107817257Y-92199527D01*
X107845052Y-92127151D01*
X107822453Y-91969046D01*
X107814716Y-91953369D01*
X107788564Y-91799124D01*
X107831156Y-91656842D01*
X107928824Y-91576906D01*
X107950986Y-91572074D01*
X108090790Y-91557200D01*
X108280453Y-91549648D01*
X108477556Y-91549627D01*
X108639680Y-91557345D01*
G37*
G36*
X108109687Y-94481507D02*
G01*
X108194714Y-94489376D01*
X108255923Y-94520751D01*
X108296979Y-94591727D01*
X108321549Y-94718400D01*
X108333298Y-94916867D01*
X108335893Y-95203223D01*
X108333000Y-95593563D01*
X108324694Y-96435590D01*
X108538951Y-96435590D01*
X108551422Y-96435574D01*
X108686015Y-96425988D01*
X108734523Y-96379627D01*
X108728692Y-96268545D01*
X108728087Y-96264360D01*
X108729961Y-96103765D01*
X108801253Y-96002844D01*
X108957808Y-95950802D01*
X109215472Y-95936839D01*
X109464922Y-95948546D01*
X109630075Y-95989183D01*
X109714851Y-96068360D01*
X109738770Y-96195735D01*
X109738723Y-96201523D01*
X109686456Y-96375236D01*
X109557428Y-96484949D01*
X109383669Y-96502951D01*
X109228369Y-96471891D01*
X109228369Y-96949240D01*
X109228369Y-97426588D01*
X109386070Y-97391951D01*
X109440542Y-97384301D01*
X109603540Y-97424057D01*
X109705561Y-97549719D01*
X109723887Y-97738015D01*
X109714865Y-97822661D01*
X109735917Y-97887177D01*
X109818272Y-97881533D01*
X109897940Y-97873619D01*
X110044956Y-97907203D01*
X110108699Y-97932205D01*
X110133620Y-97894917D01*
X110119158Y-97764452D01*
X110118035Y-97643566D01*
X110177802Y-97487805D01*
X110287982Y-97384562D01*
X110392550Y-97361535D01*
X110421783Y-97355097D01*
X110552411Y-97420669D01*
X110558003Y-97424716D01*
X110585833Y-97381251D01*
X110603362Y-97228358D01*
X110609456Y-96974885D01*
X110609456Y-96472025D01*
X110454155Y-96503018D01*
X110296886Y-96502414D01*
X110190999Y-96418341D01*
X110132219Y-96239946D01*
X110114066Y-95956822D01*
X110114242Y-95952482D01*
X110579432Y-95952482D01*
X110609456Y-95982506D01*
X110639480Y-95952482D01*
X110609456Y-95922458D01*
X110579432Y-95952482D01*
X110114242Y-95952482D01*
X110121828Y-95765555D01*
X110146097Y-95596739D01*
X110181619Y-95512355D01*
X110227921Y-95497064D01*
X110378151Y-95477262D01*
X110600050Y-95462988D01*
X110609456Y-95462761D01*
X110864705Y-95456602D01*
X111014308Y-95456326D01*
X111253006Y-95461496D01*
X111404913Y-95477124D01*
X111492542Y-95506416D01*
X111538411Y-95552581D01*
X111580597Y-95651606D01*
X111593394Y-95797278D01*
X111542453Y-95891035D01*
X111517384Y-95940959D01*
X111550347Y-96070892D01*
X111581298Y-96185844D01*
X111568573Y-96323948D01*
X111546006Y-96392179D01*
X111540063Y-96492908D01*
X111546539Y-96518250D01*
X111564300Y-96669175D01*
X111571412Y-96873627D01*
X111568242Y-97088286D01*
X111555161Y-97269837D01*
X111532537Y-97374961D01*
X111511860Y-97434716D01*
X111540027Y-97513611D01*
X111595302Y-97606185D01*
X111580991Y-97743706D01*
X111500336Y-97875246D01*
X111422225Y-97928281D01*
X111245135Y-97944086D01*
X111089834Y-97913026D01*
X111089834Y-98405114D01*
X111089834Y-98897202D01*
X111277896Y-98875247D01*
X111418604Y-98879222D01*
X111515682Y-98933749D01*
X111541259Y-99014611D01*
X111563066Y-99176984D01*
X111574806Y-99375065D01*
X111575425Y-99570117D01*
X111563874Y-99723402D01*
X111539099Y-99796182D01*
X111537192Y-99797539D01*
X111524840Y-99872030D01*
X111557532Y-100002925D01*
X111581318Y-100073554D01*
X111586032Y-100192655D01*
X111512888Y-100302902D01*
X111413960Y-100384148D01*
X111300000Y-100426004D01*
X111205138Y-100395192D01*
X111087112Y-100302902D01*
X111045252Y-100252084D01*
X111007016Y-100145945D01*
X111042468Y-100002925D01*
X111076341Y-99874611D01*
X111049104Y-99788891D01*
X111046830Y-99787333D01*
X111016730Y-99704470D01*
X111024358Y-99563454D01*
X111059737Y-99375177D01*
X110401888Y-99388717D01*
X110154211Y-99392343D01*
X109923461Y-99386609D01*
X109778544Y-99362056D01*
X109700153Y-99311106D01*
X109668980Y-99226177D01*
X109665719Y-99099690D01*
X109656222Y-98988870D01*
X109595644Y-98935499D01*
X109449434Y-98913190D01*
X109421786Y-98910789D01*
X109289691Y-98885822D01*
X109231731Y-98818363D01*
X109209732Y-98669622D01*
X109205219Y-98639598D01*
X110181368Y-98639598D01*
X110191050Y-98765932D01*
X110230283Y-98845570D01*
X110318304Y-98864775D01*
X110405095Y-98870018D01*
X110529486Y-98895463D01*
X110563329Y-98897815D01*
X110598921Y-98833627D01*
X110609456Y-98667884D01*
X110608486Y-98562520D01*
X110590571Y-98455492D01*
X110527951Y-98416365D01*
X110392550Y-98412019D01*
X110344800Y-98412779D01*
X110228266Y-98428602D01*
X110184952Y-98492178D01*
X110181368Y-98639598D01*
X109205219Y-98639598D01*
X109187454Y-98521400D01*
X109134573Y-98457848D01*
X109021931Y-98444444D01*
X108841962Y-98402609D01*
X108743190Y-98279749D01*
X108738638Y-98085888D01*
X108754999Y-97972631D01*
X108721513Y-97927552D01*
X108605825Y-97941459D01*
X108598334Y-97942869D01*
X108422197Y-97925293D01*
X108289810Y-97824966D01*
X108237588Y-97668847D01*
X108241486Y-97630148D01*
X108317504Y-97492039D01*
X108455803Y-97398251D01*
X108610464Y-97383876D01*
X108616109Y-97385278D01*
X108703459Y-97393390D01*
X108740378Y-97339669D01*
X108747990Y-97195125D01*
X108747990Y-96971856D01*
X108295122Y-96971856D01*
X107842254Y-96971856D01*
X107866675Y-97138251D01*
X107864172Y-97270623D01*
X107816801Y-97394167D01*
X107812296Y-97399382D01*
X107684904Y-97470456D01*
X107530621Y-97474271D01*
X107411080Y-97408629D01*
X107391876Y-97351716D01*
X107370315Y-97191812D01*
X107355467Y-96961853D01*
X107349766Y-96690363D01*
X107351308Y-96477905D01*
X107353649Y-96432860D01*
X107817257Y-96432860D01*
X107847281Y-96462884D01*
X107877305Y-96432860D01*
X107847281Y-96402837D01*
X107817257Y-96432860D01*
X107353649Y-96432860D01*
X107364919Y-96216057D01*
X107398893Y-96047934D01*
X107460808Y-95957325D01*
X107558244Y-95928017D01*
X107698778Y-95943798D01*
X107805130Y-95960873D01*
X107847281Y-95942784D01*
X107848922Y-95942080D01*
X107818715Y-95865135D01*
X107792785Y-95789734D01*
X107811257Y-95607982D01*
X107833741Y-95511008D01*
X107810943Y-95368617D01*
X107788218Y-95290666D01*
X107810943Y-95128428D01*
X107832687Y-95040046D01*
X107804613Y-94876928D01*
X107772729Y-94790589D01*
X107793533Y-94638542D01*
X107902720Y-94525570D01*
X108079673Y-94481324D01*
X108109687Y-94481507D01*
G37*
G36*
X111651421Y-81991939D02*
G01*
X112915990Y-81991973D01*
X114067319Y-81992105D01*
X115110836Y-81992396D01*
X116051970Y-81992909D01*
X116896150Y-81993706D01*
X117648805Y-81994850D01*
X118315362Y-81996402D01*
X118901252Y-81998427D01*
X119411903Y-82000986D01*
X119852744Y-82004141D01*
X120229204Y-82007955D01*
X120546710Y-82012490D01*
X120810693Y-82017810D01*
X121026581Y-82023975D01*
X121199802Y-82031050D01*
X121335786Y-82039095D01*
X121439962Y-82048174D01*
X121517757Y-82058349D01*
X121574602Y-82069683D01*
X121615924Y-82082238D01*
X121647153Y-82096076D01*
X121673716Y-82111259D01*
X121680344Y-82115369D01*
X121850469Y-82256518D01*
X121988740Y-82426283D01*
X121992860Y-82433109D01*
X122007684Y-82460372D01*
X122021179Y-82493725D01*
X122033407Y-82538597D01*
X122044431Y-82600416D01*
X122054312Y-82684611D01*
X122063114Y-82796611D01*
X122070899Y-82941846D01*
X122077728Y-83125742D01*
X122083666Y-83353731D01*
X122088773Y-83631239D01*
X122093113Y-83963697D01*
X122096748Y-84356532D01*
X122099741Y-84815174D01*
X122102153Y-85345051D01*
X122104048Y-85951593D01*
X122105487Y-86640227D01*
X122106534Y-87416383D01*
X122107250Y-88285490D01*
X122107699Y-89252977D01*
X122107942Y-90324271D01*
X122108042Y-91504803D01*
X122108061Y-92800000D01*
X122108061Y-93151421D01*
X122108026Y-94415990D01*
X122107895Y-95567319D01*
X122107604Y-96610836D01*
X122107091Y-97551970D01*
X122106294Y-98396150D01*
X122105150Y-99148805D01*
X122103597Y-99815362D01*
X122101572Y-100401252D01*
X122099014Y-100911903D01*
X122095859Y-101352744D01*
X122092045Y-101729204D01*
X122087509Y-102046710D01*
X122082190Y-102310693D01*
X122076024Y-102526581D01*
X122068950Y-102699802D01*
X122060904Y-102835786D01*
X122051825Y-102939962D01*
X122041650Y-103017757D01*
X122030317Y-103074602D01*
X122017762Y-103115924D01*
X122003924Y-103147153D01*
X121988740Y-103173716D01*
X121984630Y-103180344D01*
X121843482Y-103350469D01*
X121673716Y-103488740D01*
X121666890Y-103492860D01*
X121639627Y-103507684D01*
X121606274Y-103521179D01*
X121561403Y-103533407D01*
X121499584Y-103544431D01*
X121415388Y-103554312D01*
X121303388Y-103563114D01*
X121158154Y-103570899D01*
X120974257Y-103577728D01*
X120746269Y-103583666D01*
X120468760Y-103588773D01*
X120136303Y-103593113D01*
X119743468Y-103596748D01*
X119284826Y-103599741D01*
X118754948Y-103602153D01*
X118148407Y-103604048D01*
X117459772Y-103605487D01*
X116683616Y-103606534D01*
X115814509Y-103607250D01*
X114847023Y-103607699D01*
X113775728Y-103607942D01*
X112595197Y-103608042D01*
X111300000Y-103608061D01*
X110948579Y-103608061D01*
X109684009Y-103608026D01*
X108532681Y-103607895D01*
X107489163Y-103607604D01*
X106548029Y-103607091D01*
X105703849Y-103606294D01*
X104951195Y-103605150D01*
X104284637Y-103603597D01*
X103698747Y-103601572D01*
X103188096Y-103599014D01*
X102747255Y-103595859D01*
X102370796Y-103592045D01*
X102053289Y-103587509D01*
X101789306Y-103582190D01*
X101573419Y-103576024D01*
X101400197Y-103568950D01*
X101264213Y-103560904D01*
X101160038Y-103551825D01*
X101082242Y-103541650D01*
X101025398Y-103530317D01*
X100984076Y-103517762D01*
X100952847Y-103503924D01*
X100926283Y-103488740D01*
X100919655Y-103484630D01*
X100749530Y-103343482D01*
X100611259Y-103173716D01*
X100607139Y-103166890D01*
X100592315Y-103139627D01*
X100578820Y-103106274D01*
X100566592Y-103061403D01*
X100555569Y-102999584D01*
X100545687Y-102915388D01*
X100536886Y-102803388D01*
X100529101Y-102658154D01*
X100522271Y-102474257D01*
X100516334Y-102246269D01*
X100511226Y-101968760D01*
X100506886Y-101636303D01*
X100503251Y-101243468D01*
X100500259Y-100784826D01*
X100497846Y-100254948D01*
X100495952Y-99648407D01*
X100494512Y-98959772D01*
X100493465Y-98183616D01*
X100492749Y-97314509D01*
X100492301Y-96347023D01*
X100492058Y-95275728D01*
X100491958Y-94095197D01*
X100491938Y-92800000D01*
X101091962Y-92800000D01*
X101091962Y-92979632D01*
X101091985Y-94244834D01*
X101092094Y-95396122D01*
X101092353Y-96438944D01*
X101092827Y-97378745D01*
X101093581Y-98220973D01*
X101094679Y-98971075D01*
X101096188Y-99634496D01*
X101098170Y-100216684D01*
X101100692Y-100723085D01*
X101103819Y-101159146D01*
X101107614Y-101530314D01*
X101112143Y-101842035D01*
X101117470Y-102099756D01*
X101123661Y-102308924D01*
X101130781Y-102474985D01*
X101138893Y-102603386D01*
X101148064Y-102699573D01*
X101158357Y-102768994D01*
X101169838Y-102817095D01*
X101182572Y-102849322D01*
X101196623Y-102871123D01*
X101212057Y-102887943D01*
X101214232Y-102890107D01*
X101231406Y-102905350D01*
X101254295Y-102919220D01*
X101288345Y-102931781D01*
X101339003Y-102943098D01*
X101411716Y-102953236D01*
X101511930Y-102962261D01*
X101645092Y-102970235D01*
X101816648Y-102977226D01*
X102032046Y-102983297D01*
X102296731Y-102988513D01*
X102616151Y-102992939D01*
X102995752Y-102996640D01*
X103440982Y-102999681D01*
X103957285Y-103002126D01*
X104550110Y-103004041D01*
X105224903Y-103005491D01*
X105987111Y-103006539D01*
X106842179Y-103007251D01*
X107795556Y-103007693D01*
X108852687Y-103007928D01*
X110019019Y-103008021D01*
X111300000Y-103008038D01*
X111479632Y-103008037D01*
X112744834Y-103008014D01*
X113896122Y-103007906D01*
X114938944Y-103007647D01*
X115878745Y-103007173D01*
X116720973Y-103006419D01*
X117471075Y-103005320D01*
X118134496Y-103003812D01*
X118716684Y-103001829D01*
X119223085Y-102999307D01*
X119659146Y-102996181D01*
X120030314Y-102992386D01*
X120342035Y-102987857D01*
X120599756Y-102982529D01*
X120808924Y-102976338D01*
X120974985Y-102969219D01*
X121103386Y-102961106D01*
X121199573Y-102951936D01*
X121268994Y-102941642D01*
X121317095Y-102930161D01*
X121349322Y-102917427D01*
X121371123Y-102903376D01*
X121387943Y-102887943D01*
X121390107Y-102885768D01*
X121405350Y-102868593D01*
X121419220Y-102845704D01*
X121431781Y-102811654D01*
X121443098Y-102760996D01*
X121453236Y-102688284D01*
X121462261Y-102588070D01*
X121470235Y-102454908D01*
X121477226Y-102283352D01*
X121483297Y-102067954D01*
X121488513Y-101803268D01*
X121492939Y-101483848D01*
X121496640Y-101104247D01*
X121499681Y-100659018D01*
X121502126Y-100142714D01*
X121504041Y-99549889D01*
X121505491Y-98875096D01*
X121506539Y-98112889D01*
X121507251Y-97257820D01*
X121507693Y-96304444D01*
X121507928Y-95247312D01*
X121508021Y-94080980D01*
X121508038Y-92800000D01*
X121508037Y-92620368D01*
X121508014Y-91355166D01*
X121507906Y-90203878D01*
X121507647Y-89161056D01*
X121507173Y-88221254D01*
X121506419Y-87379026D01*
X121505320Y-86628925D01*
X121503812Y-85965504D01*
X121501829Y-85383316D01*
X121499307Y-84876914D01*
X121496181Y-84440853D01*
X121492386Y-84069685D01*
X121487857Y-83757964D01*
X121482529Y-83500243D01*
X121476338Y-83291076D01*
X121469219Y-83125015D01*
X121461106Y-82996614D01*
X121451936Y-82900426D01*
X121441642Y-82831006D01*
X121430161Y-82782905D01*
X121417427Y-82750678D01*
X121403376Y-82728877D01*
X121387943Y-82712057D01*
X121385768Y-82709892D01*
X121368593Y-82694649D01*
X121345704Y-82680780D01*
X121311654Y-82668219D01*
X121260996Y-82656901D01*
X121188284Y-82646763D01*
X121088070Y-82637739D01*
X120954908Y-82629764D01*
X120783352Y-82622774D01*
X120567954Y-82616703D01*
X120303268Y-82611487D01*
X119983848Y-82607061D01*
X119604247Y-82603359D01*
X119159018Y-82600319D01*
X118642714Y-82597873D01*
X118049889Y-82595958D01*
X117375096Y-82594509D01*
X116612889Y-82593460D01*
X115757820Y-82592748D01*
X114804444Y-82592307D01*
X113747312Y-82592072D01*
X112580980Y-82591979D01*
X111300000Y-82591962D01*
X111120368Y-82591962D01*
X109855166Y-82591985D01*
X108703878Y-82592094D01*
X107661056Y-82592353D01*
X106721254Y-82592827D01*
X105879026Y-82593581D01*
X105128925Y-82594679D01*
X104465504Y-82596188D01*
X103883316Y-82598170D01*
X103376914Y-82600692D01*
X102940853Y-82603819D01*
X102569685Y-82607614D01*
X102257964Y-82612143D01*
X102000243Y-82617470D01*
X101791076Y-82623661D01*
X101625015Y-82630781D01*
X101496614Y-82638893D01*
X101400426Y-82648064D01*
X101331006Y-82658357D01*
X101282905Y-82669838D01*
X101250678Y-82682572D01*
X101228877Y-82696623D01*
X101212057Y-82712057D01*
X101209892Y-82714232D01*
X101194649Y-82731406D01*
X101180780Y-82754295D01*
X101168219Y-82788345D01*
X101156901Y-82839003D01*
X101146763Y-82911716D01*
X101137739Y-83011930D01*
X101129764Y-83145092D01*
X101122774Y-83316648D01*
X101116703Y-83532046D01*
X101111487Y-83796731D01*
X101107061Y-84116151D01*
X101103359Y-84495752D01*
X101100319Y-84940982D01*
X101097873Y-85457285D01*
X101095958Y-86050110D01*
X101094509Y-86724903D01*
X101093460Y-87487111D01*
X101092748Y-88342179D01*
X101092307Y-89295556D01*
X101092072Y-90352687D01*
X101091979Y-91519019D01*
X101091962Y-92800000D01*
X100491938Y-92800000D01*
X100491939Y-92448579D01*
X100491973Y-91184009D01*
X100492105Y-90032681D01*
X100492396Y-88989163D01*
X100492909Y-88048029D01*
X100493706Y-87203849D01*
X100494850Y-86451195D01*
X100496402Y-85784637D01*
X100498427Y-85198747D01*
X100500986Y-84688096D01*
X100504141Y-84247255D01*
X100507955Y-83870796D01*
X100512490Y-83553289D01*
X100517810Y-83289306D01*
X100523975Y-83073419D01*
X100531050Y-82900197D01*
X100539095Y-82764213D01*
X100548174Y-82660038D01*
X100558349Y-82582242D01*
X100569683Y-82525398D01*
X100582238Y-82484076D01*
X100596076Y-82452847D01*
X100611259Y-82426283D01*
X100615369Y-82419655D01*
X100756518Y-82249530D01*
X100926283Y-82111259D01*
X100933109Y-82107139D01*
X100960372Y-82092315D01*
X100993725Y-82078820D01*
X101038597Y-82066592D01*
X101100416Y-82055569D01*
X101184611Y-82045687D01*
X101296611Y-82036886D01*
X101441846Y-82029101D01*
X101625742Y-82022271D01*
X101853731Y-82016334D01*
X102131239Y-82011226D01*
X102463697Y-82006886D01*
X102856532Y-82003251D01*
X103315174Y-82000259D01*
X103845051Y-81997846D01*
X104451593Y-81995952D01*
X105140227Y-81994512D01*
X105916383Y-81993465D01*
X106785490Y-81992749D01*
X107752977Y-81992301D01*
X108824271Y-81992058D01*
X110004803Y-81991958D01*
X111120368Y-81991941D01*
X111300000Y-81991938D01*
X111651421Y-81991939D01*
G37*
G36*
X117016250Y-95026258D02*
G01*
X117102679Y-95161616D01*
X117098926Y-95356002D01*
X117092615Y-95382845D01*
X117091943Y-95465753D01*
X117154001Y-95464028D01*
X117244525Y-95450516D01*
X117394933Y-95466772D01*
X117457132Y-95487410D01*
X117527364Y-95559189D01*
X117544917Y-95706084D01*
X117544855Y-95715210D01*
X117503443Y-95908464D01*
X117393964Y-96014783D01*
X117229084Y-96021516D01*
X117218468Y-96018907D01*
X117134503Y-96012749D01*
X117099098Y-96068690D01*
X117091833Y-96215604D01*
X117091833Y-96444140D01*
X117492579Y-96425193D01*
X117563353Y-96422510D01*
X117805940Y-96432161D01*
X117951471Y-96483925D01*
X118015592Y-96587642D01*
X118013949Y-96753157D01*
X117988811Y-96924435D01*
X118397632Y-96909074D01*
X118598006Y-96904915D01*
X118744792Y-96916658D01*
X118833275Y-96953185D01*
X118896252Y-97021919D01*
X118957690Y-97127080D01*
X118982284Y-97280610D01*
X118897154Y-97387489D01*
X118703250Y-97446879D01*
X118401526Y-97457941D01*
X117995272Y-97442642D01*
X118008362Y-97864646D01*
X118009355Y-97900782D01*
X118003046Y-98165450D01*
X117963771Y-98332365D01*
X117883719Y-98419404D01*
X117755083Y-98444444D01*
X117737962Y-98444166D01*
X117616187Y-98413667D01*
X117542334Y-98320015D01*
X117508558Y-98145061D01*
X117507013Y-97870662D01*
X117522212Y-97450935D01*
X117306632Y-97450935D01*
X117091052Y-97450935D01*
X117097217Y-98082796D01*
X117097718Y-98326310D01*
X117087911Y-98589454D01*
X117060120Y-98763001D01*
X117008184Y-98864846D01*
X116925939Y-98912885D01*
X116807225Y-98925013D01*
X116767154Y-98925354D01*
X116662782Y-98941630D01*
X116620619Y-99007999D01*
X116611460Y-99159433D01*
X116611025Y-99227108D01*
X116623132Y-99340727D01*
X116676973Y-99375754D01*
X116800801Y-99362494D01*
X116867125Y-99354083D01*
X116986752Y-99372173D01*
X117063832Y-99463927D01*
X117100143Y-99571586D01*
X117101949Y-99727406D01*
X117101381Y-99729685D01*
X117094272Y-99814144D01*
X117149268Y-99850503D01*
X117295191Y-99858285D01*
X117521281Y-99858285D01*
X117506317Y-99466613D01*
X117501106Y-99261842D01*
X117510017Y-99057068D01*
X117544821Y-98936435D01*
X117612929Y-98879239D01*
X117721753Y-98864775D01*
X117776760Y-98866898D01*
X117899816Y-98903395D01*
X117973145Y-99000114D01*
X118006181Y-99176371D01*
X118008362Y-99451481D01*
X118005159Y-99565483D01*
X118005093Y-99740462D01*
X118020356Y-99830008D01*
X118057926Y-99857885D01*
X118124785Y-99847856D01*
X118231053Y-99842797D01*
X118386900Y-99886286D01*
X118441702Y-99921162D01*
X118494553Y-100008356D01*
X118486717Y-100159272D01*
X118484068Y-100175717D01*
X118472253Y-100301227D01*
X118509612Y-100341906D01*
X118620093Y-100328062D01*
X118732401Y-100321613D01*
X118886152Y-100394730D01*
X118948621Y-100470182D01*
X118978493Y-100603417D01*
X118901000Y-100759555D01*
X118868371Y-100796623D01*
X118797653Y-100838102D01*
X118681097Y-100863447D01*
X118493962Y-100877108D01*
X118211507Y-100883533D01*
X118082700Y-100884501D01*
X117806790Y-100876974D01*
X117627191Y-100848496D01*
X117526837Y-100791360D01*
X117488660Y-100697862D01*
X117495595Y-100560296D01*
X117498666Y-100538603D01*
X117498939Y-100440294D01*
X117442030Y-100400622D01*
X117296556Y-100393251D01*
X117278657Y-100393286D01*
X117142913Y-100402768D01*
X117093683Y-100445388D01*
X117100422Y-100544734D01*
X117100603Y-100545734D01*
X117105082Y-100703255D01*
X117039590Y-100804444D01*
X116888044Y-100861035D01*
X116634361Y-100884763D01*
X116619250Y-100885284D01*
X116364535Y-100880549D01*
X116206695Y-100839262D01*
X116126266Y-100751202D01*
X116103782Y-100606146D01*
X116142280Y-100436751D01*
X116262653Y-100332696D01*
X116450383Y-100324190D01*
X116498533Y-100333303D01*
X116578363Y-100332234D01*
X116603250Y-100270797D01*
X116593856Y-100119516D01*
X116573516Y-99979447D01*
X116533881Y-99912827D01*
X116459838Y-99916945D01*
X116366212Y-99924239D01*
X116220194Y-99883608D01*
X116177998Y-99857334D01*
X116116456Y-99766702D01*
X116115797Y-99610069D01*
X116118999Y-99581985D01*
X116120940Y-99459891D01*
X116067609Y-99410342D01*
X115926595Y-99396807D01*
X115710539Y-99394829D01*
X115489317Y-99401871D01*
X115373622Y-99402958D01*
X115265709Y-99367251D01*
X115197915Y-99267742D01*
X115165104Y-99165074D01*
X115191550Y-99006400D01*
X115198111Y-98993935D01*
X115218387Y-98928236D01*
X115168243Y-98906167D01*
X115023457Y-98914481D01*
X114894956Y-98920305D01*
X114800797Y-98891297D01*
X114753167Y-98806141D01*
X114735940Y-98712327D01*
X114745097Y-98543505D01*
X114754846Y-98496410D01*
X114744410Y-98448499D01*
X114683014Y-98423254D01*
X114547616Y-98413668D01*
X114315176Y-98412732D01*
X113852009Y-98414421D01*
X113852009Y-97940587D01*
X113852102Y-97934042D01*
X114722695Y-97934042D01*
X114752718Y-97964066D01*
X114782742Y-97934042D01*
X114752718Y-97904019D01*
X114722695Y-97934042D01*
X113852102Y-97934042D01*
X113854901Y-97736435D01*
X113858574Y-97693152D01*
X115233097Y-97693152D01*
X115233097Y-98414421D01*
X115886817Y-98401204D01*
X116108135Y-98395382D01*
X116337613Y-98385915D01*
X116498091Y-98375159D01*
X116564026Y-98364500D01*
X116573445Y-98309291D01*
X116584049Y-98156182D01*
X116593616Y-97930494D01*
X116600849Y-97657149D01*
X116614184Y-96973286D01*
X115923640Y-96972585D01*
X115233097Y-96971883D01*
X115233097Y-97693152D01*
X113858574Y-97693152D01*
X113869815Y-97560678D01*
X113902093Y-97457572D01*
X113905851Y-97453664D01*
X114722695Y-97453664D01*
X114752718Y-97483688D01*
X114782742Y-97453664D01*
X114752718Y-97423640D01*
X114722695Y-97453664D01*
X113905851Y-97453664D01*
X113956884Y-97400599D01*
X114042330Y-97366156D01*
X114172681Y-97403717D01*
X114196389Y-97417964D01*
X114253778Y-97433871D01*
X114276512Y-97376183D01*
X114277972Y-97221780D01*
X114275249Y-97133347D01*
X114255928Y-97020329D01*
X114193853Y-96977361D01*
X114113344Y-96973286D01*
X114722695Y-96973286D01*
X114752718Y-97003309D01*
X114782742Y-96973286D01*
X114752718Y-96943262D01*
X114722695Y-96973286D01*
X114113344Y-96973286D01*
X114059566Y-96970564D01*
X114049781Y-96970573D01*
X113914431Y-96979991D01*
X113865540Y-97026261D01*
X113871308Y-97137601D01*
X113874576Y-97164177D01*
X113849391Y-97347267D01*
X113738525Y-97451717D01*
X113553548Y-97465584D01*
X113500530Y-97457373D01*
X113410851Y-97458582D01*
X113382707Y-97518393D01*
X113391686Y-97667214D01*
X113392936Y-97680560D01*
X113396190Y-97827674D01*
X113355189Y-97900496D01*
X113248296Y-97940221D01*
X113223640Y-97945904D01*
X113040630Y-97942754D01*
X112930287Y-97844424D01*
X112896892Y-97654395D01*
X112897638Y-97623155D01*
X112887502Y-97505229D01*
X112827598Y-97458946D01*
X112682812Y-97450935D01*
X112463094Y-97450935D01*
X112479563Y-97882328D01*
X112482387Y-98000679D01*
X112467796Y-98237414D01*
X112414314Y-98377431D01*
X112313152Y-98435480D01*
X112155525Y-98426312D01*
X112104008Y-98416796D01*
X112026251Y-98421046D01*
X111995790Y-98487072D01*
X111990544Y-98644013D01*
X111990291Y-98689852D01*
X111977530Y-98827685D01*
X111928929Y-98890336D01*
X111821782Y-98914150D01*
X111678206Y-98913324D01*
X111565517Y-98849841D01*
X111507285Y-98702808D01*
X111491826Y-98455998D01*
X111494773Y-98313157D01*
X111504861Y-98128300D01*
X111519146Y-98015585D01*
X111522527Y-98004526D01*
X111608788Y-97912677D01*
X111751004Y-97872777D01*
X111895169Y-97901247D01*
X111906180Y-97906777D01*
X111949922Y-97910723D01*
X111973627Y-97857513D01*
X111981569Y-97726240D01*
X111978022Y-97495997D01*
X111976188Y-97324210D01*
X111993227Y-97093570D01*
X112043149Y-96957349D01*
X112133644Y-96900146D01*
X112272405Y-96906561D01*
X112317060Y-96914991D01*
X112401921Y-96914393D01*
X112435169Y-96852696D01*
X112440898Y-96700428D01*
X112440640Y-96647712D01*
X112429590Y-96523949D01*
X112386493Y-96483725D01*
X112290000Y-96498469D01*
X112268372Y-96503528D01*
X112124982Y-96506044D01*
X112033156Y-96430645D01*
X111984651Y-96264283D01*
X111971223Y-95993911D01*
X111971372Y-95970498D01*
X111985105Y-95710501D01*
X112026887Y-95548572D01*
X112105752Y-95465502D01*
X112230733Y-95442080D01*
X112379163Y-95481545D01*
X112474759Y-95605542D01*
X112481804Y-95792987D01*
X112447711Y-95963454D01*
X112819600Y-95945832D01*
X113067192Y-95938425D01*
X113250952Y-95951058D01*
X113353071Y-95994902D01*
X113393512Y-96079289D01*
X113392239Y-96213554D01*
X113371330Y-96432860D01*
X113834232Y-96432896D01*
X113990499Y-96432354D01*
X114160194Y-96426097D01*
X114247083Y-96407139D01*
X114274211Y-96368545D01*
X114264619Y-96303382D01*
X114259434Y-96279001D01*
X114274580Y-96105823D01*
X114367315Y-95974525D01*
X114513258Y-95922458D01*
X114615217Y-95945397D01*
X114740076Y-96044152D01*
X114752718Y-96069857D01*
X114808792Y-96183870D01*
X114792931Y-96323751D01*
X114782540Y-96344151D01*
X114772871Y-96402190D01*
X114834969Y-96427382D01*
X114992908Y-96432860D01*
X116133496Y-96432860D01*
X116388852Y-96432860D01*
X116457039Y-96432860D01*
X116587146Y-96432860D01*
X116634114Y-96432860D01*
X116632429Y-96430656D01*
X116618671Y-96359642D01*
X116601181Y-96219692D01*
X116600896Y-96217034D01*
X116574721Y-96075824D01*
X116512638Y-96017784D01*
X116376248Y-96006525D01*
X116372261Y-96006527D01*
X116238062Y-96018218D01*
X116177920Y-96077131D01*
X116153824Y-96219692D01*
X116133496Y-96432860D01*
X114992908Y-96432860D01*
X115020606Y-96432780D01*
X115164409Y-96424655D01*
X115215340Y-96394884D01*
X115197143Y-96331709D01*
X115174648Y-96247649D01*
X115200675Y-96078884D01*
X115230620Y-95991388D01*
X115215408Y-95954580D01*
X115118208Y-95991060D01*
X115065057Y-96010698D01*
X114894974Y-96009913D01*
X114770794Y-95916006D01*
X114722695Y-95747556D01*
X114723279Y-95717213D01*
X114752907Y-95582441D01*
X114841511Y-95501527D01*
X115008707Y-95464254D01*
X115233097Y-95461002D01*
X115274116Y-95460407D01*
X115671103Y-95472104D01*
X115641381Y-95289176D01*
X115638823Y-95271603D01*
X115659858Y-95093537D01*
X115771589Y-94990867D01*
X115965045Y-94972375D01*
X116075028Y-94999802D01*
X116133095Y-95074195D01*
X116163830Y-95231915D01*
X116168057Y-95264609D01*
X116197995Y-95402627D01*
X116256691Y-95460421D01*
X116373995Y-95472104D01*
X116376248Y-95472087D01*
X116398539Y-95471917D01*
X116504167Y-95455002D01*
X116556091Y-95386373D01*
X116584161Y-95231915D01*
X116587386Y-95206819D01*
X116618296Y-95063061D01*
X116680366Y-94997571D01*
X116805348Y-94973207D01*
X116856254Y-94971595D01*
X117016250Y-95026258D01*
G37*
D12*
%TO.C,VUSB*%
X113500000Y-40200000D02*
X113500000Y-43600000D01*
X113500000Y-43600000D02*
X116900000Y-43600000D01*
X116900000Y-40200000D02*
X113500000Y-40200000D01*
X116900000Y-43600000D02*
X116900000Y-40200000D01*
D11*
%TO.C,IF*%
G36*
X123821478Y-80547921D02*
G01*
X123806813Y-80562586D01*
X123792147Y-80547921D01*
X123806813Y-80533256D01*
X123821478Y-80547921D01*
G37*
G36*
X125287990Y-105889261D02*
G01*
X125273325Y-105903926D01*
X125258660Y-105889261D01*
X125273325Y-105874595D01*
X125287990Y-105889261D01*
G37*
G36*
X125493302Y-97764780D02*
G01*
X125478637Y-97779445D01*
X125463972Y-97764780D01*
X125478637Y-97750115D01*
X125493302Y-97764780D01*
G37*
G36*
X126021247Y-88555080D02*
G01*
X126006582Y-88569746D01*
X125991916Y-88555080D01*
X126006582Y-88540415D01*
X126021247Y-88555080D01*
G37*
G36*
X126021247Y-97090184D02*
G01*
X126006582Y-97104849D01*
X125991916Y-97090184D01*
X126006582Y-97075519D01*
X126021247Y-97090184D01*
G37*
G36*
X126050577Y-80166628D02*
G01*
X126035912Y-80181293D01*
X126021247Y-80166628D01*
X126035912Y-80151963D01*
X126050577Y-80166628D01*
G37*
G36*
X126578522Y-98791339D02*
G01*
X126563856Y-98806004D01*
X126549191Y-98791339D01*
X126563856Y-98776674D01*
X126578522Y-98791339D01*
G37*
G36*
X126607852Y-97530138D02*
G01*
X126593187Y-97544803D01*
X126578522Y-97530138D01*
X126593187Y-97515473D01*
X126607852Y-97530138D01*
G37*
G36*
X126637182Y-91840069D02*
G01*
X126622517Y-91854734D01*
X126607852Y-91840069D01*
X126622517Y-91825404D01*
X126637182Y-91840069D01*
G37*
G36*
X126637182Y-100375173D02*
G01*
X126622517Y-100389838D01*
X126607852Y-100375173D01*
X126622517Y-100360508D01*
X126637182Y-100375173D01*
G37*
G36*
X126032463Y-80011539D02*
G01*
X126031853Y-80049307D01*
X126022356Y-80070367D01*
X126003444Y-80093302D01*
X125998192Y-80088439D01*
X125991916Y-80049307D01*
X125995117Y-80029082D01*
X126020326Y-80005311D01*
X126032463Y-80011539D01*
G37*
G36*
X125784713Y-102947267D02*
G01*
X125916569Y-102949036D01*
X126005715Y-102951752D01*
X126044177Y-102955348D01*
X126064990Y-102981774D01*
X126075068Y-103050295D01*
X126073924Y-103168477D01*
X126065242Y-103366859D01*
X125727944Y-103381524D01*
X125390646Y-103396189D01*
X125698614Y-103482131D01*
X125800871Y-103511509D01*
X125915068Y-103546574D01*
X125999003Y-103575024D01*
X126039474Y-103592581D01*
X126056003Y-103629097D01*
X126069737Y-103708011D01*
X126076563Y-103810666D01*
X126080761Y-104004242D01*
X125999676Y-103990416D01*
X125990384Y-103988598D01*
X125921382Y-103971346D01*
X125812549Y-103941118D01*
X125676868Y-103901596D01*
X125527325Y-103856462D01*
X125136059Y-103736335D01*
X124770519Y-103865251D01*
X124616644Y-103917536D01*
X124494719Y-103953533D01*
X124421060Y-103967169D01*
X124392833Y-103959150D01*
X124388756Y-103934059D01*
X124385814Y-103860697D01*
X124387564Y-103765091D01*
X124394439Y-103606049D01*
X124701896Y-103501119D01*
X125009353Y-103396189D01*
X124701385Y-103381524D01*
X124393418Y-103366859D01*
X124393418Y-103161547D01*
X124393418Y-102956235D01*
X125199583Y-102948419D01*
X125212605Y-102948294D01*
X125424759Y-102946831D01*
X125618119Y-102946510D01*
X125784713Y-102947267D01*
G37*
G36*
X126079907Y-100931758D02*
G01*
X126079907Y-101299076D01*
X125903926Y-101299076D01*
X125727944Y-101299076D01*
X125727944Y-101192829D01*
X125730445Y-101130712D01*
X125743004Y-101107062D01*
X125771940Y-101123094D01*
X125779925Y-101129306D01*
X125811214Y-101139230D01*
X125817272Y-101114845D01*
X125799818Y-101071220D01*
X125760571Y-101023422D01*
X125719900Y-100997472D01*
X125646811Y-100981916D01*
X125533262Y-100982213D01*
X125361316Y-100991108D01*
X125352376Y-101130427D01*
X125343437Y-101269746D01*
X125200000Y-101269746D01*
X125056562Y-101269746D01*
X125047623Y-101130427D01*
X125038683Y-100991108D01*
X124884699Y-100982243D01*
X124730716Y-100973377D01*
X124730716Y-101121561D01*
X124730716Y-101269746D01*
X124584064Y-101269746D01*
X124526305Y-101269655D01*
X124448348Y-101265468D01*
X124408408Y-101248245D01*
X124392744Y-101208753D01*
X124387614Y-101137759D01*
X124386250Y-101066293D01*
X124393807Y-100970207D01*
X124411860Y-100912700D01*
X124438273Y-100903649D01*
X124452277Y-100906668D01*
X124466743Y-100877962D01*
X124463843Y-100858515D01*
X124436634Y-100824644D01*
X124428976Y-100818651D01*
X124407452Y-100770305D01*
X124391781Y-100692286D01*
X124377037Y-100569965D01*
X125228472Y-100567202D01*
X126079907Y-100564439D01*
X126079907Y-100931758D01*
G37*
G36*
X124730716Y-95387566D02*
G01*
X124730716Y-95521016D01*
X124936027Y-95521016D01*
X124963627Y-95521016D01*
X125214665Y-95521016D01*
X125405311Y-95521016D01*
X126079907Y-95521016D01*
X126079907Y-95726328D01*
X126079907Y-95931639D01*
X125405311Y-95931639D01*
X124730716Y-95931639D01*
X124730716Y-96065089D01*
X124730716Y-96198539D01*
X124562067Y-96189743D01*
X124393418Y-96180946D01*
X124393418Y-95946304D01*
X124672055Y-95946304D01*
X124686720Y-95960970D01*
X124701385Y-95946304D01*
X124686720Y-95931639D01*
X124672055Y-95946304D01*
X124393418Y-95946304D01*
X124393418Y-95833872D01*
X124916474Y-95833872D01*
X124920773Y-95837382D01*
X124955581Y-95833872D01*
X124960169Y-95825050D01*
X124936027Y-95814318D01*
X124920500Y-95816435D01*
X124916474Y-95833872D01*
X124393418Y-95833872D01*
X124393418Y-95726328D01*
X124393418Y-95696997D01*
X124950692Y-95696997D01*
X124956712Y-95705775D01*
X124981754Y-95726328D01*
X124984681Y-95725565D01*
X124989551Y-95711662D01*
X125200000Y-95711662D01*
X125214665Y-95726328D01*
X125229330Y-95711662D01*
X125214665Y-95696997D01*
X125200000Y-95711662D01*
X124989551Y-95711662D01*
X124994688Y-95696997D01*
X124993494Y-95688958D01*
X124963627Y-95667667D01*
X124953018Y-95669970D01*
X124950692Y-95696997D01*
X124393418Y-95696997D01*
X124393418Y-95271709D01*
X124562067Y-95262912D01*
X124686720Y-95256411D01*
X124730716Y-95254116D01*
X124730716Y-95387566D01*
G37*
G36*
X124725069Y-104752713D02*
G01*
X124734088Y-104877367D01*
X125169957Y-104877367D01*
X125309975Y-104877950D01*
X125471671Y-104881253D01*
X125584260Y-104888044D01*
X125653414Y-104898965D01*
X125684805Y-104914661D01*
X125684103Y-104935777D01*
X125682582Y-104952647D01*
X125709584Y-104991621D01*
X125722041Y-105001083D01*
X125739952Y-105000043D01*
X125735172Y-104950949D01*
X125730358Y-104910255D01*
X125744590Y-104887668D01*
X125791346Y-104878863D01*
X125801270Y-104878702D01*
X125859930Y-104877752D01*
X125883691Y-104877367D01*
X125899180Y-104877419D01*
X125990734Y-104882325D01*
X126039612Y-104898068D01*
X126059689Y-104928695D01*
X126067905Y-104973350D01*
X126073886Y-105069138D01*
X126069746Y-105163953D01*
X126055848Y-105229330D01*
X126047982Y-105242930D01*
X126022344Y-105265184D01*
X125977605Y-105282305D01*
X125907171Y-105294983D01*
X125804451Y-105303908D01*
X125662855Y-105309770D01*
X125475789Y-105313258D01*
X125236662Y-105315063D01*
X124730716Y-105317321D01*
X124730716Y-105450770D01*
X124730716Y-105584220D01*
X124562067Y-105575424D01*
X124393418Y-105566628D01*
X124393486Y-105214665D01*
X125845265Y-105214665D01*
X125859930Y-105229330D01*
X125874595Y-105214665D01*
X125859930Y-105200000D01*
X125845265Y-105214665D01*
X124393486Y-105214665D01*
X124393503Y-105126674D01*
X125786605Y-105126674D01*
X125801270Y-105141339D01*
X125815935Y-105126674D01*
X125801270Y-105112009D01*
X125786605Y-105126674D01*
X124393503Y-105126674D01*
X124393509Y-105097344D01*
X124393600Y-104628060D01*
X124554825Y-104628060D01*
X124716050Y-104628060D01*
X124725069Y-104752713D01*
G37*
G36*
X124892032Y-81442494D02*
G01*
X125229330Y-81442494D01*
X125243995Y-81442494D01*
X126079907Y-81442494D01*
X126079907Y-81523346D01*
X126072339Y-81605481D01*
X126052624Y-81699327D01*
X126051966Y-81701644D01*
X126040009Y-81769539D01*
X126052624Y-81794457D01*
X126059089Y-81795294D01*
X126079907Y-81823787D01*
X126064830Y-81833496D01*
X125998299Y-81844016D01*
X125884914Y-81850747D01*
X125731469Y-81853117D01*
X125383032Y-81853117D01*
X125370171Y-82030918D01*
X125365671Y-82083887D01*
X125350517Y-82171541D01*
X125321816Y-82230787D01*
X125271322Y-82282619D01*
X125255589Y-82295901D01*
X125215626Y-82324159D01*
X125170832Y-82341211D01*
X125107763Y-82349223D01*
X125012977Y-82350361D01*
X124873029Y-82346792D01*
X124827171Y-82345236D01*
X124692137Y-82337925D01*
X124600785Y-82326600D01*
X124541358Y-82309266D01*
X124502095Y-82283932D01*
X124465487Y-82238707D01*
X124457977Y-82219746D01*
X125229330Y-82219746D01*
X125243995Y-82234411D01*
X125258660Y-82219746D01*
X125243995Y-82205080D01*
X125229330Y-82219746D01*
X124457977Y-82219746D01*
X124417277Y-82116992D01*
X124388378Y-81940193D01*
X124384766Y-81853117D01*
X124672055Y-81853117D01*
X124672055Y-81943443D01*
X124672055Y-82033768D01*
X124870034Y-82013158D01*
X124971985Y-82001130D01*
X125051542Y-81989074D01*
X125090011Y-81979763D01*
X125102077Y-81963358D01*
X125112009Y-81910047D01*
X125111754Y-81901495D01*
X125102436Y-81875634D01*
X125070773Y-81861038D01*
X125004670Y-81854576D01*
X124892032Y-81853117D01*
X124672055Y-81853117D01*
X124384766Y-81853117D01*
X124378753Y-81708143D01*
X124378753Y-81442494D01*
X124892032Y-81442494D01*
G37*
G36*
X124965358Y-83788914D02*
G01*
X124965343Y-83812814D01*
X124963243Y-83900086D01*
X124952907Y-83945308D01*
X124927712Y-83962303D01*
X124881033Y-83964896D01*
X124815619Y-83967176D01*
X124699426Y-83986340D01*
X124622891Y-84021855D01*
X124592277Y-84069927D01*
X124613849Y-84126760D01*
X124652286Y-84159524D01*
X124714149Y-84177270D01*
X124797897Y-84169639D01*
X124908729Y-84134929D01*
X125051846Y-84071441D01*
X125232447Y-83977472D01*
X125455733Y-83851321D01*
X125582052Y-83779170D01*
X125726347Y-83701222D01*
X125834640Y-83649853D01*
X125914487Y-83621583D01*
X125973443Y-83612933D01*
X126079907Y-83612933D01*
X126079907Y-84010819D01*
X126079805Y-84043652D01*
X126076769Y-84192341D01*
X126070144Y-84320723D01*
X126060785Y-84416015D01*
X126049545Y-84465438D01*
X126015397Y-84501510D01*
X125932224Y-84522170D01*
X125845265Y-84522170D01*
X125845265Y-84299487D01*
X125844092Y-84214789D01*
X125835890Y-84118463D01*
X125816775Y-84052258D01*
X125783169Y-83998852D01*
X125721072Y-83920900D01*
X125739889Y-84008891D01*
X125744151Y-84031346D01*
X125743649Y-84072933D01*
X125721213Y-84110090D01*
X125667501Y-84154539D01*
X125573166Y-84217998D01*
X125433269Y-84307911D01*
X125282672Y-84399043D01*
X125161136Y-84463353D01*
X125058456Y-84505539D01*
X124964426Y-84530301D01*
X124868841Y-84542340D01*
X124791616Y-84544691D01*
X124636766Y-84521229D01*
X124518566Y-84455164D01*
X124432347Y-84344380D01*
X124400695Y-84256606D01*
X124382295Y-84144192D01*
X124378958Y-84029130D01*
X124391212Y-83931053D01*
X124419585Y-83869593D01*
X124441299Y-83842185D01*
X124470913Y-83775595D01*
X124472260Y-83770066D01*
X124515194Y-83712413D01*
X124599141Y-83662076D01*
X124707979Y-83626451D01*
X124825581Y-83612933D01*
X124965358Y-83612933D01*
X124965358Y-83788914D01*
G37*
G36*
X125784315Y-104090955D02*
G01*
X125915779Y-104092594D01*
X126004489Y-104095156D01*
X126042496Y-104098583D01*
X126056079Y-104111933D01*
X126072476Y-104179651D01*
X126076378Y-104303650D01*
X126075590Y-104350981D01*
X126071377Y-104434291D01*
X126058676Y-104479186D01*
X126030881Y-104500121D01*
X125981387Y-104511554D01*
X125943300Y-104515031D01*
X125849472Y-104518473D01*
X125713259Y-104520740D01*
X125543764Y-104521744D01*
X125350089Y-104521399D01*
X125141339Y-104519615D01*
X124393418Y-104510739D01*
X124393418Y-104481408D01*
X124672055Y-104481408D01*
X124686720Y-104496073D01*
X124701385Y-104481408D01*
X124686720Y-104466743D01*
X124672055Y-104481408D01*
X124393418Y-104481408D01*
X124393418Y-104393418D01*
X124554734Y-104393418D01*
X124569399Y-104408083D01*
X124584064Y-104393418D01*
X124672055Y-104393418D01*
X124686720Y-104408083D01*
X124701385Y-104393418D01*
X124686720Y-104378752D01*
X124672055Y-104393418D01*
X124584064Y-104393418D01*
X124569399Y-104378752D01*
X124554734Y-104393418D01*
X124393418Y-104393418D01*
X124393418Y-104351153D01*
X124906697Y-104351153D01*
X124909000Y-104361762D01*
X124936027Y-104364087D01*
X124944805Y-104358067D01*
X124965358Y-104333026D01*
X124964595Y-104330099D01*
X124936027Y-104320092D01*
X124927988Y-104321286D01*
X124906697Y-104351153D01*
X124393418Y-104351153D01*
X124393418Y-104305427D01*
X124393418Y-104201266D01*
X124953766Y-104201266D01*
X124954376Y-104239939D01*
X124981754Y-104261431D01*
X124987886Y-104255929D01*
X124989435Y-104246766D01*
X125200000Y-104246766D01*
X125214665Y-104261431D01*
X125229330Y-104246766D01*
X125214665Y-104232101D01*
X125200000Y-104246766D01*
X124989435Y-104246766D01*
X124994688Y-104215705D01*
X124990386Y-104194774D01*
X124964879Y-104188401D01*
X124953766Y-104201266D01*
X124393418Y-104201266D01*
X124393418Y-104100115D01*
X124569399Y-104098409D01*
X124686720Y-104097272D01*
X124936027Y-104094855D01*
X124964879Y-104094575D01*
X125199583Y-104092299D01*
X125212910Y-104092171D01*
X125214665Y-104092159D01*
X125424930Y-104090684D01*
X125618048Y-104090299D01*
X125784315Y-104090955D01*
G37*
G36*
X125593330Y-94201165D02*
G01*
X125770526Y-94221827D01*
X125912611Y-94279605D01*
X126013882Y-94371034D01*
X126068636Y-94492650D01*
X126080703Y-94547421D01*
X126091245Y-94594100D01*
X126093608Y-94655547D01*
X126082807Y-94754408D01*
X126062384Y-94864747D01*
X126036651Y-94963562D01*
X126009921Y-95027854D01*
X125968276Y-95078960D01*
X125887149Y-95131771D01*
X125772790Y-95160422D01*
X125613581Y-95169053D01*
X125605128Y-95169028D01*
X125454170Y-95156102D01*
X125333735Y-95113547D01*
X125227552Y-95032663D01*
X125119348Y-94904746D01*
X125071874Y-94840879D01*
X124988707Y-94730416D01*
X124929572Y-94656744D01*
X124886922Y-94612769D01*
X124853211Y-94591400D01*
X124820893Y-94585546D01*
X124782422Y-94588114D01*
X124718773Y-94604598D01*
X124664601Y-94642901D01*
X124645617Y-94688900D01*
X124672055Y-94729485D01*
X124719764Y-94747729D01*
X124796709Y-94757980D01*
X124814943Y-94758234D01*
X124850682Y-94764549D01*
X124869253Y-94789586D01*
X124876275Y-94846657D01*
X124877367Y-94949076D01*
X124877367Y-95139722D01*
X124773769Y-95139722D01*
X124749928Y-95139232D01*
X124605229Y-95112161D01*
X124492410Y-95047615D01*
X124421692Y-94951073D01*
X124397761Y-94872453D01*
X124379831Y-94734963D01*
X124380869Y-94588291D01*
X124400296Y-94454189D01*
X124437536Y-94354407D01*
X124492052Y-94284415D01*
X124569039Y-94234674D01*
X124676575Y-94208694D01*
X124827948Y-94201264D01*
X124945798Y-94207853D01*
X125049183Y-94234760D01*
X125139419Y-94290137D01*
X125229390Y-94382100D01*
X125331986Y-94518769D01*
X125360530Y-94558576D01*
X125462844Y-94680706D01*
X125555342Y-94752272D01*
X125644898Y-94777355D01*
X125738385Y-94760035D01*
X125767281Y-94746978D01*
X125811222Y-94705460D01*
X125806440Y-94661606D01*
X125759432Y-94622057D01*
X125676693Y-94593457D01*
X125564718Y-94582448D01*
X125463972Y-94582448D01*
X125463972Y-94391801D01*
X125463972Y-94201154D01*
X125588819Y-94201154D01*
X125593330Y-94201165D01*
G37*
G36*
X125637714Y-86169007D02*
G01*
X125758656Y-86176878D01*
X125841673Y-86190519D01*
X125899438Y-86214297D01*
X125948889Y-86252771D01*
X125954338Y-86257917D01*
X126014427Y-86324699D01*
X126053364Y-86384642D01*
X126056317Y-86393126D01*
X126066689Y-86460202D01*
X126072357Y-86562988D01*
X126072154Y-86682931D01*
X126071564Y-86702367D01*
X126065282Y-86820427D01*
X126052927Y-86898285D01*
X126030456Y-86952233D01*
X125993827Y-86998561D01*
X125960323Y-87029371D01*
X125841086Y-87092357D01*
X125678545Y-87124702D01*
X125468777Y-87127368D01*
X125446413Y-87126201D01*
X125339503Y-87117843D01*
X125271690Y-87103377D01*
X125226162Y-87077243D01*
X125186107Y-87033881D01*
X125150011Y-86991938D01*
X125120401Y-86974726D01*
X125102238Y-86998399D01*
X125081424Y-87029149D01*
X125008218Y-87073064D01*
X124903066Y-87099985D01*
X124782082Y-87108078D01*
X124661378Y-87095510D01*
X124557070Y-87060446D01*
X124479801Y-87005405D01*
X124421086Y-86917444D01*
X124388692Y-86792850D01*
X124378753Y-86622120D01*
X124379449Y-86569234D01*
X124395673Y-86406377D01*
X124437599Y-86290946D01*
X124510794Y-86216487D01*
X124620824Y-86176544D01*
X124773254Y-86164665D01*
X124936027Y-86164665D01*
X124936027Y-86369976D01*
X124936027Y-86575288D01*
X124776442Y-86575288D01*
X124709238Y-86577494D01*
X124622772Y-86594282D01*
X124591453Y-86628018D01*
X124614461Y-86679229D01*
X124622239Y-86686297D01*
X124683404Y-86708806D01*
X124775304Y-86720510D01*
X124876213Y-86721004D01*
X124964404Y-86709883D01*
X125018152Y-86686743D01*
X125041463Y-86642707D01*
X125053348Y-86569422D01*
X125053482Y-86555350D01*
X125061856Y-86509738D01*
X125095344Y-86490957D01*
X125170669Y-86487297D01*
X125177992Y-86487311D01*
X125250040Y-86492160D01*
X125281237Y-86512578D01*
X125287990Y-86558528D01*
X125288210Y-86570264D01*
X125305822Y-86642905D01*
X125357158Y-86689606D01*
X125450013Y-86714554D01*
X125592187Y-86721940D01*
X125703023Y-86718264D01*
X125802999Y-86700908D01*
X125857861Y-86666854D01*
X125874595Y-86613418D01*
X125872176Y-86604594D01*
X125840349Y-86587478D01*
X125765510Y-86578127D01*
X125639953Y-86575288D01*
X125405311Y-86575288D01*
X125405311Y-86366871D01*
X125405311Y-86158453D01*
X125637714Y-86169007D01*
G37*
G36*
X125114913Y-93063177D02*
G01*
X125849869Y-93071940D01*
X125953752Y-93185348D01*
X125955911Y-93187709D01*
X126014120Y-93257385D01*
X126033021Y-93299379D01*
X126017443Y-93324218D01*
X125998166Y-93339873D01*
X126011764Y-93350128D01*
X126032263Y-93358166D01*
X126061181Y-93401905D01*
X126067183Y-93445836D01*
X126070497Y-93533831D01*
X126069036Y-93640293D01*
X126062955Y-93740326D01*
X126047923Y-93811113D01*
X126015874Y-93864619D01*
X125958394Y-93922288D01*
X125946311Y-93933119D01*
X125898686Y-93969659D01*
X125844541Y-93997932D01*
X125776433Y-94018864D01*
X125686916Y-94033381D01*
X125568546Y-94042411D01*
X125413876Y-94046880D01*
X125215463Y-94047714D01*
X124965862Y-94045842D01*
X124394426Y-94039838D01*
X124393922Y-93834526D01*
X124994688Y-93834526D01*
X125009353Y-93849191D01*
X125024018Y-93834526D01*
X125009353Y-93819861D01*
X124994688Y-93834526D01*
X124393922Y-93834526D01*
X124393688Y-93739203D01*
X125024467Y-93739203D01*
X125024793Y-93755104D01*
X125031954Y-93784235D01*
X125043018Y-93772322D01*
X125287380Y-93772322D01*
X125314839Y-93784221D01*
X125382357Y-93767544D01*
X125422963Y-93745557D01*
X125415338Y-93737922D01*
X125354330Y-93739517D01*
X125346909Y-93739947D01*
X125290146Y-93751093D01*
X125287380Y-93772322D01*
X125043018Y-93772322D01*
X125053348Y-93761200D01*
X125063171Y-93745094D01*
X125080640Y-93691674D01*
X125053348Y-93673210D01*
X125035157Y-93687707D01*
X125024467Y-93739203D01*
X124393688Y-93739203D01*
X124393418Y-93629214D01*
X124884699Y-93622929D01*
X125009353Y-93621734D01*
X125049321Y-93621351D01*
X125053348Y-93621366D01*
X125187476Y-93621861D01*
X125281511Y-93625364D01*
X125339134Y-93632437D01*
X125368054Y-93643654D01*
X125375981Y-93659592D01*
X125381079Y-93679598D01*
X125415338Y-93699804D01*
X125419977Y-93702540D01*
X125440168Y-93698021D01*
X125456639Y-93665877D01*
X125462332Y-93650372D01*
X125515452Y-93629185D01*
X125625031Y-93614549D01*
X125725576Y-93602224D01*
X125786989Y-93582429D01*
X125809736Y-93552501D01*
X125810028Y-93535412D01*
X125795408Y-93513775D01*
X125757350Y-93497170D01*
X125689985Y-93484977D01*
X125587447Y-93476573D01*
X125443866Y-93471340D01*
X125253375Y-93468655D01*
X125010107Y-93467898D01*
X124387592Y-93467898D01*
X124383775Y-93261156D01*
X124379957Y-93054414D01*
X125114913Y-93063177D01*
G37*
G36*
X125155612Y-91863917D02*
G01*
X125230518Y-91872967D01*
X125263839Y-91891439D01*
X125277664Y-91908621D01*
X125287541Y-91894962D01*
X125313713Y-91877446D01*
X125383346Y-91868423D01*
X125481840Y-91867374D01*
X125594598Y-91873502D01*
X125707021Y-91886008D01*
X125804511Y-91904094D01*
X125872469Y-91926960D01*
X125875940Y-91928799D01*
X125956598Y-91990145D01*
X126022434Y-92068802D01*
X126055252Y-92144898D01*
X126080336Y-92280483D01*
X126081486Y-92429726D01*
X126059038Y-92570073D01*
X126013330Y-92678976D01*
X126009564Y-92684529D01*
X125901052Y-92794430D01*
X125756556Y-92859678D01*
X125573960Y-92881247D01*
X125405311Y-92881293D01*
X125405311Y-92675981D01*
X125405311Y-92470669D01*
X125563448Y-92470669D01*
X125627602Y-92471535D01*
X125691656Y-92479461D01*
X125723686Y-92501358D01*
X125739988Y-92543995D01*
X125747033Y-92566242D01*
X125775397Y-92609329D01*
X125803322Y-92613604D01*
X125815935Y-92573325D01*
X125812626Y-92553086D01*
X125786605Y-92529330D01*
X125773112Y-92524366D01*
X125757274Y-92485334D01*
X125760826Y-92465063D01*
X125788645Y-92441339D01*
X125806343Y-92426401D01*
X125810642Y-92375346D01*
X125808167Y-92360337D01*
X125800136Y-92341495D01*
X125780235Y-92327982D01*
X125740665Y-92318913D01*
X125673628Y-92313402D01*
X125571326Y-92310562D01*
X125425960Y-92309507D01*
X125229732Y-92309353D01*
X125196410Y-92309358D01*
X125007741Y-92309806D01*
X124868782Y-92311503D01*
X124771760Y-92315186D01*
X124708902Y-92321591D01*
X124672434Y-92331453D01*
X124654582Y-92345511D01*
X124647573Y-92364499D01*
X124646819Y-92368736D01*
X124652669Y-92417295D01*
X124694183Y-92448424D01*
X124778818Y-92465079D01*
X124914030Y-92470220D01*
X125112009Y-92470669D01*
X125112009Y-92675981D01*
X125112009Y-92881293D01*
X124898907Y-92881293D01*
X124850074Y-92880448D01*
X124671184Y-92856941D01*
X124538062Y-92798723D01*
X124447253Y-92702481D01*
X124395302Y-92564904D01*
X124378753Y-92382679D01*
X124380339Y-92355079D01*
X124408083Y-92355079D01*
X124408922Y-92361627D01*
X124437413Y-92382679D01*
X124451430Y-92377082D01*
X124466743Y-92336952D01*
X124462523Y-92316002D01*
X124437413Y-92309353D01*
X124429403Y-92315356D01*
X124408083Y-92355079D01*
X124380339Y-92355079D01*
X124386345Y-92250531D01*
X124423217Y-92107955D01*
X124437413Y-92087187D01*
X124495265Y-92002554D01*
X124607507Y-91929958D01*
X124764964Y-91885796D01*
X124972657Y-91865699D01*
X125032146Y-91863675D01*
X125155612Y-91863917D01*
G37*
G36*
X125251654Y-79448994D02*
G01*
X125843356Y-79450214D01*
X125859930Y-79450248D01*
X125977251Y-79450490D01*
X126087148Y-79450716D01*
X126069185Y-79559365D01*
X126068202Y-79565423D01*
X126056077Y-79662455D01*
X126050900Y-79746227D01*
X126032804Y-79814009D01*
X125969919Y-79856541D01*
X125942943Y-79867663D01*
X125922167Y-79880026D01*
X125955254Y-79876396D01*
X125997098Y-79874699D01*
X126021247Y-79890736D01*
X126020414Y-79897017D01*
X125991916Y-79917321D01*
X125980902Y-79920336D01*
X125969919Y-79953983D01*
X125959334Y-79977220D01*
X125903926Y-79983842D01*
X125830600Y-79977038D01*
X125903926Y-80019465D01*
X125929940Y-80035241D01*
X125951933Y-80056570D01*
X125924891Y-80062933D01*
X125910368Y-80063748D01*
X125887664Y-80078764D01*
X125905114Y-80124852D01*
X125920630Y-80155736D01*
X125918018Y-80171890D01*
X125873276Y-80151257D01*
X125830288Y-80133260D01*
X125828792Y-80149036D01*
X125829726Y-80169498D01*
X125788336Y-80181293D01*
X125765140Y-80179273D01*
X125741024Y-80161036D01*
X125730351Y-80112121D01*
X125727944Y-80018577D01*
X125727944Y-79855861D01*
X125544630Y-79864593D01*
X125361316Y-79873325D01*
X125352450Y-79994853D01*
X125343007Y-80067610D01*
X125319507Y-80111394D01*
X125272357Y-80129996D01*
X125217483Y-80129781D01*
X125141904Y-80102129D01*
X125129419Y-80093616D01*
X125091076Y-80076660D01*
X125078273Y-80098972D01*
X125075730Y-80104108D01*
X125067290Y-80074653D01*
X125056276Y-80005311D01*
X125038683Y-79873325D01*
X124884699Y-79864460D01*
X124730716Y-79855595D01*
X124730716Y-80003779D01*
X124730716Y-80151963D01*
X124554734Y-80151963D01*
X124378753Y-80151963D01*
X124378753Y-79936079D01*
X124380519Y-79843995D01*
X125815935Y-79843995D01*
X125830600Y-79858660D01*
X125845265Y-79843995D01*
X125830600Y-79829330D01*
X125815935Y-79843995D01*
X124380519Y-79843995D01*
X124381064Y-79815586D01*
X124383896Y-79760893D01*
X125972363Y-79760893D01*
X125976662Y-79764403D01*
X126011470Y-79760893D01*
X126016059Y-79752071D01*
X125991916Y-79741339D01*
X125976389Y-79743456D01*
X125972363Y-79760893D01*
X124383896Y-79760893D01*
X124387186Y-79697344D01*
X125962586Y-79697344D01*
X125977251Y-79712009D01*
X125991916Y-79697344D01*
X125977251Y-79682679D01*
X125962586Y-79697344D01*
X124387186Y-79697344D01*
X124387817Y-79685154D01*
X124392234Y-79638683D01*
X125845265Y-79638683D01*
X125859930Y-79653348D01*
X125874595Y-79638683D01*
X125859930Y-79624018D01*
X125845265Y-79638683D01*
X124392234Y-79638683D01*
X124397457Y-79583734D01*
X124401511Y-79554154D01*
X125786605Y-79554154D01*
X125788514Y-79558166D01*
X125815935Y-79550692D01*
X125824617Y-79544667D01*
X125830600Y-79536911D01*
X125845265Y-79517900D01*
X125843356Y-79513888D01*
X125815935Y-79521362D01*
X125807253Y-79527388D01*
X125786605Y-79554154D01*
X124401511Y-79554154D01*
X124416161Y-79447271D01*
X125251654Y-79448994D01*
G37*
G36*
X124930035Y-82682936D02*
G01*
X124938708Y-82879676D01*
X124796582Y-82879676D01*
X124703263Y-82885209D01*
X124629821Y-82912995D01*
X124593699Y-82973317D01*
X124584064Y-83076189D01*
X124586242Y-83135459D01*
X124600360Y-83187658D01*
X124631651Y-83202309D01*
X124640439Y-83202158D01*
X124663500Y-83192078D01*
X124642276Y-83158314D01*
X125551963Y-83158314D01*
X125566628Y-83172979D01*
X125581293Y-83158314D01*
X125566628Y-83143649D01*
X125551963Y-83158314D01*
X124642276Y-83158314D01*
X124640870Y-83156078D01*
X124624608Y-83129431D01*
X124635651Y-83089278D01*
X124686720Y-83070461D01*
X124702333Y-83064708D01*
X124823944Y-83056107D01*
X124866926Y-83054540D01*
X124973250Y-83029326D01*
X125034013Y-82970832D01*
X125053348Y-82875811D01*
X125053416Y-82862560D01*
X125060326Y-82812530D01*
X125090860Y-82794912D01*
X125162296Y-82797248D01*
X125231888Y-82808120D01*
X125270623Y-82837905D01*
X125273325Y-82846609D01*
X125290882Y-82903162D01*
X125292126Y-82909152D01*
X125311181Y-82979518D01*
X125329712Y-83019165D01*
X125358151Y-83030088D01*
X125432398Y-83041551D01*
X125532332Y-83049546D01*
X125566628Y-83050693D01*
X125639569Y-83053133D01*
X125735726Y-83051372D01*
X125802420Y-83043325D01*
X125807707Y-83041949D01*
X125860925Y-83013089D01*
X125869167Y-82959298D01*
X125866358Y-82943866D01*
X125851910Y-82916610D01*
X125816519Y-82900448D01*
X125747613Y-82891472D01*
X125632621Y-82885775D01*
X125405311Y-82877209D01*
X125405311Y-82687796D01*
X125405311Y-82498383D01*
X125617956Y-82499422D01*
X125768696Y-82507306D01*
X125877373Y-82533188D01*
X125956654Y-82582709D01*
X126020566Y-82661514D01*
X126041485Y-82701294D01*
X126068272Y-82802882D01*
X126077763Y-82946611D01*
X126068574Y-83116052D01*
X126029947Y-83255660D01*
X125956706Y-83354556D01*
X125843940Y-83419132D01*
X125686741Y-83455781D01*
X125599919Y-83463688D01*
X125438915Y-83455886D01*
X125304581Y-83419169D01*
X125221376Y-83363625D01*
X125258660Y-83363625D01*
X125273325Y-83378291D01*
X125287990Y-83363625D01*
X125273325Y-83348960D01*
X125258660Y-83363625D01*
X125221376Y-83363625D01*
X125210513Y-83356373D01*
X125140157Y-83280458D01*
X125054175Y-83362834D01*
X125046172Y-83370455D01*
X124997165Y-83411315D01*
X124948522Y-83431689D01*
X124880688Y-83436239D01*
X124774109Y-83429631D01*
X124728621Y-83425091D01*
X124592972Y-83394591D01*
X124495999Y-83336407D01*
X124474416Y-83304965D01*
X124672055Y-83304965D01*
X124686720Y-83319630D01*
X124701385Y-83304965D01*
X124686720Y-83290300D01*
X124672055Y-83304965D01*
X124474416Y-83304965D01*
X124432144Y-83243383D01*
X124395849Y-83108364D01*
X124381555Y-82924193D01*
X124382762Y-82894341D01*
X124466743Y-82894341D01*
X124481408Y-82909006D01*
X124496074Y-82894341D01*
X124481408Y-82879676D01*
X124466743Y-82894341D01*
X124382762Y-82894341D01*
X124385135Y-82835681D01*
X124496074Y-82835681D01*
X124510739Y-82850346D01*
X124525404Y-82835681D01*
X124510739Y-82821016D01*
X124496074Y-82835681D01*
X124385135Y-82835681D01*
X124387673Y-82772919D01*
X124422432Y-82648646D01*
X124481408Y-82578327D01*
X124492334Y-82565299D01*
X124510739Y-82557158D01*
X124603255Y-82516233D01*
X124761069Y-82494798D01*
X124921362Y-82486195D01*
X124930035Y-82682936D01*
G37*
G36*
X124422144Y-101329315D02*
G01*
X124483215Y-101337615D01*
X124586175Y-101353187D01*
X124719929Y-101374328D01*
X124873377Y-101399332D01*
X124888306Y-101401796D01*
X125078270Y-101432746D01*
X125279860Y-101464983D01*
X125469919Y-101494833D01*
X125625288Y-101518621D01*
X125734608Y-101535830D01*
X125858911Y-101557537D01*
X125954460Y-101576681D01*
X126006582Y-101590494D01*
X126009323Y-101591694D01*
X126045899Y-101632586D01*
X126066751Y-101699867D01*
X126070650Y-101773213D01*
X126056368Y-101832299D01*
X126022676Y-101856800D01*
X126019053Y-101856848D01*
X125992917Y-101862354D01*
X126019892Y-101884223D01*
X126026102Y-101889060D01*
X126053750Y-101950645D01*
X126063887Y-102066341D01*
X126065242Y-102221486D01*
X125933256Y-102240179D01*
X125873974Y-102248474D01*
X125698256Y-102271208D01*
X125572597Y-102283603D01*
X125491044Y-102285912D01*
X125447646Y-102278389D01*
X125436453Y-102261286D01*
X125437949Y-102248803D01*
X125434508Y-102175414D01*
X125405311Y-102149653D01*
X125396114Y-102151336D01*
X125375981Y-102182876D01*
X125355963Y-102227098D01*
X125282823Y-102277850D01*
X125161462Y-102324766D01*
X124997557Y-102366148D01*
X124796788Y-102400298D01*
X124564832Y-102425516D01*
X124514246Y-102429147D01*
X124446733Y-102428048D01*
X124412956Y-102411470D01*
X124396583Y-102374456D01*
X124395688Y-102369630D01*
X124466743Y-102369630D01*
X124481408Y-102384295D01*
X124496074Y-102369630D01*
X124481408Y-102354965D01*
X124466743Y-102369630D01*
X124395688Y-102369630D01*
X124386454Y-102319826D01*
X124381794Y-102254040D01*
X125024018Y-102254040D01*
X125028239Y-102274990D01*
X125053348Y-102281639D01*
X125061359Y-102275636D01*
X125082679Y-102235913D01*
X125081839Y-102229365D01*
X125053348Y-102208314D01*
X125039331Y-102213910D01*
X125024018Y-102254040D01*
X124381794Y-102254040D01*
X124379879Y-102227002D01*
X124380851Y-102169207D01*
X124945804Y-102169207D01*
X124950103Y-102172717D01*
X124984911Y-102169207D01*
X124989500Y-102160385D01*
X124965358Y-102149653D01*
X124949830Y-102151770D01*
X124945804Y-102169207D01*
X124380851Y-102169207D01*
X124381469Y-102132499D01*
X124384703Y-102105658D01*
X124965358Y-102105658D01*
X124980023Y-102120323D01*
X124994688Y-102105658D01*
X124980023Y-102090993D01*
X124965358Y-102105658D01*
X124384703Y-102105658D01*
X124388236Y-102076328D01*
X125170669Y-102076328D01*
X125185335Y-102090993D01*
X125200000Y-102076328D01*
X125185335Y-102061662D01*
X125170669Y-102076328D01*
X124388236Y-102076328D01*
X124390648Y-102056311D01*
X124406840Y-102018435D01*
X124442520Y-102010637D01*
X124481408Y-102005282D01*
X124527310Y-101998962D01*
X124651325Y-101984642D01*
X124804850Y-101968797D01*
X124978173Y-101952548D01*
X124980023Y-101952383D01*
X124981286Y-101952270D01*
X125053348Y-101945647D01*
X125151248Y-101936650D01*
X125185335Y-101933330D01*
X125298385Y-101922319D01*
X125413791Y-101910210D01*
X125488561Y-101901257D01*
X125513792Y-101896394D01*
X125500336Y-101893539D01*
X125437708Y-101885247D01*
X125333091Y-101873248D01*
X125196458Y-101858667D01*
X125037782Y-101842632D01*
X124945294Y-101833408D01*
X124783963Y-101816774D01*
X124643256Y-101801596D01*
X124535764Y-101789246D01*
X124474076Y-101781099D01*
X124378753Y-101765702D01*
X124378753Y-101547054D01*
X124381672Y-101439923D01*
X124392703Y-101356902D01*
X124411426Y-101328406D01*
X124422144Y-101329315D01*
G37*
G36*
X126077756Y-99731910D02*
G01*
X126076827Y-99804419D01*
X126071105Y-99970784D01*
X126059066Y-100093401D01*
X126038545Y-100183171D01*
X126007378Y-100250996D01*
X125963399Y-100307776D01*
X125951793Y-100319848D01*
X125927345Y-100339864D01*
X125894800Y-100354578D01*
X125845731Y-100364966D01*
X125771712Y-100372001D01*
X125664316Y-100376661D01*
X125515116Y-100379920D01*
X125315684Y-100382753D01*
X125280671Y-100383162D01*
X125106126Y-100383767D01*
X124955068Y-100381967D01*
X124836287Y-100378029D01*
X124758573Y-100372225D01*
X124730716Y-100364823D01*
X124713811Y-100351437D01*
X124661091Y-100352621D01*
X124659142Y-100352960D01*
X124592803Y-100338758D01*
X124559908Y-100316512D01*
X125405311Y-100316512D01*
X125419977Y-100331177D01*
X125434642Y-100316512D01*
X125419977Y-100301847D01*
X125405311Y-100316512D01*
X124559908Y-100316512D01*
X124520345Y-100289756D01*
X124461292Y-100222990D01*
X124442621Y-100174749D01*
X124584064Y-100174749D01*
X124584065Y-100175473D01*
X124594774Y-100249062D01*
X124628060Y-100272517D01*
X124658216Y-100265080D01*
X124669717Y-100235153D01*
X124635392Y-100205302D01*
X124613438Y-100187803D01*
X124635392Y-100152996D01*
X124656431Y-100128143D01*
X124668222Y-100089589D01*
X124628060Y-100076982D01*
X124627734Y-100076983D01*
X124594619Y-100100782D01*
X124584064Y-100174749D01*
X124442621Y-100174749D01*
X124435169Y-100155496D01*
X124431994Y-100123951D01*
X124419154Y-100052540D01*
X124418079Y-100047363D01*
X124411884Y-99993879D01*
X124672055Y-99993879D01*
X124686720Y-100008545D01*
X124701385Y-99993879D01*
X124686720Y-99979214D01*
X124672055Y-99993879D01*
X124411884Y-99993879D01*
X124410679Y-99983475D01*
X124407703Y-99938681D01*
X124466743Y-99938681D01*
X124468653Y-99942693D01*
X124496074Y-99935219D01*
X124504756Y-99929193D01*
X124525404Y-99902427D01*
X124523494Y-99898415D01*
X124496074Y-99905889D01*
X124487391Y-99911915D01*
X124466743Y-99938681D01*
X124407703Y-99938681D01*
X124404010Y-99883108D01*
X124399401Y-99765581D01*
X124399227Y-99755697D01*
X124621846Y-99755697D01*
X124628060Y-99769131D01*
X124643834Y-99803233D01*
X124672663Y-99860914D01*
X124686720Y-99890252D01*
X124699439Y-99916798D01*
X124705080Y-99924298D01*
X124734241Y-99937442D01*
X124792475Y-99946394D01*
X124887170Y-99951678D01*
X125025713Y-99953816D01*
X125215492Y-99953332D01*
X125339853Y-99952271D01*
X125419977Y-99951376D01*
X125495929Y-99950528D01*
X125626004Y-99948602D01*
X125719192Y-99946659D01*
X125764607Y-99944867D01*
X125791375Y-99941948D01*
X125811941Y-99937663D01*
X125806647Y-99921599D01*
X125795236Y-99869226D01*
X125792903Y-99857924D01*
X125784820Y-99837773D01*
X125766124Y-99823302D01*
X125728805Y-99813570D01*
X125664856Y-99807637D01*
X125566271Y-99804563D01*
X125425040Y-99803409D01*
X125233156Y-99803233D01*
X125029828Y-99802092D01*
X124866399Y-99798187D01*
X124751326Y-99791184D01*
X124679331Y-99780755D01*
X124645141Y-99766570D01*
X124629260Y-99752533D01*
X124621846Y-99755697D01*
X124399227Y-99755697D01*
X124398337Y-99705190D01*
X124401517Y-99600947D01*
X124413982Y-99538602D01*
X124437413Y-99506709D01*
X124463389Y-99481336D01*
X124444746Y-99461258D01*
X124432540Y-99455984D01*
X124403598Y-99432760D01*
X124429537Y-99414964D01*
X124511252Y-99402443D01*
X124523494Y-99401788D01*
X124629260Y-99396132D01*
X124649639Y-99395042D01*
X124845592Y-99392609D01*
X124950676Y-99393024D01*
X125106296Y-99396236D01*
X125212453Y-99403028D01*
X125275106Y-99413880D01*
X125300211Y-99429272D01*
X125315168Y-99450842D01*
X125334430Y-99429272D01*
X125334499Y-99429127D01*
X125362557Y-99412309D01*
X125431633Y-99400991D01*
X125547565Y-99394611D01*
X125716194Y-99392609D01*
X126080849Y-99392609D01*
X126077756Y-99731910D01*
G37*
G36*
X124844380Y-85051988D02*
G01*
X124862702Y-85054438D01*
X124910089Y-85060776D01*
X124936027Y-85078525D01*
X124941674Y-85090468D01*
X124978504Y-85090635D01*
X125009353Y-85090839D01*
X125035041Y-85091008D01*
X125079258Y-85116529D01*
X125120140Y-85140125D01*
X125222657Y-85240246D01*
X125340289Y-85389468D01*
X125420458Y-85496298D01*
X125449307Y-85528213D01*
X125483528Y-85566070D01*
X125537726Y-85605182D01*
X125593840Y-85623593D01*
X125651464Y-85628770D01*
X125736687Y-85614426D01*
X125794697Y-85577406D01*
X125810087Y-85524753D01*
X125809845Y-85523548D01*
X125788922Y-85493746D01*
X125733805Y-85476091D01*
X125632336Y-85466607D01*
X125463972Y-85457811D01*
X125463972Y-85272049D01*
X125465194Y-85198569D01*
X125477520Y-85116990D01*
X125512808Y-85074890D01*
X125582715Y-85062185D01*
X125698897Y-85068791D01*
X125707181Y-85069571D01*
X125850565Y-85098873D01*
X125952672Y-85158372D01*
X125977251Y-85190922D01*
X126025613Y-85254969D01*
X126026782Y-85257212D01*
X126051071Y-85325869D01*
X126069006Y-85416309D01*
X126080054Y-85515256D01*
X126083682Y-85609434D01*
X126079356Y-85685564D01*
X126066543Y-85730371D01*
X126044711Y-85730577D01*
X126024889Y-85713847D01*
X125983955Y-85695381D01*
X125978622Y-85706519D01*
X126005419Y-85742403D01*
X126005436Y-85742421D01*
X126033803Y-85778888D01*
X126031887Y-85817560D01*
X125998537Y-85881722D01*
X125991268Y-85893569D01*
X125943907Y-85950752D01*
X125902282Y-85974018D01*
X125884354Y-85976021D01*
X125841486Y-85999331D01*
X125809594Y-86013724D01*
X125732844Y-86022378D01*
X125630250Y-86022611D01*
X125519156Y-86015106D01*
X125416909Y-86000545D01*
X125340853Y-85979613D01*
X125283759Y-85944688D01*
X125434642Y-85944688D01*
X125449307Y-85959353D01*
X125463972Y-85944688D01*
X125449307Y-85930023D01*
X125434642Y-85944688D01*
X125283759Y-85944688D01*
X125273310Y-85938296D01*
X125192500Y-85855683D01*
X125150564Y-85798037D01*
X125962586Y-85798037D01*
X125977251Y-85812702D01*
X125991916Y-85798037D01*
X125977251Y-85783371D01*
X125962586Y-85798037D01*
X125150564Y-85798037D01*
X125098646Y-85726669D01*
X125077749Y-85695845D01*
X125004751Y-85596299D01*
X124938268Y-85516597D01*
X124890533Y-85471725D01*
X124808183Y-85439358D01*
X124722729Y-85447284D01*
X124660385Y-85498236D01*
X124655386Y-85507186D01*
X124653352Y-85559225D01*
X124702311Y-85593953D01*
X124796709Y-85606941D01*
X124814943Y-85607195D01*
X124850682Y-85613509D01*
X124869253Y-85638546D01*
X124876275Y-85695618D01*
X124877367Y-85798037D01*
X124877367Y-85988683D01*
X124761955Y-85988683D01*
X124624206Y-85974586D01*
X124516108Y-85925355D01*
X124435635Y-85835430D01*
X124407023Y-85782210D01*
X124388844Y-85717952D01*
X124382754Y-85631469D01*
X124383762Y-85592725D01*
X124437413Y-85592725D01*
X124452078Y-85607390D01*
X124466743Y-85592725D01*
X124452078Y-85578060D01*
X124437413Y-85592725D01*
X124383762Y-85592725D01*
X124386050Y-85504734D01*
X124401574Y-85342889D01*
X124413534Y-85299422D01*
X124994688Y-85299422D01*
X125009353Y-85314087D01*
X125024018Y-85299422D01*
X125009353Y-85284757D01*
X124994688Y-85299422D01*
X124413534Y-85299422D01*
X124434937Y-85221633D01*
X124435692Y-85220495D01*
X125024467Y-85220495D01*
X125024567Y-85227165D01*
X125030570Y-85253582D01*
X125053348Y-85226097D01*
X125074952Y-85185378D01*
X125079258Y-85150404D01*
X125053348Y-85152771D01*
X125039413Y-85167463D01*
X125024467Y-85220495D01*
X124435692Y-85220495D01*
X124452078Y-85195796D01*
X124461163Y-85182101D01*
X124848037Y-85182101D01*
X124862702Y-85196766D01*
X124877367Y-85182101D01*
X124862702Y-85167436D01*
X124848037Y-85182101D01*
X124461163Y-85182101D01*
X124490061Y-85138542D01*
X124571191Y-85083966D01*
X124590215Y-85076679D01*
X124666284Y-85060210D01*
X124757059Y-85051889D01*
X124844380Y-85051988D01*
G37*
G36*
X126068708Y-87990022D02*
G01*
X126064812Y-88078839D01*
X126059503Y-88196987D01*
X126055378Y-88285344D01*
X126053100Y-88329502D01*
X126049040Y-88344511D01*
X126021583Y-88349976D01*
X126008557Y-88346844D01*
X126008917Y-88374609D01*
X126012839Y-88396575D01*
X125993438Y-88436819D01*
X125982480Y-88445943D01*
X125975759Y-88479340D01*
X125968756Y-88513464D01*
X125931099Y-88565304D01*
X125929689Y-88566825D01*
X125896097Y-88610991D01*
X125895451Y-88630468D01*
X125896738Y-88637526D01*
X125859930Y-88657736D01*
X125809872Y-88670399D01*
X125712238Y-88680541D01*
X125594364Y-88684228D01*
X125475889Y-88681490D01*
X125376453Y-88672359D01*
X125315696Y-88656867D01*
X125314704Y-88656326D01*
X125261742Y-88608723D01*
X125225121Y-88555080D01*
X125610623Y-88555080D01*
X125625288Y-88569746D01*
X125639953Y-88555080D01*
X125625288Y-88540415D01*
X125610623Y-88555080D01*
X125225121Y-88555080D01*
X125213273Y-88537724D01*
X125209609Y-88530639D01*
X125855042Y-88530639D01*
X125859341Y-88534149D01*
X125894149Y-88530639D01*
X125898738Y-88521816D01*
X125874595Y-88511085D01*
X125859068Y-88513202D01*
X125855042Y-88530639D01*
X125209609Y-88530639D01*
X125167279Y-88448781D01*
X125101964Y-88545926D01*
X125066868Y-88593459D01*
X125024106Y-88627381D01*
X124962317Y-88643681D01*
X124861684Y-88651028D01*
X124795431Y-88651493D01*
X124638176Y-88627010D01*
X124518618Y-88567015D01*
X124443057Y-88474168D01*
X124434722Y-88450996D01*
X124427186Y-88410160D01*
X125903926Y-88410160D01*
X125904688Y-88413087D01*
X125933256Y-88423094D01*
X125941295Y-88421901D01*
X125962586Y-88392033D01*
X125960283Y-88381424D01*
X125933256Y-88379099D01*
X125924478Y-88385119D01*
X125903926Y-88410160D01*
X124427186Y-88410160D01*
X124421454Y-88379099D01*
X125815935Y-88379099D01*
X125830600Y-88393764D01*
X125845265Y-88379099D01*
X125830600Y-88364434D01*
X125815935Y-88379099D01*
X124421454Y-88379099D01*
X124417595Y-88358190D01*
X124412053Y-88295996D01*
X125972363Y-88295996D01*
X125976662Y-88299507D01*
X126011470Y-88295996D01*
X126016059Y-88287174D01*
X125991916Y-88276443D01*
X125976389Y-88278560D01*
X125972363Y-88295996D01*
X124412053Y-88295996D01*
X124405356Y-88220851D01*
X124404199Y-88189396D01*
X124670029Y-88189396D01*
X124707251Y-88241247D01*
X124753480Y-88262554D01*
X124836963Y-88274916D01*
X124929903Y-88274102D01*
X125006954Y-88258640D01*
X125031784Y-88240432D01*
X125053348Y-88185314D01*
X125048712Y-88158876D01*
X125023976Y-88140233D01*
X124966238Y-88131781D01*
X124862702Y-88129792D01*
X124746974Y-88135583D01*
X124682381Y-88154813D01*
X124670029Y-88189396D01*
X124404199Y-88189396D01*
X124401138Y-88106219D01*
X125313980Y-88106219D01*
X125322983Y-88183999D01*
X125325587Y-88203825D01*
X125336927Y-88236632D01*
X125366469Y-88253914D01*
X125427699Y-88260640D01*
X125534101Y-88261778D01*
X125551119Y-88261728D01*
X125625288Y-88258569D01*
X125662586Y-88256981D01*
X125727639Y-88243029D01*
X125756852Y-88217782D01*
X125764256Y-88202528D01*
X125968853Y-88202528D01*
X125972363Y-88237336D01*
X125981185Y-88241925D01*
X125991916Y-88217782D01*
X125989800Y-88202255D01*
X125972363Y-88198229D01*
X125968853Y-88202528D01*
X125764256Y-88202528D01*
X125776489Y-88177324D01*
X125811625Y-88107794D01*
X125827486Y-88063411D01*
X125818628Y-88041801D01*
X125810858Y-88042984D01*
X125781055Y-88073115D01*
X125780584Y-88074204D01*
X125743964Y-88090130D01*
X125660768Y-88101012D01*
X125542299Y-88105324D01*
X125313980Y-88106219D01*
X124401138Y-88106219D01*
X124399028Y-88048879D01*
X124396207Y-87875724D01*
X125684172Y-87875724D01*
X125694414Y-87914536D01*
X125722402Y-87962588D01*
X125757432Y-87997903D01*
X125759772Y-87999345D01*
X125780705Y-88009119D01*
X125778124Y-87990672D01*
X125750807Y-87931813D01*
X125724085Y-87889184D01*
X125693100Y-87865819D01*
X125684172Y-87875724D01*
X124396207Y-87875724D01*
X124393418Y-87704503D01*
X124862702Y-87700176D01*
X125237606Y-87696719D01*
X125693100Y-87692519D01*
X125818628Y-87691362D01*
X125830600Y-87691252D01*
X125874595Y-87690846D01*
X125933256Y-87690305D01*
X125972363Y-87689944D01*
X126081793Y-87688935D01*
X126068708Y-87990022D01*
G37*
G36*
X126058431Y-97610796D02*
G01*
X126061360Y-97642148D01*
X126069042Y-97714341D01*
X126074334Y-97750115D01*
X126074631Y-97766675D01*
X126040541Y-97799430D01*
X125970401Y-97822964D01*
X125879722Y-97835721D01*
X125784014Y-97836142D01*
X125698790Y-97822672D01*
X125639560Y-97793754D01*
X125610369Y-97772861D01*
X125542118Y-97747503D01*
X125478856Y-97745490D01*
X125443584Y-97769650D01*
X125445921Y-97791206D01*
X125484346Y-97817575D01*
X125493192Y-97823554D01*
X125462751Y-97831464D01*
X125390646Y-97836794D01*
X125337931Y-97839231D01*
X125221741Y-97847373D01*
X125116442Y-97857975D01*
X125037936Y-97869285D01*
X125002123Y-97879554D01*
X125007876Y-97882641D01*
X125056206Y-97893153D01*
X125142247Y-97908060D01*
X125252620Y-97925311D01*
X125373948Y-97942854D01*
X125492853Y-97958638D01*
X125595958Y-97970612D01*
X125745494Y-97986176D01*
X125872922Y-98000417D01*
X125958585Y-98012512D01*
X126011401Y-98024594D01*
X126040288Y-98038798D01*
X126054165Y-98057257D01*
X126061950Y-98082105D01*
X126071232Y-98126372D01*
X126079507Y-98208802D01*
X126078255Y-98229789D01*
X126067833Y-98253033D01*
X126039901Y-98271271D01*
X125986284Y-98286640D01*
X125898806Y-98301278D01*
X125769294Y-98317323D01*
X125589572Y-98336913D01*
X125512193Y-98345491D01*
X125371245Y-98362724D01*
X125248594Y-98379628D01*
X125164284Y-98393535D01*
X125038683Y-98418284D01*
X125141339Y-98423631D01*
X125274290Y-98430307D01*
X125438566Y-98437440D01*
X125601838Y-98442852D01*
X125793937Y-98447642D01*
X126079907Y-98454041D01*
X126079907Y-98538366D01*
X126075249Y-98617669D01*
X126061576Y-98714347D01*
X126043244Y-98806004D01*
X125209898Y-98806004D01*
X124376551Y-98806004D01*
X124384984Y-98534699D01*
X124393418Y-98263394D01*
X124686720Y-98225389D01*
X124765355Y-98214960D01*
X124891702Y-98197198D01*
X124993273Y-98181683D01*
X125053348Y-98170901D01*
X125091413Y-98161507D01*
X125105443Y-98149675D01*
X125068013Y-98132498D01*
X125046849Y-98126466D01*
X124969539Y-98110984D01*
X124858691Y-98093045D01*
X124730716Y-98075425D01*
X124660222Y-98065893D01*
X124548288Y-98047821D01*
X124466558Y-98030751D01*
X124429085Y-98017386D01*
X124425279Y-98010373D01*
X124414563Y-97955989D01*
X124413156Y-97940762D01*
X124584064Y-97940762D01*
X124598729Y-97955427D01*
X124613395Y-97940762D01*
X124598729Y-97926097D01*
X124584064Y-97940762D01*
X124413156Y-97940762D01*
X124406004Y-97863330D01*
X124401180Y-97747653D01*
X124399770Y-97676789D01*
X124906697Y-97676789D01*
X124921362Y-97691455D01*
X124936027Y-97676789D01*
X124921362Y-97662124D01*
X124906697Y-97676789D01*
X124399770Y-97676789D01*
X124398363Y-97606102D01*
X124937211Y-97606102D01*
X124941709Y-97629353D01*
X124976640Y-97606271D01*
X124981223Y-97602355D01*
X125017145Y-97557702D01*
X125019885Y-97525762D01*
X124987355Y-97522792D01*
X124966038Y-97537992D01*
X124939977Y-97590295D01*
X124937211Y-97606102D01*
X124398363Y-97606102D01*
X124397109Y-97543072D01*
X124760046Y-97543072D01*
X124761173Y-97551586D01*
X124789376Y-97574134D01*
X124796014Y-97573797D01*
X124818706Y-97561199D01*
X124817357Y-97556495D01*
X124789376Y-97530138D01*
X124778015Y-97525555D01*
X124760046Y-97543072D01*
X124397109Y-97543072D01*
X124396268Y-97500808D01*
X124598729Y-97498189D01*
X124778015Y-97495869D01*
X124824248Y-97495271D01*
X124891925Y-97494426D01*
X124921362Y-97494200D01*
X124987355Y-97493693D01*
X125038579Y-97493300D01*
X125138238Y-97494715D01*
X125199415Y-97499743D01*
X125230625Y-97509456D01*
X125240381Y-97524923D01*
X125237197Y-97547217D01*
X125234756Y-97556077D01*
X125214765Y-97587458D01*
X125176950Y-97567419D01*
X125158483Y-97552815D01*
X125145159Y-97550426D01*
X125164835Y-97592275D01*
X125182159Y-97635632D01*
X125181615Y-97670732D01*
X125178567Y-97677228D01*
X125204645Y-97677603D01*
X125306201Y-97646797D01*
X125366470Y-97608722D01*
X125394147Y-97555964D01*
X125399361Y-97537309D01*
X125413271Y-97512854D01*
X125442364Y-97497773D01*
X125497511Y-97489803D01*
X125589579Y-97486681D01*
X125729437Y-97486143D01*
X126047204Y-97486143D01*
X126058431Y-97610796D01*
G37*
G36*
X124913476Y-90375207D02*
G01*
X124925161Y-90376840D01*
X125034101Y-90404185D01*
X125126755Y-90456880D01*
X125215949Y-90544573D01*
X125243995Y-90582231D01*
X125273325Y-90621613D01*
X125302660Y-90661002D01*
X125314512Y-90676916D01*
X125398457Y-90795266D01*
X125467302Y-90875664D01*
X125528683Y-90921170D01*
X125593678Y-90939907D01*
X125673365Y-90939996D01*
X125729498Y-90933832D01*
X125788474Y-90913610D01*
X125795741Y-90901501D01*
X126021247Y-90901501D01*
X126035912Y-90916166D01*
X126050577Y-90901501D01*
X126035912Y-90886836D01*
X126021247Y-90901501D01*
X125795741Y-90901501D01*
X125811235Y-90875685D01*
X125813323Y-90853194D01*
X125790972Y-90805455D01*
X125722747Y-90778619D01*
X125603291Y-90769964D01*
X125463972Y-90769515D01*
X125463972Y-90642417D01*
X125561739Y-90642417D01*
X125566038Y-90645927D01*
X125600846Y-90642417D01*
X125855042Y-90642417D01*
X125859341Y-90645927D01*
X125894149Y-90642417D01*
X125898738Y-90633595D01*
X125874595Y-90622863D01*
X125859068Y-90624980D01*
X125855042Y-90642417D01*
X125600846Y-90642417D01*
X125605435Y-90633595D01*
X125581293Y-90622863D01*
X125565766Y-90624980D01*
X125561739Y-90642417D01*
X125463972Y-90642417D01*
X125463972Y-90574818D01*
X125463972Y-90461547D01*
X125786605Y-90461547D01*
X125801270Y-90476212D01*
X125815935Y-90461547D01*
X125801270Y-90446882D01*
X125786605Y-90461547D01*
X125463972Y-90461547D01*
X125463972Y-90380121D01*
X125581293Y-90391716D01*
X125661951Y-90399688D01*
X125723595Y-90407978D01*
X125801270Y-90426264D01*
X125836012Y-90434443D01*
X125874595Y-90449413D01*
X125927548Y-90469958D01*
X125985759Y-90509093D01*
X125998202Y-90546418D01*
X126002238Y-90567406D01*
X126034864Y-90611341D01*
X126035912Y-90612749D01*
X126044563Y-90624372D01*
X126067664Y-90696875D01*
X126078938Y-90802333D01*
X126078201Y-90922078D01*
X126065269Y-91037440D01*
X126039960Y-91129752D01*
X126017268Y-91177670D01*
X125945675Y-91271136D01*
X125845799Y-91325713D01*
X125704525Y-91350013D01*
X125620868Y-91354545D01*
X125502538Y-91350868D01*
X125402939Y-91327854D01*
X125312025Y-91279473D01*
X125219747Y-91199698D01*
X125116057Y-91082498D01*
X124990909Y-90921846D01*
X124985323Y-90914460D01*
X124948862Y-90868709D01*
X125287990Y-90868709D01*
X125290628Y-90888520D01*
X125317321Y-90930831D01*
X125331982Y-90933962D01*
X125346651Y-90904963D01*
X125344013Y-90885152D01*
X125317321Y-90842840D01*
X125302660Y-90839709D01*
X125287990Y-90868709D01*
X124948862Y-90868709D01*
X124920971Y-90833711D01*
X124873269Y-90790349D01*
X124855415Y-90784180D01*
X125258660Y-90784180D01*
X125273325Y-90798845D01*
X125287990Y-90784180D01*
X125273325Y-90769515D01*
X125258660Y-90784180D01*
X124855415Y-90784180D01*
X124826610Y-90774227D01*
X124765391Y-90775195D01*
X124718785Y-90780969D01*
X124670289Y-90801545D01*
X124657390Y-90842840D01*
X124661311Y-90869662D01*
X124692532Y-90897677D01*
X124767378Y-90910604D01*
X124877367Y-90919707D01*
X124877367Y-91125826D01*
X124877367Y-91331946D01*
X124752713Y-91312913D01*
X124690111Y-91302480D01*
X124568230Y-91271181D01*
X124485965Y-91223567D01*
X124434504Y-91149091D01*
X124405035Y-91037209D01*
X124397359Y-90961892D01*
X124408083Y-90961892D01*
X124408845Y-90964819D01*
X124437413Y-90974826D01*
X124445452Y-90973633D01*
X124466743Y-90943765D01*
X124464440Y-90933156D01*
X124437413Y-90930831D01*
X124428636Y-90936851D01*
X124408083Y-90961892D01*
X124397359Y-90961892D01*
X124388745Y-90877374D01*
X124385211Y-90821847D01*
X124382090Y-90725519D01*
X125229330Y-90725519D01*
X125243995Y-90740184D01*
X125258660Y-90725519D01*
X125243995Y-90710854D01*
X125229330Y-90725519D01*
X124382090Y-90725519D01*
X124381835Y-90717633D01*
X124388343Y-90647021D01*
X124407487Y-90592374D01*
X124437413Y-90543571D01*
X124437945Y-90542704D01*
X124686168Y-90542704D01*
X124702306Y-90564203D01*
X124715366Y-90559247D01*
X124730716Y-90520207D01*
X124729442Y-90500163D01*
X124719188Y-90476212D01*
X124711597Y-90481616D01*
X124690779Y-90520207D01*
X124686168Y-90542704D01*
X124437945Y-90542704D01*
X124442022Y-90536055D01*
X124479195Y-90491425D01*
X124594733Y-90413758D01*
X124719188Y-90380223D01*
X124743231Y-90373744D01*
X124913476Y-90375207D01*
G37*
G36*
X125280332Y-96318429D02*
G01*
X125384760Y-96320135D01*
X125685847Y-96325054D01*
X125796381Y-96326860D01*
X125830600Y-96327419D01*
X125841561Y-96327598D01*
X125859930Y-96344998D01*
X125934451Y-96415588D01*
X125954907Y-96435819D01*
X125987498Y-96473619D01*
X126014517Y-96504957D01*
X126049091Y-96560723D01*
X126062179Y-96601810D01*
X126074379Y-96710951D01*
X126056193Y-96806337D01*
X126011912Y-96873891D01*
X125945826Y-96899538D01*
X125927529Y-96902500D01*
X125903926Y-96928868D01*
X125907476Y-96946104D01*
X125937538Y-96955344D01*
X125986050Y-96923002D01*
X126012590Y-96902596D01*
X126021247Y-96923002D01*
X126019335Y-96935213D01*
X125990631Y-96958198D01*
X125979145Y-96961122D01*
X125965803Y-96994861D01*
X125966493Y-97002571D01*
X125952571Y-97070075D01*
X125915934Y-97152165D01*
X125869043Y-97225044D01*
X125824360Y-97264921D01*
X125814944Y-97268171D01*
X125735469Y-97283694D01*
X125622084Y-97295258D01*
X125495590Y-97301712D01*
X125376791Y-97301905D01*
X125286487Y-97294686D01*
X125255210Y-97288417D01*
X125187018Y-97254534D01*
X125147871Y-97191109D01*
X125815935Y-97191109D01*
X125817062Y-97199623D01*
X125845265Y-97222170D01*
X125851903Y-97221834D01*
X125874595Y-97209236D01*
X125873246Y-97204531D01*
X125845265Y-97178175D01*
X125833904Y-97173592D01*
X125815935Y-97191109D01*
X125147871Y-97191109D01*
X125143430Y-97183914D01*
X125124845Y-97142616D01*
X125104574Y-97118451D01*
X125091184Y-97142921D01*
X125088770Y-97174596D01*
X125109332Y-97233611D01*
X125125595Y-97258916D01*
X125118036Y-97288991D01*
X125062138Y-97304879D01*
X124953137Y-97308877D01*
X124844805Y-97301874D01*
X124675396Y-97263621D01*
X124537335Y-97196347D01*
X124442622Y-97104849D01*
X124441442Y-97103103D01*
X124417606Y-97062585D01*
X125845265Y-97062585D01*
X125846028Y-97065512D01*
X125874595Y-97075519D01*
X125882635Y-97074326D01*
X125903926Y-97044458D01*
X125901623Y-97033849D01*
X125874595Y-97031524D01*
X125865818Y-97037544D01*
X125845265Y-97062585D01*
X124417606Y-97062585D01*
X124405711Y-97042365D01*
X124386747Y-96981512D01*
X124382025Y-96914203D01*
X125815935Y-96914203D01*
X125830600Y-96928868D01*
X125833904Y-96925564D01*
X125845265Y-96914203D01*
X125830600Y-96899538D01*
X125815935Y-96914203D01*
X124382025Y-96914203D01*
X124381109Y-96901146D01*
X124383931Y-96821962D01*
X124651700Y-96821962D01*
X124652744Y-96824382D01*
X124669008Y-96840409D01*
X124705358Y-96852475D01*
X124769509Y-96861336D01*
X124869176Y-96867749D01*
X125012074Y-96872468D01*
X125205917Y-96876250D01*
X125368085Y-96877653D01*
X125523739Y-96876480D01*
X125650841Y-96872830D01*
X125739362Y-96866999D01*
X125779272Y-96859284D01*
X125789422Y-96850945D01*
X125815100Y-96796491D01*
X125810095Y-96782217D01*
X125970651Y-96782217D01*
X125977161Y-96816175D01*
X125996335Y-96840877D01*
X126007907Y-96829783D01*
X126013182Y-96782217D01*
X126006672Y-96748258D01*
X125987498Y-96723556D01*
X125975926Y-96734650D01*
X125970651Y-96782217D01*
X125810095Y-96782217D01*
X125796381Y-96743110D01*
X125793623Y-96741474D01*
X125747530Y-96734248D01*
X125656421Y-96729022D01*
X125531697Y-96725723D01*
X125384760Y-96724277D01*
X125227010Y-96724610D01*
X125069849Y-96726649D01*
X124924678Y-96730318D01*
X124802897Y-96735545D01*
X124715909Y-96742255D01*
X124675114Y-96750375D01*
X124657155Y-96769246D01*
X124651700Y-96821962D01*
X124383931Y-96821962D01*
X124385360Y-96781872D01*
X124389809Y-96716341D01*
X124394761Y-96679561D01*
X125845265Y-96679561D01*
X125859930Y-96694226D01*
X125874595Y-96679561D01*
X125859930Y-96664896D01*
X125845265Y-96679561D01*
X124394761Y-96679561D01*
X124406479Y-96592535D01*
X124406983Y-96590980D01*
X125792871Y-96590980D01*
X125796381Y-96625789D01*
X125805203Y-96630377D01*
X125815935Y-96606235D01*
X125813818Y-96590708D01*
X125796381Y-96586682D01*
X125792871Y-96590980D01*
X124406983Y-96590980D01*
X124437625Y-96496397D01*
X124487481Y-96427505D01*
X125685666Y-96427505D01*
X125712649Y-96476390D01*
X125741338Y-96506595D01*
X125755893Y-96503579D01*
X125755517Y-96495875D01*
X125739204Y-96448600D01*
X125710572Y-96410251D01*
X125685847Y-96403914D01*
X125685666Y-96427505D01*
X124487481Y-96427505D01*
X124489529Y-96424675D01*
X124568475Y-96374116D01*
X124680746Y-96341465D01*
X124832624Y-96323469D01*
X125030391Y-96316875D01*
X125280332Y-96318429D01*
G37*
G36*
X124878287Y-80296387D02*
G01*
X124916635Y-80297495D01*
X124968348Y-80309826D01*
X124976942Y-80332928D01*
X124971508Y-80352707D01*
X124999081Y-80349123D01*
X125004939Y-80348362D01*
X125006688Y-80347733D01*
X125067252Y-80356985D01*
X125149069Y-80414955D01*
X125163830Y-80428391D01*
X125166050Y-80430412D01*
X125214244Y-80481603D01*
X125224957Y-80519761D01*
X125205300Y-80563694D01*
X125184049Y-80609279D01*
X125183302Y-80643656D01*
X125188357Y-80647329D01*
X125200000Y-80631023D01*
X125204645Y-80611350D01*
X125236762Y-80599396D01*
X125287258Y-80616942D01*
X125341664Y-80655053D01*
X125385512Y-80704792D01*
X125404336Y-80757223D01*
X125408422Y-80768519D01*
X125450404Y-80805639D01*
X125522228Y-80845198D01*
X125604477Y-80877551D01*
X125677735Y-80893052D01*
X125720305Y-80901220D01*
X125767374Y-80927807D01*
X125779827Y-80937393D01*
X125775987Y-80908156D01*
X125771716Y-80878948D01*
X125787886Y-80840432D01*
X125802964Y-80822215D01*
X125815935Y-80766726D01*
X125813257Y-80753233D01*
X125874595Y-80753233D01*
X125889261Y-80767898D01*
X125903926Y-80753233D01*
X125889261Y-80738568D01*
X125874595Y-80753233D01*
X125813257Y-80753233D01*
X125810198Y-80737824D01*
X125776240Y-80706998D01*
X125703189Y-80686739D01*
X125581293Y-80673160D01*
X125478637Y-80665242D01*
X125476875Y-80481928D01*
X125475113Y-80298614D01*
X125579531Y-80298777D01*
X125663974Y-80304921D01*
X125781904Y-80331809D01*
X125886032Y-80374471D01*
X125889261Y-80376601D01*
X125965310Y-80426758D01*
X126008689Y-80482523D01*
X126005123Y-80535616D01*
X125996938Y-80553527D01*
X126014618Y-80552018D01*
X126038473Y-80554201D01*
X126060859Y-80598814D01*
X126066612Y-80651138D01*
X126069334Y-80746715D01*
X126067269Y-80857670D01*
X126066618Y-80871686D01*
X126045809Y-81030511D01*
X125997637Y-81143149D01*
X125915265Y-81215856D01*
X125791855Y-81254891D01*
X125620569Y-81266512D01*
X125549844Y-81264555D01*
X125409305Y-81241842D01*
X125293372Y-81187176D01*
X125188252Y-81092471D01*
X125080155Y-80949640D01*
X125068183Y-80932128D01*
X124995282Y-80835036D01*
X124926150Y-80756670D01*
X124874321Y-80712616D01*
X124808646Y-80689170D01*
X124728992Y-80688902D01*
X124667423Y-80715710D01*
X124642725Y-80765319D01*
X124649829Y-80799101D01*
X124702496Y-80841687D01*
X124806440Y-80855889D01*
X124816237Y-80855976D01*
X124850366Y-80861958D01*
X124868649Y-80886889D01*
X124876008Y-80944004D01*
X124877367Y-81046535D01*
X124877367Y-81237182D01*
X124752713Y-81236750D01*
X124609580Y-81218514D01*
X124504642Y-81161436D01*
X124430126Y-81060792D01*
X124403798Y-80986862D01*
X124385467Y-80888147D01*
X124379109Y-80789119D01*
X124385847Y-80708755D01*
X124406802Y-80666034D01*
X124418027Y-80652801D01*
X124418126Y-80635912D01*
X124466743Y-80635912D01*
X124481408Y-80650577D01*
X124496074Y-80635912D01*
X124481408Y-80621247D01*
X124466743Y-80635912D01*
X124418126Y-80635912D01*
X124418304Y-80605577D01*
X124414961Y-80547921D01*
X124730716Y-80547921D01*
X124745381Y-80562586D01*
X124760046Y-80547921D01*
X124745381Y-80533256D01*
X124730716Y-80547921D01*
X124414961Y-80547921D01*
X124413259Y-80518567D01*
X124434305Y-80472864D01*
X124760046Y-80472864D01*
X124761173Y-80481378D01*
X124789376Y-80503926D01*
X124796014Y-80503589D01*
X124808683Y-80496556D01*
X124939510Y-80496556D01*
X124939544Y-80540772D01*
X124962220Y-80562586D01*
X124988307Y-80547211D01*
X125001241Y-80519881D01*
X125151116Y-80519881D01*
X125153675Y-80538849D01*
X125175558Y-80562586D01*
X125180321Y-80562057D01*
X125200000Y-80534987D01*
X125199758Y-80530966D01*
X125175558Y-80492282D01*
X125163830Y-80490305D01*
X125151116Y-80519881D01*
X125001241Y-80519881D01*
X125009345Y-80502756D01*
X125003241Y-80463595D01*
X124999081Y-80460380D01*
X124961267Y-80462459D01*
X124939510Y-80496556D01*
X124808683Y-80496556D01*
X124818706Y-80490992D01*
X124817357Y-80486287D01*
X124789376Y-80459930D01*
X124778015Y-80455347D01*
X124760046Y-80472864D01*
X124434305Y-80472864D01*
X124454455Y-80429105D01*
X124481408Y-80404347D01*
X124525873Y-80363502D01*
X124866151Y-80363502D01*
X124866760Y-80401270D01*
X124876258Y-80422330D01*
X124895170Y-80445265D01*
X124900422Y-80440402D01*
X124906697Y-80401270D01*
X124903497Y-80381045D01*
X124878287Y-80357274D01*
X124866151Y-80363502D01*
X124525873Y-80363502D01*
X124533524Y-80356474D01*
X124566527Y-80340593D01*
X124646750Y-80317484D01*
X124741439Y-80302089D01*
X124745381Y-80301801D01*
X124778015Y-80299419D01*
X124836200Y-80295171D01*
X124878287Y-80296387D01*
G37*
G36*
X124778015Y-88867698D02*
G01*
X124823339Y-88874604D01*
X124849791Y-88893758D01*
X124864498Y-88927368D01*
X124876215Y-88962066D01*
X124889716Y-88974932D01*
X124907371Y-88935404D01*
X124908325Y-88932880D01*
X124931978Y-88898156D01*
X124978196Y-88884817D01*
X124999081Y-88885469D01*
X125064536Y-88887511D01*
X125107086Y-88892324D01*
X125163830Y-88905431D01*
X125173729Y-88907718D01*
X125200000Y-88926393D01*
X125202565Y-88936059D01*
X125230505Y-88935647D01*
X125237808Y-88933486D01*
X125246503Y-88956569D01*
X125239540Y-89008023D01*
X125220839Y-89068169D01*
X125194319Y-89117333D01*
X125183296Y-89137342D01*
X125205695Y-89142345D01*
X125293020Y-89116501D01*
X125352724Y-89083025D01*
X125991916Y-89083025D01*
X126006582Y-89097690D01*
X126021247Y-89083025D01*
X126006582Y-89068360D01*
X125991916Y-89083025D01*
X125352724Y-89083025D01*
X125369824Y-89073437D01*
X125395264Y-89018413D01*
X125373558Y-88946511D01*
X125362090Y-88923378D01*
X125362702Y-88896080D01*
X125410326Y-88896403D01*
X125458054Y-88897658D01*
X125510713Y-88885245D01*
X125520636Y-88881940D01*
X125580900Y-88876864D01*
X125678113Y-88877238D01*
X125796683Y-88883174D01*
X126006582Y-88897986D01*
X126050577Y-88901091D01*
X126050577Y-89068299D01*
X126050577Y-89235506D01*
X125846651Y-89238273D01*
X125738564Y-89236485D01*
X125629298Y-89228312D01*
X125553744Y-89215522D01*
X125486888Y-89204569D01*
X125447971Y-89217172D01*
X125443295Y-89220968D01*
X125394208Y-89232878D01*
X125305866Y-89241207D01*
X125193380Y-89244341D01*
X125155358Y-89244532D01*
X125056123Y-89247171D01*
X124990186Y-89252267D01*
X124970226Y-89258987D01*
X124985904Y-89264824D01*
X125049762Y-89279029D01*
X125150059Y-89297253D01*
X125273613Y-89316977D01*
X125353634Y-89329834D01*
X125466879Y-89351275D01*
X125549726Y-89371104D01*
X125588298Y-89386265D01*
X125595796Y-89391151D01*
X125595958Y-89391181D01*
X125650968Y-89401318D01*
X125731501Y-89398665D01*
X125741975Y-89397566D01*
X125757274Y-89397162D01*
X125849630Y-89394725D01*
X125947884Y-89403716D01*
X125998790Y-89416453D01*
X126041372Y-89449382D01*
X126058516Y-89516641D01*
X126058711Y-89518243D01*
X126065266Y-89592548D01*
X126065210Y-89640238D01*
X126051634Y-89650062D01*
X125990741Y-89667880D01*
X125892483Y-89686825D01*
X125769516Y-89704162D01*
X125723650Y-89709726D01*
X125553076Y-89731651D01*
X125377802Y-89755685D01*
X125229330Y-89777550D01*
X124980023Y-89816281D01*
X125522632Y-89830946D01*
X126065242Y-89845612D01*
X126073944Y-89994868D01*
X126075085Y-90019394D01*
X126068925Y-90123480D01*
X126041032Y-90178660D01*
X126008476Y-90189739D01*
X125938209Y-90197993D01*
X125826052Y-90203553D01*
X125667824Y-90206550D01*
X125459340Y-90207116D01*
X125196418Y-90205385D01*
X124393418Y-90197575D01*
X124384824Y-89950995D01*
X124383759Y-89910733D01*
X124384538Y-89800790D01*
X124390561Y-89718665D01*
X124400915Y-89679731D01*
X124436017Y-89666722D01*
X124517643Y-89648277D01*
X124633032Y-89627239D01*
X124769751Y-89606091D01*
X124773314Y-89605583D01*
X124903824Y-89584980D01*
X125007163Y-89564910D01*
X125072988Y-89547648D01*
X125090958Y-89535468D01*
X125088335Y-89533577D01*
X125056724Y-89522979D01*
X125581293Y-89522979D01*
X125595958Y-89537644D01*
X125610623Y-89522979D01*
X125595958Y-89508314D01*
X125581293Y-89522979D01*
X125056724Y-89522979D01*
X125042234Y-89518121D01*
X124956739Y-89499191D01*
X124848037Y-89480453D01*
X124827389Y-89477231D01*
X124724904Y-89458261D01*
X124651839Y-89439876D01*
X125737721Y-89439876D01*
X125742020Y-89443387D01*
X125776828Y-89439876D01*
X125781417Y-89431054D01*
X125757274Y-89420323D01*
X125741747Y-89422440D01*
X125737721Y-89439876D01*
X124651839Y-89439876D01*
X124650917Y-89439644D01*
X124620264Y-89424993D01*
X124618509Y-89422342D01*
X124580063Y-89412499D01*
X124510276Y-89414810D01*
X124496433Y-89416193D01*
X124433239Y-89415177D01*
X124406976Y-89401534D01*
X124406701Y-89393715D01*
X124405098Y-89337646D01*
X124402609Y-89243635D01*
X124399644Y-89127020D01*
X124398545Y-89083025D01*
X124730716Y-89083025D01*
X124745381Y-89097690D01*
X124760046Y-89083025D01*
X124745381Y-89068360D01*
X124730716Y-89083025D01*
X124398545Y-89083025D01*
X124396671Y-89007968D01*
X124760046Y-89007968D01*
X124761173Y-89016482D01*
X124789376Y-89039030D01*
X124796014Y-89038693D01*
X124808682Y-89031660D01*
X124939510Y-89031660D01*
X124939544Y-89075876D01*
X124962220Y-89097690D01*
X124988307Y-89082315D01*
X125001241Y-89054985D01*
X125151116Y-89054985D01*
X125153675Y-89073953D01*
X125175558Y-89097690D01*
X125180321Y-89097160D01*
X125200000Y-89070091D01*
X125199758Y-89066070D01*
X125175558Y-89027386D01*
X125163830Y-89025409D01*
X125151116Y-89054985D01*
X125001241Y-89054985D01*
X125009345Y-89037860D01*
X125003241Y-88998699D01*
X124999081Y-88995484D01*
X124961267Y-88997563D01*
X124939510Y-89031660D01*
X124808682Y-89031660D01*
X124818706Y-89026095D01*
X124817357Y-89021391D01*
X124789376Y-88995034D01*
X124778015Y-88990451D01*
X124760046Y-89007968D01*
X124396671Y-89007968D01*
X124393418Y-88877713D01*
X124618372Y-88869189D01*
X124681648Y-88867012D01*
X124745381Y-88866822D01*
X124771753Y-88866744D01*
X124778015Y-88867698D01*
G37*
G36*
X126415657Y-80354769D02*
G01*
X126419747Y-80365524D01*
X126403018Y-80400974D01*
X126394684Y-80406931D01*
X126372288Y-80446107D01*
X126383395Y-80479668D01*
X126422297Y-80483248D01*
X126424385Y-80482457D01*
X126457196Y-80479664D01*
X126450956Y-80517647D01*
X126446721Y-80529036D01*
X126443577Y-80554740D01*
X126446535Y-80552788D01*
X126474847Y-80534101D01*
X126476836Y-80532463D01*
X126514676Y-80513820D01*
X126537604Y-80545366D01*
X126558949Y-80575778D01*
X126588298Y-80563283D01*
X126596612Y-80559743D01*
X126600659Y-80556824D01*
X126614040Y-80557839D01*
X126623793Y-80583831D01*
X126630450Y-80641536D01*
X126634546Y-80737688D01*
X126636612Y-80879022D01*
X126637182Y-81072274D01*
X126636724Y-81189576D01*
X126633559Y-81371588D01*
X126627558Y-81506245D01*
X126618922Y-81589792D01*
X126607852Y-81618475D01*
X126600851Y-81619315D01*
X126578522Y-81647470D01*
X126565953Y-81681188D01*
X126527703Y-81735818D01*
X126499394Y-81766995D01*
X126474907Y-81776812D01*
X126456438Y-81743485D01*
X126449487Y-81726195D01*
X126437550Y-81707482D01*
X126433932Y-81744049D01*
X126446535Y-81782987D01*
X126450235Y-81794419D01*
X126502395Y-81815743D01*
X126575687Y-81795974D01*
X126589568Y-81789018D01*
X126604889Y-81786343D01*
X126616413Y-81797438D01*
X126624681Y-81828716D01*
X126630232Y-81886591D01*
X126633609Y-81977474D01*
X126635351Y-82107779D01*
X126636000Y-82283919D01*
X126636096Y-82512307D01*
X126636063Y-82559056D01*
X126634520Y-82807789D01*
X126630710Y-83003830D01*
X126624694Y-83145697D01*
X126616530Y-83231904D01*
X126606277Y-83260970D01*
X126606248Y-83260970D01*
X126561792Y-83247049D01*
X126496831Y-83213630D01*
X126417205Y-83166290D01*
X126446535Y-83193658D01*
X126475866Y-83221027D01*
X126497863Y-83241553D01*
X126508789Y-83252182D01*
X126558372Y-83314066D01*
X126578522Y-83363950D01*
X126582955Y-83386049D01*
X126607852Y-83392956D01*
X126612642Y-83410674D01*
X126617777Y-83485628D01*
X126622313Y-83618981D01*
X126626249Y-83810593D01*
X126629583Y-84060325D01*
X126632315Y-84368035D01*
X126634442Y-84733585D01*
X126635963Y-85156834D01*
X126636877Y-85637641D01*
X126637182Y-86175868D01*
X126637182Y-86187028D01*
X126636866Y-86704434D01*
X126635949Y-87171814D01*
X126634443Y-87588210D01*
X126632355Y-87952661D01*
X126629696Y-88264208D01*
X126626477Y-88521893D01*
X126622707Y-88724757D01*
X126618395Y-88871840D01*
X126613552Y-88962183D01*
X126608188Y-88994827D01*
X126595308Y-88998045D01*
X126595272Y-88970846D01*
X126589169Y-88936701D01*
X126528943Y-88908377D01*
X126463015Y-88883824D01*
X126394960Y-88841328D01*
X126394284Y-88840706D01*
X126386689Y-88831056D01*
X126379889Y-88815127D01*
X126373842Y-88789838D01*
X126368503Y-88752107D01*
X126363832Y-88698853D01*
X126359785Y-88626995D01*
X126356319Y-88533451D01*
X126353391Y-88415141D01*
X126350960Y-88268983D01*
X126348982Y-88091896D01*
X126348061Y-87967886D01*
X126438137Y-87967886D01*
X126441647Y-88002694D01*
X126450469Y-88007283D01*
X126461201Y-87983140D01*
X126459084Y-87967613D01*
X126441647Y-87963587D01*
X126438137Y-87967886D01*
X126348061Y-87967886D01*
X126347414Y-87880798D01*
X126346213Y-87632609D01*
X126345338Y-87344246D01*
X126344744Y-87012630D01*
X126344390Y-86634678D01*
X126344363Y-86560034D01*
X126438137Y-86560034D01*
X126441647Y-86594842D01*
X126450469Y-86599430D01*
X126461201Y-86575288D01*
X126459084Y-86559761D01*
X126441647Y-86555735D01*
X126438137Y-86560034D01*
X126344363Y-86560034D01*
X126344233Y-86207309D01*
X126344230Y-85727443D01*
X126344338Y-85191997D01*
X126344430Y-84930826D01*
X126344797Y-84399767D01*
X126345408Y-83923711D01*
X126345720Y-83774249D01*
X126461201Y-83774249D01*
X126475866Y-83788914D01*
X126490531Y-83774249D01*
X126475866Y-83759584D01*
X126461201Y-83774249D01*
X126345720Y-83774249D01*
X126346291Y-83500145D01*
X126346630Y-83392956D01*
X126461201Y-83392956D01*
X126475866Y-83407621D01*
X126490531Y-83392956D01*
X126475866Y-83378291D01*
X126461201Y-83392956D01*
X126346630Y-83392956D01*
X126347000Y-83275635D01*
X126431870Y-83275635D01*
X126441647Y-83285412D01*
X126446535Y-83290300D01*
X126461201Y-83275635D01*
X126446535Y-83260970D01*
X126431870Y-83275635D01*
X126347000Y-83275635D01*
X126347471Y-83126557D01*
X126348973Y-82800435D01*
X126350823Y-82519267D01*
X126353047Y-82280541D01*
X126355671Y-82081746D01*
X126358721Y-81920368D01*
X126360176Y-81867782D01*
X126431870Y-81867782D01*
X126446535Y-81882448D01*
X126461201Y-81867782D01*
X126446535Y-81853117D01*
X126431870Y-81867782D01*
X126360176Y-81867782D01*
X126362221Y-81793897D01*
X126366198Y-81699819D01*
X126370678Y-81635624D01*
X126375686Y-81598798D01*
X126381247Y-81586830D01*
X126401333Y-81583057D01*
X126380542Y-81569720D01*
X126373002Y-81562373D01*
X126367611Y-81544560D01*
X126584788Y-81544560D01*
X126588298Y-81579368D01*
X126597120Y-81583957D01*
X126607852Y-81559815D01*
X126605735Y-81544287D01*
X126588298Y-81540261D01*
X126584788Y-81544560D01*
X126367611Y-81544560D01*
X126361613Y-81524742D01*
X126353345Y-81451137D01*
X126347860Y-81335894D01*
X126345738Y-81222517D01*
X126431870Y-81222517D01*
X126446535Y-81237182D01*
X126461201Y-81222517D01*
X126446535Y-81207852D01*
X126431870Y-81222517D01*
X126345738Y-81222517D01*
X126344818Y-81173347D01*
X126343880Y-80957831D01*
X126343996Y-80885980D01*
X126346309Y-80674293D01*
X126351910Y-80516612D01*
X126361221Y-80409379D01*
X126374667Y-80349034D01*
X126392671Y-80332017D01*
X126415657Y-80354769D01*
G37*
G36*
X126417205Y-88892378D02*
G01*
X126421788Y-88903740D01*
X126404271Y-88921709D01*
X126389963Y-88926687D01*
X126373210Y-88965704D01*
X126379480Y-88987562D01*
X126420343Y-89009699D01*
X126430139Y-89012457D01*
X126440278Y-89015312D01*
X126447773Y-89017423D01*
X126449002Y-89057843D01*
X126445745Y-89066594D01*
X126443319Y-89090281D01*
X126474847Y-89069205D01*
X126476836Y-89067567D01*
X126514676Y-89048924D01*
X126537604Y-89080470D01*
X126558949Y-89110882D01*
X126593187Y-89096305D01*
X126596612Y-89094847D01*
X126608314Y-89098564D01*
X126621817Y-89146719D01*
X126631882Y-89235694D01*
X126638545Y-89355119D01*
X126641842Y-89494626D01*
X126641808Y-89643845D01*
X126638478Y-89792407D01*
X126631889Y-89929943D01*
X126622075Y-90046084D01*
X126609073Y-90130461D01*
X126592917Y-90172704D01*
X126570522Y-90205672D01*
X126568289Y-90251267D01*
X126574772Y-90265060D01*
X126564126Y-90264024D01*
X126540065Y-90261783D01*
X126498588Y-90293354D01*
X126475370Y-90318265D01*
X126474169Y-90309590D01*
X126478553Y-90294579D01*
X126461679Y-90256531D01*
X126446070Y-90253837D01*
X126431870Y-90284755D01*
X126449588Y-90330645D01*
X126502986Y-90350613D01*
X126575687Y-90331078D01*
X126589568Y-90324122D01*
X126604889Y-90321447D01*
X126616413Y-90332542D01*
X126624681Y-90363820D01*
X126630232Y-90421695D01*
X126633609Y-90512578D01*
X126635351Y-90642883D01*
X126636000Y-90819023D01*
X126636096Y-91047411D01*
X126635638Y-91224745D01*
X126634078Y-91409698D01*
X126631572Y-91567079D01*
X126628287Y-91689117D01*
X126624389Y-91768039D01*
X126620046Y-91796073D01*
X126597409Y-91789244D01*
X126544114Y-91764026D01*
X126502250Y-91749427D01*
X126464895Y-91756693D01*
X126459356Y-91764223D01*
X126457236Y-91775108D01*
X126470442Y-91772306D01*
X126475866Y-91774701D01*
X126505196Y-91787649D01*
X126516078Y-91792453D01*
X126559309Y-91837263D01*
X126578522Y-91886827D01*
X126584637Y-91919221D01*
X126607852Y-91928060D01*
X126612522Y-91944689D01*
X126617682Y-92018228D01*
X126622240Y-92150168D01*
X126626195Y-92340367D01*
X126629546Y-92588686D01*
X126632291Y-92894981D01*
X126634429Y-93259113D01*
X126635957Y-93680941D01*
X126636876Y-94160322D01*
X126637182Y-94697117D01*
X126637142Y-95156762D01*
X126636976Y-95569567D01*
X126636621Y-95930517D01*
X126636013Y-96243047D01*
X126635090Y-96510588D01*
X126633786Y-96736573D01*
X126632039Y-96924434D01*
X126629784Y-97077605D01*
X126626959Y-97199517D01*
X126623499Y-97293603D01*
X126619341Y-97363297D01*
X126614422Y-97412029D01*
X126608677Y-97443234D01*
X126602043Y-97460342D01*
X126594457Y-97466788D01*
X126585854Y-97466004D01*
X126557358Y-97454357D01*
X126505113Y-97425354D01*
X126502741Y-97423722D01*
X126457672Y-97424137D01*
X126408827Y-97458816D01*
X126379343Y-97511845D01*
X126381792Y-97534504D01*
X126419541Y-97533300D01*
X126424877Y-97531338D01*
X126440278Y-97531656D01*
X126455629Y-97531972D01*
X126452378Y-97575374D01*
X126451057Y-97580544D01*
X126448178Y-97617020D01*
X126473005Y-97605838D01*
X126499028Y-97591969D01*
X126505196Y-97594542D01*
X126545244Y-97611249D01*
X126577052Y-97630798D01*
X126593187Y-97616704D01*
X126608624Y-97603219D01*
X126615304Y-97602806D01*
X126624387Y-97648226D01*
X126631053Y-97749355D01*
X126635202Y-97904384D01*
X126636733Y-98111506D01*
X126636425Y-98261733D01*
X126634249Y-98427317D01*
X126629566Y-98547029D01*
X126621858Y-98628319D01*
X126610603Y-98678640D01*
X126595282Y-98705443D01*
X126567099Y-98728539D01*
X126522877Y-98747344D01*
X126510092Y-98752504D01*
X126508116Y-98788372D01*
X126511350Y-98809003D01*
X126487999Y-98851565D01*
X126470241Y-98859660D01*
X126471812Y-98841893D01*
X126477074Y-98828315D01*
X126461874Y-98791755D01*
X126443183Y-98796906D01*
X126438260Y-98845939D01*
X126445506Y-98892166D01*
X126468457Y-98902124D01*
X126524599Y-98876880D01*
X126524964Y-98876691D01*
X126586059Y-98847476D01*
X126620517Y-98835334D01*
X126624204Y-98856641D01*
X126628053Y-98929346D01*
X126631329Y-99046181D01*
X126633869Y-99199372D01*
X126635512Y-99381145D01*
X126636096Y-99583728D01*
X126636096Y-100332122D01*
X126551508Y-100288380D01*
X126499346Y-100263917D01*
X126466590Y-100263021D01*
X126447845Y-100294346D01*
X126440521Y-100319483D01*
X126448842Y-100323983D01*
X126468248Y-100314960D01*
X126475866Y-100317209D01*
X126515539Y-100328920D01*
X126559283Y-100369853D01*
X126578522Y-100421931D01*
X126584637Y-100454325D01*
X126607852Y-100463164D01*
X126610764Y-100468217D01*
X126616289Y-100522114D01*
X126621172Y-100634436D01*
X126625409Y-100805025D01*
X126628999Y-101033727D01*
X126631940Y-101320384D01*
X126634231Y-101664840D01*
X126635869Y-102066939D01*
X126636854Y-102526523D01*
X126637182Y-103043437D01*
X126637087Y-103491384D01*
X126636756Y-103894005D01*
X126636128Y-104245153D01*
X126635143Y-104548459D01*
X126633741Y-104807552D01*
X126631863Y-105026063D01*
X126629449Y-105207622D01*
X126626438Y-105355859D01*
X126622770Y-105474405D01*
X126618386Y-105566889D01*
X126613225Y-105636942D01*
X126607228Y-105688194D01*
X126600334Y-105724275D01*
X126592484Y-105748816D01*
X126589703Y-105755220D01*
X126542580Y-105835015D01*
X126474740Y-105921290D01*
X126399362Y-106000138D01*
X126329629Y-106057646D01*
X126278723Y-106079907D01*
X126255090Y-106084338D01*
X126201673Y-106116570D01*
X126165816Y-106131921D01*
X126076434Y-106145861D01*
X125933240Y-106156083D01*
X125733855Y-106162823D01*
X125572884Y-106165937D01*
X125456213Y-106166536D01*
X125383922Y-106163794D01*
X125348752Y-106157055D01*
X125343445Y-106145657D01*
X125360743Y-106128943D01*
X125372982Y-106119613D01*
X125400967Y-106089205D01*
X125399454Y-106050959D01*
X125369816Y-105982690D01*
X125353236Y-105947921D01*
X125463972Y-105947921D01*
X125478637Y-105962586D01*
X125493302Y-105947921D01*
X125478637Y-105933256D01*
X125463972Y-105947921D01*
X125353236Y-105947921D01*
X125332484Y-105904404D01*
X126329510Y-105904404D01*
X126337567Y-105913660D01*
X126375236Y-105917338D01*
X126386487Y-105909658D01*
X126399191Y-105884261D01*
X126356814Y-105874595D01*
X126335882Y-105878897D01*
X126329510Y-105904404D01*
X125332484Y-105904404D01*
X125320802Y-105879906D01*
X125478637Y-105876348D01*
X125763928Y-105869918D01*
X125873382Y-105867001D01*
X126028857Y-105860210D01*
X126038791Y-105859341D01*
X126262155Y-105859341D01*
X126265666Y-105894149D01*
X126274488Y-105898738D01*
X126285219Y-105874595D01*
X126283102Y-105859068D01*
X126265666Y-105855042D01*
X126262155Y-105859341D01*
X126038791Y-105859341D01*
X126134552Y-105850964D01*
X126196173Y-105838672D01*
X126219425Y-105822744D01*
X126228691Y-105802379D01*
X126265666Y-105751896D01*
X126267481Y-105749418D01*
X126287500Y-105724915D01*
X126293917Y-105713279D01*
X126343880Y-105713279D01*
X126356814Y-105726213D01*
X126358545Y-105727944D01*
X126373210Y-105713279D01*
X126358545Y-105698614D01*
X126343880Y-105713279D01*
X126293917Y-105713279D01*
X126323474Y-105659679D01*
X126325067Y-105644873D01*
X126327633Y-105575492D01*
X126330093Y-105453368D01*
X126332427Y-105282188D01*
X126334611Y-105065642D01*
X126334821Y-105038683D01*
X126431870Y-105038683D01*
X126446535Y-105053348D01*
X126461201Y-105038683D01*
X126446535Y-105024018D01*
X126431870Y-105038683D01*
X126334821Y-105038683D01*
X126336625Y-104807418D01*
X126338446Y-104511204D01*
X126340054Y-104180689D01*
X126341425Y-103819562D01*
X126341953Y-103635719D01*
X126412317Y-103635719D01*
X126416616Y-103639230D01*
X126446535Y-103636212D01*
X126451424Y-103635719D01*
X126456012Y-103626897D01*
X126431870Y-103616166D01*
X126416343Y-103618283D01*
X126412317Y-103635719D01*
X126341953Y-103635719D01*
X126342379Y-103487642D01*
X126431870Y-103487642D01*
X126433780Y-103491654D01*
X126461201Y-103484180D01*
X126469883Y-103478154D01*
X126490531Y-103451387D01*
X126488621Y-103447376D01*
X126461201Y-103454849D01*
X126452518Y-103460875D01*
X126431870Y-103487642D01*
X126342379Y-103487642D01*
X126342540Y-103431511D01*
X126343376Y-103020225D01*
X126343911Y-102589391D01*
X126344124Y-102142700D01*
X126344193Y-101860141D01*
X126344599Y-101316228D01*
X126345348Y-100844457D01*
X126461201Y-100844457D01*
X126475866Y-100859122D01*
X126488621Y-100846367D01*
X126490531Y-100844457D01*
X126475866Y-100829792D01*
X126461201Y-100844457D01*
X126345348Y-100844457D01*
X126345374Y-100828342D01*
X126346534Y-100394705D01*
X126348097Y-100013541D01*
X126350079Y-99683072D01*
X126352497Y-99401523D01*
X126355368Y-99167115D01*
X126358545Y-98987297D01*
X126358708Y-98978071D01*
X126362533Y-98832616D01*
X126366862Y-98728971D01*
X126371710Y-98665361D01*
X126377094Y-98640007D01*
X126392834Y-98615358D01*
X126578522Y-98615358D01*
X126593187Y-98630023D01*
X126607852Y-98615358D01*
X126593187Y-98600692D01*
X126578522Y-98615358D01*
X126392834Y-98615358D01*
X126394354Y-98612978D01*
X126377483Y-98600692D01*
X126375263Y-98594976D01*
X126370522Y-98541560D01*
X126369938Y-98527367D01*
X126490531Y-98527367D01*
X126505196Y-98542032D01*
X126519861Y-98527367D01*
X126505196Y-98512702D01*
X126490531Y-98527367D01*
X126369938Y-98527367D01*
X126366146Y-98435235D01*
X126362133Y-98279986D01*
X126361649Y-98253457D01*
X126440278Y-98253457D01*
X126443735Y-98273528D01*
X126452789Y-98286557D01*
X126477597Y-98307390D01*
X126481697Y-98307104D01*
X126488156Y-98290126D01*
X126456669Y-98260594D01*
X126440278Y-98253457D01*
X126361649Y-98253457D01*
X126358481Y-98079797D01*
X126355190Y-97838650D01*
X126352258Y-97560531D01*
X126349684Y-97249423D01*
X126347465Y-96909309D01*
X126345601Y-96544174D01*
X126345499Y-96518244D01*
X126417205Y-96518244D01*
X126423225Y-96527022D01*
X126448266Y-96547575D01*
X126451194Y-96546812D01*
X126461201Y-96518244D01*
X126460007Y-96510205D01*
X126430139Y-96488914D01*
X126419531Y-96491217D01*
X126417205Y-96518244D01*
X126345499Y-96518244D01*
X126344089Y-96158001D01*
X126342930Y-95754774D01*
X126342121Y-95338476D01*
X126341857Y-95095138D01*
X126438137Y-95095138D01*
X126441647Y-95129946D01*
X126450469Y-95134534D01*
X126461201Y-95110392D01*
X126459084Y-95094865D01*
X126441647Y-95090839D01*
X126438137Y-95095138D01*
X126341857Y-95095138D01*
X126341703Y-94952538D01*
X126431870Y-94952538D01*
X126433780Y-94956550D01*
X126441647Y-94954406D01*
X126461201Y-94949076D01*
X126469883Y-94943050D01*
X126490531Y-94916284D01*
X126488621Y-94912272D01*
X126461201Y-94919746D01*
X126452518Y-94925771D01*
X126431870Y-94952538D01*
X126341703Y-94952538D01*
X126341660Y-94913092D01*
X126341547Y-94482606D01*
X126341780Y-94051000D01*
X126342357Y-93622259D01*
X126343277Y-93200366D01*
X126344539Y-92789306D01*
X126346141Y-92393062D01*
X126346571Y-92309353D01*
X126461201Y-92309353D01*
X126475866Y-92324018D01*
X126488621Y-92311263D01*
X126490531Y-92309353D01*
X126475866Y-92294688D01*
X126461201Y-92309353D01*
X126346571Y-92309353D01*
X126348081Y-92015617D01*
X126349020Y-91869399D01*
X126490531Y-91869399D01*
X126505196Y-91884064D01*
X126519861Y-91869399D01*
X126505196Y-91854734D01*
X126490531Y-91869399D01*
X126349020Y-91869399D01*
X126350359Y-91660957D01*
X126352973Y-91333063D01*
X126355921Y-91035921D01*
X126359202Y-90773514D01*
X126362814Y-90549825D01*
X126366757Y-90368839D01*
X126371028Y-90234539D01*
X126375626Y-90150910D01*
X126380550Y-90121933D01*
X126402148Y-90118077D01*
X126380542Y-90104824D01*
X126371954Y-90095517D01*
X126367789Y-90080254D01*
X126578522Y-90080254D01*
X126593187Y-90094919D01*
X126607852Y-90080254D01*
X126593187Y-90065588D01*
X126578522Y-90080254D01*
X126367789Y-90080254D01*
X126360973Y-90055275D01*
X126353003Y-89978877D01*
X126347716Y-89860701D01*
X126345195Y-89718353D01*
X126440278Y-89718353D01*
X126443735Y-89738424D01*
X126452789Y-89751453D01*
X126477597Y-89772286D01*
X126481697Y-89772000D01*
X126488156Y-89755022D01*
X126456669Y-89725490D01*
X126440278Y-89718353D01*
X126345195Y-89718353D01*
X126344784Y-89695128D01*
X126343880Y-89476539D01*
X126344467Y-89304623D01*
X126347357Y-89124522D01*
X126353176Y-88995055D01*
X126362499Y-88911667D01*
X126375896Y-88869796D01*
X126393941Y-88864886D01*
X126417205Y-88892378D01*
G37*
G36*
X124936027Y-78864729D02*
G01*
X124964879Y-78864757D01*
X125005900Y-78864798D01*
X125214665Y-78866471D01*
X125292861Y-78867097D01*
X126221634Y-78876097D01*
X126345986Y-78964087D01*
X126446535Y-79045063D01*
X126453374Y-79050571D01*
X126534526Y-79148518D01*
X126553515Y-79171437D01*
X126607791Y-79304987D01*
X126614088Y-79349885D01*
X126621351Y-79449669D01*
X126627456Y-79586874D01*
X126631899Y-79749691D01*
X126634180Y-79926311D01*
X126637182Y-80448582D01*
X126541859Y-80395920D01*
X126473715Y-80357850D01*
X126419704Y-80321330D01*
X126412734Y-80313279D01*
X126519861Y-80313279D01*
X126534526Y-80327944D01*
X126549191Y-80313279D01*
X126534526Y-80298614D01*
X126519861Y-80313279D01*
X126412734Y-80313279D01*
X126383930Y-80280008D01*
X126362511Y-80223117D01*
X126351565Y-80139885D01*
X126347211Y-80019544D01*
X126345567Y-79851324D01*
X126344833Y-79781543D01*
X126340107Y-79608961D01*
X126329405Y-79481537D01*
X126325433Y-79462702D01*
X126431870Y-79462702D01*
X126446535Y-79477367D01*
X126461201Y-79462702D01*
X126446535Y-79448037D01*
X126431870Y-79462702D01*
X126325433Y-79462702D01*
X126309929Y-79389189D01*
X126278883Y-79321841D01*
X126233470Y-79269411D01*
X126170893Y-79221822D01*
X126164763Y-79217712D01*
X126134881Y-79199219D01*
X126102558Y-79184755D01*
X126060768Y-79173827D01*
X126002482Y-79165939D01*
X125920673Y-79160600D01*
X125808314Y-79157314D01*
X125658377Y-79155589D01*
X125463835Y-79154930D01*
X125217660Y-79154844D01*
X125052934Y-79154948D01*
X124838903Y-79155628D01*
X124672063Y-79157311D01*
X124545416Y-79160422D01*
X124451966Y-79165383D01*
X124384716Y-79172618D01*
X124336667Y-79182552D01*
X124300824Y-79195607D01*
X124270188Y-79212207D01*
X124265968Y-79214840D01*
X124188404Y-79280741D01*
X124130606Y-79357801D01*
X124127921Y-79365006D01*
X124124395Y-79381964D01*
X124121066Y-79408510D01*
X124117927Y-79446228D01*
X124114973Y-79496701D01*
X124112198Y-79561511D01*
X124109598Y-79642241D01*
X124107166Y-79740475D01*
X124104897Y-79857796D01*
X124102785Y-79995785D01*
X124100826Y-80156028D01*
X124099014Y-80340105D01*
X124097343Y-80549601D01*
X124095807Y-80786098D01*
X124094402Y-81051179D01*
X124093122Y-81346427D01*
X124091961Y-81673425D01*
X124090914Y-82033757D01*
X124089975Y-82429004D01*
X124089140Y-82860751D01*
X124088402Y-83330579D01*
X124087755Y-83840073D01*
X124087196Y-84390814D01*
X124086717Y-84984386D01*
X124086314Y-85622372D01*
X124085981Y-86306355D01*
X124085713Y-87037918D01*
X124085504Y-87818643D01*
X124085349Y-88650114D01*
X124085242Y-89533914D01*
X124085178Y-90471625D01*
X124085151Y-91464831D01*
X124085156Y-92515114D01*
X124085178Y-93231109D01*
X124085245Y-94253163D01*
X124085357Y-95219097D01*
X124085520Y-96130436D01*
X124085738Y-96988701D01*
X124086016Y-97795415D01*
X124086358Y-98552102D01*
X124086770Y-99260284D01*
X124087257Y-99921484D01*
X124087822Y-100537224D01*
X124088471Y-101109027D01*
X124089209Y-101638416D01*
X124090040Y-102126915D01*
X124090969Y-102576044D01*
X124092001Y-102987328D01*
X124093141Y-103362289D01*
X124094393Y-103702449D01*
X124095763Y-104009333D01*
X124097255Y-104284461D01*
X124098873Y-104529358D01*
X124100623Y-104745545D01*
X124102509Y-104934546D01*
X124104537Y-105097883D01*
X124106710Y-105237079D01*
X124109035Y-105353657D01*
X124111514Y-105449140D01*
X124114154Y-105525050D01*
X124116959Y-105582910D01*
X124119934Y-105624242D01*
X124123083Y-105650571D01*
X124126412Y-105663418D01*
X124159707Y-105723752D01*
X124200186Y-105777870D01*
X124250773Y-105815785D01*
X124321177Y-105840722D01*
X124421109Y-105855903D01*
X124560280Y-105864553D01*
X124748401Y-105869895D01*
X124768453Y-105870338D01*
X124877367Y-105872741D01*
X124994688Y-105875330D01*
X125112009Y-105877919D01*
X125146632Y-105878683D01*
X125200000Y-105879860D01*
X125202315Y-105957886D01*
X125208257Y-106002127D01*
X125219424Y-105999249D01*
X125232565Y-105981706D01*
X125283102Y-105963035D01*
X125309986Y-105967248D01*
X125297158Y-105985630D01*
X125265474Y-106021920D01*
X125231891Y-106087837D01*
X125204931Y-106138607D01*
X125160947Y-106162423D01*
X125079813Y-106167898D01*
X125068703Y-106167874D01*
X125000412Y-106164409D01*
X124979333Y-106151311D01*
X124995276Y-106123194D01*
X125013479Y-106094480D01*
X125013920Y-106087240D01*
X125141788Y-106087240D01*
X125146018Y-106114384D01*
X125170669Y-106138568D01*
X125188663Y-106137646D01*
X125196280Y-106124042D01*
X125170669Y-106079907D01*
X125166995Y-106074289D01*
X125146632Y-106053275D01*
X125141788Y-106087240D01*
X125013920Y-106087240D01*
X125015484Y-106061596D01*
X124989499Y-106054349D01*
X124953241Y-106079024D01*
X124936027Y-106125634D01*
X124928950Y-106136891D01*
X124877842Y-106154449D01*
X124788706Y-106165572D01*
X124675040Y-106170270D01*
X124550339Y-106168554D01*
X124428097Y-106160438D01*
X124321812Y-106145931D01*
X124244979Y-106125046D01*
X124181036Y-106093302D01*
X124155109Y-106057368D01*
X124155285Y-106055305D01*
X124768453Y-106055305D01*
X124771910Y-106075375D01*
X124780964Y-106088405D01*
X124805772Y-106109237D01*
X124809872Y-106108952D01*
X124816332Y-106091974D01*
X124784844Y-106062441D01*
X124768453Y-106055305D01*
X124155285Y-106055305D01*
X124156524Y-106040800D01*
X124857813Y-106040800D01*
X124862112Y-106044310D01*
X124896920Y-106040800D01*
X124901509Y-106031978D01*
X124877367Y-106021247D01*
X124861839Y-106023363D01*
X124857813Y-106040800D01*
X124156524Y-106040800D01*
X124159974Y-106000392D01*
X124164569Y-105978982D01*
X124848037Y-105978982D01*
X124848799Y-105981909D01*
X124877367Y-105991916D01*
X124885406Y-105990723D01*
X124906697Y-105960855D01*
X124904394Y-105950247D01*
X124877367Y-105947921D01*
X124868589Y-105953941D01*
X124848037Y-105978982D01*
X124164569Y-105978982D01*
X124176480Y-105923479D01*
X124975134Y-105923479D01*
X124979433Y-105926989D01*
X125014241Y-105923479D01*
X125092455Y-105923479D01*
X125096754Y-105926989D01*
X125131562Y-105923479D01*
X125136151Y-105914657D01*
X125112009Y-105903926D01*
X125096482Y-105906042D01*
X125092455Y-105923479D01*
X125014241Y-105923479D01*
X125018830Y-105914657D01*
X124994688Y-105903926D01*
X124979161Y-105906042D01*
X124975134Y-105923479D01*
X124176480Y-105923479D01*
X124177529Y-105918591D01*
X124120068Y-105983828D01*
X124062607Y-106049065D01*
X123981840Y-105969163D01*
X123968950Y-105955668D01*
X123902177Y-105868147D01*
X123847254Y-105771940D01*
X123843894Y-105764439D01*
X123832172Y-105733613D01*
X123822435Y-105696172D01*
X123814514Y-105646911D01*
X123808239Y-105580625D01*
X123803442Y-105492110D01*
X123799952Y-105376163D01*
X123797601Y-105227577D01*
X123796219Y-105041150D01*
X123795637Y-104811676D01*
X123795643Y-104774711D01*
X123997459Y-104774711D01*
X124012124Y-104789376D01*
X124026789Y-104774711D01*
X124012124Y-104760046D01*
X123997459Y-104774711D01*
X123795643Y-104774711D01*
X123795664Y-104657390D01*
X123850808Y-104657390D01*
X123865473Y-104672055D01*
X123876676Y-104660852D01*
X123938799Y-104660852D01*
X123940708Y-104664864D01*
X123968129Y-104657390D01*
X123976811Y-104651364D01*
X123997459Y-104624598D01*
X123995550Y-104620586D01*
X123968129Y-104628060D01*
X123959447Y-104634085D01*
X123938799Y-104660852D01*
X123876676Y-104660852D01*
X123880138Y-104657390D01*
X123865473Y-104642725D01*
X123850808Y-104657390D01*
X123795664Y-104657390D01*
X123795685Y-104533951D01*
X123796152Y-104230370D01*
X123938799Y-104230370D01*
X123939926Y-104238884D01*
X123968129Y-104261431D01*
X123974767Y-104261095D01*
X123995550Y-104249557D01*
X123997459Y-104248497D01*
X123996110Y-104243792D01*
X123968129Y-104217436D01*
X123956768Y-104212853D01*
X123938799Y-104230370D01*
X123796152Y-104230370D01*
X123796194Y-104202771D01*
X123796318Y-104143312D01*
X123796454Y-104100115D01*
X123997459Y-104100115D01*
X124012124Y-104114780D01*
X124026789Y-104100115D01*
X124012124Y-104085450D01*
X123997459Y-104100115D01*
X123796454Y-104100115D01*
X123797200Y-103863369D01*
X123798500Y-103604729D01*
X123800158Y-103372728D01*
X123802116Y-103172703D01*
X123804315Y-103009991D01*
X123806694Y-102889929D01*
X123809195Y-102817854D01*
X123811759Y-102799102D01*
X123828076Y-102826134D01*
X123865473Y-102830466D01*
X123881682Y-102832344D01*
X123887663Y-102830689D01*
X123932213Y-102802647D01*
X123924971Y-102757004D01*
X123865473Y-102689694D01*
X123804949Y-102633602D01*
X123909468Y-102633602D01*
X123924134Y-102648267D01*
X123931466Y-102640935D01*
X123970190Y-102640935D01*
X123975369Y-102682151D01*
X123997459Y-102706928D01*
X124004276Y-102706723D01*
X124012124Y-102703988D01*
X124024728Y-102699595D01*
X124018405Y-102683358D01*
X123997459Y-102633602D01*
X123985112Y-102605862D01*
X123973636Y-102595240D01*
X123970190Y-102640935D01*
X123931466Y-102640935D01*
X123938799Y-102633602D01*
X123924134Y-102618937D01*
X123909468Y-102633602D01*
X123804949Y-102633602D01*
X123792147Y-102621738D01*
X123792147Y-102574942D01*
X123909468Y-102574942D01*
X123924134Y-102589607D01*
X123938799Y-102574942D01*
X123924134Y-102560277D01*
X123909468Y-102574942D01*
X123792147Y-102574942D01*
X123792147Y-101049769D01*
X123968129Y-101049769D01*
X123973636Y-101055276D01*
X123982794Y-101064434D01*
X123997459Y-101049769D01*
X123982794Y-101035103D01*
X123968129Y-101049769D01*
X123792147Y-101049769D01*
X123792147Y-100978174D01*
X123997459Y-100978174D01*
X123999762Y-100988783D01*
X124026789Y-100991108D01*
X124035567Y-100985088D01*
X124056120Y-100960047D01*
X124055357Y-100957120D01*
X124026789Y-100947113D01*
X124018750Y-100948306D01*
X123997459Y-100978174D01*
X123792147Y-100978174D01*
X123792147Y-100156596D01*
X123792174Y-99955955D01*
X123792461Y-99529169D01*
X123792863Y-99295142D01*
X123977705Y-99295142D01*
X123982794Y-99333733D01*
X123984339Y-99345449D01*
X124005158Y-99397783D01*
X124026789Y-99418641D01*
X124030210Y-99421940D01*
X124034065Y-99421857D01*
X124054261Y-99414607D01*
X124049726Y-99398963D01*
X124026662Y-99341685D01*
X124000596Y-99294428D01*
X123983327Y-99279643D01*
X123977705Y-99295142D01*
X123792863Y-99295142D01*
X123793101Y-99156430D01*
X123794145Y-98834510D01*
X123795641Y-98560179D01*
X123797639Y-98330211D01*
X123800188Y-98141378D01*
X123803338Y-97990452D01*
X123807137Y-97874206D01*
X123811636Y-97789410D01*
X123814829Y-97754985D01*
X123957202Y-97754985D01*
X123968777Y-97779445D01*
X123983327Y-97764574D01*
X123986664Y-97761163D01*
X124004638Y-97706120D01*
X124008387Y-97657254D01*
X123996811Y-97632794D01*
X123978924Y-97651076D01*
X123960950Y-97706120D01*
X123957202Y-97754985D01*
X123814829Y-97754985D01*
X123816883Y-97732839D01*
X123821997Y-97706120D01*
X123909468Y-97706120D01*
X123924134Y-97720785D01*
X123938799Y-97706120D01*
X123924134Y-97691455D01*
X123909468Y-97706120D01*
X123821997Y-97706120D01*
X123822927Y-97701263D01*
X123829819Y-97691455D01*
X123830901Y-97691404D01*
X123866479Y-97667222D01*
X123912080Y-97613773D01*
X123924134Y-97595105D01*
X123951399Y-97552879D01*
X123956768Y-97537950D01*
X123968129Y-97506361D01*
X123950262Y-97498501D01*
X123902671Y-97508559D01*
X123849487Y-97530713D01*
X123815133Y-97556896D01*
X123812063Y-97543711D01*
X123808353Y-97478419D01*
X123804899Y-97363546D01*
X123801768Y-97204160D01*
X123799028Y-97005331D01*
X123796747Y-96772128D01*
X123794991Y-96509621D01*
X123793896Y-96239607D01*
X123997459Y-96239607D01*
X124012124Y-96254272D01*
X124026789Y-96239607D01*
X124012124Y-96224942D01*
X123997459Y-96239607D01*
X123793896Y-96239607D01*
X123793828Y-96222880D01*
X123793671Y-96127174D01*
X123948575Y-96127174D01*
X123952874Y-96130685D01*
X123987682Y-96127174D01*
X123992271Y-96118352D01*
X123968129Y-96107621D01*
X123952602Y-96109738D01*
X123948575Y-96127174D01*
X123793671Y-96127174D01*
X123793326Y-95916974D01*
X123793424Y-95711662D01*
X123850808Y-95711662D01*
X123865473Y-95726328D01*
X123875249Y-95716551D01*
X123948575Y-95716551D01*
X123952874Y-95720061D01*
X123968129Y-95718523D01*
X123987682Y-95716551D01*
X123992271Y-95707729D01*
X123968129Y-95696997D01*
X123952602Y-95699114D01*
X123948575Y-95716551D01*
X123875249Y-95716551D01*
X123880138Y-95711662D01*
X123865473Y-95696997D01*
X123850808Y-95711662D01*
X123793424Y-95711662D01*
X123793442Y-95674055D01*
X123794226Y-95382699D01*
X123795663Y-95114443D01*
X123797686Y-94874366D01*
X123800232Y-94667549D01*
X123803235Y-94499072D01*
X123806629Y-94374015D01*
X123810352Y-94297457D01*
X123814336Y-94274480D01*
X123823192Y-94283728D01*
X123865473Y-94302828D01*
X123868901Y-94304377D01*
X123916695Y-94305525D01*
X123938799Y-94284854D01*
X123924525Y-94238845D01*
X123889253Y-94183470D01*
X123858863Y-94151270D01*
X123957133Y-94151270D01*
X123968129Y-94159226D01*
X123985540Y-94171824D01*
X123996811Y-94171365D01*
X124003025Y-94171112D01*
X124012124Y-94168336D01*
X124024728Y-94164491D01*
X124019271Y-94149339D01*
X124000325Y-94100069D01*
X123989123Y-94072967D01*
X123975572Y-94062791D01*
X123961137Y-94107402D01*
X123957133Y-94151270D01*
X123858863Y-94151270D01*
X123848614Y-94140410D01*
X123818269Y-94129811D01*
X123816755Y-94127248D01*
X123812566Y-94081654D01*
X123810929Y-94039838D01*
X123909468Y-94039838D01*
X123924134Y-94054503D01*
X123938799Y-94039838D01*
X123924134Y-94025173D01*
X123909468Y-94039838D01*
X123810929Y-94039838D01*
X123808665Y-93982007D01*
X123805088Y-93831729D01*
X123801871Y-93634240D01*
X123799050Y-93392960D01*
X123796661Y-93111310D01*
X123794740Y-92792710D01*
X123794094Y-92631986D01*
X123909468Y-92631986D01*
X123924134Y-92646651D01*
X123938799Y-92631986D01*
X123924134Y-92617321D01*
X123909468Y-92631986D01*
X123794094Y-92631986D01*
X123793622Y-92514665D01*
X123968129Y-92514665D01*
X123975572Y-92522108D01*
X123982794Y-92529330D01*
X123997459Y-92514665D01*
X123982794Y-92500000D01*
X123968129Y-92514665D01*
X123793622Y-92514665D01*
X123793334Y-92443070D01*
X123997459Y-92443070D01*
X123999762Y-92453679D01*
X124026789Y-92456004D01*
X124035567Y-92449984D01*
X124056120Y-92424943D01*
X124055357Y-92422016D01*
X124026789Y-92412009D01*
X124018750Y-92413202D01*
X123997459Y-92443070D01*
X123793334Y-92443070D01*
X123793324Y-92440582D01*
X123792448Y-92058346D01*
X123792147Y-91649422D01*
X123792294Y-91374156D01*
X123792955Y-91009886D01*
X123793473Y-90855774D01*
X123997459Y-90855774D01*
X123998586Y-90864288D01*
X124026789Y-90886836D01*
X124033427Y-90886499D01*
X124056120Y-90873901D01*
X124054770Y-90869197D01*
X124026789Y-90842840D01*
X124015428Y-90838257D01*
X123997459Y-90855774D01*
X123793473Y-90855774D01*
X123793815Y-90754260D01*
X123974395Y-90754260D01*
X123977906Y-90789068D01*
X123982794Y-90791611D01*
X123986728Y-90793657D01*
X123997459Y-90769515D01*
X123995343Y-90753987D01*
X123977906Y-90749961D01*
X123974395Y-90754260D01*
X123793815Y-90754260D01*
X123794109Y-90666859D01*
X123909468Y-90666859D01*
X123924134Y-90681524D01*
X123938799Y-90666859D01*
X123924134Y-90652194D01*
X123909468Y-90666859D01*
X123794109Y-90666859D01*
X123794111Y-90666274D01*
X123795721Y-90347544D01*
X123797743Y-90057916D01*
X123800137Y-89801615D01*
X123802861Y-89582862D01*
X123805875Y-89405880D01*
X123809138Y-89274891D01*
X123809821Y-89259006D01*
X123909468Y-89259006D01*
X123924134Y-89273672D01*
X123938799Y-89259006D01*
X123924134Y-89244341D01*
X123909468Y-89259006D01*
X123809821Y-89259006D01*
X123812582Y-89194744D01*
X123970190Y-89194744D01*
X123971490Y-89225025D01*
X123977906Y-89240367D01*
X123977996Y-89240582D01*
X123997459Y-89200346D01*
X124014677Y-89156492D01*
X124015428Y-89151990D01*
X124022339Y-89110556D01*
X123997459Y-89112355D01*
X123980481Y-89135681D01*
X123970190Y-89194744D01*
X123812582Y-89194744D01*
X123812609Y-89194118D01*
X123815799Y-89171016D01*
X123909468Y-89171016D01*
X123924134Y-89185681D01*
X123938799Y-89171016D01*
X123924134Y-89156351D01*
X123909468Y-89171016D01*
X123815799Y-89171016D01*
X123816246Y-89167782D01*
X123838170Y-89165387D01*
X123881145Y-89132944D01*
X123921153Y-89084847D01*
X123924134Y-89077463D01*
X123938799Y-89041139D01*
X123941504Y-89030054D01*
X123975462Y-88999656D01*
X123978191Y-88998436D01*
X123974030Y-88989967D01*
X123924134Y-88988636D01*
X123856959Y-88999975D01*
X123814594Y-89023121D01*
X123811457Y-89009769D01*
X123807686Y-88944274D01*
X123804201Y-88829202D01*
X123801070Y-88669629D01*
X123798359Y-88470630D01*
X123796134Y-88237280D01*
X123794463Y-87974653D01*
X123793472Y-87704503D01*
X123997459Y-87704503D01*
X124012124Y-87719168D01*
X124022339Y-87708953D01*
X124026789Y-87704503D01*
X124012124Y-87689838D01*
X123997459Y-87704503D01*
X123793472Y-87704503D01*
X123793411Y-87687825D01*
X123793297Y-87592070D01*
X123948575Y-87592070D01*
X123952874Y-87595581D01*
X123987682Y-87592070D01*
X123992271Y-87583248D01*
X123968129Y-87572517D01*
X123952602Y-87574634D01*
X123948575Y-87592070D01*
X123793297Y-87592070D01*
X123793046Y-87381870D01*
X123793240Y-87176558D01*
X123850808Y-87176558D01*
X123865473Y-87191224D01*
X123875249Y-87181447D01*
X123948575Y-87181447D01*
X123952874Y-87184957D01*
X123968129Y-87183419D01*
X123987682Y-87181447D01*
X123992271Y-87172625D01*
X123968129Y-87161893D01*
X123952602Y-87164010D01*
X123948575Y-87181447D01*
X123875249Y-87181447D01*
X123880138Y-87176558D01*
X123865473Y-87161893D01*
X123850808Y-87176558D01*
X123793240Y-87176558D01*
X123793276Y-87138522D01*
X123793525Y-87059237D01*
X123997459Y-87059237D01*
X124012124Y-87073903D01*
X124026789Y-87059237D01*
X124012124Y-87044572D01*
X123997459Y-87059237D01*
X123793525Y-87059237D01*
X123794189Y-86847374D01*
X123795736Y-86579408D01*
X123797851Y-86339694D01*
X123800465Y-86133298D01*
X123803513Y-85965290D01*
X123806929Y-85840738D01*
X123810644Y-85764709D01*
X123814594Y-85742272D01*
X123823835Y-85752751D01*
X123865473Y-85771116D01*
X123867357Y-85771947D01*
X123910637Y-85768267D01*
X123926743Y-85741820D01*
X123918622Y-85711362D01*
X123888195Y-85649571D01*
X123850670Y-85603870D01*
X123820006Y-85593634D01*
X123819731Y-85592725D01*
X123909468Y-85592725D01*
X123924134Y-85607390D01*
X123938799Y-85592725D01*
X123924134Y-85578060D01*
X123909468Y-85592725D01*
X123819731Y-85592725D01*
X123816284Y-85581349D01*
X123815507Y-85570727D01*
X123970190Y-85570727D01*
X123975369Y-85611943D01*
X123997459Y-85636720D01*
X124004276Y-85636515D01*
X124012124Y-85633780D01*
X124024728Y-85629388D01*
X124018405Y-85613150D01*
X123997459Y-85563394D01*
X123985112Y-85535655D01*
X123973636Y-85525033D01*
X123970190Y-85570727D01*
X123815507Y-85570727D01*
X123811442Y-85515164D01*
X123811069Y-85504734D01*
X123909468Y-85504734D01*
X123924134Y-85519399D01*
X123938799Y-85504734D01*
X123924134Y-85490069D01*
X123909468Y-85504734D01*
X123811069Y-85504734D01*
X123807091Y-85393473D01*
X123803252Y-85218117D01*
X123799946Y-84990941D01*
X123797194Y-84713787D01*
X123795018Y-84388500D01*
X123793777Y-84096882D01*
X123909468Y-84096882D01*
X123924134Y-84111547D01*
X123938799Y-84096882D01*
X123924134Y-84082217D01*
X123909468Y-84096882D01*
X123793777Y-84096882D01*
X123793437Y-84016922D01*
X123793418Y-84008891D01*
X123968129Y-84008891D01*
X123973636Y-84014398D01*
X123982794Y-84023556D01*
X123997459Y-84008891D01*
X123982794Y-83994226D01*
X123968129Y-84008891D01*
X123793418Y-84008891D01*
X123793184Y-83907966D01*
X123997459Y-83907966D01*
X123999762Y-83918575D01*
X124026789Y-83920900D01*
X124035567Y-83914880D01*
X124056120Y-83889839D01*
X124055357Y-83886912D01*
X124026789Y-83876905D01*
X124018750Y-83878099D01*
X123997459Y-83907966D01*
X123793184Y-83907966D01*
X123792473Y-83600897D01*
X123792147Y-83142268D01*
X123792147Y-82320670D01*
X123997459Y-82320670D01*
X123998586Y-82329184D01*
X124026789Y-82351732D01*
X124033427Y-82351395D01*
X124056120Y-82338798D01*
X124054770Y-82334093D01*
X124026789Y-82307736D01*
X124015428Y-82303153D01*
X123997459Y-82320670D01*
X123792147Y-82320670D01*
X123792147Y-82249076D01*
X123968129Y-82249076D01*
X123982794Y-82263741D01*
X123997459Y-82249076D01*
X123982794Y-82234411D01*
X123968129Y-82249076D01*
X123792147Y-82249076D01*
X123792147Y-82131755D01*
X123909468Y-82131755D01*
X123924134Y-82146420D01*
X123938799Y-82131755D01*
X123924134Y-82117090D01*
X123909468Y-82131755D01*
X123792147Y-82131755D01*
X123792147Y-80723903D01*
X123909468Y-80723903D01*
X123924134Y-80738568D01*
X123938799Y-80723903D01*
X123924134Y-80709237D01*
X123909468Y-80723903D01*
X123792147Y-80723903D01*
X123792147Y-80678619D01*
X123912759Y-80678619D01*
X123924134Y-80664989D01*
X123933595Y-80653652D01*
X123936382Y-80649734D01*
X123959578Y-80631861D01*
X123973677Y-80668317D01*
X123978804Y-80690426D01*
X123982794Y-80694408D01*
X123988835Y-80700436D01*
X124003679Y-80656202D01*
X124005661Y-80648658D01*
X124007625Y-80603528D01*
X123975593Y-80597541D01*
X123953112Y-80606477D01*
X123916999Y-80650577D01*
X123916513Y-80652365D01*
X123912759Y-80678619D01*
X123792147Y-80678619D01*
X123792147Y-80673684D01*
X123861867Y-80618843D01*
X123914035Y-80568160D01*
X123946770Y-80509924D01*
X123942628Y-80467504D01*
X123898849Y-80453261D01*
X123858886Y-80461092D01*
X123814594Y-80487853D01*
X123813489Y-80488681D01*
X123807019Y-80461861D01*
X123801434Y-80385983D01*
X123797058Y-80269311D01*
X123794218Y-80120112D01*
X123793241Y-79946651D01*
X123793722Y-79799723D01*
X123797218Y-79607261D01*
X123805978Y-79458167D01*
X123822181Y-79343058D01*
X123848006Y-79252549D01*
X123860244Y-79228060D01*
X124144110Y-79228060D01*
X124158776Y-79242725D01*
X124173441Y-79228060D01*
X124158776Y-79213394D01*
X124144110Y-79228060D01*
X123860244Y-79228060D01*
X123885634Y-79177254D01*
X123937243Y-79107790D01*
X123975593Y-79066471D01*
X123976736Y-79065239D01*
X124953766Y-79065239D01*
X124954376Y-79103911D01*
X124981754Y-79125404D01*
X124987886Y-79119902D01*
X124994688Y-79079677D01*
X124990386Y-79058746D01*
X124964879Y-79052374D01*
X124953766Y-79065239D01*
X123976736Y-79065239D01*
X123988951Y-79052078D01*
X125200000Y-79052078D01*
X125214665Y-79066743D01*
X125229330Y-79052078D01*
X125214665Y-79037413D01*
X125200000Y-79052078D01*
X123988951Y-79052078D01*
X124005013Y-79034773D01*
X124015428Y-79024788D01*
X124050521Y-78991145D01*
X124099603Y-78953472D01*
X124125784Y-78939645D01*
X124916474Y-78939645D01*
X124920773Y-78943156D01*
X124955581Y-78939645D01*
X124960169Y-78930823D01*
X124936027Y-78920092D01*
X124920500Y-78922209D01*
X124916474Y-78939645D01*
X124125784Y-78939645D01*
X124155932Y-78923723D01*
X124158776Y-78922802D01*
X124212452Y-78905427D01*
X124672055Y-78905427D01*
X124686720Y-78920092D01*
X124701385Y-78905427D01*
X124686720Y-78890762D01*
X124672055Y-78905427D01*
X124212452Y-78905427D01*
X124225934Y-78901063D01*
X124316032Y-78884653D01*
X124432653Y-78873659D01*
X124582221Y-78867242D01*
X124686720Y-78865763D01*
X124771162Y-78864567D01*
X124936027Y-78864729D01*
G37*
D12*
%TO.C,GND*%
X97300000Y-40300000D02*
X97300000Y-43700000D01*
X97300000Y-43700000D02*
X100700000Y-43700000D01*
X100700000Y-40300000D02*
X97300000Y-40300000D01*
X100700000Y-43700000D02*
X100700000Y-40300000D01*
%TD*%
M02*
